G04 #@! TF.GenerationSoftware,KiCad,Pcbnew,(5.1.10-1-10_14)*
G04 #@! TF.CreationDate,2021-07-31T20:07:19+02:00*
G04 #@! TF.ProjectId,plate-ortho,706c6174-652d-46f7-9274-686f2e6b6963,1*
G04 #@! TF.SameCoordinates,Original*
G04 #@! TF.FileFunction,Profile,NP*
%FSLAX46Y46*%
G04 Gerber Fmt 4.6, Leading zero omitted, Abs format (unit mm)*
G04 Created by KiCad (PCBNEW (5.1.10-1-10_14)) date 2021-07-31 20:07:19*
%MOMM*%
%LPD*%
G01*
G04 APERTURE LIST*
G04 #@! TA.AperFunction,Profile*
%ADD10C,0.200000*%
G04 #@! TD*
G04 APERTURE END LIST*
D10*
X200515000Y-186659900D02*
X200515000Y-172689899D01*
X143380000Y-129519800D02*
X143380000Y-115549900D01*
X138300000Y-129519800D02*
X124330000Y-129519800D01*
X124330000Y-129519800D02*
X124330000Y-115549900D01*
X119250000Y-115549900D02*
X119250000Y-129519800D01*
X119250000Y-129519800D02*
X105280000Y-129519800D01*
X86230000Y-129519800D02*
X86230000Y-115549900D01*
X67180000Y-129519800D02*
X67180000Y-115549900D01*
X67180000Y-115549900D02*
X81150000Y-115549900D01*
X81150000Y-115549900D02*
X81150000Y-129519800D01*
X105280000Y-129519800D02*
X105280000Y-115549900D01*
X81150000Y-129519800D02*
X67180000Y-129519800D01*
X143380000Y-115549900D02*
X157350000Y-115549900D01*
X124330000Y-115549900D02*
X138300000Y-115549900D01*
X162430000Y-115549900D02*
X176400000Y-115549900D01*
X176400000Y-115549900D02*
X176400000Y-129519800D01*
X176400000Y-129519800D02*
X162430000Y-129519800D01*
X162430000Y-129519800D02*
X162430000Y-115549900D01*
X181480000Y-115549900D02*
X195450000Y-115549900D01*
X157350000Y-129519800D02*
X143380000Y-129519800D01*
X195450000Y-115549900D02*
X195450000Y-129519800D01*
X195450000Y-129519800D02*
X181480000Y-129519800D01*
X181480000Y-129519800D02*
X181480000Y-115549900D01*
X157350000Y-115549900D02*
X157350000Y-129519800D01*
X86230000Y-115549900D02*
X100200000Y-115549900D01*
X105280000Y-115549900D02*
X119250000Y-115549900D01*
X100200000Y-129519800D02*
X86230000Y-129519800D01*
X138300000Y-115549900D02*
X138300000Y-129519800D01*
X100200000Y-115549900D02*
X100200000Y-129519800D01*
X138300000Y-134599800D02*
X138300000Y-148570100D01*
X100200000Y-153650100D02*
X100200000Y-167620100D01*
X195450000Y-134599800D02*
X195450000Y-148570100D01*
X195450000Y-148570100D02*
X181480000Y-148570100D01*
X162430000Y-148570100D02*
X162430000Y-134599800D01*
X176400000Y-148570100D02*
X162430000Y-148570100D01*
X105280000Y-148570100D02*
X105280000Y-134599800D01*
X138300000Y-148570100D02*
X124330000Y-148570100D01*
X105280000Y-153650100D02*
X119250000Y-153650100D01*
X105280000Y-134599800D02*
X119250000Y-134599800D01*
X100200000Y-167620100D02*
X86230000Y-167620100D01*
X86230000Y-167620100D02*
X86230000Y-153650100D01*
X119250000Y-134599800D02*
X119250000Y-148570100D01*
X119250000Y-148570100D02*
X105280000Y-148570100D01*
X143380000Y-167620100D02*
X143380000Y-153650100D01*
X181480000Y-148570100D02*
X181480000Y-134599800D01*
X181480000Y-153650100D02*
X195450000Y-153650100D01*
X138300000Y-153650100D02*
X138300000Y-167620100D01*
X157350000Y-153650100D02*
X157350000Y-167620100D01*
X157350000Y-167620100D02*
X143380000Y-167620100D01*
X195450000Y-153650100D02*
X195450000Y-167620100D01*
X195450000Y-167620100D02*
X181480000Y-167620100D01*
X119250000Y-167620100D02*
X105280000Y-167620100D01*
X181480000Y-134599800D02*
X195450000Y-134599800D01*
X124330000Y-167620100D02*
X124330000Y-153650100D01*
X119250000Y-153650100D02*
X119250000Y-167620100D01*
X143380000Y-148570100D02*
X143380000Y-134599800D01*
X143380000Y-153650100D02*
X157350000Y-153650100D01*
X162430000Y-134599800D02*
X176400000Y-134599800D01*
X162430000Y-167620100D02*
X162430000Y-153650100D01*
X162430000Y-153650100D02*
X176400000Y-153650100D01*
X176400000Y-153650100D02*
X176400000Y-167620100D01*
X86230000Y-134599800D02*
X100200000Y-134599800D01*
X176400000Y-134599800D02*
X176400000Y-148570100D01*
X86230000Y-148570100D02*
X86230000Y-134599800D01*
X143380000Y-134599800D02*
X157350000Y-134599800D01*
X138300000Y-167620100D02*
X124330000Y-167620100D01*
X100200000Y-134599800D02*
X100200000Y-148570100D01*
X124330000Y-134599800D02*
X138300000Y-134599800D01*
X124330000Y-153650100D02*
X138300000Y-153650100D01*
X105280000Y-167620100D02*
X105280000Y-153650100D01*
X176400000Y-167620100D02*
X162430000Y-167620100D01*
X181480000Y-167620100D02*
X181480000Y-153650100D01*
X100200000Y-148570100D02*
X86230000Y-148570100D01*
X157350000Y-134599800D02*
X157350000Y-148570100D01*
X86230000Y-153650100D02*
X100200000Y-153650100D01*
X157350000Y-148570100D02*
X143380000Y-148570100D01*
X124330000Y-148570100D02*
X124330000Y-134599800D01*
X238630000Y-148570100D02*
X238630000Y-134599800D01*
X219580000Y-115549900D02*
X233550000Y-115549900D01*
X252600000Y-129519800D02*
X238630000Y-129519800D01*
X238630000Y-134599800D02*
X252600000Y-134599800D01*
X252600000Y-134599800D02*
X252600000Y-148570100D01*
X295780000Y-134599800D02*
X309750000Y-134599800D01*
X309750000Y-134599800D02*
X309750000Y-148570100D01*
X309750000Y-148570100D02*
X295780000Y-148570100D01*
X252600000Y-167620100D02*
X238630000Y-167620100D01*
X238630000Y-115549900D02*
X252600000Y-115549900D01*
X252600000Y-153650100D02*
X252600000Y-167620100D01*
X271650000Y-153650100D02*
X271650000Y-167620100D01*
X271650000Y-167620100D02*
X257680000Y-167620100D01*
X219580000Y-167620100D02*
X219580000Y-153650100D01*
X238630000Y-167620100D02*
X238630000Y-153650100D01*
X328800000Y-148570100D02*
X314829999Y-148570100D01*
X314829999Y-148570100D02*
X314829999Y-134599800D01*
X314829999Y-153650100D02*
X328800000Y-153650100D01*
X257680000Y-134599800D02*
X271650000Y-134599800D01*
X233550000Y-129519800D02*
X219580000Y-129519800D01*
X233550000Y-115549900D02*
X233550000Y-129519800D01*
X233550000Y-148570100D02*
X219580000Y-148570100D01*
X233550000Y-153650100D02*
X233550000Y-167620100D01*
X257680000Y-115549900D02*
X271650000Y-115549900D01*
X276730000Y-167620100D02*
X276730000Y-153650100D01*
X290700000Y-167620100D02*
X276730000Y-167620100D01*
X290700000Y-153650100D02*
X290700000Y-167620100D01*
X276730000Y-153650100D02*
X290700000Y-153650100D01*
X219580000Y-148570100D02*
X219580000Y-134599800D01*
X295780000Y-148570100D02*
X295780000Y-134599800D01*
X295780000Y-153650100D02*
X309750000Y-153650100D01*
X309750000Y-153650100D02*
X309750000Y-167620100D01*
X309750000Y-167620100D02*
X295780000Y-167620100D01*
X219580000Y-153650100D02*
X233550000Y-153650100D01*
X295780000Y-167620100D02*
X295780000Y-153650100D01*
X314829999Y-115549900D02*
X328800000Y-115549900D01*
X328800000Y-115549900D02*
X328800000Y-129519800D01*
X328800000Y-129519800D02*
X314829999Y-129519800D01*
X257680000Y-148570100D02*
X257680000Y-134599800D01*
X257680000Y-153650100D02*
X271650000Y-153650100D01*
X233550000Y-167620100D02*
X219580000Y-167620100D01*
X309750000Y-115549900D02*
X309750000Y-129519800D01*
X309750000Y-129519800D02*
X295780000Y-129519800D01*
X295780000Y-129519800D02*
X295780000Y-115549900D01*
X257680000Y-129519800D02*
X257680000Y-115549900D01*
X233550000Y-134599800D02*
X233550000Y-148570100D01*
X314829999Y-129519800D02*
X314829999Y-115549900D01*
X314829999Y-134599800D02*
X328800000Y-134599800D01*
X328800000Y-134599800D02*
X328800000Y-148570100D01*
X252600000Y-115549900D02*
X252600000Y-129519800D01*
X219580000Y-129519800D02*
X219580000Y-115549900D01*
X219580000Y-134599800D02*
X233550000Y-134599800D01*
X238630000Y-153650100D02*
X252600000Y-153650100D01*
X271650000Y-129519800D02*
X257680000Y-129519800D01*
X328800000Y-153650100D02*
X328800000Y-167620100D01*
X328800000Y-167620100D02*
X314829999Y-167620100D01*
X314829999Y-167620100D02*
X314829999Y-153650100D01*
X290700000Y-115549900D02*
X290700000Y-129519800D01*
X290700000Y-129519800D02*
X276730000Y-129519800D01*
X238630000Y-129519800D02*
X238630000Y-115549900D01*
X252600000Y-148570100D02*
X238630000Y-148570100D01*
X257680000Y-167620100D02*
X257680000Y-153650100D01*
X276730000Y-115549900D02*
X290700000Y-115549900D01*
X276730000Y-148570100D02*
X276730000Y-134599800D01*
X290700000Y-148570100D02*
X276730000Y-148570100D01*
X290700000Y-134599800D02*
X290700000Y-148570100D01*
X276730000Y-134599800D02*
X290700000Y-134599800D01*
X271650000Y-134599800D02*
X271650000Y-148570100D01*
X271650000Y-148570100D02*
X257680000Y-148570100D01*
X271650000Y-115549900D02*
X271650000Y-129519800D01*
X276730000Y-129519800D02*
X276730000Y-115549900D01*
X295780000Y-115549900D02*
X309750000Y-115549900D01*
X200515000Y-167610200D02*
X200515000Y-153640200D01*
X214485000Y-153640200D02*
X214485000Y-167610200D01*
X214485000Y-134589900D02*
X214485000Y-148560200D01*
X200515000Y-148560200D02*
X200515000Y-134589900D01*
X214485000Y-148560200D02*
X200515000Y-148560200D01*
X200515000Y-134589900D02*
X214485000Y-134589900D01*
X214485000Y-167610200D02*
X200515000Y-167610200D01*
X200515000Y-153640200D02*
X214485000Y-153640200D01*
X67500000Y-189219700D02*
G75*
G02*
X65000000Y-186719700I0J2500000D01*
G01*
X350000000Y-186719700D02*
G75*
G02*
X347500000Y-189219700I-2500000J0D01*
G01*
X65000000Y-153600000D02*
X65000000Y-186719700D01*
X81150000Y-148570100D02*
X70354975Y-148570100D01*
X70354975Y-153650100D02*
X81150000Y-153650100D01*
X67180000Y-148400000D02*
X65000000Y-148400000D01*
X70354975Y-148570100D02*
X70354975Y-153650100D01*
X67180000Y-153600000D02*
X65000000Y-153600000D01*
X347500000Y-189219700D02*
X67500000Y-189219700D01*
X350000000Y-153600000D02*
X350000000Y-186719700D01*
X347850000Y-153600000D02*
X350000000Y-153600000D01*
X347850000Y-148400000D02*
X350000000Y-148400000D01*
X214485000Y-186659900D02*
X200515000Y-186659900D01*
X214485000Y-172689899D02*
X214485000Y-186659900D01*
X200515000Y-172689899D02*
X214485000Y-172689899D01*
X333880000Y-167620100D02*
X333880000Y-153650100D01*
X347850000Y-167620100D02*
X333880000Y-167620100D01*
X347850000Y-167620100D02*
X347850000Y-153600000D01*
X333880000Y-153650100D02*
X344675025Y-153650100D01*
X344675025Y-148570100D02*
X344675025Y-153650100D01*
X240931975Y-172741050D02*
X238645975Y-172741050D01*
X240931975Y-171953051D02*
X240931975Y-172741050D01*
X262394975Y-172741050D02*
X245503975Y-172741050D01*
X262394975Y-171953051D02*
X262394975Y-172741050D01*
X245503975Y-171953051D02*
X240931975Y-171953051D01*
X271665975Y-186711051D02*
X271665975Y-172741050D01*
X271665975Y-172741050D02*
X269379975Y-172741050D01*
X295780000Y-186669800D02*
X295780000Y-172699799D01*
X309750000Y-186669800D02*
X295780000Y-186669800D01*
X309750000Y-172699799D02*
X309750000Y-186669800D01*
X295780000Y-172699799D02*
X309750000Y-172699799D01*
X219580000Y-186669800D02*
X219580000Y-172699799D01*
X233550000Y-186669800D02*
X219580000Y-186669800D01*
X233550000Y-172699799D02*
X233550000Y-186669800D01*
X219580000Y-172699799D02*
X233550000Y-172699799D01*
X276730000Y-186669800D02*
X276730000Y-172699799D01*
X290700000Y-186669800D02*
X276730000Y-186669800D01*
X290700000Y-172699799D02*
X290700000Y-186669800D01*
X276730000Y-172699799D02*
X290700000Y-172699799D01*
X314829999Y-172699799D02*
X328800000Y-172699799D01*
X328800000Y-172699799D02*
X328800000Y-186669800D01*
X328800000Y-186669800D02*
X314829999Y-186669800D01*
X314829999Y-186669800D02*
X314829999Y-172699799D01*
X333880000Y-172699799D02*
X347850000Y-172699799D01*
X347850000Y-172699799D02*
X347850000Y-186669800D01*
X347850000Y-186669800D02*
X333880000Y-186669800D01*
X333880000Y-186669800D02*
X333880000Y-172699799D01*
X238645975Y-172741050D02*
X238645975Y-186711051D01*
X269379975Y-171953051D02*
X269379975Y-172741050D01*
X245503975Y-171953051D02*
X245503975Y-172741050D01*
X269379975Y-171953051D02*
X262394975Y-171953051D01*
X238645975Y-186711051D02*
X271665975Y-186711051D01*
X333880000Y-129519800D02*
X333880000Y-115549900D01*
X347850000Y-129519800D02*
X333880000Y-129519800D01*
X347850000Y-115549900D02*
X347850000Y-129519800D01*
X333880000Y-115549900D02*
X347850000Y-115549900D01*
X333880000Y-134599800D02*
X347850000Y-134599800D01*
X347850000Y-134599800D02*
X347850000Y-148400000D01*
X344675025Y-148570100D02*
X333880000Y-148570100D01*
X333880000Y-148570100D02*
X333880000Y-134599800D01*
X174114000Y-171911800D02*
X174114000Y-172699799D01*
X152651000Y-171911800D02*
X152651000Y-172699799D01*
X169542000Y-171911800D02*
X169542000Y-172699799D01*
X145666000Y-171911800D02*
X145666000Y-172699799D01*
X143380000Y-172699799D02*
X145666000Y-172699799D01*
X174114000Y-172699799D02*
X176400000Y-172699799D01*
X169542000Y-171911800D02*
X174114000Y-171911800D01*
X145666000Y-171911800D02*
X152651000Y-171911800D01*
X181480000Y-186669800D02*
X181480000Y-172699799D01*
X195450000Y-186669800D02*
X181480000Y-186669800D01*
X195450000Y-172699799D02*
X195450000Y-186669800D01*
X181480000Y-172699799D02*
X195450000Y-172699799D01*
X143380000Y-186669800D02*
X143380000Y-172699799D01*
X176400000Y-186669800D02*
X143380000Y-186669800D01*
X105280000Y-186669800D02*
X105280000Y-172699799D01*
X119250000Y-186669800D02*
X105280000Y-186669800D01*
X119250000Y-172699799D02*
X119250000Y-186669800D01*
X105280000Y-172699799D02*
X119250000Y-172699799D01*
X67180000Y-172699799D02*
X81150000Y-172699799D01*
X81150000Y-172699799D02*
X81150000Y-186669800D01*
X81150000Y-186669800D02*
X67180000Y-186669800D01*
X67180000Y-186669800D02*
X67180000Y-172699799D01*
X86230000Y-172699799D02*
X100200000Y-172699799D01*
X100200000Y-172699799D02*
X100200000Y-186669800D01*
X100200000Y-186669800D02*
X86230000Y-186669800D01*
X86230000Y-186669800D02*
X86230000Y-172699799D01*
X124330000Y-186669800D02*
X124330000Y-172699799D01*
X138300000Y-186669800D02*
X124330000Y-186669800D01*
X138300000Y-172699799D02*
X138300000Y-186669800D01*
X124330000Y-172699799D02*
X138300000Y-172699799D01*
X176400000Y-172699799D02*
X176400000Y-186669800D01*
X152651000Y-172699799D02*
X169542000Y-172699799D01*
X67180000Y-148400000D02*
X67180000Y-134599800D01*
X81150000Y-134599800D02*
X81150000Y-148570100D01*
X67180000Y-134599800D02*
X81150000Y-134599800D01*
X67180000Y-167620100D02*
X67180000Y-153600000D01*
X81150000Y-167620100D02*
X67180000Y-167620100D01*
X81150000Y-153650100D02*
X81150000Y-167620100D01*
X214485000Y-115549900D02*
X200515000Y-115549900D01*
X214485000Y-129519800D02*
X214485000Y-115549900D01*
X214485000Y-129519800D02*
X200515000Y-129519800D01*
X200515000Y-129519800D02*
X200515000Y-115549900D01*
X350000000Y-113000000D02*
X350000000Y-148400000D01*
X65000000Y-113000000D02*
X65000000Y-148400000D01*
X65000000Y-113000000D02*
X350000000Y-113000000D01*
M02*
