G04 #@! TF.GenerationSoftware,KiCad,Pcbnew,(5.1.10-1-10_14)*
G04 #@! TF.CreationDate,2021-08-16T21:05:57+02:00*
G04 #@! TF.ProjectId,plate-ortho,706c6174-652d-46f7-9274-686f2e6b6963,1*
G04 #@! TF.SameCoordinates,Original*
G04 #@! TF.FileFunction,Copper,L2,Bot*
G04 #@! TF.FilePolarity,Positive*
%FSLAX46Y46*%
G04 Gerber Fmt 4.6, Leading zero omitted, Abs format (unit mm)*
G04 Created by KiCad (PCBNEW (5.1.10-1-10_14)) date 2021-08-16 21:05:57*
%MOMM*%
%LPD*%
G01*
G04 APERTURE LIST*
G04 #@! TA.AperFunction,ViaPad*
%ADD10C,0.600000*%
G04 #@! TD*
G04 #@! TA.AperFunction,NonConductor*
%ADD11C,0.254000*%
G04 #@! TD*
G04 #@! TA.AperFunction,NonConductor*
%ADD12C,0.100000*%
G04 #@! TD*
G04 APERTURE END LIST*
D10*
X83820000Y-132159375D03*
D11*
X349265001Y-147665000D02*
X348585000Y-147665000D01*
X348585000Y-134635905D01*
X348588556Y-134599800D01*
X348574365Y-134455715D01*
X348532337Y-134317167D01*
X348464087Y-134189480D01*
X348372238Y-134077562D01*
X348260320Y-133985713D01*
X348132633Y-133917463D01*
X347994085Y-133875435D01*
X347886105Y-133864800D01*
X347850000Y-133861244D01*
X347813895Y-133864800D01*
X333916105Y-133864800D01*
X333880000Y-133861244D01*
X333843895Y-133864800D01*
X333735915Y-133875435D01*
X333597367Y-133917463D01*
X333469680Y-133985713D01*
X333357762Y-134077562D01*
X333265913Y-134189480D01*
X333197663Y-134317167D01*
X333155635Y-134455715D01*
X333141444Y-134599800D01*
X333145001Y-134635915D01*
X333145000Y-148533995D01*
X333141444Y-148570100D01*
X333155635Y-148714185D01*
X333197663Y-148852733D01*
X333265913Y-148980420D01*
X333357762Y-149092338D01*
X333409746Y-149135000D01*
X333469680Y-149184187D01*
X333597367Y-149252437D01*
X333735915Y-149294465D01*
X333880000Y-149308656D01*
X333916105Y-149305100D01*
X343940025Y-149305100D01*
X343940026Y-152915100D01*
X333916105Y-152915100D01*
X333880000Y-152911544D01*
X333843895Y-152915100D01*
X333735915Y-152925735D01*
X333597367Y-152967763D01*
X333469680Y-153036013D01*
X333357762Y-153127862D01*
X333265913Y-153239780D01*
X333197663Y-153367467D01*
X333155635Y-153506015D01*
X333141444Y-153650100D01*
X333145001Y-153686215D01*
X333145000Y-167583995D01*
X333141444Y-167620100D01*
X333155635Y-167764185D01*
X333197663Y-167902733D01*
X333265913Y-168030420D01*
X333357762Y-168142338D01*
X333457617Y-168224287D01*
X333469680Y-168234187D01*
X333597367Y-168302437D01*
X333735915Y-168344465D01*
X333880000Y-168358656D01*
X333916105Y-168355100D01*
X347813895Y-168355100D01*
X347850000Y-168358656D01*
X347886105Y-168355100D01*
X347994085Y-168344465D01*
X348132633Y-168302437D01*
X348260320Y-168234187D01*
X348372238Y-168142338D01*
X348464087Y-168030420D01*
X348532337Y-167902733D01*
X348574365Y-167764185D01*
X348588556Y-167620100D01*
X348585000Y-167583995D01*
X348585000Y-154335000D01*
X349265000Y-154335000D01*
X349265001Y-186683743D01*
X349227929Y-187061838D01*
X349128564Y-187390949D01*
X348967170Y-187694487D01*
X348749891Y-187960896D01*
X348485002Y-188180031D01*
X348182599Y-188343539D01*
X347854195Y-188445197D01*
X347478349Y-188484700D01*
X67535946Y-188484700D01*
X67157862Y-188447629D01*
X66828751Y-188348264D01*
X66525213Y-188186870D01*
X66258804Y-187969591D01*
X66039669Y-187704702D01*
X65876161Y-187402299D01*
X65774503Y-187073895D01*
X65735000Y-186698049D01*
X65735000Y-172699799D01*
X66441444Y-172699799D01*
X66445001Y-172735914D01*
X66445000Y-186633695D01*
X66441444Y-186669800D01*
X66455635Y-186813885D01*
X66497663Y-186952433D01*
X66565913Y-187080120D01*
X66657762Y-187192038D01*
X66736771Y-187256879D01*
X66769680Y-187283887D01*
X66897367Y-187352137D01*
X67035915Y-187394165D01*
X67180000Y-187408356D01*
X67216105Y-187404800D01*
X81113895Y-187404800D01*
X81150000Y-187408356D01*
X81186105Y-187404800D01*
X81254305Y-187398083D01*
X81294085Y-187394165D01*
X81432633Y-187352137D01*
X81560320Y-187283887D01*
X81672238Y-187192038D01*
X81764087Y-187080120D01*
X81832337Y-186952433D01*
X81874365Y-186813885D01*
X81885000Y-186705905D01*
X81885000Y-186705904D01*
X81888556Y-186669800D01*
X81885000Y-186633695D01*
X81885000Y-172735904D01*
X81888556Y-172699799D01*
X85491444Y-172699799D01*
X85495001Y-172735914D01*
X85495000Y-186633695D01*
X85491444Y-186669800D01*
X85505635Y-186813885D01*
X85547663Y-186952433D01*
X85615913Y-187080120D01*
X85707762Y-187192038D01*
X85786771Y-187256879D01*
X85819680Y-187283887D01*
X85947367Y-187352137D01*
X86085915Y-187394165D01*
X86230000Y-187408356D01*
X86266105Y-187404800D01*
X100163895Y-187404800D01*
X100200000Y-187408356D01*
X100236105Y-187404800D01*
X100304305Y-187398083D01*
X100344085Y-187394165D01*
X100482633Y-187352137D01*
X100610320Y-187283887D01*
X100722238Y-187192038D01*
X100814087Y-187080120D01*
X100882337Y-186952433D01*
X100924365Y-186813885D01*
X100935000Y-186705905D01*
X100935000Y-186705904D01*
X100938556Y-186669800D01*
X100935000Y-186633695D01*
X100935000Y-172735904D01*
X100938556Y-172699799D01*
X104541444Y-172699799D01*
X104545001Y-172735914D01*
X104545000Y-186633695D01*
X104541444Y-186669800D01*
X104555635Y-186813885D01*
X104597663Y-186952433D01*
X104665913Y-187080120D01*
X104757762Y-187192038D01*
X104836771Y-187256879D01*
X104869680Y-187283887D01*
X104997367Y-187352137D01*
X105135915Y-187394165D01*
X105280000Y-187408356D01*
X105316105Y-187404800D01*
X119213895Y-187404800D01*
X119250000Y-187408356D01*
X119286105Y-187404800D01*
X119354305Y-187398083D01*
X119394085Y-187394165D01*
X119532633Y-187352137D01*
X119660320Y-187283887D01*
X119772238Y-187192038D01*
X119864087Y-187080120D01*
X119932337Y-186952433D01*
X119974365Y-186813885D01*
X119985000Y-186705905D01*
X119985000Y-186705904D01*
X119988556Y-186669800D01*
X119985000Y-186633695D01*
X119985000Y-172735904D01*
X119988556Y-172699799D01*
X123591444Y-172699799D01*
X123595001Y-172735914D01*
X123595000Y-186633695D01*
X123591444Y-186669800D01*
X123605635Y-186813885D01*
X123647663Y-186952433D01*
X123715913Y-187080120D01*
X123807762Y-187192038D01*
X123886771Y-187256879D01*
X123919680Y-187283887D01*
X124047367Y-187352137D01*
X124185915Y-187394165D01*
X124330000Y-187408356D01*
X124366105Y-187404800D01*
X138263895Y-187404800D01*
X138300000Y-187408356D01*
X138336105Y-187404800D01*
X138404305Y-187398083D01*
X138444085Y-187394165D01*
X138582633Y-187352137D01*
X138710320Y-187283887D01*
X138822238Y-187192038D01*
X138914087Y-187080120D01*
X138982337Y-186952433D01*
X139024365Y-186813885D01*
X139035000Y-186705905D01*
X139035000Y-186705904D01*
X139038556Y-186669800D01*
X139035000Y-186633695D01*
X139035000Y-172735904D01*
X139038556Y-172699799D01*
X142641444Y-172699799D01*
X142645001Y-172735914D01*
X142645000Y-186633695D01*
X142641444Y-186669800D01*
X142655635Y-186813885D01*
X142697663Y-186952433D01*
X142765913Y-187080120D01*
X142857762Y-187192038D01*
X142936771Y-187256879D01*
X142969680Y-187283887D01*
X143097367Y-187352137D01*
X143235915Y-187394165D01*
X143380000Y-187408356D01*
X143416105Y-187404800D01*
X176363895Y-187404800D01*
X176400000Y-187408356D01*
X176436105Y-187404800D01*
X176504305Y-187398083D01*
X176544085Y-187394165D01*
X176682633Y-187352137D01*
X176810320Y-187283887D01*
X176922238Y-187192038D01*
X177014087Y-187080120D01*
X177082337Y-186952433D01*
X177124365Y-186813885D01*
X177135000Y-186705905D01*
X177135000Y-186705904D01*
X177138556Y-186669800D01*
X177135000Y-186633695D01*
X177135000Y-172735904D01*
X177138556Y-172699799D01*
X180741444Y-172699799D01*
X180745001Y-172735914D01*
X180745000Y-186633695D01*
X180741444Y-186669800D01*
X180755635Y-186813885D01*
X180797663Y-186952433D01*
X180865913Y-187080120D01*
X180957762Y-187192038D01*
X181036771Y-187256879D01*
X181069680Y-187283887D01*
X181197367Y-187352137D01*
X181335915Y-187394165D01*
X181480000Y-187408356D01*
X181516105Y-187404800D01*
X195413895Y-187404800D01*
X195450000Y-187408356D01*
X195486105Y-187404800D01*
X195554305Y-187398083D01*
X195594085Y-187394165D01*
X195732633Y-187352137D01*
X195860320Y-187283887D01*
X195972238Y-187192038D01*
X196064087Y-187080120D01*
X196132337Y-186952433D01*
X196174365Y-186813885D01*
X196185000Y-186705905D01*
X196185000Y-186705904D01*
X196188556Y-186669800D01*
X196185000Y-186633695D01*
X196185000Y-172735904D01*
X196188556Y-172699799D01*
X196187581Y-172689899D01*
X199776444Y-172689899D01*
X199780001Y-172726014D01*
X199780000Y-186623795D01*
X199776444Y-186659900D01*
X199790635Y-186803985D01*
X199832663Y-186942533D01*
X199900913Y-187070220D01*
X199992762Y-187182138D01*
X200083834Y-187256879D01*
X200104680Y-187273987D01*
X200232367Y-187342237D01*
X200370915Y-187384265D01*
X200515000Y-187398456D01*
X200551105Y-187394900D01*
X214448895Y-187394900D01*
X214485000Y-187398456D01*
X214521105Y-187394900D01*
X214629085Y-187384265D01*
X214767633Y-187342237D01*
X214895320Y-187273987D01*
X215007238Y-187182138D01*
X215099087Y-187070220D01*
X215167337Y-186942533D01*
X215209365Y-186803985D01*
X215223556Y-186659900D01*
X215220000Y-186623795D01*
X215220000Y-172726004D01*
X215222580Y-172699799D01*
X218841444Y-172699799D01*
X218845001Y-172735914D01*
X218845000Y-186633695D01*
X218841444Y-186669800D01*
X218855635Y-186813885D01*
X218897663Y-186952433D01*
X218965913Y-187080120D01*
X219057762Y-187192038D01*
X219136771Y-187256879D01*
X219169680Y-187283887D01*
X219297367Y-187352137D01*
X219435915Y-187394165D01*
X219580000Y-187408356D01*
X219616105Y-187404800D01*
X233513895Y-187404800D01*
X233550000Y-187408356D01*
X233586105Y-187404800D01*
X233654305Y-187398083D01*
X233694085Y-187394165D01*
X233832633Y-187352137D01*
X233960320Y-187283887D01*
X234072238Y-187192038D01*
X234164087Y-187080120D01*
X234232337Y-186952433D01*
X234274365Y-186813885D01*
X234285000Y-186705905D01*
X234285000Y-186705904D01*
X234288556Y-186669800D01*
X234285000Y-186633695D01*
X234285000Y-172741050D01*
X237907419Y-172741050D01*
X237910975Y-172777155D01*
X237910976Y-186674936D01*
X237907419Y-186711051D01*
X237921610Y-186855136D01*
X237963638Y-186993684D01*
X238031888Y-187121371D01*
X238123737Y-187233289D01*
X238235655Y-187325138D01*
X238363342Y-187393388D01*
X238501890Y-187435416D01*
X238609870Y-187446051D01*
X238645975Y-187449607D01*
X238682080Y-187446051D01*
X271629870Y-187446051D01*
X271665975Y-187449607D01*
X271702080Y-187446051D01*
X271810060Y-187435416D01*
X271948608Y-187393388D01*
X272076295Y-187325138D01*
X272188213Y-187233289D01*
X272280062Y-187121371D01*
X272348312Y-186993684D01*
X272390340Y-186855136D01*
X272404531Y-186711051D01*
X272400975Y-186674946D01*
X272400975Y-172777155D01*
X272404531Y-172741050D01*
X272400469Y-172699799D01*
X275991444Y-172699799D01*
X275995001Y-172735914D01*
X275995000Y-186633695D01*
X275991444Y-186669800D01*
X276005635Y-186813885D01*
X276047663Y-186952433D01*
X276115913Y-187080120D01*
X276207762Y-187192038D01*
X276286771Y-187256879D01*
X276319680Y-187283887D01*
X276447367Y-187352137D01*
X276585915Y-187394165D01*
X276730000Y-187408356D01*
X276766105Y-187404800D01*
X290663895Y-187404800D01*
X290700000Y-187408356D01*
X290736105Y-187404800D01*
X290804305Y-187398083D01*
X290844085Y-187394165D01*
X290982633Y-187352137D01*
X291110320Y-187283887D01*
X291222238Y-187192038D01*
X291314087Y-187080120D01*
X291382337Y-186952433D01*
X291424365Y-186813885D01*
X291435000Y-186705905D01*
X291435000Y-186705904D01*
X291438556Y-186669800D01*
X291435000Y-186633695D01*
X291435000Y-172735904D01*
X291438556Y-172699799D01*
X295041444Y-172699799D01*
X295045001Y-172735914D01*
X295045000Y-186633695D01*
X295041444Y-186669800D01*
X295055635Y-186813885D01*
X295097663Y-186952433D01*
X295165913Y-187080120D01*
X295257762Y-187192038D01*
X295336771Y-187256879D01*
X295369680Y-187283887D01*
X295497367Y-187352137D01*
X295635915Y-187394165D01*
X295780000Y-187408356D01*
X295816105Y-187404800D01*
X309713895Y-187404800D01*
X309750000Y-187408356D01*
X309786105Y-187404800D01*
X309854305Y-187398083D01*
X309894085Y-187394165D01*
X310032633Y-187352137D01*
X310160320Y-187283887D01*
X310272238Y-187192038D01*
X310364087Y-187080120D01*
X310432337Y-186952433D01*
X310474365Y-186813885D01*
X310485000Y-186705905D01*
X310485000Y-186705904D01*
X310488556Y-186669800D01*
X310485000Y-186633695D01*
X310485000Y-172735904D01*
X310488556Y-172699799D01*
X314091443Y-172699799D01*
X314095000Y-172735914D01*
X314094999Y-186633695D01*
X314091443Y-186669800D01*
X314105634Y-186813885D01*
X314147662Y-186952433D01*
X314215912Y-187080120D01*
X314307761Y-187192038D01*
X314386770Y-187256879D01*
X314419679Y-187283887D01*
X314547366Y-187352137D01*
X314685914Y-187394165D01*
X314829999Y-187408356D01*
X314866104Y-187404800D01*
X328763895Y-187404800D01*
X328800000Y-187408356D01*
X328836105Y-187404800D01*
X328904305Y-187398083D01*
X328944085Y-187394165D01*
X329082633Y-187352137D01*
X329210320Y-187283887D01*
X329322238Y-187192038D01*
X329414087Y-187080120D01*
X329482337Y-186952433D01*
X329524365Y-186813885D01*
X329535000Y-186705905D01*
X329535000Y-186705904D01*
X329538556Y-186669800D01*
X329535000Y-186633695D01*
X329535000Y-172735904D01*
X329538556Y-172699799D01*
X333141444Y-172699799D01*
X333145001Y-172735914D01*
X333145000Y-186633695D01*
X333141444Y-186669800D01*
X333155635Y-186813885D01*
X333197663Y-186952433D01*
X333265913Y-187080120D01*
X333357762Y-187192038D01*
X333436771Y-187256879D01*
X333469680Y-187283887D01*
X333597367Y-187352137D01*
X333735915Y-187394165D01*
X333880000Y-187408356D01*
X333916105Y-187404800D01*
X347813895Y-187404800D01*
X347850000Y-187408356D01*
X347886105Y-187404800D01*
X347954305Y-187398083D01*
X347994085Y-187394165D01*
X348132633Y-187352137D01*
X348260320Y-187283887D01*
X348372238Y-187192038D01*
X348464087Y-187080120D01*
X348532337Y-186952433D01*
X348574365Y-186813885D01*
X348585000Y-186705905D01*
X348585000Y-186705904D01*
X348588556Y-186669800D01*
X348585000Y-186633695D01*
X348585000Y-172735904D01*
X348588556Y-172699799D01*
X348574365Y-172555714D01*
X348532337Y-172417166D01*
X348464087Y-172289479D01*
X348372238Y-172177561D01*
X348260320Y-172085712D01*
X348132633Y-172017462D01*
X347994085Y-171975434D01*
X347886105Y-171964799D01*
X347850000Y-171961243D01*
X347813895Y-171964799D01*
X333916105Y-171964799D01*
X333880000Y-171961243D01*
X333843895Y-171964799D01*
X333735915Y-171975434D01*
X333597367Y-172017462D01*
X333469680Y-172085712D01*
X333357762Y-172177561D01*
X333265913Y-172289479D01*
X333197663Y-172417166D01*
X333155635Y-172555714D01*
X333141444Y-172699799D01*
X329538556Y-172699799D01*
X329524365Y-172555714D01*
X329482337Y-172417166D01*
X329414087Y-172289479D01*
X329322238Y-172177561D01*
X329210320Y-172085712D01*
X329082633Y-172017462D01*
X328944085Y-171975434D01*
X328836105Y-171964799D01*
X328800000Y-171961243D01*
X328763895Y-171964799D01*
X314866104Y-171964799D01*
X314829999Y-171961243D01*
X314793894Y-171964799D01*
X314685914Y-171975434D01*
X314547366Y-172017462D01*
X314419679Y-172085712D01*
X314307761Y-172177561D01*
X314215912Y-172289479D01*
X314147662Y-172417166D01*
X314105634Y-172555714D01*
X314091443Y-172699799D01*
X310488556Y-172699799D01*
X310474365Y-172555714D01*
X310432337Y-172417166D01*
X310364087Y-172289479D01*
X310272238Y-172177561D01*
X310160320Y-172085712D01*
X310032633Y-172017462D01*
X309894085Y-171975434D01*
X309786105Y-171964799D01*
X309750000Y-171961243D01*
X309713895Y-171964799D01*
X295816105Y-171964799D01*
X295780000Y-171961243D01*
X295743895Y-171964799D01*
X295635915Y-171975434D01*
X295497367Y-172017462D01*
X295369680Y-172085712D01*
X295257762Y-172177561D01*
X295165913Y-172289479D01*
X295097663Y-172417166D01*
X295055635Y-172555714D01*
X295041444Y-172699799D01*
X291438556Y-172699799D01*
X291424365Y-172555714D01*
X291382337Y-172417166D01*
X291314087Y-172289479D01*
X291222238Y-172177561D01*
X291110320Y-172085712D01*
X290982633Y-172017462D01*
X290844085Y-171975434D01*
X290736105Y-171964799D01*
X290700000Y-171961243D01*
X290663895Y-171964799D01*
X276766105Y-171964799D01*
X276730000Y-171961243D01*
X276693895Y-171964799D01*
X276585915Y-171975434D01*
X276447367Y-172017462D01*
X276319680Y-172085712D01*
X276207762Y-172177561D01*
X276115913Y-172289479D01*
X276047663Y-172417166D01*
X276005635Y-172555714D01*
X275991444Y-172699799D01*
X272400469Y-172699799D01*
X272390340Y-172596965D01*
X272348312Y-172458417D01*
X272280062Y-172330730D01*
X272188213Y-172218812D01*
X272076295Y-172126963D01*
X271948608Y-172058713D01*
X271810060Y-172016685D01*
X271702080Y-172006050D01*
X271665975Y-172002494D01*
X271629870Y-172006050D01*
X270114975Y-172006050D01*
X270114975Y-171989156D01*
X270118531Y-171953051D01*
X270104340Y-171808966D01*
X270062312Y-171670418D01*
X269994062Y-171542731D01*
X269902213Y-171430813D01*
X269790295Y-171338964D01*
X269662608Y-171270714D01*
X269524060Y-171228686D01*
X269416080Y-171218051D01*
X269379975Y-171214495D01*
X269343870Y-171218051D01*
X262431080Y-171218051D01*
X262394975Y-171214495D01*
X262358870Y-171218051D01*
X262250890Y-171228686D01*
X262112342Y-171270714D01*
X261984655Y-171338964D01*
X261872737Y-171430813D01*
X261780888Y-171542731D01*
X261712638Y-171670418D01*
X261670610Y-171808966D01*
X261656419Y-171953051D01*
X261659975Y-171989156D01*
X261659975Y-172006050D01*
X246238975Y-172006050D01*
X246238975Y-171989156D01*
X246242531Y-171953051D01*
X246228340Y-171808966D01*
X246186312Y-171670418D01*
X246118062Y-171542731D01*
X246026213Y-171430813D01*
X245914295Y-171338964D01*
X245786608Y-171270714D01*
X245648060Y-171228686D01*
X245540080Y-171218051D01*
X245503975Y-171214495D01*
X245467870Y-171218051D01*
X240968080Y-171218051D01*
X240931975Y-171214495D01*
X240895870Y-171218051D01*
X240787890Y-171228686D01*
X240649342Y-171270714D01*
X240521655Y-171338964D01*
X240409737Y-171430813D01*
X240317888Y-171542731D01*
X240249638Y-171670418D01*
X240207610Y-171808966D01*
X240193419Y-171953051D01*
X240196975Y-171989156D01*
X240196975Y-172006050D01*
X238682080Y-172006050D01*
X238645975Y-172002494D01*
X238609870Y-172006050D01*
X238501890Y-172016685D01*
X238363342Y-172058713D01*
X238235655Y-172126963D01*
X238123737Y-172218812D01*
X238031888Y-172330730D01*
X237963638Y-172458417D01*
X237921610Y-172596965D01*
X237907419Y-172741050D01*
X234285000Y-172741050D01*
X234285000Y-172735904D01*
X234288556Y-172699799D01*
X234274365Y-172555714D01*
X234232337Y-172417166D01*
X234164087Y-172289479D01*
X234072238Y-172177561D01*
X233960320Y-172085712D01*
X233832633Y-172017462D01*
X233694085Y-171975434D01*
X233586105Y-171964799D01*
X233550000Y-171961243D01*
X233513895Y-171964799D01*
X219616105Y-171964799D01*
X219580000Y-171961243D01*
X219543895Y-171964799D01*
X219435915Y-171975434D01*
X219297367Y-172017462D01*
X219169680Y-172085712D01*
X219057762Y-172177561D01*
X218965913Y-172289479D01*
X218897663Y-172417166D01*
X218855635Y-172555714D01*
X218841444Y-172699799D01*
X215222580Y-172699799D01*
X215223556Y-172689899D01*
X215209365Y-172545814D01*
X215167337Y-172407266D01*
X215099087Y-172279579D01*
X215007238Y-172167661D01*
X214895320Y-172075812D01*
X214767633Y-172007562D01*
X214629085Y-171965534D01*
X214521105Y-171954899D01*
X214485000Y-171951343D01*
X214448895Y-171954899D01*
X200551105Y-171954899D01*
X200515000Y-171951343D01*
X200478895Y-171954899D01*
X200370915Y-171965534D01*
X200232367Y-172007562D01*
X200104680Y-172075812D01*
X199992762Y-172167661D01*
X199900913Y-172279579D01*
X199832663Y-172407266D01*
X199790635Y-172545814D01*
X199776444Y-172689899D01*
X196187581Y-172689899D01*
X196174365Y-172555714D01*
X196132337Y-172417166D01*
X196064087Y-172289479D01*
X195972238Y-172177561D01*
X195860320Y-172085712D01*
X195732633Y-172017462D01*
X195594085Y-171975434D01*
X195486105Y-171964799D01*
X195450000Y-171961243D01*
X195413895Y-171964799D01*
X181516105Y-171964799D01*
X181480000Y-171961243D01*
X181443895Y-171964799D01*
X181335915Y-171975434D01*
X181197367Y-172017462D01*
X181069680Y-172085712D01*
X180957762Y-172177561D01*
X180865913Y-172289479D01*
X180797663Y-172417166D01*
X180755635Y-172555714D01*
X180741444Y-172699799D01*
X177138556Y-172699799D01*
X177124365Y-172555714D01*
X177082337Y-172417166D01*
X177014087Y-172289479D01*
X176922238Y-172177561D01*
X176810320Y-172085712D01*
X176682633Y-172017462D01*
X176544085Y-171975434D01*
X176436105Y-171964799D01*
X176400000Y-171961243D01*
X176363895Y-171964799D01*
X174849000Y-171964799D01*
X174849000Y-171947905D01*
X174852556Y-171911800D01*
X174838365Y-171767715D01*
X174796337Y-171629167D01*
X174728087Y-171501480D01*
X174636238Y-171389562D01*
X174524320Y-171297713D01*
X174396633Y-171229463D01*
X174258085Y-171187435D01*
X174150105Y-171176800D01*
X174114000Y-171173244D01*
X174077895Y-171176800D01*
X169578105Y-171176800D01*
X169542000Y-171173244D01*
X169505895Y-171176800D01*
X169397915Y-171187435D01*
X169259367Y-171229463D01*
X169131680Y-171297713D01*
X169019762Y-171389562D01*
X168927913Y-171501480D01*
X168859663Y-171629167D01*
X168817635Y-171767715D01*
X168803444Y-171911800D01*
X168807000Y-171947905D01*
X168807000Y-171964799D01*
X153386000Y-171964799D01*
X153386000Y-171947905D01*
X153389556Y-171911800D01*
X153375365Y-171767715D01*
X153333337Y-171629167D01*
X153265087Y-171501480D01*
X153173238Y-171389562D01*
X153061320Y-171297713D01*
X152933633Y-171229463D01*
X152795085Y-171187435D01*
X152687105Y-171176800D01*
X152651000Y-171173244D01*
X152614895Y-171176800D01*
X145702105Y-171176800D01*
X145666000Y-171173244D01*
X145629895Y-171176800D01*
X145521915Y-171187435D01*
X145383367Y-171229463D01*
X145255680Y-171297713D01*
X145143762Y-171389562D01*
X145051913Y-171501480D01*
X144983663Y-171629167D01*
X144941635Y-171767715D01*
X144927444Y-171911800D01*
X144931000Y-171947905D01*
X144931000Y-171964799D01*
X143416105Y-171964799D01*
X143380000Y-171961243D01*
X143343895Y-171964799D01*
X143235915Y-171975434D01*
X143097367Y-172017462D01*
X142969680Y-172085712D01*
X142857762Y-172177561D01*
X142765913Y-172289479D01*
X142697663Y-172417166D01*
X142655635Y-172555714D01*
X142641444Y-172699799D01*
X139038556Y-172699799D01*
X139024365Y-172555714D01*
X138982337Y-172417166D01*
X138914087Y-172289479D01*
X138822238Y-172177561D01*
X138710320Y-172085712D01*
X138582633Y-172017462D01*
X138444085Y-171975434D01*
X138336105Y-171964799D01*
X138300000Y-171961243D01*
X138263895Y-171964799D01*
X124366105Y-171964799D01*
X124330000Y-171961243D01*
X124293895Y-171964799D01*
X124185915Y-171975434D01*
X124047367Y-172017462D01*
X123919680Y-172085712D01*
X123807762Y-172177561D01*
X123715913Y-172289479D01*
X123647663Y-172417166D01*
X123605635Y-172555714D01*
X123591444Y-172699799D01*
X119988556Y-172699799D01*
X119974365Y-172555714D01*
X119932337Y-172417166D01*
X119864087Y-172289479D01*
X119772238Y-172177561D01*
X119660320Y-172085712D01*
X119532633Y-172017462D01*
X119394085Y-171975434D01*
X119286105Y-171964799D01*
X119250000Y-171961243D01*
X119213895Y-171964799D01*
X105316105Y-171964799D01*
X105280000Y-171961243D01*
X105243895Y-171964799D01*
X105135915Y-171975434D01*
X104997367Y-172017462D01*
X104869680Y-172085712D01*
X104757762Y-172177561D01*
X104665913Y-172289479D01*
X104597663Y-172417166D01*
X104555635Y-172555714D01*
X104541444Y-172699799D01*
X100938556Y-172699799D01*
X100924365Y-172555714D01*
X100882337Y-172417166D01*
X100814087Y-172289479D01*
X100722238Y-172177561D01*
X100610320Y-172085712D01*
X100482633Y-172017462D01*
X100344085Y-171975434D01*
X100236105Y-171964799D01*
X100200000Y-171961243D01*
X100163895Y-171964799D01*
X86266105Y-171964799D01*
X86230000Y-171961243D01*
X86193895Y-171964799D01*
X86085915Y-171975434D01*
X85947367Y-172017462D01*
X85819680Y-172085712D01*
X85707762Y-172177561D01*
X85615913Y-172289479D01*
X85547663Y-172417166D01*
X85505635Y-172555714D01*
X85491444Y-172699799D01*
X81888556Y-172699799D01*
X81874365Y-172555714D01*
X81832337Y-172417166D01*
X81764087Y-172289479D01*
X81672238Y-172177561D01*
X81560320Y-172085712D01*
X81432633Y-172017462D01*
X81294085Y-171975434D01*
X81186105Y-171964799D01*
X81150000Y-171961243D01*
X81113895Y-171964799D01*
X67216105Y-171964799D01*
X67180000Y-171961243D01*
X67143895Y-171964799D01*
X67035915Y-171975434D01*
X66897367Y-172017462D01*
X66769680Y-172085712D01*
X66657762Y-172177561D01*
X66565913Y-172289479D01*
X66497663Y-172417166D01*
X66455635Y-172555714D01*
X66441444Y-172699799D01*
X65735000Y-172699799D01*
X65735000Y-154335000D01*
X66445001Y-154335000D01*
X66445000Y-167583995D01*
X66441444Y-167620100D01*
X66455635Y-167764185D01*
X66497663Y-167902733D01*
X66565913Y-168030420D01*
X66657762Y-168142338D01*
X66757617Y-168224287D01*
X66769680Y-168234187D01*
X66897367Y-168302437D01*
X67035915Y-168344465D01*
X67180000Y-168358656D01*
X67216105Y-168355100D01*
X81113895Y-168355100D01*
X81150000Y-168358656D01*
X81186105Y-168355100D01*
X81294085Y-168344465D01*
X81432633Y-168302437D01*
X81560320Y-168234187D01*
X81672238Y-168142338D01*
X81764087Y-168030420D01*
X81832337Y-167902733D01*
X81874365Y-167764185D01*
X81888556Y-167620100D01*
X81885000Y-167583995D01*
X81885000Y-153686205D01*
X81888556Y-153650100D01*
X85491444Y-153650100D01*
X85495001Y-153686215D01*
X85495000Y-167583995D01*
X85491444Y-167620100D01*
X85505635Y-167764185D01*
X85547663Y-167902733D01*
X85615913Y-168030420D01*
X85707762Y-168142338D01*
X85807617Y-168224287D01*
X85819680Y-168234187D01*
X85947367Y-168302437D01*
X86085915Y-168344465D01*
X86230000Y-168358656D01*
X86266105Y-168355100D01*
X100163895Y-168355100D01*
X100200000Y-168358656D01*
X100236105Y-168355100D01*
X100344085Y-168344465D01*
X100482633Y-168302437D01*
X100610320Y-168234187D01*
X100722238Y-168142338D01*
X100814087Y-168030420D01*
X100882337Y-167902733D01*
X100924365Y-167764185D01*
X100938556Y-167620100D01*
X100935000Y-167583995D01*
X100935000Y-153686205D01*
X100938556Y-153650100D01*
X104541444Y-153650100D01*
X104545001Y-153686215D01*
X104545000Y-167583995D01*
X104541444Y-167620100D01*
X104555635Y-167764185D01*
X104597663Y-167902733D01*
X104665913Y-168030420D01*
X104757762Y-168142338D01*
X104857617Y-168224287D01*
X104869680Y-168234187D01*
X104997367Y-168302437D01*
X105135915Y-168344465D01*
X105280000Y-168358656D01*
X105316105Y-168355100D01*
X119213895Y-168355100D01*
X119250000Y-168358656D01*
X119286105Y-168355100D01*
X119394085Y-168344465D01*
X119532633Y-168302437D01*
X119660320Y-168234187D01*
X119772238Y-168142338D01*
X119864087Y-168030420D01*
X119932337Y-167902733D01*
X119974365Y-167764185D01*
X119988556Y-167620100D01*
X119985000Y-167583995D01*
X119985000Y-153686205D01*
X119988556Y-153650100D01*
X123591444Y-153650100D01*
X123595001Y-153686215D01*
X123595000Y-167583995D01*
X123591444Y-167620100D01*
X123605635Y-167764185D01*
X123647663Y-167902733D01*
X123715913Y-168030420D01*
X123807762Y-168142338D01*
X123907617Y-168224287D01*
X123919680Y-168234187D01*
X124047367Y-168302437D01*
X124185915Y-168344465D01*
X124330000Y-168358656D01*
X124366105Y-168355100D01*
X138263895Y-168355100D01*
X138300000Y-168358656D01*
X138336105Y-168355100D01*
X138444085Y-168344465D01*
X138582633Y-168302437D01*
X138710320Y-168234187D01*
X138822238Y-168142338D01*
X138914087Y-168030420D01*
X138982337Y-167902733D01*
X139024365Y-167764185D01*
X139038556Y-167620100D01*
X139035000Y-167583995D01*
X139035000Y-153686205D01*
X139038556Y-153650100D01*
X142641444Y-153650100D01*
X142645001Y-153686215D01*
X142645000Y-167583995D01*
X142641444Y-167620100D01*
X142655635Y-167764185D01*
X142697663Y-167902733D01*
X142765913Y-168030420D01*
X142857762Y-168142338D01*
X142957617Y-168224287D01*
X142969680Y-168234187D01*
X143097367Y-168302437D01*
X143235915Y-168344465D01*
X143380000Y-168358656D01*
X143416105Y-168355100D01*
X157313895Y-168355100D01*
X157350000Y-168358656D01*
X157386105Y-168355100D01*
X157494085Y-168344465D01*
X157632633Y-168302437D01*
X157760320Y-168234187D01*
X157872238Y-168142338D01*
X157964087Y-168030420D01*
X158032337Y-167902733D01*
X158074365Y-167764185D01*
X158088556Y-167620100D01*
X158085000Y-167583995D01*
X158085000Y-153686205D01*
X158088556Y-153650100D01*
X161691444Y-153650100D01*
X161695001Y-153686215D01*
X161695000Y-167583995D01*
X161691444Y-167620100D01*
X161705635Y-167764185D01*
X161747663Y-167902733D01*
X161815913Y-168030420D01*
X161907762Y-168142338D01*
X162007617Y-168224287D01*
X162019680Y-168234187D01*
X162147367Y-168302437D01*
X162285915Y-168344465D01*
X162430000Y-168358656D01*
X162466105Y-168355100D01*
X176363895Y-168355100D01*
X176400000Y-168358656D01*
X176436105Y-168355100D01*
X176544085Y-168344465D01*
X176682633Y-168302437D01*
X176810320Y-168234187D01*
X176922238Y-168142338D01*
X177014087Y-168030420D01*
X177082337Y-167902733D01*
X177124365Y-167764185D01*
X177138556Y-167620100D01*
X177135000Y-167583995D01*
X177135000Y-153686205D01*
X177138556Y-153650100D01*
X180741444Y-153650100D01*
X180745001Y-153686215D01*
X180745000Y-167583995D01*
X180741444Y-167620100D01*
X180755635Y-167764185D01*
X180797663Y-167902733D01*
X180865913Y-168030420D01*
X180957762Y-168142338D01*
X181057617Y-168224287D01*
X181069680Y-168234187D01*
X181197367Y-168302437D01*
X181335915Y-168344465D01*
X181480000Y-168358656D01*
X181516105Y-168355100D01*
X195413895Y-168355100D01*
X195450000Y-168358656D01*
X195486105Y-168355100D01*
X195594085Y-168344465D01*
X195732633Y-168302437D01*
X195860320Y-168234187D01*
X195972238Y-168142338D01*
X196064087Y-168030420D01*
X196132337Y-167902733D01*
X196174365Y-167764185D01*
X196188556Y-167620100D01*
X196185000Y-167583995D01*
X196185000Y-153686205D01*
X196188556Y-153650100D01*
X196187581Y-153640200D01*
X199776444Y-153640200D01*
X199780001Y-153676315D01*
X199780000Y-167574095D01*
X199776444Y-167610200D01*
X199790635Y-167754285D01*
X199832663Y-167892833D01*
X199900913Y-168020520D01*
X199992762Y-168132438D01*
X200104680Y-168224287D01*
X200232367Y-168292537D01*
X200370915Y-168334565D01*
X200515000Y-168348756D01*
X200551105Y-168345200D01*
X214448895Y-168345200D01*
X214485000Y-168348756D01*
X214521105Y-168345200D01*
X214629085Y-168334565D01*
X214767633Y-168292537D01*
X214895320Y-168224287D01*
X215007238Y-168132438D01*
X215099087Y-168020520D01*
X215167337Y-167892833D01*
X215209365Y-167754285D01*
X215223556Y-167610200D01*
X215220000Y-167574095D01*
X215220000Y-153676305D01*
X215222580Y-153650100D01*
X218841444Y-153650100D01*
X218845001Y-153686215D01*
X218845000Y-167583995D01*
X218841444Y-167620100D01*
X218855635Y-167764185D01*
X218897663Y-167902733D01*
X218965913Y-168030420D01*
X219057762Y-168142338D01*
X219157617Y-168224287D01*
X219169680Y-168234187D01*
X219297367Y-168302437D01*
X219435915Y-168344465D01*
X219580000Y-168358656D01*
X219616105Y-168355100D01*
X233513895Y-168355100D01*
X233550000Y-168358656D01*
X233586105Y-168355100D01*
X233694085Y-168344465D01*
X233832633Y-168302437D01*
X233960320Y-168234187D01*
X234072238Y-168142338D01*
X234164087Y-168030420D01*
X234232337Y-167902733D01*
X234274365Y-167764185D01*
X234288556Y-167620100D01*
X234285000Y-167583995D01*
X234285000Y-153686205D01*
X234288556Y-153650100D01*
X237891444Y-153650100D01*
X237895001Y-153686215D01*
X237895000Y-167583995D01*
X237891444Y-167620100D01*
X237905635Y-167764185D01*
X237947663Y-167902733D01*
X238015913Y-168030420D01*
X238107762Y-168142338D01*
X238207617Y-168224287D01*
X238219680Y-168234187D01*
X238347367Y-168302437D01*
X238485915Y-168344465D01*
X238630000Y-168358656D01*
X238666105Y-168355100D01*
X252563895Y-168355100D01*
X252600000Y-168358656D01*
X252636105Y-168355100D01*
X252744085Y-168344465D01*
X252882633Y-168302437D01*
X253010320Y-168234187D01*
X253122238Y-168142338D01*
X253214087Y-168030420D01*
X253282337Y-167902733D01*
X253324365Y-167764185D01*
X253338556Y-167620100D01*
X253335000Y-167583995D01*
X253335000Y-153686205D01*
X253338556Y-153650100D01*
X256941444Y-153650100D01*
X256945001Y-153686215D01*
X256945000Y-167583995D01*
X256941444Y-167620100D01*
X256955635Y-167764185D01*
X256997663Y-167902733D01*
X257065913Y-168030420D01*
X257157762Y-168142338D01*
X257257617Y-168224287D01*
X257269680Y-168234187D01*
X257397367Y-168302437D01*
X257535915Y-168344465D01*
X257680000Y-168358656D01*
X257716105Y-168355100D01*
X271613895Y-168355100D01*
X271650000Y-168358656D01*
X271686105Y-168355100D01*
X271794085Y-168344465D01*
X271932633Y-168302437D01*
X272060320Y-168234187D01*
X272172238Y-168142338D01*
X272264087Y-168030420D01*
X272332337Y-167902733D01*
X272374365Y-167764185D01*
X272388556Y-167620100D01*
X272385000Y-167583995D01*
X272385000Y-153686205D01*
X272388556Y-153650100D01*
X275991444Y-153650100D01*
X275995001Y-153686215D01*
X275995000Y-167583995D01*
X275991444Y-167620100D01*
X276005635Y-167764185D01*
X276047663Y-167902733D01*
X276115913Y-168030420D01*
X276207762Y-168142338D01*
X276307617Y-168224287D01*
X276319680Y-168234187D01*
X276447367Y-168302437D01*
X276585915Y-168344465D01*
X276730000Y-168358656D01*
X276766105Y-168355100D01*
X290663895Y-168355100D01*
X290700000Y-168358656D01*
X290736105Y-168355100D01*
X290844085Y-168344465D01*
X290982633Y-168302437D01*
X291110320Y-168234187D01*
X291222238Y-168142338D01*
X291314087Y-168030420D01*
X291382337Y-167902733D01*
X291424365Y-167764185D01*
X291438556Y-167620100D01*
X291435000Y-167583995D01*
X291435000Y-153686205D01*
X291438556Y-153650100D01*
X295041444Y-153650100D01*
X295045001Y-153686215D01*
X295045000Y-167583995D01*
X295041444Y-167620100D01*
X295055635Y-167764185D01*
X295097663Y-167902733D01*
X295165913Y-168030420D01*
X295257762Y-168142338D01*
X295357617Y-168224287D01*
X295369680Y-168234187D01*
X295497367Y-168302437D01*
X295635915Y-168344465D01*
X295780000Y-168358656D01*
X295816105Y-168355100D01*
X309713895Y-168355100D01*
X309750000Y-168358656D01*
X309786105Y-168355100D01*
X309894085Y-168344465D01*
X310032633Y-168302437D01*
X310160320Y-168234187D01*
X310272238Y-168142338D01*
X310364087Y-168030420D01*
X310432337Y-167902733D01*
X310474365Y-167764185D01*
X310488556Y-167620100D01*
X310485000Y-167583995D01*
X310485000Y-153686205D01*
X310488556Y-153650100D01*
X314091443Y-153650100D01*
X314095000Y-153686215D01*
X314094999Y-167583995D01*
X314091443Y-167620100D01*
X314105634Y-167764185D01*
X314147662Y-167902733D01*
X314215912Y-168030420D01*
X314307761Y-168142338D01*
X314407616Y-168224287D01*
X314419679Y-168234187D01*
X314547366Y-168302437D01*
X314685914Y-168344465D01*
X314829999Y-168358656D01*
X314866104Y-168355100D01*
X328763895Y-168355100D01*
X328800000Y-168358656D01*
X328836105Y-168355100D01*
X328944085Y-168344465D01*
X329082633Y-168302437D01*
X329210320Y-168234187D01*
X329322238Y-168142338D01*
X329414087Y-168030420D01*
X329482337Y-167902733D01*
X329524365Y-167764185D01*
X329538556Y-167620100D01*
X329535000Y-167583995D01*
X329535000Y-153686205D01*
X329538556Y-153650100D01*
X329524365Y-153506015D01*
X329482337Y-153367467D01*
X329414087Y-153239780D01*
X329322238Y-153127862D01*
X329210320Y-153036013D01*
X329082633Y-152967763D01*
X328944085Y-152925735D01*
X328836105Y-152915100D01*
X328800000Y-152911544D01*
X328763895Y-152915100D01*
X314866104Y-152915100D01*
X314829999Y-152911544D01*
X314793894Y-152915100D01*
X314685914Y-152925735D01*
X314547366Y-152967763D01*
X314419679Y-153036013D01*
X314307761Y-153127862D01*
X314215912Y-153239780D01*
X314147662Y-153367467D01*
X314105634Y-153506015D01*
X314091443Y-153650100D01*
X310488556Y-153650100D01*
X310474365Y-153506015D01*
X310432337Y-153367467D01*
X310364087Y-153239780D01*
X310272238Y-153127862D01*
X310160320Y-153036013D01*
X310032633Y-152967763D01*
X309894085Y-152925735D01*
X309786105Y-152915100D01*
X309750000Y-152911544D01*
X309713895Y-152915100D01*
X295816105Y-152915100D01*
X295780000Y-152911544D01*
X295743895Y-152915100D01*
X295635915Y-152925735D01*
X295497367Y-152967763D01*
X295369680Y-153036013D01*
X295257762Y-153127862D01*
X295165913Y-153239780D01*
X295097663Y-153367467D01*
X295055635Y-153506015D01*
X295041444Y-153650100D01*
X291438556Y-153650100D01*
X291424365Y-153506015D01*
X291382337Y-153367467D01*
X291314087Y-153239780D01*
X291222238Y-153127862D01*
X291110320Y-153036013D01*
X290982633Y-152967763D01*
X290844085Y-152925735D01*
X290736105Y-152915100D01*
X290700000Y-152911544D01*
X290663895Y-152915100D01*
X276766105Y-152915100D01*
X276730000Y-152911544D01*
X276693895Y-152915100D01*
X276585915Y-152925735D01*
X276447367Y-152967763D01*
X276319680Y-153036013D01*
X276207762Y-153127862D01*
X276115913Y-153239780D01*
X276047663Y-153367467D01*
X276005635Y-153506015D01*
X275991444Y-153650100D01*
X272388556Y-153650100D01*
X272374365Y-153506015D01*
X272332337Y-153367467D01*
X272264087Y-153239780D01*
X272172238Y-153127862D01*
X272060320Y-153036013D01*
X271932633Y-152967763D01*
X271794085Y-152925735D01*
X271686105Y-152915100D01*
X271650000Y-152911544D01*
X271613895Y-152915100D01*
X257716105Y-152915100D01*
X257680000Y-152911544D01*
X257643895Y-152915100D01*
X257535915Y-152925735D01*
X257397367Y-152967763D01*
X257269680Y-153036013D01*
X257157762Y-153127862D01*
X257065913Y-153239780D01*
X256997663Y-153367467D01*
X256955635Y-153506015D01*
X256941444Y-153650100D01*
X253338556Y-153650100D01*
X253324365Y-153506015D01*
X253282337Y-153367467D01*
X253214087Y-153239780D01*
X253122238Y-153127862D01*
X253010320Y-153036013D01*
X252882633Y-152967763D01*
X252744085Y-152925735D01*
X252636105Y-152915100D01*
X252600000Y-152911544D01*
X252563895Y-152915100D01*
X238666105Y-152915100D01*
X238630000Y-152911544D01*
X238593895Y-152915100D01*
X238485915Y-152925735D01*
X238347367Y-152967763D01*
X238219680Y-153036013D01*
X238107762Y-153127862D01*
X238015913Y-153239780D01*
X237947663Y-153367467D01*
X237905635Y-153506015D01*
X237891444Y-153650100D01*
X234288556Y-153650100D01*
X234274365Y-153506015D01*
X234232337Y-153367467D01*
X234164087Y-153239780D01*
X234072238Y-153127862D01*
X233960320Y-153036013D01*
X233832633Y-152967763D01*
X233694085Y-152925735D01*
X233586105Y-152915100D01*
X233550000Y-152911544D01*
X233513895Y-152915100D01*
X219616105Y-152915100D01*
X219580000Y-152911544D01*
X219543895Y-152915100D01*
X219435915Y-152925735D01*
X219297367Y-152967763D01*
X219169680Y-153036013D01*
X219057762Y-153127862D01*
X218965913Y-153239780D01*
X218897663Y-153367467D01*
X218855635Y-153506015D01*
X218841444Y-153650100D01*
X215222580Y-153650100D01*
X215223556Y-153640200D01*
X215209365Y-153496115D01*
X215167337Y-153357567D01*
X215099087Y-153229880D01*
X215007238Y-153117962D01*
X214895320Y-153026113D01*
X214767633Y-152957863D01*
X214629085Y-152915835D01*
X214521105Y-152905200D01*
X214485000Y-152901644D01*
X214448895Y-152905200D01*
X200551105Y-152905200D01*
X200515000Y-152901644D01*
X200478895Y-152905200D01*
X200370915Y-152915835D01*
X200232367Y-152957863D01*
X200104680Y-153026113D01*
X199992762Y-153117962D01*
X199900913Y-153229880D01*
X199832663Y-153357567D01*
X199790635Y-153496115D01*
X199776444Y-153640200D01*
X196187581Y-153640200D01*
X196174365Y-153506015D01*
X196132337Y-153367467D01*
X196064087Y-153239780D01*
X195972238Y-153127862D01*
X195860320Y-153036013D01*
X195732633Y-152967763D01*
X195594085Y-152925735D01*
X195486105Y-152915100D01*
X195450000Y-152911544D01*
X195413895Y-152915100D01*
X181516105Y-152915100D01*
X181480000Y-152911544D01*
X181443895Y-152915100D01*
X181335915Y-152925735D01*
X181197367Y-152967763D01*
X181069680Y-153036013D01*
X180957762Y-153127862D01*
X180865913Y-153239780D01*
X180797663Y-153367467D01*
X180755635Y-153506015D01*
X180741444Y-153650100D01*
X177138556Y-153650100D01*
X177124365Y-153506015D01*
X177082337Y-153367467D01*
X177014087Y-153239780D01*
X176922238Y-153127862D01*
X176810320Y-153036013D01*
X176682633Y-152967763D01*
X176544085Y-152925735D01*
X176436105Y-152915100D01*
X176400000Y-152911544D01*
X176363895Y-152915100D01*
X162466105Y-152915100D01*
X162430000Y-152911544D01*
X162393895Y-152915100D01*
X162285915Y-152925735D01*
X162147367Y-152967763D01*
X162019680Y-153036013D01*
X161907762Y-153127862D01*
X161815913Y-153239780D01*
X161747663Y-153367467D01*
X161705635Y-153506015D01*
X161691444Y-153650100D01*
X158088556Y-153650100D01*
X158074365Y-153506015D01*
X158032337Y-153367467D01*
X157964087Y-153239780D01*
X157872238Y-153127862D01*
X157760320Y-153036013D01*
X157632633Y-152967763D01*
X157494085Y-152925735D01*
X157386105Y-152915100D01*
X157350000Y-152911544D01*
X157313895Y-152915100D01*
X143416105Y-152915100D01*
X143380000Y-152911544D01*
X143343895Y-152915100D01*
X143235915Y-152925735D01*
X143097367Y-152967763D01*
X142969680Y-153036013D01*
X142857762Y-153127862D01*
X142765913Y-153239780D01*
X142697663Y-153367467D01*
X142655635Y-153506015D01*
X142641444Y-153650100D01*
X139038556Y-153650100D01*
X139024365Y-153506015D01*
X138982337Y-153367467D01*
X138914087Y-153239780D01*
X138822238Y-153127862D01*
X138710320Y-153036013D01*
X138582633Y-152967763D01*
X138444085Y-152925735D01*
X138336105Y-152915100D01*
X138300000Y-152911544D01*
X138263895Y-152915100D01*
X124366105Y-152915100D01*
X124330000Y-152911544D01*
X124293895Y-152915100D01*
X124185915Y-152925735D01*
X124047367Y-152967763D01*
X123919680Y-153036013D01*
X123807762Y-153127862D01*
X123715913Y-153239780D01*
X123647663Y-153367467D01*
X123605635Y-153506015D01*
X123591444Y-153650100D01*
X119988556Y-153650100D01*
X119974365Y-153506015D01*
X119932337Y-153367467D01*
X119864087Y-153239780D01*
X119772238Y-153127862D01*
X119660320Y-153036013D01*
X119532633Y-152967763D01*
X119394085Y-152925735D01*
X119286105Y-152915100D01*
X119250000Y-152911544D01*
X119213895Y-152915100D01*
X105316105Y-152915100D01*
X105280000Y-152911544D01*
X105243895Y-152915100D01*
X105135915Y-152925735D01*
X104997367Y-152967763D01*
X104869680Y-153036013D01*
X104757762Y-153127862D01*
X104665913Y-153239780D01*
X104597663Y-153367467D01*
X104555635Y-153506015D01*
X104541444Y-153650100D01*
X100938556Y-153650100D01*
X100924365Y-153506015D01*
X100882337Y-153367467D01*
X100814087Y-153239780D01*
X100722238Y-153127862D01*
X100610320Y-153036013D01*
X100482633Y-152967763D01*
X100344085Y-152925735D01*
X100236105Y-152915100D01*
X100200000Y-152911544D01*
X100163895Y-152915100D01*
X86266105Y-152915100D01*
X86230000Y-152911544D01*
X86193895Y-152915100D01*
X86085915Y-152925735D01*
X85947367Y-152967763D01*
X85819680Y-153036013D01*
X85707762Y-153127862D01*
X85615913Y-153239780D01*
X85547663Y-153367467D01*
X85505635Y-153506015D01*
X85491444Y-153650100D01*
X81888556Y-153650100D01*
X81874365Y-153506015D01*
X81832337Y-153367467D01*
X81764087Y-153239780D01*
X81672238Y-153127862D01*
X81560320Y-153036013D01*
X81432633Y-152967763D01*
X81294085Y-152925735D01*
X81186105Y-152915100D01*
X81150000Y-152911544D01*
X81113895Y-152915100D01*
X71089975Y-152915100D01*
X71089975Y-149305100D01*
X81113895Y-149305100D01*
X81150000Y-149308656D01*
X81186105Y-149305100D01*
X81294085Y-149294465D01*
X81432633Y-149252437D01*
X81560320Y-149184187D01*
X81672238Y-149092338D01*
X81764087Y-148980420D01*
X81832337Y-148852733D01*
X81874365Y-148714185D01*
X81888556Y-148570100D01*
X81885000Y-148533995D01*
X81885000Y-134635905D01*
X81888556Y-134599800D01*
X85491444Y-134599800D01*
X85495001Y-134635915D01*
X85495000Y-148533995D01*
X85491444Y-148570100D01*
X85505635Y-148714185D01*
X85547663Y-148852733D01*
X85615913Y-148980420D01*
X85707762Y-149092338D01*
X85759746Y-149135000D01*
X85819680Y-149184187D01*
X85947367Y-149252437D01*
X86085915Y-149294465D01*
X86230000Y-149308656D01*
X86266105Y-149305100D01*
X100163895Y-149305100D01*
X100200000Y-149308656D01*
X100236105Y-149305100D01*
X100344085Y-149294465D01*
X100482633Y-149252437D01*
X100610320Y-149184187D01*
X100722238Y-149092338D01*
X100814087Y-148980420D01*
X100882337Y-148852733D01*
X100924365Y-148714185D01*
X100938556Y-148570100D01*
X100935000Y-148533995D01*
X100935000Y-134635905D01*
X100938556Y-134599800D01*
X104541444Y-134599800D01*
X104545001Y-134635915D01*
X104545000Y-148533995D01*
X104541444Y-148570100D01*
X104555635Y-148714185D01*
X104597663Y-148852733D01*
X104665913Y-148980420D01*
X104757762Y-149092338D01*
X104809746Y-149135000D01*
X104869680Y-149184187D01*
X104997367Y-149252437D01*
X105135915Y-149294465D01*
X105280000Y-149308656D01*
X105316105Y-149305100D01*
X119213895Y-149305100D01*
X119250000Y-149308656D01*
X119286105Y-149305100D01*
X119394085Y-149294465D01*
X119532633Y-149252437D01*
X119660320Y-149184187D01*
X119772238Y-149092338D01*
X119864087Y-148980420D01*
X119932337Y-148852733D01*
X119974365Y-148714185D01*
X119988556Y-148570100D01*
X119985000Y-148533995D01*
X119985000Y-134635905D01*
X119988556Y-134599800D01*
X123591444Y-134599800D01*
X123595001Y-134635915D01*
X123595000Y-148533995D01*
X123591444Y-148570100D01*
X123605635Y-148714185D01*
X123647663Y-148852733D01*
X123715913Y-148980420D01*
X123807762Y-149092338D01*
X123859746Y-149135000D01*
X123919680Y-149184187D01*
X124047367Y-149252437D01*
X124185915Y-149294465D01*
X124330000Y-149308656D01*
X124366105Y-149305100D01*
X138263895Y-149305100D01*
X138300000Y-149308656D01*
X138336105Y-149305100D01*
X138444085Y-149294465D01*
X138582633Y-149252437D01*
X138710320Y-149184187D01*
X138822238Y-149092338D01*
X138914087Y-148980420D01*
X138982337Y-148852733D01*
X139024365Y-148714185D01*
X139038556Y-148570100D01*
X139035000Y-148533995D01*
X139035000Y-134635905D01*
X139038556Y-134599800D01*
X142641444Y-134599800D01*
X142645001Y-134635915D01*
X142645000Y-148533995D01*
X142641444Y-148570100D01*
X142655635Y-148714185D01*
X142697663Y-148852733D01*
X142765913Y-148980420D01*
X142857762Y-149092338D01*
X142909746Y-149135000D01*
X142969680Y-149184187D01*
X143097367Y-149252437D01*
X143235915Y-149294465D01*
X143380000Y-149308656D01*
X143416105Y-149305100D01*
X157313895Y-149305100D01*
X157350000Y-149308656D01*
X157386105Y-149305100D01*
X157494085Y-149294465D01*
X157632633Y-149252437D01*
X157760320Y-149184187D01*
X157872238Y-149092338D01*
X157964087Y-148980420D01*
X158032337Y-148852733D01*
X158074365Y-148714185D01*
X158088556Y-148570100D01*
X158085000Y-148533995D01*
X158085000Y-134635905D01*
X158088556Y-134599800D01*
X161691444Y-134599800D01*
X161695001Y-134635915D01*
X161695000Y-148533995D01*
X161691444Y-148570100D01*
X161705635Y-148714185D01*
X161747663Y-148852733D01*
X161815913Y-148980420D01*
X161907762Y-149092338D01*
X161959746Y-149135000D01*
X162019680Y-149184187D01*
X162147367Y-149252437D01*
X162285915Y-149294465D01*
X162430000Y-149308656D01*
X162466105Y-149305100D01*
X176363895Y-149305100D01*
X176400000Y-149308656D01*
X176436105Y-149305100D01*
X176544085Y-149294465D01*
X176682633Y-149252437D01*
X176810320Y-149184187D01*
X176922238Y-149092338D01*
X177014087Y-148980420D01*
X177082337Y-148852733D01*
X177124365Y-148714185D01*
X177138556Y-148570100D01*
X177135000Y-148533995D01*
X177135000Y-134635905D01*
X177138556Y-134599800D01*
X180741444Y-134599800D01*
X180745001Y-134635915D01*
X180745000Y-148533995D01*
X180741444Y-148570100D01*
X180755635Y-148714185D01*
X180797663Y-148852733D01*
X180865913Y-148980420D01*
X180957762Y-149092338D01*
X181009746Y-149135000D01*
X181069680Y-149184187D01*
X181197367Y-149252437D01*
X181335915Y-149294465D01*
X181480000Y-149308656D01*
X181516105Y-149305100D01*
X195413895Y-149305100D01*
X195450000Y-149308656D01*
X195486105Y-149305100D01*
X195594085Y-149294465D01*
X195732633Y-149252437D01*
X195860320Y-149184187D01*
X195972238Y-149092338D01*
X196064087Y-148980420D01*
X196132337Y-148852733D01*
X196174365Y-148714185D01*
X196188556Y-148570100D01*
X196185000Y-148533995D01*
X196185000Y-134635905D01*
X196188556Y-134599800D01*
X196187581Y-134589900D01*
X199776444Y-134589900D01*
X199780001Y-134626015D01*
X199780000Y-148524095D01*
X199776444Y-148560200D01*
X199790635Y-148704285D01*
X199832663Y-148842833D01*
X199900913Y-148970520D01*
X199992762Y-149082438D01*
X200056809Y-149135000D01*
X200104680Y-149174287D01*
X200232367Y-149242537D01*
X200370915Y-149284565D01*
X200515000Y-149298756D01*
X200551105Y-149295200D01*
X214448895Y-149295200D01*
X214485000Y-149298756D01*
X214521105Y-149295200D01*
X214629085Y-149284565D01*
X214767633Y-149242537D01*
X214895320Y-149174287D01*
X215007238Y-149082438D01*
X215099087Y-148970520D01*
X215167337Y-148842833D01*
X215209365Y-148704285D01*
X215223556Y-148560200D01*
X215220000Y-148524095D01*
X215220000Y-134626005D01*
X215222580Y-134599800D01*
X218841444Y-134599800D01*
X218845001Y-134635915D01*
X218845000Y-148533995D01*
X218841444Y-148570100D01*
X218855635Y-148714185D01*
X218897663Y-148852733D01*
X218965913Y-148980420D01*
X219057762Y-149092338D01*
X219109746Y-149135000D01*
X219169680Y-149184187D01*
X219297367Y-149252437D01*
X219435915Y-149294465D01*
X219580000Y-149308656D01*
X219616105Y-149305100D01*
X233513895Y-149305100D01*
X233550000Y-149308656D01*
X233586105Y-149305100D01*
X233694085Y-149294465D01*
X233832633Y-149252437D01*
X233960320Y-149184187D01*
X234072238Y-149092338D01*
X234164087Y-148980420D01*
X234232337Y-148852733D01*
X234274365Y-148714185D01*
X234288556Y-148570100D01*
X234285000Y-148533995D01*
X234285000Y-134635905D01*
X234288556Y-134599800D01*
X237891444Y-134599800D01*
X237895001Y-134635915D01*
X237895000Y-148533995D01*
X237891444Y-148570100D01*
X237905635Y-148714185D01*
X237947663Y-148852733D01*
X238015913Y-148980420D01*
X238107762Y-149092338D01*
X238159746Y-149135000D01*
X238219680Y-149184187D01*
X238347367Y-149252437D01*
X238485915Y-149294465D01*
X238630000Y-149308656D01*
X238666105Y-149305100D01*
X252563895Y-149305100D01*
X252600000Y-149308656D01*
X252636105Y-149305100D01*
X252744085Y-149294465D01*
X252882633Y-149252437D01*
X253010320Y-149184187D01*
X253122238Y-149092338D01*
X253214087Y-148980420D01*
X253282337Y-148852733D01*
X253324365Y-148714185D01*
X253338556Y-148570100D01*
X253335000Y-148533995D01*
X253335000Y-134635905D01*
X253338556Y-134599800D01*
X256941444Y-134599800D01*
X256945001Y-134635915D01*
X256945000Y-148533995D01*
X256941444Y-148570100D01*
X256955635Y-148714185D01*
X256997663Y-148852733D01*
X257065913Y-148980420D01*
X257157762Y-149092338D01*
X257209746Y-149135000D01*
X257269680Y-149184187D01*
X257397367Y-149252437D01*
X257535915Y-149294465D01*
X257680000Y-149308656D01*
X257716105Y-149305100D01*
X271613895Y-149305100D01*
X271650000Y-149308656D01*
X271686105Y-149305100D01*
X271794085Y-149294465D01*
X271932633Y-149252437D01*
X272060320Y-149184187D01*
X272172238Y-149092338D01*
X272264087Y-148980420D01*
X272332337Y-148852733D01*
X272374365Y-148714185D01*
X272388556Y-148570100D01*
X272385000Y-148533995D01*
X272385000Y-134635905D01*
X272388556Y-134599800D01*
X275991444Y-134599800D01*
X275995001Y-134635915D01*
X275995000Y-148533995D01*
X275991444Y-148570100D01*
X276005635Y-148714185D01*
X276047663Y-148852733D01*
X276115913Y-148980420D01*
X276207762Y-149092338D01*
X276259746Y-149135000D01*
X276319680Y-149184187D01*
X276447367Y-149252437D01*
X276585915Y-149294465D01*
X276730000Y-149308656D01*
X276766105Y-149305100D01*
X290663895Y-149305100D01*
X290700000Y-149308656D01*
X290736105Y-149305100D01*
X290844085Y-149294465D01*
X290982633Y-149252437D01*
X291110320Y-149184187D01*
X291222238Y-149092338D01*
X291314087Y-148980420D01*
X291382337Y-148852733D01*
X291424365Y-148714185D01*
X291438556Y-148570100D01*
X291435000Y-148533995D01*
X291435000Y-134635905D01*
X291438556Y-134599800D01*
X295041444Y-134599800D01*
X295045001Y-134635915D01*
X295045000Y-148533995D01*
X295041444Y-148570100D01*
X295055635Y-148714185D01*
X295097663Y-148852733D01*
X295165913Y-148980420D01*
X295257762Y-149092338D01*
X295309746Y-149135000D01*
X295369680Y-149184187D01*
X295497367Y-149252437D01*
X295635915Y-149294465D01*
X295780000Y-149308656D01*
X295816105Y-149305100D01*
X309713895Y-149305100D01*
X309750000Y-149308656D01*
X309786105Y-149305100D01*
X309894085Y-149294465D01*
X310032633Y-149252437D01*
X310160320Y-149184187D01*
X310272238Y-149092338D01*
X310364087Y-148980420D01*
X310432337Y-148852733D01*
X310474365Y-148714185D01*
X310488556Y-148570100D01*
X310485000Y-148533995D01*
X310485000Y-134635905D01*
X310488556Y-134599800D01*
X314091443Y-134599800D01*
X314095000Y-134635915D01*
X314094999Y-148533995D01*
X314091443Y-148570100D01*
X314105634Y-148714185D01*
X314147662Y-148852733D01*
X314215912Y-148980420D01*
X314307761Y-149092338D01*
X314359745Y-149135000D01*
X314419679Y-149184187D01*
X314547366Y-149252437D01*
X314685914Y-149294465D01*
X314829999Y-149308656D01*
X314866104Y-149305100D01*
X328763895Y-149305100D01*
X328800000Y-149308656D01*
X328836105Y-149305100D01*
X328944085Y-149294465D01*
X329082633Y-149252437D01*
X329210320Y-149184187D01*
X329322238Y-149092338D01*
X329414087Y-148980420D01*
X329482337Y-148852733D01*
X329524365Y-148714185D01*
X329538556Y-148570100D01*
X329535000Y-148533995D01*
X329535000Y-134635905D01*
X329538556Y-134599800D01*
X329524365Y-134455715D01*
X329482337Y-134317167D01*
X329414087Y-134189480D01*
X329322238Y-134077562D01*
X329210320Y-133985713D01*
X329082633Y-133917463D01*
X328944085Y-133875435D01*
X328836105Y-133864800D01*
X328800000Y-133861244D01*
X328763895Y-133864800D01*
X314866104Y-133864800D01*
X314829999Y-133861244D01*
X314793894Y-133864800D01*
X314685914Y-133875435D01*
X314547366Y-133917463D01*
X314419679Y-133985713D01*
X314307761Y-134077562D01*
X314215912Y-134189480D01*
X314147662Y-134317167D01*
X314105634Y-134455715D01*
X314091443Y-134599800D01*
X310488556Y-134599800D01*
X310474365Y-134455715D01*
X310432337Y-134317167D01*
X310364087Y-134189480D01*
X310272238Y-134077562D01*
X310160320Y-133985713D01*
X310032633Y-133917463D01*
X309894085Y-133875435D01*
X309786105Y-133864800D01*
X309750000Y-133861244D01*
X309713895Y-133864800D01*
X295816105Y-133864800D01*
X295780000Y-133861244D01*
X295743895Y-133864800D01*
X295635915Y-133875435D01*
X295497367Y-133917463D01*
X295369680Y-133985713D01*
X295257762Y-134077562D01*
X295165913Y-134189480D01*
X295097663Y-134317167D01*
X295055635Y-134455715D01*
X295041444Y-134599800D01*
X291438556Y-134599800D01*
X291424365Y-134455715D01*
X291382337Y-134317167D01*
X291314087Y-134189480D01*
X291222238Y-134077562D01*
X291110320Y-133985713D01*
X290982633Y-133917463D01*
X290844085Y-133875435D01*
X290736105Y-133864800D01*
X290700000Y-133861244D01*
X290663895Y-133864800D01*
X276766105Y-133864800D01*
X276730000Y-133861244D01*
X276693895Y-133864800D01*
X276585915Y-133875435D01*
X276447367Y-133917463D01*
X276319680Y-133985713D01*
X276207762Y-134077562D01*
X276115913Y-134189480D01*
X276047663Y-134317167D01*
X276005635Y-134455715D01*
X275991444Y-134599800D01*
X272388556Y-134599800D01*
X272374365Y-134455715D01*
X272332337Y-134317167D01*
X272264087Y-134189480D01*
X272172238Y-134077562D01*
X272060320Y-133985713D01*
X271932633Y-133917463D01*
X271794085Y-133875435D01*
X271686105Y-133864800D01*
X271650000Y-133861244D01*
X271613895Y-133864800D01*
X257716105Y-133864800D01*
X257680000Y-133861244D01*
X257643895Y-133864800D01*
X257535915Y-133875435D01*
X257397367Y-133917463D01*
X257269680Y-133985713D01*
X257157762Y-134077562D01*
X257065913Y-134189480D01*
X256997663Y-134317167D01*
X256955635Y-134455715D01*
X256941444Y-134599800D01*
X253338556Y-134599800D01*
X253324365Y-134455715D01*
X253282337Y-134317167D01*
X253214087Y-134189480D01*
X253122238Y-134077562D01*
X253010320Y-133985713D01*
X252882633Y-133917463D01*
X252744085Y-133875435D01*
X252636105Y-133864800D01*
X252600000Y-133861244D01*
X252563895Y-133864800D01*
X238666105Y-133864800D01*
X238630000Y-133861244D01*
X238593895Y-133864800D01*
X238485915Y-133875435D01*
X238347367Y-133917463D01*
X238219680Y-133985713D01*
X238107762Y-134077562D01*
X238015913Y-134189480D01*
X237947663Y-134317167D01*
X237905635Y-134455715D01*
X237891444Y-134599800D01*
X234288556Y-134599800D01*
X234274365Y-134455715D01*
X234232337Y-134317167D01*
X234164087Y-134189480D01*
X234072238Y-134077562D01*
X233960320Y-133985713D01*
X233832633Y-133917463D01*
X233694085Y-133875435D01*
X233586105Y-133864800D01*
X233550000Y-133861244D01*
X233513895Y-133864800D01*
X219616105Y-133864800D01*
X219580000Y-133861244D01*
X219543895Y-133864800D01*
X219435915Y-133875435D01*
X219297367Y-133917463D01*
X219169680Y-133985713D01*
X219057762Y-134077562D01*
X218965913Y-134189480D01*
X218897663Y-134317167D01*
X218855635Y-134455715D01*
X218841444Y-134599800D01*
X215222580Y-134599800D01*
X215223556Y-134589900D01*
X215209365Y-134445815D01*
X215167337Y-134307267D01*
X215099087Y-134179580D01*
X215007238Y-134067662D01*
X214895320Y-133975813D01*
X214767633Y-133907563D01*
X214629085Y-133865535D01*
X214521105Y-133854900D01*
X214485000Y-133851344D01*
X214448895Y-133854900D01*
X200551105Y-133854900D01*
X200515000Y-133851344D01*
X200478895Y-133854900D01*
X200370915Y-133865535D01*
X200232367Y-133907563D01*
X200104680Y-133975813D01*
X199992762Y-134067662D01*
X199900913Y-134179580D01*
X199832663Y-134307267D01*
X199790635Y-134445815D01*
X199776444Y-134589900D01*
X196187581Y-134589900D01*
X196174365Y-134455715D01*
X196132337Y-134317167D01*
X196064087Y-134189480D01*
X195972238Y-134077562D01*
X195860320Y-133985713D01*
X195732633Y-133917463D01*
X195594085Y-133875435D01*
X195486105Y-133864800D01*
X195450000Y-133861244D01*
X195413895Y-133864800D01*
X181516105Y-133864800D01*
X181480000Y-133861244D01*
X181443895Y-133864800D01*
X181335915Y-133875435D01*
X181197367Y-133917463D01*
X181069680Y-133985713D01*
X180957762Y-134077562D01*
X180865913Y-134189480D01*
X180797663Y-134317167D01*
X180755635Y-134455715D01*
X180741444Y-134599800D01*
X177138556Y-134599800D01*
X177124365Y-134455715D01*
X177082337Y-134317167D01*
X177014087Y-134189480D01*
X176922238Y-134077562D01*
X176810320Y-133985713D01*
X176682633Y-133917463D01*
X176544085Y-133875435D01*
X176436105Y-133864800D01*
X176400000Y-133861244D01*
X176363895Y-133864800D01*
X162466105Y-133864800D01*
X162430000Y-133861244D01*
X162393895Y-133864800D01*
X162285915Y-133875435D01*
X162147367Y-133917463D01*
X162019680Y-133985713D01*
X161907762Y-134077562D01*
X161815913Y-134189480D01*
X161747663Y-134317167D01*
X161705635Y-134455715D01*
X161691444Y-134599800D01*
X158088556Y-134599800D01*
X158074365Y-134455715D01*
X158032337Y-134317167D01*
X157964087Y-134189480D01*
X157872238Y-134077562D01*
X157760320Y-133985713D01*
X157632633Y-133917463D01*
X157494085Y-133875435D01*
X157386105Y-133864800D01*
X157350000Y-133861244D01*
X157313895Y-133864800D01*
X143416105Y-133864800D01*
X143380000Y-133861244D01*
X143343895Y-133864800D01*
X143235915Y-133875435D01*
X143097367Y-133917463D01*
X142969680Y-133985713D01*
X142857762Y-134077562D01*
X142765913Y-134189480D01*
X142697663Y-134317167D01*
X142655635Y-134455715D01*
X142641444Y-134599800D01*
X139038556Y-134599800D01*
X139024365Y-134455715D01*
X138982337Y-134317167D01*
X138914087Y-134189480D01*
X138822238Y-134077562D01*
X138710320Y-133985713D01*
X138582633Y-133917463D01*
X138444085Y-133875435D01*
X138336105Y-133864800D01*
X138300000Y-133861244D01*
X138263895Y-133864800D01*
X124366105Y-133864800D01*
X124330000Y-133861244D01*
X124293895Y-133864800D01*
X124185915Y-133875435D01*
X124047367Y-133917463D01*
X123919680Y-133985713D01*
X123807762Y-134077562D01*
X123715913Y-134189480D01*
X123647663Y-134317167D01*
X123605635Y-134455715D01*
X123591444Y-134599800D01*
X119988556Y-134599800D01*
X119974365Y-134455715D01*
X119932337Y-134317167D01*
X119864087Y-134189480D01*
X119772238Y-134077562D01*
X119660320Y-133985713D01*
X119532633Y-133917463D01*
X119394085Y-133875435D01*
X119286105Y-133864800D01*
X119250000Y-133861244D01*
X119213895Y-133864800D01*
X105316105Y-133864800D01*
X105280000Y-133861244D01*
X105243895Y-133864800D01*
X105135915Y-133875435D01*
X104997367Y-133917463D01*
X104869680Y-133985713D01*
X104757762Y-134077562D01*
X104665913Y-134189480D01*
X104597663Y-134317167D01*
X104555635Y-134455715D01*
X104541444Y-134599800D01*
X100938556Y-134599800D01*
X100924365Y-134455715D01*
X100882337Y-134317167D01*
X100814087Y-134189480D01*
X100722238Y-134077562D01*
X100610320Y-133985713D01*
X100482633Y-133917463D01*
X100344085Y-133875435D01*
X100236105Y-133864800D01*
X100200000Y-133861244D01*
X100163895Y-133864800D01*
X86266105Y-133864800D01*
X86230000Y-133861244D01*
X86193895Y-133864800D01*
X86085915Y-133875435D01*
X85947367Y-133917463D01*
X85819680Y-133985713D01*
X85707762Y-134077562D01*
X85615913Y-134189480D01*
X85547663Y-134317167D01*
X85505635Y-134455715D01*
X85491444Y-134599800D01*
X81888556Y-134599800D01*
X81874365Y-134455715D01*
X81832337Y-134317167D01*
X81764087Y-134189480D01*
X81672238Y-134077562D01*
X81560320Y-133985713D01*
X81432633Y-133917463D01*
X81294085Y-133875435D01*
X81186105Y-133864800D01*
X81150000Y-133861244D01*
X81113895Y-133864800D01*
X67216105Y-133864800D01*
X67180000Y-133861244D01*
X67143895Y-133864800D01*
X67035915Y-133875435D01*
X66897367Y-133917463D01*
X66769680Y-133985713D01*
X66657762Y-134077562D01*
X66565913Y-134189480D01*
X66497663Y-134317167D01*
X66455635Y-134455715D01*
X66441444Y-134599800D01*
X66445001Y-134635915D01*
X66445000Y-147665000D01*
X65735000Y-147665000D01*
X65735000Y-132067286D01*
X82885000Y-132067286D01*
X82885000Y-132251464D01*
X82920932Y-132432104D01*
X82991414Y-132602264D01*
X83093738Y-132755403D01*
X83223972Y-132885637D01*
X83377111Y-132987961D01*
X83547271Y-133058443D01*
X83727911Y-133094375D01*
X83912089Y-133094375D01*
X84092729Y-133058443D01*
X84262889Y-132987961D01*
X84416028Y-132885637D01*
X84546262Y-132755403D01*
X84648586Y-132602264D01*
X84719068Y-132432104D01*
X84755000Y-132251464D01*
X84755000Y-132067286D01*
X84719068Y-131886646D01*
X84648586Y-131716486D01*
X84546262Y-131563347D01*
X84416028Y-131433113D01*
X84262889Y-131330789D01*
X84092729Y-131260307D01*
X83912089Y-131224375D01*
X83727911Y-131224375D01*
X83547271Y-131260307D01*
X83377111Y-131330789D01*
X83223972Y-131433113D01*
X83093738Y-131563347D01*
X82991414Y-131716486D01*
X82920932Y-131886646D01*
X82885000Y-132067286D01*
X65735000Y-132067286D01*
X65735000Y-115549900D01*
X66441444Y-115549900D01*
X66445001Y-115586015D01*
X66445000Y-129483695D01*
X66441444Y-129519800D01*
X66455635Y-129663885D01*
X66497663Y-129802433D01*
X66565913Y-129930120D01*
X66657762Y-130042038D01*
X66769680Y-130133887D01*
X66897367Y-130202137D01*
X67035915Y-130244165D01*
X67180000Y-130258356D01*
X67216105Y-130254800D01*
X81113895Y-130254800D01*
X81150000Y-130258356D01*
X81186105Y-130254800D01*
X81294085Y-130244165D01*
X81432633Y-130202137D01*
X81560320Y-130133887D01*
X81672238Y-130042038D01*
X81764087Y-129930120D01*
X81832337Y-129802433D01*
X81874365Y-129663885D01*
X81888556Y-129519800D01*
X81885000Y-129483695D01*
X81885000Y-115586005D01*
X81888556Y-115549900D01*
X85491444Y-115549900D01*
X85495001Y-115586015D01*
X85495000Y-129483695D01*
X85491444Y-129519800D01*
X85505635Y-129663885D01*
X85547663Y-129802433D01*
X85615913Y-129930120D01*
X85707762Y-130042038D01*
X85819680Y-130133887D01*
X85947367Y-130202137D01*
X86085915Y-130244165D01*
X86230000Y-130258356D01*
X86266105Y-130254800D01*
X100163895Y-130254800D01*
X100200000Y-130258356D01*
X100236105Y-130254800D01*
X100344085Y-130244165D01*
X100482633Y-130202137D01*
X100610320Y-130133887D01*
X100722238Y-130042038D01*
X100814087Y-129930120D01*
X100882337Y-129802433D01*
X100924365Y-129663885D01*
X100938556Y-129519800D01*
X100935000Y-129483695D01*
X100935000Y-115586005D01*
X100938556Y-115549900D01*
X104541444Y-115549900D01*
X104545001Y-115586015D01*
X104545000Y-129483695D01*
X104541444Y-129519800D01*
X104555635Y-129663885D01*
X104597663Y-129802433D01*
X104665913Y-129930120D01*
X104757762Y-130042038D01*
X104869680Y-130133887D01*
X104997367Y-130202137D01*
X105135915Y-130244165D01*
X105280000Y-130258356D01*
X105316105Y-130254800D01*
X119213895Y-130254800D01*
X119250000Y-130258356D01*
X119286105Y-130254800D01*
X119394085Y-130244165D01*
X119532633Y-130202137D01*
X119660320Y-130133887D01*
X119772238Y-130042038D01*
X119864087Y-129930120D01*
X119932337Y-129802433D01*
X119974365Y-129663885D01*
X119988556Y-129519800D01*
X119985000Y-129483695D01*
X119985000Y-115586005D01*
X119988556Y-115549900D01*
X123591444Y-115549900D01*
X123595001Y-115586015D01*
X123595000Y-129483695D01*
X123591444Y-129519800D01*
X123605635Y-129663885D01*
X123647663Y-129802433D01*
X123715913Y-129930120D01*
X123807762Y-130042038D01*
X123919680Y-130133887D01*
X124047367Y-130202137D01*
X124185915Y-130244165D01*
X124330000Y-130258356D01*
X124366105Y-130254800D01*
X138263895Y-130254800D01*
X138300000Y-130258356D01*
X138336105Y-130254800D01*
X138444085Y-130244165D01*
X138582633Y-130202137D01*
X138710320Y-130133887D01*
X138822238Y-130042038D01*
X138914087Y-129930120D01*
X138982337Y-129802433D01*
X139024365Y-129663885D01*
X139038556Y-129519800D01*
X139035000Y-129483695D01*
X139035000Y-115586005D01*
X139038556Y-115549900D01*
X142641444Y-115549900D01*
X142645001Y-115586015D01*
X142645000Y-129483695D01*
X142641444Y-129519800D01*
X142655635Y-129663885D01*
X142697663Y-129802433D01*
X142765913Y-129930120D01*
X142857762Y-130042038D01*
X142969680Y-130133887D01*
X143097367Y-130202137D01*
X143235915Y-130244165D01*
X143380000Y-130258356D01*
X143416105Y-130254800D01*
X157313895Y-130254800D01*
X157350000Y-130258356D01*
X157386105Y-130254800D01*
X157494085Y-130244165D01*
X157632633Y-130202137D01*
X157760320Y-130133887D01*
X157872238Y-130042038D01*
X157964087Y-129930120D01*
X158032337Y-129802433D01*
X158074365Y-129663885D01*
X158088556Y-129519800D01*
X158085000Y-129483695D01*
X158085000Y-115586005D01*
X158088556Y-115549900D01*
X161691444Y-115549900D01*
X161695001Y-115586015D01*
X161695000Y-129483695D01*
X161691444Y-129519800D01*
X161705635Y-129663885D01*
X161747663Y-129802433D01*
X161815913Y-129930120D01*
X161907762Y-130042038D01*
X162019680Y-130133887D01*
X162147367Y-130202137D01*
X162285915Y-130244165D01*
X162430000Y-130258356D01*
X162466105Y-130254800D01*
X176363895Y-130254800D01*
X176400000Y-130258356D01*
X176436105Y-130254800D01*
X176544085Y-130244165D01*
X176682633Y-130202137D01*
X176810320Y-130133887D01*
X176922238Y-130042038D01*
X177014087Y-129930120D01*
X177082337Y-129802433D01*
X177124365Y-129663885D01*
X177138556Y-129519800D01*
X177135000Y-129483695D01*
X177135000Y-115586005D01*
X177138556Y-115549900D01*
X180741444Y-115549900D01*
X180745001Y-115586015D01*
X180745000Y-129483695D01*
X180741444Y-129519800D01*
X180755635Y-129663885D01*
X180797663Y-129802433D01*
X180865913Y-129930120D01*
X180957762Y-130042038D01*
X181069680Y-130133887D01*
X181197367Y-130202137D01*
X181335915Y-130244165D01*
X181480000Y-130258356D01*
X181516105Y-130254800D01*
X195413895Y-130254800D01*
X195450000Y-130258356D01*
X195486105Y-130254800D01*
X195594085Y-130244165D01*
X195732633Y-130202137D01*
X195860320Y-130133887D01*
X195972238Y-130042038D01*
X196064087Y-129930120D01*
X196132337Y-129802433D01*
X196174365Y-129663885D01*
X196188556Y-129519800D01*
X196185000Y-129483695D01*
X196185000Y-115586005D01*
X196188556Y-115549900D01*
X199776444Y-115549900D01*
X199780001Y-115586015D01*
X199780000Y-129483695D01*
X199776444Y-129519800D01*
X199790635Y-129663885D01*
X199832663Y-129802433D01*
X199900913Y-129930120D01*
X199992762Y-130042038D01*
X200104680Y-130133887D01*
X200232367Y-130202137D01*
X200370915Y-130244165D01*
X200515000Y-130258356D01*
X200551105Y-130254800D01*
X214448895Y-130254800D01*
X214485000Y-130258356D01*
X214521105Y-130254800D01*
X214629085Y-130244165D01*
X214767633Y-130202137D01*
X214895320Y-130133887D01*
X215007238Y-130042038D01*
X215099087Y-129930120D01*
X215167337Y-129802433D01*
X215209365Y-129663885D01*
X215223556Y-129519800D01*
X215220000Y-129483695D01*
X215220000Y-115586005D01*
X215223556Y-115549900D01*
X218841444Y-115549900D01*
X218845001Y-115586015D01*
X218845000Y-129483695D01*
X218841444Y-129519800D01*
X218855635Y-129663885D01*
X218897663Y-129802433D01*
X218965913Y-129930120D01*
X219057762Y-130042038D01*
X219169680Y-130133887D01*
X219297367Y-130202137D01*
X219435915Y-130244165D01*
X219580000Y-130258356D01*
X219616105Y-130254800D01*
X233513895Y-130254800D01*
X233550000Y-130258356D01*
X233586105Y-130254800D01*
X233694085Y-130244165D01*
X233832633Y-130202137D01*
X233960320Y-130133887D01*
X234072238Y-130042038D01*
X234164087Y-129930120D01*
X234232337Y-129802433D01*
X234274365Y-129663885D01*
X234288556Y-129519800D01*
X234285000Y-129483695D01*
X234285000Y-115586005D01*
X234288556Y-115549900D01*
X237891444Y-115549900D01*
X237895001Y-115586015D01*
X237895000Y-129483695D01*
X237891444Y-129519800D01*
X237905635Y-129663885D01*
X237947663Y-129802433D01*
X238015913Y-129930120D01*
X238107762Y-130042038D01*
X238219680Y-130133887D01*
X238347367Y-130202137D01*
X238485915Y-130244165D01*
X238630000Y-130258356D01*
X238666105Y-130254800D01*
X252563895Y-130254800D01*
X252600000Y-130258356D01*
X252636105Y-130254800D01*
X252744085Y-130244165D01*
X252882633Y-130202137D01*
X253010320Y-130133887D01*
X253122238Y-130042038D01*
X253214087Y-129930120D01*
X253282337Y-129802433D01*
X253324365Y-129663885D01*
X253338556Y-129519800D01*
X253335000Y-129483695D01*
X253335000Y-115586005D01*
X253338556Y-115549900D01*
X256941444Y-115549900D01*
X256945001Y-115586015D01*
X256945000Y-129483695D01*
X256941444Y-129519800D01*
X256955635Y-129663885D01*
X256997663Y-129802433D01*
X257065913Y-129930120D01*
X257157762Y-130042038D01*
X257269680Y-130133887D01*
X257397367Y-130202137D01*
X257535915Y-130244165D01*
X257680000Y-130258356D01*
X257716105Y-130254800D01*
X271613895Y-130254800D01*
X271650000Y-130258356D01*
X271686105Y-130254800D01*
X271794085Y-130244165D01*
X271932633Y-130202137D01*
X272060320Y-130133887D01*
X272172238Y-130042038D01*
X272264087Y-129930120D01*
X272332337Y-129802433D01*
X272374365Y-129663885D01*
X272388556Y-129519800D01*
X272385000Y-129483695D01*
X272385000Y-115586005D01*
X272388556Y-115549900D01*
X275991444Y-115549900D01*
X275995001Y-115586015D01*
X275995000Y-129483695D01*
X275991444Y-129519800D01*
X276005635Y-129663885D01*
X276047663Y-129802433D01*
X276115913Y-129930120D01*
X276207762Y-130042038D01*
X276319680Y-130133887D01*
X276447367Y-130202137D01*
X276585915Y-130244165D01*
X276730000Y-130258356D01*
X276766105Y-130254800D01*
X290663895Y-130254800D01*
X290700000Y-130258356D01*
X290736105Y-130254800D01*
X290844085Y-130244165D01*
X290982633Y-130202137D01*
X291110320Y-130133887D01*
X291222238Y-130042038D01*
X291314087Y-129930120D01*
X291382337Y-129802433D01*
X291424365Y-129663885D01*
X291438556Y-129519800D01*
X291435000Y-129483695D01*
X291435000Y-115586005D01*
X291438556Y-115549900D01*
X295041444Y-115549900D01*
X295045001Y-115586015D01*
X295045000Y-129483695D01*
X295041444Y-129519800D01*
X295055635Y-129663885D01*
X295097663Y-129802433D01*
X295165913Y-129930120D01*
X295257762Y-130042038D01*
X295369680Y-130133887D01*
X295497367Y-130202137D01*
X295635915Y-130244165D01*
X295780000Y-130258356D01*
X295816105Y-130254800D01*
X309713895Y-130254800D01*
X309750000Y-130258356D01*
X309786105Y-130254800D01*
X309894085Y-130244165D01*
X310032633Y-130202137D01*
X310160320Y-130133887D01*
X310272238Y-130042038D01*
X310364087Y-129930120D01*
X310432337Y-129802433D01*
X310474365Y-129663885D01*
X310488556Y-129519800D01*
X310485000Y-129483695D01*
X310485000Y-115586005D01*
X310488556Y-115549900D01*
X314091443Y-115549900D01*
X314095000Y-115586015D01*
X314094999Y-129483695D01*
X314091443Y-129519800D01*
X314105634Y-129663885D01*
X314147662Y-129802433D01*
X314215912Y-129930120D01*
X314307761Y-130042038D01*
X314419679Y-130133887D01*
X314547366Y-130202137D01*
X314685914Y-130244165D01*
X314829999Y-130258356D01*
X314866104Y-130254800D01*
X328763895Y-130254800D01*
X328800000Y-130258356D01*
X328836105Y-130254800D01*
X328944085Y-130244165D01*
X329082633Y-130202137D01*
X329210320Y-130133887D01*
X329322238Y-130042038D01*
X329414087Y-129930120D01*
X329482337Y-129802433D01*
X329524365Y-129663885D01*
X329538556Y-129519800D01*
X329535000Y-129483695D01*
X329535000Y-115586005D01*
X329538556Y-115549900D01*
X333141444Y-115549900D01*
X333145001Y-115586015D01*
X333145000Y-129483695D01*
X333141444Y-129519800D01*
X333155635Y-129663885D01*
X333197663Y-129802433D01*
X333265913Y-129930120D01*
X333357762Y-130042038D01*
X333469680Y-130133887D01*
X333597367Y-130202137D01*
X333735915Y-130244165D01*
X333880000Y-130258356D01*
X333916105Y-130254800D01*
X347813895Y-130254800D01*
X347850000Y-130258356D01*
X347886105Y-130254800D01*
X347994085Y-130244165D01*
X348132633Y-130202137D01*
X348260320Y-130133887D01*
X348372238Y-130042038D01*
X348464087Y-129930120D01*
X348532337Y-129802433D01*
X348574365Y-129663885D01*
X348588556Y-129519800D01*
X348585000Y-129483695D01*
X348585000Y-115586005D01*
X348588556Y-115549900D01*
X348574365Y-115405815D01*
X348532337Y-115267267D01*
X348464087Y-115139580D01*
X348372238Y-115027662D01*
X348260320Y-114935813D01*
X348132633Y-114867563D01*
X347994085Y-114825535D01*
X347886105Y-114814900D01*
X347850000Y-114811344D01*
X347813895Y-114814900D01*
X333916105Y-114814900D01*
X333880000Y-114811344D01*
X333843895Y-114814900D01*
X333735915Y-114825535D01*
X333597367Y-114867563D01*
X333469680Y-114935813D01*
X333357762Y-115027662D01*
X333265913Y-115139580D01*
X333197663Y-115267267D01*
X333155635Y-115405815D01*
X333141444Y-115549900D01*
X329538556Y-115549900D01*
X329524365Y-115405815D01*
X329482337Y-115267267D01*
X329414087Y-115139580D01*
X329322238Y-115027662D01*
X329210320Y-114935813D01*
X329082633Y-114867563D01*
X328944085Y-114825535D01*
X328836105Y-114814900D01*
X328800000Y-114811344D01*
X328763895Y-114814900D01*
X314866104Y-114814900D01*
X314829999Y-114811344D01*
X314793894Y-114814900D01*
X314685914Y-114825535D01*
X314547366Y-114867563D01*
X314419679Y-114935813D01*
X314307761Y-115027662D01*
X314215912Y-115139580D01*
X314147662Y-115267267D01*
X314105634Y-115405815D01*
X314091443Y-115549900D01*
X310488556Y-115549900D01*
X310474365Y-115405815D01*
X310432337Y-115267267D01*
X310364087Y-115139580D01*
X310272238Y-115027662D01*
X310160320Y-114935813D01*
X310032633Y-114867563D01*
X309894085Y-114825535D01*
X309786105Y-114814900D01*
X309750000Y-114811344D01*
X309713895Y-114814900D01*
X295816105Y-114814900D01*
X295780000Y-114811344D01*
X295743895Y-114814900D01*
X295635915Y-114825535D01*
X295497367Y-114867563D01*
X295369680Y-114935813D01*
X295257762Y-115027662D01*
X295165913Y-115139580D01*
X295097663Y-115267267D01*
X295055635Y-115405815D01*
X295041444Y-115549900D01*
X291438556Y-115549900D01*
X291424365Y-115405815D01*
X291382337Y-115267267D01*
X291314087Y-115139580D01*
X291222238Y-115027662D01*
X291110320Y-114935813D01*
X290982633Y-114867563D01*
X290844085Y-114825535D01*
X290736105Y-114814900D01*
X290700000Y-114811344D01*
X290663895Y-114814900D01*
X276766105Y-114814900D01*
X276730000Y-114811344D01*
X276693895Y-114814900D01*
X276585915Y-114825535D01*
X276447367Y-114867563D01*
X276319680Y-114935813D01*
X276207762Y-115027662D01*
X276115913Y-115139580D01*
X276047663Y-115267267D01*
X276005635Y-115405815D01*
X275991444Y-115549900D01*
X272388556Y-115549900D01*
X272374365Y-115405815D01*
X272332337Y-115267267D01*
X272264087Y-115139580D01*
X272172238Y-115027662D01*
X272060320Y-114935813D01*
X271932633Y-114867563D01*
X271794085Y-114825535D01*
X271686105Y-114814900D01*
X271650000Y-114811344D01*
X271613895Y-114814900D01*
X257716105Y-114814900D01*
X257680000Y-114811344D01*
X257643895Y-114814900D01*
X257535915Y-114825535D01*
X257397367Y-114867563D01*
X257269680Y-114935813D01*
X257157762Y-115027662D01*
X257065913Y-115139580D01*
X256997663Y-115267267D01*
X256955635Y-115405815D01*
X256941444Y-115549900D01*
X253338556Y-115549900D01*
X253324365Y-115405815D01*
X253282337Y-115267267D01*
X253214087Y-115139580D01*
X253122238Y-115027662D01*
X253010320Y-114935813D01*
X252882633Y-114867563D01*
X252744085Y-114825535D01*
X252636105Y-114814900D01*
X252600000Y-114811344D01*
X252563895Y-114814900D01*
X238666105Y-114814900D01*
X238630000Y-114811344D01*
X238593895Y-114814900D01*
X238485915Y-114825535D01*
X238347367Y-114867563D01*
X238219680Y-114935813D01*
X238107762Y-115027662D01*
X238015913Y-115139580D01*
X237947663Y-115267267D01*
X237905635Y-115405815D01*
X237891444Y-115549900D01*
X234288556Y-115549900D01*
X234274365Y-115405815D01*
X234232337Y-115267267D01*
X234164087Y-115139580D01*
X234072238Y-115027662D01*
X233960320Y-114935813D01*
X233832633Y-114867563D01*
X233694085Y-114825535D01*
X233586105Y-114814900D01*
X233550000Y-114811344D01*
X233513895Y-114814900D01*
X219616105Y-114814900D01*
X219580000Y-114811344D01*
X219543895Y-114814900D01*
X219435915Y-114825535D01*
X219297367Y-114867563D01*
X219169680Y-114935813D01*
X219057762Y-115027662D01*
X218965913Y-115139580D01*
X218897663Y-115267267D01*
X218855635Y-115405815D01*
X218841444Y-115549900D01*
X215223556Y-115549900D01*
X215209365Y-115405815D01*
X215167337Y-115267267D01*
X215099087Y-115139580D01*
X215007238Y-115027662D01*
X214895320Y-114935813D01*
X214767633Y-114867563D01*
X214629085Y-114825535D01*
X214521105Y-114814900D01*
X214485000Y-114811344D01*
X214448895Y-114814900D01*
X200551105Y-114814900D01*
X200515000Y-114811344D01*
X200478895Y-114814900D01*
X200370915Y-114825535D01*
X200232367Y-114867563D01*
X200104680Y-114935813D01*
X199992762Y-115027662D01*
X199900913Y-115139580D01*
X199832663Y-115267267D01*
X199790635Y-115405815D01*
X199776444Y-115549900D01*
X196188556Y-115549900D01*
X196174365Y-115405815D01*
X196132337Y-115267267D01*
X196064087Y-115139580D01*
X195972238Y-115027662D01*
X195860320Y-114935813D01*
X195732633Y-114867563D01*
X195594085Y-114825535D01*
X195486105Y-114814900D01*
X195450000Y-114811344D01*
X195413895Y-114814900D01*
X181516105Y-114814900D01*
X181480000Y-114811344D01*
X181443895Y-114814900D01*
X181335915Y-114825535D01*
X181197367Y-114867563D01*
X181069680Y-114935813D01*
X180957762Y-115027662D01*
X180865913Y-115139580D01*
X180797663Y-115267267D01*
X180755635Y-115405815D01*
X180741444Y-115549900D01*
X177138556Y-115549900D01*
X177124365Y-115405815D01*
X177082337Y-115267267D01*
X177014087Y-115139580D01*
X176922238Y-115027662D01*
X176810320Y-114935813D01*
X176682633Y-114867563D01*
X176544085Y-114825535D01*
X176436105Y-114814900D01*
X176400000Y-114811344D01*
X176363895Y-114814900D01*
X162466105Y-114814900D01*
X162430000Y-114811344D01*
X162393895Y-114814900D01*
X162285915Y-114825535D01*
X162147367Y-114867563D01*
X162019680Y-114935813D01*
X161907762Y-115027662D01*
X161815913Y-115139580D01*
X161747663Y-115267267D01*
X161705635Y-115405815D01*
X161691444Y-115549900D01*
X158088556Y-115549900D01*
X158074365Y-115405815D01*
X158032337Y-115267267D01*
X157964087Y-115139580D01*
X157872238Y-115027662D01*
X157760320Y-114935813D01*
X157632633Y-114867563D01*
X157494085Y-114825535D01*
X157386105Y-114814900D01*
X157350000Y-114811344D01*
X157313895Y-114814900D01*
X143416105Y-114814900D01*
X143380000Y-114811344D01*
X143343895Y-114814900D01*
X143235915Y-114825535D01*
X143097367Y-114867563D01*
X142969680Y-114935813D01*
X142857762Y-115027662D01*
X142765913Y-115139580D01*
X142697663Y-115267267D01*
X142655635Y-115405815D01*
X142641444Y-115549900D01*
X139038556Y-115549900D01*
X139024365Y-115405815D01*
X138982337Y-115267267D01*
X138914087Y-115139580D01*
X138822238Y-115027662D01*
X138710320Y-114935813D01*
X138582633Y-114867563D01*
X138444085Y-114825535D01*
X138336105Y-114814900D01*
X138300000Y-114811344D01*
X138263895Y-114814900D01*
X124366105Y-114814900D01*
X124330000Y-114811344D01*
X124293895Y-114814900D01*
X124185915Y-114825535D01*
X124047367Y-114867563D01*
X123919680Y-114935813D01*
X123807762Y-115027662D01*
X123715913Y-115139580D01*
X123647663Y-115267267D01*
X123605635Y-115405815D01*
X123591444Y-115549900D01*
X119988556Y-115549900D01*
X119974365Y-115405815D01*
X119932337Y-115267267D01*
X119864087Y-115139580D01*
X119772238Y-115027662D01*
X119660320Y-114935813D01*
X119532633Y-114867563D01*
X119394085Y-114825535D01*
X119286105Y-114814900D01*
X119250000Y-114811344D01*
X119213895Y-114814900D01*
X105316105Y-114814900D01*
X105280000Y-114811344D01*
X105243895Y-114814900D01*
X105135915Y-114825535D01*
X104997367Y-114867563D01*
X104869680Y-114935813D01*
X104757762Y-115027662D01*
X104665913Y-115139580D01*
X104597663Y-115267267D01*
X104555635Y-115405815D01*
X104541444Y-115549900D01*
X100938556Y-115549900D01*
X100924365Y-115405815D01*
X100882337Y-115267267D01*
X100814087Y-115139580D01*
X100722238Y-115027662D01*
X100610320Y-114935813D01*
X100482633Y-114867563D01*
X100344085Y-114825535D01*
X100236105Y-114814900D01*
X100200000Y-114811344D01*
X100163895Y-114814900D01*
X86266105Y-114814900D01*
X86230000Y-114811344D01*
X86193895Y-114814900D01*
X86085915Y-114825535D01*
X85947367Y-114867563D01*
X85819680Y-114935813D01*
X85707762Y-115027662D01*
X85615913Y-115139580D01*
X85547663Y-115267267D01*
X85505635Y-115405815D01*
X85491444Y-115549900D01*
X81888556Y-115549900D01*
X81874365Y-115405815D01*
X81832337Y-115267267D01*
X81764087Y-115139580D01*
X81672238Y-115027662D01*
X81560320Y-114935813D01*
X81432633Y-114867563D01*
X81294085Y-114825535D01*
X81186105Y-114814900D01*
X81150000Y-114811344D01*
X81113895Y-114814900D01*
X67216105Y-114814900D01*
X67180000Y-114811344D01*
X67143895Y-114814900D01*
X67035915Y-114825535D01*
X66897367Y-114867563D01*
X66769680Y-114935813D01*
X66657762Y-115027662D01*
X66565913Y-115139580D01*
X66497663Y-115267267D01*
X66455635Y-115405815D01*
X66441444Y-115549900D01*
X65735000Y-115549900D01*
X65735000Y-113735000D01*
X349265000Y-113735000D01*
X349265001Y-147665000D01*
G04 #@! TA.AperFunction,NonConductor*
D12*
G36*
X349265001Y-147665000D02*
G01*
X348585000Y-147665000D01*
X348585000Y-134635905D01*
X348588556Y-134599800D01*
X348574365Y-134455715D01*
X348532337Y-134317167D01*
X348464087Y-134189480D01*
X348372238Y-134077562D01*
X348260320Y-133985713D01*
X348132633Y-133917463D01*
X347994085Y-133875435D01*
X347886105Y-133864800D01*
X347850000Y-133861244D01*
X347813895Y-133864800D01*
X333916105Y-133864800D01*
X333880000Y-133861244D01*
X333843895Y-133864800D01*
X333735915Y-133875435D01*
X333597367Y-133917463D01*
X333469680Y-133985713D01*
X333357762Y-134077562D01*
X333265913Y-134189480D01*
X333197663Y-134317167D01*
X333155635Y-134455715D01*
X333141444Y-134599800D01*
X333145001Y-134635915D01*
X333145000Y-148533995D01*
X333141444Y-148570100D01*
X333155635Y-148714185D01*
X333197663Y-148852733D01*
X333265913Y-148980420D01*
X333357762Y-149092338D01*
X333409746Y-149135000D01*
X333469680Y-149184187D01*
X333597367Y-149252437D01*
X333735915Y-149294465D01*
X333880000Y-149308656D01*
X333916105Y-149305100D01*
X343940025Y-149305100D01*
X343940026Y-152915100D01*
X333916105Y-152915100D01*
X333880000Y-152911544D01*
X333843895Y-152915100D01*
X333735915Y-152925735D01*
X333597367Y-152967763D01*
X333469680Y-153036013D01*
X333357762Y-153127862D01*
X333265913Y-153239780D01*
X333197663Y-153367467D01*
X333155635Y-153506015D01*
X333141444Y-153650100D01*
X333145001Y-153686215D01*
X333145000Y-167583995D01*
X333141444Y-167620100D01*
X333155635Y-167764185D01*
X333197663Y-167902733D01*
X333265913Y-168030420D01*
X333357762Y-168142338D01*
X333457617Y-168224287D01*
X333469680Y-168234187D01*
X333597367Y-168302437D01*
X333735915Y-168344465D01*
X333880000Y-168358656D01*
X333916105Y-168355100D01*
X347813895Y-168355100D01*
X347850000Y-168358656D01*
X347886105Y-168355100D01*
X347994085Y-168344465D01*
X348132633Y-168302437D01*
X348260320Y-168234187D01*
X348372238Y-168142338D01*
X348464087Y-168030420D01*
X348532337Y-167902733D01*
X348574365Y-167764185D01*
X348588556Y-167620100D01*
X348585000Y-167583995D01*
X348585000Y-154335000D01*
X349265000Y-154335000D01*
X349265001Y-186683743D01*
X349227929Y-187061838D01*
X349128564Y-187390949D01*
X348967170Y-187694487D01*
X348749891Y-187960896D01*
X348485002Y-188180031D01*
X348182599Y-188343539D01*
X347854195Y-188445197D01*
X347478349Y-188484700D01*
X67535946Y-188484700D01*
X67157862Y-188447629D01*
X66828751Y-188348264D01*
X66525213Y-188186870D01*
X66258804Y-187969591D01*
X66039669Y-187704702D01*
X65876161Y-187402299D01*
X65774503Y-187073895D01*
X65735000Y-186698049D01*
X65735000Y-172699799D01*
X66441444Y-172699799D01*
X66445001Y-172735914D01*
X66445000Y-186633695D01*
X66441444Y-186669800D01*
X66455635Y-186813885D01*
X66497663Y-186952433D01*
X66565913Y-187080120D01*
X66657762Y-187192038D01*
X66736771Y-187256879D01*
X66769680Y-187283887D01*
X66897367Y-187352137D01*
X67035915Y-187394165D01*
X67180000Y-187408356D01*
X67216105Y-187404800D01*
X81113895Y-187404800D01*
X81150000Y-187408356D01*
X81186105Y-187404800D01*
X81254305Y-187398083D01*
X81294085Y-187394165D01*
X81432633Y-187352137D01*
X81560320Y-187283887D01*
X81672238Y-187192038D01*
X81764087Y-187080120D01*
X81832337Y-186952433D01*
X81874365Y-186813885D01*
X81885000Y-186705905D01*
X81885000Y-186705904D01*
X81888556Y-186669800D01*
X81885000Y-186633695D01*
X81885000Y-172735904D01*
X81888556Y-172699799D01*
X85491444Y-172699799D01*
X85495001Y-172735914D01*
X85495000Y-186633695D01*
X85491444Y-186669800D01*
X85505635Y-186813885D01*
X85547663Y-186952433D01*
X85615913Y-187080120D01*
X85707762Y-187192038D01*
X85786771Y-187256879D01*
X85819680Y-187283887D01*
X85947367Y-187352137D01*
X86085915Y-187394165D01*
X86230000Y-187408356D01*
X86266105Y-187404800D01*
X100163895Y-187404800D01*
X100200000Y-187408356D01*
X100236105Y-187404800D01*
X100304305Y-187398083D01*
X100344085Y-187394165D01*
X100482633Y-187352137D01*
X100610320Y-187283887D01*
X100722238Y-187192038D01*
X100814087Y-187080120D01*
X100882337Y-186952433D01*
X100924365Y-186813885D01*
X100935000Y-186705905D01*
X100935000Y-186705904D01*
X100938556Y-186669800D01*
X100935000Y-186633695D01*
X100935000Y-172735904D01*
X100938556Y-172699799D01*
X104541444Y-172699799D01*
X104545001Y-172735914D01*
X104545000Y-186633695D01*
X104541444Y-186669800D01*
X104555635Y-186813885D01*
X104597663Y-186952433D01*
X104665913Y-187080120D01*
X104757762Y-187192038D01*
X104836771Y-187256879D01*
X104869680Y-187283887D01*
X104997367Y-187352137D01*
X105135915Y-187394165D01*
X105280000Y-187408356D01*
X105316105Y-187404800D01*
X119213895Y-187404800D01*
X119250000Y-187408356D01*
X119286105Y-187404800D01*
X119354305Y-187398083D01*
X119394085Y-187394165D01*
X119532633Y-187352137D01*
X119660320Y-187283887D01*
X119772238Y-187192038D01*
X119864087Y-187080120D01*
X119932337Y-186952433D01*
X119974365Y-186813885D01*
X119985000Y-186705905D01*
X119985000Y-186705904D01*
X119988556Y-186669800D01*
X119985000Y-186633695D01*
X119985000Y-172735904D01*
X119988556Y-172699799D01*
X123591444Y-172699799D01*
X123595001Y-172735914D01*
X123595000Y-186633695D01*
X123591444Y-186669800D01*
X123605635Y-186813885D01*
X123647663Y-186952433D01*
X123715913Y-187080120D01*
X123807762Y-187192038D01*
X123886771Y-187256879D01*
X123919680Y-187283887D01*
X124047367Y-187352137D01*
X124185915Y-187394165D01*
X124330000Y-187408356D01*
X124366105Y-187404800D01*
X138263895Y-187404800D01*
X138300000Y-187408356D01*
X138336105Y-187404800D01*
X138404305Y-187398083D01*
X138444085Y-187394165D01*
X138582633Y-187352137D01*
X138710320Y-187283887D01*
X138822238Y-187192038D01*
X138914087Y-187080120D01*
X138982337Y-186952433D01*
X139024365Y-186813885D01*
X139035000Y-186705905D01*
X139035000Y-186705904D01*
X139038556Y-186669800D01*
X139035000Y-186633695D01*
X139035000Y-172735904D01*
X139038556Y-172699799D01*
X142641444Y-172699799D01*
X142645001Y-172735914D01*
X142645000Y-186633695D01*
X142641444Y-186669800D01*
X142655635Y-186813885D01*
X142697663Y-186952433D01*
X142765913Y-187080120D01*
X142857762Y-187192038D01*
X142936771Y-187256879D01*
X142969680Y-187283887D01*
X143097367Y-187352137D01*
X143235915Y-187394165D01*
X143380000Y-187408356D01*
X143416105Y-187404800D01*
X176363895Y-187404800D01*
X176400000Y-187408356D01*
X176436105Y-187404800D01*
X176504305Y-187398083D01*
X176544085Y-187394165D01*
X176682633Y-187352137D01*
X176810320Y-187283887D01*
X176922238Y-187192038D01*
X177014087Y-187080120D01*
X177082337Y-186952433D01*
X177124365Y-186813885D01*
X177135000Y-186705905D01*
X177135000Y-186705904D01*
X177138556Y-186669800D01*
X177135000Y-186633695D01*
X177135000Y-172735904D01*
X177138556Y-172699799D01*
X180741444Y-172699799D01*
X180745001Y-172735914D01*
X180745000Y-186633695D01*
X180741444Y-186669800D01*
X180755635Y-186813885D01*
X180797663Y-186952433D01*
X180865913Y-187080120D01*
X180957762Y-187192038D01*
X181036771Y-187256879D01*
X181069680Y-187283887D01*
X181197367Y-187352137D01*
X181335915Y-187394165D01*
X181480000Y-187408356D01*
X181516105Y-187404800D01*
X195413895Y-187404800D01*
X195450000Y-187408356D01*
X195486105Y-187404800D01*
X195554305Y-187398083D01*
X195594085Y-187394165D01*
X195732633Y-187352137D01*
X195860320Y-187283887D01*
X195972238Y-187192038D01*
X196064087Y-187080120D01*
X196132337Y-186952433D01*
X196174365Y-186813885D01*
X196185000Y-186705905D01*
X196185000Y-186705904D01*
X196188556Y-186669800D01*
X196185000Y-186633695D01*
X196185000Y-172735904D01*
X196188556Y-172699799D01*
X196187581Y-172689899D01*
X199776444Y-172689899D01*
X199780001Y-172726014D01*
X199780000Y-186623795D01*
X199776444Y-186659900D01*
X199790635Y-186803985D01*
X199832663Y-186942533D01*
X199900913Y-187070220D01*
X199992762Y-187182138D01*
X200083834Y-187256879D01*
X200104680Y-187273987D01*
X200232367Y-187342237D01*
X200370915Y-187384265D01*
X200515000Y-187398456D01*
X200551105Y-187394900D01*
X214448895Y-187394900D01*
X214485000Y-187398456D01*
X214521105Y-187394900D01*
X214629085Y-187384265D01*
X214767633Y-187342237D01*
X214895320Y-187273987D01*
X215007238Y-187182138D01*
X215099087Y-187070220D01*
X215167337Y-186942533D01*
X215209365Y-186803985D01*
X215223556Y-186659900D01*
X215220000Y-186623795D01*
X215220000Y-172726004D01*
X215222580Y-172699799D01*
X218841444Y-172699799D01*
X218845001Y-172735914D01*
X218845000Y-186633695D01*
X218841444Y-186669800D01*
X218855635Y-186813885D01*
X218897663Y-186952433D01*
X218965913Y-187080120D01*
X219057762Y-187192038D01*
X219136771Y-187256879D01*
X219169680Y-187283887D01*
X219297367Y-187352137D01*
X219435915Y-187394165D01*
X219580000Y-187408356D01*
X219616105Y-187404800D01*
X233513895Y-187404800D01*
X233550000Y-187408356D01*
X233586105Y-187404800D01*
X233654305Y-187398083D01*
X233694085Y-187394165D01*
X233832633Y-187352137D01*
X233960320Y-187283887D01*
X234072238Y-187192038D01*
X234164087Y-187080120D01*
X234232337Y-186952433D01*
X234274365Y-186813885D01*
X234285000Y-186705905D01*
X234285000Y-186705904D01*
X234288556Y-186669800D01*
X234285000Y-186633695D01*
X234285000Y-172741050D01*
X237907419Y-172741050D01*
X237910975Y-172777155D01*
X237910976Y-186674936D01*
X237907419Y-186711051D01*
X237921610Y-186855136D01*
X237963638Y-186993684D01*
X238031888Y-187121371D01*
X238123737Y-187233289D01*
X238235655Y-187325138D01*
X238363342Y-187393388D01*
X238501890Y-187435416D01*
X238609870Y-187446051D01*
X238645975Y-187449607D01*
X238682080Y-187446051D01*
X271629870Y-187446051D01*
X271665975Y-187449607D01*
X271702080Y-187446051D01*
X271810060Y-187435416D01*
X271948608Y-187393388D01*
X272076295Y-187325138D01*
X272188213Y-187233289D01*
X272280062Y-187121371D01*
X272348312Y-186993684D01*
X272390340Y-186855136D01*
X272404531Y-186711051D01*
X272400975Y-186674946D01*
X272400975Y-172777155D01*
X272404531Y-172741050D01*
X272400469Y-172699799D01*
X275991444Y-172699799D01*
X275995001Y-172735914D01*
X275995000Y-186633695D01*
X275991444Y-186669800D01*
X276005635Y-186813885D01*
X276047663Y-186952433D01*
X276115913Y-187080120D01*
X276207762Y-187192038D01*
X276286771Y-187256879D01*
X276319680Y-187283887D01*
X276447367Y-187352137D01*
X276585915Y-187394165D01*
X276730000Y-187408356D01*
X276766105Y-187404800D01*
X290663895Y-187404800D01*
X290700000Y-187408356D01*
X290736105Y-187404800D01*
X290804305Y-187398083D01*
X290844085Y-187394165D01*
X290982633Y-187352137D01*
X291110320Y-187283887D01*
X291222238Y-187192038D01*
X291314087Y-187080120D01*
X291382337Y-186952433D01*
X291424365Y-186813885D01*
X291435000Y-186705905D01*
X291435000Y-186705904D01*
X291438556Y-186669800D01*
X291435000Y-186633695D01*
X291435000Y-172735904D01*
X291438556Y-172699799D01*
X295041444Y-172699799D01*
X295045001Y-172735914D01*
X295045000Y-186633695D01*
X295041444Y-186669800D01*
X295055635Y-186813885D01*
X295097663Y-186952433D01*
X295165913Y-187080120D01*
X295257762Y-187192038D01*
X295336771Y-187256879D01*
X295369680Y-187283887D01*
X295497367Y-187352137D01*
X295635915Y-187394165D01*
X295780000Y-187408356D01*
X295816105Y-187404800D01*
X309713895Y-187404800D01*
X309750000Y-187408356D01*
X309786105Y-187404800D01*
X309854305Y-187398083D01*
X309894085Y-187394165D01*
X310032633Y-187352137D01*
X310160320Y-187283887D01*
X310272238Y-187192038D01*
X310364087Y-187080120D01*
X310432337Y-186952433D01*
X310474365Y-186813885D01*
X310485000Y-186705905D01*
X310485000Y-186705904D01*
X310488556Y-186669800D01*
X310485000Y-186633695D01*
X310485000Y-172735904D01*
X310488556Y-172699799D01*
X314091443Y-172699799D01*
X314095000Y-172735914D01*
X314094999Y-186633695D01*
X314091443Y-186669800D01*
X314105634Y-186813885D01*
X314147662Y-186952433D01*
X314215912Y-187080120D01*
X314307761Y-187192038D01*
X314386770Y-187256879D01*
X314419679Y-187283887D01*
X314547366Y-187352137D01*
X314685914Y-187394165D01*
X314829999Y-187408356D01*
X314866104Y-187404800D01*
X328763895Y-187404800D01*
X328800000Y-187408356D01*
X328836105Y-187404800D01*
X328904305Y-187398083D01*
X328944085Y-187394165D01*
X329082633Y-187352137D01*
X329210320Y-187283887D01*
X329322238Y-187192038D01*
X329414087Y-187080120D01*
X329482337Y-186952433D01*
X329524365Y-186813885D01*
X329535000Y-186705905D01*
X329535000Y-186705904D01*
X329538556Y-186669800D01*
X329535000Y-186633695D01*
X329535000Y-172735904D01*
X329538556Y-172699799D01*
X333141444Y-172699799D01*
X333145001Y-172735914D01*
X333145000Y-186633695D01*
X333141444Y-186669800D01*
X333155635Y-186813885D01*
X333197663Y-186952433D01*
X333265913Y-187080120D01*
X333357762Y-187192038D01*
X333436771Y-187256879D01*
X333469680Y-187283887D01*
X333597367Y-187352137D01*
X333735915Y-187394165D01*
X333880000Y-187408356D01*
X333916105Y-187404800D01*
X347813895Y-187404800D01*
X347850000Y-187408356D01*
X347886105Y-187404800D01*
X347954305Y-187398083D01*
X347994085Y-187394165D01*
X348132633Y-187352137D01*
X348260320Y-187283887D01*
X348372238Y-187192038D01*
X348464087Y-187080120D01*
X348532337Y-186952433D01*
X348574365Y-186813885D01*
X348585000Y-186705905D01*
X348585000Y-186705904D01*
X348588556Y-186669800D01*
X348585000Y-186633695D01*
X348585000Y-172735904D01*
X348588556Y-172699799D01*
X348574365Y-172555714D01*
X348532337Y-172417166D01*
X348464087Y-172289479D01*
X348372238Y-172177561D01*
X348260320Y-172085712D01*
X348132633Y-172017462D01*
X347994085Y-171975434D01*
X347886105Y-171964799D01*
X347850000Y-171961243D01*
X347813895Y-171964799D01*
X333916105Y-171964799D01*
X333880000Y-171961243D01*
X333843895Y-171964799D01*
X333735915Y-171975434D01*
X333597367Y-172017462D01*
X333469680Y-172085712D01*
X333357762Y-172177561D01*
X333265913Y-172289479D01*
X333197663Y-172417166D01*
X333155635Y-172555714D01*
X333141444Y-172699799D01*
X329538556Y-172699799D01*
X329524365Y-172555714D01*
X329482337Y-172417166D01*
X329414087Y-172289479D01*
X329322238Y-172177561D01*
X329210320Y-172085712D01*
X329082633Y-172017462D01*
X328944085Y-171975434D01*
X328836105Y-171964799D01*
X328800000Y-171961243D01*
X328763895Y-171964799D01*
X314866104Y-171964799D01*
X314829999Y-171961243D01*
X314793894Y-171964799D01*
X314685914Y-171975434D01*
X314547366Y-172017462D01*
X314419679Y-172085712D01*
X314307761Y-172177561D01*
X314215912Y-172289479D01*
X314147662Y-172417166D01*
X314105634Y-172555714D01*
X314091443Y-172699799D01*
X310488556Y-172699799D01*
X310474365Y-172555714D01*
X310432337Y-172417166D01*
X310364087Y-172289479D01*
X310272238Y-172177561D01*
X310160320Y-172085712D01*
X310032633Y-172017462D01*
X309894085Y-171975434D01*
X309786105Y-171964799D01*
X309750000Y-171961243D01*
X309713895Y-171964799D01*
X295816105Y-171964799D01*
X295780000Y-171961243D01*
X295743895Y-171964799D01*
X295635915Y-171975434D01*
X295497367Y-172017462D01*
X295369680Y-172085712D01*
X295257762Y-172177561D01*
X295165913Y-172289479D01*
X295097663Y-172417166D01*
X295055635Y-172555714D01*
X295041444Y-172699799D01*
X291438556Y-172699799D01*
X291424365Y-172555714D01*
X291382337Y-172417166D01*
X291314087Y-172289479D01*
X291222238Y-172177561D01*
X291110320Y-172085712D01*
X290982633Y-172017462D01*
X290844085Y-171975434D01*
X290736105Y-171964799D01*
X290700000Y-171961243D01*
X290663895Y-171964799D01*
X276766105Y-171964799D01*
X276730000Y-171961243D01*
X276693895Y-171964799D01*
X276585915Y-171975434D01*
X276447367Y-172017462D01*
X276319680Y-172085712D01*
X276207762Y-172177561D01*
X276115913Y-172289479D01*
X276047663Y-172417166D01*
X276005635Y-172555714D01*
X275991444Y-172699799D01*
X272400469Y-172699799D01*
X272390340Y-172596965D01*
X272348312Y-172458417D01*
X272280062Y-172330730D01*
X272188213Y-172218812D01*
X272076295Y-172126963D01*
X271948608Y-172058713D01*
X271810060Y-172016685D01*
X271702080Y-172006050D01*
X271665975Y-172002494D01*
X271629870Y-172006050D01*
X270114975Y-172006050D01*
X270114975Y-171989156D01*
X270118531Y-171953051D01*
X270104340Y-171808966D01*
X270062312Y-171670418D01*
X269994062Y-171542731D01*
X269902213Y-171430813D01*
X269790295Y-171338964D01*
X269662608Y-171270714D01*
X269524060Y-171228686D01*
X269416080Y-171218051D01*
X269379975Y-171214495D01*
X269343870Y-171218051D01*
X262431080Y-171218051D01*
X262394975Y-171214495D01*
X262358870Y-171218051D01*
X262250890Y-171228686D01*
X262112342Y-171270714D01*
X261984655Y-171338964D01*
X261872737Y-171430813D01*
X261780888Y-171542731D01*
X261712638Y-171670418D01*
X261670610Y-171808966D01*
X261656419Y-171953051D01*
X261659975Y-171989156D01*
X261659975Y-172006050D01*
X246238975Y-172006050D01*
X246238975Y-171989156D01*
X246242531Y-171953051D01*
X246228340Y-171808966D01*
X246186312Y-171670418D01*
X246118062Y-171542731D01*
X246026213Y-171430813D01*
X245914295Y-171338964D01*
X245786608Y-171270714D01*
X245648060Y-171228686D01*
X245540080Y-171218051D01*
X245503975Y-171214495D01*
X245467870Y-171218051D01*
X240968080Y-171218051D01*
X240931975Y-171214495D01*
X240895870Y-171218051D01*
X240787890Y-171228686D01*
X240649342Y-171270714D01*
X240521655Y-171338964D01*
X240409737Y-171430813D01*
X240317888Y-171542731D01*
X240249638Y-171670418D01*
X240207610Y-171808966D01*
X240193419Y-171953051D01*
X240196975Y-171989156D01*
X240196975Y-172006050D01*
X238682080Y-172006050D01*
X238645975Y-172002494D01*
X238609870Y-172006050D01*
X238501890Y-172016685D01*
X238363342Y-172058713D01*
X238235655Y-172126963D01*
X238123737Y-172218812D01*
X238031888Y-172330730D01*
X237963638Y-172458417D01*
X237921610Y-172596965D01*
X237907419Y-172741050D01*
X234285000Y-172741050D01*
X234285000Y-172735904D01*
X234288556Y-172699799D01*
X234274365Y-172555714D01*
X234232337Y-172417166D01*
X234164087Y-172289479D01*
X234072238Y-172177561D01*
X233960320Y-172085712D01*
X233832633Y-172017462D01*
X233694085Y-171975434D01*
X233586105Y-171964799D01*
X233550000Y-171961243D01*
X233513895Y-171964799D01*
X219616105Y-171964799D01*
X219580000Y-171961243D01*
X219543895Y-171964799D01*
X219435915Y-171975434D01*
X219297367Y-172017462D01*
X219169680Y-172085712D01*
X219057762Y-172177561D01*
X218965913Y-172289479D01*
X218897663Y-172417166D01*
X218855635Y-172555714D01*
X218841444Y-172699799D01*
X215222580Y-172699799D01*
X215223556Y-172689899D01*
X215209365Y-172545814D01*
X215167337Y-172407266D01*
X215099087Y-172279579D01*
X215007238Y-172167661D01*
X214895320Y-172075812D01*
X214767633Y-172007562D01*
X214629085Y-171965534D01*
X214521105Y-171954899D01*
X214485000Y-171951343D01*
X214448895Y-171954899D01*
X200551105Y-171954899D01*
X200515000Y-171951343D01*
X200478895Y-171954899D01*
X200370915Y-171965534D01*
X200232367Y-172007562D01*
X200104680Y-172075812D01*
X199992762Y-172167661D01*
X199900913Y-172279579D01*
X199832663Y-172407266D01*
X199790635Y-172545814D01*
X199776444Y-172689899D01*
X196187581Y-172689899D01*
X196174365Y-172555714D01*
X196132337Y-172417166D01*
X196064087Y-172289479D01*
X195972238Y-172177561D01*
X195860320Y-172085712D01*
X195732633Y-172017462D01*
X195594085Y-171975434D01*
X195486105Y-171964799D01*
X195450000Y-171961243D01*
X195413895Y-171964799D01*
X181516105Y-171964799D01*
X181480000Y-171961243D01*
X181443895Y-171964799D01*
X181335915Y-171975434D01*
X181197367Y-172017462D01*
X181069680Y-172085712D01*
X180957762Y-172177561D01*
X180865913Y-172289479D01*
X180797663Y-172417166D01*
X180755635Y-172555714D01*
X180741444Y-172699799D01*
X177138556Y-172699799D01*
X177124365Y-172555714D01*
X177082337Y-172417166D01*
X177014087Y-172289479D01*
X176922238Y-172177561D01*
X176810320Y-172085712D01*
X176682633Y-172017462D01*
X176544085Y-171975434D01*
X176436105Y-171964799D01*
X176400000Y-171961243D01*
X176363895Y-171964799D01*
X174849000Y-171964799D01*
X174849000Y-171947905D01*
X174852556Y-171911800D01*
X174838365Y-171767715D01*
X174796337Y-171629167D01*
X174728087Y-171501480D01*
X174636238Y-171389562D01*
X174524320Y-171297713D01*
X174396633Y-171229463D01*
X174258085Y-171187435D01*
X174150105Y-171176800D01*
X174114000Y-171173244D01*
X174077895Y-171176800D01*
X169578105Y-171176800D01*
X169542000Y-171173244D01*
X169505895Y-171176800D01*
X169397915Y-171187435D01*
X169259367Y-171229463D01*
X169131680Y-171297713D01*
X169019762Y-171389562D01*
X168927913Y-171501480D01*
X168859663Y-171629167D01*
X168817635Y-171767715D01*
X168803444Y-171911800D01*
X168807000Y-171947905D01*
X168807000Y-171964799D01*
X153386000Y-171964799D01*
X153386000Y-171947905D01*
X153389556Y-171911800D01*
X153375365Y-171767715D01*
X153333337Y-171629167D01*
X153265087Y-171501480D01*
X153173238Y-171389562D01*
X153061320Y-171297713D01*
X152933633Y-171229463D01*
X152795085Y-171187435D01*
X152687105Y-171176800D01*
X152651000Y-171173244D01*
X152614895Y-171176800D01*
X145702105Y-171176800D01*
X145666000Y-171173244D01*
X145629895Y-171176800D01*
X145521915Y-171187435D01*
X145383367Y-171229463D01*
X145255680Y-171297713D01*
X145143762Y-171389562D01*
X145051913Y-171501480D01*
X144983663Y-171629167D01*
X144941635Y-171767715D01*
X144927444Y-171911800D01*
X144931000Y-171947905D01*
X144931000Y-171964799D01*
X143416105Y-171964799D01*
X143380000Y-171961243D01*
X143343895Y-171964799D01*
X143235915Y-171975434D01*
X143097367Y-172017462D01*
X142969680Y-172085712D01*
X142857762Y-172177561D01*
X142765913Y-172289479D01*
X142697663Y-172417166D01*
X142655635Y-172555714D01*
X142641444Y-172699799D01*
X139038556Y-172699799D01*
X139024365Y-172555714D01*
X138982337Y-172417166D01*
X138914087Y-172289479D01*
X138822238Y-172177561D01*
X138710320Y-172085712D01*
X138582633Y-172017462D01*
X138444085Y-171975434D01*
X138336105Y-171964799D01*
X138300000Y-171961243D01*
X138263895Y-171964799D01*
X124366105Y-171964799D01*
X124330000Y-171961243D01*
X124293895Y-171964799D01*
X124185915Y-171975434D01*
X124047367Y-172017462D01*
X123919680Y-172085712D01*
X123807762Y-172177561D01*
X123715913Y-172289479D01*
X123647663Y-172417166D01*
X123605635Y-172555714D01*
X123591444Y-172699799D01*
X119988556Y-172699799D01*
X119974365Y-172555714D01*
X119932337Y-172417166D01*
X119864087Y-172289479D01*
X119772238Y-172177561D01*
X119660320Y-172085712D01*
X119532633Y-172017462D01*
X119394085Y-171975434D01*
X119286105Y-171964799D01*
X119250000Y-171961243D01*
X119213895Y-171964799D01*
X105316105Y-171964799D01*
X105280000Y-171961243D01*
X105243895Y-171964799D01*
X105135915Y-171975434D01*
X104997367Y-172017462D01*
X104869680Y-172085712D01*
X104757762Y-172177561D01*
X104665913Y-172289479D01*
X104597663Y-172417166D01*
X104555635Y-172555714D01*
X104541444Y-172699799D01*
X100938556Y-172699799D01*
X100924365Y-172555714D01*
X100882337Y-172417166D01*
X100814087Y-172289479D01*
X100722238Y-172177561D01*
X100610320Y-172085712D01*
X100482633Y-172017462D01*
X100344085Y-171975434D01*
X100236105Y-171964799D01*
X100200000Y-171961243D01*
X100163895Y-171964799D01*
X86266105Y-171964799D01*
X86230000Y-171961243D01*
X86193895Y-171964799D01*
X86085915Y-171975434D01*
X85947367Y-172017462D01*
X85819680Y-172085712D01*
X85707762Y-172177561D01*
X85615913Y-172289479D01*
X85547663Y-172417166D01*
X85505635Y-172555714D01*
X85491444Y-172699799D01*
X81888556Y-172699799D01*
X81874365Y-172555714D01*
X81832337Y-172417166D01*
X81764087Y-172289479D01*
X81672238Y-172177561D01*
X81560320Y-172085712D01*
X81432633Y-172017462D01*
X81294085Y-171975434D01*
X81186105Y-171964799D01*
X81150000Y-171961243D01*
X81113895Y-171964799D01*
X67216105Y-171964799D01*
X67180000Y-171961243D01*
X67143895Y-171964799D01*
X67035915Y-171975434D01*
X66897367Y-172017462D01*
X66769680Y-172085712D01*
X66657762Y-172177561D01*
X66565913Y-172289479D01*
X66497663Y-172417166D01*
X66455635Y-172555714D01*
X66441444Y-172699799D01*
X65735000Y-172699799D01*
X65735000Y-154335000D01*
X66445001Y-154335000D01*
X66445000Y-167583995D01*
X66441444Y-167620100D01*
X66455635Y-167764185D01*
X66497663Y-167902733D01*
X66565913Y-168030420D01*
X66657762Y-168142338D01*
X66757617Y-168224287D01*
X66769680Y-168234187D01*
X66897367Y-168302437D01*
X67035915Y-168344465D01*
X67180000Y-168358656D01*
X67216105Y-168355100D01*
X81113895Y-168355100D01*
X81150000Y-168358656D01*
X81186105Y-168355100D01*
X81294085Y-168344465D01*
X81432633Y-168302437D01*
X81560320Y-168234187D01*
X81672238Y-168142338D01*
X81764087Y-168030420D01*
X81832337Y-167902733D01*
X81874365Y-167764185D01*
X81888556Y-167620100D01*
X81885000Y-167583995D01*
X81885000Y-153686205D01*
X81888556Y-153650100D01*
X85491444Y-153650100D01*
X85495001Y-153686215D01*
X85495000Y-167583995D01*
X85491444Y-167620100D01*
X85505635Y-167764185D01*
X85547663Y-167902733D01*
X85615913Y-168030420D01*
X85707762Y-168142338D01*
X85807617Y-168224287D01*
X85819680Y-168234187D01*
X85947367Y-168302437D01*
X86085915Y-168344465D01*
X86230000Y-168358656D01*
X86266105Y-168355100D01*
X100163895Y-168355100D01*
X100200000Y-168358656D01*
X100236105Y-168355100D01*
X100344085Y-168344465D01*
X100482633Y-168302437D01*
X100610320Y-168234187D01*
X100722238Y-168142338D01*
X100814087Y-168030420D01*
X100882337Y-167902733D01*
X100924365Y-167764185D01*
X100938556Y-167620100D01*
X100935000Y-167583995D01*
X100935000Y-153686205D01*
X100938556Y-153650100D01*
X104541444Y-153650100D01*
X104545001Y-153686215D01*
X104545000Y-167583995D01*
X104541444Y-167620100D01*
X104555635Y-167764185D01*
X104597663Y-167902733D01*
X104665913Y-168030420D01*
X104757762Y-168142338D01*
X104857617Y-168224287D01*
X104869680Y-168234187D01*
X104997367Y-168302437D01*
X105135915Y-168344465D01*
X105280000Y-168358656D01*
X105316105Y-168355100D01*
X119213895Y-168355100D01*
X119250000Y-168358656D01*
X119286105Y-168355100D01*
X119394085Y-168344465D01*
X119532633Y-168302437D01*
X119660320Y-168234187D01*
X119772238Y-168142338D01*
X119864087Y-168030420D01*
X119932337Y-167902733D01*
X119974365Y-167764185D01*
X119988556Y-167620100D01*
X119985000Y-167583995D01*
X119985000Y-153686205D01*
X119988556Y-153650100D01*
X123591444Y-153650100D01*
X123595001Y-153686215D01*
X123595000Y-167583995D01*
X123591444Y-167620100D01*
X123605635Y-167764185D01*
X123647663Y-167902733D01*
X123715913Y-168030420D01*
X123807762Y-168142338D01*
X123907617Y-168224287D01*
X123919680Y-168234187D01*
X124047367Y-168302437D01*
X124185915Y-168344465D01*
X124330000Y-168358656D01*
X124366105Y-168355100D01*
X138263895Y-168355100D01*
X138300000Y-168358656D01*
X138336105Y-168355100D01*
X138444085Y-168344465D01*
X138582633Y-168302437D01*
X138710320Y-168234187D01*
X138822238Y-168142338D01*
X138914087Y-168030420D01*
X138982337Y-167902733D01*
X139024365Y-167764185D01*
X139038556Y-167620100D01*
X139035000Y-167583995D01*
X139035000Y-153686205D01*
X139038556Y-153650100D01*
X142641444Y-153650100D01*
X142645001Y-153686215D01*
X142645000Y-167583995D01*
X142641444Y-167620100D01*
X142655635Y-167764185D01*
X142697663Y-167902733D01*
X142765913Y-168030420D01*
X142857762Y-168142338D01*
X142957617Y-168224287D01*
X142969680Y-168234187D01*
X143097367Y-168302437D01*
X143235915Y-168344465D01*
X143380000Y-168358656D01*
X143416105Y-168355100D01*
X157313895Y-168355100D01*
X157350000Y-168358656D01*
X157386105Y-168355100D01*
X157494085Y-168344465D01*
X157632633Y-168302437D01*
X157760320Y-168234187D01*
X157872238Y-168142338D01*
X157964087Y-168030420D01*
X158032337Y-167902733D01*
X158074365Y-167764185D01*
X158088556Y-167620100D01*
X158085000Y-167583995D01*
X158085000Y-153686205D01*
X158088556Y-153650100D01*
X161691444Y-153650100D01*
X161695001Y-153686215D01*
X161695000Y-167583995D01*
X161691444Y-167620100D01*
X161705635Y-167764185D01*
X161747663Y-167902733D01*
X161815913Y-168030420D01*
X161907762Y-168142338D01*
X162007617Y-168224287D01*
X162019680Y-168234187D01*
X162147367Y-168302437D01*
X162285915Y-168344465D01*
X162430000Y-168358656D01*
X162466105Y-168355100D01*
X176363895Y-168355100D01*
X176400000Y-168358656D01*
X176436105Y-168355100D01*
X176544085Y-168344465D01*
X176682633Y-168302437D01*
X176810320Y-168234187D01*
X176922238Y-168142338D01*
X177014087Y-168030420D01*
X177082337Y-167902733D01*
X177124365Y-167764185D01*
X177138556Y-167620100D01*
X177135000Y-167583995D01*
X177135000Y-153686205D01*
X177138556Y-153650100D01*
X180741444Y-153650100D01*
X180745001Y-153686215D01*
X180745000Y-167583995D01*
X180741444Y-167620100D01*
X180755635Y-167764185D01*
X180797663Y-167902733D01*
X180865913Y-168030420D01*
X180957762Y-168142338D01*
X181057617Y-168224287D01*
X181069680Y-168234187D01*
X181197367Y-168302437D01*
X181335915Y-168344465D01*
X181480000Y-168358656D01*
X181516105Y-168355100D01*
X195413895Y-168355100D01*
X195450000Y-168358656D01*
X195486105Y-168355100D01*
X195594085Y-168344465D01*
X195732633Y-168302437D01*
X195860320Y-168234187D01*
X195972238Y-168142338D01*
X196064087Y-168030420D01*
X196132337Y-167902733D01*
X196174365Y-167764185D01*
X196188556Y-167620100D01*
X196185000Y-167583995D01*
X196185000Y-153686205D01*
X196188556Y-153650100D01*
X196187581Y-153640200D01*
X199776444Y-153640200D01*
X199780001Y-153676315D01*
X199780000Y-167574095D01*
X199776444Y-167610200D01*
X199790635Y-167754285D01*
X199832663Y-167892833D01*
X199900913Y-168020520D01*
X199992762Y-168132438D01*
X200104680Y-168224287D01*
X200232367Y-168292537D01*
X200370915Y-168334565D01*
X200515000Y-168348756D01*
X200551105Y-168345200D01*
X214448895Y-168345200D01*
X214485000Y-168348756D01*
X214521105Y-168345200D01*
X214629085Y-168334565D01*
X214767633Y-168292537D01*
X214895320Y-168224287D01*
X215007238Y-168132438D01*
X215099087Y-168020520D01*
X215167337Y-167892833D01*
X215209365Y-167754285D01*
X215223556Y-167610200D01*
X215220000Y-167574095D01*
X215220000Y-153676305D01*
X215222580Y-153650100D01*
X218841444Y-153650100D01*
X218845001Y-153686215D01*
X218845000Y-167583995D01*
X218841444Y-167620100D01*
X218855635Y-167764185D01*
X218897663Y-167902733D01*
X218965913Y-168030420D01*
X219057762Y-168142338D01*
X219157617Y-168224287D01*
X219169680Y-168234187D01*
X219297367Y-168302437D01*
X219435915Y-168344465D01*
X219580000Y-168358656D01*
X219616105Y-168355100D01*
X233513895Y-168355100D01*
X233550000Y-168358656D01*
X233586105Y-168355100D01*
X233694085Y-168344465D01*
X233832633Y-168302437D01*
X233960320Y-168234187D01*
X234072238Y-168142338D01*
X234164087Y-168030420D01*
X234232337Y-167902733D01*
X234274365Y-167764185D01*
X234288556Y-167620100D01*
X234285000Y-167583995D01*
X234285000Y-153686205D01*
X234288556Y-153650100D01*
X237891444Y-153650100D01*
X237895001Y-153686215D01*
X237895000Y-167583995D01*
X237891444Y-167620100D01*
X237905635Y-167764185D01*
X237947663Y-167902733D01*
X238015913Y-168030420D01*
X238107762Y-168142338D01*
X238207617Y-168224287D01*
X238219680Y-168234187D01*
X238347367Y-168302437D01*
X238485915Y-168344465D01*
X238630000Y-168358656D01*
X238666105Y-168355100D01*
X252563895Y-168355100D01*
X252600000Y-168358656D01*
X252636105Y-168355100D01*
X252744085Y-168344465D01*
X252882633Y-168302437D01*
X253010320Y-168234187D01*
X253122238Y-168142338D01*
X253214087Y-168030420D01*
X253282337Y-167902733D01*
X253324365Y-167764185D01*
X253338556Y-167620100D01*
X253335000Y-167583995D01*
X253335000Y-153686205D01*
X253338556Y-153650100D01*
X256941444Y-153650100D01*
X256945001Y-153686215D01*
X256945000Y-167583995D01*
X256941444Y-167620100D01*
X256955635Y-167764185D01*
X256997663Y-167902733D01*
X257065913Y-168030420D01*
X257157762Y-168142338D01*
X257257617Y-168224287D01*
X257269680Y-168234187D01*
X257397367Y-168302437D01*
X257535915Y-168344465D01*
X257680000Y-168358656D01*
X257716105Y-168355100D01*
X271613895Y-168355100D01*
X271650000Y-168358656D01*
X271686105Y-168355100D01*
X271794085Y-168344465D01*
X271932633Y-168302437D01*
X272060320Y-168234187D01*
X272172238Y-168142338D01*
X272264087Y-168030420D01*
X272332337Y-167902733D01*
X272374365Y-167764185D01*
X272388556Y-167620100D01*
X272385000Y-167583995D01*
X272385000Y-153686205D01*
X272388556Y-153650100D01*
X275991444Y-153650100D01*
X275995001Y-153686215D01*
X275995000Y-167583995D01*
X275991444Y-167620100D01*
X276005635Y-167764185D01*
X276047663Y-167902733D01*
X276115913Y-168030420D01*
X276207762Y-168142338D01*
X276307617Y-168224287D01*
X276319680Y-168234187D01*
X276447367Y-168302437D01*
X276585915Y-168344465D01*
X276730000Y-168358656D01*
X276766105Y-168355100D01*
X290663895Y-168355100D01*
X290700000Y-168358656D01*
X290736105Y-168355100D01*
X290844085Y-168344465D01*
X290982633Y-168302437D01*
X291110320Y-168234187D01*
X291222238Y-168142338D01*
X291314087Y-168030420D01*
X291382337Y-167902733D01*
X291424365Y-167764185D01*
X291438556Y-167620100D01*
X291435000Y-167583995D01*
X291435000Y-153686205D01*
X291438556Y-153650100D01*
X295041444Y-153650100D01*
X295045001Y-153686215D01*
X295045000Y-167583995D01*
X295041444Y-167620100D01*
X295055635Y-167764185D01*
X295097663Y-167902733D01*
X295165913Y-168030420D01*
X295257762Y-168142338D01*
X295357617Y-168224287D01*
X295369680Y-168234187D01*
X295497367Y-168302437D01*
X295635915Y-168344465D01*
X295780000Y-168358656D01*
X295816105Y-168355100D01*
X309713895Y-168355100D01*
X309750000Y-168358656D01*
X309786105Y-168355100D01*
X309894085Y-168344465D01*
X310032633Y-168302437D01*
X310160320Y-168234187D01*
X310272238Y-168142338D01*
X310364087Y-168030420D01*
X310432337Y-167902733D01*
X310474365Y-167764185D01*
X310488556Y-167620100D01*
X310485000Y-167583995D01*
X310485000Y-153686205D01*
X310488556Y-153650100D01*
X314091443Y-153650100D01*
X314095000Y-153686215D01*
X314094999Y-167583995D01*
X314091443Y-167620100D01*
X314105634Y-167764185D01*
X314147662Y-167902733D01*
X314215912Y-168030420D01*
X314307761Y-168142338D01*
X314407616Y-168224287D01*
X314419679Y-168234187D01*
X314547366Y-168302437D01*
X314685914Y-168344465D01*
X314829999Y-168358656D01*
X314866104Y-168355100D01*
X328763895Y-168355100D01*
X328800000Y-168358656D01*
X328836105Y-168355100D01*
X328944085Y-168344465D01*
X329082633Y-168302437D01*
X329210320Y-168234187D01*
X329322238Y-168142338D01*
X329414087Y-168030420D01*
X329482337Y-167902733D01*
X329524365Y-167764185D01*
X329538556Y-167620100D01*
X329535000Y-167583995D01*
X329535000Y-153686205D01*
X329538556Y-153650100D01*
X329524365Y-153506015D01*
X329482337Y-153367467D01*
X329414087Y-153239780D01*
X329322238Y-153127862D01*
X329210320Y-153036013D01*
X329082633Y-152967763D01*
X328944085Y-152925735D01*
X328836105Y-152915100D01*
X328800000Y-152911544D01*
X328763895Y-152915100D01*
X314866104Y-152915100D01*
X314829999Y-152911544D01*
X314793894Y-152915100D01*
X314685914Y-152925735D01*
X314547366Y-152967763D01*
X314419679Y-153036013D01*
X314307761Y-153127862D01*
X314215912Y-153239780D01*
X314147662Y-153367467D01*
X314105634Y-153506015D01*
X314091443Y-153650100D01*
X310488556Y-153650100D01*
X310474365Y-153506015D01*
X310432337Y-153367467D01*
X310364087Y-153239780D01*
X310272238Y-153127862D01*
X310160320Y-153036013D01*
X310032633Y-152967763D01*
X309894085Y-152925735D01*
X309786105Y-152915100D01*
X309750000Y-152911544D01*
X309713895Y-152915100D01*
X295816105Y-152915100D01*
X295780000Y-152911544D01*
X295743895Y-152915100D01*
X295635915Y-152925735D01*
X295497367Y-152967763D01*
X295369680Y-153036013D01*
X295257762Y-153127862D01*
X295165913Y-153239780D01*
X295097663Y-153367467D01*
X295055635Y-153506015D01*
X295041444Y-153650100D01*
X291438556Y-153650100D01*
X291424365Y-153506015D01*
X291382337Y-153367467D01*
X291314087Y-153239780D01*
X291222238Y-153127862D01*
X291110320Y-153036013D01*
X290982633Y-152967763D01*
X290844085Y-152925735D01*
X290736105Y-152915100D01*
X290700000Y-152911544D01*
X290663895Y-152915100D01*
X276766105Y-152915100D01*
X276730000Y-152911544D01*
X276693895Y-152915100D01*
X276585915Y-152925735D01*
X276447367Y-152967763D01*
X276319680Y-153036013D01*
X276207762Y-153127862D01*
X276115913Y-153239780D01*
X276047663Y-153367467D01*
X276005635Y-153506015D01*
X275991444Y-153650100D01*
X272388556Y-153650100D01*
X272374365Y-153506015D01*
X272332337Y-153367467D01*
X272264087Y-153239780D01*
X272172238Y-153127862D01*
X272060320Y-153036013D01*
X271932633Y-152967763D01*
X271794085Y-152925735D01*
X271686105Y-152915100D01*
X271650000Y-152911544D01*
X271613895Y-152915100D01*
X257716105Y-152915100D01*
X257680000Y-152911544D01*
X257643895Y-152915100D01*
X257535915Y-152925735D01*
X257397367Y-152967763D01*
X257269680Y-153036013D01*
X257157762Y-153127862D01*
X257065913Y-153239780D01*
X256997663Y-153367467D01*
X256955635Y-153506015D01*
X256941444Y-153650100D01*
X253338556Y-153650100D01*
X253324365Y-153506015D01*
X253282337Y-153367467D01*
X253214087Y-153239780D01*
X253122238Y-153127862D01*
X253010320Y-153036013D01*
X252882633Y-152967763D01*
X252744085Y-152925735D01*
X252636105Y-152915100D01*
X252600000Y-152911544D01*
X252563895Y-152915100D01*
X238666105Y-152915100D01*
X238630000Y-152911544D01*
X238593895Y-152915100D01*
X238485915Y-152925735D01*
X238347367Y-152967763D01*
X238219680Y-153036013D01*
X238107762Y-153127862D01*
X238015913Y-153239780D01*
X237947663Y-153367467D01*
X237905635Y-153506015D01*
X237891444Y-153650100D01*
X234288556Y-153650100D01*
X234274365Y-153506015D01*
X234232337Y-153367467D01*
X234164087Y-153239780D01*
X234072238Y-153127862D01*
X233960320Y-153036013D01*
X233832633Y-152967763D01*
X233694085Y-152925735D01*
X233586105Y-152915100D01*
X233550000Y-152911544D01*
X233513895Y-152915100D01*
X219616105Y-152915100D01*
X219580000Y-152911544D01*
X219543895Y-152915100D01*
X219435915Y-152925735D01*
X219297367Y-152967763D01*
X219169680Y-153036013D01*
X219057762Y-153127862D01*
X218965913Y-153239780D01*
X218897663Y-153367467D01*
X218855635Y-153506015D01*
X218841444Y-153650100D01*
X215222580Y-153650100D01*
X215223556Y-153640200D01*
X215209365Y-153496115D01*
X215167337Y-153357567D01*
X215099087Y-153229880D01*
X215007238Y-153117962D01*
X214895320Y-153026113D01*
X214767633Y-152957863D01*
X214629085Y-152915835D01*
X214521105Y-152905200D01*
X214485000Y-152901644D01*
X214448895Y-152905200D01*
X200551105Y-152905200D01*
X200515000Y-152901644D01*
X200478895Y-152905200D01*
X200370915Y-152915835D01*
X200232367Y-152957863D01*
X200104680Y-153026113D01*
X199992762Y-153117962D01*
X199900913Y-153229880D01*
X199832663Y-153357567D01*
X199790635Y-153496115D01*
X199776444Y-153640200D01*
X196187581Y-153640200D01*
X196174365Y-153506015D01*
X196132337Y-153367467D01*
X196064087Y-153239780D01*
X195972238Y-153127862D01*
X195860320Y-153036013D01*
X195732633Y-152967763D01*
X195594085Y-152925735D01*
X195486105Y-152915100D01*
X195450000Y-152911544D01*
X195413895Y-152915100D01*
X181516105Y-152915100D01*
X181480000Y-152911544D01*
X181443895Y-152915100D01*
X181335915Y-152925735D01*
X181197367Y-152967763D01*
X181069680Y-153036013D01*
X180957762Y-153127862D01*
X180865913Y-153239780D01*
X180797663Y-153367467D01*
X180755635Y-153506015D01*
X180741444Y-153650100D01*
X177138556Y-153650100D01*
X177124365Y-153506015D01*
X177082337Y-153367467D01*
X177014087Y-153239780D01*
X176922238Y-153127862D01*
X176810320Y-153036013D01*
X176682633Y-152967763D01*
X176544085Y-152925735D01*
X176436105Y-152915100D01*
X176400000Y-152911544D01*
X176363895Y-152915100D01*
X162466105Y-152915100D01*
X162430000Y-152911544D01*
X162393895Y-152915100D01*
X162285915Y-152925735D01*
X162147367Y-152967763D01*
X162019680Y-153036013D01*
X161907762Y-153127862D01*
X161815913Y-153239780D01*
X161747663Y-153367467D01*
X161705635Y-153506015D01*
X161691444Y-153650100D01*
X158088556Y-153650100D01*
X158074365Y-153506015D01*
X158032337Y-153367467D01*
X157964087Y-153239780D01*
X157872238Y-153127862D01*
X157760320Y-153036013D01*
X157632633Y-152967763D01*
X157494085Y-152925735D01*
X157386105Y-152915100D01*
X157350000Y-152911544D01*
X157313895Y-152915100D01*
X143416105Y-152915100D01*
X143380000Y-152911544D01*
X143343895Y-152915100D01*
X143235915Y-152925735D01*
X143097367Y-152967763D01*
X142969680Y-153036013D01*
X142857762Y-153127862D01*
X142765913Y-153239780D01*
X142697663Y-153367467D01*
X142655635Y-153506015D01*
X142641444Y-153650100D01*
X139038556Y-153650100D01*
X139024365Y-153506015D01*
X138982337Y-153367467D01*
X138914087Y-153239780D01*
X138822238Y-153127862D01*
X138710320Y-153036013D01*
X138582633Y-152967763D01*
X138444085Y-152925735D01*
X138336105Y-152915100D01*
X138300000Y-152911544D01*
X138263895Y-152915100D01*
X124366105Y-152915100D01*
X124330000Y-152911544D01*
X124293895Y-152915100D01*
X124185915Y-152925735D01*
X124047367Y-152967763D01*
X123919680Y-153036013D01*
X123807762Y-153127862D01*
X123715913Y-153239780D01*
X123647663Y-153367467D01*
X123605635Y-153506015D01*
X123591444Y-153650100D01*
X119988556Y-153650100D01*
X119974365Y-153506015D01*
X119932337Y-153367467D01*
X119864087Y-153239780D01*
X119772238Y-153127862D01*
X119660320Y-153036013D01*
X119532633Y-152967763D01*
X119394085Y-152925735D01*
X119286105Y-152915100D01*
X119250000Y-152911544D01*
X119213895Y-152915100D01*
X105316105Y-152915100D01*
X105280000Y-152911544D01*
X105243895Y-152915100D01*
X105135915Y-152925735D01*
X104997367Y-152967763D01*
X104869680Y-153036013D01*
X104757762Y-153127862D01*
X104665913Y-153239780D01*
X104597663Y-153367467D01*
X104555635Y-153506015D01*
X104541444Y-153650100D01*
X100938556Y-153650100D01*
X100924365Y-153506015D01*
X100882337Y-153367467D01*
X100814087Y-153239780D01*
X100722238Y-153127862D01*
X100610320Y-153036013D01*
X100482633Y-152967763D01*
X100344085Y-152925735D01*
X100236105Y-152915100D01*
X100200000Y-152911544D01*
X100163895Y-152915100D01*
X86266105Y-152915100D01*
X86230000Y-152911544D01*
X86193895Y-152915100D01*
X86085915Y-152925735D01*
X85947367Y-152967763D01*
X85819680Y-153036013D01*
X85707762Y-153127862D01*
X85615913Y-153239780D01*
X85547663Y-153367467D01*
X85505635Y-153506015D01*
X85491444Y-153650100D01*
X81888556Y-153650100D01*
X81874365Y-153506015D01*
X81832337Y-153367467D01*
X81764087Y-153239780D01*
X81672238Y-153127862D01*
X81560320Y-153036013D01*
X81432633Y-152967763D01*
X81294085Y-152925735D01*
X81186105Y-152915100D01*
X81150000Y-152911544D01*
X81113895Y-152915100D01*
X71089975Y-152915100D01*
X71089975Y-149305100D01*
X81113895Y-149305100D01*
X81150000Y-149308656D01*
X81186105Y-149305100D01*
X81294085Y-149294465D01*
X81432633Y-149252437D01*
X81560320Y-149184187D01*
X81672238Y-149092338D01*
X81764087Y-148980420D01*
X81832337Y-148852733D01*
X81874365Y-148714185D01*
X81888556Y-148570100D01*
X81885000Y-148533995D01*
X81885000Y-134635905D01*
X81888556Y-134599800D01*
X85491444Y-134599800D01*
X85495001Y-134635915D01*
X85495000Y-148533995D01*
X85491444Y-148570100D01*
X85505635Y-148714185D01*
X85547663Y-148852733D01*
X85615913Y-148980420D01*
X85707762Y-149092338D01*
X85759746Y-149135000D01*
X85819680Y-149184187D01*
X85947367Y-149252437D01*
X86085915Y-149294465D01*
X86230000Y-149308656D01*
X86266105Y-149305100D01*
X100163895Y-149305100D01*
X100200000Y-149308656D01*
X100236105Y-149305100D01*
X100344085Y-149294465D01*
X100482633Y-149252437D01*
X100610320Y-149184187D01*
X100722238Y-149092338D01*
X100814087Y-148980420D01*
X100882337Y-148852733D01*
X100924365Y-148714185D01*
X100938556Y-148570100D01*
X100935000Y-148533995D01*
X100935000Y-134635905D01*
X100938556Y-134599800D01*
X104541444Y-134599800D01*
X104545001Y-134635915D01*
X104545000Y-148533995D01*
X104541444Y-148570100D01*
X104555635Y-148714185D01*
X104597663Y-148852733D01*
X104665913Y-148980420D01*
X104757762Y-149092338D01*
X104809746Y-149135000D01*
X104869680Y-149184187D01*
X104997367Y-149252437D01*
X105135915Y-149294465D01*
X105280000Y-149308656D01*
X105316105Y-149305100D01*
X119213895Y-149305100D01*
X119250000Y-149308656D01*
X119286105Y-149305100D01*
X119394085Y-149294465D01*
X119532633Y-149252437D01*
X119660320Y-149184187D01*
X119772238Y-149092338D01*
X119864087Y-148980420D01*
X119932337Y-148852733D01*
X119974365Y-148714185D01*
X119988556Y-148570100D01*
X119985000Y-148533995D01*
X119985000Y-134635905D01*
X119988556Y-134599800D01*
X123591444Y-134599800D01*
X123595001Y-134635915D01*
X123595000Y-148533995D01*
X123591444Y-148570100D01*
X123605635Y-148714185D01*
X123647663Y-148852733D01*
X123715913Y-148980420D01*
X123807762Y-149092338D01*
X123859746Y-149135000D01*
X123919680Y-149184187D01*
X124047367Y-149252437D01*
X124185915Y-149294465D01*
X124330000Y-149308656D01*
X124366105Y-149305100D01*
X138263895Y-149305100D01*
X138300000Y-149308656D01*
X138336105Y-149305100D01*
X138444085Y-149294465D01*
X138582633Y-149252437D01*
X138710320Y-149184187D01*
X138822238Y-149092338D01*
X138914087Y-148980420D01*
X138982337Y-148852733D01*
X139024365Y-148714185D01*
X139038556Y-148570100D01*
X139035000Y-148533995D01*
X139035000Y-134635905D01*
X139038556Y-134599800D01*
X142641444Y-134599800D01*
X142645001Y-134635915D01*
X142645000Y-148533995D01*
X142641444Y-148570100D01*
X142655635Y-148714185D01*
X142697663Y-148852733D01*
X142765913Y-148980420D01*
X142857762Y-149092338D01*
X142909746Y-149135000D01*
X142969680Y-149184187D01*
X143097367Y-149252437D01*
X143235915Y-149294465D01*
X143380000Y-149308656D01*
X143416105Y-149305100D01*
X157313895Y-149305100D01*
X157350000Y-149308656D01*
X157386105Y-149305100D01*
X157494085Y-149294465D01*
X157632633Y-149252437D01*
X157760320Y-149184187D01*
X157872238Y-149092338D01*
X157964087Y-148980420D01*
X158032337Y-148852733D01*
X158074365Y-148714185D01*
X158088556Y-148570100D01*
X158085000Y-148533995D01*
X158085000Y-134635905D01*
X158088556Y-134599800D01*
X161691444Y-134599800D01*
X161695001Y-134635915D01*
X161695000Y-148533995D01*
X161691444Y-148570100D01*
X161705635Y-148714185D01*
X161747663Y-148852733D01*
X161815913Y-148980420D01*
X161907762Y-149092338D01*
X161959746Y-149135000D01*
X162019680Y-149184187D01*
X162147367Y-149252437D01*
X162285915Y-149294465D01*
X162430000Y-149308656D01*
X162466105Y-149305100D01*
X176363895Y-149305100D01*
X176400000Y-149308656D01*
X176436105Y-149305100D01*
X176544085Y-149294465D01*
X176682633Y-149252437D01*
X176810320Y-149184187D01*
X176922238Y-149092338D01*
X177014087Y-148980420D01*
X177082337Y-148852733D01*
X177124365Y-148714185D01*
X177138556Y-148570100D01*
X177135000Y-148533995D01*
X177135000Y-134635905D01*
X177138556Y-134599800D01*
X180741444Y-134599800D01*
X180745001Y-134635915D01*
X180745000Y-148533995D01*
X180741444Y-148570100D01*
X180755635Y-148714185D01*
X180797663Y-148852733D01*
X180865913Y-148980420D01*
X180957762Y-149092338D01*
X181009746Y-149135000D01*
X181069680Y-149184187D01*
X181197367Y-149252437D01*
X181335915Y-149294465D01*
X181480000Y-149308656D01*
X181516105Y-149305100D01*
X195413895Y-149305100D01*
X195450000Y-149308656D01*
X195486105Y-149305100D01*
X195594085Y-149294465D01*
X195732633Y-149252437D01*
X195860320Y-149184187D01*
X195972238Y-149092338D01*
X196064087Y-148980420D01*
X196132337Y-148852733D01*
X196174365Y-148714185D01*
X196188556Y-148570100D01*
X196185000Y-148533995D01*
X196185000Y-134635905D01*
X196188556Y-134599800D01*
X196187581Y-134589900D01*
X199776444Y-134589900D01*
X199780001Y-134626015D01*
X199780000Y-148524095D01*
X199776444Y-148560200D01*
X199790635Y-148704285D01*
X199832663Y-148842833D01*
X199900913Y-148970520D01*
X199992762Y-149082438D01*
X200056809Y-149135000D01*
X200104680Y-149174287D01*
X200232367Y-149242537D01*
X200370915Y-149284565D01*
X200515000Y-149298756D01*
X200551105Y-149295200D01*
X214448895Y-149295200D01*
X214485000Y-149298756D01*
X214521105Y-149295200D01*
X214629085Y-149284565D01*
X214767633Y-149242537D01*
X214895320Y-149174287D01*
X215007238Y-149082438D01*
X215099087Y-148970520D01*
X215167337Y-148842833D01*
X215209365Y-148704285D01*
X215223556Y-148560200D01*
X215220000Y-148524095D01*
X215220000Y-134626005D01*
X215222580Y-134599800D01*
X218841444Y-134599800D01*
X218845001Y-134635915D01*
X218845000Y-148533995D01*
X218841444Y-148570100D01*
X218855635Y-148714185D01*
X218897663Y-148852733D01*
X218965913Y-148980420D01*
X219057762Y-149092338D01*
X219109746Y-149135000D01*
X219169680Y-149184187D01*
X219297367Y-149252437D01*
X219435915Y-149294465D01*
X219580000Y-149308656D01*
X219616105Y-149305100D01*
X233513895Y-149305100D01*
X233550000Y-149308656D01*
X233586105Y-149305100D01*
X233694085Y-149294465D01*
X233832633Y-149252437D01*
X233960320Y-149184187D01*
X234072238Y-149092338D01*
X234164087Y-148980420D01*
X234232337Y-148852733D01*
X234274365Y-148714185D01*
X234288556Y-148570100D01*
X234285000Y-148533995D01*
X234285000Y-134635905D01*
X234288556Y-134599800D01*
X237891444Y-134599800D01*
X237895001Y-134635915D01*
X237895000Y-148533995D01*
X237891444Y-148570100D01*
X237905635Y-148714185D01*
X237947663Y-148852733D01*
X238015913Y-148980420D01*
X238107762Y-149092338D01*
X238159746Y-149135000D01*
X238219680Y-149184187D01*
X238347367Y-149252437D01*
X238485915Y-149294465D01*
X238630000Y-149308656D01*
X238666105Y-149305100D01*
X252563895Y-149305100D01*
X252600000Y-149308656D01*
X252636105Y-149305100D01*
X252744085Y-149294465D01*
X252882633Y-149252437D01*
X253010320Y-149184187D01*
X253122238Y-149092338D01*
X253214087Y-148980420D01*
X253282337Y-148852733D01*
X253324365Y-148714185D01*
X253338556Y-148570100D01*
X253335000Y-148533995D01*
X253335000Y-134635905D01*
X253338556Y-134599800D01*
X256941444Y-134599800D01*
X256945001Y-134635915D01*
X256945000Y-148533995D01*
X256941444Y-148570100D01*
X256955635Y-148714185D01*
X256997663Y-148852733D01*
X257065913Y-148980420D01*
X257157762Y-149092338D01*
X257209746Y-149135000D01*
X257269680Y-149184187D01*
X257397367Y-149252437D01*
X257535915Y-149294465D01*
X257680000Y-149308656D01*
X257716105Y-149305100D01*
X271613895Y-149305100D01*
X271650000Y-149308656D01*
X271686105Y-149305100D01*
X271794085Y-149294465D01*
X271932633Y-149252437D01*
X272060320Y-149184187D01*
X272172238Y-149092338D01*
X272264087Y-148980420D01*
X272332337Y-148852733D01*
X272374365Y-148714185D01*
X272388556Y-148570100D01*
X272385000Y-148533995D01*
X272385000Y-134635905D01*
X272388556Y-134599800D01*
X275991444Y-134599800D01*
X275995001Y-134635915D01*
X275995000Y-148533995D01*
X275991444Y-148570100D01*
X276005635Y-148714185D01*
X276047663Y-148852733D01*
X276115913Y-148980420D01*
X276207762Y-149092338D01*
X276259746Y-149135000D01*
X276319680Y-149184187D01*
X276447367Y-149252437D01*
X276585915Y-149294465D01*
X276730000Y-149308656D01*
X276766105Y-149305100D01*
X290663895Y-149305100D01*
X290700000Y-149308656D01*
X290736105Y-149305100D01*
X290844085Y-149294465D01*
X290982633Y-149252437D01*
X291110320Y-149184187D01*
X291222238Y-149092338D01*
X291314087Y-148980420D01*
X291382337Y-148852733D01*
X291424365Y-148714185D01*
X291438556Y-148570100D01*
X291435000Y-148533995D01*
X291435000Y-134635905D01*
X291438556Y-134599800D01*
X295041444Y-134599800D01*
X295045001Y-134635915D01*
X295045000Y-148533995D01*
X295041444Y-148570100D01*
X295055635Y-148714185D01*
X295097663Y-148852733D01*
X295165913Y-148980420D01*
X295257762Y-149092338D01*
X295309746Y-149135000D01*
X295369680Y-149184187D01*
X295497367Y-149252437D01*
X295635915Y-149294465D01*
X295780000Y-149308656D01*
X295816105Y-149305100D01*
X309713895Y-149305100D01*
X309750000Y-149308656D01*
X309786105Y-149305100D01*
X309894085Y-149294465D01*
X310032633Y-149252437D01*
X310160320Y-149184187D01*
X310272238Y-149092338D01*
X310364087Y-148980420D01*
X310432337Y-148852733D01*
X310474365Y-148714185D01*
X310488556Y-148570100D01*
X310485000Y-148533995D01*
X310485000Y-134635905D01*
X310488556Y-134599800D01*
X314091443Y-134599800D01*
X314095000Y-134635915D01*
X314094999Y-148533995D01*
X314091443Y-148570100D01*
X314105634Y-148714185D01*
X314147662Y-148852733D01*
X314215912Y-148980420D01*
X314307761Y-149092338D01*
X314359745Y-149135000D01*
X314419679Y-149184187D01*
X314547366Y-149252437D01*
X314685914Y-149294465D01*
X314829999Y-149308656D01*
X314866104Y-149305100D01*
X328763895Y-149305100D01*
X328800000Y-149308656D01*
X328836105Y-149305100D01*
X328944085Y-149294465D01*
X329082633Y-149252437D01*
X329210320Y-149184187D01*
X329322238Y-149092338D01*
X329414087Y-148980420D01*
X329482337Y-148852733D01*
X329524365Y-148714185D01*
X329538556Y-148570100D01*
X329535000Y-148533995D01*
X329535000Y-134635905D01*
X329538556Y-134599800D01*
X329524365Y-134455715D01*
X329482337Y-134317167D01*
X329414087Y-134189480D01*
X329322238Y-134077562D01*
X329210320Y-133985713D01*
X329082633Y-133917463D01*
X328944085Y-133875435D01*
X328836105Y-133864800D01*
X328800000Y-133861244D01*
X328763895Y-133864800D01*
X314866104Y-133864800D01*
X314829999Y-133861244D01*
X314793894Y-133864800D01*
X314685914Y-133875435D01*
X314547366Y-133917463D01*
X314419679Y-133985713D01*
X314307761Y-134077562D01*
X314215912Y-134189480D01*
X314147662Y-134317167D01*
X314105634Y-134455715D01*
X314091443Y-134599800D01*
X310488556Y-134599800D01*
X310474365Y-134455715D01*
X310432337Y-134317167D01*
X310364087Y-134189480D01*
X310272238Y-134077562D01*
X310160320Y-133985713D01*
X310032633Y-133917463D01*
X309894085Y-133875435D01*
X309786105Y-133864800D01*
X309750000Y-133861244D01*
X309713895Y-133864800D01*
X295816105Y-133864800D01*
X295780000Y-133861244D01*
X295743895Y-133864800D01*
X295635915Y-133875435D01*
X295497367Y-133917463D01*
X295369680Y-133985713D01*
X295257762Y-134077562D01*
X295165913Y-134189480D01*
X295097663Y-134317167D01*
X295055635Y-134455715D01*
X295041444Y-134599800D01*
X291438556Y-134599800D01*
X291424365Y-134455715D01*
X291382337Y-134317167D01*
X291314087Y-134189480D01*
X291222238Y-134077562D01*
X291110320Y-133985713D01*
X290982633Y-133917463D01*
X290844085Y-133875435D01*
X290736105Y-133864800D01*
X290700000Y-133861244D01*
X290663895Y-133864800D01*
X276766105Y-133864800D01*
X276730000Y-133861244D01*
X276693895Y-133864800D01*
X276585915Y-133875435D01*
X276447367Y-133917463D01*
X276319680Y-133985713D01*
X276207762Y-134077562D01*
X276115913Y-134189480D01*
X276047663Y-134317167D01*
X276005635Y-134455715D01*
X275991444Y-134599800D01*
X272388556Y-134599800D01*
X272374365Y-134455715D01*
X272332337Y-134317167D01*
X272264087Y-134189480D01*
X272172238Y-134077562D01*
X272060320Y-133985713D01*
X271932633Y-133917463D01*
X271794085Y-133875435D01*
X271686105Y-133864800D01*
X271650000Y-133861244D01*
X271613895Y-133864800D01*
X257716105Y-133864800D01*
X257680000Y-133861244D01*
X257643895Y-133864800D01*
X257535915Y-133875435D01*
X257397367Y-133917463D01*
X257269680Y-133985713D01*
X257157762Y-134077562D01*
X257065913Y-134189480D01*
X256997663Y-134317167D01*
X256955635Y-134455715D01*
X256941444Y-134599800D01*
X253338556Y-134599800D01*
X253324365Y-134455715D01*
X253282337Y-134317167D01*
X253214087Y-134189480D01*
X253122238Y-134077562D01*
X253010320Y-133985713D01*
X252882633Y-133917463D01*
X252744085Y-133875435D01*
X252636105Y-133864800D01*
X252600000Y-133861244D01*
X252563895Y-133864800D01*
X238666105Y-133864800D01*
X238630000Y-133861244D01*
X238593895Y-133864800D01*
X238485915Y-133875435D01*
X238347367Y-133917463D01*
X238219680Y-133985713D01*
X238107762Y-134077562D01*
X238015913Y-134189480D01*
X237947663Y-134317167D01*
X237905635Y-134455715D01*
X237891444Y-134599800D01*
X234288556Y-134599800D01*
X234274365Y-134455715D01*
X234232337Y-134317167D01*
X234164087Y-134189480D01*
X234072238Y-134077562D01*
X233960320Y-133985713D01*
X233832633Y-133917463D01*
X233694085Y-133875435D01*
X233586105Y-133864800D01*
X233550000Y-133861244D01*
X233513895Y-133864800D01*
X219616105Y-133864800D01*
X219580000Y-133861244D01*
X219543895Y-133864800D01*
X219435915Y-133875435D01*
X219297367Y-133917463D01*
X219169680Y-133985713D01*
X219057762Y-134077562D01*
X218965913Y-134189480D01*
X218897663Y-134317167D01*
X218855635Y-134455715D01*
X218841444Y-134599800D01*
X215222580Y-134599800D01*
X215223556Y-134589900D01*
X215209365Y-134445815D01*
X215167337Y-134307267D01*
X215099087Y-134179580D01*
X215007238Y-134067662D01*
X214895320Y-133975813D01*
X214767633Y-133907563D01*
X214629085Y-133865535D01*
X214521105Y-133854900D01*
X214485000Y-133851344D01*
X214448895Y-133854900D01*
X200551105Y-133854900D01*
X200515000Y-133851344D01*
X200478895Y-133854900D01*
X200370915Y-133865535D01*
X200232367Y-133907563D01*
X200104680Y-133975813D01*
X199992762Y-134067662D01*
X199900913Y-134179580D01*
X199832663Y-134307267D01*
X199790635Y-134445815D01*
X199776444Y-134589900D01*
X196187581Y-134589900D01*
X196174365Y-134455715D01*
X196132337Y-134317167D01*
X196064087Y-134189480D01*
X195972238Y-134077562D01*
X195860320Y-133985713D01*
X195732633Y-133917463D01*
X195594085Y-133875435D01*
X195486105Y-133864800D01*
X195450000Y-133861244D01*
X195413895Y-133864800D01*
X181516105Y-133864800D01*
X181480000Y-133861244D01*
X181443895Y-133864800D01*
X181335915Y-133875435D01*
X181197367Y-133917463D01*
X181069680Y-133985713D01*
X180957762Y-134077562D01*
X180865913Y-134189480D01*
X180797663Y-134317167D01*
X180755635Y-134455715D01*
X180741444Y-134599800D01*
X177138556Y-134599800D01*
X177124365Y-134455715D01*
X177082337Y-134317167D01*
X177014087Y-134189480D01*
X176922238Y-134077562D01*
X176810320Y-133985713D01*
X176682633Y-133917463D01*
X176544085Y-133875435D01*
X176436105Y-133864800D01*
X176400000Y-133861244D01*
X176363895Y-133864800D01*
X162466105Y-133864800D01*
X162430000Y-133861244D01*
X162393895Y-133864800D01*
X162285915Y-133875435D01*
X162147367Y-133917463D01*
X162019680Y-133985713D01*
X161907762Y-134077562D01*
X161815913Y-134189480D01*
X161747663Y-134317167D01*
X161705635Y-134455715D01*
X161691444Y-134599800D01*
X158088556Y-134599800D01*
X158074365Y-134455715D01*
X158032337Y-134317167D01*
X157964087Y-134189480D01*
X157872238Y-134077562D01*
X157760320Y-133985713D01*
X157632633Y-133917463D01*
X157494085Y-133875435D01*
X157386105Y-133864800D01*
X157350000Y-133861244D01*
X157313895Y-133864800D01*
X143416105Y-133864800D01*
X143380000Y-133861244D01*
X143343895Y-133864800D01*
X143235915Y-133875435D01*
X143097367Y-133917463D01*
X142969680Y-133985713D01*
X142857762Y-134077562D01*
X142765913Y-134189480D01*
X142697663Y-134317167D01*
X142655635Y-134455715D01*
X142641444Y-134599800D01*
X139038556Y-134599800D01*
X139024365Y-134455715D01*
X138982337Y-134317167D01*
X138914087Y-134189480D01*
X138822238Y-134077562D01*
X138710320Y-133985713D01*
X138582633Y-133917463D01*
X138444085Y-133875435D01*
X138336105Y-133864800D01*
X138300000Y-133861244D01*
X138263895Y-133864800D01*
X124366105Y-133864800D01*
X124330000Y-133861244D01*
X124293895Y-133864800D01*
X124185915Y-133875435D01*
X124047367Y-133917463D01*
X123919680Y-133985713D01*
X123807762Y-134077562D01*
X123715913Y-134189480D01*
X123647663Y-134317167D01*
X123605635Y-134455715D01*
X123591444Y-134599800D01*
X119988556Y-134599800D01*
X119974365Y-134455715D01*
X119932337Y-134317167D01*
X119864087Y-134189480D01*
X119772238Y-134077562D01*
X119660320Y-133985713D01*
X119532633Y-133917463D01*
X119394085Y-133875435D01*
X119286105Y-133864800D01*
X119250000Y-133861244D01*
X119213895Y-133864800D01*
X105316105Y-133864800D01*
X105280000Y-133861244D01*
X105243895Y-133864800D01*
X105135915Y-133875435D01*
X104997367Y-133917463D01*
X104869680Y-133985713D01*
X104757762Y-134077562D01*
X104665913Y-134189480D01*
X104597663Y-134317167D01*
X104555635Y-134455715D01*
X104541444Y-134599800D01*
X100938556Y-134599800D01*
X100924365Y-134455715D01*
X100882337Y-134317167D01*
X100814087Y-134189480D01*
X100722238Y-134077562D01*
X100610320Y-133985713D01*
X100482633Y-133917463D01*
X100344085Y-133875435D01*
X100236105Y-133864800D01*
X100200000Y-133861244D01*
X100163895Y-133864800D01*
X86266105Y-133864800D01*
X86230000Y-133861244D01*
X86193895Y-133864800D01*
X86085915Y-133875435D01*
X85947367Y-133917463D01*
X85819680Y-133985713D01*
X85707762Y-134077562D01*
X85615913Y-134189480D01*
X85547663Y-134317167D01*
X85505635Y-134455715D01*
X85491444Y-134599800D01*
X81888556Y-134599800D01*
X81874365Y-134455715D01*
X81832337Y-134317167D01*
X81764087Y-134189480D01*
X81672238Y-134077562D01*
X81560320Y-133985713D01*
X81432633Y-133917463D01*
X81294085Y-133875435D01*
X81186105Y-133864800D01*
X81150000Y-133861244D01*
X81113895Y-133864800D01*
X67216105Y-133864800D01*
X67180000Y-133861244D01*
X67143895Y-133864800D01*
X67035915Y-133875435D01*
X66897367Y-133917463D01*
X66769680Y-133985713D01*
X66657762Y-134077562D01*
X66565913Y-134189480D01*
X66497663Y-134317167D01*
X66455635Y-134455715D01*
X66441444Y-134599800D01*
X66445001Y-134635915D01*
X66445000Y-147665000D01*
X65735000Y-147665000D01*
X65735000Y-132067286D01*
X82885000Y-132067286D01*
X82885000Y-132251464D01*
X82920932Y-132432104D01*
X82991414Y-132602264D01*
X83093738Y-132755403D01*
X83223972Y-132885637D01*
X83377111Y-132987961D01*
X83547271Y-133058443D01*
X83727911Y-133094375D01*
X83912089Y-133094375D01*
X84092729Y-133058443D01*
X84262889Y-132987961D01*
X84416028Y-132885637D01*
X84546262Y-132755403D01*
X84648586Y-132602264D01*
X84719068Y-132432104D01*
X84755000Y-132251464D01*
X84755000Y-132067286D01*
X84719068Y-131886646D01*
X84648586Y-131716486D01*
X84546262Y-131563347D01*
X84416028Y-131433113D01*
X84262889Y-131330789D01*
X84092729Y-131260307D01*
X83912089Y-131224375D01*
X83727911Y-131224375D01*
X83547271Y-131260307D01*
X83377111Y-131330789D01*
X83223972Y-131433113D01*
X83093738Y-131563347D01*
X82991414Y-131716486D01*
X82920932Y-131886646D01*
X82885000Y-132067286D01*
X65735000Y-132067286D01*
X65735000Y-115549900D01*
X66441444Y-115549900D01*
X66445001Y-115586015D01*
X66445000Y-129483695D01*
X66441444Y-129519800D01*
X66455635Y-129663885D01*
X66497663Y-129802433D01*
X66565913Y-129930120D01*
X66657762Y-130042038D01*
X66769680Y-130133887D01*
X66897367Y-130202137D01*
X67035915Y-130244165D01*
X67180000Y-130258356D01*
X67216105Y-130254800D01*
X81113895Y-130254800D01*
X81150000Y-130258356D01*
X81186105Y-130254800D01*
X81294085Y-130244165D01*
X81432633Y-130202137D01*
X81560320Y-130133887D01*
X81672238Y-130042038D01*
X81764087Y-129930120D01*
X81832337Y-129802433D01*
X81874365Y-129663885D01*
X81888556Y-129519800D01*
X81885000Y-129483695D01*
X81885000Y-115586005D01*
X81888556Y-115549900D01*
X85491444Y-115549900D01*
X85495001Y-115586015D01*
X85495000Y-129483695D01*
X85491444Y-129519800D01*
X85505635Y-129663885D01*
X85547663Y-129802433D01*
X85615913Y-129930120D01*
X85707762Y-130042038D01*
X85819680Y-130133887D01*
X85947367Y-130202137D01*
X86085915Y-130244165D01*
X86230000Y-130258356D01*
X86266105Y-130254800D01*
X100163895Y-130254800D01*
X100200000Y-130258356D01*
X100236105Y-130254800D01*
X100344085Y-130244165D01*
X100482633Y-130202137D01*
X100610320Y-130133887D01*
X100722238Y-130042038D01*
X100814087Y-129930120D01*
X100882337Y-129802433D01*
X100924365Y-129663885D01*
X100938556Y-129519800D01*
X100935000Y-129483695D01*
X100935000Y-115586005D01*
X100938556Y-115549900D01*
X104541444Y-115549900D01*
X104545001Y-115586015D01*
X104545000Y-129483695D01*
X104541444Y-129519800D01*
X104555635Y-129663885D01*
X104597663Y-129802433D01*
X104665913Y-129930120D01*
X104757762Y-130042038D01*
X104869680Y-130133887D01*
X104997367Y-130202137D01*
X105135915Y-130244165D01*
X105280000Y-130258356D01*
X105316105Y-130254800D01*
X119213895Y-130254800D01*
X119250000Y-130258356D01*
X119286105Y-130254800D01*
X119394085Y-130244165D01*
X119532633Y-130202137D01*
X119660320Y-130133887D01*
X119772238Y-130042038D01*
X119864087Y-129930120D01*
X119932337Y-129802433D01*
X119974365Y-129663885D01*
X119988556Y-129519800D01*
X119985000Y-129483695D01*
X119985000Y-115586005D01*
X119988556Y-115549900D01*
X123591444Y-115549900D01*
X123595001Y-115586015D01*
X123595000Y-129483695D01*
X123591444Y-129519800D01*
X123605635Y-129663885D01*
X123647663Y-129802433D01*
X123715913Y-129930120D01*
X123807762Y-130042038D01*
X123919680Y-130133887D01*
X124047367Y-130202137D01*
X124185915Y-130244165D01*
X124330000Y-130258356D01*
X124366105Y-130254800D01*
X138263895Y-130254800D01*
X138300000Y-130258356D01*
X138336105Y-130254800D01*
X138444085Y-130244165D01*
X138582633Y-130202137D01*
X138710320Y-130133887D01*
X138822238Y-130042038D01*
X138914087Y-129930120D01*
X138982337Y-129802433D01*
X139024365Y-129663885D01*
X139038556Y-129519800D01*
X139035000Y-129483695D01*
X139035000Y-115586005D01*
X139038556Y-115549900D01*
X142641444Y-115549900D01*
X142645001Y-115586015D01*
X142645000Y-129483695D01*
X142641444Y-129519800D01*
X142655635Y-129663885D01*
X142697663Y-129802433D01*
X142765913Y-129930120D01*
X142857762Y-130042038D01*
X142969680Y-130133887D01*
X143097367Y-130202137D01*
X143235915Y-130244165D01*
X143380000Y-130258356D01*
X143416105Y-130254800D01*
X157313895Y-130254800D01*
X157350000Y-130258356D01*
X157386105Y-130254800D01*
X157494085Y-130244165D01*
X157632633Y-130202137D01*
X157760320Y-130133887D01*
X157872238Y-130042038D01*
X157964087Y-129930120D01*
X158032337Y-129802433D01*
X158074365Y-129663885D01*
X158088556Y-129519800D01*
X158085000Y-129483695D01*
X158085000Y-115586005D01*
X158088556Y-115549900D01*
X161691444Y-115549900D01*
X161695001Y-115586015D01*
X161695000Y-129483695D01*
X161691444Y-129519800D01*
X161705635Y-129663885D01*
X161747663Y-129802433D01*
X161815913Y-129930120D01*
X161907762Y-130042038D01*
X162019680Y-130133887D01*
X162147367Y-130202137D01*
X162285915Y-130244165D01*
X162430000Y-130258356D01*
X162466105Y-130254800D01*
X176363895Y-130254800D01*
X176400000Y-130258356D01*
X176436105Y-130254800D01*
X176544085Y-130244165D01*
X176682633Y-130202137D01*
X176810320Y-130133887D01*
X176922238Y-130042038D01*
X177014087Y-129930120D01*
X177082337Y-129802433D01*
X177124365Y-129663885D01*
X177138556Y-129519800D01*
X177135000Y-129483695D01*
X177135000Y-115586005D01*
X177138556Y-115549900D01*
X180741444Y-115549900D01*
X180745001Y-115586015D01*
X180745000Y-129483695D01*
X180741444Y-129519800D01*
X180755635Y-129663885D01*
X180797663Y-129802433D01*
X180865913Y-129930120D01*
X180957762Y-130042038D01*
X181069680Y-130133887D01*
X181197367Y-130202137D01*
X181335915Y-130244165D01*
X181480000Y-130258356D01*
X181516105Y-130254800D01*
X195413895Y-130254800D01*
X195450000Y-130258356D01*
X195486105Y-130254800D01*
X195594085Y-130244165D01*
X195732633Y-130202137D01*
X195860320Y-130133887D01*
X195972238Y-130042038D01*
X196064087Y-129930120D01*
X196132337Y-129802433D01*
X196174365Y-129663885D01*
X196188556Y-129519800D01*
X196185000Y-129483695D01*
X196185000Y-115586005D01*
X196188556Y-115549900D01*
X199776444Y-115549900D01*
X199780001Y-115586015D01*
X199780000Y-129483695D01*
X199776444Y-129519800D01*
X199790635Y-129663885D01*
X199832663Y-129802433D01*
X199900913Y-129930120D01*
X199992762Y-130042038D01*
X200104680Y-130133887D01*
X200232367Y-130202137D01*
X200370915Y-130244165D01*
X200515000Y-130258356D01*
X200551105Y-130254800D01*
X214448895Y-130254800D01*
X214485000Y-130258356D01*
X214521105Y-130254800D01*
X214629085Y-130244165D01*
X214767633Y-130202137D01*
X214895320Y-130133887D01*
X215007238Y-130042038D01*
X215099087Y-129930120D01*
X215167337Y-129802433D01*
X215209365Y-129663885D01*
X215223556Y-129519800D01*
X215220000Y-129483695D01*
X215220000Y-115586005D01*
X215223556Y-115549900D01*
X218841444Y-115549900D01*
X218845001Y-115586015D01*
X218845000Y-129483695D01*
X218841444Y-129519800D01*
X218855635Y-129663885D01*
X218897663Y-129802433D01*
X218965913Y-129930120D01*
X219057762Y-130042038D01*
X219169680Y-130133887D01*
X219297367Y-130202137D01*
X219435915Y-130244165D01*
X219580000Y-130258356D01*
X219616105Y-130254800D01*
X233513895Y-130254800D01*
X233550000Y-130258356D01*
X233586105Y-130254800D01*
X233694085Y-130244165D01*
X233832633Y-130202137D01*
X233960320Y-130133887D01*
X234072238Y-130042038D01*
X234164087Y-129930120D01*
X234232337Y-129802433D01*
X234274365Y-129663885D01*
X234288556Y-129519800D01*
X234285000Y-129483695D01*
X234285000Y-115586005D01*
X234288556Y-115549900D01*
X237891444Y-115549900D01*
X237895001Y-115586015D01*
X237895000Y-129483695D01*
X237891444Y-129519800D01*
X237905635Y-129663885D01*
X237947663Y-129802433D01*
X238015913Y-129930120D01*
X238107762Y-130042038D01*
X238219680Y-130133887D01*
X238347367Y-130202137D01*
X238485915Y-130244165D01*
X238630000Y-130258356D01*
X238666105Y-130254800D01*
X252563895Y-130254800D01*
X252600000Y-130258356D01*
X252636105Y-130254800D01*
X252744085Y-130244165D01*
X252882633Y-130202137D01*
X253010320Y-130133887D01*
X253122238Y-130042038D01*
X253214087Y-129930120D01*
X253282337Y-129802433D01*
X253324365Y-129663885D01*
X253338556Y-129519800D01*
X253335000Y-129483695D01*
X253335000Y-115586005D01*
X253338556Y-115549900D01*
X256941444Y-115549900D01*
X256945001Y-115586015D01*
X256945000Y-129483695D01*
X256941444Y-129519800D01*
X256955635Y-129663885D01*
X256997663Y-129802433D01*
X257065913Y-129930120D01*
X257157762Y-130042038D01*
X257269680Y-130133887D01*
X257397367Y-130202137D01*
X257535915Y-130244165D01*
X257680000Y-130258356D01*
X257716105Y-130254800D01*
X271613895Y-130254800D01*
X271650000Y-130258356D01*
X271686105Y-130254800D01*
X271794085Y-130244165D01*
X271932633Y-130202137D01*
X272060320Y-130133887D01*
X272172238Y-130042038D01*
X272264087Y-129930120D01*
X272332337Y-129802433D01*
X272374365Y-129663885D01*
X272388556Y-129519800D01*
X272385000Y-129483695D01*
X272385000Y-115586005D01*
X272388556Y-115549900D01*
X275991444Y-115549900D01*
X275995001Y-115586015D01*
X275995000Y-129483695D01*
X275991444Y-129519800D01*
X276005635Y-129663885D01*
X276047663Y-129802433D01*
X276115913Y-129930120D01*
X276207762Y-130042038D01*
X276319680Y-130133887D01*
X276447367Y-130202137D01*
X276585915Y-130244165D01*
X276730000Y-130258356D01*
X276766105Y-130254800D01*
X290663895Y-130254800D01*
X290700000Y-130258356D01*
X290736105Y-130254800D01*
X290844085Y-130244165D01*
X290982633Y-130202137D01*
X291110320Y-130133887D01*
X291222238Y-130042038D01*
X291314087Y-129930120D01*
X291382337Y-129802433D01*
X291424365Y-129663885D01*
X291438556Y-129519800D01*
X291435000Y-129483695D01*
X291435000Y-115586005D01*
X291438556Y-115549900D01*
X295041444Y-115549900D01*
X295045001Y-115586015D01*
X295045000Y-129483695D01*
X295041444Y-129519800D01*
X295055635Y-129663885D01*
X295097663Y-129802433D01*
X295165913Y-129930120D01*
X295257762Y-130042038D01*
X295369680Y-130133887D01*
X295497367Y-130202137D01*
X295635915Y-130244165D01*
X295780000Y-130258356D01*
X295816105Y-130254800D01*
X309713895Y-130254800D01*
X309750000Y-130258356D01*
X309786105Y-130254800D01*
X309894085Y-130244165D01*
X310032633Y-130202137D01*
X310160320Y-130133887D01*
X310272238Y-130042038D01*
X310364087Y-129930120D01*
X310432337Y-129802433D01*
X310474365Y-129663885D01*
X310488556Y-129519800D01*
X310485000Y-129483695D01*
X310485000Y-115586005D01*
X310488556Y-115549900D01*
X314091443Y-115549900D01*
X314095000Y-115586015D01*
X314094999Y-129483695D01*
X314091443Y-129519800D01*
X314105634Y-129663885D01*
X314147662Y-129802433D01*
X314215912Y-129930120D01*
X314307761Y-130042038D01*
X314419679Y-130133887D01*
X314547366Y-130202137D01*
X314685914Y-130244165D01*
X314829999Y-130258356D01*
X314866104Y-130254800D01*
X328763895Y-130254800D01*
X328800000Y-130258356D01*
X328836105Y-130254800D01*
X328944085Y-130244165D01*
X329082633Y-130202137D01*
X329210320Y-130133887D01*
X329322238Y-130042038D01*
X329414087Y-129930120D01*
X329482337Y-129802433D01*
X329524365Y-129663885D01*
X329538556Y-129519800D01*
X329535000Y-129483695D01*
X329535000Y-115586005D01*
X329538556Y-115549900D01*
X333141444Y-115549900D01*
X333145001Y-115586015D01*
X333145000Y-129483695D01*
X333141444Y-129519800D01*
X333155635Y-129663885D01*
X333197663Y-129802433D01*
X333265913Y-129930120D01*
X333357762Y-130042038D01*
X333469680Y-130133887D01*
X333597367Y-130202137D01*
X333735915Y-130244165D01*
X333880000Y-130258356D01*
X333916105Y-130254800D01*
X347813895Y-130254800D01*
X347850000Y-130258356D01*
X347886105Y-130254800D01*
X347994085Y-130244165D01*
X348132633Y-130202137D01*
X348260320Y-130133887D01*
X348372238Y-130042038D01*
X348464087Y-129930120D01*
X348532337Y-129802433D01*
X348574365Y-129663885D01*
X348588556Y-129519800D01*
X348585000Y-129483695D01*
X348585000Y-115586005D01*
X348588556Y-115549900D01*
X348574365Y-115405815D01*
X348532337Y-115267267D01*
X348464087Y-115139580D01*
X348372238Y-115027662D01*
X348260320Y-114935813D01*
X348132633Y-114867563D01*
X347994085Y-114825535D01*
X347886105Y-114814900D01*
X347850000Y-114811344D01*
X347813895Y-114814900D01*
X333916105Y-114814900D01*
X333880000Y-114811344D01*
X333843895Y-114814900D01*
X333735915Y-114825535D01*
X333597367Y-114867563D01*
X333469680Y-114935813D01*
X333357762Y-115027662D01*
X333265913Y-115139580D01*
X333197663Y-115267267D01*
X333155635Y-115405815D01*
X333141444Y-115549900D01*
X329538556Y-115549900D01*
X329524365Y-115405815D01*
X329482337Y-115267267D01*
X329414087Y-115139580D01*
X329322238Y-115027662D01*
X329210320Y-114935813D01*
X329082633Y-114867563D01*
X328944085Y-114825535D01*
X328836105Y-114814900D01*
X328800000Y-114811344D01*
X328763895Y-114814900D01*
X314866104Y-114814900D01*
X314829999Y-114811344D01*
X314793894Y-114814900D01*
X314685914Y-114825535D01*
X314547366Y-114867563D01*
X314419679Y-114935813D01*
X314307761Y-115027662D01*
X314215912Y-115139580D01*
X314147662Y-115267267D01*
X314105634Y-115405815D01*
X314091443Y-115549900D01*
X310488556Y-115549900D01*
X310474365Y-115405815D01*
X310432337Y-115267267D01*
X310364087Y-115139580D01*
X310272238Y-115027662D01*
X310160320Y-114935813D01*
X310032633Y-114867563D01*
X309894085Y-114825535D01*
X309786105Y-114814900D01*
X309750000Y-114811344D01*
X309713895Y-114814900D01*
X295816105Y-114814900D01*
X295780000Y-114811344D01*
X295743895Y-114814900D01*
X295635915Y-114825535D01*
X295497367Y-114867563D01*
X295369680Y-114935813D01*
X295257762Y-115027662D01*
X295165913Y-115139580D01*
X295097663Y-115267267D01*
X295055635Y-115405815D01*
X295041444Y-115549900D01*
X291438556Y-115549900D01*
X291424365Y-115405815D01*
X291382337Y-115267267D01*
X291314087Y-115139580D01*
X291222238Y-115027662D01*
X291110320Y-114935813D01*
X290982633Y-114867563D01*
X290844085Y-114825535D01*
X290736105Y-114814900D01*
X290700000Y-114811344D01*
X290663895Y-114814900D01*
X276766105Y-114814900D01*
X276730000Y-114811344D01*
X276693895Y-114814900D01*
X276585915Y-114825535D01*
X276447367Y-114867563D01*
X276319680Y-114935813D01*
X276207762Y-115027662D01*
X276115913Y-115139580D01*
X276047663Y-115267267D01*
X276005635Y-115405815D01*
X275991444Y-115549900D01*
X272388556Y-115549900D01*
X272374365Y-115405815D01*
X272332337Y-115267267D01*
X272264087Y-115139580D01*
X272172238Y-115027662D01*
X272060320Y-114935813D01*
X271932633Y-114867563D01*
X271794085Y-114825535D01*
X271686105Y-114814900D01*
X271650000Y-114811344D01*
X271613895Y-114814900D01*
X257716105Y-114814900D01*
X257680000Y-114811344D01*
X257643895Y-114814900D01*
X257535915Y-114825535D01*
X257397367Y-114867563D01*
X257269680Y-114935813D01*
X257157762Y-115027662D01*
X257065913Y-115139580D01*
X256997663Y-115267267D01*
X256955635Y-115405815D01*
X256941444Y-115549900D01*
X253338556Y-115549900D01*
X253324365Y-115405815D01*
X253282337Y-115267267D01*
X253214087Y-115139580D01*
X253122238Y-115027662D01*
X253010320Y-114935813D01*
X252882633Y-114867563D01*
X252744085Y-114825535D01*
X252636105Y-114814900D01*
X252600000Y-114811344D01*
X252563895Y-114814900D01*
X238666105Y-114814900D01*
X238630000Y-114811344D01*
X238593895Y-114814900D01*
X238485915Y-114825535D01*
X238347367Y-114867563D01*
X238219680Y-114935813D01*
X238107762Y-115027662D01*
X238015913Y-115139580D01*
X237947663Y-115267267D01*
X237905635Y-115405815D01*
X237891444Y-115549900D01*
X234288556Y-115549900D01*
X234274365Y-115405815D01*
X234232337Y-115267267D01*
X234164087Y-115139580D01*
X234072238Y-115027662D01*
X233960320Y-114935813D01*
X233832633Y-114867563D01*
X233694085Y-114825535D01*
X233586105Y-114814900D01*
X233550000Y-114811344D01*
X233513895Y-114814900D01*
X219616105Y-114814900D01*
X219580000Y-114811344D01*
X219543895Y-114814900D01*
X219435915Y-114825535D01*
X219297367Y-114867563D01*
X219169680Y-114935813D01*
X219057762Y-115027662D01*
X218965913Y-115139580D01*
X218897663Y-115267267D01*
X218855635Y-115405815D01*
X218841444Y-115549900D01*
X215223556Y-115549900D01*
X215209365Y-115405815D01*
X215167337Y-115267267D01*
X215099087Y-115139580D01*
X215007238Y-115027662D01*
X214895320Y-114935813D01*
X214767633Y-114867563D01*
X214629085Y-114825535D01*
X214521105Y-114814900D01*
X214485000Y-114811344D01*
X214448895Y-114814900D01*
X200551105Y-114814900D01*
X200515000Y-114811344D01*
X200478895Y-114814900D01*
X200370915Y-114825535D01*
X200232367Y-114867563D01*
X200104680Y-114935813D01*
X199992762Y-115027662D01*
X199900913Y-115139580D01*
X199832663Y-115267267D01*
X199790635Y-115405815D01*
X199776444Y-115549900D01*
X196188556Y-115549900D01*
X196174365Y-115405815D01*
X196132337Y-115267267D01*
X196064087Y-115139580D01*
X195972238Y-115027662D01*
X195860320Y-114935813D01*
X195732633Y-114867563D01*
X195594085Y-114825535D01*
X195486105Y-114814900D01*
X195450000Y-114811344D01*
X195413895Y-114814900D01*
X181516105Y-114814900D01*
X181480000Y-114811344D01*
X181443895Y-114814900D01*
X181335915Y-114825535D01*
X181197367Y-114867563D01*
X181069680Y-114935813D01*
X180957762Y-115027662D01*
X180865913Y-115139580D01*
X180797663Y-115267267D01*
X180755635Y-115405815D01*
X180741444Y-115549900D01*
X177138556Y-115549900D01*
X177124365Y-115405815D01*
X177082337Y-115267267D01*
X177014087Y-115139580D01*
X176922238Y-115027662D01*
X176810320Y-114935813D01*
X176682633Y-114867563D01*
X176544085Y-114825535D01*
X176436105Y-114814900D01*
X176400000Y-114811344D01*
X176363895Y-114814900D01*
X162466105Y-114814900D01*
X162430000Y-114811344D01*
X162393895Y-114814900D01*
X162285915Y-114825535D01*
X162147367Y-114867563D01*
X162019680Y-114935813D01*
X161907762Y-115027662D01*
X161815913Y-115139580D01*
X161747663Y-115267267D01*
X161705635Y-115405815D01*
X161691444Y-115549900D01*
X158088556Y-115549900D01*
X158074365Y-115405815D01*
X158032337Y-115267267D01*
X157964087Y-115139580D01*
X157872238Y-115027662D01*
X157760320Y-114935813D01*
X157632633Y-114867563D01*
X157494085Y-114825535D01*
X157386105Y-114814900D01*
X157350000Y-114811344D01*
X157313895Y-114814900D01*
X143416105Y-114814900D01*
X143380000Y-114811344D01*
X143343895Y-114814900D01*
X143235915Y-114825535D01*
X143097367Y-114867563D01*
X142969680Y-114935813D01*
X142857762Y-115027662D01*
X142765913Y-115139580D01*
X142697663Y-115267267D01*
X142655635Y-115405815D01*
X142641444Y-115549900D01*
X139038556Y-115549900D01*
X139024365Y-115405815D01*
X138982337Y-115267267D01*
X138914087Y-115139580D01*
X138822238Y-115027662D01*
X138710320Y-114935813D01*
X138582633Y-114867563D01*
X138444085Y-114825535D01*
X138336105Y-114814900D01*
X138300000Y-114811344D01*
X138263895Y-114814900D01*
X124366105Y-114814900D01*
X124330000Y-114811344D01*
X124293895Y-114814900D01*
X124185915Y-114825535D01*
X124047367Y-114867563D01*
X123919680Y-114935813D01*
X123807762Y-115027662D01*
X123715913Y-115139580D01*
X123647663Y-115267267D01*
X123605635Y-115405815D01*
X123591444Y-115549900D01*
X119988556Y-115549900D01*
X119974365Y-115405815D01*
X119932337Y-115267267D01*
X119864087Y-115139580D01*
X119772238Y-115027662D01*
X119660320Y-114935813D01*
X119532633Y-114867563D01*
X119394085Y-114825535D01*
X119286105Y-114814900D01*
X119250000Y-114811344D01*
X119213895Y-114814900D01*
X105316105Y-114814900D01*
X105280000Y-114811344D01*
X105243895Y-114814900D01*
X105135915Y-114825535D01*
X104997367Y-114867563D01*
X104869680Y-114935813D01*
X104757762Y-115027662D01*
X104665913Y-115139580D01*
X104597663Y-115267267D01*
X104555635Y-115405815D01*
X104541444Y-115549900D01*
X100938556Y-115549900D01*
X100924365Y-115405815D01*
X100882337Y-115267267D01*
X100814087Y-115139580D01*
X100722238Y-115027662D01*
X100610320Y-114935813D01*
X100482633Y-114867563D01*
X100344085Y-114825535D01*
X100236105Y-114814900D01*
X100200000Y-114811344D01*
X100163895Y-114814900D01*
X86266105Y-114814900D01*
X86230000Y-114811344D01*
X86193895Y-114814900D01*
X86085915Y-114825535D01*
X85947367Y-114867563D01*
X85819680Y-114935813D01*
X85707762Y-115027662D01*
X85615913Y-115139580D01*
X85547663Y-115267267D01*
X85505635Y-115405815D01*
X85491444Y-115549900D01*
X81888556Y-115549900D01*
X81874365Y-115405815D01*
X81832337Y-115267267D01*
X81764087Y-115139580D01*
X81672238Y-115027662D01*
X81560320Y-114935813D01*
X81432633Y-114867563D01*
X81294085Y-114825535D01*
X81186105Y-114814900D01*
X81150000Y-114811344D01*
X81113895Y-114814900D01*
X67216105Y-114814900D01*
X67180000Y-114811344D01*
X67143895Y-114814900D01*
X67035915Y-114825535D01*
X66897367Y-114867563D01*
X66769680Y-114935813D01*
X66657762Y-115027662D01*
X66565913Y-115139580D01*
X66497663Y-115267267D01*
X66455635Y-115405815D01*
X66441444Y-115549900D01*
X65735000Y-115549900D01*
X65735000Y-113735000D01*
X349265000Y-113735000D01*
X349265001Y-147665000D01*
G37*
G04 #@! TD.AperFunction*
M02*
