G04 #@! TF.GenerationSoftware,KiCad,Pcbnew,(5.1.10-1-10_14)*
G04 #@! TF.CreationDate,2021-09-01T20:03:42+02:00*
G04 #@! TF.ProjectId,plate,706c6174-652e-46b6-9963-61645f706362,1*
G04 #@! TF.SameCoordinates,Original*
G04 #@! TF.FileFunction,Copper,L1,Top*
G04 #@! TF.FilePolarity,Positive*
%FSLAX46Y46*%
G04 Gerber Fmt 4.6, Leading zero omitted, Abs format (unit mm)*
G04 Created by KiCad (PCBNEW (5.1.10-1-10_14)) date 2021-09-01 20:03:42*
%MOMM*%
%LPD*%
G01*
G04 APERTURE LIST*
G04 #@! TA.AperFunction,ViaPad*
%ADD10C,0.600000*%
G04 #@! TD*
G04 #@! TA.AperFunction,NonConductor*
%ADD11C,0.254000*%
G04 #@! TD*
G04 #@! TA.AperFunction,NonConductor*
%ADD12C,0.100000*%
G04 #@! TD*
G04 APERTURE END LIST*
D10*
X95964375Y-142875000D03*
D11*
X351213751Y-148807500D02*
X347381125Y-148807500D01*
X347381125Y-137092530D01*
X347384681Y-137056425D01*
X347370490Y-136912340D01*
X347328462Y-136773792D01*
X347260212Y-136646105D01*
X347168363Y-136534187D01*
X347056445Y-136442338D01*
X346928758Y-136374088D01*
X346790210Y-136332060D01*
X346682230Y-136321425D01*
X346646125Y-136317869D01*
X346610020Y-136321425D01*
X339163830Y-136321425D01*
X339127725Y-136317869D01*
X339091620Y-136321425D01*
X338983640Y-136332060D01*
X338845092Y-136374088D01*
X338717405Y-136442338D01*
X338605487Y-136534187D01*
X338513638Y-136646105D01*
X338445388Y-136773792D01*
X338403360Y-136912340D01*
X338389169Y-137056425D01*
X338392725Y-137092530D01*
X338392725Y-137134425D01*
X338237725Y-137134425D01*
X338237725Y-135797330D01*
X338241281Y-135761225D01*
X338227090Y-135617140D01*
X338185062Y-135478592D01*
X338116812Y-135350905D01*
X338024963Y-135238987D01*
X337913045Y-135147138D01*
X337785358Y-135078888D01*
X337646810Y-135036860D01*
X337538830Y-135026225D01*
X337502725Y-135022669D01*
X337466620Y-135026225D01*
X323568829Y-135026225D01*
X323532724Y-135022669D01*
X323496619Y-135026225D01*
X323388639Y-135036860D01*
X323250091Y-135078888D01*
X323122404Y-135147138D01*
X323010486Y-135238987D01*
X322918637Y-135350905D01*
X322850387Y-135478592D01*
X322808359Y-135617140D01*
X322794168Y-135761225D01*
X322797725Y-135797340D01*
X322797724Y-137134425D01*
X322641725Y-137134425D01*
X322641725Y-137092530D01*
X322645281Y-137056425D01*
X322631090Y-136912340D01*
X322589062Y-136773792D01*
X322520812Y-136646105D01*
X322428963Y-136534187D01*
X322317045Y-136442338D01*
X322189358Y-136374088D01*
X322050810Y-136332060D01*
X321942830Y-136321425D01*
X321906725Y-136317869D01*
X321870620Y-136321425D01*
X314424430Y-136321425D01*
X314388325Y-136317869D01*
X314352220Y-136321425D01*
X314244240Y-136332060D01*
X314105692Y-136374088D01*
X313978005Y-136442338D01*
X313866087Y-136534187D01*
X313774238Y-136646105D01*
X313705988Y-136773792D01*
X313663960Y-136912340D01*
X313649769Y-137056425D01*
X313653326Y-137092540D01*
X313653325Y-150482320D01*
X313649769Y-150518425D01*
X313663960Y-150662510D01*
X313705988Y-150801058D01*
X313774238Y-150928745D01*
X313866087Y-151040663D01*
X313978005Y-151132512D01*
X314105692Y-151200762D01*
X314244240Y-151242790D01*
X314388325Y-151256981D01*
X314424430Y-151253425D01*
X321870620Y-151253425D01*
X321906725Y-151256981D01*
X321942830Y-151253425D01*
X322050810Y-151242790D01*
X322189358Y-151200762D01*
X322317045Y-151132512D01*
X322428963Y-151040663D01*
X322520812Y-150928745D01*
X322589062Y-150801058D01*
X322631090Y-150662510D01*
X322645281Y-150518425D01*
X322641725Y-150482320D01*
X322641725Y-149297525D01*
X322797724Y-149297525D01*
X322797724Y-149695419D01*
X322794168Y-149731525D01*
X322808359Y-149875610D01*
X322850387Y-150014158D01*
X322918637Y-150141845D01*
X323010486Y-150253763D01*
X323122404Y-150345612D01*
X323250091Y-150413862D01*
X323388639Y-150455890D01*
X323532724Y-150470081D01*
X323568829Y-150466525D01*
X337466620Y-150466525D01*
X337502725Y-150470081D01*
X337538830Y-150466525D01*
X337646810Y-150455890D01*
X337785358Y-150413862D01*
X337913045Y-150345612D01*
X338024963Y-150253763D01*
X338116812Y-150141845D01*
X338185062Y-150014158D01*
X338227090Y-149875610D01*
X338241281Y-149731525D01*
X338237725Y-149695420D01*
X338237725Y-149297525D01*
X338392726Y-149297525D01*
X338392725Y-150482320D01*
X338389169Y-150518425D01*
X338403360Y-150662510D01*
X338445388Y-150801058D01*
X338513638Y-150928745D01*
X338605487Y-151040663D01*
X338717405Y-151132512D01*
X338845092Y-151200762D01*
X338983640Y-151242790D01*
X339127725Y-151256981D01*
X339163830Y-151253425D01*
X344070000Y-151253425D01*
X344070001Y-154076525D01*
X335474830Y-154076525D01*
X335438725Y-154072969D01*
X335402620Y-154076525D01*
X335294640Y-154087160D01*
X335156092Y-154129188D01*
X335028405Y-154197438D01*
X334916487Y-154289287D01*
X334824638Y-154401205D01*
X334756388Y-154528892D01*
X334714360Y-154667440D01*
X334700169Y-154811525D01*
X334703726Y-154847640D01*
X334703725Y-169532420D01*
X334700169Y-169568525D01*
X334714360Y-169712610D01*
X334756388Y-169851158D01*
X334824638Y-169978845D01*
X334916487Y-170090763D01*
X335028405Y-170182612D01*
X335156092Y-170250862D01*
X335294640Y-170292890D01*
X335438725Y-170307081D01*
X335474830Y-170303525D01*
X339942620Y-170303525D01*
X339978725Y-170307081D01*
X340014830Y-170303525D01*
X340122810Y-170292890D01*
X340261358Y-170250862D01*
X340389045Y-170182612D01*
X340500963Y-170090763D01*
X340592812Y-169978845D01*
X340661062Y-169851158D01*
X340703090Y-169712610D01*
X340717281Y-169568525D01*
X340713725Y-169532420D01*
X340713725Y-169516525D01*
X349372620Y-169516525D01*
X349408725Y-169520081D01*
X349444830Y-169516525D01*
X349552810Y-169505890D01*
X349691358Y-169463862D01*
X349819045Y-169395612D01*
X349930963Y-169303763D01*
X350022812Y-169191845D01*
X350091062Y-169064158D01*
X350133090Y-168925610D01*
X350147281Y-168781525D01*
X350143725Y-168745420D01*
X350143725Y-155040000D01*
X351213751Y-155040000D01*
X351213750Y-187606553D01*
X351178940Y-187961573D01*
X351086274Y-188268496D01*
X350935761Y-188551570D01*
X350733130Y-188800020D01*
X350486101Y-189004380D01*
X350204077Y-189156870D01*
X349897820Y-189251673D01*
X349545049Y-189288750D01*
X68854072Y-189288750D01*
X68499052Y-189253940D01*
X68192129Y-189161274D01*
X67909055Y-189010761D01*
X67660605Y-188808130D01*
X67456245Y-188561101D01*
X67303755Y-188279077D01*
X67208952Y-187972820D01*
X67171875Y-187620049D01*
X67171875Y-173861524D01*
X72762669Y-173861524D01*
X72766226Y-173897639D01*
X72766225Y-187795420D01*
X72762669Y-187831525D01*
X72776860Y-187975610D01*
X72818888Y-188114158D01*
X72887138Y-188241845D01*
X72978987Y-188353763D01*
X73028161Y-188394119D01*
X73090905Y-188445612D01*
X73218592Y-188513862D01*
X73357140Y-188555890D01*
X73501225Y-188570081D01*
X73537330Y-188566525D01*
X87435120Y-188566525D01*
X87471225Y-188570081D01*
X87507330Y-188566525D01*
X87615310Y-188555890D01*
X87753858Y-188513862D01*
X87881545Y-188445612D01*
X87993463Y-188353763D01*
X88085312Y-188241845D01*
X88153562Y-188114158D01*
X88195590Y-187975610D01*
X88209781Y-187831525D01*
X88206225Y-187795420D01*
X88206225Y-173897628D01*
X88209781Y-173861524D01*
X96575169Y-173861524D01*
X96578726Y-173897639D01*
X96578725Y-187795420D01*
X96575169Y-187831525D01*
X96589360Y-187975610D01*
X96631388Y-188114158D01*
X96699638Y-188241845D01*
X96791487Y-188353763D01*
X96840661Y-188394119D01*
X96903405Y-188445612D01*
X97031092Y-188513862D01*
X97169640Y-188555890D01*
X97313725Y-188570081D01*
X97349830Y-188566525D01*
X111247620Y-188566525D01*
X111283725Y-188570081D01*
X111319830Y-188566525D01*
X111427810Y-188555890D01*
X111566358Y-188513862D01*
X111694045Y-188445612D01*
X111805963Y-188353763D01*
X111897812Y-188241845D01*
X111966062Y-188114158D01*
X112008090Y-187975610D01*
X112022281Y-187831525D01*
X112018725Y-187795420D01*
X112018725Y-173897628D01*
X112022281Y-173861524D01*
X120387669Y-173861524D01*
X120391226Y-173897639D01*
X120391225Y-187795420D01*
X120387669Y-187831525D01*
X120401860Y-187975610D01*
X120443888Y-188114158D01*
X120512138Y-188241845D01*
X120603987Y-188353763D01*
X120653161Y-188394119D01*
X120715905Y-188445612D01*
X120843592Y-188513862D01*
X120982140Y-188555890D01*
X121126225Y-188570081D01*
X121162330Y-188566525D01*
X135060120Y-188566525D01*
X135096225Y-188570081D01*
X135132330Y-188566525D01*
X135240310Y-188555890D01*
X135378858Y-188513862D01*
X135506545Y-188445612D01*
X135618463Y-188353763D01*
X135710312Y-188241845D01*
X135778562Y-188114158D01*
X135820590Y-187975610D01*
X135834781Y-187831525D01*
X135831225Y-187795420D01*
X135831225Y-173897628D01*
X135834781Y-173861524D01*
X135820590Y-173717439D01*
X135778562Y-173578891D01*
X135710312Y-173451204D01*
X135618463Y-173339286D01*
X135506545Y-173247437D01*
X135378858Y-173179187D01*
X135240310Y-173137159D01*
X135132330Y-173126524D01*
X135096225Y-173122968D01*
X135060120Y-173126524D01*
X121162330Y-173126524D01*
X121126225Y-173122968D01*
X121090120Y-173126524D01*
X120982140Y-173137159D01*
X120843592Y-173179187D01*
X120715905Y-173247437D01*
X120603987Y-173339286D01*
X120512138Y-173451204D01*
X120443888Y-173578891D01*
X120401860Y-173717439D01*
X120387669Y-173861524D01*
X112022281Y-173861524D01*
X112008090Y-173717439D01*
X111966062Y-173578891D01*
X111897812Y-173451204D01*
X111805963Y-173339286D01*
X111694045Y-173247437D01*
X111566358Y-173179187D01*
X111427810Y-173137159D01*
X111319830Y-173126524D01*
X111283725Y-173122968D01*
X111247620Y-173126524D01*
X97349830Y-173126524D01*
X97313725Y-173122968D01*
X97277620Y-173126524D01*
X97169640Y-173137159D01*
X97031092Y-173179187D01*
X96903405Y-173247437D01*
X96791487Y-173339286D01*
X96699638Y-173451204D01*
X96631388Y-173578891D01*
X96589360Y-173717439D01*
X96575169Y-173861524D01*
X88209781Y-173861524D01*
X88195590Y-173717439D01*
X88153562Y-173578891D01*
X88085312Y-173451204D01*
X87993463Y-173339286D01*
X87881545Y-173247437D01*
X87753858Y-173179187D01*
X87615310Y-173137159D01*
X87507330Y-173126524D01*
X87471225Y-173122968D01*
X87435120Y-173126524D01*
X73537330Y-173126524D01*
X73501225Y-173122968D01*
X73465120Y-173126524D01*
X73357140Y-173137159D01*
X73218592Y-173179187D01*
X73090905Y-173247437D01*
X72978987Y-173339286D01*
X72887138Y-173451204D01*
X72818888Y-173578891D01*
X72776860Y-173717439D01*
X72762669Y-173861524D01*
X67171875Y-173861524D01*
X67171875Y-173073525D01*
X146994169Y-173073525D01*
X146997726Y-173109640D01*
X146997725Y-186499420D01*
X146994169Y-186535525D01*
X147008360Y-186679610D01*
X147050388Y-186818158D01*
X147118638Y-186945845D01*
X147210487Y-187057763D01*
X147289708Y-187122778D01*
X147322405Y-187149612D01*
X147450092Y-187217862D01*
X147588640Y-187259890D01*
X147732725Y-187274081D01*
X147768830Y-187270525D01*
X159945620Y-187270525D01*
X159981725Y-187274081D01*
X160017830Y-187270525D01*
X160125810Y-187259890D01*
X160264358Y-187217862D01*
X160392045Y-187149612D01*
X160503963Y-187057763D01*
X160595812Y-186945845D01*
X160664062Y-186818158D01*
X160706090Y-186679610D01*
X160720281Y-186535525D01*
X160716725Y-186499420D01*
X160716725Y-186458525D01*
X160872726Y-186458525D01*
X160872725Y-187795420D01*
X160869169Y-187831525D01*
X160883360Y-187975610D01*
X160925388Y-188114158D01*
X160993638Y-188241845D01*
X161085487Y-188353763D01*
X161134661Y-188394119D01*
X161197405Y-188445612D01*
X161325092Y-188513862D01*
X161463640Y-188555890D01*
X161607725Y-188570081D01*
X161643830Y-188566525D01*
X175541620Y-188566525D01*
X175577725Y-188570081D01*
X175613830Y-188566525D01*
X175721810Y-188555890D01*
X175860358Y-188513862D01*
X175988045Y-188445612D01*
X176099963Y-188353763D01*
X176191812Y-188241845D01*
X176260062Y-188114158D01*
X176302090Y-187975610D01*
X176316281Y-187831525D01*
X176312725Y-187795420D01*
X176312725Y-186458525D01*
X176467725Y-186458525D01*
X176467725Y-186499420D01*
X176464169Y-186535525D01*
X176478360Y-186679610D01*
X176520388Y-186818158D01*
X176588638Y-186945845D01*
X176680487Y-187057763D01*
X176759708Y-187122778D01*
X176792405Y-187149612D01*
X176920092Y-187217862D01*
X177058640Y-187259890D01*
X177202725Y-187274081D01*
X177238830Y-187270525D01*
X183821620Y-187270525D01*
X183857725Y-187274081D01*
X183893830Y-187270525D01*
X184001810Y-187259890D01*
X184140358Y-187217862D01*
X184268045Y-187149612D01*
X184379963Y-187057763D01*
X184471812Y-186945845D01*
X184540062Y-186818158D01*
X184582090Y-186679610D01*
X184596281Y-186535525D01*
X184592725Y-186499420D01*
X184592725Y-183138750D01*
X196591725Y-183138750D01*
X196591726Y-187795410D01*
X196588169Y-187831525D01*
X196602360Y-187975610D01*
X196644388Y-188114158D01*
X196712638Y-188241845D01*
X196804487Y-188353763D01*
X196916405Y-188445612D01*
X197044092Y-188513862D01*
X197182640Y-188555890D01*
X197290620Y-188566525D01*
X197326725Y-188570081D01*
X197362830Y-188566525D01*
X254122620Y-188566525D01*
X254158725Y-188570081D01*
X254194830Y-188566525D01*
X254302810Y-188555890D01*
X254441358Y-188513862D01*
X254569045Y-188445612D01*
X254680963Y-188353763D01*
X254772812Y-188241845D01*
X254841062Y-188114158D01*
X254883090Y-187975610D01*
X254897281Y-187831525D01*
X254893725Y-187795420D01*
X254893725Y-183138750D01*
X258503726Y-183138750D01*
X258503725Y-187795420D01*
X258500169Y-187831525D01*
X258514360Y-187975610D01*
X258556388Y-188114158D01*
X258624638Y-188241845D01*
X258716487Y-188353763D01*
X258765661Y-188394119D01*
X258828405Y-188445612D01*
X258956092Y-188513862D01*
X259094640Y-188555890D01*
X259238725Y-188570081D01*
X259274830Y-188566525D01*
X273172620Y-188566525D01*
X273208725Y-188570081D01*
X273244830Y-188566525D01*
X273352810Y-188555890D01*
X273491358Y-188513862D01*
X273619045Y-188445612D01*
X273730963Y-188353763D01*
X273822812Y-188241845D01*
X273891062Y-188114158D01*
X273933090Y-187975610D01*
X273947281Y-187831525D01*
X273943725Y-187795420D01*
X273943725Y-173897628D01*
X273947281Y-173861524D01*
X277550169Y-173861524D01*
X277553726Y-173897639D01*
X277553725Y-187795420D01*
X277550169Y-187831525D01*
X277564360Y-187975610D01*
X277606388Y-188114158D01*
X277674638Y-188241845D01*
X277766487Y-188353763D01*
X277815661Y-188394119D01*
X277878405Y-188445612D01*
X278006092Y-188513862D01*
X278144640Y-188555890D01*
X278288725Y-188570081D01*
X278324830Y-188566525D01*
X349372620Y-188566525D01*
X349408725Y-188570081D01*
X349444830Y-188566525D01*
X349552810Y-188555890D01*
X349691358Y-188513862D01*
X349819045Y-188445612D01*
X349930963Y-188353763D01*
X350022812Y-188241845D01*
X350091062Y-188114158D01*
X350133090Y-187975610D01*
X350147281Y-187831525D01*
X350143725Y-187795420D01*
X350143725Y-173897628D01*
X350147281Y-173861524D01*
X350133090Y-173717439D01*
X350091062Y-173578891D01*
X350022812Y-173451204D01*
X349930963Y-173339286D01*
X349819045Y-173247437D01*
X349691358Y-173179187D01*
X349552810Y-173137159D01*
X349444830Y-173126524D01*
X349408725Y-173122968D01*
X349372620Y-173126524D01*
X278324830Y-173126524D01*
X278288725Y-173122968D01*
X278252620Y-173126524D01*
X278144640Y-173137159D01*
X278006092Y-173179187D01*
X277878405Y-173247437D01*
X277766487Y-173339286D01*
X277674638Y-173451204D01*
X277606388Y-173578891D01*
X277564360Y-173717439D01*
X277550169Y-173861524D01*
X273947281Y-173861524D01*
X273933090Y-173717439D01*
X273891062Y-173578891D01*
X273822812Y-173451204D01*
X273730963Y-173339286D01*
X273619045Y-173247437D01*
X273491358Y-173179187D01*
X273352810Y-173137159D01*
X273244830Y-173126524D01*
X273208725Y-173122968D01*
X273172620Y-173126524D01*
X269244725Y-173126524D01*
X269244725Y-173110629D01*
X269248281Y-173074524D01*
X269234090Y-172930439D01*
X269192062Y-172791891D01*
X269123812Y-172664204D01*
X269031963Y-172552286D01*
X268920045Y-172460437D01*
X268792358Y-172392187D01*
X268653810Y-172350159D01*
X268545830Y-172339524D01*
X268509725Y-172335968D01*
X268473620Y-172339524D01*
X263973830Y-172339524D01*
X263937725Y-172335968D01*
X263901620Y-172339524D01*
X263793640Y-172350159D01*
X263655092Y-172392187D01*
X263527405Y-172460437D01*
X263415487Y-172552286D01*
X263323638Y-172664204D01*
X263255388Y-172791891D01*
X263213360Y-172930439D01*
X263199169Y-173074524D01*
X263202725Y-173110629D01*
X263202725Y-173126524D01*
X259274830Y-173126524D01*
X259238725Y-173122968D01*
X259202620Y-173126524D01*
X259094640Y-173137159D01*
X258956092Y-173179187D01*
X258828405Y-173247437D01*
X258716487Y-173339286D01*
X258624638Y-173451204D01*
X258556388Y-173578891D01*
X258514360Y-173717439D01*
X258500169Y-173861524D01*
X258503725Y-173897628D01*
X258503726Y-178096875D01*
X254893725Y-178096875D01*
X254893725Y-173897700D01*
X254897280Y-173861682D01*
X254893725Y-173825508D01*
X254893725Y-173825419D01*
X254889763Y-173785195D01*
X254883120Y-173717595D01*
X254883098Y-173717523D01*
X254883090Y-173717439D01*
X254860893Y-173644265D01*
X254841122Y-173579038D01*
X254841086Y-173578971D01*
X254841062Y-173578891D01*
X254804937Y-173511306D01*
X254772899Y-173451336D01*
X254772852Y-173451278D01*
X254772812Y-173451204D01*
X254725602Y-173393680D01*
X254681074Y-173339398D01*
X254681012Y-173339347D01*
X254680962Y-173339286D01*
X254625466Y-173293741D01*
X254569176Y-173247525D01*
X254569105Y-173247487D01*
X254569044Y-173247437D01*
X254504588Y-173212984D01*
X254441503Y-173179248D01*
X254441429Y-173179226D01*
X254441357Y-173179187D01*
X254370767Y-173157774D01*
X254302964Y-173137190D01*
X254302886Y-173137182D01*
X254302809Y-173137159D01*
X254229800Y-173129968D01*
X254194987Y-173126532D01*
X254194911Y-173126532D01*
X254158725Y-173122968D01*
X254122696Y-173126517D01*
X250226725Y-173125683D01*
X250226725Y-173109630D01*
X250230281Y-173073525D01*
X250216090Y-172929440D01*
X250174062Y-172790892D01*
X250105812Y-172663205D01*
X250013963Y-172551287D01*
X249902045Y-172459438D01*
X249774358Y-172391188D01*
X249635810Y-172349160D01*
X249527830Y-172338525D01*
X249491725Y-172334969D01*
X249455620Y-172338525D01*
X240129830Y-172338525D01*
X240093725Y-172334969D01*
X240057620Y-172338525D01*
X239949640Y-172349160D01*
X239811092Y-172391188D01*
X239683405Y-172459438D01*
X239571487Y-172551287D01*
X239479638Y-172663205D01*
X239411388Y-172790892D01*
X239369360Y-172929440D01*
X239355169Y-173073525D01*
X239358725Y-173109630D01*
X239358725Y-173125525D01*
X226350725Y-173125525D01*
X226350725Y-173109630D01*
X226354281Y-173073525D01*
X226340090Y-172929440D01*
X226298062Y-172790892D01*
X226229812Y-172663205D01*
X226137963Y-172551287D01*
X226026045Y-172459438D01*
X225898358Y-172391188D01*
X225759810Y-172349160D01*
X225651830Y-172338525D01*
X225615725Y-172334969D01*
X225579620Y-172338525D01*
X221079830Y-172338525D01*
X221043725Y-172334969D01*
X221007620Y-172338525D01*
X220899640Y-172349160D01*
X220761092Y-172391188D01*
X220633405Y-172459438D01*
X220521487Y-172551287D01*
X220429638Y-172663205D01*
X220361388Y-172790892D01*
X220319360Y-172929440D01*
X220305169Y-173073525D01*
X220308725Y-173109630D01*
X220308725Y-173125577D01*
X207427500Y-173126473D01*
X207427500Y-173109630D01*
X207431056Y-173073525D01*
X207416865Y-172929440D01*
X207374837Y-172790892D01*
X207306587Y-172663205D01*
X207214738Y-172551287D01*
X207102820Y-172459438D01*
X206975133Y-172391188D01*
X206836585Y-172349160D01*
X206728605Y-172338525D01*
X206692500Y-172334969D01*
X206656395Y-172338525D01*
X201966105Y-172338525D01*
X201930000Y-172334969D01*
X201893895Y-172338525D01*
X201785915Y-172349160D01*
X201647367Y-172391188D01*
X201519680Y-172459438D01*
X201407762Y-172551287D01*
X201315913Y-172663205D01*
X201247663Y-172790892D01*
X201205635Y-172929440D01*
X201191444Y-173073525D01*
X201195000Y-173109630D01*
X201195000Y-173126524D01*
X197362830Y-173126524D01*
X197326725Y-173122968D01*
X197290620Y-173126524D01*
X197182640Y-173137159D01*
X197044092Y-173179187D01*
X196916405Y-173247437D01*
X196804487Y-173339286D01*
X196712638Y-173451204D01*
X196644388Y-173578891D01*
X196602360Y-173717439D01*
X196588169Y-173861524D01*
X196591726Y-173897639D01*
X196591725Y-178096875D01*
X184592725Y-178096875D01*
X184592725Y-173109630D01*
X184596281Y-173073525D01*
X184582090Y-172929440D01*
X184540062Y-172790892D01*
X184471812Y-172663205D01*
X184379963Y-172551287D01*
X184268045Y-172459438D01*
X184140358Y-172391188D01*
X184001810Y-172349160D01*
X183893830Y-172338525D01*
X183857725Y-172334969D01*
X183821620Y-172338525D01*
X177238830Y-172338525D01*
X177202725Y-172334969D01*
X177166620Y-172338525D01*
X177058640Y-172349160D01*
X176920092Y-172391188D01*
X176792405Y-172459438D01*
X176680487Y-172551287D01*
X176588638Y-172663205D01*
X176520388Y-172790892D01*
X176478360Y-172929440D01*
X176464169Y-173073525D01*
X176467726Y-173109640D01*
X176467725Y-174294525D01*
X176312725Y-174294525D01*
X176312725Y-173897628D01*
X176316281Y-173861524D01*
X176302090Y-173717439D01*
X176260062Y-173578891D01*
X176191812Y-173451204D01*
X176099963Y-173339286D01*
X175988045Y-173247437D01*
X175860358Y-173179187D01*
X175721810Y-173137159D01*
X175613830Y-173126524D01*
X175577725Y-173122968D01*
X175541620Y-173126524D01*
X161643830Y-173126524D01*
X161607725Y-173122968D01*
X161571620Y-173126524D01*
X161463640Y-173137159D01*
X161325092Y-173179187D01*
X161197405Y-173247437D01*
X161085487Y-173339286D01*
X160993638Y-173451204D01*
X160925388Y-173578891D01*
X160883360Y-173717439D01*
X160869169Y-173861524D01*
X160872726Y-173897639D01*
X160872726Y-174294525D01*
X160716725Y-174294525D01*
X160716725Y-173109630D01*
X160720281Y-173073525D01*
X160706090Y-172929440D01*
X160664062Y-172790892D01*
X160595812Y-172663205D01*
X160503963Y-172551287D01*
X160392045Y-172459438D01*
X160264358Y-172391188D01*
X160125810Y-172349160D01*
X160017830Y-172338525D01*
X159981725Y-172334969D01*
X159945620Y-172338525D01*
X147768830Y-172338525D01*
X147732725Y-172334969D01*
X147696620Y-172338525D01*
X147588640Y-172349160D01*
X147450092Y-172391188D01*
X147322405Y-172459438D01*
X147210487Y-172551287D01*
X147118638Y-172663205D01*
X147050388Y-172790892D01*
X147008360Y-172929440D01*
X146994169Y-173073525D01*
X67171875Y-173073525D01*
X67171875Y-156106525D01*
X70762369Y-156106525D01*
X70765926Y-156142640D01*
X70765925Y-169532420D01*
X70762369Y-169568525D01*
X70776560Y-169712610D01*
X70818588Y-169851158D01*
X70886838Y-169978845D01*
X70978687Y-170090763D01*
X71090605Y-170182612D01*
X71218292Y-170250862D01*
X71356840Y-170292890D01*
X71500925Y-170307081D01*
X71537030Y-170303525D01*
X78983220Y-170303525D01*
X79019325Y-170307081D01*
X79055430Y-170303525D01*
X79163410Y-170292890D01*
X79301958Y-170250862D01*
X79429645Y-170182612D01*
X79541563Y-170090763D01*
X79633412Y-169978845D01*
X79701662Y-169851158D01*
X79743690Y-169712610D01*
X79757881Y-169568525D01*
X79754325Y-169532420D01*
X79754325Y-168347525D01*
X79909925Y-168347525D01*
X79909925Y-168745419D01*
X79906369Y-168781525D01*
X79920560Y-168925610D01*
X79962588Y-169064158D01*
X80030838Y-169191845D01*
X80122687Y-169303763D01*
X80234605Y-169395612D01*
X80362292Y-169463862D01*
X80500840Y-169505890D01*
X80644925Y-169520081D01*
X80681030Y-169516525D01*
X94578820Y-169516525D01*
X94614925Y-169520081D01*
X94651030Y-169516525D01*
X94759010Y-169505890D01*
X94897558Y-169463862D01*
X95025245Y-169395612D01*
X95137163Y-169303763D01*
X95229012Y-169191845D01*
X95297262Y-169064158D01*
X95339290Y-168925610D01*
X95353481Y-168781525D01*
X95349925Y-168745420D01*
X95349925Y-168347525D01*
X95505526Y-168347525D01*
X95505525Y-169532420D01*
X95501969Y-169568525D01*
X95516160Y-169712610D01*
X95558188Y-169851158D01*
X95626438Y-169978845D01*
X95718287Y-170090763D01*
X95830205Y-170182612D01*
X95957892Y-170250862D01*
X96096440Y-170292890D01*
X96240525Y-170307081D01*
X96276630Y-170303525D01*
X103722820Y-170303525D01*
X103758925Y-170307081D01*
X103795030Y-170303525D01*
X103903010Y-170292890D01*
X104041558Y-170250862D01*
X104169245Y-170182612D01*
X104281163Y-170090763D01*
X104373012Y-169978845D01*
X104441262Y-169851158D01*
X104483290Y-169712610D01*
X104497481Y-169568525D01*
X104493925Y-169532420D01*
X104493925Y-156142630D01*
X104497481Y-156106525D01*
X104483290Y-155962440D01*
X104441262Y-155823892D01*
X104373012Y-155696205D01*
X104281163Y-155584287D01*
X104169245Y-155492438D01*
X104041558Y-155424188D01*
X103903010Y-155382160D01*
X103795030Y-155371525D01*
X103758925Y-155367969D01*
X103722820Y-155371525D01*
X96276630Y-155371525D01*
X96240525Y-155367969D01*
X96204420Y-155371525D01*
X96096440Y-155382160D01*
X95957892Y-155424188D01*
X95830205Y-155492438D01*
X95718287Y-155584287D01*
X95626438Y-155696205D01*
X95558188Y-155823892D01*
X95516160Y-155962440D01*
X95501969Y-156106525D01*
X95505525Y-156142630D01*
X95505525Y-156184525D01*
X95349925Y-156184525D01*
X95349925Y-154847630D01*
X95353481Y-154811525D01*
X110862669Y-154811525D01*
X110866226Y-154847640D01*
X110866225Y-168745420D01*
X110862669Y-168781525D01*
X110876860Y-168925610D01*
X110918888Y-169064158D01*
X110987138Y-169191845D01*
X111078987Y-169303763D01*
X111190905Y-169395612D01*
X111318592Y-169463862D01*
X111457140Y-169505890D01*
X111601225Y-169520081D01*
X111637330Y-169516525D01*
X125535120Y-169516525D01*
X125571225Y-169520081D01*
X125607330Y-169516525D01*
X125715310Y-169505890D01*
X125853858Y-169463862D01*
X125981545Y-169395612D01*
X126093463Y-169303763D01*
X126185312Y-169191845D01*
X126253562Y-169064158D01*
X126295590Y-168925610D01*
X126309781Y-168781525D01*
X126306225Y-168745420D01*
X126306225Y-154847630D01*
X126309781Y-154811525D01*
X129912669Y-154811525D01*
X129916226Y-154847640D01*
X129916225Y-168745420D01*
X129912669Y-168781525D01*
X129926860Y-168925610D01*
X129968888Y-169064158D01*
X130037138Y-169191845D01*
X130128987Y-169303763D01*
X130240905Y-169395612D01*
X130368592Y-169463862D01*
X130507140Y-169505890D01*
X130651225Y-169520081D01*
X130687330Y-169516525D01*
X144585120Y-169516525D01*
X144621225Y-169520081D01*
X144657330Y-169516525D01*
X144765310Y-169505890D01*
X144903858Y-169463862D01*
X145031545Y-169395612D01*
X145143463Y-169303763D01*
X145235312Y-169191845D01*
X145303562Y-169064158D01*
X145345590Y-168925610D01*
X145359781Y-168781525D01*
X145356225Y-168745420D01*
X145356225Y-154847630D01*
X145359781Y-154811525D01*
X148962669Y-154811525D01*
X148966226Y-154847640D01*
X148966225Y-168745420D01*
X148962669Y-168781525D01*
X148976860Y-168925610D01*
X149018888Y-169064158D01*
X149087138Y-169191845D01*
X149178987Y-169303763D01*
X149290905Y-169395612D01*
X149418592Y-169463862D01*
X149557140Y-169505890D01*
X149701225Y-169520081D01*
X149737330Y-169516525D01*
X163634620Y-169516525D01*
X163670725Y-169520081D01*
X163706830Y-169516525D01*
X163814810Y-169505890D01*
X163953358Y-169463862D01*
X164081045Y-169395612D01*
X164192963Y-169303763D01*
X164284812Y-169191845D01*
X164353062Y-169064158D01*
X164395090Y-168925610D01*
X164409281Y-168781525D01*
X164405725Y-168745420D01*
X164405725Y-154847630D01*
X164409281Y-154811525D01*
X168013169Y-154811525D01*
X168016726Y-154847640D01*
X168016725Y-168745420D01*
X168013169Y-168781525D01*
X168027360Y-168925610D01*
X168069388Y-169064158D01*
X168137638Y-169191845D01*
X168229487Y-169303763D01*
X168341405Y-169395612D01*
X168469092Y-169463862D01*
X168607640Y-169505890D01*
X168751725Y-169520081D01*
X168787830Y-169516525D01*
X182684620Y-169516525D01*
X182720725Y-169520081D01*
X182756830Y-169516525D01*
X182864810Y-169505890D01*
X183003358Y-169463862D01*
X183131045Y-169395612D01*
X183242963Y-169303763D01*
X183334812Y-169191845D01*
X183403062Y-169064158D01*
X183445090Y-168925610D01*
X183459281Y-168781525D01*
X183455725Y-168745420D01*
X183455725Y-154847630D01*
X183459281Y-154811525D01*
X187062169Y-154811525D01*
X187065726Y-154847640D01*
X187065725Y-168745420D01*
X187062169Y-168781525D01*
X187076360Y-168925610D01*
X187118388Y-169064158D01*
X187186638Y-169191845D01*
X187278487Y-169303763D01*
X187390405Y-169395612D01*
X187518092Y-169463862D01*
X187656640Y-169505890D01*
X187800725Y-169520081D01*
X187836830Y-169516525D01*
X201734620Y-169516525D01*
X201770725Y-169520081D01*
X201806830Y-169516525D01*
X201914810Y-169505890D01*
X202053358Y-169463862D01*
X202181045Y-169395612D01*
X202292963Y-169303763D01*
X202384812Y-169191845D01*
X202453062Y-169064158D01*
X202495090Y-168925610D01*
X202509281Y-168781525D01*
X202505725Y-168745420D01*
X202505725Y-154847630D01*
X202509281Y-154811525D01*
X206112169Y-154811525D01*
X206115726Y-154847640D01*
X206115725Y-168745420D01*
X206112169Y-168781525D01*
X206126360Y-168925610D01*
X206168388Y-169064158D01*
X206236638Y-169191845D01*
X206328487Y-169303763D01*
X206440405Y-169395612D01*
X206568092Y-169463862D01*
X206706640Y-169505890D01*
X206850725Y-169520081D01*
X206886830Y-169516525D01*
X220784620Y-169516525D01*
X220820725Y-169520081D01*
X220856830Y-169516525D01*
X220964810Y-169505890D01*
X221103358Y-169463862D01*
X221231045Y-169395612D01*
X221342963Y-169303763D01*
X221434812Y-169191845D01*
X221503062Y-169064158D01*
X221545090Y-168925610D01*
X221559281Y-168781525D01*
X221555725Y-168745420D01*
X221555725Y-154847630D01*
X221559281Y-154811525D01*
X225162169Y-154811525D01*
X225165726Y-154847640D01*
X225165725Y-168745420D01*
X225162169Y-168781525D01*
X225176360Y-168925610D01*
X225218388Y-169064158D01*
X225286638Y-169191845D01*
X225378487Y-169303763D01*
X225490405Y-169395612D01*
X225618092Y-169463862D01*
X225756640Y-169505890D01*
X225900725Y-169520081D01*
X225936830Y-169516525D01*
X239834620Y-169516525D01*
X239870725Y-169520081D01*
X239906830Y-169516525D01*
X240014810Y-169505890D01*
X240153358Y-169463862D01*
X240281045Y-169395612D01*
X240392963Y-169303763D01*
X240484812Y-169191845D01*
X240553062Y-169064158D01*
X240595090Y-168925610D01*
X240609281Y-168781525D01*
X240605725Y-168745420D01*
X240605725Y-154847630D01*
X240609281Y-154811525D01*
X244213169Y-154811525D01*
X244216726Y-154847640D01*
X244216725Y-168745420D01*
X244213169Y-168781525D01*
X244227360Y-168925610D01*
X244269388Y-169064158D01*
X244337638Y-169191845D01*
X244429487Y-169303763D01*
X244541405Y-169395612D01*
X244669092Y-169463862D01*
X244807640Y-169505890D01*
X244951725Y-169520081D01*
X244987830Y-169516525D01*
X258885620Y-169516525D01*
X258921725Y-169520081D01*
X258957830Y-169516525D01*
X259065810Y-169505890D01*
X259204358Y-169463862D01*
X259332045Y-169395612D01*
X259443963Y-169303763D01*
X259535812Y-169191845D01*
X259604062Y-169064158D01*
X259646090Y-168925610D01*
X259660281Y-168781525D01*
X259656725Y-168745420D01*
X259656725Y-154847630D01*
X259660281Y-154811525D01*
X263262169Y-154811525D01*
X263265726Y-154847640D01*
X263265725Y-168745420D01*
X263262169Y-168781525D01*
X263276360Y-168925610D01*
X263318388Y-169064158D01*
X263386638Y-169191845D01*
X263478487Y-169303763D01*
X263590405Y-169395612D01*
X263718092Y-169463862D01*
X263856640Y-169505890D01*
X264000725Y-169520081D01*
X264036830Y-169516525D01*
X277934620Y-169516525D01*
X277970725Y-169520081D01*
X278006830Y-169516525D01*
X278114810Y-169505890D01*
X278253358Y-169463862D01*
X278381045Y-169395612D01*
X278492963Y-169303763D01*
X278584812Y-169191845D01*
X278653062Y-169064158D01*
X278695090Y-168925610D01*
X278709281Y-168781525D01*
X278705725Y-168745420D01*
X278705725Y-154847630D01*
X278709281Y-154811525D01*
X282312169Y-154811525D01*
X282315726Y-154847640D01*
X282315725Y-168745420D01*
X282312169Y-168781525D01*
X282326360Y-168925610D01*
X282368388Y-169064158D01*
X282436638Y-169191845D01*
X282528487Y-169303763D01*
X282640405Y-169395612D01*
X282768092Y-169463862D01*
X282906640Y-169505890D01*
X283050725Y-169520081D01*
X283086830Y-169516525D01*
X310795725Y-169516525D01*
X310795725Y-169532420D01*
X310792169Y-169568525D01*
X310806360Y-169712610D01*
X310848388Y-169851158D01*
X310916638Y-169978845D01*
X311008487Y-170090763D01*
X311120405Y-170182612D01*
X311248092Y-170250862D01*
X311386640Y-170292890D01*
X311530725Y-170307081D01*
X311566830Y-170303525D01*
X316066619Y-170303525D01*
X316102724Y-170307081D01*
X316138829Y-170303525D01*
X316246809Y-170292890D01*
X316385357Y-170250862D01*
X316513044Y-170182612D01*
X316624962Y-170090763D01*
X316716811Y-169978845D01*
X316785061Y-169851158D01*
X316827089Y-169712610D01*
X316841280Y-169568525D01*
X316837724Y-169532420D01*
X316837724Y-169516525D01*
X332703620Y-169516525D01*
X332739725Y-169520081D01*
X332775830Y-169516525D01*
X332883810Y-169505890D01*
X333022358Y-169463862D01*
X333150045Y-169395612D01*
X333261963Y-169303763D01*
X333353812Y-169191845D01*
X333422062Y-169064158D01*
X333464090Y-168925610D01*
X333478281Y-168781525D01*
X333474725Y-168745420D01*
X333474725Y-154847630D01*
X333478281Y-154811525D01*
X333464090Y-154667440D01*
X333422062Y-154528892D01*
X333353812Y-154401205D01*
X333261963Y-154289287D01*
X333150045Y-154197438D01*
X333022358Y-154129188D01*
X332883810Y-154087160D01*
X332775830Y-154076525D01*
X332739725Y-154072969D01*
X332703620Y-154076525D01*
X283086830Y-154076525D01*
X283050725Y-154072969D01*
X283014620Y-154076525D01*
X282906640Y-154087160D01*
X282768092Y-154129188D01*
X282640405Y-154197438D01*
X282528487Y-154289287D01*
X282436638Y-154401205D01*
X282368388Y-154528892D01*
X282326360Y-154667440D01*
X282312169Y-154811525D01*
X278709281Y-154811525D01*
X278695090Y-154667440D01*
X278653062Y-154528892D01*
X278584812Y-154401205D01*
X278492963Y-154289287D01*
X278381045Y-154197438D01*
X278253358Y-154129188D01*
X278114810Y-154087160D01*
X278006830Y-154076525D01*
X277970725Y-154072969D01*
X277934620Y-154076525D01*
X264036830Y-154076525D01*
X264000725Y-154072969D01*
X263964620Y-154076525D01*
X263856640Y-154087160D01*
X263718092Y-154129188D01*
X263590405Y-154197438D01*
X263478487Y-154289287D01*
X263386638Y-154401205D01*
X263318388Y-154528892D01*
X263276360Y-154667440D01*
X263262169Y-154811525D01*
X259660281Y-154811525D01*
X259646090Y-154667440D01*
X259604062Y-154528892D01*
X259535812Y-154401205D01*
X259443963Y-154289287D01*
X259332045Y-154197438D01*
X259204358Y-154129188D01*
X259065810Y-154087160D01*
X258957830Y-154076525D01*
X258921725Y-154072969D01*
X258885620Y-154076525D01*
X244987830Y-154076525D01*
X244951725Y-154072969D01*
X244915620Y-154076525D01*
X244807640Y-154087160D01*
X244669092Y-154129188D01*
X244541405Y-154197438D01*
X244429487Y-154289287D01*
X244337638Y-154401205D01*
X244269388Y-154528892D01*
X244227360Y-154667440D01*
X244213169Y-154811525D01*
X240609281Y-154811525D01*
X240595090Y-154667440D01*
X240553062Y-154528892D01*
X240484812Y-154401205D01*
X240392963Y-154289287D01*
X240281045Y-154197438D01*
X240153358Y-154129188D01*
X240014810Y-154087160D01*
X239906830Y-154076525D01*
X239870725Y-154072969D01*
X239834620Y-154076525D01*
X225936830Y-154076525D01*
X225900725Y-154072969D01*
X225864620Y-154076525D01*
X225756640Y-154087160D01*
X225618092Y-154129188D01*
X225490405Y-154197438D01*
X225378487Y-154289287D01*
X225286638Y-154401205D01*
X225218388Y-154528892D01*
X225176360Y-154667440D01*
X225162169Y-154811525D01*
X221559281Y-154811525D01*
X221545090Y-154667440D01*
X221503062Y-154528892D01*
X221434812Y-154401205D01*
X221342963Y-154289287D01*
X221231045Y-154197438D01*
X221103358Y-154129188D01*
X220964810Y-154087160D01*
X220856830Y-154076525D01*
X220820725Y-154072969D01*
X220784620Y-154076525D01*
X206886830Y-154076525D01*
X206850725Y-154072969D01*
X206814620Y-154076525D01*
X206706640Y-154087160D01*
X206568092Y-154129188D01*
X206440405Y-154197438D01*
X206328487Y-154289287D01*
X206236638Y-154401205D01*
X206168388Y-154528892D01*
X206126360Y-154667440D01*
X206112169Y-154811525D01*
X202509281Y-154811525D01*
X202495090Y-154667440D01*
X202453062Y-154528892D01*
X202384812Y-154401205D01*
X202292963Y-154289287D01*
X202181045Y-154197438D01*
X202053358Y-154129188D01*
X201914810Y-154087160D01*
X201806830Y-154076525D01*
X201770725Y-154072969D01*
X201734620Y-154076525D01*
X187836830Y-154076525D01*
X187800725Y-154072969D01*
X187764620Y-154076525D01*
X187656640Y-154087160D01*
X187518092Y-154129188D01*
X187390405Y-154197438D01*
X187278487Y-154289287D01*
X187186638Y-154401205D01*
X187118388Y-154528892D01*
X187076360Y-154667440D01*
X187062169Y-154811525D01*
X183459281Y-154811525D01*
X183445090Y-154667440D01*
X183403062Y-154528892D01*
X183334812Y-154401205D01*
X183242963Y-154289287D01*
X183131045Y-154197438D01*
X183003358Y-154129188D01*
X182864810Y-154087160D01*
X182756830Y-154076525D01*
X182720725Y-154072969D01*
X182684620Y-154076525D01*
X168787830Y-154076525D01*
X168751725Y-154072969D01*
X168715620Y-154076525D01*
X168607640Y-154087160D01*
X168469092Y-154129188D01*
X168341405Y-154197438D01*
X168229487Y-154289287D01*
X168137638Y-154401205D01*
X168069388Y-154528892D01*
X168027360Y-154667440D01*
X168013169Y-154811525D01*
X164409281Y-154811525D01*
X164395090Y-154667440D01*
X164353062Y-154528892D01*
X164284812Y-154401205D01*
X164192963Y-154289287D01*
X164081045Y-154197438D01*
X163953358Y-154129188D01*
X163814810Y-154087160D01*
X163706830Y-154076525D01*
X163670725Y-154072969D01*
X163634620Y-154076525D01*
X149737330Y-154076525D01*
X149701225Y-154072969D01*
X149665120Y-154076525D01*
X149557140Y-154087160D01*
X149418592Y-154129188D01*
X149290905Y-154197438D01*
X149178987Y-154289287D01*
X149087138Y-154401205D01*
X149018888Y-154528892D01*
X148976860Y-154667440D01*
X148962669Y-154811525D01*
X145359781Y-154811525D01*
X145345590Y-154667440D01*
X145303562Y-154528892D01*
X145235312Y-154401205D01*
X145143463Y-154289287D01*
X145031545Y-154197438D01*
X144903858Y-154129188D01*
X144765310Y-154087160D01*
X144657330Y-154076525D01*
X144621225Y-154072969D01*
X144585120Y-154076525D01*
X130687330Y-154076525D01*
X130651225Y-154072969D01*
X130615120Y-154076525D01*
X130507140Y-154087160D01*
X130368592Y-154129188D01*
X130240905Y-154197438D01*
X130128987Y-154289287D01*
X130037138Y-154401205D01*
X129968888Y-154528892D01*
X129926860Y-154667440D01*
X129912669Y-154811525D01*
X126309781Y-154811525D01*
X126295590Y-154667440D01*
X126253562Y-154528892D01*
X126185312Y-154401205D01*
X126093463Y-154289287D01*
X125981545Y-154197438D01*
X125853858Y-154129188D01*
X125715310Y-154087160D01*
X125607330Y-154076525D01*
X125571225Y-154072969D01*
X125535120Y-154076525D01*
X111637330Y-154076525D01*
X111601225Y-154072969D01*
X111565120Y-154076525D01*
X111457140Y-154087160D01*
X111318592Y-154129188D01*
X111190905Y-154197438D01*
X111078987Y-154289287D01*
X110987138Y-154401205D01*
X110918888Y-154528892D01*
X110876860Y-154667440D01*
X110862669Y-154811525D01*
X95353481Y-154811525D01*
X95339290Y-154667440D01*
X95297262Y-154528892D01*
X95229012Y-154401205D01*
X95137163Y-154289287D01*
X95025245Y-154197438D01*
X94897558Y-154129188D01*
X94759010Y-154087160D01*
X94651030Y-154076525D01*
X94614925Y-154072969D01*
X94578820Y-154076525D01*
X80681030Y-154076525D01*
X80644925Y-154072969D01*
X80608820Y-154076525D01*
X80500840Y-154087160D01*
X80362292Y-154129188D01*
X80234605Y-154197438D01*
X80122687Y-154289287D01*
X80030838Y-154401205D01*
X79962588Y-154528892D01*
X79920560Y-154667440D01*
X79906369Y-154811525D01*
X79909926Y-154847640D01*
X79909925Y-156184525D01*
X79754325Y-156184525D01*
X79754325Y-156142630D01*
X79757881Y-156106525D01*
X79743690Y-155962440D01*
X79701662Y-155823892D01*
X79633412Y-155696205D01*
X79541563Y-155584287D01*
X79429645Y-155492438D01*
X79301958Y-155424188D01*
X79163410Y-155382160D01*
X79055430Y-155371525D01*
X79019325Y-155367969D01*
X78983220Y-155371525D01*
X71537030Y-155371525D01*
X71500925Y-155367969D01*
X71464820Y-155371525D01*
X71356840Y-155382160D01*
X71218292Y-155424188D01*
X71090605Y-155492438D01*
X70978687Y-155584287D01*
X70886838Y-155696205D01*
X70818588Y-155823892D01*
X70776560Y-155962440D01*
X70762369Y-156106525D01*
X67171875Y-156106525D01*
X67171875Y-155040000D01*
X69806730Y-155040000D01*
X69844703Y-155036260D01*
X69875596Y-155036260D01*
X69885802Y-155035187D01*
X70347644Y-154983383D01*
X70412801Y-154969534D01*
X70478154Y-154956593D01*
X70487957Y-154953559D01*
X70930941Y-154813036D01*
X70992159Y-154786798D01*
X71053760Y-154761408D01*
X71062787Y-154756527D01*
X71470041Y-154532638D01*
X71525019Y-154494994D01*
X71580496Y-154458135D01*
X71588403Y-154451594D01*
X71944413Y-154152865D01*
X71991036Y-154105255D01*
X72038290Y-154058330D01*
X72044776Y-154050377D01*
X72335983Y-153688189D01*
X72372474Y-153632424D01*
X72409711Y-153577219D01*
X72414529Y-153568158D01*
X72629841Y-153156305D01*
X72654815Y-153094493D01*
X72680611Y-153033127D01*
X72683578Y-153023303D01*
X72814793Y-152577473D01*
X72827289Y-152511968D01*
X72840670Y-152446779D01*
X72841672Y-152436566D01*
X72883792Y-151973740D01*
X72883327Y-151907126D01*
X72883792Y-151840512D01*
X72882791Y-151830298D01*
X72834213Y-151368105D01*
X72820807Y-151302798D01*
X72808334Y-151237412D01*
X72805370Y-151227595D01*
X72805369Y-151227588D01*
X72805366Y-151227582D01*
X72667941Y-150783633D01*
X72642106Y-150722173D01*
X72617171Y-150660457D01*
X72612354Y-150651395D01*
X72391313Y-150242588D01*
X72354053Y-150187349D01*
X72317584Y-150131618D01*
X72311098Y-150123665D01*
X72014862Y-149765578D01*
X71967572Y-149718617D01*
X71920984Y-149671043D01*
X71913077Y-149664501D01*
X71552932Y-149370773D01*
X71497398Y-149333876D01*
X71442476Y-149296270D01*
X71433457Y-149291393D01*
X71433452Y-149291390D01*
X71433447Y-149291388D01*
X71023110Y-149073208D01*
X70961471Y-149047802D01*
X70900290Y-149021580D01*
X70890487Y-149018545D01*
X70445584Y-148884221D01*
X70380192Y-148871273D01*
X70315076Y-148857432D01*
X70304870Y-148856359D01*
X69842349Y-148811008D01*
X69842348Y-148811008D01*
X69806730Y-148807500D01*
X67171875Y-148807500D01*
X67171875Y-135761325D01*
X75143869Y-135761325D01*
X75147426Y-135797440D01*
X75147425Y-149695420D01*
X75143869Y-149731525D01*
X75158060Y-149875610D01*
X75200088Y-150014158D01*
X75268338Y-150141845D01*
X75360187Y-150253763D01*
X75472105Y-150345612D01*
X75599792Y-150413862D01*
X75738340Y-150455890D01*
X75882425Y-150470081D01*
X75918530Y-150466525D01*
X89816420Y-150466525D01*
X89852525Y-150470081D01*
X89888630Y-150466525D01*
X89996610Y-150455890D01*
X90135158Y-150413862D01*
X90262845Y-150345612D01*
X90374763Y-150253763D01*
X90466612Y-150141845D01*
X90534862Y-150014158D01*
X90576890Y-149875610D01*
X90591081Y-149731525D01*
X90587525Y-149695420D01*
X90587525Y-142782911D01*
X95029375Y-142782911D01*
X95029375Y-142967089D01*
X95065307Y-143147729D01*
X95135789Y-143317889D01*
X95238113Y-143471028D01*
X95368347Y-143601262D01*
X95521486Y-143703586D01*
X95691646Y-143774068D01*
X95872286Y-143810000D01*
X96056464Y-143810000D01*
X96237104Y-143774068D01*
X96407264Y-143703586D01*
X96560403Y-143601262D01*
X96690637Y-143471028D01*
X96792961Y-143317889D01*
X96863443Y-143147729D01*
X96899375Y-142967089D01*
X96899375Y-142782911D01*
X96863443Y-142602271D01*
X96792961Y-142432111D01*
X96690637Y-142278972D01*
X96560403Y-142148738D01*
X96407264Y-142046414D01*
X96237104Y-141975932D01*
X96056464Y-141940000D01*
X95872286Y-141940000D01*
X95691646Y-141975932D01*
X95521486Y-142046414D01*
X95368347Y-142148738D01*
X95238113Y-142278972D01*
X95135789Y-142432111D01*
X95065307Y-142602271D01*
X95029375Y-142782911D01*
X90587525Y-142782911D01*
X90587525Y-135797430D01*
X90591081Y-135761325D01*
X90591072Y-135761225D01*
X101337669Y-135761225D01*
X101341226Y-135797340D01*
X101341225Y-149695420D01*
X101337669Y-149731525D01*
X101351860Y-149875610D01*
X101393888Y-150014158D01*
X101462138Y-150141845D01*
X101553987Y-150253763D01*
X101665905Y-150345612D01*
X101793592Y-150413862D01*
X101932140Y-150455890D01*
X102076225Y-150470081D01*
X102112330Y-150466525D01*
X116010120Y-150466525D01*
X116046225Y-150470081D01*
X116082330Y-150466525D01*
X116190310Y-150455890D01*
X116328858Y-150413862D01*
X116456545Y-150345612D01*
X116568463Y-150253763D01*
X116660312Y-150141845D01*
X116728562Y-150014158D01*
X116770590Y-149875610D01*
X116784781Y-149731525D01*
X116781225Y-149695420D01*
X116781225Y-135797330D01*
X116784781Y-135761225D01*
X120387669Y-135761225D01*
X120391226Y-135797340D01*
X120391225Y-149695420D01*
X120387669Y-149731525D01*
X120401860Y-149875610D01*
X120443888Y-150014158D01*
X120512138Y-150141845D01*
X120603987Y-150253763D01*
X120715905Y-150345612D01*
X120843592Y-150413862D01*
X120982140Y-150455890D01*
X121126225Y-150470081D01*
X121162330Y-150466525D01*
X135060120Y-150466525D01*
X135096225Y-150470081D01*
X135132330Y-150466525D01*
X135240310Y-150455890D01*
X135378858Y-150413862D01*
X135506545Y-150345612D01*
X135618463Y-150253763D01*
X135710312Y-150141845D01*
X135778562Y-150014158D01*
X135820590Y-149875610D01*
X135834781Y-149731525D01*
X135831225Y-149695420D01*
X135831225Y-135797330D01*
X135834781Y-135761225D01*
X139437669Y-135761225D01*
X139441226Y-135797340D01*
X139441225Y-149695420D01*
X139437669Y-149731525D01*
X139451860Y-149875610D01*
X139493888Y-150014158D01*
X139562138Y-150141845D01*
X139653987Y-150253763D01*
X139765905Y-150345612D01*
X139893592Y-150413862D01*
X140032140Y-150455890D01*
X140176225Y-150470081D01*
X140212330Y-150466525D01*
X154110120Y-150466525D01*
X154146225Y-150470081D01*
X154182330Y-150466525D01*
X154290310Y-150455890D01*
X154428858Y-150413862D01*
X154556545Y-150345612D01*
X154668463Y-150253763D01*
X154760312Y-150141845D01*
X154828562Y-150014158D01*
X154870590Y-149875610D01*
X154884781Y-149731525D01*
X154881225Y-149695420D01*
X154881225Y-135797330D01*
X154884781Y-135761225D01*
X158487169Y-135761225D01*
X158490726Y-135797340D01*
X158490725Y-149695420D01*
X158487169Y-149731525D01*
X158501360Y-149875610D01*
X158543388Y-150014158D01*
X158611638Y-150141845D01*
X158703487Y-150253763D01*
X158815405Y-150345612D01*
X158943092Y-150413862D01*
X159081640Y-150455890D01*
X159225725Y-150470081D01*
X159261830Y-150466525D01*
X173159620Y-150466525D01*
X173195725Y-150470081D01*
X173231830Y-150466525D01*
X173339810Y-150455890D01*
X173478358Y-150413862D01*
X173606045Y-150345612D01*
X173717963Y-150253763D01*
X173809812Y-150141845D01*
X173878062Y-150014158D01*
X173920090Y-149875610D01*
X173934281Y-149731525D01*
X173930725Y-149695420D01*
X173930725Y-135797330D01*
X173934281Y-135761225D01*
X177537169Y-135761225D01*
X177540726Y-135797340D01*
X177540725Y-149695420D01*
X177537169Y-149731525D01*
X177551360Y-149875610D01*
X177593388Y-150014158D01*
X177661638Y-150141845D01*
X177753487Y-150253763D01*
X177865405Y-150345612D01*
X177993092Y-150413862D01*
X178131640Y-150455890D01*
X178275725Y-150470081D01*
X178311830Y-150466525D01*
X192209620Y-150466525D01*
X192245725Y-150470081D01*
X192281830Y-150466525D01*
X192389810Y-150455890D01*
X192528358Y-150413862D01*
X192656045Y-150345612D01*
X192767963Y-150253763D01*
X192859812Y-150141845D01*
X192928062Y-150014158D01*
X192970090Y-149875610D01*
X192984281Y-149731525D01*
X192980725Y-149695420D01*
X192980725Y-145773575D01*
X196591726Y-145773575D01*
X196591725Y-149695420D01*
X196588169Y-149731525D01*
X196602360Y-149875610D01*
X196644388Y-150014158D01*
X196712638Y-150141845D01*
X196804487Y-150253763D01*
X196916405Y-150345612D01*
X197044092Y-150413862D01*
X197182640Y-150455890D01*
X197326725Y-150470081D01*
X197362830Y-150466525D01*
X211260620Y-150466525D01*
X211296725Y-150470081D01*
X211332830Y-150466525D01*
X211440810Y-150455890D01*
X211579358Y-150413862D01*
X211707045Y-150345612D01*
X211818963Y-150253763D01*
X211910812Y-150141845D01*
X211979062Y-150014158D01*
X212021090Y-149875610D01*
X212035281Y-149731525D01*
X212031725Y-149695420D01*
X212031725Y-135797330D01*
X212035281Y-135761225D01*
X215637169Y-135761225D01*
X215640726Y-135797340D01*
X215640725Y-149695420D01*
X215637169Y-149731525D01*
X215651360Y-149875610D01*
X215693388Y-150014158D01*
X215761638Y-150141845D01*
X215853487Y-150253763D01*
X215965405Y-150345612D01*
X216093092Y-150413862D01*
X216231640Y-150455890D01*
X216375725Y-150470081D01*
X216411830Y-150466525D01*
X230309620Y-150466525D01*
X230345725Y-150470081D01*
X230381830Y-150466525D01*
X230489810Y-150455890D01*
X230628358Y-150413862D01*
X230756045Y-150345612D01*
X230867963Y-150253763D01*
X230959812Y-150141845D01*
X231028062Y-150014158D01*
X231070090Y-149875610D01*
X231084281Y-149731525D01*
X231080725Y-149695420D01*
X231080725Y-135797330D01*
X231084281Y-135761225D01*
X234687169Y-135761225D01*
X234690726Y-135797340D01*
X234690725Y-149695420D01*
X234687169Y-149731525D01*
X234701360Y-149875610D01*
X234743388Y-150014158D01*
X234811638Y-150141845D01*
X234903487Y-150253763D01*
X235015405Y-150345612D01*
X235143092Y-150413862D01*
X235281640Y-150455890D01*
X235425725Y-150470081D01*
X235461830Y-150466525D01*
X249359620Y-150466525D01*
X249395725Y-150470081D01*
X249431830Y-150466525D01*
X249539810Y-150455890D01*
X249678358Y-150413862D01*
X249806045Y-150345612D01*
X249917963Y-150253763D01*
X250009812Y-150141845D01*
X250078062Y-150014158D01*
X250120090Y-149875610D01*
X250134281Y-149731525D01*
X250130725Y-149695420D01*
X250130725Y-135797330D01*
X250134281Y-135761225D01*
X253737169Y-135761225D01*
X253740726Y-135797340D01*
X253740725Y-149695420D01*
X253737169Y-149731525D01*
X253751360Y-149875610D01*
X253793388Y-150014158D01*
X253861638Y-150141845D01*
X253953487Y-150253763D01*
X254065405Y-150345612D01*
X254193092Y-150413862D01*
X254331640Y-150455890D01*
X254475725Y-150470081D01*
X254511830Y-150466525D01*
X268409620Y-150466525D01*
X268445725Y-150470081D01*
X268481830Y-150466525D01*
X268589810Y-150455890D01*
X268728358Y-150413862D01*
X268856045Y-150345612D01*
X268967963Y-150253763D01*
X269059812Y-150141845D01*
X269128062Y-150014158D01*
X269170090Y-149875610D01*
X269184281Y-149731525D01*
X269180725Y-149695420D01*
X269180725Y-135797330D01*
X269184281Y-135761225D01*
X272787169Y-135761225D01*
X272790726Y-135797340D01*
X272790725Y-149695420D01*
X272787169Y-149731525D01*
X272801360Y-149875610D01*
X272843388Y-150014158D01*
X272911638Y-150141845D01*
X273003487Y-150253763D01*
X273115405Y-150345612D01*
X273243092Y-150413862D01*
X273381640Y-150455890D01*
X273525725Y-150470081D01*
X273561830Y-150466525D01*
X287459620Y-150466525D01*
X287495725Y-150470081D01*
X287531830Y-150466525D01*
X287639810Y-150455890D01*
X287778358Y-150413862D01*
X287906045Y-150345612D01*
X288017963Y-150253763D01*
X288109812Y-150141845D01*
X288178062Y-150014158D01*
X288220090Y-149875610D01*
X288234281Y-149731525D01*
X288230725Y-149695420D01*
X288230725Y-135797330D01*
X288234281Y-135761225D01*
X291838169Y-135761225D01*
X291841726Y-135797340D01*
X291841725Y-149695420D01*
X291838169Y-149731525D01*
X291852360Y-149875610D01*
X291894388Y-150014158D01*
X291962638Y-150141845D01*
X292054487Y-150253763D01*
X292166405Y-150345612D01*
X292294092Y-150413862D01*
X292432640Y-150455890D01*
X292576725Y-150470081D01*
X292612830Y-150466525D01*
X306510620Y-150466525D01*
X306546725Y-150470081D01*
X306582830Y-150466525D01*
X306690810Y-150455890D01*
X306829358Y-150413862D01*
X306957045Y-150345612D01*
X307068963Y-150253763D01*
X307160812Y-150141845D01*
X307229062Y-150014158D01*
X307271090Y-149875610D01*
X307285281Y-149731525D01*
X307281725Y-149695420D01*
X307281725Y-135797330D01*
X307285281Y-135761225D01*
X307271090Y-135617140D01*
X307229062Y-135478592D01*
X307160812Y-135350905D01*
X307068963Y-135238987D01*
X306957045Y-135147138D01*
X306829358Y-135078888D01*
X306690810Y-135036860D01*
X306582830Y-135026225D01*
X306546725Y-135022669D01*
X306510620Y-135026225D01*
X292612830Y-135026225D01*
X292576725Y-135022669D01*
X292540620Y-135026225D01*
X292432640Y-135036860D01*
X292294092Y-135078888D01*
X292166405Y-135147138D01*
X292054487Y-135238987D01*
X291962638Y-135350905D01*
X291894388Y-135478592D01*
X291852360Y-135617140D01*
X291838169Y-135761225D01*
X288234281Y-135761225D01*
X288220090Y-135617140D01*
X288178062Y-135478592D01*
X288109812Y-135350905D01*
X288017963Y-135238987D01*
X287906045Y-135147138D01*
X287778358Y-135078888D01*
X287639810Y-135036860D01*
X287531830Y-135026225D01*
X287495725Y-135022669D01*
X287459620Y-135026225D01*
X273561830Y-135026225D01*
X273525725Y-135022669D01*
X273489620Y-135026225D01*
X273381640Y-135036860D01*
X273243092Y-135078888D01*
X273115405Y-135147138D01*
X273003487Y-135238987D01*
X272911638Y-135350905D01*
X272843388Y-135478592D01*
X272801360Y-135617140D01*
X272787169Y-135761225D01*
X269184281Y-135761225D01*
X269170090Y-135617140D01*
X269128062Y-135478592D01*
X269059812Y-135350905D01*
X268967963Y-135238987D01*
X268856045Y-135147138D01*
X268728358Y-135078888D01*
X268589810Y-135036860D01*
X268481830Y-135026225D01*
X268445725Y-135022669D01*
X268409620Y-135026225D01*
X254511830Y-135026225D01*
X254475725Y-135022669D01*
X254439620Y-135026225D01*
X254331640Y-135036860D01*
X254193092Y-135078888D01*
X254065405Y-135147138D01*
X253953487Y-135238987D01*
X253861638Y-135350905D01*
X253793388Y-135478592D01*
X253751360Y-135617140D01*
X253737169Y-135761225D01*
X250134281Y-135761225D01*
X250120090Y-135617140D01*
X250078062Y-135478592D01*
X250009812Y-135350905D01*
X249917963Y-135238987D01*
X249806045Y-135147138D01*
X249678358Y-135078888D01*
X249539810Y-135036860D01*
X249431830Y-135026225D01*
X249395725Y-135022669D01*
X249359620Y-135026225D01*
X235461830Y-135026225D01*
X235425725Y-135022669D01*
X235389620Y-135026225D01*
X235281640Y-135036860D01*
X235143092Y-135078888D01*
X235015405Y-135147138D01*
X234903487Y-135238987D01*
X234811638Y-135350905D01*
X234743388Y-135478592D01*
X234701360Y-135617140D01*
X234687169Y-135761225D01*
X231084281Y-135761225D01*
X231070090Y-135617140D01*
X231028062Y-135478592D01*
X230959812Y-135350905D01*
X230867963Y-135238987D01*
X230756045Y-135147138D01*
X230628358Y-135078888D01*
X230489810Y-135036860D01*
X230381830Y-135026225D01*
X230345725Y-135022669D01*
X230309620Y-135026225D01*
X216411830Y-135026225D01*
X216375725Y-135022669D01*
X216339620Y-135026225D01*
X216231640Y-135036860D01*
X216093092Y-135078888D01*
X215965405Y-135147138D01*
X215853487Y-135238987D01*
X215761638Y-135350905D01*
X215693388Y-135478592D01*
X215651360Y-135617140D01*
X215637169Y-135761225D01*
X212035281Y-135761225D01*
X212021090Y-135617140D01*
X211979062Y-135478592D01*
X211910812Y-135350905D01*
X211818963Y-135238987D01*
X211707045Y-135147138D01*
X211579358Y-135078888D01*
X211440810Y-135036860D01*
X211332830Y-135026225D01*
X211296725Y-135022669D01*
X211260620Y-135026225D01*
X197362830Y-135026225D01*
X197326725Y-135022669D01*
X197290620Y-135026225D01*
X197182640Y-135036860D01*
X197044092Y-135078888D01*
X196916405Y-135147138D01*
X196804487Y-135238987D01*
X196712638Y-135350905D01*
X196644388Y-135478592D01*
X196602360Y-135617140D01*
X196588169Y-135761225D01*
X196591725Y-135797330D01*
X196591726Y-139758750D01*
X192980725Y-139758750D01*
X192980725Y-135797330D01*
X192984281Y-135761225D01*
X192970090Y-135617140D01*
X192928062Y-135478592D01*
X192859812Y-135350905D01*
X192767963Y-135238987D01*
X192656045Y-135147138D01*
X192528358Y-135078888D01*
X192389810Y-135036860D01*
X192281830Y-135026225D01*
X192245725Y-135022669D01*
X192209620Y-135026225D01*
X178311830Y-135026225D01*
X178275725Y-135022669D01*
X178239620Y-135026225D01*
X178131640Y-135036860D01*
X177993092Y-135078888D01*
X177865405Y-135147138D01*
X177753487Y-135238987D01*
X177661638Y-135350905D01*
X177593388Y-135478592D01*
X177551360Y-135617140D01*
X177537169Y-135761225D01*
X173934281Y-135761225D01*
X173920090Y-135617140D01*
X173878062Y-135478592D01*
X173809812Y-135350905D01*
X173717963Y-135238987D01*
X173606045Y-135147138D01*
X173478358Y-135078888D01*
X173339810Y-135036860D01*
X173231830Y-135026225D01*
X173195725Y-135022669D01*
X173159620Y-135026225D01*
X159261830Y-135026225D01*
X159225725Y-135022669D01*
X159189620Y-135026225D01*
X159081640Y-135036860D01*
X158943092Y-135078888D01*
X158815405Y-135147138D01*
X158703487Y-135238987D01*
X158611638Y-135350905D01*
X158543388Y-135478592D01*
X158501360Y-135617140D01*
X158487169Y-135761225D01*
X154884781Y-135761225D01*
X154870590Y-135617140D01*
X154828562Y-135478592D01*
X154760312Y-135350905D01*
X154668463Y-135238987D01*
X154556545Y-135147138D01*
X154428858Y-135078888D01*
X154290310Y-135036860D01*
X154182330Y-135026225D01*
X154146225Y-135022669D01*
X154110120Y-135026225D01*
X140212330Y-135026225D01*
X140176225Y-135022669D01*
X140140120Y-135026225D01*
X140032140Y-135036860D01*
X139893592Y-135078888D01*
X139765905Y-135147138D01*
X139653987Y-135238987D01*
X139562138Y-135350905D01*
X139493888Y-135478592D01*
X139451860Y-135617140D01*
X139437669Y-135761225D01*
X135834781Y-135761225D01*
X135820590Y-135617140D01*
X135778562Y-135478592D01*
X135710312Y-135350905D01*
X135618463Y-135238987D01*
X135506545Y-135147138D01*
X135378858Y-135078888D01*
X135240310Y-135036860D01*
X135132330Y-135026225D01*
X135096225Y-135022669D01*
X135060120Y-135026225D01*
X121162330Y-135026225D01*
X121126225Y-135022669D01*
X121090120Y-135026225D01*
X120982140Y-135036860D01*
X120843592Y-135078888D01*
X120715905Y-135147138D01*
X120603987Y-135238987D01*
X120512138Y-135350905D01*
X120443888Y-135478592D01*
X120401860Y-135617140D01*
X120387669Y-135761225D01*
X116784781Y-135761225D01*
X116770590Y-135617140D01*
X116728562Y-135478592D01*
X116660312Y-135350905D01*
X116568463Y-135238987D01*
X116456545Y-135147138D01*
X116328858Y-135078888D01*
X116190310Y-135036860D01*
X116082330Y-135026225D01*
X116046225Y-135022669D01*
X116010120Y-135026225D01*
X102112330Y-135026225D01*
X102076225Y-135022669D01*
X102040120Y-135026225D01*
X101932140Y-135036860D01*
X101793592Y-135078888D01*
X101665905Y-135147138D01*
X101553987Y-135238987D01*
X101462138Y-135350905D01*
X101393888Y-135478592D01*
X101351860Y-135617140D01*
X101337669Y-135761225D01*
X90591072Y-135761225D01*
X90576890Y-135617240D01*
X90534862Y-135478692D01*
X90466612Y-135351005D01*
X90374763Y-135239087D01*
X90262845Y-135147238D01*
X90135158Y-135078988D01*
X89996610Y-135036960D01*
X89888630Y-135026325D01*
X89852525Y-135022769D01*
X89816420Y-135026325D01*
X75918530Y-135026325D01*
X75882425Y-135022769D01*
X75846320Y-135026325D01*
X75738340Y-135036960D01*
X75599792Y-135078988D01*
X75472105Y-135147238D01*
X75360187Y-135239087D01*
X75268338Y-135351005D01*
X75200088Y-135478692D01*
X75158060Y-135617240D01*
X75143869Y-135761325D01*
X67171875Y-135761325D01*
X67171875Y-116711325D01*
X72762669Y-116711325D01*
X72766226Y-116747440D01*
X72766225Y-130645120D01*
X72762669Y-130681225D01*
X72776860Y-130825310D01*
X72818888Y-130963858D01*
X72887138Y-131091545D01*
X72978987Y-131203463D01*
X73090905Y-131295312D01*
X73218592Y-131363562D01*
X73357140Y-131405590D01*
X73501225Y-131419781D01*
X73537330Y-131416225D01*
X87435120Y-131416225D01*
X87471225Y-131419781D01*
X87507330Y-131416225D01*
X87615310Y-131405590D01*
X87753858Y-131363562D01*
X87881545Y-131295312D01*
X87993463Y-131203463D01*
X88085312Y-131091545D01*
X88153562Y-130963858D01*
X88195590Y-130825310D01*
X88209781Y-130681225D01*
X88206225Y-130645120D01*
X88206225Y-123041344D01*
X88795102Y-123041344D01*
X88795102Y-123656156D01*
X88915046Y-124259155D01*
X89150324Y-124827168D01*
X89491896Y-125338366D01*
X89926634Y-125773104D01*
X90437832Y-126114676D01*
X91005845Y-126349954D01*
X91608844Y-126469898D01*
X92223656Y-126469898D01*
X92826655Y-126349954D01*
X93394668Y-126114676D01*
X93905866Y-125773104D01*
X94340604Y-125338366D01*
X94682176Y-124827168D01*
X94917454Y-124259155D01*
X95037398Y-123656156D01*
X95037398Y-123041344D01*
X94917454Y-122438345D01*
X94682176Y-121870332D01*
X94340604Y-121359134D01*
X93905866Y-120924396D01*
X93394668Y-120582824D01*
X92826655Y-120347546D01*
X92223656Y-120227602D01*
X91608844Y-120227602D01*
X91005845Y-120347546D01*
X90437832Y-120582824D01*
X89926634Y-120924396D01*
X89491896Y-121359134D01*
X89150324Y-121870332D01*
X88915046Y-122438345D01*
X88795102Y-123041344D01*
X88206225Y-123041344D01*
X88206225Y-116747430D01*
X88209781Y-116711325D01*
X96575169Y-116711325D01*
X96578726Y-116747440D01*
X96578725Y-130645220D01*
X96575169Y-130681325D01*
X96589360Y-130825410D01*
X96631388Y-130963958D01*
X96699638Y-131091645D01*
X96791487Y-131203563D01*
X96903283Y-131295312D01*
X96903405Y-131295412D01*
X97031092Y-131363662D01*
X97169640Y-131405690D01*
X97313725Y-131419881D01*
X97349830Y-131416325D01*
X111247620Y-131416325D01*
X111283725Y-131419881D01*
X111319830Y-131416325D01*
X111427810Y-131405690D01*
X111566358Y-131363662D01*
X111694045Y-131295412D01*
X111805963Y-131203563D01*
X111897812Y-131091645D01*
X111966062Y-130963958D01*
X112008090Y-130825410D01*
X112022281Y-130681325D01*
X112018725Y-130645220D01*
X112018725Y-116747430D01*
X112022281Y-116711325D01*
X115625169Y-116711325D01*
X115628726Y-116747440D01*
X115628725Y-130645120D01*
X115625169Y-130681225D01*
X115639360Y-130825310D01*
X115681388Y-130963858D01*
X115749638Y-131091545D01*
X115841487Y-131203463D01*
X115953405Y-131295312D01*
X116081092Y-131363562D01*
X116219640Y-131405590D01*
X116363725Y-131419781D01*
X116399830Y-131416225D01*
X130297620Y-131416225D01*
X130333725Y-131419781D01*
X130369830Y-131416225D01*
X130477810Y-131405590D01*
X130616358Y-131363562D01*
X130744045Y-131295312D01*
X130855963Y-131203463D01*
X130947812Y-131091545D01*
X131016062Y-130963858D01*
X131058090Y-130825310D01*
X131072281Y-130681225D01*
X131068725Y-130645120D01*
X131068725Y-116747430D01*
X131072281Y-116711325D01*
X134675169Y-116711325D01*
X134678726Y-116747440D01*
X134678725Y-130645120D01*
X134675169Y-130681225D01*
X134689360Y-130825310D01*
X134731388Y-130963858D01*
X134799638Y-131091545D01*
X134891487Y-131203463D01*
X135003405Y-131295312D01*
X135131092Y-131363562D01*
X135269640Y-131405590D01*
X135413725Y-131419781D01*
X135449830Y-131416225D01*
X149347620Y-131416225D01*
X149383725Y-131419781D01*
X149419830Y-131416225D01*
X149527810Y-131405590D01*
X149666358Y-131363562D01*
X149794045Y-131295312D01*
X149905963Y-131203463D01*
X149997812Y-131091545D01*
X150066062Y-130963858D01*
X150108090Y-130825310D01*
X150122281Y-130681225D01*
X150118725Y-130645120D01*
X150118725Y-116747430D01*
X150122281Y-116711325D01*
X153725169Y-116711325D01*
X153728726Y-116747440D01*
X153728725Y-130645120D01*
X153725169Y-130681225D01*
X153739360Y-130825310D01*
X153781388Y-130963858D01*
X153849638Y-131091545D01*
X153941487Y-131203463D01*
X154053405Y-131295312D01*
X154181092Y-131363562D01*
X154319640Y-131405590D01*
X154463725Y-131419781D01*
X154499830Y-131416225D01*
X168397620Y-131416225D01*
X168433725Y-131419781D01*
X168469830Y-131416225D01*
X168577810Y-131405590D01*
X168716358Y-131363562D01*
X168844045Y-131295312D01*
X168955963Y-131203463D01*
X169047812Y-131091545D01*
X169116062Y-130963858D01*
X169158090Y-130825310D01*
X169172281Y-130681225D01*
X169168725Y-130645120D01*
X169168725Y-116747430D01*
X169172281Y-116711325D01*
X172775169Y-116711325D01*
X172778726Y-116747440D01*
X172778725Y-130645120D01*
X172775169Y-130681225D01*
X172789360Y-130825310D01*
X172831388Y-130963858D01*
X172899638Y-131091545D01*
X172991487Y-131203463D01*
X173103405Y-131295312D01*
X173231092Y-131363562D01*
X173369640Y-131405590D01*
X173513725Y-131419781D01*
X173549830Y-131416225D01*
X187447620Y-131416225D01*
X187483725Y-131419781D01*
X187519830Y-131416225D01*
X187627810Y-131405590D01*
X187766358Y-131363562D01*
X187894045Y-131295312D01*
X188005963Y-131203463D01*
X188097812Y-131091545D01*
X188166062Y-130963858D01*
X188208090Y-130825310D01*
X188222281Y-130681225D01*
X188218725Y-130645120D01*
X188218725Y-116747430D01*
X188222281Y-116711325D01*
X191825169Y-116711325D01*
X191828726Y-116747440D01*
X191828725Y-130645120D01*
X191825169Y-130681225D01*
X191839360Y-130825310D01*
X191881388Y-130963858D01*
X191949638Y-131091545D01*
X192041487Y-131203463D01*
X192153405Y-131295312D01*
X192281092Y-131363562D01*
X192419640Y-131405590D01*
X192563725Y-131419781D01*
X192599830Y-131416225D01*
X206497620Y-131416225D01*
X206533725Y-131419781D01*
X206569830Y-131416225D01*
X206677810Y-131405590D01*
X206816358Y-131363562D01*
X206944045Y-131295312D01*
X207055963Y-131203463D01*
X207147812Y-131091545D01*
X207216062Y-130963858D01*
X207258090Y-130825310D01*
X207272281Y-130681225D01*
X207268725Y-130645120D01*
X207268725Y-116747430D01*
X207272281Y-116711325D01*
X210875169Y-116711325D01*
X210878726Y-116747440D01*
X210878725Y-130645120D01*
X210875169Y-130681225D01*
X210889360Y-130825310D01*
X210931388Y-130963858D01*
X210999638Y-131091545D01*
X211091487Y-131203463D01*
X211203405Y-131295312D01*
X211331092Y-131363562D01*
X211469640Y-131405590D01*
X211613725Y-131419781D01*
X211649830Y-131416225D01*
X225547620Y-131416225D01*
X225583725Y-131419781D01*
X225619830Y-131416225D01*
X225727810Y-131405590D01*
X225866358Y-131363562D01*
X225994045Y-131295312D01*
X226105963Y-131203463D01*
X226197812Y-131091545D01*
X226266062Y-130963858D01*
X226308090Y-130825310D01*
X226322281Y-130681225D01*
X226318725Y-130645120D01*
X226318725Y-116747430D01*
X226322281Y-116711325D01*
X229925169Y-116711325D01*
X229928726Y-116747440D01*
X229928725Y-130645120D01*
X229925169Y-130681225D01*
X229939360Y-130825310D01*
X229981388Y-130963858D01*
X230049638Y-131091545D01*
X230141487Y-131203463D01*
X230253405Y-131295312D01*
X230381092Y-131363562D01*
X230519640Y-131405590D01*
X230663725Y-131419781D01*
X230699830Y-131416225D01*
X244597620Y-131416225D01*
X244633725Y-131419781D01*
X244669830Y-131416225D01*
X244777810Y-131405590D01*
X244916358Y-131363562D01*
X245044045Y-131295312D01*
X245155963Y-131203463D01*
X245247812Y-131091545D01*
X245316062Y-130963858D01*
X245358090Y-130825310D01*
X245372281Y-130681225D01*
X245368725Y-130645120D01*
X245368725Y-116747430D01*
X245372281Y-116711325D01*
X248975169Y-116711325D01*
X248978726Y-116747440D01*
X248978725Y-130645120D01*
X248975169Y-130681225D01*
X248989360Y-130825310D01*
X249031388Y-130963858D01*
X249099638Y-131091545D01*
X249191487Y-131203463D01*
X249303405Y-131295312D01*
X249431092Y-131363562D01*
X249569640Y-131405590D01*
X249713725Y-131419781D01*
X249749830Y-131416225D01*
X263647620Y-131416225D01*
X263683725Y-131419781D01*
X263719830Y-131416225D01*
X263827810Y-131405590D01*
X263966358Y-131363562D01*
X264094045Y-131295312D01*
X264205963Y-131203463D01*
X264297812Y-131091545D01*
X264366062Y-130963858D01*
X264408090Y-130825310D01*
X264422281Y-130681225D01*
X264418725Y-130645120D01*
X264418725Y-116747430D01*
X264422281Y-116711325D01*
X268025169Y-116711325D01*
X268028726Y-116747440D01*
X268028725Y-130645120D01*
X268025169Y-130681225D01*
X268039360Y-130825310D01*
X268081388Y-130963858D01*
X268149638Y-131091545D01*
X268241487Y-131203463D01*
X268353405Y-131295312D01*
X268481092Y-131363562D01*
X268619640Y-131405590D01*
X268763725Y-131419781D01*
X268799830Y-131416225D01*
X282697620Y-131416225D01*
X282733725Y-131419781D01*
X282769830Y-131416225D01*
X282877810Y-131405590D01*
X283016358Y-131363562D01*
X283144045Y-131295312D01*
X283255963Y-131203463D01*
X283347812Y-131091545D01*
X283416062Y-130963858D01*
X283458090Y-130825310D01*
X283472281Y-130681225D01*
X283468725Y-130645120D01*
X283468725Y-116747430D01*
X283472281Y-116711325D01*
X287075169Y-116711325D01*
X287078726Y-116747440D01*
X287078725Y-130645120D01*
X287075169Y-130681225D01*
X287089360Y-130825310D01*
X287131388Y-130963858D01*
X287199638Y-131091545D01*
X287291487Y-131203463D01*
X287403405Y-131295312D01*
X287531092Y-131363562D01*
X287669640Y-131405590D01*
X287813725Y-131419781D01*
X287849830Y-131416225D01*
X301747620Y-131416225D01*
X301783725Y-131419781D01*
X301819830Y-131416225D01*
X301927810Y-131405590D01*
X302066358Y-131363562D01*
X302194045Y-131295312D01*
X302305963Y-131203463D01*
X302397812Y-131091545D01*
X302466062Y-130963858D01*
X302508090Y-130825310D01*
X302522281Y-130681225D01*
X302518725Y-130645120D01*
X302518725Y-116747430D01*
X302522281Y-116711325D01*
X306125169Y-116711325D01*
X306128726Y-116747440D01*
X306128725Y-130645120D01*
X306125169Y-130681225D01*
X306139360Y-130825310D01*
X306181388Y-130963858D01*
X306249638Y-131091545D01*
X306341487Y-131203463D01*
X306453405Y-131295312D01*
X306581092Y-131363562D01*
X306719640Y-131405590D01*
X306863725Y-131419781D01*
X306899830Y-131416225D01*
X320797620Y-131416225D01*
X320833725Y-131419781D01*
X320869830Y-131416225D01*
X320977810Y-131405590D01*
X321116358Y-131363562D01*
X321244045Y-131295312D01*
X321355963Y-131203463D01*
X321447812Y-131091545D01*
X321516062Y-130963858D01*
X321558090Y-130825310D01*
X321572281Y-130681225D01*
X321568725Y-130645120D01*
X321568725Y-123036721D01*
X323539421Y-123036721D01*
X323539421Y-123660779D01*
X323661168Y-124272845D01*
X323899985Y-124849398D01*
X324246692Y-125368283D01*
X324687967Y-125809558D01*
X325206852Y-126156265D01*
X325783405Y-126395082D01*
X326395471Y-126516829D01*
X327019529Y-126516829D01*
X327631595Y-126395082D01*
X328208148Y-126156265D01*
X328727033Y-125809558D01*
X329168308Y-125368283D01*
X329515015Y-124849398D01*
X329753832Y-124272845D01*
X329875579Y-123660779D01*
X329875579Y-123036721D01*
X329753832Y-122424655D01*
X329515015Y-121848102D01*
X329168308Y-121329217D01*
X328727033Y-120887942D01*
X328208148Y-120541235D01*
X327631595Y-120302418D01*
X327019529Y-120180671D01*
X326395471Y-120180671D01*
X325783405Y-120302418D01*
X325206852Y-120541235D01*
X324687967Y-120887942D01*
X324246692Y-121329217D01*
X323899985Y-121848102D01*
X323661168Y-122424655D01*
X323539421Y-123036721D01*
X321568725Y-123036721D01*
X321568725Y-116747430D01*
X321572281Y-116711325D01*
X329937169Y-116711325D01*
X329940726Y-116747440D01*
X329940725Y-130645120D01*
X329937169Y-130681225D01*
X329951360Y-130825310D01*
X329993388Y-130963858D01*
X330061638Y-131091545D01*
X330153487Y-131203463D01*
X330265405Y-131295312D01*
X330393092Y-131363562D01*
X330531640Y-131405590D01*
X330675725Y-131419781D01*
X330711830Y-131416225D01*
X344609620Y-131416225D01*
X344645725Y-131419781D01*
X344681830Y-131416225D01*
X344789810Y-131405590D01*
X344928358Y-131363562D01*
X345056045Y-131295312D01*
X345167963Y-131203463D01*
X345259812Y-131091545D01*
X345328062Y-130963858D01*
X345370090Y-130825310D01*
X345384281Y-130681225D01*
X345380725Y-130645120D01*
X345380725Y-116747430D01*
X345384281Y-116711325D01*
X345370090Y-116567240D01*
X345328062Y-116428692D01*
X345259812Y-116301005D01*
X345167963Y-116189087D01*
X345056045Y-116097238D01*
X344928358Y-116028988D01*
X344789810Y-115986960D01*
X344681830Y-115976325D01*
X344645725Y-115972769D01*
X344609620Y-115976325D01*
X330711830Y-115976325D01*
X330675725Y-115972769D01*
X330639620Y-115976325D01*
X330531640Y-115986960D01*
X330393092Y-116028988D01*
X330265405Y-116097238D01*
X330153487Y-116189087D01*
X330061638Y-116301005D01*
X329993388Y-116428692D01*
X329951360Y-116567240D01*
X329937169Y-116711325D01*
X321572281Y-116711325D01*
X321558090Y-116567240D01*
X321516062Y-116428692D01*
X321447812Y-116301005D01*
X321355963Y-116189087D01*
X321244045Y-116097238D01*
X321116358Y-116028988D01*
X320977810Y-115986960D01*
X320869830Y-115976325D01*
X320833725Y-115972769D01*
X320797620Y-115976325D01*
X306899830Y-115976325D01*
X306863725Y-115972769D01*
X306827620Y-115976325D01*
X306719640Y-115986960D01*
X306581092Y-116028988D01*
X306453405Y-116097238D01*
X306341487Y-116189087D01*
X306249638Y-116301005D01*
X306181388Y-116428692D01*
X306139360Y-116567240D01*
X306125169Y-116711325D01*
X302522281Y-116711325D01*
X302508090Y-116567240D01*
X302466062Y-116428692D01*
X302397812Y-116301005D01*
X302305963Y-116189087D01*
X302194045Y-116097238D01*
X302066358Y-116028988D01*
X301927810Y-115986960D01*
X301819830Y-115976325D01*
X301783725Y-115972769D01*
X301747620Y-115976325D01*
X287849830Y-115976325D01*
X287813725Y-115972769D01*
X287777620Y-115976325D01*
X287669640Y-115986960D01*
X287531092Y-116028988D01*
X287403405Y-116097238D01*
X287291487Y-116189087D01*
X287199638Y-116301005D01*
X287131388Y-116428692D01*
X287089360Y-116567240D01*
X287075169Y-116711325D01*
X283472281Y-116711325D01*
X283458090Y-116567240D01*
X283416062Y-116428692D01*
X283347812Y-116301005D01*
X283255963Y-116189087D01*
X283144045Y-116097238D01*
X283016358Y-116028988D01*
X282877810Y-115986960D01*
X282769830Y-115976325D01*
X282733725Y-115972769D01*
X282697620Y-115976325D01*
X268799830Y-115976325D01*
X268763725Y-115972769D01*
X268727620Y-115976325D01*
X268619640Y-115986960D01*
X268481092Y-116028988D01*
X268353405Y-116097238D01*
X268241487Y-116189087D01*
X268149638Y-116301005D01*
X268081388Y-116428692D01*
X268039360Y-116567240D01*
X268025169Y-116711325D01*
X264422281Y-116711325D01*
X264408090Y-116567240D01*
X264366062Y-116428692D01*
X264297812Y-116301005D01*
X264205963Y-116189087D01*
X264094045Y-116097238D01*
X263966358Y-116028988D01*
X263827810Y-115986960D01*
X263719830Y-115976325D01*
X263683725Y-115972769D01*
X263647620Y-115976325D01*
X249749830Y-115976325D01*
X249713725Y-115972769D01*
X249677620Y-115976325D01*
X249569640Y-115986960D01*
X249431092Y-116028988D01*
X249303405Y-116097238D01*
X249191487Y-116189087D01*
X249099638Y-116301005D01*
X249031388Y-116428692D01*
X248989360Y-116567240D01*
X248975169Y-116711325D01*
X245372281Y-116711325D01*
X245358090Y-116567240D01*
X245316062Y-116428692D01*
X245247812Y-116301005D01*
X245155963Y-116189087D01*
X245044045Y-116097238D01*
X244916358Y-116028988D01*
X244777810Y-115986960D01*
X244669830Y-115976325D01*
X244633725Y-115972769D01*
X244597620Y-115976325D01*
X230699830Y-115976325D01*
X230663725Y-115972769D01*
X230627620Y-115976325D01*
X230519640Y-115986960D01*
X230381092Y-116028988D01*
X230253405Y-116097238D01*
X230141487Y-116189087D01*
X230049638Y-116301005D01*
X229981388Y-116428692D01*
X229939360Y-116567240D01*
X229925169Y-116711325D01*
X226322281Y-116711325D01*
X226308090Y-116567240D01*
X226266062Y-116428692D01*
X226197812Y-116301005D01*
X226105963Y-116189087D01*
X225994045Y-116097238D01*
X225866358Y-116028988D01*
X225727810Y-115986960D01*
X225619830Y-115976325D01*
X225583725Y-115972769D01*
X225547620Y-115976325D01*
X211649830Y-115976325D01*
X211613725Y-115972769D01*
X211577620Y-115976325D01*
X211469640Y-115986960D01*
X211331092Y-116028988D01*
X211203405Y-116097238D01*
X211091487Y-116189087D01*
X210999638Y-116301005D01*
X210931388Y-116428692D01*
X210889360Y-116567240D01*
X210875169Y-116711325D01*
X207272281Y-116711325D01*
X207258090Y-116567240D01*
X207216062Y-116428692D01*
X207147812Y-116301005D01*
X207055963Y-116189087D01*
X206944045Y-116097238D01*
X206816358Y-116028988D01*
X206677810Y-115986960D01*
X206569830Y-115976325D01*
X206533725Y-115972769D01*
X206497620Y-115976325D01*
X192599830Y-115976325D01*
X192563725Y-115972769D01*
X192527620Y-115976325D01*
X192419640Y-115986960D01*
X192281092Y-116028988D01*
X192153405Y-116097238D01*
X192041487Y-116189087D01*
X191949638Y-116301005D01*
X191881388Y-116428692D01*
X191839360Y-116567240D01*
X191825169Y-116711325D01*
X188222281Y-116711325D01*
X188208090Y-116567240D01*
X188166062Y-116428692D01*
X188097812Y-116301005D01*
X188005963Y-116189087D01*
X187894045Y-116097238D01*
X187766358Y-116028988D01*
X187627810Y-115986960D01*
X187519830Y-115976325D01*
X187483725Y-115972769D01*
X187447620Y-115976325D01*
X173549830Y-115976325D01*
X173513725Y-115972769D01*
X173477620Y-115976325D01*
X173369640Y-115986960D01*
X173231092Y-116028988D01*
X173103405Y-116097238D01*
X172991487Y-116189087D01*
X172899638Y-116301005D01*
X172831388Y-116428692D01*
X172789360Y-116567240D01*
X172775169Y-116711325D01*
X169172281Y-116711325D01*
X169158090Y-116567240D01*
X169116062Y-116428692D01*
X169047812Y-116301005D01*
X168955963Y-116189087D01*
X168844045Y-116097238D01*
X168716358Y-116028988D01*
X168577810Y-115986960D01*
X168469830Y-115976325D01*
X168433725Y-115972769D01*
X168397620Y-115976325D01*
X154499830Y-115976325D01*
X154463725Y-115972769D01*
X154427620Y-115976325D01*
X154319640Y-115986960D01*
X154181092Y-116028988D01*
X154053405Y-116097238D01*
X153941487Y-116189087D01*
X153849638Y-116301005D01*
X153781388Y-116428692D01*
X153739360Y-116567240D01*
X153725169Y-116711325D01*
X150122281Y-116711325D01*
X150108090Y-116567240D01*
X150066062Y-116428692D01*
X149997812Y-116301005D01*
X149905963Y-116189087D01*
X149794045Y-116097238D01*
X149666358Y-116028988D01*
X149527810Y-115986960D01*
X149419830Y-115976325D01*
X149383725Y-115972769D01*
X149347620Y-115976325D01*
X135449830Y-115976325D01*
X135413725Y-115972769D01*
X135377620Y-115976325D01*
X135269640Y-115986960D01*
X135131092Y-116028988D01*
X135003405Y-116097238D01*
X134891487Y-116189087D01*
X134799638Y-116301005D01*
X134731388Y-116428692D01*
X134689360Y-116567240D01*
X134675169Y-116711325D01*
X131072281Y-116711325D01*
X131058090Y-116567240D01*
X131016062Y-116428692D01*
X130947812Y-116301005D01*
X130855963Y-116189087D01*
X130744045Y-116097238D01*
X130616358Y-116028988D01*
X130477810Y-115986960D01*
X130369830Y-115976325D01*
X130333725Y-115972769D01*
X130297620Y-115976325D01*
X116399830Y-115976325D01*
X116363725Y-115972769D01*
X116327620Y-115976325D01*
X116219640Y-115986960D01*
X116081092Y-116028988D01*
X115953405Y-116097238D01*
X115841487Y-116189087D01*
X115749638Y-116301005D01*
X115681388Y-116428692D01*
X115639360Y-116567240D01*
X115625169Y-116711325D01*
X112022281Y-116711325D01*
X112008090Y-116567240D01*
X111966062Y-116428692D01*
X111897812Y-116301005D01*
X111805963Y-116189087D01*
X111694045Y-116097238D01*
X111566358Y-116028988D01*
X111427810Y-115986960D01*
X111319830Y-115976325D01*
X111283725Y-115972769D01*
X111247620Y-115976325D01*
X97349830Y-115976325D01*
X97313725Y-115972769D01*
X97277620Y-115976325D01*
X97169640Y-115986960D01*
X97031092Y-116028988D01*
X96903405Y-116097238D01*
X96791487Y-116189087D01*
X96699638Y-116301005D01*
X96631388Y-116428692D01*
X96589360Y-116567240D01*
X96575169Y-116711325D01*
X88209781Y-116711325D01*
X88195590Y-116567240D01*
X88153562Y-116428692D01*
X88085312Y-116301005D01*
X87993463Y-116189087D01*
X87881545Y-116097238D01*
X87753858Y-116028988D01*
X87615310Y-115986960D01*
X87507330Y-115976325D01*
X87471225Y-115972769D01*
X87435120Y-115976325D01*
X73537330Y-115976325D01*
X73501225Y-115972769D01*
X73465120Y-115976325D01*
X73357140Y-115986960D01*
X73218592Y-116028988D01*
X73090905Y-116097238D01*
X72978987Y-116189087D01*
X72887138Y-116301005D01*
X72818888Y-116428692D01*
X72776860Y-116567240D01*
X72762669Y-116711325D01*
X67171875Y-116711325D01*
X67171875Y-114796875D01*
X351213750Y-114796875D01*
X351213751Y-148807500D01*
G04 #@! TA.AperFunction,NonConductor*
D12*
G36*
X351213751Y-148807500D02*
G01*
X347381125Y-148807500D01*
X347381125Y-137092530D01*
X347384681Y-137056425D01*
X347370490Y-136912340D01*
X347328462Y-136773792D01*
X347260212Y-136646105D01*
X347168363Y-136534187D01*
X347056445Y-136442338D01*
X346928758Y-136374088D01*
X346790210Y-136332060D01*
X346682230Y-136321425D01*
X346646125Y-136317869D01*
X346610020Y-136321425D01*
X339163830Y-136321425D01*
X339127725Y-136317869D01*
X339091620Y-136321425D01*
X338983640Y-136332060D01*
X338845092Y-136374088D01*
X338717405Y-136442338D01*
X338605487Y-136534187D01*
X338513638Y-136646105D01*
X338445388Y-136773792D01*
X338403360Y-136912340D01*
X338389169Y-137056425D01*
X338392725Y-137092530D01*
X338392725Y-137134425D01*
X338237725Y-137134425D01*
X338237725Y-135797330D01*
X338241281Y-135761225D01*
X338227090Y-135617140D01*
X338185062Y-135478592D01*
X338116812Y-135350905D01*
X338024963Y-135238987D01*
X337913045Y-135147138D01*
X337785358Y-135078888D01*
X337646810Y-135036860D01*
X337538830Y-135026225D01*
X337502725Y-135022669D01*
X337466620Y-135026225D01*
X323568829Y-135026225D01*
X323532724Y-135022669D01*
X323496619Y-135026225D01*
X323388639Y-135036860D01*
X323250091Y-135078888D01*
X323122404Y-135147138D01*
X323010486Y-135238987D01*
X322918637Y-135350905D01*
X322850387Y-135478592D01*
X322808359Y-135617140D01*
X322794168Y-135761225D01*
X322797725Y-135797340D01*
X322797724Y-137134425D01*
X322641725Y-137134425D01*
X322641725Y-137092530D01*
X322645281Y-137056425D01*
X322631090Y-136912340D01*
X322589062Y-136773792D01*
X322520812Y-136646105D01*
X322428963Y-136534187D01*
X322317045Y-136442338D01*
X322189358Y-136374088D01*
X322050810Y-136332060D01*
X321942830Y-136321425D01*
X321906725Y-136317869D01*
X321870620Y-136321425D01*
X314424430Y-136321425D01*
X314388325Y-136317869D01*
X314352220Y-136321425D01*
X314244240Y-136332060D01*
X314105692Y-136374088D01*
X313978005Y-136442338D01*
X313866087Y-136534187D01*
X313774238Y-136646105D01*
X313705988Y-136773792D01*
X313663960Y-136912340D01*
X313649769Y-137056425D01*
X313653326Y-137092540D01*
X313653325Y-150482320D01*
X313649769Y-150518425D01*
X313663960Y-150662510D01*
X313705988Y-150801058D01*
X313774238Y-150928745D01*
X313866087Y-151040663D01*
X313978005Y-151132512D01*
X314105692Y-151200762D01*
X314244240Y-151242790D01*
X314388325Y-151256981D01*
X314424430Y-151253425D01*
X321870620Y-151253425D01*
X321906725Y-151256981D01*
X321942830Y-151253425D01*
X322050810Y-151242790D01*
X322189358Y-151200762D01*
X322317045Y-151132512D01*
X322428963Y-151040663D01*
X322520812Y-150928745D01*
X322589062Y-150801058D01*
X322631090Y-150662510D01*
X322645281Y-150518425D01*
X322641725Y-150482320D01*
X322641725Y-149297525D01*
X322797724Y-149297525D01*
X322797724Y-149695419D01*
X322794168Y-149731525D01*
X322808359Y-149875610D01*
X322850387Y-150014158D01*
X322918637Y-150141845D01*
X323010486Y-150253763D01*
X323122404Y-150345612D01*
X323250091Y-150413862D01*
X323388639Y-150455890D01*
X323532724Y-150470081D01*
X323568829Y-150466525D01*
X337466620Y-150466525D01*
X337502725Y-150470081D01*
X337538830Y-150466525D01*
X337646810Y-150455890D01*
X337785358Y-150413862D01*
X337913045Y-150345612D01*
X338024963Y-150253763D01*
X338116812Y-150141845D01*
X338185062Y-150014158D01*
X338227090Y-149875610D01*
X338241281Y-149731525D01*
X338237725Y-149695420D01*
X338237725Y-149297525D01*
X338392726Y-149297525D01*
X338392725Y-150482320D01*
X338389169Y-150518425D01*
X338403360Y-150662510D01*
X338445388Y-150801058D01*
X338513638Y-150928745D01*
X338605487Y-151040663D01*
X338717405Y-151132512D01*
X338845092Y-151200762D01*
X338983640Y-151242790D01*
X339127725Y-151256981D01*
X339163830Y-151253425D01*
X344070000Y-151253425D01*
X344070001Y-154076525D01*
X335474830Y-154076525D01*
X335438725Y-154072969D01*
X335402620Y-154076525D01*
X335294640Y-154087160D01*
X335156092Y-154129188D01*
X335028405Y-154197438D01*
X334916487Y-154289287D01*
X334824638Y-154401205D01*
X334756388Y-154528892D01*
X334714360Y-154667440D01*
X334700169Y-154811525D01*
X334703726Y-154847640D01*
X334703725Y-169532420D01*
X334700169Y-169568525D01*
X334714360Y-169712610D01*
X334756388Y-169851158D01*
X334824638Y-169978845D01*
X334916487Y-170090763D01*
X335028405Y-170182612D01*
X335156092Y-170250862D01*
X335294640Y-170292890D01*
X335438725Y-170307081D01*
X335474830Y-170303525D01*
X339942620Y-170303525D01*
X339978725Y-170307081D01*
X340014830Y-170303525D01*
X340122810Y-170292890D01*
X340261358Y-170250862D01*
X340389045Y-170182612D01*
X340500963Y-170090763D01*
X340592812Y-169978845D01*
X340661062Y-169851158D01*
X340703090Y-169712610D01*
X340717281Y-169568525D01*
X340713725Y-169532420D01*
X340713725Y-169516525D01*
X349372620Y-169516525D01*
X349408725Y-169520081D01*
X349444830Y-169516525D01*
X349552810Y-169505890D01*
X349691358Y-169463862D01*
X349819045Y-169395612D01*
X349930963Y-169303763D01*
X350022812Y-169191845D01*
X350091062Y-169064158D01*
X350133090Y-168925610D01*
X350147281Y-168781525D01*
X350143725Y-168745420D01*
X350143725Y-155040000D01*
X351213751Y-155040000D01*
X351213750Y-187606553D01*
X351178940Y-187961573D01*
X351086274Y-188268496D01*
X350935761Y-188551570D01*
X350733130Y-188800020D01*
X350486101Y-189004380D01*
X350204077Y-189156870D01*
X349897820Y-189251673D01*
X349545049Y-189288750D01*
X68854072Y-189288750D01*
X68499052Y-189253940D01*
X68192129Y-189161274D01*
X67909055Y-189010761D01*
X67660605Y-188808130D01*
X67456245Y-188561101D01*
X67303755Y-188279077D01*
X67208952Y-187972820D01*
X67171875Y-187620049D01*
X67171875Y-173861524D01*
X72762669Y-173861524D01*
X72766226Y-173897639D01*
X72766225Y-187795420D01*
X72762669Y-187831525D01*
X72776860Y-187975610D01*
X72818888Y-188114158D01*
X72887138Y-188241845D01*
X72978987Y-188353763D01*
X73028161Y-188394119D01*
X73090905Y-188445612D01*
X73218592Y-188513862D01*
X73357140Y-188555890D01*
X73501225Y-188570081D01*
X73537330Y-188566525D01*
X87435120Y-188566525D01*
X87471225Y-188570081D01*
X87507330Y-188566525D01*
X87615310Y-188555890D01*
X87753858Y-188513862D01*
X87881545Y-188445612D01*
X87993463Y-188353763D01*
X88085312Y-188241845D01*
X88153562Y-188114158D01*
X88195590Y-187975610D01*
X88209781Y-187831525D01*
X88206225Y-187795420D01*
X88206225Y-173897628D01*
X88209781Y-173861524D01*
X96575169Y-173861524D01*
X96578726Y-173897639D01*
X96578725Y-187795420D01*
X96575169Y-187831525D01*
X96589360Y-187975610D01*
X96631388Y-188114158D01*
X96699638Y-188241845D01*
X96791487Y-188353763D01*
X96840661Y-188394119D01*
X96903405Y-188445612D01*
X97031092Y-188513862D01*
X97169640Y-188555890D01*
X97313725Y-188570081D01*
X97349830Y-188566525D01*
X111247620Y-188566525D01*
X111283725Y-188570081D01*
X111319830Y-188566525D01*
X111427810Y-188555890D01*
X111566358Y-188513862D01*
X111694045Y-188445612D01*
X111805963Y-188353763D01*
X111897812Y-188241845D01*
X111966062Y-188114158D01*
X112008090Y-187975610D01*
X112022281Y-187831525D01*
X112018725Y-187795420D01*
X112018725Y-173897628D01*
X112022281Y-173861524D01*
X120387669Y-173861524D01*
X120391226Y-173897639D01*
X120391225Y-187795420D01*
X120387669Y-187831525D01*
X120401860Y-187975610D01*
X120443888Y-188114158D01*
X120512138Y-188241845D01*
X120603987Y-188353763D01*
X120653161Y-188394119D01*
X120715905Y-188445612D01*
X120843592Y-188513862D01*
X120982140Y-188555890D01*
X121126225Y-188570081D01*
X121162330Y-188566525D01*
X135060120Y-188566525D01*
X135096225Y-188570081D01*
X135132330Y-188566525D01*
X135240310Y-188555890D01*
X135378858Y-188513862D01*
X135506545Y-188445612D01*
X135618463Y-188353763D01*
X135710312Y-188241845D01*
X135778562Y-188114158D01*
X135820590Y-187975610D01*
X135834781Y-187831525D01*
X135831225Y-187795420D01*
X135831225Y-173897628D01*
X135834781Y-173861524D01*
X135820590Y-173717439D01*
X135778562Y-173578891D01*
X135710312Y-173451204D01*
X135618463Y-173339286D01*
X135506545Y-173247437D01*
X135378858Y-173179187D01*
X135240310Y-173137159D01*
X135132330Y-173126524D01*
X135096225Y-173122968D01*
X135060120Y-173126524D01*
X121162330Y-173126524D01*
X121126225Y-173122968D01*
X121090120Y-173126524D01*
X120982140Y-173137159D01*
X120843592Y-173179187D01*
X120715905Y-173247437D01*
X120603987Y-173339286D01*
X120512138Y-173451204D01*
X120443888Y-173578891D01*
X120401860Y-173717439D01*
X120387669Y-173861524D01*
X112022281Y-173861524D01*
X112008090Y-173717439D01*
X111966062Y-173578891D01*
X111897812Y-173451204D01*
X111805963Y-173339286D01*
X111694045Y-173247437D01*
X111566358Y-173179187D01*
X111427810Y-173137159D01*
X111319830Y-173126524D01*
X111283725Y-173122968D01*
X111247620Y-173126524D01*
X97349830Y-173126524D01*
X97313725Y-173122968D01*
X97277620Y-173126524D01*
X97169640Y-173137159D01*
X97031092Y-173179187D01*
X96903405Y-173247437D01*
X96791487Y-173339286D01*
X96699638Y-173451204D01*
X96631388Y-173578891D01*
X96589360Y-173717439D01*
X96575169Y-173861524D01*
X88209781Y-173861524D01*
X88195590Y-173717439D01*
X88153562Y-173578891D01*
X88085312Y-173451204D01*
X87993463Y-173339286D01*
X87881545Y-173247437D01*
X87753858Y-173179187D01*
X87615310Y-173137159D01*
X87507330Y-173126524D01*
X87471225Y-173122968D01*
X87435120Y-173126524D01*
X73537330Y-173126524D01*
X73501225Y-173122968D01*
X73465120Y-173126524D01*
X73357140Y-173137159D01*
X73218592Y-173179187D01*
X73090905Y-173247437D01*
X72978987Y-173339286D01*
X72887138Y-173451204D01*
X72818888Y-173578891D01*
X72776860Y-173717439D01*
X72762669Y-173861524D01*
X67171875Y-173861524D01*
X67171875Y-173073525D01*
X146994169Y-173073525D01*
X146997726Y-173109640D01*
X146997725Y-186499420D01*
X146994169Y-186535525D01*
X147008360Y-186679610D01*
X147050388Y-186818158D01*
X147118638Y-186945845D01*
X147210487Y-187057763D01*
X147289708Y-187122778D01*
X147322405Y-187149612D01*
X147450092Y-187217862D01*
X147588640Y-187259890D01*
X147732725Y-187274081D01*
X147768830Y-187270525D01*
X159945620Y-187270525D01*
X159981725Y-187274081D01*
X160017830Y-187270525D01*
X160125810Y-187259890D01*
X160264358Y-187217862D01*
X160392045Y-187149612D01*
X160503963Y-187057763D01*
X160595812Y-186945845D01*
X160664062Y-186818158D01*
X160706090Y-186679610D01*
X160720281Y-186535525D01*
X160716725Y-186499420D01*
X160716725Y-186458525D01*
X160872726Y-186458525D01*
X160872725Y-187795420D01*
X160869169Y-187831525D01*
X160883360Y-187975610D01*
X160925388Y-188114158D01*
X160993638Y-188241845D01*
X161085487Y-188353763D01*
X161134661Y-188394119D01*
X161197405Y-188445612D01*
X161325092Y-188513862D01*
X161463640Y-188555890D01*
X161607725Y-188570081D01*
X161643830Y-188566525D01*
X175541620Y-188566525D01*
X175577725Y-188570081D01*
X175613830Y-188566525D01*
X175721810Y-188555890D01*
X175860358Y-188513862D01*
X175988045Y-188445612D01*
X176099963Y-188353763D01*
X176191812Y-188241845D01*
X176260062Y-188114158D01*
X176302090Y-187975610D01*
X176316281Y-187831525D01*
X176312725Y-187795420D01*
X176312725Y-186458525D01*
X176467725Y-186458525D01*
X176467725Y-186499420D01*
X176464169Y-186535525D01*
X176478360Y-186679610D01*
X176520388Y-186818158D01*
X176588638Y-186945845D01*
X176680487Y-187057763D01*
X176759708Y-187122778D01*
X176792405Y-187149612D01*
X176920092Y-187217862D01*
X177058640Y-187259890D01*
X177202725Y-187274081D01*
X177238830Y-187270525D01*
X183821620Y-187270525D01*
X183857725Y-187274081D01*
X183893830Y-187270525D01*
X184001810Y-187259890D01*
X184140358Y-187217862D01*
X184268045Y-187149612D01*
X184379963Y-187057763D01*
X184471812Y-186945845D01*
X184540062Y-186818158D01*
X184582090Y-186679610D01*
X184596281Y-186535525D01*
X184592725Y-186499420D01*
X184592725Y-183138750D01*
X196591725Y-183138750D01*
X196591726Y-187795410D01*
X196588169Y-187831525D01*
X196602360Y-187975610D01*
X196644388Y-188114158D01*
X196712638Y-188241845D01*
X196804487Y-188353763D01*
X196916405Y-188445612D01*
X197044092Y-188513862D01*
X197182640Y-188555890D01*
X197290620Y-188566525D01*
X197326725Y-188570081D01*
X197362830Y-188566525D01*
X254122620Y-188566525D01*
X254158725Y-188570081D01*
X254194830Y-188566525D01*
X254302810Y-188555890D01*
X254441358Y-188513862D01*
X254569045Y-188445612D01*
X254680963Y-188353763D01*
X254772812Y-188241845D01*
X254841062Y-188114158D01*
X254883090Y-187975610D01*
X254897281Y-187831525D01*
X254893725Y-187795420D01*
X254893725Y-183138750D01*
X258503726Y-183138750D01*
X258503725Y-187795420D01*
X258500169Y-187831525D01*
X258514360Y-187975610D01*
X258556388Y-188114158D01*
X258624638Y-188241845D01*
X258716487Y-188353763D01*
X258765661Y-188394119D01*
X258828405Y-188445612D01*
X258956092Y-188513862D01*
X259094640Y-188555890D01*
X259238725Y-188570081D01*
X259274830Y-188566525D01*
X273172620Y-188566525D01*
X273208725Y-188570081D01*
X273244830Y-188566525D01*
X273352810Y-188555890D01*
X273491358Y-188513862D01*
X273619045Y-188445612D01*
X273730963Y-188353763D01*
X273822812Y-188241845D01*
X273891062Y-188114158D01*
X273933090Y-187975610D01*
X273947281Y-187831525D01*
X273943725Y-187795420D01*
X273943725Y-173897628D01*
X273947281Y-173861524D01*
X277550169Y-173861524D01*
X277553726Y-173897639D01*
X277553725Y-187795420D01*
X277550169Y-187831525D01*
X277564360Y-187975610D01*
X277606388Y-188114158D01*
X277674638Y-188241845D01*
X277766487Y-188353763D01*
X277815661Y-188394119D01*
X277878405Y-188445612D01*
X278006092Y-188513862D01*
X278144640Y-188555890D01*
X278288725Y-188570081D01*
X278324830Y-188566525D01*
X349372620Y-188566525D01*
X349408725Y-188570081D01*
X349444830Y-188566525D01*
X349552810Y-188555890D01*
X349691358Y-188513862D01*
X349819045Y-188445612D01*
X349930963Y-188353763D01*
X350022812Y-188241845D01*
X350091062Y-188114158D01*
X350133090Y-187975610D01*
X350147281Y-187831525D01*
X350143725Y-187795420D01*
X350143725Y-173897628D01*
X350147281Y-173861524D01*
X350133090Y-173717439D01*
X350091062Y-173578891D01*
X350022812Y-173451204D01*
X349930963Y-173339286D01*
X349819045Y-173247437D01*
X349691358Y-173179187D01*
X349552810Y-173137159D01*
X349444830Y-173126524D01*
X349408725Y-173122968D01*
X349372620Y-173126524D01*
X278324830Y-173126524D01*
X278288725Y-173122968D01*
X278252620Y-173126524D01*
X278144640Y-173137159D01*
X278006092Y-173179187D01*
X277878405Y-173247437D01*
X277766487Y-173339286D01*
X277674638Y-173451204D01*
X277606388Y-173578891D01*
X277564360Y-173717439D01*
X277550169Y-173861524D01*
X273947281Y-173861524D01*
X273933090Y-173717439D01*
X273891062Y-173578891D01*
X273822812Y-173451204D01*
X273730963Y-173339286D01*
X273619045Y-173247437D01*
X273491358Y-173179187D01*
X273352810Y-173137159D01*
X273244830Y-173126524D01*
X273208725Y-173122968D01*
X273172620Y-173126524D01*
X269244725Y-173126524D01*
X269244725Y-173110629D01*
X269248281Y-173074524D01*
X269234090Y-172930439D01*
X269192062Y-172791891D01*
X269123812Y-172664204D01*
X269031963Y-172552286D01*
X268920045Y-172460437D01*
X268792358Y-172392187D01*
X268653810Y-172350159D01*
X268545830Y-172339524D01*
X268509725Y-172335968D01*
X268473620Y-172339524D01*
X263973830Y-172339524D01*
X263937725Y-172335968D01*
X263901620Y-172339524D01*
X263793640Y-172350159D01*
X263655092Y-172392187D01*
X263527405Y-172460437D01*
X263415487Y-172552286D01*
X263323638Y-172664204D01*
X263255388Y-172791891D01*
X263213360Y-172930439D01*
X263199169Y-173074524D01*
X263202725Y-173110629D01*
X263202725Y-173126524D01*
X259274830Y-173126524D01*
X259238725Y-173122968D01*
X259202620Y-173126524D01*
X259094640Y-173137159D01*
X258956092Y-173179187D01*
X258828405Y-173247437D01*
X258716487Y-173339286D01*
X258624638Y-173451204D01*
X258556388Y-173578891D01*
X258514360Y-173717439D01*
X258500169Y-173861524D01*
X258503725Y-173897628D01*
X258503726Y-178096875D01*
X254893725Y-178096875D01*
X254893725Y-173897700D01*
X254897280Y-173861682D01*
X254893725Y-173825508D01*
X254893725Y-173825419D01*
X254889763Y-173785195D01*
X254883120Y-173717595D01*
X254883098Y-173717523D01*
X254883090Y-173717439D01*
X254860893Y-173644265D01*
X254841122Y-173579038D01*
X254841086Y-173578971D01*
X254841062Y-173578891D01*
X254804937Y-173511306D01*
X254772899Y-173451336D01*
X254772852Y-173451278D01*
X254772812Y-173451204D01*
X254725602Y-173393680D01*
X254681074Y-173339398D01*
X254681012Y-173339347D01*
X254680962Y-173339286D01*
X254625466Y-173293741D01*
X254569176Y-173247525D01*
X254569105Y-173247487D01*
X254569044Y-173247437D01*
X254504588Y-173212984D01*
X254441503Y-173179248D01*
X254441429Y-173179226D01*
X254441357Y-173179187D01*
X254370767Y-173157774D01*
X254302964Y-173137190D01*
X254302886Y-173137182D01*
X254302809Y-173137159D01*
X254229800Y-173129968D01*
X254194987Y-173126532D01*
X254194911Y-173126532D01*
X254158725Y-173122968D01*
X254122696Y-173126517D01*
X250226725Y-173125683D01*
X250226725Y-173109630D01*
X250230281Y-173073525D01*
X250216090Y-172929440D01*
X250174062Y-172790892D01*
X250105812Y-172663205D01*
X250013963Y-172551287D01*
X249902045Y-172459438D01*
X249774358Y-172391188D01*
X249635810Y-172349160D01*
X249527830Y-172338525D01*
X249491725Y-172334969D01*
X249455620Y-172338525D01*
X240129830Y-172338525D01*
X240093725Y-172334969D01*
X240057620Y-172338525D01*
X239949640Y-172349160D01*
X239811092Y-172391188D01*
X239683405Y-172459438D01*
X239571487Y-172551287D01*
X239479638Y-172663205D01*
X239411388Y-172790892D01*
X239369360Y-172929440D01*
X239355169Y-173073525D01*
X239358725Y-173109630D01*
X239358725Y-173125525D01*
X226350725Y-173125525D01*
X226350725Y-173109630D01*
X226354281Y-173073525D01*
X226340090Y-172929440D01*
X226298062Y-172790892D01*
X226229812Y-172663205D01*
X226137963Y-172551287D01*
X226026045Y-172459438D01*
X225898358Y-172391188D01*
X225759810Y-172349160D01*
X225651830Y-172338525D01*
X225615725Y-172334969D01*
X225579620Y-172338525D01*
X221079830Y-172338525D01*
X221043725Y-172334969D01*
X221007620Y-172338525D01*
X220899640Y-172349160D01*
X220761092Y-172391188D01*
X220633405Y-172459438D01*
X220521487Y-172551287D01*
X220429638Y-172663205D01*
X220361388Y-172790892D01*
X220319360Y-172929440D01*
X220305169Y-173073525D01*
X220308725Y-173109630D01*
X220308725Y-173125577D01*
X207427500Y-173126473D01*
X207427500Y-173109630D01*
X207431056Y-173073525D01*
X207416865Y-172929440D01*
X207374837Y-172790892D01*
X207306587Y-172663205D01*
X207214738Y-172551287D01*
X207102820Y-172459438D01*
X206975133Y-172391188D01*
X206836585Y-172349160D01*
X206728605Y-172338525D01*
X206692500Y-172334969D01*
X206656395Y-172338525D01*
X201966105Y-172338525D01*
X201930000Y-172334969D01*
X201893895Y-172338525D01*
X201785915Y-172349160D01*
X201647367Y-172391188D01*
X201519680Y-172459438D01*
X201407762Y-172551287D01*
X201315913Y-172663205D01*
X201247663Y-172790892D01*
X201205635Y-172929440D01*
X201191444Y-173073525D01*
X201195000Y-173109630D01*
X201195000Y-173126524D01*
X197362830Y-173126524D01*
X197326725Y-173122968D01*
X197290620Y-173126524D01*
X197182640Y-173137159D01*
X197044092Y-173179187D01*
X196916405Y-173247437D01*
X196804487Y-173339286D01*
X196712638Y-173451204D01*
X196644388Y-173578891D01*
X196602360Y-173717439D01*
X196588169Y-173861524D01*
X196591726Y-173897639D01*
X196591725Y-178096875D01*
X184592725Y-178096875D01*
X184592725Y-173109630D01*
X184596281Y-173073525D01*
X184582090Y-172929440D01*
X184540062Y-172790892D01*
X184471812Y-172663205D01*
X184379963Y-172551287D01*
X184268045Y-172459438D01*
X184140358Y-172391188D01*
X184001810Y-172349160D01*
X183893830Y-172338525D01*
X183857725Y-172334969D01*
X183821620Y-172338525D01*
X177238830Y-172338525D01*
X177202725Y-172334969D01*
X177166620Y-172338525D01*
X177058640Y-172349160D01*
X176920092Y-172391188D01*
X176792405Y-172459438D01*
X176680487Y-172551287D01*
X176588638Y-172663205D01*
X176520388Y-172790892D01*
X176478360Y-172929440D01*
X176464169Y-173073525D01*
X176467726Y-173109640D01*
X176467725Y-174294525D01*
X176312725Y-174294525D01*
X176312725Y-173897628D01*
X176316281Y-173861524D01*
X176302090Y-173717439D01*
X176260062Y-173578891D01*
X176191812Y-173451204D01*
X176099963Y-173339286D01*
X175988045Y-173247437D01*
X175860358Y-173179187D01*
X175721810Y-173137159D01*
X175613830Y-173126524D01*
X175577725Y-173122968D01*
X175541620Y-173126524D01*
X161643830Y-173126524D01*
X161607725Y-173122968D01*
X161571620Y-173126524D01*
X161463640Y-173137159D01*
X161325092Y-173179187D01*
X161197405Y-173247437D01*
X161085487Y-173339286D01*
X160993638Y-173451204D01*
X160925388Y-173578891D01*
X160883360Y-173717439D01*
X160869169Y-173861524D01*
X160872726Y-173897639D01*
X160872726Y-174294525D01*
X160716725Y-174294525D01*
X160716725Y-173109630D01*
X160720281Y-173073525D01*
X160706090Y-172929440D01*
X160664062Y-172790892D01*
X160595812Y-172663205D01*
X160503963Y-172551287D01*
X160392045Y-172459438D01*
X160264358Y-172391188D01*
X160125810Y-172349160D01*
X160017830Y-172338525D01*
X159981725Y-172334969D01*
X159945620Y-172338525D01*
X147768830Y-172338525D01*
X147732725Y-172334969D01*
X147696620Y-172338525D01*
X147588640Y-172349160D01*
X147450092Y-172391188D01*
X147322405Y-172459438D01*
X147210487Y-172551287D01*
X147118638Y-172663205D01*
X147050388Y-172790892D01*
X147008360Y-172929440D01*
X146994169Y-173073525D01*
X67171875Y-173073525D01*
X67171875Y-156106525D01*
X70762369Y-156106525D01*
X70765926Y-156142640D01*
X70765925Y-169532420D01*
X70762369Y-169568525D01*
X70776560Y-169712610D01*
X70818588Y-169851158D01*
X70886838Y-169978845D01*
X70978687Y-170090763D01*
X71090605Y-170182612D01*
X71218292Y-170250862D01*
X71356840Y-170292890D01*
X71500925Y-170307081D01*
X71537030Y-170303525D01*
X78983220Y-170303525D01*
X79019325Y-170307081D01*
X79055430Y-170303525D01*
X79163410Y-170292890D01*
X79301958Y-170250862D01*
X79429645Y-170182612D01*
X79541563Y-170090763D01*
X79633412Y-169978845D01*
X79701662Y-169851158D01*
X79743690Y-169712610D01*
X79757881Y-169568525D01*
X79754325Y-169532420D01*
X79754325Y-168347525D01*
X79909925Y-168347525D01*
X79909925Y-168745419D01*
X79906369Y-168781525D01*
X79920560Y-168925610D01*
X79962588Y-169064158D01*
X80030838Y-169191845D01*
X80122687Y-169303763D01*
X80234605Y-169395612D01*
X80362292Y-169463862D01*
X80500840Y-169505890D01*
X80644925Y-169520081D01*
X80681030Y-169516525D01*
X94578820Y-169516525D01*
X94614925Y-169520081D01*
X94651030Y-169516525D01*
X94759010Y-169505890D01*
X94897558Y-169463862D01*
X95025245Y-169395612D01*
X95137163Y-169303763D01*
X95229012Y-169191845D01*
X95297262Y-169064158D01*
X95339290Y-168925610D01*
X95353481Y-168781525D01*
X95349925Y-168745420D01*
X95349925Y-168347525D01*
X95505526Y-168347525D01*
X95505525Y-169532420D01*
X95501969Y-169568525D01*
X95516160Y-169712610D01*
X95558188Y-169851158D01*
X95626438Y-169978845D01*
X95718287Y-170090763D01*
X95830205Y-170182612D01*
X95957892Y-170250862D01*
X96096440Y-170292890D01*
X96240525Y-170307081D01*
X96276630Y-170303525D01*
X103722820Y-170303525D01*
X103758925Y-170307081D01*
X103795030Y-170303525D01*
X103903010Y-170292890D01*
X104041558Y-170250862D01*
X104169245Y-170182612D01*
X104281163Y-170090763D01*
X104373012Y-169978845D01*
X104441262Y-169851158D01*
X104483290Y-169712610D01*
X104497481Y-169568525D01*
X104493925Y-169532420D01*
X104493925Y-156142630D01*
X104497481Y-156106525D01*
X104483290Y-155962440D01*
X104441262Y-155823892D01*
X104373012Y-155696205D01*
X104281163Y-155584287D01*
X104169245Y-155492438D01*
X104041558Y-155424188D01*
X103903010Y-155382160D01*
X103795030Y-155371525D01*
X103758925Y-155367969D01*
X103722820Y-155371525D01*
X96276630Y-155371525D01*
X96240525Y-155367969D01*
X96204420Y-155371525D01*
X96096440Y-155382160D01*
X95957892Y-155424188D01*
X95830205Y-155492438D01*
X95718287Y-155584287D01*
X95626438Y-155696205D01*
X95558188Y-155823892D01*
X95516160Y-155962440D01*
X95501969Y-156106525D01*
X95505525Y-156142630D01*
X95505525Y-156184525D01*
X95349925Y-156184525D01*
X95349925Y-154847630D01*
X95353481Y-154811525D01*
X110862669Y-154811525D01*
X110866226Y-154847640D01*
X110866225Y-168745420D01*
X110862669Y-168781525D01*
X110876860Y-168925610D01*
X110918888Y-169064158D01*
X110987138Y-169191845D01*
X111078987Y-169303763D01*
X111190905Y-169395612D01*
X111318592Y-169463862D01*
X111457140Y-169505890D01*
X111601225Y-169520081D01*
X111637330Y-169516525D01*
X125535120Y-169516525D01*
X125571225Y-169520081D01*
X125607330Y-169516525D01*
X125715310Y-169505890D01*
X125853858Y-169463862D01*
X125981545Y-169395612D01*
X126093463Y-169303763D01*
X126185312Y-169191845D01*
X126253562Y-169064158D01*
X126295590Y-168925610D01*
X126309781Y-168781525D01*
X126306225Y-168745420D01*
X126306225Y-154847630D01*
X126309781Y-154811525D01*
X129912669Y-154811525D01*
X129916226Y-154847640D01*
X129916225Y-168745420D01*
X129912669Y-168781525D01*
X129926860Y-168925610D01*
X129968888Y-169064158D01*
X130037138Y-169191845D01*
X130128987Y-169303763D01*
X130240905Y-169395612D01*
X130368592Y-169463862D01*
X130507140Y-169505890D01*
X130651225Y-169520081D01*
X130687330Y-169516525D01*
X144585120Y-169516525D01*
X144621225Y-169520081D01*
X144657330Y-169516525D01*
X144765310Y-169505890D01*
X144903858Y-169463862D01*
X145031545Y-169395612D01*
X145143463Y-169303763D01*
X145235312Y-169191845D01*
X145303562Y-169064158D01*
X145345590Y-168925610D01*
X145359781Y-168781525D01*
X145356225Y-168745420D01*
X145356225Y-154847630D01*
X145359781Y-154811525D01*
X148962669Y-154811525D01*
X148966226Y-154847640D01*
X148966225Y-168745420D01*
X148962669Y-168781525D01*
X148976860Y-168925610D01*
X149018888Y-169064158D01*
X149087138Y-169191845D01*
X149178987Y-169303763D01*
X149290905Y-169395612D01*
X149418592Y-169463862D01*
X149557140Y-169505890D01*
X149701225Y-169520081D01*
X149737330Y-169516525D01*
X163634620Y-169516525D01*
X163670725Y-169520081D01*
X163706830Y-169516525D01*
X163814810Y-169505890D01*
X163953358Y-169463862D01*
X164081045Y-169395612D01*
X164192963Y-169303763D01*
X164284812Y-169191845D01*
X164353062Y-169064158D01*
X164395090Y-168925610D01*
X164409281Y-168781525D01*
X164405725Y-168745420D01*
X164405725Y-154847630D01*
X164409281Y-154811525D01*
X168013169Y-154811525D01*
X168016726Y-154847640D01*
X168016725Y-168745420D01*
X168013169Y-168781525D01*
X168027360Y-168925610D01*
X168069388Y-169064158D01*
X168137638Y-169191845D01*
X168229487Y-169303763D01*
X168341405Y-169395612D01*
X168469092Y-169463862D01*
X168607640Y-169505890D01*
X168751725Y-169520081D01*
X168787830Y-169516525D01*
X182684620Y-169516525D01*
X182720725Y-169520081D01*
X182756830Y-169516525D01*
X182864810Y-169505890D01*
X183003358Y-169463862D01*
X183131045Y-169395612D01*
X183242963Y-169303763D01*
X183334812Y-169191845D01*
X183403062Y-169064158D01*
X183445090Y-168925610D01*
X183459281Y-168781525D01*
X183455725Y-168745420D01*
X183455725Y-154847630D01*
X183459281Y-154811525D01*
X187062169Y-154811525D01*
X187065726Y-154847640D01*
X187065725Y-168745420D01*
X187062169Y-168781525D01*
X187076360Y-168925610D01*
X187118388Y-169064158D01*
X187186638Y-169191845D01*
X187278487Y-169303763D01*
X187390405Y-169395612D01*
X187518092Y-169463862D01*
X187656640Y-169505890D01*
X187800725Y-169520081D01*
X187836830Y-169516525D01*
X201734620Y-169516525D01*
X201770725Y-169520081D01*
X201806830Y-169516525D01*
X201914810Y-169505890D01*
X202053358Y-169463862D01*
X202181045Y-169395612D01*
X202292963Y-169303763D01*
X202384812Y-169191845D01*
X202453062Y-169064158D01*
X202495090Y-168925610D01*
X202509281Y-168781525D01*
X202505725Y-168745420D01*
X202505725Y-154847630D01*
X202509281Y-154811525D01*
X206112169Y-154811525D01*
X206115726Y-154847640D01*
X206115725Y-168745420D01*
X206112169Y-168781525D01*
X206126360Y-168925610D01*
X206168388Y-169064158D01*
X206236638Y-169191845D01*
X206328487Y-169303763D01*
X206440405Y-169395612D01*
X206568092Y-169463862D01*
X206706640Y-169505890D01*
X206850725Y-169520081D01*
X206886830Y-169516525D01*
X220784620Y-169516525D01*
X220820725Y-169520081D01*
X220856830Y-169516525D01*
X220964810Y-169505890D01*
X221103358Y-169463862D01*
X221231045Y-169395612D01*
X221342963Y-169303763D01*
X221434812Y-169191845D01*
X221503062Y-169064158D01*
X221545090Y-168925610D01*
X221559281Y-168781525D01*
X221555725Y-168745420D01*
X221555725Y-154847630D01*
X221559281Y-154811525D01*
X225162169Y-154811525D01*
X225165726Y-154847640D01*
X225165725Y-168745420D01*
X225162169Y-168781525D01*
X225176360Y-168925610D01*
X225218388Y-169064158D01*
X225286638Y-169191845D01*
X225378487Y-169303763D01*
X225490405Y-169395612D01*
X225618092Y-169463862D01*
X225756640Y-169505890D01*
X225900725Y-169520081D01*
X225936830Y-169516525D01*
X239834620Y-169516525D01*
X239870725Y-169520081D01*
X239906830Y-169516525D01*
X240014810Y-169505890D01*
X240153358Y-169463862D01*
X240281045Y-169395612D01*
X240392963Y-169303763D01*
X240484812Y-169191845D01*
X240553062Y-169064158D01*
X240595090Y-168925610D01*
X240609281Y-168781525D01*
X240605725Y-168745420D01*
X240605725Y-154847630D01*
X240609281Y-154811525D01*
X244213169Y-154811525D01*
X244216726Y-154847640D01*
X244216725Y-168745420D01*
X244213169Y-168781525D01*
X244227360Y-168925610D01*
X244269388Y-169064158D01*
X244337638Y-169191845D01*
X244429487Y-169303763D01*
X244541405Y-169395612D01*
X244669092Y-169463862D01*
X244807640Y-169505890D01*
X244951725Y-169520081D01*
X244987830Y-169516525D01*
X258885620Y-169516525D01*
X258921725Y-169520081D01*
X258957830Y-169516525D01*
X259065810Y-169505890D01*
X259204358Y-169463862D01*
X259332045Y-169395612D01*
X259443963Y-169303763D01*
X259535812Y-169191845D01*
X259604062Y-169064158D01*
X259646090Y-168925610D01*
X259660281Y-168781525D01*
X259656725Y-168745420D01*
X259656725Y-154847630D01*
X259660281Y-154811525D01*
X263262169Y-154811525D01*
X263265726Y-154847640D01*
X263265725Y-168745420D01*
X263262169Y-168781525D01*
X263276360Y-168925610D01*
X263318388Y-169064158D01*
X263386638Y-169191845D01*
X263478487Y-169303763D01*
X263590405Y-169395612D01*
X263718092Y-169463862D01*
X263856640Y-169505890D01*
X264000725Y-169520081D01*
X264036830Y-169516525D01*
X277934620Y-169516525D01*
X277970725Y-169520081D01*
X278006830Y-169516525D01*
X278114810Y-169505890D01*
X278253358Y-169463862D01*
X278381045Y-169395612D01*
X278492963Y-169303763D01*
X278584812Y-169191845D01*
X278653062Y-169064158D01*
X278695090Y-168925610D01*
X278709281Y-168781525D01*
X278705725Y-168745420D01*
X278705725Y-154847630D01*
X278709281Y-154811525D01*
X282312169Y-154811525D01*
X282315726Y-154847640D01*
X282315725Y-168745420D01*
X282312169Y-168781525D01*
X282326360Y-168925610D01*
X282368388Y-169064158D01*
X282436638Y-169191845D01*
X282528487Y-169303763D01*
X282640405Y-169395612D01*
X282768092Y-169463862D01*
X282906640Y-169505890D01*
X283050725Y-169520081D01*
X283086830Y-169516525D01*
X310795725Y-169516525D01*
X310795725Y-169532420D01*
X310792169Y-169568525D01*
X310806360Y-169712610D01*
X310848388Y-169851158D01*
X310916638Y-169978845D01*
X311008487Y-170090763D01*
X311120405Y-170182612D01*
X311248092Y-170250862D01*
X311386640Y-170292890D01*
X311530725Y-170307081D01*
X311566830Y-170303525D01*
X316066619Y-170303525D01*
X316102724Y-170307081D01*
X316138829Y-170303525D01*
X316246809Y-170292890D01*
X316385357Y-170250862D01*
X316513044Y-170182612D01*
X316624962Y-170090763D01*
X316716811Y-169978845D01*
X316785061Y-169851158D01*
X316827089Y-169712610D01*
X316841280Y-169568525D01*
X316837724Y-169532420D01*
X316837724Y-169516525D01*
X332703620Y-169516525D01*
X332739725Y-169520081D01*
X332775830Y-169516525D01*
X332883810Y-169505890D01*
X333022358Y-169463862D01*
X333150045Y-169395612D01*
X333261963Y-169303763D01*
X333353812Y-169191845D01*
X333422062Y-169064158D01*
X333464090Y-168925610D01*
X333478281Y-168781525D01*
X333474725Y-168745420D01*
X333474725Y-154847630D01*
X333478281Y-154811525D01*
X333464090Y-154667440D01*
X333422062Y-154528892D01*
X333353812Y-154401205D01*
X333261963Y-154289287D01*
X333150045Y-154197438D01*
X333022358Y-154129188D01*
X332883810Y-154087160D01*
X332775830Y-154076525D01*
X332739725Y-154072969D01*
X332703620Y-154076525D01*
X283086830Y-154076525D01*
X283050725Y-154072969D01*
X283014620Y-154076525D01*
X282906640Y-154087160D01*
X282768092Y-154129188D01*
X282640405Y-154197438D01*
X282528487Y-154289287D01*
X282436638Y-154401205D01*
X282368388Y-154528892D01*
X282326360Y-154667440D01*
X282312169Y-154811525D01*
X278709281Y-154811525D01*
X278695090Y-154667440D01*
X278653062Y-154528892D01*
X278584812Y-154401205D01*
X278492963Y-154289287D01*
X278381045Y-154197438D01*
X278253358Y-154129188D01*
X278114810Y-154087160D01*
X278006830Y-154076525D01*
X277970725Y-154072969D01*
X277934620Y-154076525D01*
X264036830Y-154076525D01*
X264000725Y-154072969D01*
X263964620Y-154076525D01*
X263856640Y-154087160D01*
X263718092Y-154129188D01*
X263590405Y-154197438D01*
X263478487Y-154289287D01*
X263386638Y-154401205D01*
X263318388Y-154528892D01*
X263276360Y-154667440D01*
X263262169Y-154811525D01*
X259660281Y-154811525D01*
X259646090Y-154667440D01*
X259604062Y-154528892D01*
X259535812Y-154401205D01*
X259443963Y-154289287D01*
X259332045Y-154197438D01*
X259204358Y-154129188D01*
X259065810Y-154087160D01*
X258957830Y-154076525D01*
X258921725Y-154072969D01*
X258885620Y-154076525D01*
X244987830Y-154076525D01*
X244951725Y-154072969D01*
X244915620Y-154076525D01*
X244807640Y-154087160D01*
X244669092Y-154129188D01*
X244541405Y-154197438D01*
X244429487Y-154289287D01*
X244337638Y-154401205D01*
X244269388Y-154528892D01*
X244227360Y-154667440D01*
X244213169Y-154811525D01*
X240609281Y-154811525D01*
X240595090Y-154667440D01*
X240553062Y-154528892D01*
X240484812Y-154401205D01*
X240392963Y-154289287D01*
X240281045Y-154197438D01*
X240153358Y-154129188D01*
X240014810Y-154087160D01*
X239906830Y-154076525D01*
X239870725Y-154072969D01*
X239834620Y-154076525D01*
X225936830Y-154076525D01*
X225900725Y-154072969D01*
X225864620Y-154076525D01*
X225756640Y-154087160D01*
X225618092Y-154129188D01*
X225490405Y-154197438D01*
X225378487Y-154289287D01*
X225286638Y-154401205D01*
X225218388Y-154528892D01*
X225176360Y-154667440D01*
X225162169Y-154811525D01*
X221559281Y-154811525D01*
X221545090Y-154667440D01*
X221503062Y-154528892D01*
X221434812Y-154401205D01*
X221342963Y-154289287D01*
X221231045Y-154197438D01*
X221103358Y-154129188D01*
X220964810Y-154087160D01*
X220856830Y-154076525D01*
X220820725Y-154072969D01*
X220784620Y-154076525D01*
X206886830Y-154076525D01*
X206850725Y-154072969D01*
X206814620Y-154076525D01*
X206706640Y-154087160D01*
X206568092Y-154129188D01*
X206440405Y-154197438D01*
X206328487Y-154289287D01*
X206236638Y-154401205D01*
X206168388Y-154528892D01*
X206126360Y-154667440D01*
X206112169Y-154811525D01*
X202509281Y-154811525D01*
X202495090Y-154667440D01*
X202453062Y-154528892D01*
X202384812Y-154401205D01*
X202292963Y-154289287D01*
X202181045Y-154197438D01*
X202053358Y-154129188D01*
X201914810Y-154087160D01*
X201806830Y-154076525D01*
X201770725Y-154072969D01*
X201734620Y-154076525D01*
X187836830Y-154076525D01*
X187800725Y-154072969D01*
X187764620Y-154076525D01*
X187656640Y-154087160D01*
X187518092Y-154129188D01*
X187390405Y-154197438D01*
X187278487Y-154289287D01*
X187186638Y-154401205D01*
X187118388Y-154528892D01*
X187076360Y-154667440D01*
X187062169Y-154811525D01*
X183459281Y-154811525D01*
X183445090Y-154667440D01*
X183403062Y-154528892D01*
X183334812Y-154401205D01*
X183242963Y-154289287D01*
X183131045Y-154197438D01*
X183003358Y-154129188D01*
X182864810Y-154087160D01*
X182756830Y-154076525D01*
X182720725Y-154072969D01*
X182684620Y-154076525D01*
X168787830Y-154076525D01*
X168751725Y-154072969D01*
X168715620Y-154076525D01*
X168607640Y-154087160D01*
X168469092Y-154129188D01*
X168341405Y-154197438D01*
X168229487Y-154289287D01*
X168137638Y-154401205D01*
X168069388Y-154528892D01*
X168027360Y-154667440D01*
X168013169Y-154811525D01*
X164409281Y-154811525D01*
X164395090Y-154667440D01*
X164353062Y-154528892D01*
X164284812Y-154401205D01*
X164192963Y-154289287D01*
X164081045Y-154197438D01*
X163953358Y-154129188D01*
X163814810Y-154087160D01*
X163706830Y-154076525D01*
X163670725Y-154072969D01*
X163634620Y-154076525D01*
X149737330Y-154076525D01*
X149701225Y-154072969D01*
X149665120Y-154076525D01*
X149557140Y-154087160D01*
X149418592Y-154129188D01*
X149290905Y-154197438D01*
X149178987Y-154289287D01*
X149087138Y-154401205D01*
X149018888Y-154528892D01*
X148976860Y-154667440D01*
X148962669Y-154811525D01*
X145359781Y-154811525D01*
X145345590Y-154667440D01*
X145303562Y-154528892D01*
X145235312Y-154401205D01*
X145143463Y-154289287D01*
X145031545Y-154197438D01*
X144903858Y-154129188D01*
X144765310Y-154087160D01*
X144657330Y-154076525D01*
X144621225Y-154072969D01*
X144585120Y-154076525D01*
X130687330Y-154076525D01*
X130651225Y-154072969D01*
X130615120Y-154076525D01*
X130507140Y-154087160D01*
X130368592Y-154129188D01*
X130240905Y-154197438D01*
X130128987Y-154289287D01*
X130037138Y-154401205D01*
X129968888Y-154528892D01*
X129926860Y-154667440D01*
X129912669Y-154811525D01*
X126309781Y-154811525D01*
X126295590Y-154667440D01*
X126253562Y-154528892D01*
X126185312Y-154401205D01*
X126093463Y-154289287D01*
X125981545Y-154197438D01*
X125853858Y-154129188D01*
X125715310Y-154087160D01*
X125607330Y-154076525D01*
X125571225Y-154072969D01*
X125535120Y-154076525D01*
X111637330Y-154076525D01*
X111601225Y-154072969D01*
X111565120Y-154076525D01*
X111457140Y-154087160D01*
X111318592Y-154129188D01*
X111190905Y-154197438D01*
X111078987Y-154289287D01*
X110987138Y-154401205D01*
X110918888Y-154528892D01*
X110876860Y-154667440D01*
X110862669Y-154811525D01*
X95353481Y-154811525D01*
X95339290Y-154667440D01*
X95297262Y-154528892D01*
X95229012Y-154401205D01*
X95137163Y-154289287D01*
X95025245Y-154197438D01*
X94897558Y-154129188D01*
X94759010Y-154087160D01*
X94651030Y-154076525D01*
X94614925Y-154072969D01*
X94578820Y-154076525D01*
X80681030Y-154076525D01*
X80644925Y-154072969D01*
X80608820Y-154076525D01*
X80500840Y-154087160D01*
X80362292Y-154129188D01*
X80234605Y-154197438D01*
X80122687Y-154289287D01*
X80030838Y-154401205D01*
X79962588Y-154528892D01*
X79920560Y-154667440D01*
X79906369Y-154811525D01*
X79909926Y-154847640D01*
X79909925Y-156184525D01*
X79754325Y-156184525D01*
X79754325Y-156142630D01*
X79757881Y-156106525D01*
X79743690Y-155962440D01*
X79701662Y-155823892D01*
X79633412Y-155696205D01*
X79541563Y-155584287D01*
X79429645Y-155492438D01*
X79301958Y-155424188D01*
X79163410Y-155382160D01*
X79055430Y-155371525D01*
X79019325Y-155367969D01*
X78983220Y-155371525D01*
X71537030Y-155371525D01*
X71500925Y-155367969D01*
X71464820Y-155371525D01*
X71356840Y-155382160D01*
X71218292Y-155424188D01*
X71090605Y-155492438D01*
X70978687Y-155584287D01*
X70886838Y-155696205D01*
X70818588Y-155823892D01*
X70776560Y-155962440D01*
X70762369Y-156106525D01*
X67171875Y-156106525D01*
X67171875Y-155040000D01*
X69806730Y-155040000D01*
X69844703Y-155036260D01*
X69875596Y-155036260D01*
X69885802Y-155035187D01*
X70347644Y-154983383D01*
X70412801Y-154969534D01*
X70478154Y-154956593D01*
X70487957Y-154953559D01*
X70930941Y-154813036D01*
X70992159Y-154786798D01*
X71053760Y-154761408D01*
X71062787Y-154756527D01*
X71470041Y-154532638D01*
X71525019Y-154494994D01*
X71580496Y-154458135D01*
X71588403Y-154451594D01*
X71944413Y-154152865D01*
X71991036Y-154105255D01*
X72038290Y-154058330D01*
X72044776Y-154050377D01*
X72335983Y-153688189D01*
X72372474Y-153632424D01*
X72409711Y-153577219D01*
X72414529Y-153568158D01*
X72629841Y-153156305D01*
X72654815Y-153094493D01*
X72680611Y-153033127D01*
X72683578Y-153023303D01*
X72814793Y-152577473D01*
X72827289Y-152511968D01*
X72840670Y-152446779D01*
X72841672Y-152436566D01*
X72883792Y-151973740D01*
X72883327Y-151907126D01*
X72883792Y-151840512D01*
X72882791Y-151830298D01*
X72834213Y-151368105D01*
X72820807Y-151302798D01*
X72808334Y-151237412D01*
X72805370Y-151227595D01*
X72805369Y-151227588D01*
X72805366Y-151227582D01*
X72667941Y-150783633D01*
X72642106Y-150722173D01*
X72617171Y-150660457D01*
X72612354Y-150651395D01*
X72391313Y-150242588D01*
X72354053Y-150187349D01*
X72317584Y-150131618D01*
X72311098Y-150123665D01*
X72014862Y-149765578D01*
X71967572Y-149718617D01*
X71920984Y-149671043D01*
X71913077Y-149664501D01*
X71552932Y-149370773D01*
X71497398Y-149333876D01*
X71442476Y-149296270D01*
X71433457Y-149291393D01*
X71433452Y-149291390D01*
X71433447Y-149291388D01*
X71023110Y-149073208D01*
X70961471Y-149047802D01*
X70900290Y-149021580D01*
X70890487Y-149018545D01*
X70445584Y-148884221D01*
X70380192Y-148871273D01*
X70315076Y-148857432D01*
X70304870Y-148856359D01*
X69842349Y-148811008D01*
X69842348Y-148811008D01*
X69806730Y-148807500D01*
X67171875Y-148807500D01*
X67171875Y-135761325D01*
X75143869Y-135761325D01*
X75147426Y-135797440D01*
X75147425Y-149695420D01*
X75143869Y-149731525D01*
X75158060Y-149875610D01*
X75200088Y-150014158D01*
X75268338Y-150141845D01*
X75360187Y-150253763D01*
X75472105Y-150345612D01*
X75599792Y-150413862D01*
X75738340Y-150455890D01*
X75882425Y-150470081D01*
X75918530Y-150466525D01*
X89816420Y-150466525D01*
X89852525Y-150470081D01*
X89888630Y-150466525D01*
X89996610Y-150455890D01*
X90135158Y-150413862D01*
X90262845Y-150345612D01*
X90374763Y-150253763D01*
X90466612Y-150141845D01*
X90534862Y-150014158D01*
X90576890Y-149875610D01*
X90591081Y-149731525D01*
X90587525Y-149695420D01*
X90587525Y-142782911D01*
X95029375Y-142782911D01*
X95029375Y-142967089D01*
X95065307Y-143147729D01*
X95135789Y-143317889D01*
X95238113Y-143471028D01*
X95368347Y-143601262D01*
X95521486Y-143703586D01*
X95691646Y-143774068D01*
X95872286Y-143810000D01*
X96056464Y-143810000D01*
X96237104Y-143774068D01*
X96407264Y-143703586D01*
X96560403Y-143601262D01*
X96690637Y-143471028D01*
X96792961Y-143317889D01*
X96863443Y-143147729D01*
X96899375Y-142967089D01*
X96899375Y-142782911D01*
X96863443Y-142602271D01*
X96792961Y-142432111D01*
X96690637Y-142278972D01*
X96560403Y-142148738D01*
X96407264Y-142046414D01*
X96237104Y-141975932D01*
X96056464Y-141940000D01*
X95872286Y-141940000D01*
X95691646Y-141975932D01*
X95521486Y-142046414D01*
X95368347Y-142148738D01*
X95238113Y-142278972D01*
X95135789Y-142432111D01*
X95065307Y-142602271D01*
X95029375Y-142782911D01*
X90587525Y-142782911D01*
X90587525Y-135797430D01*
X90591081Y-135761325D01*
X90591072Y-135761225D01*
X101337669Y-135761225D01*
X101341226Y-135797340D01*
X101341225Y-149695420D01*
X101337669Y-149731525D01*
X101351860Y-149875610D01*
X101393888Y-150014158D01*
X101462138Y-150141845D01*
X101553987Y-150253763D01*
X101665905Y-150345612D01*
X101793592Y-150413862D01*
X101932140Y-150455890D01*
X102076225Y-150470081D01*
X102112330Y-150466525D01*
X116010120Y-150466525D01*
X116046225Y-150470081D01*
X116082330Y-150466525D01*
X116190310Y-150455890D01*
X116328858Y-150413862D01*
X116456545Y-150345612D01*
X116568463Y-150253763D01*
X116660312Y-150141845D01*
X116728562Y-150014158D01*
X116770590Y-149875610D01*
X116784781Y-149731525D01*
X116781225Y-149695420D01*
X116781225Y-135797330D01*
X116784781Y-135761225D01*
X120387669Y-135761225D01*
X120391226Y-135797340D01*
X120391225Y-149695420D01*
X120387669Y-149731525D01*
X120401860Y-149875610D01*
X120443888Y-150014158D01*
X120512138Y-150141845D01*
X120603987Y-150253763D01*
X120715905Y-150345612D01*
X120843592Y-150413862D01*
X120982140Y-150455890D01*
X121126225Y-150470081D01*
X121162330Y-150466525D01*
X135060120Y-150466525D01*
X135096225Y-150470081D01*
X135132330Y-150466525D01*
X135240310Y-150455890D01*
X135378858Y-150413862D01*
X135506545Y-150345612D01*
X135618463Y-150253763D01*
X135710312Y-150141845D01*
X135778562Y-150014158D01*
X135820590Y-149875610D01*
X135834781Y-149731525D01*
X135831225Y-149695420D01*
X135831225Y-135797330D01*
X135834781Y-135761225D01*
X139437669Y-135761225D01*
X139441226Y-135797340D01*
X139441225Y-149695420D01*
X139437669Y-149731525D01*
X139451860Y-149875610D01*
X139493888Y-150014158D01*
X139562138Y-150141845D01*
X139653987Y-150253763D01*
X139765905Y-150345612D01*
X139893592Y-150413862D01*
X140032140Y-150455890D01*
X140176225Y-150470081D01*
X140212330Y-150466525D01*
X154110120Y-150466525D01*
X154146225Y-150470081D01*
X154182330Y-150466525D01*
X154290310Y-150455890D01*
X154428858Y-150413862D01*
X154556545Y-150345612D01*
X154668463Y-150253763D01*
X154760312Y-150141845D01*
X154828562Y-150014158D01*
X154870590Y-149875610D01*
X154884781Y-149731525D01*
X154881225Y-149695420D01*
X154881225Y-135797330D01*
X154884781Y-135761225D01*
X158487169Y-135761225D01*
X158490726Y-135797340D01*
X158490725Y-149695420D01*
X158487169Y-149731525D01*
X158501360Y-149875610D01*
X158543388Y-150014158D01*
X158611638Y-150141845D01*
X158703487Y-150253763D01*
X158815405Y-150345612D01*
X158943092Y-150413862D01*
X159081640Y-150455890D01*
X159225725Y-150470081D01*
X159261830Y-150466525D01*
X173159620Y-150466525D01*
X173195725Y-150470081D01*
X173231830Y-150466525D01*
X173339810Y-150455890D01*
X173478358Y-150413862D01*
X173606045Y-150345612D01*
X173717963Y-150253763D01*
X173809812Y-150141845D01*
X173878062Y-150014158D01*
X173920090Y-149875610D01*
X173934281Y-149731525D01*
X173930725Y-149695420D01*
X173930725Y-135797330D01*
X173934281Y-135761225D01*
X177537169Y-135761225D01*
X177540726Y-135797340D01*
X177540725Y-149695420D01*
X177537169Y-149731525D01*
X177551360Y-149875610D01*
X177593388Y-150014158D01*
X177661638Y-150141845D01*
X177753487Y-150253763D01*
X177865405Y-150345612D01*
X177993092Y-150413862D01*
X178131640Y-150455890D01*
X178275725Y-150470081D01*
X178311830Y-150466525D01*
X192209620Y-150466525D01*
X192245725Y-150470081D01*
X192281830Y-150466525D01*
X192389810Y-150455890D01*
X192528358Y-150413862D01*
X192656045Y-150345612D01*
X192767963Y-150253763D01*
X192859812Y-150141845D01*
X192928062Y-150014158D01*
X192970090Y-149875610D01*
X192984281Y-149731525D01*
X192980725Y-149695420D01*
X192980725Y-145773575D01*
X196591726Y-145773575D01*
X196591725Y-149695420D01*
X196588169Y-149731525D01*
X196602360Y-149875610D01*
X196644388Y-150014158D01*
X196712638Y-150141845D01*
X196804487Y-150253763D01*
X196916405Y-150345612D01*
X197044092Y-150413862D01*
X197182640Y-150455890D01*
X197326725Y-150470081D01*
X197362830Y-150466525D01*
X211260620Y-150466525D01*
X211296725Y-150470081D01*
X211332830Y-150466525D01*
X211440810Y-150455890D01*
X211579358Y-150413862D01*
X211707045Y-150345612D01*
X211818963Y-150253763D01*
X211910812Y-150141845D01*
X211979062Y-150014158D01*
X212021090Y-149875610D01*
X212035281Y-149731525D01*
X212031725Y-149695420D01*
X212031725Y-135797330D01*
X212035281Y-135761225D01*
X215637169Y-135761225D01*
X215640726Y-135797340D01*
X215640725Y-149695420D01*
X215637169Y-149731525D01*
X215651360Y-149875610D01*
X215693388Y-150014158D01*
X215761638Y-150141845D01*
X215853487Y-150253763D01*
X215965405Y-150345612D01*
X216093092Y-150413862D01*
X216231640Y-150455890D01*
X216375725Y-150470081D01*
X216411830Y-150466525D01*
X230309620Y-150466525D01*
X230345725Y-150470081D01*
X230381830Y-150466525D01*
X230489810Y-150455890D01*
X230628358Y-150413862D01*
X230756045Y-150345612D01*
X230867963Y-150253763D01*
X230959812Y-150141845D01*
X231028062Y-150014158D01*
X231070090Y-149875610D01*
X231084281Y-149731525D01*
X231080725Y-149695420D01*
X231080725Y-135797330D01*
X231084281Y-135761225D01*
X234687169Y-135761225D01*
X234690726Y-135797340D01*
X234690725Y-149695420D01*
X234687169Y-149731525D01*
X234701360Y-149875610D01*
X234743388Y-150014158D01*
X234811638Y-150141845D01*
X234903487Y-150253763D01*
X235015405Y-150345612D01*
X235143092Y-150413862D01*
X235281640Y-150455890D01*
X235425725Y-150470081D01*
X235461830Y-150466525D01*
X249359620Y-150466525D01*
X249395725Y-150470081D01*
X249431830Y-150466525D01*
X249539810Y-150455890D01*
X249678358Y-150413862D01*
X249806045Y-150345612D01*
X249917963Y-150253763D01*
X250009812Y-150141845D01*
X250078062Y-150014158D01*
X250120090Y-149875610D01*
X250134281Y-149731525D01*
X250130725Y-149695420D01*
X250130725Y-135797330D01*
X250134281Y-135761225D01*
X253737169Y-135761225D01*
X253740726Y-135797340D01*
X253740725Y-149695420D01*
X253737169Y-149731525D01*
X253751360Y-149875610D01*
X253793388Y-150014158D01*
X253861638Y-150141845D01*
X253953487Y-150253763D01*
X254065405Y-150345612D01*
X254193092Y-150413862D01*
X254331640Y-150455890D01*
X254475725Y-150470081D01*
X254511830Y-150466525D01*
X268409620Y-150466525D01*
X268445725Y-150470081D01*
X268481830Y-150466525D01*
X268589810Y-150455890D01*
X268728358Y-150413862D01*
X268856045Y-150345612D01*
X268967963Y-150253763D01*
X269059812Y-150141845D01*
X269128062Y-150014158D01*
X269170090Y-149875610D01*
X269184281Y-149731525D01*
X269180725Y-149695420D01*
X269180725Y-135797330D01*
X269184281Y-135761225D01*
X272787169Y-135761225D01*
X272790726Y-135797340D01*
X272790725Y-149695420D01*
X272787169Y-149731525D01*
X272801360Y-149875610D01*
X272843388Y-150014158D01*
X272911638Y-150141845D01*
X273003487Y-150253763D01*
X273115405Y-150345612D01*
X273243092Y-150413862D01*
X273381640Y-150455890D01*
X273525725Y-150470081D01*
X273561830Y-150466525D01*
X287459620Y-150466525D01*
X287495725Y-150470081D01*
X287531830Y-150466525D01*
X287639810Y-150455890D01*
X287778358Y-150413862D01*
X287906045Y-150345612D01*
X288017963Y-150253763D01*
X288109812Y-150141845D01*
X288178062Y-150014158D01*
X288220090Y-149875610D01*
X288234281Y-149731525D01*
X288230725Y-149695420D01*
X288230725Y-135797330D01*
X288234281Y-135761225D01*
X291838169Y-135761225D01*
X291841726Y-135797340D01*
X291841725Y-149695420D01*
X291838169Y-149731525D01*
X291852360Y-149875610D01*
X291894388Y-150014158D01*
X291962638Y-150141845D01*
X292054487Y-150253763D01*
X292166405Y-150345612D01*
X292294092Y-150413862D01*
X292432640Y-150455890D01*
X292576725Y-150470081D01*
X292612830Y-150466525D01*
X306510620Y-150466525D01*
X306546725Y-150470081D01*
X306582830Y-150466525D01*
X306690810Y-150455890D01*
X306829358Y-150413862D01*
X306957045Y-150345612D01*
X307068963Y-150253763D01*
X307160812Y-150141845D01*
X307229062Y-150014158D01*
X307271090Y-149875610D01*
X307285281Y-149731525D01*
X307281725Y-149695420D01*
X307281725Y-135797330D01*
X307285281Y-135761225D01*
X307271090Y-135617140D01*
X307229062Y-135478592D01*
X307160812Y-135350905D01*
X307068963Y-135238987D01*
X306957045Y-135147138D01*
X306829358Y-135078888D01*
X306690810Y-135036860D01*
X306582830Y-135026225D01*
X306546725Y-135022669D01*
X306510620Y-135026225D01*
X292612830Y-135026225D01*
X292576725Y-135022669D01*
X292540620Y-135026225D01*
X292432640Y-135036860D01*
X292294092Y-135078888D01*
X292166405Y-135147138D01*
X292054487Y-135238987D01*
X291962638Y-135350905D01*
X291894388Y-135478592D01*
X291852360Y-135617140D01*
X291838169Y-135761225D01*
X288234281Y-135761225D01*
X288220090Y-135617140D01*
X288178062Y-135478592D01*
X288109812Y-135350905D01*
X288017963Y-135238987D01*
X287906045Y-135147138D01*
X287778358Y-135078888D01*
X287639810Y-135036860D01*
X287531830Y-135026225D01*
X287495725Y-135022669D01*
X287459620Y-135026225D01*
X273561830Y-135026225D01*
X273525725Y-135022669D01*
X273489620Y-135026225D01*
X273381640Y-135036860D01*
X273243092Y-135078888D01*
X273115405Y-135147138D01*
X273003487Y-135238987D01*
X272911638Y-135350905D01*
X272843388Y-135478592D01*
X272801360Y-135617140D01*
X272787169Y-135761225D01*
X269184281Y-135761225D01*
X269170090Y-135617140D01*
X269128062Y-135478592D01*
X269059812Y-135350905D01*
X268967963Y-135238987D01*
X268856045Y-135147138D01*
X268728358Y-135078888D01*
X268589810Y-135036860D01*
X268481830Y-135026225D01*
X268445725Y-135022669D01*
X268409620Y-135026225D01*
X254511830Y-135026225D01*
X254475725Y-135022669D01*
X254439620Y-135026225D01*
X254331640Y-135036860D01*
X254193092Y-135078888D01*
X254065405Y-135147138D01*
X253953487Y-135238987D01*
X253861638Y-135350905D01*
X253793388Y-135478592D01*
X253751360Y-135617140D01*
X253737169Y-135761225D01*
X250134281Y-135761225D01*
X250120090Y-135617140D01*
X250078062Y-135478592D01*
X250009812Y-135350905D01*
X249917963Y-135238987D01*
X249806045Y-135147138D01*
X249678358Y-135078888D01*
X249539810Y-135036860D01*
X249431830Y-135026225D01*
X249395725Y-135022669D01*
X249359620Y-135026225D01*
X235461830Y-135026225D01*
X235425725Y-135022669D01*
X235389620Y-135026225D01*
X235281640Y-135036860D01*
X235143092Y-135078888D01*
X235015405Y-135147138D01*
X234903487Y-135238987D01*
X234811638Y-135350905D01*
X234743388Y-135478592D01*
X234701360Y-135617140D01*
X234687169Y-135761225D01*
X231084281Y-135761225D01*
X231070090Y-135617140D01*
X231028062Y-135478592D01*
X230959812Y-135350905D01*
X230867963Y-135238987D01*
X230756045Y-135147138D01*
X230628358Y-135078888D01*
X230489810Y-135036860D01*
X230381830Y-135026225D01*
X230345725Y-135022669D01*
X230309620Y-135026225D01*
X216411830Y-135026225D01*
X216375725Y-135022669D01*
X216339620Y-135026225D01*
X216231640Y-135036860D01*
X216093092Y-135078888D01*
X215965405Y-135147138D01*
X215853487Y-135238987D01*
X215761638Y-135350905D01*
X215693388Y-135478592D01*
X215651360Y-135617140D01*
X215637169Y-135761225D01*
X212035281Y-135761225D01*
X212021090Y-135617140D01*
X211979062Y-135478592D01*
X211910812Y-135350905D01*
X211818963Y-135238987D01*
X211707045Y-135147138D01*
X211579358Y-135078888D01*
X211440810Y-135036860D01*
X211332830Y-135026225D01*
X211296725Y-135022669D01*
X211260620Y-135026225D01*
X197362830Y-135026225D01*
X197326725Y-135022669D01*
X197290620Y-135026225D01*
X197182640Y-135036860D01*
X197044092Y-135078888D01*
X196916405Y-135147138D01*
X196804487Y-135238987D01*
X196712638Y-135350905D01*
X196644388Y-135478592D01*
X196602360Y-135617140D01*
X196588169Y-135761225D01*
X196591725Y-135797330D01*
X196591726Y-139758750D01*
X192980725Y-139758750D01*
X192980725Y-135797330D01*
X192984281Y-135761225D01*
X192970090Y-135617140D01*
X192928062Y-135478592D01*
X192859812Y-135350905D01*
X192767963Y-135238987D01*
X192656045Y-135147138D01*
X192528358Y-135078888D01*
X192389810Y-135036860D01*
X192281830Y-135026225D01*
X192245725Y-135022669D01*
X192209620Y-135026225D01*
X178311830Y-135026225D01*
X178275725Y-135022669D01*
X178239620Y-135026225D01*
X178131640Y-135036860D01*
X177993092Y-135078888D01*
X177865405Y-135147138D01*
X177753487Y-135238987D01*
X177661638Y-135350905D01*
X177593388Y-135478592D01*
X177551360Y-135617140D01*
X177537169Y-135761225D01*
X173934281Y-135761225D01*
X173920090Y-135617140D01*
X173878062Y-135478592D01*
X173809812Y-135350905D01*
X173717963Y-135238987D01*
X173606045Y-135147138D01*
X173478358Y-135078888D01*
X173339810Y-135036860D01*
X173231830Y-135026225D01*
X173195725Y-135022669D01*
X173159620Y-135026225D01*
X159261830Y-135026225D01*
X159225725Y-135022669D01*
X159189620Y-135026225D01*
X159081640Y-135036860D01*
X158943092Y-135078888D01*
X158815405Y-135147138D01*
X158703487Y-135238987D01*
X158611638Y-135350905D01*
X158543388Y-135478592D01*
X158501360Y-135617140D01*
X158487169Y-135761225D01*
X154884781Y-135761225D01*
X154870590Y-135617140D01*
X154828562Y-135478592D01*
X154760312Y-135350905D01*
X154668463Y-135238987D01*
X154556545Y-135147138D01*
X154428858Y-135078888D01*
X154290310Y-135036860D01*
X154182330Y-135026225D01*
X154146225Y-135022669D01*
X154110120Y-135026225D01*
X140212330Y-135026225D01*
X140176225Y-135022669D01*
X140140120Y-135026225D01*
X140032140Y-135036860D01*
X139893592Y-135078888D01*
X139765905Y-135147138D01*
X139653987Y-135238987D01*
X139562138Y-135350905D01*
X139493888Y-135478592D01*
X139451860Y-135617140D01*
X139437669Y-135761225D01*
X135834781Y-135761225D01*
X135820590Y-135617140D01*
X135778562Y-135478592D01*
X135710312Y-135350905D01*
X135618463Y-135238987D01*
X135506545Y-135147138D01*
X135378858Y-135078888D01*
X135240310Y-135036860D01*
X135132330Y-135026225D01*
X135096225Y-135022669D01*
X135060120Y-135026225D01*
X121162330Y-135026225D01*
X121126225Y-135022669D01*
X121090120Y-135026225D01*
X120982140Y-135036860D01*
X120843592Y-135078888D01*
X120715905Y-135147138D01*
X120603987Y-135238987D01*
X120512138Y-135350905D01*
X120443888Y-135478592D01*
X120401860Y-135617140D01*
X120387669Y-135761225D01*
X116784781Y-135761225D01*
X116770590Y-135617140D01*
X116728562Y-135478592D01*
X116660312Y-135350905D01*
X116568463Y-135238987D01*
X116456545Y-135147138D01*
X116328858Y-135078888D01*
X116190310Y-135036860D01*
X116082330Y-135026225D01*
X116046225Y-135022669D01*
X116010120Y-135026225D01*
X102112330Y-135026225D01*
X102076225Y-135022669D01*
X102040120Y-135026225D01*
X101932140Y-135036860D01*
X101793592Y-135078888D01*
X101665905Y-135147138D01*
X101553987Y-135238987D01*
X101462138Y-135350905D01*
X101393888Y-135478592D01*
X101351860Y-135617140D01*
X101337669Y-135761225D01*
X90591072Y-135761225D01*
X90576890Y-135617240D01*
X90534862Y-135478692D01*
X90466612Y-135351005D01*
X90374763Y-135239087D01*
X90262845Y-135147238D01*
X90135158Y-135078988D01*
X89996610Y-135036960D01*
X89888630Y-135026325D01*
X89852525Y-135022769D01*
X89816420Y-135026325D01*
X75918530Y-135026325D01*
X75882425Y-135022769D01*
X75846320Y-135026325D01*
X75738340Y-135036960D01*
X75599792Y-135078988D01*
X75472105Y-135147238D01*
X75360187Y-135239087D01*
X75268338Y-135351005D01*
X75200088Y-135478692D01*
X75158060Y-135617240D01*
X75143869Y-135761325D01*
X67171875Y-135761325D01*
X67171875Y-116711325D01*
X72762669Y-116711325D01*
X72766226Y-116747440D01*
X72766225Y-130645120D01*
X72762669Y-130681225D01*
X72776860Y-130825310D01*
X72818888Y-130963858D01*
X72887138Y-131091545D01*
X72978987Y-131203463D01*
X73090905Y-131295312D01*
X73218592Y-131363562D01*
X73357140Y-131405590D01*
X73501225Y-131419781D01*
X73537330Y-131416225D01*
X87435120Y-131416225D01*
X87471225Y-131419781D01*
X87507330Y-131416225D01*
X87615310Y-131405590D01*
X87753858Y-131363562D01*
X87881545Y-131295312D01*
X87993463Y-131203463D01*
X88085312Y-131091545D01*
X88153562Y-130963858D01*
X88195590Y-130825310D01*
X88209781Y-130681225D01*
X88206225Y-130645120D01*
X88206225Y-123041344D01*
X88795102Y-123041344D01*
X88795102Y-123656156D01*
X88915046Y-124259155D01*
X89150324Y-124827168D01*
X89491896Y-125338366D01*
X89926634Y-125773104D01*
X90437832Y-126114676D01*
X91005845Y-126349954D01*
X91608844Y-126469898D01*
X92223656Y-126469898D01*
X92826655Y-126349954D01*
X93394668Y-126114676D01*
X93905866Y-125773104D01*
X94340604Y-125338366D01*
X94682176Y-124827168D01*
X94917454Y-124259155D01*
X95037398Y-123656156D01*
X95037398Y-123041344D01*
X94917454Y-122438345D01*
X94682176Y-121870332D01*
X94340604Y-121359134D01*
X93905866Y-120924396D01*
X93394668Y-120582824D01*
X92826655Y-120347546D01*
X92223656Y-120227602D01*
X91608844Y-120227602D01*
X91005845Y-120347546D01*
X90437832Y-120582824D01*
X89926634Y-120924396D01*
X89491896Y-121359134D01*
X89150324Y-121870332D01*
X88915046Y-122438345D01*
X88795102Y-123041344D01*
X88206225Y-123041344D01*
X88206225Y-116747430D01*
X88209781Y-116711325D01*
X96575169Y-116711325D01*
X96578726Y-116747440D01*
X96578725Y-130645220D01*
X96575169Y-130681325D01*
X96589360Y-130825410D01*
X96631388Y-130963958D01*
X96699638Y-131091645D01*
X96791487Y-131203563D01*
X96903283Y-131295312D01*
X96903405Y-131295412D01*
X97031092Y-131363662D01*
X97169640Y-131405690D01*
X97313725Y-131419881D01*
X97349830Y-131416325D01*
X111247620Y-131416325D01*
X111283725Y-131419881D01*
X111319830Y-131416325D01*
X111427810Y-131405690D01*
X111566358Y-131363662D01*
X111694045Y-131295412D01*
X111805963Y-131203563D01*
X111897812Y-131091645D01*
X111966062Y-130963958D01*
X112008090Y-130825410D01*
X112022281Y-130681325D01*
X112018725Y-130645220D01*
X112018725Y-116747430D01*
X112022281Y-116711325D01*
X115625169Y-116711325D01*
X115628726Y-116747440D01*
X115628725Y-130645120D01*
X115625169Y-130681225D01*
X115639360Y-130825310D01*
X115681388Y-130963858D01*
X115749638Y-131091545D01*
X115841487Y-131203463D01*
X115953405Y-131295312D01*
X116081092Y-131363562D01*
X116219640Y-131405590D01*
X116363725Y-131419781D01*
X116399830Y-131416225D01*
X130297620Y-131416225D01*
X130333725Y-131419781D01*
X130369830Y-131416225D01*
X130477810Y-131405590D01*
X130616358Y-131363562D01*
X130744045Y-131295312D01*
X130855963Y-131203463D01*
X130947812Y-131091545D01*
X131016062Y-130963858D01*
X131058090Y-130825310D01*
X131072281Y-130681225D01*
X131068725Y-130645120D01*
X131068725Y-116747430D01*
X131072281Y-116711325D01*
X134675169Y-116711325D01*
X134678726Y-116747440D01*
X134678725Y-130645120D01*
X134675169Y-130681225D01*
X134689360Y-130825310D01*
X134731388Y-130963858D01*
X134799638Y-131091545D01*
X134891487Y-131203463D01*
X135003405Y-131295312D01*
X135131092Y-131363562D01*
X135269640Y-131405590D01*
X135413725Y-131419781D01*
X135449830Y-131416225D01*
X149347620Y-131416225D01*
X149383725Y-131419781D01*
X149419830Y-131416225D01*
X149527810Y-131405590D01*
X149666358Y-131363562D01*
X149794045Y-131295312D01*
X149905963Y-131203463D01*
X149997812Y-131091545D01*
X150066062Y-130963858D01*
X150108090Y-130825310D01*
X150122281Y-130681225D01*
X150118725Y-130645120D01*
X150118725Y-116747430D01*
X150122281Y-116711325D01*
X153725169Y-116711325D01*
X153728726Y-116747440D01*
X153728725Y-130645120D01*
X153725169Y-130681225D01*
X153739360Y-130825310D01*
X153781388Y-130963858D01*
X153849638Y-131091545D01*
X153941487Y-131203463D01*
X154053405Y-131295312D01*
X154181092Y-131363562D01*
X154319640Y-131405590D01*
X154463725Y-131419781D01*
X154499830Y-131416225D01*
X168397620Y-131416225D01*
X168433725Y-131419781D01*
X168469830Y-131416225D01*
X168577810Y-131405590D01*
X168716358Y-131363562D01*
X168844045Y-131295312D01*
X168955963Y-131203463D01*
X169047812Y-131091545D01*
X169116062Y-130963858D01*
X169158090Y-130825310D01*
X169172281Y-130681225D01*
X169168725Y-130645120D01*
X169168725Y-116747430D01*
X169172281Y-116711325D01*
X172775169Y-116711325D01*
X172778726Y-116747440D01*
X172778725Y-130645120D01*
X172775169Y-130681225D01*
X172789360Y-130825310D01*
X172831388Y-130963858D01*
X172899638Y-131091545D01*
X172991487Y-131203463D01*
X173103405Y-131295312D01*
X173231092Y-131363562D01*
X173369640Y-131405590D01*
X173513725Y-131419781D01*
X173549830Y-131416225D01*
X187447620Y-131416225D01*
X187483725Y-131419781D01*
X187519830Y-131416225D01*
X187627810Y-131405590D01*
X187766358Y-131363562D01*
X187894045Y-131295312D01*
X188005963Y-131203463D01*
X188097812Y-131091545D01*
X188166062Y-130963858D01*
X188208090Y-130825310D01*
X188222281Y-130681225D01*
X188218725Y-130645120D01*
X188218725Y-116747430D01*
X188222281Y-116711325D01*
X191825169Y-116711325D01*
X191828726Y-116747440D01*
X191828725Y-130645120D01*
X191825169Y-130681225D01*
X191839360Y-130825310D01*
X191881388Y-130963858D01*
X191949638Y-131091545D01*
X192041487Y-131203463D01*
X192153405Y-131295312D01*
X192281092Y-131363562D01*
X192419640Y-131405590D01*
X192563725Y-131419781D01*
X192599830Y-131416225D01*
X206497620Y-131416225D01*
X206533725Y-131419781D01*
X206569830Y-131416225D01*
X206677810Y-131405590D01*
X206816358Y-131363562D01*
X206944045Y-131295312D01*
X207055963Y-131203463D01*
X207147812Y-131091545D01*
X207216062Y-130963858D01*
X207258090Y-130825310D01*
X207272281Y-130681225D01*
X207268725Y-130645120D01*
X207268725Y-116747430D01*
X207272281Y-116711325D01*
X210875169Y-116711325D01*
X210878726Y-116747440D01*
X210878725Y-130645120D01*
X210875169Y-130681225D01*
X210889360Y-130825310D01*
X210931388Y-130963858D01*
X210999638Y-131091545D01*
X211091487Y-131203463D01*
X211203405Y-131295312D01*
X211331092Y-131363562D01*
X211469640Y-131405590D01*
X211613725Y-131419781D01*
X211649830Y-131416225D01*
X225547620Y-131416225D01*
X225583725Y-131419781D01*
X225619830Y-131416225D01*
X225727810Y-131405590D01*
X225866358Y-131363562D01*
X225994045Y-131295312D01*
X226105963Y-131203463D01*
X226197812Y-131091545D01*
X226266062Y-130963858D01*
X226308090Y-130825310D01*
X226322281Y-130681225D01*
X226318725Y-130645120D01*
X226318725Y-116747430D01*
X226322281Y-116711325D01*
X229925169Y-116711325D01*
X229928726Y-116747440D01*
X229928725Y-130645120D01*
X229925169Y-130681225D01*
X229939360Y-130825310D01*
X229981388Y-130963858D01*
X230049638Y-131091545D01*
X230141487Y-131203463D01*
X230253405Y-131295312D01*
X230381092Y-131363562D01*
X230519640Y-131405590D01*
X230663725Y-131419781D01*
X230699830Y-131416225D01*
X244597620Y-131416225D01*
X244633725Y-131419781D01*
X244669830Y-131416225D01*
X244777810Y-131405590D01*
X244916358Y-131363562D01*
X245044045Y-131295312D01*
X245155963Y-131203463D01*
X245247812Y-131091545D01*
X245316062Y-130963858D01*
X245358090Y-130825310D01*
X245372281Y-130681225D01*
X245368725Y-130645120D01*
X245368725Y-116747430D01*
X245372281Y-116711325D01*
X248975169Y-116711325D01*
X248978726Y-116747440D01*
X248978725Y-130645120D01*
X248975169Y-130681225D01*
X248989360Y-130825310D01*
X249031388Y-130963858D01*
X249099638Y-131091545D01*
X249191487Y-131203463D01*
X249303405Y-131295312D01*
X249431092Y-131363562D01*
X249569640Y-131405590D01*
X249713725Y-131419781D01*
X249749830Y-131416225D01*
X263647620Y-131416225D01*
X263683725Y-131419781D01*
X263719830Y-131416225D01*
X263827810Y-131405590D01*
X263966358Y-131363562D01*
X264094045Y-131295312D01*
X264205963Y-131203463D01*
X264297812Y-131091545D01*
X264366062Y-130963858D01*
X264408090Y-130825310D01*
X264422281Y-130681225D01*
X264418725Y-130645120D01*
X264418725Y-116747430D01*
X264422281Y-116711325D01*
X268025169Y-116711325D01*
X268028726Y-116747440D01*
X268028725Y-130645120D01*
X268025169Y-130681225D01*
X268039360Y-130825310D01*
X268081388Y-130963858D01*
X268149638Y-131091545D01*
X268241487Y-131203463D01*
X268353405Y-131295312D01*
X268481092Y-131363562D01*
X268619640Y-131405590D01*
X268763725Y-131419781D01*
X268799830Y-131416225D01*
X282697620Y-131416225D01*
X282733725Y-131419781D01*
X282769830Y-131416225D01*
X282877810Y-131405590D01*
X283016358Y-131363562D01*
X283144045Y-131295312D01*
X283255963Y-131203463D01*
X283347812Y-131091545D01*
X283416062Y-130963858D01*
X283458090Y-130825310D01*
X283472281Y-130681225D01*
X283468725Y-130645120D01*
X283468725Y-116747430D01*
X283472281Y-116711325D01*
X287075169Y-116711325D01*
X287078726Y-116747440D01*
X287078725Y-130645120D01*
X287075169Y-130681225D01*
X287089360Y-130825310D01*
X287131388Y-130963858D01*
X287199638Y-131091545D01*
X287291487Y-131203463D01*
X287403405Y-131295312D01*
X287531092Y-131363562D01*
X287669640Y-131405590D01*
X287813725Y-131419781D01*
X287849830Y-131416225D01*
X301747620Y-131416225D01*
X301783725Y-131419781D01*
X301819830Y-131416225D01*
X301927810Y-131405590D01*
X302066358Y-131363562D01*
X302194045Y-131295312D01*
X302305963Y-131203463D01*
X302397812Y-131091545D01*
X302466062Y-130963858D01*
X302508090Y-130825310D01*
X302522281Y-130681225D01*
X302518725Y-130645120D01*
X302518725Y-116747430D01*
X302522281Y-116711325D01*
X306125169Y-116711325D01*
X306128726Y-116747440D01*
X306128725Y-130645120D01*
X306125169Y-130681225D01*
X306139360Y-130825310D01*
X306181388Y-130963858D01*
X306249638Y-131091545D01*
X306341487Y-131203463D01*
X306453405Y-131295312D01*
X306581092Y-131363562D01*
X306719640Y-131405590D01*
X306863725Y-131419781D01*
X306899830Y-131416225D01*
X320797620Y-131416225D01*
X320833725Y-131419781D01*
X320869830Y-131416225D01*
X320977810Y-131405590D01*
X321116358Y-131363562D01*
X321244045Y-131295312D01*
X321355963Y-131203463D01*
X321447812Y-131091545D01*
X321516062Y-130963858D01*
X321558090Y-130825310D01*
X321572281Y-130681225D01*
X321568725Y-130645120D01*
X321568725Y-123036721D01*
X323539421Y-123036721D01*
X323539421Y-123660779D01*
X323661168Y-124272845D01*
X323899985Y-124849398D01*
X324246692Y-125368283D01*
X324687967Y-125809558D01*
X325206852Y-126156265D01*
X325783405Y-126395082D01*
X326395471Y-126516829D01*
X327019529Y-126516829D01*
X327631595Y-126395082D01*
X328208148Y-126156265D01*
X328727033Y-125809558D01*
X329168308Y-125368283D01*
X329515015Y-124849398D01*
X329753832Y-124272845D01*
X329875579Y-123660779D01*
X329875579Y-123036721D01*
X329753832Y-122424655D01*
X329515015Y-121848102D01*
X329168308Y-121329217D01*
X328727033Y-120887942D01*
X328208148Y-120541235D01*
X327631595Y-120302418D01*
X327019529Y-120180671D01*
X326395471Y-120180671D01*
X325783405Y-120302418D01*
X325206852Y-120541235D01*
X324687967Y-120887942D01*
X324246692Y-121329217D01*
X323899985Y-121848102D01*
X323661168Y-122424655D01*
X323539421Y-123036721D01*
X321568725Y-123036721D01*
X321568725Y-116747430D01*
X321572281Y-116711325D01*
X329937169Y-116711325D01*
X329940726Y-116747440D01*
X329940725Y-130645120D01*
X329937169Y-130681225D01*
X329951360Y-130825310D01*
X329993388Y-130963858D01*
X330061638Y-131091545D01*
X330153487Y-131203463D01*
X330265405Y-131295312D01*
X330393092Y-131363562D01*
X330531640Y-131405590D01*
X330675725Y-131419781D01*
X330711830Y-131416225D01*
X344609620Y-131416225D01*
X344645725Y-131419781D01*
X344681830Y-131416225D01*
X344789810Y-131405590D01*
X344928358Y-131363562D01*
X345056045Y-131295312D01*
X345167963Y-131203463D01*
X345259812Y-131091545D01*
X345328062Y-130963858D01*
X345370090Y-130825310D01*
X345384281Y-130681225D01*
X345380725Y-130645120D01*
X345380725Y-116747430D01*
X345384281Y-116711325D01*
X345370090Y-116567240D01*
X345328062Y-116428692D01*
X345259812Y-116301005D01*
X345167963Y-116189087D01*
X345056045Y-116097238D01*
X344928358Y-116028988D01*
X344789810Y-115986960D01*
X344681830Y-115976325D01*
X344645725Y-115972769D01*
X344609620Y-115976325D01*
X330711830Y-115976325D01*
X330675725Y-115972769D01*
X330639620Y-115976325D01*
X330531640Y-115986960D01*
X330393092Y-116028988D01*
X330265405Y-116097238D01*
X330153487Y-116189087D01*
X330061638Y-116301005D01*
X329993388Y-116428692D01*
X329951360Y-116567240D01*
X329937169Y-116711325D01*
X321572281Y-116711325D01*
X321558090Y-116567240D01*
X321516062Y-116428692D01*
X321447812Y-116301005D01*
X321355963Y-116189087D01*
X321244045Y-116097238D01*
X321116358Y-116028988D01*
X320977810Y-115986960D01*
X320869830Y-115976325D01*
X320833725Y-115972769D01*
X320797620Y-115976325D01*
X306899830Y-115976325D01*
X306863725Y-115972769D01*
X306827620Y-115976325D01*
X306719640Y-115986960D01*
X306581092Y-116028988D01*
X306453405Y-116097238D01*
X306341487Y-116189087D01*
X306249638Y-116301005D01*
X306181388Y-116428692D01*
X306139360Y-116567240D01*
X306125169Y-116711325D01*
X302522281Y-116711325D01*
X302508090Y-116567240D01*
X302466062Y-116428692D01*
X302397812Y-116301005D01*
X302305963Y-116189087D01*
X302194045Y-116097238D01*
X302066358Y-116028988D01*
X301927810Y-115986960D01*
X301819830Y-115976325D01*
X301783725Y-115972769D01*
X301747620Y-115976325D01*
X287849830Y-115976325D01*
X287813725Y-115972769D01*
X287777620Y-115976325D01*
X287669640Y-115986960D01*
X287531092Y-116028988D01*
X287403405Y-116097238D01*
X287291487Y-116189087D01*
X287199638Y-116301005D01*
X287131388Y-116428692D01*
X287089360Y-116567240D01*
X287075169Y-116711325D01*
X283472281Y-116711325D01*
X283458090Y-116567240D01*
X283416062Y-116428692D01*
X283347812Y-116301005D01*
X283255963Y-116189087D01*
X283144045Y-116097238D01*
X283016358Y-116028988D01*
X282877810Y-115986960D01*
X282769830Y-115976325D01*
X282733725Y-115972769D01*
X282697620Y-115976325D01*
X268799830Y-115976325D01*
X268763725Y-115972769D01*
X268727620Y-115976325D01*
X268619640Y-115986960D01*
X268481092Y-116028988D01*
X268353405Y-116097238D01*
X268241487Y-116189087D01*
X268149638Y-116301005D01*
X268081388Y-116428692D01*
X268039360Y-116567240D01*
X268025169Y-116711325D01*
X264422281Y-116711325D01*
X264408090Y-116567240D01*
X264366062Y-116428692D01*
X264297812Y-116301005D01*
X264205963Y-116189087D01*
X264094045Y-116097238D01*
X263966358Y-116028988D01*
X263827810Y-115986960D01*
X263719830Y-115976325D01*
X263683725Y-115972769D01*
X263647620Y-115976325D01*
X249749830Y-115976325D01*
X249713725Y-115972769D01*
X249677620Y-115976325D01*
X249569640Y-115986960D01*
X249431092Y-116028988D01*
X249303405Y-116097238D01*
X249191487Y-116189087D01*
X249099638Y-116301005D01*
X249031388Y-116428692D01*
X248989360Y-116567240D01*
X248975169Y-116711325D01*
X245372281Y-116711325D01*
X245358090Y-116567240D01*
X245316062Y-116428692D01*
X245247812Y-116301005D01*
X245155963Y-116189087D01*
X245044045Y-116097238D01*
X244916358Y-116028988D01*
X244777810Y-115986960D01*
X244669830Y-115976325D01*
X244633725Y-115972769D01*
X244597620Y-115976325D01*
X230699830Y-115976325D01*
X230663725Y-115972769D01*
X230627620Y-115976325D01*
X230519640Y-115986960D01*
X230381092Y-116028988D01*
X230253405Y-116097238D01*
X230141487Y-116189087D01*
X230049638Y-116301005D01*
X229981388Y-116428692D01*
X229939360Y-116567240D01*
X229925169Y-116711325D01*
X226322281Y-116711325D01*
X226308090Y-116567240D01*
X226266062Y-116428692D01*
X226197812Y-116301005D01*
X226105963Y-116189087D01*
X225994045Y-116097238D01*
X225866358Y-116028988D01*
X225727810Y-115986960D01*
X225619830Y-115976325D01*
X225583725Y-115972769D01*
X225547620Y-115976325D01*
X211649830Y-115976325D01*
X211613725Y-115972769D01*
X211577620Y-115976325D01*
X211469640Y-115986960D01*
X211331092Y-116028988D01*
X211203405Y-116097238D01*
X211091487Y-116189087D01*
X210999638Y-116301005D01*
X210931388Y-116428692D01*
X210889360Y-116567240D01*
X210875169Y-116711325D01*
X207272281Y-116711325D01*
X207258090Y-116567240D01*
X207216062Y-116428692D01*
X207147812Y-116301005D01*
X207055963Y-116189087D01*
X206944045Y-116097238D01*
X206816358Y-116028988D01*
X206677810Y-115986960D01*
X206569830Y-115976325D01*
X206533725Y-115972769D01*
X206497620Y-115976325D01*
X192599830Y-115976325D01*
X192563725Y-115972769D01*
X192527620Y-115976325D01*
X192419640Y-115986960D01*
X192281092Y-116028988D01*
X192153405Y-116097238D01*
X192041487Y-116189087D01*
X191949638Y-116301005D01*
X191881388Y-116428692D01*
X191839360Y-116567240D01*
X191825169Y-116711325D01*
X188222281Y-116711325D01*
X188208090Y-116567240D01*
X188166062Y-116428692D01*
X188097812Y-116301005D01*
X188005963Y-116189087D01*
X187894045Y-116097238D01*
X187766358Y-116028988D01*
X187627810Y-115986960D01*
X187519830Y-115976325D01*
X187483725Y-115972769D01*
X187447620Y-115976325D01*
X173549830Y-115976325D01*
X173513725Y-115972769D01*
X173477620Y-115976325D01*
X173369640Y-115986960D01*
X173231092Y-116028988D01*
X173103405Y-116097238D01*
X172991487Y-116189087D01*
X172899638Y-116301005D01*
X172831388Y-116428692D01*
X172789360Y-116567240D01*
X172775169Y-116711325D01*
X169172281Y-116711325D01*
X169158090Y-116567240D01*
X169116062Y-116428692D01*
X169047812Y-116301005D01*
X168955963Y-116189087D01*
X168844045Y-116097238D01*
X168716358Y-116028988D01*
X168577810Y-115986960D01*
X168469830Y-115976325D01*
X168433725Y-115972769D01*
X168397620Y-115976325D01*
X154499830Y-115976325D01*
X154463725Y-115972769D01*
X154427620Y-115976325D01*
X154319640Y-115986960D01*
X154181092Y-116028988D01*
X154053405Y-116097238D01*
X153941487Y-116189087D01*
X153849638Y-116301005D01*
X153781388Y-116428692D01*
X153739360Y-116567240D01*
X153725169Y-116711325D01*
X150122281Y-116711325D01*
X150108090Y-116567240D01*
X150066062Y-116428692D01*
X149997812Y-116301005D01*
X149905963Y-116189087D01*
X149794045Y-116097238D01*
X149666358Y-116028988D01*
X149527810Y-115986960D01*
X149419830Y-115976325D01*
X149383725Y-115972769D01*
X149347620Y-115976325D01*
X135449830Y-115976325D01*
X135413725Y-115972769D01*
X135377620Y-115976325D01*
X135269640Y-115986960D01*
X135131092Y-116028988D01*
X135003405Y-116097238D01*
X134891487Y-116189087D01*
X134799638Y-116301005D01*
X134731388Y-116428692D01*
X134689360Y-116567240D01*
X134675169Y-116711325D01*
X131072281Y-116711325D01*
X131058090Y-116567240D01*
X131016062Y-116428692D01*
X130947812Y-116301005D01*
X130855963Y-116189087D01*
X130744045Y-116097238D01*
X130616358Y-116028988D01*
X130477810Y-115986960D01*
X130369830Y-115976325D01*
X130333725Y-115972769D01*
X130297620Y-115976325D01*
X116399830Y-115976325D01*
X116363725Y-115972769D01*
X116327620Y-115976325D01*
X116219640Y-115986960D01*
X116081092Y-116028988D01*
X115953405Y-116097238D01*
X115841487Y-116189087D01*
X115749638Y-116301005D01*
X115681388Y-116428692D01*
X115639360Y-116567240D01*
X115625169Y-116711325D01*
X112022281Y-116711325D01*
X112008090Y-116567240D01*
X111966062Y-116428692D01*
X111897812Y-116301005D01*
X111805963Y-116189087D01*
X111694045Y-116097238D01*
X111566358Y-116028988D01*
X111427810Y-115986960D01*
X111319830Y-115976325D01*
X111283725Y-115972769D01*
X111247620Y-115976325D01*
X97349830Y-115976325D01*
X97313725Y-115972769D01*
X97277620Y-115976325D01*
X97169640Y-115986960D01*
X97031092Y-116028988D01*
X96903405Y-116097238D01*
X96791487Y-116189087D01*
X96699638Y-116301005D01*
X96631388Y-116428692D01*
X96589360Y-116567240D01*
X96575169Y-116711325D01*
X88209781Y-116711325D01*
X88195590Y-116567240D01*
X88153562Y-116428692D01*
X88085312Y-116301005D01*
X87993463Y-116189087D01*
X87881545Y-116097238D01*
X87753858Y-116028988D01*
X87615310Y-115986960D01*
X87507330Y-115976325D01*
X87471225Y-115972769D01*
X87435120Y-115976325D01*
X73537330Y-115976325D01*
X73501225Y-115972769D01*
X73465120Y-115976325D01*
X73357140Y-115986960D01*
X73218592Y-116028988D01*
X73090905Y-116097238D01*
X72978987Y-116189087D01*
X72887138Y-116301005D01*
X72818888Y-116428692D01*
X72776860Y-116567240D01*
X72762669Y-116711325D01*
X67171875Y-116711325D01*
X67171875Y-114796875D01*
X351213750Y-114796875D01*
X351213751Y-148807500D01*
G37*
G04 #@! TD.AperFunction*
M02*
