  0
SECTION
  2
HEADER
  9
$ANGBASE
  50
0.0
  9
$ANGDIR
  70
1
  9
$MEASUREMENT
  70
1
  0
ENDSEC
  0
SECTION
  2
TABLES
  0
TABLE
  2
LTYPE
  70
4
  0
LTYPE
  5
40F
  2
CONTINUOUS
  70
0
  3
Solid line
  72
65
  73
0
  40
0.0
  0
LTYPE
  5
410
  2
DASHDOT
 70
0
  3
Dash Dot ____ _ ____ _
 72
65
 73
4
 40
2.0
 49
1.25
 49
-0.25
 49
0.25
 49
-0.25
  0
LTYPE
  5
411
  2
DASHED
 70
0
  3
Dashed __ __ __ __ __
 72
65
 73
2
 40
0.75
 49
0.5
 49
-0.25
  0
LTYPE
  5
43B
  2
DOTTED
 70
0
  3
Dotted .  .  .  .
 72
65
 73
2
 40
0.2
 49
0.0
 49
-0.2
  0
ENDTAB
  0
TABLE
  2
STYLE
  70
4
  0
STYLE
  2
KICAD
  70
0
  40
0
  41
1
  42
1
  50
0
  71
0
  3
isocp.shx
  0
STYLE
  2
KICADB
  70
0
  40
0
  41
1
  42
1
  50
0
  71
0
  3
isocp.shx
  0
STYLE
  2
KICADI
  70
0
  40
0
  41
1
  42
1
  50
15
  71
0
  3
isocp.shx
  0
STYLE
  2
KICADBI
  70
0
  40
0
  41
1
  42
1
  50
15
  71
0
  3
isocp.shx
  0
ENDTAB
  0
TABLE
  2
LAYER
  70
1
  0
LAYER
  2
BLACK
  70
0
  62
7
  6
CONTINUOUS
  0
ENDTAB
  0
ENDSEC
  0
SECTION
  2
ENTITIES
0
LINE
8
BLACK
6
CONTINUOUS
10
339.128
20
-137.869
11
339.128
21
-137.056
0
LINE
8
BLACK
6
CONTINUOUS
10
339.128
20
-137.056
11
346.646
21
-137.056
0
LINE
8
BLACK
6
CONTINUOUS
10
346.646
20
-137.056
11
346.646
21
-149.542
0
LINE
8
BLACK
6
CONTINUOUS
10
344.805
20
-150.518
11
339.128
21
-150.518
0
LINE
8
BLACK
6
CONTINUOUS
10
339.128
20
-150.518
11
339.128
21
-148.562
0
LINE
8
BLACK
6
CONTINUOUS
10
321.907
20
-148.562
11
321.907
21
-150.518
0
LINE
8
BLACK
6
CONTINUOUS
10
321.907
20
-150.518
11
314.388
21
-150.518
0
LINE
8
BLACK
6
CONTINUOUS
10
314.388
20
-150.518
11
314.388
21
-137.056
0
LINE
8
BLACK
6
CONTINUOUS
10
314.388
20
-137.056
11
321.907
21
-137.056
0
LINE
8
BLACK
6
CONTINUOUS
10
321.907
20
-137.056
11
321.907
21
-137.869
0
LINE
8
BLACK
6
CONTINUOUS
10
197.327
20
-135.761
11
197.327
21
-140.494
0
LINE
8
BLACK
6
CONTINUOUS
10
192.246
20
-135.761
11
192.246
21
-140.494
0
LINE
8
BLACK
6
CONTINUOUS
10
192.246
20
-140.494
11
197.327
21
-140.494
0
LINE
8
BLACK
6
CONTINUOUS
10
192.246
20
-145.039
11
197.327
21
-145.039
0
LINE
8
BLACK
6
CONTINUOUS
10
197.327
20
-182.404
11
197.327
21
-187.832
0
LINE
8
BLACK
6
CONTINUOUS
10
183.858
20
-178.832
11
197.327
21
-178.832
0
LINE
8
BLACK
6
CONTINUOUS
10
183.858
20
-182.404
11
197.327
21
-182.404
0
LINE
8
BLACK
6
CONTINUOUS
10
206.692
20
-173.862
11
221.044
21
-173.861
0
LINE
8
BLACK
6
CONTINUOUS
10
197.327
20
-173.862
11
201.93
21
-173.862
0
LINE
8
BLACK
6
CONTINUOUS
10
201.93
20
-173.074
11
206.692
21
-173.074
0
LINE
8
BLACK
6
CONTINUOUS
10
206.692
20
-173.074
11
206.692
21
-173.862
0
LINE
8
BLACK
6
CONTINUOUS
10
201.93
20
-173.074
11
201.93
21
-173.862
0
LINE
8
BLACK
6
CONTINUOUS
10
344.805
20
-150.518
11
344.805
21
-154.812
0
LINE
8
BLACK
6
CONTINUOUS
10
335.439
20
-154.812
11
344.805
21
-154.812
0
LINE
8
BLACK
6
CONTINUOUS
10
349.409
20
-154.305
11
351.949
21
-154.305
0
LINE
8
BLACK
6
CONTINUOUS
10
349.409
20
-168.782
11
349.409
21
-154.305
0
LINE
8
BLACK
6
CONTINUOUS
10
259.239
20
-182.404
11
254.159
21
-182.404
0
LINE
8
BLACK
6
CONTINUOUS
10
254.159
20
-178.832
11
259.239
21
-178.832
0
LINE
8
BLACK
6
CONTINUOUS
10
254.159
20
-173.862
11
254.159
21
-178.832
0
LINE
8
BLACK
6
CONTINUOUS
10
254.159
20
-187.832
11
254.159
21
-182.404
0
LINE
8
BLACK
6
CONTINUOUS
10
259.239
20
-187.832
11
259.239
21
-182.404
0
LINE
8
BLACK
6
CONTINUOUS
10
259.239
20
-173.862
11
259.239
21
-178.832
0
LINE
8
BLACK
6
CONTINUOUS
10
351.949
20
-187.642
11
351.949
21
-154.305
0
LINE
8
BLACK
6
CONTINUOUS
10
351.949
20
-114.062
11
351.949
21
-149.542
0
LINE
8
BLACK
6
CONTINUOUS
10
351.949
20
-149.542
11
346.646
21
-149.542
0
CIRCLE
8
BLACK
10
326.707
20
-123.349
40
2.42841
0
CIRCLE
8
BLACK
10
91.9162
20
-123.349
40
2.38125
0
ARC
8
BLACK
10
69.7706
20
-151.924
40
2.38125
50
-90
51
90
0
LINE
8
BLACK
6
CONTINUOUS
10
66.4369
20
-154.305
11
69.7706
21
-154.305
0
LINE
8
BLACK
6
CONTINUOUS
10
66.4369
20
-187.642
11
66.4369
21
-154.305
0
LINE
8
BLACK
6
CONTINUOUS
10
66.4369
20
-149.542
11
69.7706
21
-149.542
0
LINE
8
BLACK
6
CONTINUOUS
10
66.4369
20
-114.062
11
66.4369
21
-149.542
0
LINE
8
BLACK
6
CONTINUOUS
10
159.982
20
-173.074
11
147.733
21
-173.074
0
LINE
8
BLACK
6
CONTINUOUS
10
349.567
20
-190.024
11
68.8181
21
-190.024
0
LINE
8
BLACK
6
CONTINUOUS
10
66.4369
20
-114.062
11
351.949
21
-114.062
0
LINE
8
BLACK
6
CONTINUOUS
10
240.094
20
-173.861
11
225.616
21
-173.861
0
LINE
8
BLACK
6
CONTINUOUS
10
221.044
20
-173.074
11
221.044
21
-173.861
0
LINE
8
BLACK
6
CONTINUOUS
10
225.616
20
-173.074
11
225.616
21
-173.861
0
LINE
8
BLACK
6
CONTINUOUS
10
254.159
20
-173.862
11
249.492
21
-173.861
0
LINE
8
BLACK
6
CONTINUOUS
10
197.327
20
-187.832
11
254.159
21
-187.832
0
LINE
8
BLACK
6
CONTINUOUS
10
249.492
20
-173.074
11
240.094
21
-173.074
0
LINE
8
BLACK
6
CONTINUOUS
10
263.938
20
-173.075
11
268.51
21
-173.075
0
LINE
8
BLACK
6
CONTINUOUS
10
221.044
20
-173.074
11
225.616
21
-173.074
0
LINE
8
BLACK
6
CONTINUOUS
10
159.982
20
-186.536
11
147.733
21
-186.536
0
LINE
8
BLACK
6
CONTINUOUS
10
175.578
20
-185.724
11
175.578
21
-187.832
0
LINE
8
BLACK
6
CONTINUOUS
10
161.608
20
-187.832
11
161.608
21
-185.724
0
LINE
8
BLACK
6
CONTINUOUS
10
161.608
20
-185.724
11
159.982
21
-185.724
0
LINE
8
BLACK
6
CONTINUOUS
10
159.982
20
-185.724
11
159.982
21
-186.536
0
LINE
8
BLACK
6
CONTINUOUS
10
159.982
20
-173.074
11
159.982
21
-175.03
0
LINE
8
BLACK
6
CONTINUOUS
10
159.982
20
-175.03
11
161.608
21
-175.03
0
LINE
8
BLACK
6
CONTINUOUS
10
161.608
20
-175.03
11
161.608
21
-173.862
0
LINE
8
BLACK
6
CONTINUOUS
10
161.608
20
-173.862
11
175.578
21
-173.862
0
LINE
8
BLACK
6
CONTINUOUS
10
175.578
20
-173.862
11
175.578
21
-175.03
0
LINE
8
BLACK
6
CONTINUOUS
10
175.578
20
-175.03
11
177.203
21
-175.03
0
LINE
8
BLACK
6
CONTINUOUS
10
177.203
20
-175.03
11
177.203
21
-173.074
0
LINE
8
BLACK
6
CONTINUOUS
10
177.203
20
-173.074
11
183.858
21
-173.074
0
LINE
8
BLACK
6
CONTINUOUS
10
183.858
20
-173.074
11
183.858
21
-178.832
0
LINE
8
BLACK
6
CONTINUOUS
10
183.858
20
-182.404
11
183.858
21
-186.536
0
LINE
8
BLACK
6
CONTINUOUS
10
183.858
20
-186.536
11
177.203
21
-186.536
0
LINE
8
BLACK
6
CONTINUOUS
10
177.203
20
-186.536
11
177.203
21
-185.724
0
LINE
8
BLACK
6
CONTINUOUS
10
177.203
20
-185.724
11
175.578
21
-185.724
0
LINE
8
BLACK
6
CONTINUOUS
10
147.733
20
-186.536
11
147.733
21
-173.074
0
LINE
8
BLACK
6
CONTINUOUS
10
175.578
20
-187.832
11
161.608
21
-187.832
0
LINE
8
BLACK
6
CONTINUOUS
10
263.938
20
-173.862
11
259.239
21
-173.862
0
LINE
8
BLACK
6
CONTINUOUS
10
278.289
20
-173.862
11
349.409
21
-173.862
0
LINE
8
BLACK
6
CONTINUOUS
10
73.5012
20
-116.711
11
87.4712
21
-116.711
0
LINE
8
BLACK
6
CONTINUOUS
10
283.051
20
-154.812
11
332.74
21
-154.812
0
LINE
8
BLACK
6
CONTINUOUS
10
332.74
20
-154.812
11
332.74
21
-168.782
0
LINE
8
BLACK
6
CONTINUOUS
10
339.979
20
-168.782
11
339.979
21
-169.569
0
LINE
8
BLACK
6
CONTINUOUS
10
339.979
20
-169.569
11
335.439
21
-169.569
0
LINE
8
BLACK
6
CONTINUOUS
10
268.51
20
-173.075
11
268.51
21
-173.862
0
LINE
8
BLACK
6
CONTINUOUS
10
263.938
20
-173.862
11
263.938
21
-173.075
0
LINE
8
BLACK
6
CONTINUOUS
10
97.3137
20
-116.711
11
111.284
21
-116.711
0
LINE
8
BLACK
6
CONTINUOUS
10
111.284
20
-116.711
11
111.284
21
-130.681
0
LINE
8
BLACK
6
CONTINUOUS
10
111.284
20
-130.681
11
97.3137
21
-130.681
0
LINE
8
BLACK
6
CONTINUOUS
10
97.3137
20
-130.681
11
97.3137
21
-116.711
0
LINE
8
BLACK
6
CONTINUOUS
10
97.3137
20
-173.862
11
111.284
21
-173.862
0
LINE
8
BLACK
6
CONTINUOUS
10
111.284
20
-173.862
11
111.284
21
-187.832
0
LINE
8
BLACK
6
CONTINUOUS
10
111.284
20
-187.832
11
97.3137
21
-187.832
0
LINE
8
BLACK
6
CONTINUOUS
10
97.3137
20
-187.832
11
97.3137
21
-173.862
0
LINE
8
BLACK
6
CONTINUOUS
10
102.076
20
-135.761
11
116.046
21
-135.761
0
LINE
8
BLACK
6
CONTINUOUS
10
116.046
20
-135.761
11
116.046
21
-149.732
0
LINE
8
BLACK
6
CONTINUOUS
10
116.046
20
-149.732
11
102.076
21
-149.732
0
LINE
8
BLACK
6
CONTINUOUS
10
102.076
20
-149.732
11
102.076
21
-135.761
0
LINE
8
BLACK
6
CONTINUOUS
10
121.126
20
-135.761
11
135.096
21
-135.761
0
LINE
8
BLACK
6
CONTINUOUS
10
135.096
20
-135.761
11
135.096
21
-149.732
0
LINE
8
BLACK
6
CONTINUOUS
10
135.096
20
-149.732
11
121.126
21
-149.732
0
LINE
8
BLACK
6
CONTINUOUS
10
121.126
20
-149.732
11
121.126
21
-135.761
0
LINE
8
BLACK
6
CONTINUOUS
10
111.601
20
-154.812
11
125.571
21
-154.812
0
LINE
8
BLACK
6
CONTINUOUS
10
125.571
20
-154.812
11
125.571
21
-168.782
0
LINE
8
BLACK
6
CONTINUOUS
10
125.571
20
-168.782
11
111.601
21
-168.782
0
LINE
8
BLACK
6
CONTINUOUS
10
111.601
20
-168.782
11
111.601
21
-154.812
0
LINE
8
BLACK
6
CONTINUOUS
10
130.651
20
-154.812
11
144.621
21
-154.812
0
LINE
8
BLACK
6
CONTINUOUS
10
144.621
20
-154.812
11
144.621
21
-168.782
0
LINE
8
BLACK
6
CONTINUOUS
10
144.621
20
-168.782
11
130.651
21
-168.782
0
LINE
8
BLACK
6
CONTINUOUS
10
130.651
20
-168.782
11
130.651
21
-154.812
0
LINE
8
BLACK
6
CONTINUOUS
10
135.414
20
-116.711
11
149.384
21
-116.711
0
LINE
8
BLACK
6
CONTINUOUS
10
149.384
20
-116.711
11
149.384
21
-130.681
0
LINE
8
BLACK
6
CONTINUOUS
10
149.384
20
-130.681
11
135.414
21
-130.681
0
LINE
8
BLACK
6
CONTINUOUS
10
135.414
20
-130.681
11
135.414
21
-116.711
0
LINE
8
BLACK
6
CONTINUOUS
10
154.464
20
-116.711
11
168.434
21
-116.711
0
LINE
8
BLACK
6
CONTINUOUS
10
168.434
20
-116.711
11
168.434
21
-130.681
0
LINE
8
BLACK
6
CONTINUOUS
10
168.434
20
-130.681
11
154.464
21
-130.681
0
LINE
8
BLACK
6
CONTINUOUS
10
154.464
20
-130.681
11
154.464
21
-116.711
0
LINE
8
BLACK
6
CONTINUOUS
10
140.176
20
-135.761
11
154.146
21
-135.761
0
LINE
8
BLACK
6
CONTINUOUS
10
154.146
20
-135.761
11
154.146
21
-149.732
0
LINE
8
BLACK
6
CONTINUOUS
10
154.146
20
-149.732
11
140.176
21
-149.732
0
LINE
8
BLACK
6
CONTINUOUS
10
240.094
20
-173.861
11
240.094
21
-173.074
0
LINE
8
BLACK
6
CONTINUOUS
10
249.492
20
-173.074
11
249.492
21
-173.861
0
LINE
8
BLACK
6
CONTINUOUS
10
337.503
20
-137.869
11
339.128
21
-137.869
0
LINE
8
BLACK
6
CONTINUOUS
10
337.503
20
-135.761
11
337.503
21
-137.869
0
LINE
8
BLACK
6
CONTINUOUS
10
323.533
20
-135.761
11
337.503
21
-135.761
0
LINE
8
BLACK
6
CONTINUOUS
10
323.533
20
-148.563
11
321.907
21
-148.563
0
LINE
8
BLACK
6
CONTINUOUS
10
323.533
20
-149.732
11
323.533
21
-148.563
0
LINE
8
BLACK
6
CONTINUOUS
10
337.503
20
-149.732
11
323.533
21
-149.732
0
LINE
8
BLACK
6
CONTINUOUS
10
337.503
20
-148.563
11
337.503
21
-149.732
0
LINE
8
BLACK
6
CONTINUOUS
10
339.128
20
-148.563
11
337.503
21
-148.563
0
LINE
8
BLACK
6
CONTINUOUS
10
197.327
20
-178.832
11
197.327
21
-173.862
0
LINE
8
BLACK
6
CONTINUOUS
10
273.209
20
-173.862
11
268.51
21
-173.862
0
LINE
8
BLACK
6
CONTINUOUS
10
273.209
20
-173.862
11
273.209
21
-187.832
0
LINE
8
BLACK
6
CONTINUOUS
10
259.239
20
-187.832
11
273.209
21
-187.832
0
ARC
8
BLACK
10
68.8181
20
-187.642
40
2.38125
50
180
51
270
0
ARC
8
BLACK
10
349.567
20
-187.642
40
2.38125
50
-90
51
-0
0
LINE
8
BLACK
6
CONTINUOUS
10
140.176
20
-149.732
11
140.176
21
-135.761
0
LINE
8
BLACK
6
CONTINUOUS
10
159.226
20
-135.761
11
173.196
21
-135.761
0
LINE
8
BLACK
6
CONTINUOUS
10
173.196
20
-135.761
11
173.196
21
-149.732
0
LINE
8
BLACK
6
CONTINUOUS
10
173.196
20
-149.732
11
159.226
21
-149.732
0
LINE
8
BLACK
6
CONTINUOUS
10
159.226
20
-149.732
11
159.226
21
-135.761
0
LINE
8
BLACK
6
CONTINUOUS
10
149.701
20
-154.812
11
163.671
21
-154.812
0
LINE
8
BLACK
6
CONTINUOUS
10
163.671
20
-154.812
11
163.671
21
-168.782
0
LINE
8
BLACK
6
CONTINUOUS
10
163.671
20
-168.782
11
149.701
21
-168.782
0
LINE
8
BLACK
6
CONTINUOUS
10
149.701
20
-168.782
11
149.701
21
-154.812
0
LINE
8
BLACK
6
CONTINUOUS
10
173.514
20
-116.711
11
187.484
21
-116.711
0
LINE
8
BLACK
6
CONTINUOUS
10
187.484
20
-116.711
11
187.484
21
-130.681
0
LINE
8
BLACK
6
CONTINUOUS
10
187.484
20
-130.681
11
173.514
21
-130.681
0
LINE
8
BLACK
6
CONTINUOUS
10
173.514
20
-130.681
11
173.514
21
-116.711
0
LINE
8
BLACK
6
CONTINUOUS
10
192.564
20
-116.711
11
206.534
21
-116.711
0
LINE
8
BLACK
6
CONTINUOUS
10
206.534
20
-116.711
11
206.534
21
-130.681
0
LINE
8
BLACK
6
CONTINUOUS
10
206.534
20
-130.681
11
192.564
21
-130.681
0
LINE
8
BLACK
6
CONTINUOUS
10
192.564
20
-130.681
11
192.564
21
-116.711
0
LINE
8
BLACK
6
CONTINUOUS
10
178.276
20
-135.761
11
192.246
21
-135.761
0
LINE
8
BLACK
6
CONTINUOUS
10
192.246
20
-145.039
11
192.246
21
-149.732
0
LINE
8
BLACK
6
CONTINUOUS
10
192.246
20
-149.732
11
178.276
21
-149.732
0
LINE
8
BLACK
6
CONTINUOUS
10
178.276
20
-149.732
11
178.276
21
-135.761
0
LINE
8
BLACK
6
CONTINUOUS
10
197.327
20
-135.761
11
211.297
21
-135.761
0
LINE
8
BLACK
6
CONTINUOUS
10
211.297
20
-135.761
11
211.297
21
-149.732
0
LINE
8
BLACK
6
CONTINUOUS
10
211.297
20
-149.732
11
197.327
21
-149.732
0
LINE
8
BLACK
6
CONTINUOUS
10
197.327
20
-149.732
11
197.327
21
-145.039
0
LINE
8
BLACK
6
CONTINUOUS
10
168.752
20
-154.812
11
182.721
21
-154.812
0
LINE
8
BLACK
6
CONTINUOUS
10
182.721
20
-154.812
11
182.721
21
-168.782
0
LINE
8
BLACK
6
CONTINUOUS
10
182.721
20
-168.782
11
168.752
21
-168.782
0
LINE
8
BLACK
6
CONTINUOUS
10
168.752
20
-168.782
11
168.752
21
-154.812
0
LINE
8
BLACK
6
CONTINUOUS
10
187.801
20
-154.812
11
201.771
21
-154.812
0
LINE
8
BLACK
6
CONTINUOUS
10
201.771
20
-154.812
11
201.771
21
-168.782
0
LINE
8
BLACK
6
CONTINUOUS
10
201.771
20
-168.782
11
187.801
21
-168.782
0
LINE
8
BLACK
6
CONTINUOUS
10
187.801
20
-168.782
11
187.801
21
-154.812
0
LINE
8
BLACK
6
CONTINUOUS
10
211.614
20
-116.711
11
225.584
21
-116.711
0
LINE
8
BLACK
6
CONTINUOUS
10
225.584
20
-116.711
11
225.584
21
-130.681
0
LINE
8
BLACK
6
CONTINUOUS
10
225.584
20
-130.681
11
211.614
21
-130.681
0
LINE
8
BLACK
6
CONTINUOUS
10
211.614
20
-130.681
11
211.614
21
-116.711
0
LINE
8
BLACK
6
CONTINUOUS
10
230.664
20
-116.711
11
244.634
21
-116.711
0
LINE
8
BLACK
6
CONTINUOUS
10
244.634
20
-116.711
11
244.634
21
-130.681
0
LINE
8
BLACK
6
CONTINUOUS
10
244.634
20
-130.681
11
230.664
21
-130.681
0
LINE
8
BLACK
6
CONTINUOUS
10
230.664
20
-130.681
11
230.664
21
-116.711
0
LINE
8
BLACK
6
CONTINUOUS
10
216.376
20
-135.761
11
230.346
21
-135.761
0
LINE
8
BLACK
6
CONTINUOUS
10
230.346
20
-135.761
11
230.346
21
-149.732
0
LINE
8
BLACK
6
CONTINUOUS
10
230.346
20
-149.732
11
216.376
21
-149.732
0
LINE
8
BLACK
6
CONTINUOUS
10
216.376
20
-149.732
11
216.376
21
-135.761
0
LINE
8
BLACK
6
CONTINUOUS
10
206.851
20
-154.812
11
220.821
21
-154.812
0
LINE
8
BLACK
6
CONTINUOUS
10
220.821
20
-154.812
11
220.821
21
-168.782
0
LINE
8
BLACK
6
CONTINUOUS
10
220.821
20
-168.782
11
206.851
21
-168.782
0
LINE
8
BLACK
6
CONTINUOUS
10
206.851
20
-168.782
11
206.851
21
-154.812
0
LINE
8
BLACK
6
CONTINUOUS
10
225.901
20
-154.812
11
239.871
21
-154.812
0
LINE
8
BLACK
6
CONTINUOUS
10
239.871
20
-154.812
11
239.871
21
-168.782
0
LINE
8
BLACK
6
CONTINUOUS
10
239.871
20
-168.782
11
225.901
21
-168.782
0
LINE
8
BLACK
6
CONTINUOUS
10
225.901
20
-168.782
11
225.901
21
-154.812
0
LINE
8
BLACK
6
CONTINUOUS
10
249.714
20
-116.711
11
263.684
21
-116.711
0
LINE
8
BLACK
6
CONTINUOUS
10
263.684
20
-116.711
11
263.684
21
-130.681
0
LINE
8
BLACK
6
CONTINUOUS
10
263.684
20
-130.681
11
249.714
21
-130.681
0
LINE
8
BLACK
6
CONTINUOUS
10
249.714
20
-130.681
11
249.714
21
-116.711
0
LINE
8
BLACK
6
CONTINUOUS
10
235.426
20
-135.761
11
249.396
21
-135.761
0
LINE
8
BLACK
6
CONTINUOUS
10
249.396
20
-135.761
11
249.396
21
-149.732
0
LINE
8
BLACK
6
CONTINUOUS
10
249.396
20
-149.732
11
235.426
21
-149.732
0
LINE
8
BLACK
6
CONTINUOUS
10
235.426
20
-149.732
11
235.426
21
-135.761
0
LINE
8
BLACK
6
CONTINUOUS
10
254.476
20
-135.761
11
268.446
21
-135.761
0
LINE
8
BLACK
6
CONTINUOUS
10
268.446
20
-135.761
11
268.446
21
-149.732
0
LINE
8
BLACK
6
CONTINUOUS
10
268.446
20
-149.732
11
254.476
21
-149.732
0
LINE
8
BLACK
6
CONTINUOUS
10
254.476
20
-149.732
11
254.476
21
-135.761
0
LINE
8
BLACK
6
CONTINUOUS
10
244.952
20
-154.812
11
258.922
21
-154.812
0
LINE
8
BLACK
6
CONTINUOUS
10
258.922
20
-154.812
11
258.922
21
-168.782
0
LINE
8
BLACK
6
CONTINUOUS
10
258.922
20
-168.782
11
244.952
21
-168.782
0
LINE
8
BLACK
6
CONTINUOUS
10
244.952
20
-168.782
11
244.952
21
-154.812
0
LINE
8
BLACK
6
CONTINUOUS
10
264.001
20
-154.812
11
277.971
21
-154.812
0
LINE
8
BLACK
6
CONTINUOUS
10
277.971
20
-154.812
11
277.971
21
-168.782
0
LINE
8
BLACK
6
CONTINUOUS
10
277.971
20
-168.782
11
264.001
21
-168.782
0
LINE
8
BLACK
6
CONTINUOUS
10
264.001
20
-168.782
11
264.001
21
-154.812
0
LINE
8
BLACK
6
CONTINUOUS
10
268.764
20
-116.711
11
282.734
21
-116.711
0
LINE
8
BLACK
6
CONTINUOUS
10
282.734
20
-116.711
11
282.734
21
-130.681
0
LINE
8
BLACK
6
CONTINUOUS
10
282.734
20
-130.681
11
268.764
21
-130.681
0
LINE
8
BLACK
6
CONTINUOUS
10
268.764
20
-130.681
11
268.764
21
-116.711
0
LINE
8
BLACK
6
CONTINUOUS
10
287.814
20
-116.711
11
301.784
21
-116.711
0
LINE
8
BLACK
6
CONTINUOUS
10
301.784
20
-116.711
11
301.784
21
-130.681
0
LINE
8
BLACK
6
CONTINUOUS
10
301.784
20
-130.681
11
287.814
21
-130.681
0
LINE
8
BLACK
6
CONTINUOUS
10
287.814
20
-130.681
11
287.814
21
-116.711
0
LINE
8
BLACK
6
CONTINUOUS
10
273.526
20
-135.761
11
287.496
21
-135.761
0
LINE
8
BLACK
6
CONTINUOUS
10
287.496
20
-135.761
11
287.496
21
-149.732
0
LINE
8
BLACK
6
CONTINUOUS
10
287.496
20
-149.732
11
273.526
21
-149.732
0
LINE
8
BLACK
6
CONTINUOUS
10
273.526
20
-149.732
11
273.526
21
-135.761
0
LINE
8
BLACK
6
CONTINUOUS
10
292.577
20
-135.761
11
306.547
21
-135.761
0
LINE
8
BLACK
6
CONTINUOUS
10
306.547
20
-135.761
11
306.547
21
-149.732
0
LINE
8
BLACK
6
CONTINUOUS
10
306.547
20
-149.732
11
292.577
21
-149.732
0
LINE
8
BLACK
6
CONTINUOUS
10
292.577
20
-149.732
11
292.577
21
-135.761
0
LINE
8
BLACK
6
CONTINUOUS
10
311.531
20
-168.782
11
283.051
21
-168.782
0
LINE
8
BLACK
6
CONTINUOUS
10
283.051
20
-168.782
11
283.051
21
-154.812
0
LINE
8
BLACK
6
CONTINUOUS
10
278.289
20
-187.832
11
278.289
21
-173.862
0
LINE
8
BLACK
6
CONTINUOUS
10
306.864
20
-116.711
11
320.834
21
-116.711
0
LINE
8
BLACK
6
CONTINUOUS
10
320.834
20
-116.711
11
320.834
21
-130.681
0
LINE
8
BLACK
6
CONTINUOUS
10
320.834
20
-130.681
11
306.864
21
-130.681
0
LINE
8
BLACK
6
CONTINUOUS
10
306.864
20
-130.681
11
306.864
21
-116.711
0
LINE
8
BLACK
6
CONTINUOUS
10
349.409
20
-168.782
11
339.979
21
-168.782
0
LINE
8
BLACK
6
CONTINUOUS
10
335.439
20
-169.569
11
335.439
21
-154.812
0
LINE
8
BLACK
6
CONTINUOUS
10
349.409
20
-173.862
11
349.409
21
-187.832
0
LINE
8
BLACK
6
CONTINUOUS
10
349.409
20
-187.832
11
278.289
21
-187.832
0
LINE
8
BLACK
6
CONTINUOUS
10
116.364
20
-116.711
11
130.334
21
-116.711
0
LINE
8
BLACK
6
CONTINUOUS
10
130.334
20
-116.711
11
130.334
21
-130.681
0
LINE
8
BLACK
6
CONTINUOUS
10
130.334
20
-130.681
11
116.364
21
-130.681
0
LINE
8
BLACK
6
CONTINUOUS
10
116.364
20
-130.681
11
116.364
21
-116.711
0
LINE
8
BLACK
6
CONTINUOUS
10
73.5012
20
-130.681
11
73.5012
21
-116.711
0
LINE
8
BLACK
6
CONTINUOUS
10
87.4712
20
-130.681
11
73.5012
21
-130.681
0
LINE
8
BLACK
6
CONTINUOUS
10
87.4712
20
-116.711
11
87.4712
21
-130.681
0
LINE
8
BLACK
6
CONTINUOUS
10
330.676
20
-130.681
11
330.676
21
-116.711
0
LINE
8
BLACK
6
CONTINUOUS
10
344.646
20
-130.681
11
330.676
21
-130.681
0
LINE
8
BLACK
6
CONTINUOUS
10
344.646
20
-116.711
11
344.646
21
-130.681
0
LINE
8
BLACK
6
CONTINUOUS
10
330.676
20
-116.711
11
344.646
21
-116.711
0
LINE
8
BLACK
6
CONTINUOUS
10
73.5012
20
-187.832
11
73.5012
21
-173.862
0
LINE
8
BLACK
6
CONTINUOUS
10
87.4712
20
-187.832
11
73.5012
21
-187.832
0
LINE
8
BLACK
6
CONTINUOUS
10
87.4712
20
-173.862
11
87.4712
21
-187.832
0
LINE
8
BLACK
6
CONTINUOUS
10
73.5012
20
-173.862
11
87.4712
21
-173.862
0
LINE
8
BLACK
6
CONTINUOUS
10
121.126
20
-187.832
11
121.126
21
-173.862
0
LINE
8
BLACK
6
CONTINUOUS
10
135.096
20
-187.832
11
121.126
21
-187.832
0
LINE
8
BLACK
6
CONTINUOUS
10
135.096
20
-173.862
11
135.096
21
-187.832
0
LINE
8
BLACK
6
CONTINUOUS
10
121.126
20
-173.862
11
135.096
21
-173.862
0
LINE
8
BLACK
6
CONTINUOUS
10
75.8824
20
-149.732
11
75.8824
21
-135.761
0
LINE
8
BLACK
6
CONTINUOUS
10
89.8525
20
-149.732
11
75.8824
21
-149.732
0
LINE
8
BLACK
6
CONTINUOUS
10
89.8525
20
-135.761
11
89.8525
21
-149.732
0
LINE
8
BLACK
6
CONTINUOUS
10
75.8824
20
-135.761
11
89.8525
21
-135.761
0
LINE
8
BLACK
6
CONTINUOUS
10
80.6449
20
-156.92
11
80.6449
21
-154.812
0
LINE
8
BLACK
6
CONTINUOUS
10
79.0193
20
-156.92
11
80.6449
21
-156.92
0
LINE
8
BLACK
6
CONTINUOUS
10
79.0193
20
-156.107
11
79.0193
21
-156.92
0
LINE
8
BLACK
6
CONTINUOUS
10
71.5009
20
-156.107
11
79.0193
21
-156.107
0
LINE
8
BLACK
6
CONTINUOUS
10
71.5009
20
-169.569
11
71.5009
21
-156.107
0
LINE
8
BLACK
6
CONTINUOUS
10
79.0193
20
-169.569
11
71.5009
21
-169.569
0
LINE
8
BLACK
6
CONTINUOUS
10
79.0193
20
-167.613
11
79.0193
21
-169.569
0
LINE
8
BLACK
6
CONTINUOUS
10
80.6449
20
-167.613
11
79.0193
21
-167.613
0
LINE
8
BLACK
6
CONTINUOUS
10
80.6449
20
-168.782
11
80.6449
21
-167.613
0
LINE
8
BLACK
6
CONTINUOUS
10
94.6149
20
-168.782
11
80.6449
21
-168.782
0
LINE
8
BLACK
6
CONTINUOUS
10
94.6149
20
-167.613
11
94.6149
21
-168.782
0
LINE
8
BLACK
6
CONTINUOUS
10
96.2405
20
-167.613
11
94.6149
21
-167.613
0
LINE
8
BLACK
6
CONTINUOUS
10
96.2405
20
-169.569
11
96.2405
21
-167.613
0
LINE
8
BLACK
6
CONTINUOUS
10
103.759
20
-169.569
11
96.2405
21
-169.569
0
LINE
8
BLACK
6
CONTINUOUS
10
103.759
20
-156.107
11
103.759
21
-169.569
0
LINE
8
BLACK
6
CONTINUOUS
10
96.2405
20
-156.107
11
103.759
21
-156.107
0
LINE
8
BLACK
6
CONTINUOUS
10
96.2405
20
-156.92
11
96.2405
21
-156.107
0
LINE
8
BLACK
6
CONTINUOUS
10
94.6149
20
-156.92
11
96.2405
21
-156.92
0
LINE
8
BLACK
6
CONTINUOUS
10
94.6149
20
-154.812
11
94.6149
21
-156.92
0
LINE
8
BLACK
6
CONTINUOUS
10
80.6449
20
-154.812
11
94.6149
21
-154.812
0
LINE
8
BLACK
6
CONTINUOUS
10
323.533
20
-137.869
11
323.533
21
-135.761
0
LINE
8
BLACK
6
CONTINUOUS
10
321.907
20
-137.869
11
323.533
21
-137.869
0
LINE
8
BLACK
6
CONTINUOUS
10
332.74
20
-168.782
11
316.103
21
-168.782
0
LINE
8
BLACK
6
CONTINUOUS
10
316.103
20
-168.782
11
316.103
21
-169.569
0
LINE
8
BLACK
6
CONTINUOUS
10
316.103
20
-169.569
11
311.531
21
-169.569
0
LINE
8
BLACK
6
CONTINUOUS
10
311.531
20
-169.569
11
311.531
21
-168.782
  0
ENDSEC
  0
EOF
