  0
SECTION
  2
HEADER
  9
$ANGBASE
  50
0.0
  9
$ANGDIR
  70
1
  9
$MEASUREMENT
  70
1
  0
ENDSEC
  0
SECTION
  2
TABLES
  0
TABLE
  2
LTYPE
  70
4
  0
LTYPE
  5
40F
  2
CONTINUOUS
  70
0
  3
Solid line
  72
65
  73
0
  40
0.0
  0
LTYPE
  5
410
  2
DASHDOT
 70
0
  3
Dash Dot ____ _ ____ _
 72
65
 73
4
 40
2.0
 49
1.25
 49
-0.25
 49
0.25
 49
-0.25
  0
LTYPE
  5
411
  2
DASHED
 70
0
  3
Dashed __ __ __ __ __
 72
65
 73
2
 40
0.75
 49
0.5
 49
-0.25
  0
LTYPE
  5
43B
  2
DOTTED
 70
0
  3
Dotted .  .  .  .
 72
65
 73
2
 40
0.2
 49
0.0
 49
-0.2
  0
ENDTAB
  0
TABLE
  2
STYLE
  70
4
  0
STYLE
  2
KICAD
  70
0
  40
0
  41
1
  42
1
  50
0
  71
0
  3
isocp.shx
  0
STYLE
  2
KICADB
  70
0
  40
0
  41
1
  42
1
  50
0
  71
0
  3
isocp.shx
  0
STYLE
  2
KICADI
  70
0
  40
0
  41
1
  42
1
  50
15
  71
0
  3
isocp.shx
  0
STYLE
  2
KICADBI
  70
0
  40
0
  41
1
  42
1
  50
15
  71
0
  3
isocp.shx
  0
ENDTAB
  0
TABLE
  2
LAYER
  70
1
  0
LAYER
  2
BLACK
  70
0
  62
7
  6
CONTINUOUS
  0
ENDTAB
  0
ENDSEC
  0
SECTION
  2
ENTITIES
0
LINE
8
BLACK
6
CONTINUOUS
10
200.515
20
-186.66
11
200.515
21
-172.69
0
LINE
8
BLACK
6
CONTINUOUS
10
143.38
20
-129.52
11
143.38
21
-115.55
0
LINE
8
BLACK
6
CONTINUOUS
10
138.3
20
-129.52
11
124.33
21
-129.52
0
LINE
8
BLACK
6
CONTINUOUS
10
124.33
20
-129.52
11
124.33
21
-115.55
0
LINE
8
BLACK
6
CONTINUOUS
10
119.25
20
-115.55
11
119.25
21
-129.52
0
LINE
8
BLACK
6
CONTINUOUS
10
119.25
20
-129.52
11
105.28
21
-129.52
0
LINE
8
BLACK
6
CONTINUOUS
10
86.23
20
-129.52
11
86.23
21
-115.55
0
LINE
8
BLACK
6
CONTINUOUS
10
67.18
20
-129.52
11
67.18
21
-115.55
0
LINE
8
BLACK
6
CONTINUOUS
10
67.18
20
-115.55
11
81.15
21
-115.55
0
LINE
8
BLACK
6
CONTINUOUS
10
81.15
20
-115.55
11
81.15
21
-129.52
0
LINE
8
BLACK
6
CONTINUOUS
10
105.28
20
-129.52
11
105.28
21
-115.55
0
LINE
8
BLACK
6
CONTINUOUS
10
81.15
20
-129.52
11
67.18
21
-129.52
0
LINE
8
BLACK
6
CONTINUOUS
10
143.38
20
-115.55
11
157.35
21
-115.55
0
LINE
8
BLACK
6
CONTINUOUS
10
124.33
20
-115.55
11
138.3
21
-115.55
0
LINE
8
BLACK
6
CONTINUOUS
10
162.43
20
-115.55
11
176.4
21
-115.55
0
LINE
8
BLACK
6
CONTINUOUS
10
176.4
20
-115.55
11
176.4
21
-129.52
0
LINE
8
BLACK
6
CONTINUOUS
10
176.4
20
-129.52
11
162.43
21
-129.52
0
LINE
8
BLACK
6
CONTINUOUS
10
162.43
20
-129.52
11
162.43
21
-115.55
0
LINE
8
BLACK
6
CONTINUOUS
10
181.48
20
-115.55
11
195.45
21
-115.55
0
LINE
8
BLACK
6
CONTINUOUS
10
157.35
20
-129.52
11
143.38
21
-129.52
0
LINE
8
BLACK
6
CONTINUOUS
10
195.45
20
-115.55
11
195.45
21
-129.52
0
LINE
8
BLACK
6
CONTINUOUS
10
195.45
20
-129.52
11
181.48
21
-129.52
0
LINE
8
BLACK
6
CONTINUOUS
10
181.48
20
-129.52
11
181.48
21
-115.55
0
LINE
8
BLACK
6
CONTINUOUS
10
157.35
20
-115.55
11
157.35
21
-129.52
0
LINE
8
BLACK
6
CONTINUOUS
10
86.23
20
-115.55
11
100.2
21
-115.55
0
LINE
8
BLACK
6
CONTINUOUS
10
105.28
20
-115.55
11
119.25
21
-115.55
0
LINE
8
BLACK
6
CONTINUOUS
10
100.2
20
-129.52
11
86.23
21
-129.52
0
LINE
8
BLACK
6
CONTINUOUS
10
138.3
20
-115.55
11
138.3
21
-129.52
0
LINE
8
BLACK
6
CONTINUOUS
10
100.2
20
-115.55
11
100.2
21
-129.52
0
LINE
8
BLACK
6
CONTINUOUS
10
138.3
20
-134.6
11
138.3
21
-148.57
0
LINE
8
BLACK
6
CONTINUOUS
10
100.2
20
-153.65
11
100.2
21
-167.62
0
LINE
8
BLACK
6
CONTINUOUS
10
195.45
20
-134.6
11
195.45
21
-148.57
0
LINE
8
BLACK
6
CONTINUOUS
10
195.45
20
-148.57
11
181.48
21
-148.57
0
LINE
8
BLACK
6
CONTINUOUS
10
162.43
20
-148.57
11
162.43
21
-134.6
0
LINE
8
BLACK
6
CONTINUOUS
10
176.4
20
-148.57
11
162.43
21
-148.57
0
LINE
8
BLACK
6
CONTINUOUS
10
105.28
20
-148.57
11
105.28
21
-134.6
0
LINE
8
BLACK
6
CONTINUOUS
10
138.3
20
-148.57
11
124.33
21
-148.57
0
LINE
8
BLACK
6
CONTINUOUS
10
105.28
20
-153.65
11
119.25
21
-153.65
0
LINE
8
BLACK
6
CONTINUOUS
10
105.28
20
-134.6
11
119.25
21
-134.6
0
LINE
8
BLACK
6
CONTINUOUS
10
100.2
20
-167.62
11
86.23
21
-167.62
0
LINE
8
BLACK
6
CONTINUOUS
10
86.23
20
-167.62
11
86.23
21
-153.65
0
LINE
8
BLACK
6
CONTINUOUS
10
119.25
20
-134.6
11
119.25
21
-148.57
0
LINE
8
BLACK
6
CONTINUOUS
10
119.25
20
-148.57
11
105.28
21
-148.57
0
LINE
8
BLACK
6
CONTINUOUS
10
143.38
20
-167.62
11
143.38
21
-153.65
0
LINE
8
BLACK
6
CONTINUOUS
10
181.48
20
-148.57
11
181.48
21
-134.6
0
LINE
8
BLACK
6
CONTINUOUS
10
181.48
20
-153.65
11
195.45
21
-153.65
0
LINE
8
BLACK
6
CONTINUOUS
10
138.3
20
-153.65
11
138.3
21
-167.62
0
LINE
8
BLACK
6
CONTINUOUS
10
157.35
20
-153.65
11
157.35
21
-167.62
0
LINE
8
BLACK
6
CONTINUOUS
10
157.35
20
-167.62
11
143.38
21
-167.62
0
LINE
8
BLACK
6
CONTINUOUS
10
195.45
20
-153.65
11
195.45
21
-167.62
0
LINE
8
BLACK
6
CONTINUOUS
10
195.45
20
-167.62
11
181.48
21
-167.62
0
LINE
8
BLACK
6
CONTINUOUS
10
119.25
20
-167.62
11
105.28
21
-167.62
0
LINE
8
BLACK
6
CONTINUOUS
10
181.48
20
-134.6
11
195.45
21
-134.6
0
LINE
8
BLACK
6
CONTINUOUS
10
124.33
20
-167.62
11
124.33
21
-153.65
0
LINE
8
BLACK
6
CONTINUOUS
10
119.25
20
-153.65
11
119.25
21
-167.62
0
LINE
8
BLACK
6
CONTINUOUS
10
143.38
20
-148.57
11
143.38
21
-134.6
0
LINE
8
BLACK
6
CONTINUOUS
10
143.38
20
-153.65
11
157.35
21
-153.65
0
LINE
8
BLACK
6
CONTINUOUS
10
162.43
20
-134.6
11
176.4
21
-134.6
0
LINE
8
BLACK
6
CONTINUOUS
10
162.43
20
-167.62
11
162.43
21
-153.65
0
LINE
8
BLACK
6
CONTINUOUS
10
162.43
20
-153.65
11
176.4
21
-153.65
0
LINE
8
BLACK
6
CONTINUOUS
10
176.4
20
-153.65
11
176.4
21
-167.62
0
LINE
8
BLACK
6
CONTINUOUS
10
86.23
20
-134.6
11
100.2
21
-134.6
0
LINE
8
BLACK
6
CONTINUOUS
10
176.4
20
-134.6
11
176.4
21
-148.57
0
LINE
8
BLACK
6
CONTINUOUS
10
86.23
20
-148.57
11
86.23
21
-134.6
0
LINE
8
BLACK
6
CONTINUOUS
10
143.38
20
-134.6
11
157.35
21
-134.6
0
LINE
8
BLACK
6
CONTINUOUS
10
138.3
20
-167.62
11
124.33
21
-167.62
0
LINE
8
BLACK
6
CONTINUOUS
10
100.2
20
-134.6
11
100.2
21
-148.57
0
LINE
8
BLACK
6
CONTINUOUS
10
124.33
20
-134.6
11
138.3
21
-134.6
0
LINE
8
BLACK
6
CONTINUOUS
10
124.33
20
-153.65
11
138.3
21
-153.65
0
LINE
8
BLACK
6
CONTINUOUS
10
105.28
20
-167.62
11
105.28
21
-153.65
0
LINE
8
BLACK
6
CONTINUOUS
10
176.4
20
-167.62
11
162.43
21
-167.62
0
LINE
8
BLACK
6
CONTINUOUS
10
181.48
20
-167.62
11
181.48
21
-153.65
0
LINE
8
BLACK
6
CONTINUOUS
10
100.2
20
-148.57
11
86.23
21
-148.57
0
LINE
8
BLACK
6
CONTINUOUS
10
157.35
20
-134.6
11
157.35
21
-148.57
0
LINE
8
BLACK
6
CONTINUOUS
10
86.23
20
-153.65
11
100.2
21
-153.65
0
LINE
8
BLACK
6
CONTINUOUS
10
157.35
20
-148.57
11
143.38
21
-148.57
0
LINE
8
BLACK
6
CONTINUOUS
10
124.33
20
-148.57
11
124.33
21
-134.6
0
LINE
8
BLACK
6
CONTINUOUS
10
238.63
20
-148.57
11
238.63
21
-134.6
0
LINE
8
BLACK
6
CONTINUOUS
10
219.58
20
-115.55
11
233.55
21
-115.55
0
LINE
8
BLACK
6
CONTINUOUS
10
252.6
20
-129.52
11
238.63
21
-129.52
0
LINE
8
BLACK
6
CONTINUOUS
10
238.63
20
-134.6
11
252.6
21
-134.6
0
LINE
8
BLACK
6
CONTINUOUS
10
252.6
20
-134.6
11
252.6
21
-148.57
0
LINE
8
BLACK
6
CONTINUOUS
10
295.78
20
-134.6
11
309.75
21
-134.6
0
LINE
8
BLACK
6
CONTINUOUS
10
309.75
20
-134.6
11
309.75
21
-148.57
0
LINE
8
BLACK
6
CONTINUOUS
10
309.75
20
-148.57
11
295.78
21
-148.57
0
LINE
8
BLACK
6
CONTINUOUS
10
252.6
20
-167.62
11
238.63
21
-167.62
0
LINE
8
BLACK
6
CONTINUOUS
10
238.63
20
-115.55
11
252.6
21
-115.55
0
LINE
8
BLACK
6
CONTINUOUS
10
252.6
20
-153.65
11
252.6
21
-167.62
0
LINE
8
BLACK
6
CONTINUOUS
10
271.65
20
-153.65
11
271.65
21
-167.62
0
LINE
8
BLACK
6
CONTINUOUS
10
271.65
20
-167.62
11
257.68
21
-167.62
0
LINE
8
BLACK
6
CONTINUOUS
10
219.58
20
-167.62
11
219.58
21
-153.65
0
LINE
8
BLACK
6
CONTINUOUS
10
238.63
20
-167.62
11
238.63
21
-153.65
0
LINE
8
BLACK
6
CONTINUOUS
10
328.8
20
-148.57
11
314.83
21
-148.57
0
LINE
8
BLACK
6
CONTINUOUS
10
314.83
20
-148.57
11
314.83
21
-134.6
0
LINE
8
BLACK
6
CONTINUOUS
10
314.83
20
-153.65
11
328.8
21
-153.65
0
LINE
8
BLACK
6
CONTINUOUS
10
257.68
20
-134.6
11
271.65
21
-134.6
0
LINE
8
BLACK
6
CONTINUOUS
10
233.55
20
-129.52
11
219.58
21
-129.52
0
LINE
8
BLACK
6
CONTINUOUS
10
233.55
20
-115.55
11
233.55
21
-129.52
0
LINE
8
BLACK
6
CONTINUOUS
10
233.55
20
-148.57
11
219.58
21
-148.57
0
LINE
8
BLACK
6
CONTINUOUS
10
233.55
20
-153.65
11
233.55
21
-167.62
0
LINE
8
BLACK
6
CONTINUOUS
10
257.68
20
-115.55
11
271.65
21
-115.55
0
LINE
8
BLACK
6
CONTINUOUS
10
276.73
20
-167.62
11
276.73
21
-153.65
0
LINE
8
BLACK
6
CONTINUOUS
10
290.7
20
-167.62
11
276.73
21
-167.62
0
LINE
8
BLACK
6
CONTINUOUS
10
290.7
20
-153.65
11
290.7
21
-167.62
0
LINE
8
BLACK
6
CONTINUOUS
10
276.73
20
-153.65
11
290.7
21
-153.65
0
LINE
8
BLACK
6
CONTINUOUS
10
219.58
20
-148.57
11
219.58
21
-134.6
0
LINE
8
BLACK
6
CONTINUOUS
10
295.78
20
-148.57
11
295.78
21
-134.6
0
LINE
8
BLACK
6
CONTINUOUS
10
295.78
20
-153.65
11
309.75
21
-153.65
0
LINE
8
BLACK
6
CONTINUOUS
10
309.75
20
-153.65
11
309.75
21
-167.62
0
LINE
8
BLACK
6
CONTINUOUS
10
309.75
20
-167.62
11
295.78
21
-167.62
0
LINE
8
BLACK
6
CONTINUOUS
10
219.58
20
-153.65
11
233.55
21
-153.65
0
LINE
8
BLACK
6
CONTINUOUS
10
295.78
20
-167.62
11
295.78
21
-153.65
0
LINE
8
BLACK
6
CONTINUOUS
10
314.83
20
-115.55
11
328.8
21
-115.55
0
LINE
8
BLACK
6
CONTINUOUS
10
328.8
20
-115.55
11
328.8
21
-129.52
0
LINE
8
BLACK
6
CONTINUOUS
10
328.8
20
-129.52
11
314.83
21
-129.52
0
LINE
8
BLACK
6
CONTINUOUS
10
257.68
20
-148.57
11
257.68
21
-134.6
0
LINE
8
BLACK
6
CONTINUOUS
10
257.68
20
-153.65
11
271.65
21
-153.65
0
LINE
8
BLACK
6
CONTINUOUS
10
233.55
20
-167.62
11
219.58
21
-167.62
0
LINE
8
BLACK
6
CONTINUOUS
10
309.75
20
-115.55
11
309.75
21
-129.52
0
LINE
8
BLACK
6
CONTINUOUS
10
309.75
20
-129.52
11
295.78
21
-129.52
0
LINE
8
BLACK
6
CONTINUOUS
10
295.78
20
-129.52
11
295.78
21
-115.55
0
LINE
8
BLACK
6
CONTINUOUS
10
257.68
20
-129.52
11
257.68
21
-115.55
0
LINE
8
BLACK
6
CONTINUOUS
10
233.55
20
-134.6
11
233.55
21
-148.57
0
LINE
8
BLACK
6
CONTINUOUS
10
314.83
20
-129.52
11
314.83
21
-115.55
0
LINE
8
BLACK
6
CONTINUOUS
10
314.83
20
-134.6
11
328.8
21
-134.6
0
LINE
8
BLACK
6
CONTINUOUS
10
328.8
20
-134.6
11
328.8
21
-148.57
0
LINE
8
BLACK
6
CONTINUOUS
10
252.6
20
-115.55
11
252.6
21
-129.52
0
LINE
8
BLACK
6
CONTINUOUS
10
219.58
20
-129.52
11
219.58
21
-115.55
0
LINE
8
BLACK
6
CONTINUOUS
10
219.58
20
-134.6
11
233.55
21
-134.6
0
LINE
8
BLACK
6
CONTINUOUS
10
238.63
20
-153.65
11
252.6
21
-153.65
0
LINE
8
BLACK
6
CONTINUOUS
10
271.65
20
-129.52
11
257.68
21
-129.52
0
LINE
8
BLACK
6
CONTINUOUS
10
328.8
20
-153.65
11
328.8
21
-167.62
0
LINE
8
BLACK
6
CONTINUOUS
10
328.8
20
-167.62
11
314.83
21
-167.62
0
LINE
8
BLACK
6
CONTINUOUS
10
314.83
20
-167.62
11
314.83
21
-153.65
0
LINE
8
BLACK
6
CONTINUOUS
10
290.7
20
-115.55
11
290.7
21
-129.52
0
LINE
8
BLACK
6
CONTINUOUS
10
290.7
20
-129.52
11
276.73
21
-129.52
0
LINE
8
BLACK
6
CONTINUOUS
10
238.63
20
-129.52
11
238.63
21
-115.55
0
LINE
8
BLACK
6
CONTINUOUS
10
252.6
20
-148.57
11
238.63
21
-148.57
0
LINE
8
BLACK
6
CONTINUOUS
10
257.68
20
-167.62
11
257.68
21
-153.65
0
LINE
8
BLACK
6
CONTINUOUS
10
276.73
20
-115.55
11
290.7
21
-115.55
0
LINE
8
BLACK
6
CONTINUOUS
10
276.73
20
-148.57
11
276.73
21
-134.6
0
LINE
8
BLACK
6
CONTINUOUS
10
290.7
20
-148.57
11
276.73
21
-148.57
0
LINE
8
BLACK
6
CONTINUOUS
10
290.7
20
-134.6
11
290.7
21
-148.57
0
LINE
8
BLACK
6
CONTINUOUS
10
276.73
20
-134.6
11
290.7
21
-134.6
0
LINE
8
BLACK
6
CONTINUOUS
10
271.65
20
-134.6
11
271.65
21
-148.57
0
LINE
8
BLACK
6
CONTINUOUS
10
271.65
20
-148.57
11
257.68
21
-148.57
0
LINE
8
BLACK
6
CONTINUOUS
10
271.65
20
-115.55
11
271.65
21
-129.52
0
LINE
8
BLACK
6
CONTINUOUS
10
276.73
20
-129.52
11
276.73
21
-115.55
0
LINE
8
BLACK
6
CONTINUOUS
10
295.78
20
-115.55
11
309.75
21
-115.55
0
LINE
8
BLACK
6
CONTINUOUS
10
200.515
20
-167.61
11
200.515
21
-153.64
0
LINE
8
BLACK
6
CONTINUOUS
10
214.485
20
-153.64
11
214.485
21
-167.61
0
LINE
8
BLACK
6
CONTINUOUS
10
214.485
20
-134.59
11
214.485
21
-148.56
0
LINE
8
BLACK
6
CONTINUOUS
10
200.515
20
-148.56
11
200.515
21
-134.59
0
LINE
8
BLACK
6
CONTINUOUS
10
214.485
20
-148.56
11
200.515
21
-148.56
0
LINE
8
BLACK
6
CONTINUOUS
10
200.515
20
-134.59
11
214.485
21
-134.59
0
LINE
8
BLACK
6
CONTINUOUS
10
214.485
20
-167.61
11
200.515
21
-167.61
0
LINE
8
BLACK
6
CONTINUOUS
10
200.515
20
-153.64
11
214.485
21
-153.64
0
ARC
8
BLACK
10
67.5
20
-186.72
40
2.5
50
180
51
270
0
ARC
8
BLACK
10
347.5
20
-186.72
40
2.5
50
-90
51
-0
0
LINE
8
BLACK
6
CONTINUOUS
10
65
20
-153.6
11
65
21
-186.72
0
LINE
8
BLACK
6
CONTINUOUS
10
81.15
20
-148.57
11
70.355
21
-148.57
0
LINE
8
BLACK
6
CONTINUOUS
10
70.355
20
-153.65
11
81.15
21
-153.65
0
LINE
8
BLACK
6
CONTINUOUS
10
67.18
20
-148.4
11
65
21
-148.4
0
LINE
8
BLACK
6
CONTINUOUS
10
70.355
20
-148.57
11
70.355
21
-153.65
0
LINE
8
BLACK
6
CONTINUOUS
10
67.18
20
-153.6
11
65
21
-153.6
0
LINE
8
BLACK
6
CONTINUOUS
10
347.5
20
-189.22
11
67.5
21
-189.22
0
LINE
8
BLACK
6
CONTINUOUS
10
350
20
-153.6
11
350
21
-186.72
0
LINE
8
BLACK
6
CONTINUOUS
10
347.85
20
-153.6
11
350
21
-153.6
0
LINE
8
BLACK
6
CONTINUOUS
10
347.85
20
-148.4
11
350
21
-148.4
0
LINE
8
BLACK
6
CONTINUOUS
10
214.485
20
-186.66
11
200.515
21
-186.66
0
LINE
8
BLACK
6
CONTINUOUS
10
214.485
20
-172.69
11
214.485
21
-186.66
0
LINE
8
BLACK
6
CONTINUOUS
10
200.515
20
-172.69
11
214.485
21
-172.69
0
LINE
8
BLACK
6
CONTINUOUS
10
333.88
20
-167.62
11
333.88
21
-153.65
0
LINE
8
BLACK
6
CONTINUOUS
10
347.85
20
-167.62
11
333.88
21
-167.62
0
LINE
8
BLACK
6
CONTINUOUS
10
347.85
20
-167.62
11
347.85
21
-153.6
0
LINE
8
BLACK
6
CONTINUOUS
10
333.88
20
-153.65
11
344.675
21
-153.65
0
LINE
8
BLACK
6
CONTINUOUS
10
344.675
20
-148.57
11
344.675
21
-153.65
0
LINE
8
BLACK
6
CONTINUOUS
10
240.932
20
-172.741
11
238.646
21
-172.741
0
LINE
8
BLACK
6
CONTINUOUS
10
240.932
20
-171.953
11
240.932
21
-172.741
0
LINE
8
BLACK
6
CONTINUOUS
10
262.395
20
-172.741
11
245.504
21
-172.741
0
LINE
8
BLACK
6
CONTINUOUS
10
262.395
20
-171.953
11
262.395
21
-172.741
0
LINE
8
BLACK
6
CONTINUOUS
10
245.504
20
-171.953
11
240.932
21
-171.953
0
LINE
8
BLACK
6
CONTINUOUS
10
271.666
20
-186.711
11
271.666
21
-172.741
0
LINE
8
BLACK
6
CONTINUOUS
10
271.666
20
-172.741
11
269.38
21
-172.741
0
LINE
8
BLACK
6
CONTINUOUS
10
295.78
20
-186.67
11
295.78
21
-172.7
0
LINE
8
BLACK
6
CONTINUOUS
10
309.75
20
-186.67
11
295.78
21
-186.67
0
LINE
8
BLACK
6
CONTINUOUS
10
309.75
20
-172.7
11
309.75
21
-186.67
0
LINE
8
BLACK
6
CONTINUOUS
10
295.78
20
-172.7
11
309.75
21
-172.7
0
LINE
8
BLACK
6
CONTINUOUS
10
219.58
20
-186.67
11
219.58
21
-172.7
0
LINE
8
BLACK
6
CONTINUOUS
10
233.55
20
-186.67
11
219.58
21
-186.67
0
LINE
8
BLACK
6
CONTINUOUS
10
233.55
20
-172.7
11
233.55
21
-186.67
0
LINE
8
BLACK
6
CONTINUOUS
10
219.58
20
-172.7
11
233.55
21
-172.7
0
LINE
8
BLACK
6
CONTINUOUS
10
276.73
20
-186.67
11
276.73
21
-172.7
0
LINE
8
BLACK
6
CONTINUOUS
10
290.7
20
-186.67
11
276.73
21
-186.67
0
LINE
8
BLACK
6
CONTINUOUS
10
290.7
20
-172.7
11
290.7
21
-186.67
0
LINE
8
BLACK
6
CONTINUOUS
10
276.73
20
-172.7
11
290.7
21
-172.7
0
LINE
8
BLACK
6
CONTINUOUS
10
314.83
20
-172.7
11
328.8
21
-172.7
0
LINE
8
BLACK
6
CONTINUOUS
10
328.8
20
-172.7
11
328.8
21
-186.67
0
LINE
8
BLACK
6
CONTINUOUS
10
328.8
20
-186.67
11
314.83
21
-186.67
0
LINE
8
BLACK
6
CONTINUOUS
10
314.83
20
-186.67
11
314.83
21
-172.7
0
LINE
8
BLACK
6
CONTINUOUS
10
333.88
20
-172.7
11
347.85
21
-172.7
0
LINE
8
BLACK
6
CONTINUOUS
10
347.85
20
-172.7
11
347.85
21
-186.67
0
LINE
8
BLACK
6
CONTINUOUS
10
347.85
20
-186.67
11
333.88
21
-186.67
0
LINE
8
BLACK
6
CONTINUOUS
10
333.88
20
-186.67
11
333.88
21
-172.7
0
LINE
8
BLACK
6
CONTINUOUS
10
238.646
20
-172.741
11
238.646
21
-186.711
0
LINE
8
BLACK
6
CONTINUOUS
10
269.38
20
-171.953
11
269.38
21
-172.741
0
LINE
8
BLACK
6
CONTINUOUS
10
245.504
20
-171.953
11
245.504
21
-172.741
0
LINE
8
BLACK
6
CONTINUOUS
10
269.38
20
-171.953
11
262.395
21
-171.953
0
LINE
8
BLACK
6
CONTINUOUS
10
238.646
20
-186.711
11
271.666
21
-186.711
0
LINE
8
BLACK
6
CONTINUOUS
10
333.88
20
-129.52
11
333.88
21
-115.55
0
LINE
8
BLACK
6
CONTINUOUS
10
347.85
20
-129.52
11
333.88
21
-129.52
0
LINE
8
BLACK
6
CONTINUOUS
10
347.85
20
-115.55
11
347.85
21
-129.52
0
LINE
8
BLACK
6
CONTINUOUS
10
333.88
20
-115.55
11
347.85
21
-115.55
0
LINE
8
BLACK
6
CONTINUOUS
10
333.88
20
-134.6
11
347.85
21
-134.6
0
LINE
8
BLACK
6
CONTINUOUS
10
347.85
20
-134.6
11
347.85
21
-148.4
0
LINE
8
BLACK
6
CONTINUOUS
10
344.675
20
-148.57
11
333.88
21
-148.57
0
LINE
8
BLACK
6
CONTINUOUS
10
333.88
20
-148.57
11
333.88
21
-134.6
0
LINE
8
BLACK
6
CONTINUOUS
10
174.114
20
-171.912
11
174.114
21
-172.7
0
LINE
8
BLACK
6
CONTINUOUS
10
152.651
20
-171.912
11
152.651
21
-172.7
0
LINE
8
BLACK
6
CONTINUOUS
10
169.542
20
-171.912
11
169.542
21
-172.7
0
LINE
8
BLACK
6
CONTINUOUS
10
145.666
20
-171.912
11
145.666
21
-172.7
0
LINE
8
BLACK
6
CONTINUOUS
10
143.38
20
-172.7
11
145.666
21
-172.7
0
LINE
8
BLACK
6
CONTINUOUS
10
174.114
20
-172.7
11
176.4
21
-172.7
0
LINE
8
BLACK
6
CONTINUOUS
10
169.542
20
-171.912
11
174.114
21
-171.912
0
LINE
8
BLACK
6
CONTINUOUS
10
145.666
20
-171.912
11
152.651
21
-171.912
0
LINE
8
BLACK
6
CONTINUOUS
10
181.48
20
-186.67
11
181.48
21
-172.7
0
LINE
8
BLACK
6
CONTINUOUS
10
195.45
20
-186.67
11
181.48
21
-186.67
0
LINE
8
BLACK
6
CONTINUOUS
10
195.45
20
-172.7
11
195.45
21
-186.67
0
LINE
8
BLACK
6
CONTINUOUS
10
181.48
20
-172.7
11
195.45
21
-172.7
0
LINE
8
BLACK
6
CONTINUOUS
10
143.38
20
-186.67
11
143.38
21
-172.7
0
LINE
8
BLACK
6
CONTINUOUS
10
176.4
20
-186.67
11
143.38
21
-186.67
0
LINE
8
BLACK
6
CONTINUOUS
10
105.28
20
-186.67
11
105.28
21
-172.7
0
LINE
8
BLACK
6
CONTINUOUS
10
119.25
20
-186.67
11
105.28
21
-186.67
0
LINE
8
BLACK
6
CONTINUOUS
10
119.25
20
-172.7
11
119.25
21
-186.67
0
LINE
8
BLACK
6
CONTINUOUS
10
105.28
20
-172.7
11
119.25
21
-172.7
0
LINE
8
BLACK
6
CONTINUOUS
10
67.18
20
-172.7
11
81.15
21
-172.7
0
LINE
8
BLACK
6
CONTINUOUS
10
81.15
20
-172.7
11
81.15
21
-186.67
0
LINE
8
BLACK
6
CONTINUOUS
10
81.15
20
-186.67
11
67.18
21
-186.67
0
LINE
8
BLACK
6
CONTINUOUS
10
67.18
20
-186.67
11
67.18
21
-172.7
0
LINE
8
BLACK
6
CONTINUOUS
10
86.23
20
-172.7
11
100.2
21
-172.7
0
LINE
8
BLACK
6
CONTINUOUS
10
100.2
20
-172.7
11
100.2
21
-186.67
0
LINE
8
BLACK
6
CONTINUOUS
10
100.2
20
-186.67
11
86.23
21
-186.67
0
LINE
8
BLACK
6
CONTINUOUS
10
86.23
20
-186.67
11
86.23
21
-172.7
0
LINE
8
BLACK
6
CONTINUOUS
10
124.33
20
-186.67
11
124.33
21
-172.7
0
LINE
8
BLACK
6
CONTINUOUS
10
138.3
20
-186.67
11
124.33
21
-186.67
0
LINE
8
BLACK
6
CONTINUOUS
10
138.3
20
-172.7
11
138.3
21
-186.67
0
LINE
8
BLACK
6
CONTINUOUS
10
124.33
20
-172.7
11
138.3
21
-172.7
0
LINE
8
BLACK
6
CONTINUOUS
10
176.4
20
-172.7
11
176.4
21
-186.67
0
LINE
8
BLACK
6
CONTINUOUS
10
152.651
20
-172.7
11
169.542
21
-172.7
0
LINE
8
BLACK
6
CONTINUOUS
10
67.18
20
-148.4
11
67.18
21
-134.6
0
LINE
8
BLACK
6
CONTINUOUS
10
81.15
20
-134.6
11
81.15
21
-148.57
0
LINE
8
BLACK
6
CONTINUOUS
10
67.18
20
-134.6
11
81.15
21
-134.6
0
LINE
8
BLACK
6
CONTINUOUS
10
67.18
20
-167.62
11
67.18
21
-153.6
0
LINE
8
BLACK
6
CONTINUOUS
10
81.15
20
-167.62
11
67.18
21
-167.62
0
LINE
8
BLACK
6
CONTINUOUS
10
81.15
20
-153.65
11
81.15
21
-167.62
0
LINE
8
BLACK
6
CONTINUOUS
10
214.485
20
-115.55
11
200.515
21
-115.55
0
LINE
8
BLACK
6
CONTINUOUS
10
214.485
20
-129.52
11
214.485
21
-115.55
0
LINE
8
BLACK
6
CONTINUOUS
10
214.485
20
-129.52
11
200.515
21
-129.52
0
LINE
8
BLACK
6
CONTINUOUS
10
200.515
20
-129.52
11
200.515
21
-115.55
0
LINE
8
BLACK
6
CONTINUOUS
10
350
20
-113
11
350
21
-148.4
0
LINE
8
BLACK
6
CONTINUOUS
10
65
20
-113
11
65
21
-148.4
0
LINE
8
BLACK
6
CONTINUOUS
10
65
20
-113
11
350
21
-113
  0
ENDSEC
  0
EOF
