G04 #@! TF.GenerationSoftware,KiCad,Pcbnew,(5.1.9-0-10_14)*
G04 #@! TF.CreationDate,2021-07-28T20:51:04+02:00*
G04 #@! TF.ProjectId,juliet,6a756c69-6574-42e6-9b69-6361645f7063,1*
G04 #@! TF.SameCoordinates,Original*
G04 #@! TF.FileFunction,Soldermask,Bot*
G04 #@! TF.FilePolarity,Negative*
%FSLAX46Y46*%
G04 Gerber Fmt 4.6, Leading zero omitted, Abs format (unit mm)*
G04 Created by KiCad (PCBNEW (5.1.9-0-10_14)) date 2021-07-28 20:51:04*
%MOMM*%
%LPD*%
G01*
G04 APERTURE LIST*
%ADD10C,0.300000*%
%ADD11C,0.120000*%
%ADD12C,0.100000*%
%ADD13C,0.160000*%
%ADD14C,0.500000*%
%ADD15C,3.987800*%
%ADD16C,3.048000*%
%ADD17C,1.701800*%
%ADD18C,2.286000*%
%ADD19C,1.800000*%
%ADD20O,1.600000X1.600000*%
%ADD21R,1.600000X1.600000*%
%ADD22O,0.700000X1.000000*%
%ADD23O,0.900000X2.400000*%
%ADD24O,0.900000X1.700000*%
%ADD25C,1.100000*%
%ADD26R,1.100000X1.100000*%
%ADD27O,0.850000X2.000000*%
%ADD28O,5.000000X7.200000*%
%ADD29O,11.600000X5.000000*%
%ADD30O,7.200000X5.000000*%
%ADD31C,5.000000*%
%ADD32O,1.400000X1.400000*%
%ADD33C,1.400000*%
%ADD34C,1.710000*%
%ADD35R,1.200000X1.200000*%
%ADD36C,1.200000*%
%ADD37C,1.600000*%
%ADD38R,1.700000X1.700000*%
%ADD39O,1.700000X1.700000*%
%ADD40R,1.800000X1.800000*%
%ADD41C,2.000000*%
%ADD42C,1.500000*%
G04 APERTURE END LIST*
D10*
X291913281Y-146220882D02*
X291913281Y-147292311D01*
X291984710Y-147506596D01*
X292127567Y-147649453D01*
X292341853Y-147720882D01*
X292484710Y-147720882D01*
X290556138Y-146720882D02*
X290556138Y-147720882D01*
X291198996Y-146720882D02*
X291198996Y-147506596D01*
X291127567Y-147649453D01*
X290984710Y-147720882D01*
X290770424Y-147720882D01*
X290627567Y-147649453D01*
X290556138Y-147578025D01*
X289627567Y-147720882D02*
X289770424Y-147649453D01*
X289841853Y-147506596D01*
X289841853Y-146220882D01*
X289056138Y-147720882D02*
X289056138Y-146720882D01*
X289056138Y-146220882D02*
X289127567Y-146292311D01*
X289056138Y-146363739D01*
X288984710Y-146292311D01*
X289056138Y-146220882D01*
X289056138Y-146363739D01*
X287770424Y-147649453D02*
X287913281Y-147720882D01*
X288198996Y-147720882D01*
X288341853Y-147649453D01*
X288413281Y-147506596D01*
X288413281Y-146935168D01*
X288341853Y-146792311D01*
X288198996Y-146720882D01*
X287913281Y-146720882D01*
X287770424Y-146792311D01*
X287698996Y-146935168D01*
X287698996Y-147078025D01*
X288413281Y-147220882D01*
X287270424Y-146720882D02*
X286698996Y-146720882D01*
X287056138Y-146220882D02*
X287056138Y-147506596D01*
X286984710Y-147649453D01*
X286841853Y-147720882D01*
X286698996Y-147720882D01*
X285056138Y-147720882D02*
X285056138Y-146720882D01*
X285056138Y-147006596D02*
X284984710Y-146863739D01*
X284913281Y-146792311D01*
X284770424Y-146720882D01*
X284627567Y-146720882D01*
X283556138Y-147649453D02*
X283698996Y-147720882D01*
X283984710Y-147720882D01*
X284127567Y-147649453D01*
X284198996Y-147506596D01*
X284198996Y-146935168D01*
X284127567Y-146792311D01*
X283984710Y-146720882D01*
X283698996Y-146720882D01*
X283556138Y-146792311D01*
X283484710Y-146935168D01*
X283484710Y-147078025D01*
X284198996Y-147220882D01*
X282984710Y-146720882D02*
X282627567Y-147720882D01*
X282270424Y-146720882D01*
X280913281Y-147720882D02*
X281770424Y-147720882D01*
X281341853Y-147720882D02*
X281341853Y-146220882D01*
X281484710Y-146435168D01*
X281627567Y-146578025D01*
X281770424Y-146649453D01*
X278484710Y-146720882D02*
X278484710Y-147720882D01*
X279127567Y-146720882D02*
X279127567Y-147506596D01*
X279056138Y-147649453D01*
X278913281Y-147720882D01*
X278698996Y-147720882D01*
X278556138Y-147649453D01*
X278484710Y-147578025D01*
X276698996Y-146149453D02*
X277984710Y-148078025D01*
X276198996Y-146720882D02*
X276198996Y-148220882D01*
X276198996Y-146792311D02*
X276056138Y-146720882D01*
X275770424Y-146720882D01*
X275627567Y-146792311D01*
X275556138Y-146863739D01*
X275484710Y-147006596D01*
X275484710Y-147435168D01*
X275556138Y-147578025D01*
X275627567Y-147649453D01*
X275770424Y-147720882D01*
X276056138Y-147720882D01*
X276198996Y-147649453D01*
X274270424Y-147649453D02*
X274413281Y-147720882D01*
X274698996Y-147720882D01*
X274841853Y-147649453D01*
X274913281Y-147506596D01*
X274913281Y-146935168D01*
X274841853Y-146792311D01*
X274698996Y-146720882D01*
X274413281Y-146720882D01*
X274270424Y-146792311D01*
X274198996Y-146935168D01*
X274198996Y-147078025D01*
X274913281Y-147220882D01*
X272984710Y-147649453D02*
X273127567Y-147720882D01*
X273413281Y-147720882D01*
X273556138Y-147649453D01*
X273627567Y-147506596D01*
X273627567Y-146935168D01*
X273556138Y-146792311D01*
X273413281Y-146720882D01*
X273127567Y-146720882D01*
X272984710Y-146792311D01*
X272913281Y-146935168D01*
X272913281Y-147078025D01*
X273627567Y-147220882D01*
X272270424Y-146720882D02*
X272270424Y-148006596D01*
X272341853Y-148149453D01*
X272484710Y-148220882D01*
X272556138Y-148220882D01*
X272270424Y-146220882D02*
X272341853Y-146292311D01*
X272270424Y-146363739D01*
X272198996Y-146292311D01*
X272270424Y-146220882D01*
X272270424Y-146363739D01*
X270984710Y-147649453D02*
X271127567Y-147720882D01*
X271413281Y-147720882D01*
X271556138Y-147649453D01*
X271627567Y-147506596D01*
X271627567Y-146935168D01*
X271556138Y-146792311D01*
X271413281Y-146720882D01*
X271127567Y-146720882D01*
X270984710Y-146792311D01*
X270913281Y-146935168D01*
X270913281Y-147078025D01*
X271627567Y-147220882D01*
X270270424Y-147720882D02*
X270270424Y-146220882D01*
X269627567Y-147720882D02*
X269627567Y-146935168D01*
X269698996Y-146792311D01*
X269841853Y-146720882D01*
X270056138Y-146720882D01*
X270198996Y-146792311D01*
X270270424Y-146863739D01*
X267484710Y-146220882D02*
X267341853Y-146220882D01*
X267198995Y-146292311D01*
X267127567Y-146363739D01*
X267056138Y-146506596D01*
X266984710Y-146792311D01*
X266984710Y-147149453D01*
X267056138Y-147435168D01*
X267127567Y-147578025D01*
X267198995Y-147649453D01*
X267341853Y-147720882D01*
X267484710Y-147720882D01*
X267627567Y-147649453D01*
X267698995Y-147578025D01*
X267770424Y-147435168D01*
X267841853Y-147149453D01*
X267841853Y-146792311D01*
X267770424Y-146506596D01*
X267698995Y-146363739D01*
X267627567Y-146292311D01*
X267484710Y-146220882D01*
X265627567Y-146220882D02*
X266341853Y-146220882D01*
X266413281Y-146935168D01*
X266341853Y-146863739D01*
X266198995Y-146792311D01*
X265841853Y-146792311D01*
X265698995Y-146863739D01*
X265627567Y-146935168D01*
X265556138Y-147078025D01*
X265556138Y-147435168D01*
X265627567Y-147578025D01*
X265698995Y-147649453D01*
X265841853Y-147720882D01*
X266198995Y-147720882D01*
X266341853Y-147649453D01*
X266413281Y-147578025D01*
X263841853Y-146149453D02*
X265127567Y-148078025D01*
X263413281Y-146363739D02*
X263341853Y-146292311D01*
X263198995Y-146220882D01*
X262841853Y-146220882D01*
X262698995Y-146292311D01*
X262627567Y-146363739D01*
X262556138Y-146506596D01*
X262556138Y-146649453D01*
X262627567Y-146863739D01*
X263484710Y-147720882D01*
X262556138Y-147720882D01*
X261627567Y-146220882D02*
X261484710Y-146220882D01*
X261341853Y-146292311D01*
X261270424Y-146363739D01*
X261198995Y-146506596D01*
X261127567Y-146792311D01*
X261127567Y-147149453D01*
X261198995Y-147435168D01*
X261270424Y-147578025D01*
X261341853Y-147649453D01*
X261484710Y-147720882D01*
X261627567Y-147720882D01*
X261770424Y-147649453D01*
X261841853Y-147578025D01*
X261913281Y-147435168D01*
X261984710Y-147149453D01*
X261984710Y-146792311D01*
X261913281Y-146506596D01*
X261841853Y-146363739D01*
X261770424Y-146292311D01*
X261627567Y-146220882D01*
X260556138Y-146363739D02*
X260484710Y-146292311D01*
X260341853Y-146220882D01*
X259984710Y-146220882D01*
X259841853Y-146292311D01*
X259770424Y-146363739D01*
X259698995Y-146506596D01*
X259698995Y-146649453D01*
X259770424Y-146863739D01*
X260627567Y-147720882D01*
X259698995Y-147720882D01*
X258270424Y-147720882D02*
X259127567Y-147720882D01*
X258698995Y-147720882D02*
X258698995Y-146220882D01*
X258841853Y-146435168D01*
X258984710Y-146578025D01*
X259127567Y-146649453D01*
X253883511Y-147708809D02*
X253883511Y-146108809D01*
X252969226Y-147708809D01*
X252969226Y-146108809D01*
X251445416Y-147708809D02*
X252207321Y-147708809D01*
X252207321Y-146108809D01*
D11*
X245720171Y-147185000D02*
G75*
G03*
X245720171Y-147185000I-141421J0D01*
G01*
X245520171Y-147385000D02*
G75*
G03*
X245520171Y-147385000I-141421J0D01*
G01*
X244920171Y-147385000D02*
G75*
G03*
X244920171Y-147385000I-141421J0D01*
G01*
X244720171Y-147185000D02*
G75*
G03*
X244720171Y-147185000I-141421J0D01*
G01*
X244720171Y-146585000D02*
G75*
G03*
X244720171Y-146585000I-141421J0D01*
G01*
X244920171Y-146385000D02*
G75*
G03*
X244920171Y-146385000I-141421J0D01*
G01*
X245520171Y-146385000D02*
G75*
G03*
X245520171Y-146385000I-141421J0D01*
G01*
X245720171Y-146585000D02*
G75*
G03*
X245720171Y-146585000I-141421J0D01*
G01*
X245820171Y-146885000D02*
G75*
G03*
X245820171Y-146885000I-141421J0D01*
G01*
X244620171Y-146885000D02*
G75*
G03*
X244620171Y-146885000I-141421J0D01*
G01*
X245220171Y-147485000D02*
G75*
G03*
X245220171Y-147485000I-141421J0D01*
G01*
X245220171Y-146285000D02*
G75*
G03*
X245220171Y-146285000I-141421J0D01*
G01*
D12*
G36*
X247478750Y-147785000D02*
G01*
X250478750Y-147785000D01*
X250478750Y-147285000D01*
X247478750Y-147285000D01*
X247478750Y-147785000D01*
G37*
X247478750Y-147785000D02*
X250478750Y-147785000D01*
X250478750Y-147285000D01*
X247478750Y-147285000D01*
X247478750Y-147785000D01*
D11*
X250478750Y-147785000D02*
X250478750Y-145985000D01*
X247478750Y-147785000D02*
X250478750Y-147785000D01*
X247478750Y-145985000D02*
X247478750Y-147785000D01*
X250478750Y-145985000D02*
X247478750Y-145985000D01*
D12*
G36*
X255178750Y-147385000D02*
G01*
X255178750Y-147785000D01*
X255978750Y-147785000D01*
X255978750Y-147385000D01*
X255678750Y-146485000D01*
X255478750Y-146485000D01*
X255178750Y-147385000D01*
G37*
X255178750Y-147385000D02*
X255178750Y-147785000D01*
X255978750Y-147785000D01*
X255978750Y-147385000D01*
X255678750Y-146485000D01*
X255478750Y-146485000D01*
X255178750Y-147385000D01*
D13*
X245840327Y-146885000D02*
G75*
G03*
X245840327Y-146885000I-761577J0D01*
G01*
D14*
X245302357Y-146885000D02*
G75*
G03*
X245302357Y-146885000I-223607J0D01*
G01*
D11*
G36*
X245078750Y-146085000D02*
G01*
X245278750Y-146085000D01*
X245678750Y-146285000D01*
X245878750Y-146685000D01*
X245878750Y-147085000D01*
X245678750Y-147485000D01*
X245378750Y-147685000D01*
X245078750Y-147685000D01*
X245078750Y-147785000D01*
X246578750Y-147785000D01*
X246578750Y-145985000D01*
X245078750Y-145985000D01*
X245078750Y-146085000D01*
G37*
X245078750Y-146085000D02*
X245278750Y-146085000D01*
X245678750Y-146285000D01*
X245878750Y-146685000D01*
X245878750Y-147085000D01*
X245678750Y-147485000D01*
X245378750Y-147685000D01*
X245078750Y-147685000D01*
X245078750Y-147785000D01*
X246578750Y-147785000D01*
X246578750Y-145985000D01*
X245078750Y-145985000D01*
X245078750Y-146085000D01*
G36*
X245078750Y-147685000D02*
G01*
X244878750Y-147685000D01*
X244478750Y-147485000D01*
X244278750Y-147085000D01*
X244278750Y-146685000D01*
X244478750Y-146285000D01*
X244778750Y-146085000D01*
X245078750Y-146085000D01*
X245078750Y-145985000D01*
X243578750Y-145985000D01*
X243578750Y-147785000D01*
X245078750Y-147785000D01*
X245078750Y-147685000D01*
G37*
X245078750Y-147685000D02*
X244878750Y-147685000D01*
X244478750Y-147485000D01*
X244278750Y-147085000D01*
X244278750Y-146685000D01*
X244478750Y-146285000D01*
X244778750Y-146085000D01*
X245078750Y-146085000D01*
X245078750Y-145985000D01*
X243578750Y-145985000D01*
X243578750Y-147785000D01*
X245078750Y-147785000D01*
X245078750Y-147685000D01*
D15*
X166655750Y-132238750D03*
X190531750Y-132238750D03*
D16*
X166655750Y-147478750D03*
X190531750Y-147478750D03*
D17*
X173513750Y-140493750D03*
X183673750Y-140493750D03*
D15*
X178593750Y-140493750D03*
D18*
X174783750Y-137953750D03*
X181133750Y-135413750D03*
D15*
X147605750Y-132238750D03*
X171481750Y-132238750D03*
D16*
X147605750Y-147478750D03*
X171481750Y-147478750D03*
D17*
X154463750Y-140493750D03*
X164623750Y-140493750D03*
D15*
X159543750Y-140493750D03*
D18*
X155733750Y-137953750D03*
X162083750Y-135413750D03*
D15*
X99980750Y-132238750D03*
X123856750Y-132238750D03*
D16*
X99980750Y-147478750D03*
X123856750Y-147478750D03*
D17*
X106838750Y-140493750D03*
X116998750Y-140493750D03*
D15*
X111918750Y-140493750D03*
D18*
X108108750Y-137953750D03*
X114458750Y-135413750D03*
D15*
X281019250Y-129698750D03*
X257143250Y-129698750D03*
D16*
X281019250Y-114458750D03*
X257143250Y-114458750D03*
D17*
X274161250Y-121443750D03*
X264001250Y-121443750D03*
D15*
X269081250Y-121443750D03*
D18*
X265271250Y-118903750D03*
X271621250Y-116363750D03*
D15*
X95250000Y-132238750D03*
X209550000Y-132238750D03*
D16*
X95250000Y-147478750D03*
X209550000Y-147478750D03*
D19*
X147320000Y-140493750D03*
X157480000Y-140493750D03*
D15*
X152400000Y-140493750D03*
D18*
X148590000Y-137953750D03*
X154940000Y-135413750D03*
D17*
X214630000Y-140493750D03*
X204470000Y-140493750D03*
D15*
X209550000Y-140493750D03*
D18*
X205740000Y-137953750D03*
X212090000Y-135413750D03*
D17*
X195580000Y-140493750D03*
X185420000Y-140493750D03*
D15*
X190500000Y-140493750D03*
D18*
X186690000Y-137953750D03*
X193040000Y-135413750D03*
D17*
X152717500Y-140493750D03*
X142557500Y-140493750D03*
D15*
X147637500Y-140493750D03*
D18*
X143827500Y-137953750D03*
X150177500Y-135413750D03*
D20*
X219075000Y-143351250D03*
D21*
X219075000Y-135731250D03*
D22*
X25136968Y-60145127D03*
X25986968Y-60145127D03*
X26836968Y-60145127D03*
X27686968Y-60145127D03*
X28536968Y-60145127D03*
X29386968Y-60145127D03*
X30236968Y-60145127D03*
X31086968Y-60145127D03*
X25986968Y-58795127D03*
X27686968Y-58795127D03*
X26836968Y-58795127D03*
X25136968Y-58795127D03*
X29386968Y-58795127D03*
X30236968Y-58795127D03*
X31086968Y-58795127D03*
X28536968Y-58795127D03*
D23*
X23786968Y-59315127D03*
X32436968Y-59315127D03*
D24*
X23786968Y-55935127D03*
X32436968Y-55935127D03*
D25*
X27308968Y-61339127D03*
X26508968Y-63089127D03*
X28108968Y-63089127D03*
X28908968Y-61339127D03*
D26*
X29708968Y-63089127D03*
D27*
X24208968Y-56639127D03*
X32008968Y-56639127D03*
D20*
X219075000Y-67151250D03*
D21*
X219075000Y-59531250D03*
D20*
X245268750Y-69532500D03*
D21*
X245268750Y-61912500D03*
D28*
X138112616Y-102393836D03*
D29*
X293846250Y-111442500D03*
D30*
X35004375Y-83105625D03*
D15*
X285781750Y-110648750D03*
X261905750Y-110648750D03*
D16*
X285781750Y-95408750D03*
X261905750Y-95408750D03*
D17*
X278923750Y-102393750D03*
X268763750Y-102393750D03*
D15*
X273843750Y-102393750D03*
D18*
X270033750Y-99853750D03*
X276383750Y-97313750D03*
D15*
X42894250Y-129698750D03*
X19018250Y-129698750D03*
D16*
X42894250Y-114458750D03*
X19018250Y-114458750D03*
D17*
X36036250Y-121443750D03*
X25876250Y-121443750D03*
D15*
X30956250Y-121443750D03*
D18*
X27146250Y-118903750D03*
X33496250Y-116363750D03*
D17*
X264636250Y-121443750D03*
X254476250Y-121443750D03*
D15*
X259556250Y-121443750D03*
D18*
X255746250Y-118903750D03*
X262096250Y-116363750D03*
D17*
X245586250Y-121443750D03*
X235426250Y-121443750D03*
D15*
X240506250Y-121443750D03*
D18*
X236696250Y-118903750D03*
X243046250Y-116363750D03*
D17*
X31273750Y-102393836D03*
X21113750Y-102393836D03*
D15*
X26193750Y-102393836D03*
D18*
X22383750Y-99853836D03*
X28733750Y-97313836D03*
D19*
X76517500Y-140493750D03*
X66357500Y-140493750D03*
D15*
X71437500Y-140493750D03*
D18*
X67627500Y-137953750D03*
X73977500Y-135413750D03*
D19*
X28892500Y-140493750D03*
X18732500Y-140493750D03*
D15*
X23812500Y-140493750D03*
D18*
X20002500Y-137953750D03*
X26352500Y-135413750D03*
D19*
X286067500Y-140493750D03*
X275907500Y-140493750D03*
D15*
X280987500Y-140493750D03*
D18*
X277177500Y-137953750D03*
X283527500Y-135413750D03*
D19*
X286067500Y-83343750D03*
X275907500Y-83343750D03*
D15*
X280987500Y-83343750D03*
D18*
X277177500Y-80803750D03*
X283527500Y-78263750D03*
D19*
X238442500Y-140493750D03*
X228282500Y-140493750D03*
D15*
X233362500Y-140493750D03*
D18*
X229552500Y-137953750D03*
X235902500Y-135413750D03*
D19*
X28892500Y-83343750D03*
X18732500Y-83343750D03*
D15*
X23812500Y-83343750D03*
D18*
X20002500Y-80803750D03*
X26352500Y-78263750D03*
D29*
X11191875Y-111442500D03*
D31*
X290274375Y-59531250D03*
D30*
X269960000Y-82970000D03*
X200380000Y-140310000D03*
D31*
X152400000Y-69056250D03*
X14525625Y-59531250D03*
D21*
X226218750Y-61912500D03*
D20*
X226218750Y-69532500D03*
X54768750Y-69532500D03*
D21*
X54768750Y-61912500D03*
D17*
X71755000Y-83343750D03*
X61595000Y-83343750D03*
D15*
X66675000Y-83343750D03*
D18*
X62865000Y-80803750D03*
X69215000Y-78263750D03*
D20*
X264318750Y-69532500D03*
D21*
X264318750Y-61912500D03*
D20*
X261937500Y-67151250D03*
D21*
X261937500Y-59531250D03*
D17*
X290830000Y-140493750D03*
X280670000Y-140493750D03*
D15*
X285750000Y-140493750D03*
D18*
X281940000Y-137953750D03*
X288290000Y-135413750D03*
D17*
X271780000Y-140493750D03*
X261620000Y-140493750D03*
D15*
X266700000Y-140493750D03*
D18*
X262890000Y-137953750D03*
X269240000Y-135413750D03*
D17*
X290830000Y-121443750D03*
X280670000Y-121443750D03*
D15*
X285750000Y-121443750D03*
D18*
X281940000Y-118903750D03*
X288290000Y-116363750D03*
D17*
X257492500Y-121443750D03*
X247332500Y-121443750D03*
D15*
X252412500Y-121443750D03*
D18*
X248602500Y-118903750D03*
X254952500Y-116363750D03*
D17*
X262255000Y-83343750D03*
X252095000Y-83343750D03*
D15*
X257175000Y-83343750D03*
D18*
X253365000Y-80803750D03*
X259715000Y-78263750D03*
D17*
X252730000Y-140493750D03*
X242570000Y-140493750D03*
D15*
X247650000Y-140493750D03*
D18*
X243840000Y-137953750D03*
X250190000Y-135413750D03*
D17*
X233680000Y-140493750D03*
X223520000Y-140493750D03*
D15*
X228600000Y-140493750D03*
D18*
X224790000Y-137953750D03*
X231140000Y-135413750D03*
D17*
X238442500Y-121443750D03*
X228282500Y-121443750D03*
D15*
X233362500Y-121443750D03*
D18*
X229552500Y-118903750D03*
X235902500Y-116363750D03*
D17*
X247967500Y-102393750D03*
X237807500Y-102393750D03*
D15*
X242887500Y-102393750D03*
D18*
X239077500Y-99853750D03*
X245427500Y-97313750D03*
D17*
X228917500Y-102393750D03*
X218757500Y-102393750D03*
D15*
X223837500Y-102393750D03*
D18*
X220027500Y-99853750D03*
X226377500Y-97313750D03*
D17*
X243205000Y-83343750D03*
X233045000Y-83343750D03*
D15*
X238125000Y-83343750D03*
D18*
X234315000Y-80803750D03*
X240665000Y-78263750D03*
D17*
X224155000Y-83343750D03*
X213995000Y-83343750D03*
D15*
X219075000Y-83343750D03*
D18*
X215265000Y-80803750D03*
X221615000Y-78263750D03*
D17*
X219392500Y-121443750D03*
X209232500Y-121443750D03*
D15*
X214312500Y-121443750D03*
D18*
X210502500Y-118903750D03*
X216852500Y-116363750D03*
D17*
X200342500Y-121443750D03*
X190182500Y-121443750D03*
D15*
X195262500Y-121443750D03*
D18*
X191452500Y-118903750D03*
X197802500Y-116363750D03*
D17*
X209867500Y-102393750D03*
X199707500Y-102393750D03*
D15*
X204787500Y-102393750D03*
D18*
X200977500Y-99853750D03*
X207327500Y-97313750D03*
D17*
X190817500Y-102393750D03*
X180657500Y-102393750D03*
D15*
X185737500Y-102393750D03*
D18*
X181927500Y-99853750D03*
X188277500Y-97313750D03*
D17*
X205105000Y-83343750D03*
X194945000Y-83343750D03*
D15*
X200025000Y-83343750D03*
D18*
X196215000Y-80803750D03*
X202565000Y-78263750D03*
D17*
X181292500Y-121443750D03*
X171132500Y-121443750D03*
D15*
X176212500Y-121443750D03*
D18*
X172402500Y-118903750D03*
X178752500Y-116363750D03*
D17*
X162242500Y-121443750D03*
X152082500Y-121443750D03*
D15*
X157162500Y-121443750D03*
D18*
X153352500Y-118903750D03*
X159702500Y-116363750D03*
D17*
X171767500Y-102393750D03*
X161607500Y-102393750D03*
D15*
X166687500Y-102393750D03*
D18*
X162877500Y-99853750D03*
X169227500Y-97313750D03*
D17*
X186055000Y-83343750D03*
X175895000Y-83343750D03*
D15*
X180975000Y-83343750D03*
D18*
X177165000Y-80803750D03*
X183515000Y-78263750D03*
D17*
X167005000Y-83343750D03*
X156845000Y-83343750D03*
D15*
X161925000Y-83343750D03*
D18*
X158115000Y-80803750D03*
X164465000Y-78263750D03*
D17*
X143192500Y-121443750D03*
X133032500Y-121443750D03*
D15*
X138112500Y-121443750D03*
D18*
X134302500Y-118903750D03*
X140652500Y-116363750D03*
D17*
X124142500Y-121443750D03*
X113982500Y-121443750D03*
D15*
X119062500Y-121443750D03*
D18*
X115252500Y-118903750D03*
X121602500Y-116363750D03*
D17*
X152717500Y-102393750D03*
X142557500Y-102393750D03*
D15*
X147637500Y-102393750D03*
D18*
X143827500Y-99853750D03*
X150177500Y-97313750D03*
D17*
X133667500Y-102393750D03*
X123507500Y-102393750D03*
D15*
X128587500Y-102393750D03*
D18*
X124777500Y-99853750D03*
X131127500Y-97313750D03*
D17*
X147955000Y-83343750D03*
X137795000Y-83343750D03*
D15*
X142875000Y-83343750D03*
D18*
X139065000Y-80803750D03*
X145415000Y-78263750D03*
D17*
X128905000Y-83343750D03*
X118745000Y-83343750D03*
D15*
X123825000Y-83343750D03*
D18*
X120015000Y-80803750D03*
X126365000Y-78263750D03*
D17*
X105092500Y-121443750D03*
X94932500Y-121443750D03*
D15*
X100012500Y-121443750D03*
D18*
X96202500Y-118903750D03*
X102552500Y-116363750D03*
D17*
X114617500Y-102393750D03*
X104457500Y-102393750D03*
D15*
X109537500Y-102393750D03*
D18*
X105727500Y-99853750D03*
X112077500Y-97313750D03*
D17*
X95567500Y-102393750D03*
X85407500Y-102393750D03*
D15*
X90487500Y-102393750D03*
D18*
X86677500Y-99853750D03*
X93027500Y-97313750D03*
D17*
X109855000Y-83343750D03*
X99695000Y-83343750D03*
D15*
X104775000Y-83343750D03*
D18*
X100965000Y-80803750D03*
X107315000Y-78263750D03*
D17*
X90805000Y-83343750D03*
X80645000Y-83343750D03*
D15*
X85725000Y-83343750D03*
D18*
X81915000Y-80803750D03*
X88265000Y-78263750D03*
D17*
X86042500Y-121443750D03*
X75882500Y-121443750D03*
D15*
X80962500Y-121443750D03*
D18*
X77152500Y-118903750D03*
X83502500Y-116363750D03*
D17*
X66992500Y-121443750D03*
X56832500Y-121443750D03*
D15*
X61912500Y-121443750D03*
D18*
X58102500Y-118903750D03*
X64452500Y-116363750D03*
D17*
X76517500Y-102393750D03*
X66357500Y-102393750D03*
D15*
X71437500Y-102393750D03*
D18*
X67627500Y-99853750D03*
X73977500Y-97313750D03*
D17*
X57467500Y-102393750D03*
X47307500Y-102393750D03*
D15*
X52387500Y-102393750D03*
D18*
X48577500Y-99853750D03*
X54927500Y-97313750D03*
D17*
X52705000Y-140493750D03*
X42545000Y-140493750D03*
D15*
X47625000Y-140493750D03*
D18*
X43815000Y-137953750D03*
X50165000Y-135413750D03*
D17*
X52705000Y-83343820D03*
X42545000Y-83343820D03*
D15*
X47625000Y-83343820D03*
D18*
X43815000Y-80803820D03*
X50165000Y-78263820D03*
D17*
X262255000Y-140493750D03*
X252095000Y-140493750D03*
D15*
X257175000Y-140493750D03*
D18*
X253365000Y-137953750D03*
X259715000Y-135413750D03*
D32*
X176212500Y-64500000D03*
D33*
X168592500Y-64500000D03*
D32*
X168592500Y-67000000D03*
D33*
X176212500Y-67000000D03*
D34*
X107540000Y-70961250D03*
X102460000Y-70961250D03*
D21*
X57150000Y-59531250D03*
D20*
X57150000Y-67151250D03*
D21*
X42862500Y-59531250D03*
D20*
X42862500Y-67151250D03*
D21*
X228600000Y-59531250D03*
D20*
X228600000Y-67151250D03*
D21*
X266700000Y-59531250D03*
D20*
X266700000Y-67151250D03*
X88106250Y-69532500D03*
D21*
X88106250Y-61912500D03*
D35*
X161000000Y-60245625D03*
D36*
X161000000Y-58745625D03*
D37*
X159500000Y-66000000D03*
X159500000Y-71000000D03*
X162500000Y-71000000D03*
X162500000Y-66000000D03*
X137250000Y-71750000D03*
X137250000Y-69250000D03*
X122750000Y-69250000D03*
X122750000Y-71750000D03*
D38*
X191452500Y-71199375D03*
D39*
X191452500Y-68659375D03*
X193992500Y-71199375D03*
X193992500Y-68659375D03*
X196532500Y-71199375D03*
X196532500Y-68659375D03*
D40*
X280987500Y-66675000D03*
D19*
X280987500Y-69215000D03*
D41*
X202500000Y-58500000D03*
X202500000Y-63000000D03*
X196000000Y-58500000D03*
X196000000Y-63000000D03*
X185500000Y-63000000D03*
X185500000Y-58500000D03*
X192000000Y-63000000D03*
X192000000Y-58500000D03*
D42*
X127517500Y-70485000D03*
X132397500Y-70485000D03*
D21*
X114480000Y-66120000D03*
D20*
X147500000Y-58500000D03*
X117020000Y-66120000D03*
X144960000Y-58500000D03*
X119560000Y-66120000D03*
X142420000Y-58500000D03*
X122100000Y-66120000D03*
X139880000Y-58500000D03*
X124640000Y-66120000D03*
X137340000Y-58500000D03*
X127180000Y-66120000D03*
X134800000Y-58500000D03*
X129720000Y-66120000D03*
X132260000Y-58500000D03*
X132260000Y-66120000D03*
X129720000Y-58500000D03*
X134800000Y-66120000D03*
X127180000Y-58500000D03*
X137340000Y-66120000D03*
X124640000Y-58500000D03*
X139880000Y-66120000D03*
X122100000Y-58500000D03*
X142420000Y-66120000D03*
X119560000Y-58500000D03*
X144960000Y-66120000D03*
X117020000Y-58500000D03*
X147500000Y-66120000D03*
X114480000Y-58500000D03*
D21*
X168592500Y-60960000D03*
D20*
X176212500Y-60960000D03*
X176212500Y-58578750D03*
D21*
X168592500Y-58578750D03*
X38100000Y-59531250D03*
D20*
X38100000Y-67151250D03*
D21*
X59531250Y-61912500D03*
D20*
X59531250Y-69532500D03*
X71437500Y-67151250D03*
D21*
X71437500Y-59531250D03*
X95250000Y-59531250D03*
D20*
X95250000Y-67151250D03*
D21*
X223837500Y-59531250D03*
D20*
X223837500Y-67151250D03*
X240506250Y-69532500D03*
D21*
X240506250Y-61912500D03*
X50006250Y-61912500D03*
D20*
X50006250Y-69532500D03*
D21*
X52387500Y-59531250D03*
D20*
X52387500Y-67151250D03*
X83343750Y-69532500D03*
D21*
X83343750Y-61912500D03*
D20*
X92868750Y-69532500D03*
D21*
X92868750Y-61912500D03*
X209550000Y-59531250D03*
D20*
X209550000Y-67151250D03*
X221456250Y-69532500D03*
D21*
X221456250Y-61912500D03*
X235743750Y-61912500D03*
D20*
X235743750Y-69532500D03*
D21*
X250031250Y-61912500D03*
D20*
X250031250Y-69532500D03*
X40481250Y-69532500D03*
D21*
X40481250Y-61912500D03*
D20*
X61912500Y-67151250D03*
D21*
X61912500Y-59531250D03*
D20*
X66675000Y-67151250D03*
D21*
X66675000Y-59531250D03*
X85725000Y-59531250D03*
D20*
X85725000Y-67151250D03*
D21*
X211931250Y-61912500D03*
D20*
X211931250Y-69532500D03*
D21*
X242887500Y-59531250D03*
D20*
X242887500Y-67151250D03*
D21*
X254793750Y-61912500D03*
D20*
X254793750Y-69532500D03*
X76200000Y-67151250D03*
D21*
X76200000Y-59531250D03*
X90487500Y-59531250D03*
D20*
X90487500Y-67151250D03*
D21*
X214312500Y-59531250D03*
D20*
X214312500Y-67151250D03*
D21*
X238125000Y-59531250D03*
D20*
X238125000Y-67151250D03*
D21*
X257175000Y-59531250D03*
D20*
X257175000Y-67151250D03*
X45243750Y-69532500D03*
D21*
X45243750Y-61912500D03*
D20*
X64293750Y-69532500D03*
D21*
X64293750Y-61912500D03*
D20*
X69056250Y-69532500D03*
D21*
X69056250Y-61912500D03*
D20*
X78581250Y-69532500D03*
D21*
X78581250Y-61912500D03*
D20*
X233362500Y-67151250D03*
D21*
X233362500Y-59531250D03*
D20*
X259556250Y-69532500D03*
D21*
X259556250Y-61912500D03*
X47625000Y-59531250D03*
D20*
X47625000Y-67151250D03*
D21*
X73818750Y-61912500D03*
D20*
X73818750Y-69532500D03*
D21*
X80962500Y-59531250D03*
D20*
X80962500Y-67151250D03*
D21*
X230981250Y-61912500D03*
D20*
X230981250Y-69532500D03*
D21*
X247650000Y-59531250D03*
D20*
X247650000Y-67151250D03*
D21*
X252412500Y-59531250D03*
D20*
X252412500Y-67151250D03*
D40*
X280987500Y-59960000D03*
D19*
X280987500Y-62500000D03*
D21*
X216693750Y-61912500D03*
D20*
X216693750Y-69532500D03*
D32*
X168592500Y-72000000D03*
D33*
X176212500Y-72000000D03*
X168592500Y-69532500D03*
D32*
X176212500Y-69532500D03*
X274500000Y-67151250D03*
D33*
X274500000Y-59531250D03*
X272000000Y-59531250D03*
D32*
X272000000Y-67151250D03*
G36*
G01*
X100959375Y-62017500D02*
X102209375Y-62017500D01*
G75*
G02*
X102359375Y-62167500I0J-150000D01*
G01*
X102359375Y-62467500D01*
G75*
G02*
X102209375Y-62617500I-150000J0D01*
G01*
X100959375Y-62617500D01*
G75*
G02*
X100809375Y-62467500I0J150000D01*
G01*
X100809375Y-62167500D01*
G75*
G02*
X100959375Y-62017500I150000J0D01*
G01*
G37*
G36*
G01*
X100959375Y-63017500D02*
X102209375Y-63017500D01*
G75*
G02*
X102359375Y-63167500I0J-150000D01*
G01*
X102359375Y-63467500D01*
G75*
G02*
X102209375Y-63617500I-150000J0D01*
G01*
X100959375Y-63617500D01*
G75*
G02*
X100809375Y-63467500I0J150000D01*
G01*
X100809375Y-63167500D01*
G75*
G02*
X100959375Y-63017500I150000J0D01*
G01*
G37*
G36*
G01*
X100959375Y-64017500D02*
X102209375Y-64017500D01*
G75*
G02*
X102359375Y-64167500I0J-150000D01*
G01*
X102359375Y-64467500D01*
G75*
G02*
X102209375Y-64617500I-150000J0D01*
G01*
X100959375Y-64617500D01*
G75*
G02*
X100809375Y-64467500I0J150000D01*
G01*
X100809375Y-64167500D01*
G75*
G02*
X100959375Y-64017500I150000J0D01*
G01*
G37*
G36*
G01*
X100959375Y-65017500D02*
X102209375Y-65017500D01*
G75*
G02*
X102359375Y-65167500I0J-150000D01*
G01*
X102359375Y-65467500D01*
G75*
G02*
X102209375Y-65617500I-150000J0D01*
G01*
X100959375Y-65617500D01*
G75*
G02*
X100809375Y-65467500I0J150000D01*
G01*
X100809375Y-65167500D01*
G75*
G02*
X100959375Y-65017500I150000J0D01*
G01*
G37*
G36*
G01*
X104809374Y-60417500D02*
X106109376Y-60417500D01*
G75*
G02*
X106359375Y-60667499I0J-249999D01*
G01*
X106359375Y-61367501D01*
G75*
G02*
X106109376Y-61617500I-249999J0D01*
G01*
X104809374Y-61617500D01*
G75*
G02*
X104559375Y-61367501I0J249999D01*
G01*
X104559375Y-60667499D01*
G75*
G02*
X104809374Y-60417500I249999J0D01*
G01*
G37*
G36*
G01*
X104809374Y-66017500D02*
X106109376Y-66017500D01*
G75*
G02*
X106359375Y-66267499I0J-249999D01*
G01*
X106359375Y-66967501D01*
G75*
G02*
X106109376Y-67217500I-249999J0D01*
G01*
X104809374Y-67217500D01*
G75*
G02*
X104559375Y-66967501I0J249999D01*
G01*
X104559375Y-66267499D01*
G75*
G02*
X104809374Y-66017500I249999J0D01*
G01*
G37*
X24389432Y-67865625D03*
D33*
X32009432Y-67865625D03*
X32009432Y-70008750D03*
D32*
X24389432Y-70008750D03*
M02*
