M48
; DRILL file {KiCad (5.1.10-1-10_14)} date Wednesday, August 11, 2021 at 10:09:26 PM
; FORMAT={-:-/ absolute / metric / decimal}
; #@! TF.CreationDate,2021-08-11T22:09:26+02:00
; #@! TF.GenerationSoftware,Kicad,Pcbnew,(5.1.10-1-10_14)
; #@! TF.FileFunction,Plated,1,2,PTH
FMAT,2
METRIC
T1C0.350
T2C0.400
T3C0.600
T4C0.700
T5C0.710
T6C0.800
T7C0.900
T8C1.000
T9C1.100
T10C1.499
%
G90
G05
T2
X25.137Y-58.945
X25.137Y-60.295
X25.987Y-58.945
X25.987Y-60.295
X26.837Y-58.945
X26.837Y-60.295
X27.687Y-58.945
X27.687Y-60.295
X28.537Y-58.945
X28.537Y-60.295
X29.387Y-58.945
X29.387Y-60.295
X30.237Y-58.945
X30.237Y-60.295
X31.087Y-58.945
X31.087Y-60.295
X35.481Y-62.151
X81.201Y-55.959
X95.726Y-91.678
X98.108Y-62.865
X99.298Y-65.246
X99.536Y-71.199
X102.156Y-74.771
X103.108Y-63.341
X103.108Y-64.294
X104.061Y-76.914
X104.775Y-58.102
X106.204Y-62.865
X107.871Y-68.104
X109.061Y-62.865
X110.252Y-58.102
X114.538Y-70.485
X120.729Y-62.865
X126.682Y-77.867
X134.779Y-60.96
X138.589Y-60.96
X140.017Y-74.771
X142.875Y-68.818
X152.4Y-60.96
X156.686Y-71.914
X156.924Y-65.484
X157.877Y-86.201
X158.115Y-60.722
X165.735Y-60.722
X166.926Y-62.389
X174.546Y-87.868
X178.594Y-66.675
X179.07Y-61.198
X181.451Y-71.914
X192.167Y-65.008
X198.834Y-74.771
X200.739Y-67.389
X205.026Y-70.247
X232.41Y-98.584
T3
X161.0Y-58.746
X161.0Y-60.246
T4
X24.389Y-67.866
X24.389Y-70.009
X26.509Y-63.089
X27.309Y-61.339
X28.109Y-63.089
X28.909Y-61.339
X29.709Y-63.089
X32.009Y-67.866
X32.009Y-70.009
X168.593Y-64.5
X168.593Y-67.0
X168.593Y-69.532
X168.593Y-72.0
X176.213Y-64.5
X176.213Y-67.0
X176.213Y-69.532
X176.213Y-72.0
X272.0Y-59.531
X272.0Y-67.151
X274.5Y-59.531
X274.5Y-67.151
T5
X102.46Y-70.961
X107.54Y-70.961
T6
X38.1Y-59.531
X38.1Y-67.151
X40.481Y-61.912
X40.481Y-69.532
X42.862Y-59.531
X42.862Y-67.151
X45.244Y-61.912
X45.244Y-69.532
X47.625Y-59.531
X47.625Y-67.151
X50.006Y-61.912
X50.006Y-69.532
X52.387Y-59.531
X52.387Y-67.151
X54.769Y-61.912
X54.769Y-69.532
X57.15Y-59.531
X57.15Y-67.151
X59.531Y-61.912
X59.531Y-69.532
X61.912Y-59.531
X61.912Y-67.151
X64.294Y-61.912
X64.294Y-69.532
X66.675Y-59.531
X66.675Y-67.151
X69.056Y-61.912
X69.056Y-69.532
X71.438Y-59.531
X71.438Y-67.151
X73.819Y-61.912
X73.819Y-69.532
X76.2Y-59.531
X76.2Y-67.151
X78.581Y-61.912
X78.581Y-69.532
X80.962Y-59.531
X80.962Y-67.151
X83.344Y-61.912
X83.344Y-69.532
X85.725Y-59.531
X85.725Y-67.151
X88.106Y-61.912
X88.106Y-69.532
X90.487Y-59.531
X90.487Y-67.151
X92.869Y-61.912
X92.869Y-69.532
X95.25Y-59.531
X95.25Y-67.151
X114.48Y-58.5
X114.48Y-66.12
X117.02Y-58.5
X117.02Y-66.12
X119.56Y-58.5
X119.56Y-66.12
X122.1Y-58.5
X122.1Y-66.12
X122.75Y-69.25
X122.75Y-71.75
X124.64Y-58.5
X124.64Y-66.12
X127.18Y-58.5
X127.18Y-66.12
X127.517Y-70.485
X129.72Y-58.5
X129.72Y-66.12
X129.778Y-92.869
X129.778Y-111.919
X129.778Y-130.969
X132.26Y-58.5
X132.26Y-66.12
X132.398Y-70.485
X134.8Y-58.5
X134.8Y-66.12
X137.25Y-69.25
X137.25Y-71.75
X137.34Y-58.5
X137.34Y-66.12
X137.398Y-92.869
X137.398Y-111.919
X137.398Y-130.969
X139.88Y-58.5
X139.88Y-66.12
X142.42Y-58.5
X142.42Y-66.12
X142.875Y-79.296
X142.875Y-86.916
X144.96Y-58.5
X144.96Y-66.12
X147.5Y-58.5
X147.5Y-66.12
X148.59Y-92.869
X148.828Y-111.919
X148.828Y-130.969
X156.21Y-92.869
X156.448Y-111.919
X156.448Y-130.969
X159.5Y-66.0
X159.5Y-71.0
X161.925Y-79.296
X161.925Y-86.916
X162.5Y-66.0
X162.5Y-71.0
X167.64Y-111.919
X167.878Y-92.869
X168.593Y-58.341
X168.593Y-60.96
X175.26Y-111.919
X175.498Y-92.869
X176.213Y-58.341
X176.213Y-60.96
X209.55Y-59.531
X209.55Y-67.151
X211.931Y-61.912
X211.931Y-69.532
X214.312Y-59.531
X214.312Y-67.151
X216.694Y-61.912
X216.694Y-69.532
X219.075Y-59.531
X219.075Y-67.151
X221.456Y-61.912
X221.456Y-69.532
X223.837Y-59.531
X223.837Y-67.151
X226.219Y-61.912
X226.219Y-69.532
X228.6Y-59.531
X228.6Y-67.151
X230.981Y-61.912
X230.981Y-69.532
X233.362Y-59.531
X233.362Y-67.151
X235.744Y-61.912
X235.744Y-69.532
X238.125Y-59.531
X238.125Y-67.151
X240.506Y-61.912
X240.506Y-69.532
X242.887Y-59.531
X242.887Y-67.151
X245.269Y-61.912
X245.269Y-69.532
X247.65Y-59.531
X247.65Y-67.151
X250.031Y-61.912
X250.031Y-69.532
X252.412Y-59.531
X252.412Y-67.151
X254.794Y-61.912
X254.794Y-69.532
X257.175Y-59.531
X257.175Y-67.151
X259.556Y-61.912
X259.556Y-69.532
X261.938Y-59.531
X261.938Y-67.151
X264.319Y-61.912
X264.319Y-69.532
X266.7Y-59.531
X266.7Y-67.151
T7
X280.988Y-59.96
X280.988Y-62.5
X280.988Y-66.675
X280.988Y-69.215
T8
X191.452Y-68.659
X191.452Y-71.199
X193.992Y-68.659
X193.992Y-71.199
X196.532Y-68.659
X196.532Y-71.199
T9
X185.5Y-58.5
X185.5Y-63.0
X192.0Y-58.5
X192.0Y-63.0
X196.0Y-58.5
X196.0Y-63.0
X202.5Y-58.5
X202.5Y-63.0
T10
X15.24Y-80.804
X15.24Y-99.854
X15.24Y-118.904
X15.24Y-137.954
X21.59Y-78.264
X21.59Y-97.314
X21.59Y-116.364
X21.59Y-135.414
X34.29Y-99.854
X34.29Y-118.904
X34.29Y-137.954
X35.56Y-88.424
X40.64Y-97.314
X40.64Y-116.364
X40.64Y-135.414
X41.91Y-85.884
X53.34Y-80.804
X53.34Y-99.854
X53.34Y-118.904
X53.34Y-137.954
X59.69Y-78.264
X59.69Y-97.314
X59.69Y-116.364
X59.69Y-135.414
X72.39Y-80.804
X72.39Y-99.854
X72.39Y-118.904
X72.39Y-137.954
X78.74Y-78.264
X78.74Y-97.314
X78.74Y-116.364
X78.74Y-135.414
X91.44Y-80.804
X91.44Y-99.854
X91.44Y-118.904
X91.44Y-137.954
X97.79Y-78.264
X97.79Y-97.314
X97.79Y-116.364
X97.79Y-135.414
X100.965Y-137.954
X107.315Y-135.414
X110.49Y-80.804
X110.49Y-99.854
X110.49Y-118.904
X110.49Y-137.954
X116.84Y-78.264
X116.84Y-97.314
X116.84Y-116.364
X116.84Y-135.414
X129.54Y-80.804
X129.54Y-99.854
X129.54Y-118.904
X129.54Y-137.954
X135.89Y-78.264
X135.89Y-97.314
X135.89Y-116.364
X135.89Y-135.414
X148.59Y-80.804
X148.59Y-99.854
X148.59Y-118.904
X148.59Y-137.954
X148.59Y-137.954
X154.94Y-78.264
X154.94Y-97.314
X154.94Y-116.364
X154.94Y-135.414
X154.94Y-135.414
X167.64Y-80.804
X167.64Y-99.854
X167.64Y-118.904
X167.64Y-137.954
X173.99Y-78.264
X173.99Y-97.314
X173.99Y-116.364
X173.99Y-135.414
X186.69Y-80.804
X186.69Y-99.854
X186.69Y-118.904
X186.69Y-137.954
X193.04Y-78.264
X193.04Y-97.314
X193.04Y-116.364
X193.04Y-135.414
X196.215Y-137.954
X202.565Y-135.414
X205.74Y-80.804
X205.74Y-99.854
X205.74Y-118.904
X205.74Y-137.954
X212.09Y-78.264
X212.09Y-97.314
X212.09Y-116.364
X212.09Y-135.414
X224.79Y-80.804
X224.79Y-99.854
X224.79Y-118.904
X224.79Y-137.954
X231.14Y-78.264
X231.14Y-97.314
X231.14Y-116.364
X231.14Y-135.414
X243.84Y-80.804
X243.84Y-99.854
X243.84Y-118.904
X243.84Y-137.954
X250.19Y-78.264
X250.19Y-97.314
X250.19Y-116.364
X250.19Y-135.414
X262.89Y-80.804
X262.89Y-99.854
X262.89Y-118.904
X262.89Y-137.954
X269.24Y-78.264
X269.24Y-97.314
X269.24Y-116.364
X269.24Y-135.414
X281.94Y-80.804
X281.94Y-99.854
X281.94Y-118.904
X281.94Y-137.954
X288.29Y-78.264
X288.29Y-97.314
X288.29Y-116.364
X288.29Y-135.414
T1
G00X24.209Y-57.214
M15
G01X24.209Y-56.064
M16
G05
G00X32.009Y-57.214
M15
G01X32.009Y-56.064
M16
G05
T3
G00X23.787Y-55.535
M15
G01X23.787Y-56.335
M16
G05
G00X23.787Y-58.565
M15
G01X23.787Y-60.065
M16
G05
G00X32.437Y-55.535
M15
G01X32.437Y-56.335
M16
G05
G00X32.437Y-58.565
M15
G01X32.437Y-60.065
M16
G05
T0
M30
