  0
SECTION
  2
HEADER
  9
$ANGBASE
  50
0.0
  9
$ANGDIR
  70
1
  9
$MEASUREMENT
  70
0
  0
ENDSEC
  0
SECTION
  2
TABLES
  0
TABLE
  2
LTYPE
  70
4
  0
LTYPE
  5
40F
  2
CONTINUOUS
  70
0
  3
Solid line
  72
65
  73
0
  40
0.0
  0
LTYPE
  5
410
  2
DASHDOT
 70
0
  3
Dash Dot ____ _ ____ _
 72
65
 73
4
 40
2.0
 49
1.25
 49
-0.25
 49
0.25
 49
-0.25
  0
LTYPE
  5
411
  2
DASHED
 70
0
  3
Dashed __ __ __ __ __
 72
65
 73
2
 40
0.75
 49
0.5
 49
-0.25
  0
LTYPE
  5
43B
  2
DOTTED
 70
0
  3
Dotted .  .  .  .
 72
65
 73
2
 40
0.2
 49
0.0
 49
-0.2
  0
ENDTAB
  0
TABLE
  2
STYLE
  70
4
  0
STYLE
  2
KICAD
  70
0
  40
0
  41
1
  42
1
  50
0
  71
0
  3
isocp.shx
  0
STYLE
  2
KICADB
  70
0
  40
0
  41
1
  42
1
  50
0
  71
0
  3
isocp.shx
  0
STYLE
  2
KICADI
  70
0
  40
0
  41
1
  42
1
  50
15
  71
0
  3
isocp.shx
  0
STYLE
  2
KICADBI
  70
0
  40
0
  41
1
  42
1
  50
15
  71
0
  3
isocp.shx
  0
ENDTAB
  0
TABLE
  2
LAYER
  70
1
  0
LAYER
  2
BLACK
  70
0
  62
7
  6
CONTINUOUS
  0
ENDTAB
  0
ENDSEC
  0
SECTION
  2
ENTITIES
0
LINE
8
BLACK
6
CONTINUOUS
10
11.799
20
-2.37561
11
11.8252
21
-2.37561
0
LINE
8
BLACK
6
CONTINUOUS
10
11.784
20
-2.38498
11
11.8121
21
-2.39436
0
LINE
8
BLACK
6
CONTINUOUS
10
11.8121
20
-2.39436
11
11.8121
21
-2.36998
0
LINE
8
BLACK
6
CONTINUOUS
10
11.8215
20
-2.35499
11
11.8234
21
-2.35311
0
LINE
8
BLACK
6
CONTINUOUS
10
11.8234
20
-2.35311
11
11.8252
21
-2.35499
0
LINE
8
BLACK
6
CONTINUOUS
10
11.8252
20
-2.35499
11
11.8234
21
-2.35686
0
LINE
8
BLACK
6
CONTINUOUS
10
11.8234
20
-2.35686
11
11.8215
21
-2.35499
0
LINE
8
BLACK
6
CONTINUOUS
10
11.8215
20
-2.35499
11
11.8252
21
-2.35499
0
LINE
8
BLACK
6
CONTINUOUS
10
11.7859
20
-2.33999
11
11.7859
21
-2.31374
0
LINE
8
BLACK
6
CONTINUOUS
10
11.7859
20
-2.31374
11
11.8252
21
-2.33061
0
LINE
8
BLACK
6
CONTINUOUS
10
11.7859
20
-2.28187
11
11.7859
21
-2.28937
0
LINE
8
BLACK
6
CONTINUOUS
10
11.7859
20
-2.28937
11
11.7877
21
-2.29312
0
LINE
8
BLACK
6
CONTINUOUS
10
11.7877
20
-2.29312
11
11.7896
21
-2.29499
0
LINE
8
BLACK
6
CONTINUOUS
10
11.7896
20
-2.29499
11
11.7952
21
-2.29874
0
LINE
8
BLACK
6
CONTINUOUS
10
11.7952
20
-2.29874
11
11.8027
21
-2.30062
0
LINE
8
BLACK
6
CONTINUOUS
10
11.8027
20
-2.30062
11
11.8177
21
-2.30062
0
LINE
8
BLACK
6
CONTINUOUS
10
11.8177
20
-2.30062
11
11.8215
21
-2.29874
0
LINE
8
BLACK
6
CONTINUOUS
10
11.8215
20
-2.29874
11
11.8234
21
-2.29687
0
LINE
8
BLACK
6
CONTINUOUS
10
11.8234
20
-2.29687
11
11.8252
21
-2.29312
0
LINE
8
BLACK
6
CONTINUOUS
10
11.8252
20
-2.29312
11
11.8252
21
-2.28562
0
LINE
8
BLACK
6
CONTINUOUS
10
11.8252
20
-2.28562
11
11.8234
21
-2.28187
0
LINE
8
BLACK
6
CONTINUOUS
10
11.8234
20
-2.28187
11
11.8215
21
-2.28
0
LINE
8
BLACK
6
CONTINUOUS
10
11.8215
20
-2.28
11
11.8177
21
-2.27812
0
LINE
8
BLACK
6
CONTINUOUS
10
11.8177
20
-2.27812
11
11.8084
21
-2.27812
0
LINE
8
BLACK
6
CONTINUOUS
10
11.8084
20
-2.27812
11
11.8046
21
-2.28
0
LINE
8
BLACK
6
CONTINUOUS
10
11.8046
20
-2.28
11
11.8027
21
-2.28187
0
LINE
8
BLACK
6
CONTINUOUS
10
11.8027
20
-2.28187
11
11.8009
21
-2.28562
0
LINE
8
BLACK
6
CONTINUOUS
10
11.8009
20
-2.28562
11
11.8009
21
-2.29312
0
LINE
8
BLACK
6
CONTINUOUS
10
11.8009
20
-2.29312
11
11.8027
21
-2.29687
0
LINE
8
BLACK
6
CONTINUOUS
10
11.8027
20
-2.29687
11
11.8046
21
-2.29874
0
LINE
8
BLACK
6
CONTINUOUS
10
11.8046
20
-2.29874
11
11.8084
21
-2.30062
0
LINE
8
BLACK
6
CONTINUOUS
10
11.7859
20
-2.265
11
11.7859
21
-2.24063
0
LINE
8
BLACK
6
CONTINUOUS
10
11.7859
20
-2.24063
11
11.8009
21
-2.25375
0
LINE
8
BLACK
6
CONTINUOUS
10
11.8009
20
-2.25375
11
11.8009
21
-2.24813
0
LINE
8
BLACK
6
CONTINUOUS
10
11.8009
20
-2.24813
11
11.8027
21
-2.24438
0
LINE
8
BLACK
6
CONTINUOUS
10
11.8027
20
-2.24438
11
11.8046
21
-2.2425
0
LINE
8
BLACK
6
CONTINUOUS
10
11.8046
20
-2.2425
11
11.8084
21
-2.24063
0
LINE
8
BLACK
6
CONTINUOUS
10
11.8084
20
-2.24063
11
11.8177
21
-2.24063
0
LINE
8
BLACK
6
CONTINUOUS
10
11.8177
20
-2.24063
11
11.8215
21
-2.2425
0
LINE
8
BLACK
6
CONTINUOUS
10
11.8215
20
-2.2425
11
11.8234
21
-2.24438
0
LINE
8
BLACK
6
CONTINUOUS
10
11.8234
20
-2.24438
11
11.8252
21
-2.24813
0
LINE
8
BLACK
6
CONTINUOUS
10
11.8252
20
-2.24813
11
11.8252
21
-2.25937
0
LINE
8
BLACK
6
CONTINUOUS
10
11.8252
20
-2.25937
11
11.8234
21
-2.26312
0
LINE
8
BLACK
6
CONTINUOUS
10
11.8234
20
-2.26312
11
11.8215
21
-2.265
0
LINE
8
BLACK
6
CONTINUOUS
10
11.8252
20
-2.19376
11
11.799
21
-2.19376
0
LINE
8
BLACK
6
CONTINUOUS
10
11.8027
20
-2.19376
11
11.8009
21
-2.19188
0
LINE
8
BLACK
6
CONTINUOUS
10
11.8009
20
-2.19188
11
11.799
21
-2.18813
0
LINE
8
BLACK
6
CONTINUOUS
10
11.799
20
-2.18813
11
11.799
21
-2.18251
0
LINE
8
BLACK
6
CONTINUOUS
10
11.799
20
-2.18251
11
11.8009
21
-2.17876
0
LINE
8
BLACK
6
CONTINUOUS
10
11.8009
20
-2.17876
11
11.8046
21
-2.17688
0
LINE
8
BLACK
6
CONTINUOUS
10
11.8046
20
-2.17688
11
11.8252
21
-2.17688
0
LINE
8
BLACK
6
CONTINUOUS
10
11.8046
20
-2.17688
11
11.8009
21
-2.17501
0
LINE
8
BLACK
6
CONTINUOUS
10
11.8009
20
-2.17501
11
11.799
21
-2.17126
0
LINE
8
BLACK
6
CONTINUOUS
10
11.799
20
-2.17126
11
11.799
21
-2.16564
0
LINE
8
BLACK
6
CONTINUOUS
10
11.799
20
-2.16564
11
11.8009
21
-2.16189
0
LINE
8
BLACK
6
CONTINUOUS
10
11.8009
20
-2.16189
11
11.8046
21
-2.16001
0
LINE
8
BLACK
6
CONTINUOUS
10
11.8046
20
-2.16001
11
11.8252
21
-2.16001
0
LINE
8
BLACK
6
CONTINUOUS
10
11.8252
20
-2.14126
11
11.799
21
-2.14126
0
LINE
8
BLACK
6
CONTINUOUS
10
11.8027
20
-2.14126
11
11.8009
21
-2.13939
0
LINE
8
BLACK
6
CONTINUOUS
10
11.8009
20
-2.13939
11
11.799
21
-2.13564
0
LINE
8
BLACK
6
CONTINUOUS
10
11.799
20
-2.13564
11
11.799
21
-2.13001
0
LINE
8
BLACK
6
CONTINUOUS
10
11.799
20
-2.13001
11
11.8009
21
-2.12627
0
LINE
8
BLACK
6
CONTINUOUS
10
11.8009
20
-2.12627
11
11.8046
21
-2.12439
0
LINE
8
BLACK
6
CONTINUOUS
10
11.8046
20
-2.12439
11
11.8252
21
-2.12439
0
LINE
8
BLACK
6
CONTINUOUS
10
11.8046
20
-2.12439
11
11.8009
21
-2.12252
0
LINE
8
BLACK
6
CONTINUOUS
10
11.8009
20
-2.12252
11
11.799
21
-2.11877
0
LINE
8
BLACK
6
CONTINUOUS
10
11.799
20
-2.11877
11
11.799
21
-2.11314
0
LINE
8
BLACK
6
CONTINUOUS
10
11.799
20
-2.11314
11
11.8009
21
-2.10939
0
LINE
8
BLACK
6
CONTINUOUS
10
11.8009
20
-2.10939
11
11.8046
21
-2.10752
0
LINE
8
BLACK
6
CONTINUOUS
10
11.8046
20
-2.10752
11
11.8252
21
-2.10752
0
LINE
8
BLACK
6
CONTINUOUS
10
11.7562
20
-2.34375
11
11.7562
21
-2.15625
0
LINE
8
BLACK
6
CONTINUOUS
10
11.4469
20
-2.34375
11
11.7793
21
-2.34375
0
LINE
8
BLACK
6
CONTINUOUS
10
11.4469
20
-2.15625
11
11.7793
21
-2.15625
0
LINE
8
BLACK
6
CONTINUOUS
10
11.7562
20
-2.15625
11
11.7793
21
-2.2006
0
LINE
8
BLACK
6
CONTINUOUS
10
11.7562
20
-2.15625
11
11.7332
21
-2.2006
0
LINE
8
BLACK
6
CONTINUOUS
10
11.7562
20
-2.34375
11
11.7793
21
-2.2994
0
LINE
8
BLACK
6
CONTINUOUS
10
11.7562
20
-2.34375
11
11.7332
21
-2.2994
0
LINE
8
BLACK
6
CONTINUOUS
10
11.3963
20
-2.01226
11
11.3963
21
-2.0385
0
LINE
8
BLACK
6
CONTINUOUS
10
11.3869
20
-1.99726
11
11.3775
21
-2.02538
0
LINE
8
BLACK
6
CONTINUOUS
10
11.3775
20
-2.02538
11
11.4019
21
-2.02538
0
LINE
8
BLACK
6
CONTINUOUS
10
11.4169
20
-2.03475
11
11.4188
21
-2.03663
0
LINE
8
BLACK
6
CONTINUOUS
10
11.4188
20
-2.03663
11
11.4169
21
-2.0385
0
LINE
8
BLACK
6
CONTINUOUS
10
11.4169
20
-2.0385
11
11.415
21
-2.03663
0
LINE
8
BLACK
6
CONTINUOUS
10
11.415
20
-2.03663
11
11.4169
21
-2.03475
0
LINE
8
BLACK
6
CONTINUOUS
10
11.4169
20
-2.03475
11
11.4169
21
-2.0385
0
LINE
8
BLACK
6
CONTINUOUS
10
11.4319
20
-1.99913
11
11.4581
21
-1.99913
0
LINE
8
BLACK
6
CONTINUOUS
10
11.4581
20
-1.99913
11
11.4413
21
-2.0385
0
LINE
8
BLACK
6
CONTINUOUS
10
11.49
20
-1.99913
11
11.4825
21
-1.99913
0
LINE
8
BLACK
6
CONTINUOUS
10
11.4825
20
-1.99913
11
11.4788
21
-2.00101
0
LINE
8
BLACK
6
CONTINUOUS
10
11.4788
20
-2.00101
11
11.4769
21
-2.00288
0
LINE
8
BLACK
6
CONTINUOUS
10
11.4769
20
-2.00288
11
11.4731
21
-2.00851
0
LINE
8
BLACK
6
CONTINUOUS
10
11.4731
20
-2.00851
11
11.4713
21
-2.01601
0
LINE
8
BLACK
6
CONTINUOUS
10
11.4713
20
-2.01601
11
11.4713
21
-2.03101
0
LINE
8
BLACK
6
CONTINUOUS
10
11.4713
20
-2.03101
11
11.4731
21
-2.03475
0
LINE
8
BLACK
6
CONTINUOUS
10
11.4731
20
-2.03475
11
11.475
21
-2.03663
0
LINE
8
BLACK
6
CONTINUOUS
10
11.475
20
-2.03663
11
11.4788
21
-2.0385
0
LINE
8
BLACK
6
CONTINUOUS
10
11.4788
20
-2.0385
11
11.4863
21
-2.0385
0
LINE
8
BLACK
6
CONTINUOUS
10
11.4863
20
-2.0385
11
11.49
21
-2.03663
0
LINE
8
BLACK
6
CONTINUOUS
10
11.49
20
-2.03663
11
11.4919
21
-2.03475
0
LINE
8
BLACK
6
CONTINUOUS
10
11.4919
20
-2.03475
11
11.4938
21
-2.03101
0
LINE
8
BLACK
6
CONTINUOUS
10
11.4938
20
-2.03101
11
11.4938
21
-2.02163
0
LINE
8
BLACK
6
CONTINUOUS
10
11.4938
20
-2.02163
11
11.4919
21
-2.01788
0
LINE
8
BLACK
6
CONTINUOUS
10
11.4919
20
-2.01788
11
11.49
21
-2.01601
0
LINE
8
BLACK
6
CONTINUOUS
10
11.49
20
-2.01601
11
11.4863
21
-2.01413
0
LINE
8
BLACK
6
CONTINUOUS
10
11.4863
20
-2.01413
11
11.4788
21
-2.01413
0
LINE
8
BLACK
6
CONTINUOUS
10
11.4788
20
-2.01413
11
11.475
21
-2.01601
0
LINE
8
BLACK
6
CONTINUOUS
10
11.475
20
-2.01601
11
11.4731
21
-2.01788
0
LINE
8
BLACK
6
CONTINUOUS
10
11.4731
20
-2.01788
11
11.4713
21
-2.02163
0
LINE
8
BLACK
6
CONTINUOUS
10
11.5069
20
-1.99913
11
11.5312
21
-1.99913
0
LINE
8
BLACK
6
CONTINUOUS
10
11.5312
20
-1.99913
11
11.5181
21
-2.01413
0
LINE
8
BLACK
6
CONTINUOUS
10
11.5181
20
-2.01413
11
11.5237
21
-2.01413
0
LINE
8
BLACK
6
CONTINUOUS
10
11.5237
20
-2.01413
11
11.5275
21
-2.01601
0
LINE
8
BLACK
6
CONTINUOUS
10
11.5275
20
-2.01601
11
11.5294
21
-2.01788
0
LINE
8
BLACK
6
CONTINUOUS
10
11.5294
20
-2.01788
11
11.5312
21
-2.02163
0
LINE
8
BLACK
6
CONTINUOUS
10
11.5312
20
-2.02163
11
11.5312
21
-2.03101
0
LINE
8
BLACK
6
CONTINUOUS
10
11.5312
20
-2.03101
11
11.5294
21
-2.03475
0
LINE
8
BLACK
6
CONTINUOUS
10
11.5294
20
-2.03475
11
11.5275
21
-2.03663
0
LINE
8
BLACK
6
CONTINUOUS
10
11.5275
20
-2.03663
11
11.5237
21
-2.0385
0
LINE
8
BLACK
6
CONTINUOUS
10
11.5237
20
-2.0385
11
11.5125
21
-2.0385
0
LINE
8
BLACK
6
CONTINUOUS
10
11.5125
20
-2.0385
11
11.5088
21
-2.03663
0
LINE
8
BLACK
6
CONTINUOUS
10
11.5088
20
-2.03663
11
11.5069
21
-2.03475
0
LINE
8
BLACK
6
CONTINUOUS
10
11.5781
20
-2.0385
11
11.5781
21
-2.01226
0
LINE
8
BLACK
6
CONTINUOUS
10
11.5781
20
-2.01601
11
11.58
21
-2.01413
0
LINE
8
BLACK
6
CONTINUOUS
10
11.58
20
-2.01413
11
11.5837
21
-2.01226
0
LINE
8
BLACK
6
CONTINUOUS
10
11.5837
20
-2.01226
11
11.5894
21
-2.01226
0
LINE
8
BLACK
6
CONTINUOUS
10
11.5894
20
-2.01226
11
11.5931
21
-2.01413
0
LINE
8
BLACK
6
CONTINUOUS
10
11.5931
20
-2.01413
11
11.595
21
-2.01788
0
LINE
8
BLACK
6
CONTINUOUS
10
11.595
20
-2.01788
11
11.595
21
-2.0385
0
LINE
8
BLACK
6
CONTINUOUS
10
11.595
20
-2.01788
11
11.5969
21
-2.01413
0
LINE
8
BLACK
6
CONTINUOUS
10
11.5969
20
-2.01413
11
11.6006
21
-2.01226
0
LINE
8
BLACK
6
CONTINUOUS
10
11.6006
20
-2.01226
11
11.6062
21
-2.01226
0
LINE
8
BLACK
6
CONTINUOUS
10
11.6062
20
-2.01226
11
11.61
21
-2.01413
0
LINE
8
BLACK
6
CONTINUOUS
10
11.61
20
-2.01413
11
11.6119
21
-2.01788
0
LINE
8
BLACK
6
CONTINUOUS
10
11.6119
20
-2.01788
11
11.6119
21
-2.0385
0
LINE
8
BLACK
6
CONTINUOUS
10
11.6306
20
-2.0385
11
11.6306
21
-2.01226
0
LINE
8
BLACK
6
CONTINUOUS
10
11.6306
20
-2.01601
11
11.6325
21
-2.01413
0
LINE
8
BLACK
6
CONTINUOUS
10
11.6325
20
-2.01413
11
11.6362
21
-2.01226
0
LINE
8
BLACK
6
CONTINUOUS
10
11.6362
20
-2.01226
11
11.6419
21
-2.01226
0
LINE
8
BLACK
6
CONTINUOUS
10
11.6419
20
-2.01226
11
11.6456
21
-2.01413
0
LINE
8
BLACK
6
CONTINUOUS
10
11.6456
20
-2.01413
11
11.6475
21
-2.01788
0
LINE
8
BLACK
6
CONTINUOUS
10
11.6475
20
-2.01788
11
11.6475
21
-2.0385
0
LINE
8
BLACK
6
CONTINUOUS
10
11.6475
20
-2.01788
11
11.6494
21
-2.01413
0
LINE
8
BLACK
6
CONTINUOUS
10
11.6494
20
-2.01413
11
11.6531
21
-2.01226
0
LINE
8
BLACK
6
CONTINUOUS
10
11.6531
20
-2.01226
11
11.6587
21
-2.01226
0
LINE
8
BLACK
6
CONTINUOUS
10
11.6587
20
-2.01226
11
11.6625
21
-2.01413
0
LINE
8
BLACK
6
CONTINUOUS
10
11.6625
20
-2.01413
11
11.6644
21
-2.01788
0
LINE
8
BLACK
6
CONTINUOUS
10
11.6644
20
-2.01788
11
11.6644
21
-2.0385
0
LINE
8
BLACK
6
CONTINUOUS
10
11.6156
20
-2.07187
11
11.4281
21
-2.07187
0
LINE
8
BLACK
6
CONTINUOUS
10
11.6156
20
-2.34375
11
11.6156
21
-2.04879
0
LINE
8
BLACK
6
CONTINUOUS
10
11.4281
20
-2.34375
11
11.4281
21
-2.04879
0
LINE
8
BLACK
6
CONTINUOUS
10
11.4281
20
-2.07187
11
11.4725
21
-2.04879
0
LINE
8
BLACK
6
CONTINUOUS
10
11.4281
20
-2.07187
11
11.4725
21
-2.09496
0
LINE
8
BLACK
6
CONTINUOUS
10
11.6156
20
-2.07187
11
11.5713
21
-2.04879
0
LINE
8
BLACK
6
CONTINUOUS
10
11.6156
20
-2.07187
11
11.5713
21
-2.09496
0
LINE
8
BLACK
6
CONTINUOUS
10
0.352516
20
-2.01226
11
0.352516
21
-2.0385
0
LINE
8
BLACK
6
CONTINUOUS
10
0.343142
20
-1.99726
11
0.333768
21
-2.02538
0
LINE
8
BLACK
6
CONTINUOUS
10
0.333768
20
-2.02538
11
0.35814
21
-2.02538
0
LINE
8
BLACK
6
CONTINUOUS
10
0.373138
20
-2.03475
11
0.375013
21
-2.03663
0
LINE
8
BLACK
6
CONTINUOUS
10
0.375013
20
-2.03663
11
0.373138
21
-2.0385
0
LINE
8
BLACK
6
CONTINUOUS
10
0.373138
20
-2.0385
11
0.371263
21
-2.03663
0
LINE
8
BLACK
6
CONTINUOUS
10
0.371263
20
-2.03663
11
0.373138
21
-2.03475
0
LINE
8
BLACK
6
CONTINUOUS
10
0.373138
20
-2.03475
11
0.373138
21
-2.0385
0
LINE
8
BLACK
6
CONTINUOUS
10
0.388136
20
-1.99913
11
0.414383
21
-1.99913
0
LINE
8
BLACK
6
CONTINUOUS
10
0.414383
20
-1.99913
11
0.39751
21
-2.0385
0
LINE
8
BLACK
6
CONTINUOUS
10
0.446254
20
-1.99913
11
0.438755
21
-1.99913
0
LINE
8
BLACK
6
CONTINUOUS
10
0.438755
20
-1.99913
11
0.435005
21
-2.00101
0
LINE
8
BLACK
6
CONTINUOUS
10
0.435005
20
-2.00101
11
0.433131
21
-2.00288
0
LINE
8
BLACK
6
CONTINUOUS
10
0.433131
20
-2.00288
11
0.429381
21
-2.00851
0
LINE
8
BLACK
6
CONTINUOUS
10
0.429381
20
-2.00851
11
0.427506
21
-2.01601
0
LINE
8
BLACK
6
CONTINUOUS
10
0.427506
20
-2.01601
11
0.427506
21
-2.03101
0
LINE
8
BLACK
6
CONTINUOUS
10
0.427506
20
-2.03101
11
0.429381
21
-2.03475
0
LINE
8
BLACK
6
CONTINUOUS
10
0.429381
20
-2.03475
11
0.431256
21
-2.03663
0
LINE
8
BLACK
6
CONTINUOUS
10
0.431256
20
-2.03663
11
0.435005
21
-2.0385
0
LINE
8
BLACK
6
CONTINUOUS
10
0.435005
20
-2.0385
11
0.442504
21
-2.0385
0
LINE
8
BLACK
6
CONTINUOUS
10
0.442504
20
-2.0385
11
0.446254
21
-2.03663
0
LINE
8
BLACK
6
CONTINUOUS
10
0.446254
20
-2.03663
11
0.448129
21
-2.03475
0
LINE
8
BLACK
6
CONTINUOUS
10
0.448129
20
-2.03475
11
0.450004
21
-2.03101
0
LINE
8
BLACK
6
CONTINUOUS
10
0.450004
20
-2.03101
11
0.450004
21
-2.02163
0
LINE
8
BLACK
6
CONTINUOUS
10
0.450004
20
-2.02163
11
0.448129
21
-2.01788
0
LINE
8
BLACK
6
CONTINUOUS
10
0.448129
20
-2.01788
11
0.446254
21
-2.01601
0
LINE
8
BLACK
6
CONTINUOUS
10
0.446254
20
-2.01601
11
0.442504
21
-2.01413
0
LINE
8
BLACK
6
CONTINUOUS
10
0.442504
20
-2.01413
11
0.435005
21
-2.01413
0
LINE
8
BLACK
6
CONTINUOUS
10
0.435005
20
-2.01413
11
0.431256
21
-2.01601
0
LINE
8
BLACK
6
CONTINUOUS
10
0.431256
20
-2.01601
11
0.429381
21
-2.01788
0
LINE
8
BLACK
6
CONTINUOUS
10
0.429381
20
-2.01788
11
0.427506
21
-2.02163
0
LINE
8
BLACK
6
CONTINUOUS
10
0.463127
20
-1.99913
11
0.487499
21
-1.99913
0
LINE
8
BLACK
6
CONTINUOUS
10
0.487499
20
-1.99913
11
0.474375
21
-2.01413
0
LINE
8
BLACK
6
CONTINUOUS
10
0.474375
20
-2.01413
11
0.48
21
-2.01413
0
LINE
8
BLACK
6
CONTINUOUS
10
0.48
20
-2.01413
11
0.483749
21
-2.01601
0
LINE
8
BLACK
6
CONTINUOUS
10
0.483749
20
-2.01601
11
0.485624
21
-2.01788
0
LINE
8
BLACK
6
CONTINUOUS
10
0.485624
20
-2.01788
11
0.487499
21
-2.02163
0
LINE
8
BLACK
6
CONTINUOUS
10
0.487499
20
-2.02163
11
0.487499
21
-2.03101
0
LINE
8
BLACK
6
CONTINUOUS
10
0.487499
20
-2.03101
11
0.485624
21
-2.03475
0
LINE
8
BLACK
6
CONTINUOUS
10
0.485624
20
-2.03475
11
0.483749
21
-2.03663
0
LINE
8
BLACK
6
CONTINUOUS
10
0.483749
20
-2.03663
11
0.48
21
-2.0385
0
LINE
8
BLACK
6
CONTINUOUS
10
0.48
20
-2.0385
11
0.468751
21
-2.0385
0
LINE
8
BLACK
6
CONTINUOUS
10
0.468751
20
-2.0385
11
0.465002
21
-2.03663
0
LINE
8
BLACK
6
CONTINUOUS
10
0.465002
20
-2.03663
11
0.463127
21
-2.03475
0
LINE
8
BLACK
6
CONTINUOUS
10
0.534368
20
-2.0385
11
0.534368
21
-2.01226
0
LINE
8
BLACK
6
CONTINUOUS
10
0.534368
20
-2.01601
11
0.536243
21
-2.01413
0
LINE
8
BLACK
6
CONTINUOUS
10
0.536243
20
-2.01413
11
0.539992
21
-2.01226
0
LINE
8
BLACK
6
CONTINUOUS
10
0.539992
20
-2.01226
11
0.545617
21
-2.01226
0
LINE
8
BLACK
6
CONTINUOUS
10
0.545617
20
-2.01226
11
0.549366
21
-2.01413
0
LINE
8
BLACK
6
CONTINUOUS
10
0.549366
20
-2.01413
11
0.551241
21
-2.01788
0
LINE
8
BLACK
6
CONTINUOUS
10
0.551241
20
-2.01788
11
0.551241
21
-2.0385
0
LINE
8
BLACK
6
CONTINUOUS
10
0.551241
20
-2.01788
11
0.553116
21
-2.01413
0
LINE
8
BLACK
6
CONTINUOUS
10
0.553116
20
-2.01413
11
0.556865
21
-2.01226
0
LINE
8
BLACK
6
CONTINUOUS
10
0.556865
20
-2.01226
11
0.562489
21
-2.01226
0
LINE
8
BLACK
6
CONTINUOUS
10
0.562489
20
-2.01226
11
0.566239
21
-2.01413
0
LINE
8
BLACK
6
CONTINUOUS
10
0.566239
20
-2.01413
11
0.568114
21
-2.01788
0
LINE
8
BLACK
6
CONTINUOUS
10
0.568114
20
-2.01788
11
0.568114
21
-2.0385
0
LINE
8
BLACK
6
CONTINUOUS
10
0.586861
20
-2.0385
11
0.586861
21
-2.01226
0
LINE
8
BLACK
6
CONTINUOUS
10
0.586861
20
-2.01601
11
0.588736
21
-2.01413
0
LINE
8
BLACK
6
CONTINUOUS
10
0.588736
20
-2.01413
11
0.592486
21
-2.01226
0
LINE
8
BLACK
6
CONTINUOUS
10
0.592486
20
-2.01226
11
0.59811
21
-2.01226
0
LINE
8
BLACK
6
CONTINUOUS
10
0.59811
20
-2.01226
11
0.60186
21
-2.01413
0
LINE
8
BLACK
6
CONTINUOUS
10
0.60186
20
-2.01413
11
0.603734
21
-2.01788
0
LINE
8
BLACK
6
CONTINUOUS
10
0.603734
20
-2.01788
11
0.603734
21
-2.0385
0
LINE
8
BLACK
6
CONTINUOUS
10
0.603734
20
-2.01788
11
0.605609
21
-2.01413
0
LINE
8
BLACK
6
CONTINUOUS
10
0.605609
20
-2.01413
11
0.609359
21
-2.01226
0
LINE
8
BLACK
6
CONTINUOUS
10
0.609359
20
-2.01226
11
0.614983
21
-2.01226
0
LINE
8
BLACK
6
CONTINUOUS
10
0.614983
20
-2.01226
11
0.618732
21
-2.01413
0
LINE
8
BLACK
6
CONTINUOUS
10
0.618732
20
-2.01413
11
0.620607
21
-2.01788
0
LINE
8
BLACK
6
CONTINUOUS
10
0.620607
20
-2.01788
11
0.620607
21
-2.0385
0
LINE
8
BLACK
6
CONTINUOUS
10
0.571875
20
-2.07187
11
0.384375
21
-2.07187
0
LINE
8
BLACK
6
CONTINUOUS
10
0.571875
20
-2.34375
11
0.571875
21
-2.04879
0
LINE
8
BLACK
6
CONTINUOUS
10
0.384375
20
-2.34375
11
0.384375
21
-2.04879
0
LINE
8
BLACK
6
CONTINUOUS
10
0.384375
20
-2.07187
11
0.428726
21
-2.04879
0
LINE
8
BLACK
6
CONTINUOUS
10
0.384375
20
-2.07187
11
0.428726
21
-2.09496
0
LINE
8
BLACK
6
CONTINUOUS
10
0.571875
20
-2.07187
11
0.527524
21
-2.04879
0
LINE
8
BLACK
6
CONTINUOUS
10
0.571875
20
-2.07187
11
0.527524
21
-2.09496
0
LINE
8
BLACK
6
CONTINUOUS
10
0.221632
20
-2.37561
11
0.247879
21
-2.37561
0
LINE
8
BLACK
6
CONTINUOUS
10
0.206634
20
-2.38498
11
0.234756
21
-2.39436
0
LINE
8
BLACK
6
CONTINUOUS
10
0.234756
20
-2.39436
11
0.234756
21
-2.36998
0
LINE
8
BLACK
6
CONTINUOUS
10
0.24413
20
-2.35499
11
0.246004
21
-2.35311
0
LINE
8
BLACK
6
CONTINUOUS
10
0.246004
20
-2.35311
11
0.247879
21
-2.35499
0
LINE
8
BLACK
6
CONTINUOUS
10
0.247879
20
-2.35499
11
0.246004
21
-2.35686
0
LINE
8
BLACK
6
CONTINUOUS
10
0.246004
20
-2.35686
11
0.24413
21
-2.35499
0
LINE
8
BLACK
6
CONTINUOUS
10
0.24413
20
-2.35499
11
0.247879
21
-2.35499
0
LINE
8
BLACK
6
CONTINUOUS
10
0.208509
20
-2.33999
11
0.208509
21
-2.31374
0
LINE
8
BLACK
6
CONTINUOUS
10
0.208509
20
-2.31374
11
0.247879
21
-2.33061
0
LINE
8
BLACK
6
CONTINUOUS
10
0.208509
20
-2.28187
11
0.208509
21
-2.28937
0
LINE
8
BLACK
6
CONTINUOUS
10
0.208509
20
-2.28937
11
0.210384
21
-2.29312
0
LINE
8
BLACK
6
CONTINUOUS
10
0.210384
20
-2.29312
11
0.212259
21
-2.29499
0
LINE
8
BLACK
6
CONTINUOUS
10
0.212259
20
-2.29499
11
0.217883
21
-2.29874
0
LINE
8
BLACK
6
CONTINUOUS
10
0.217883
20
-2.29874
11
0.225382
21
-2.30062
0
LINE
8
BLACK
6
CONTINUOUS
10
0.225382
20
-2.30062
11
0.24038
21
-2.30062
0
LINE
8
BLACK
6
CONTINUOUS
10
0.24038
20
-2.30062
11
0.24413
21
-2.29874
0
LINE
8
BLACK
6
CONTINUOUS
10
0.24413
20
-2.29874
11
0.246004
21
-2.29687
0
LINE
8
BLACK
6
CONTINUOUS
10
0.246004
20
-2.29687
11
0.247879
21
-2.29312
0
LINE
8
BLACK
6
CONTINUOUS
10
0.247879
20
-2.29312
11
0.247879
21
-2.28562
0
LINE
8
BLACK
6
CONTINUOUS
10
0.247879
20
-2.28562
11
0.246004
21
-2.28187
0
LINE
8
BLACK
6
CONTINUOUS
10
0.246004
20
-2.28187
11
0.24413
21
-2.28
0
LINE
8
BLACK
6
CONTINUOUS
10
0.24413
20
-2.28
11
0.24038
21
-2.27812
0
LINE
8
BLACK
6
CONTINUOUS
10
0.24038
20
-2.27812
11
0.231006
21
-2.27812
0
LINE
8
BLACK
6
CONTINUOUS
10
0.231006
20
-2.27812
11
0.227257
21
-2.28
0
LINE
8
BLACK
6
CONTINUOUS
10
0.227257
20
-2.28
11
0.225382
21
-2.28187
0
LINE
8
BLACK
6
CONTINUOUS
10
0.225382
20
-2.28187
11
0.223507
21
-2.28562
0
LINE
8
BLACK
6
CONTINUOUS
10
0.223507
20
-2.28562
11
0.223507
21
-2.29312
0
LINE
8
BLACK
6
CONTINUOUS
10
0.223507
20
-2.29312
11
0.225382
21
-2.29687
0
LINE
8
BLACK
6
CONTINUOUS
10
0.225382
20
-2.29687
11
0.227257
21
-2.29874
0
LINE
8
BLACK
6
CONTINUOUS
10
0.227257
20
-2.29874
11
0.231006
21
-2.30062
0
LINE
8
BLACK
6
CONTINUOUS
10
0.208509
20
-2.265
11
0.208509
21
-2.24063
0
LINE
8
BLACK
6
CONTINUOUS
10
0.208509
20
-2.24063
11
0.223507
21
-2.25375
0
LINE
8
BLACK
6
CONTINUOUS
10
0.223507
20
-2.25375
11
0.223507
21
-2.24813
0
LINE
8
BLACK
6
CONTINUOUS
10
0.223507
20
-2.24813
11
0.225382
21
-2.24438
0
LINE
8
BLACK
6
CONTINUOUS
10
0.225382
20
-2.24438
11
0.227257
21
-2.2425
0
LINE
8
BLACK
6
CONTINUOUS
10
0.227257
20
-2.2425
11
0.231006
21
-2.24063
0
LINE
8
BLACK
6
CONTINUOUS
10
0.231006
20
-2.24063
11
0.24038
21
-2.24063
0
LINE
8
BLACK
6
CONTINUOUS
10
0.24038
20
-2.24063
11
0.24413
21
-2.2425
0
LINE
8
BLACK
6
CONTINUOUS
10
0.24413
20
-2.2425
11
0.246004
21
-2.24438
0
LINE
8
BLACK
6
CONTINUOUS
10
0.246004
20
-2.24438
11
0.247879
21
-2.24813
0
LINE
8
BLACK
6
CONTINUOUS
10
0.247879
20
-2.24813
11
0.247879
21
-2.25937
0
LINE
8
BLACK
6
CONTINUOUS
10
0.247879
20
-2.25937
11
0.246004
21
-2.26312
0
LINE
8
BLACK
6
CONTINUOUS
10
0.246004
20
-2.26312
11
0.24413
21
-2.265
0
LINE
8
BLACK
6
CONTINUOUS
10
0.247879
20
-2.19376
11
0.221632
21
-2.19376
0
LINE
8
BLACK
6
CONTINUOUS
10
0.225382
20
-2.19376
11
0.223507
21
-2.19188
0
LINE
8
BLACK
6
CONTINUOUS
10
0.223507
20
-2.19188
11
0.221632
21
-2.18813
0
LINE
8
BLACK
6
CONTINUOUS
10
0.221632
20
-2.18813
11
0.221632
21
-2.18251
0
LINE
8
BLACK
6
CONTINUOUS
10
0.221632
20
-2.18251
11
0.223507
21
-2.17876
0
LINE
8
BLACK
6
CONTINUOUS
10
0.223507
20
-2.17876
11
0.227257
21
-2.17688
0
LINE
8
BLACK
6
CONTINUOUS
10
0.227257
20
-2.17688
11
0.247879
21
-2.17688
0
LINE
8
BLACK
6
CONTINUOUS
10
0.227257
20
-2.17688
11
0.223507
21
-2.17501
0
LINE
8
BLACK
6
CONTINUOUS
10
0.223507
20
-2.17501
11
0.221632
21
-2.17126
0
LINE
8
BLACK
6
CONTINUOUS
10
0.221632
20
-2.17126
11
0.221632
21
-2.16564
0
LINE
8
BLACK
6
CONTINUOUS
10
0.221632
20
-2.16564
11
0.223507
21
-2.16189
0
LINE
8
BLACK
6
CONTINUOUS
10
0.223507
20
-2.16189
11
0.227257
21
-2.16001
0
LINE
8
BLACK
6
CONTINUOUS
10
0.227257
20
-2.16001
11
0.247879
21
-2.16001
0
LINE
8
BLACK
6
CONTINUOUS
10
0.247879
20
-2.14126
11
0.221632
21
-2.14126
0
LINE
8
BLACK
6
CONTINUOUS
10
0.225382
20
-2.14126
11
0.223507
21
-2.13939
0
LINE
8
BLACK
6
CONTINUOUS
10
0.223507
20
-2.13939
11
0.221632
21
-2.13564
0
LINE
8
BLACK
6
CONTINUOUS
10
0.221632
20
-2.13564
11
0.221632
21
-2.13001
0
LINE
8
BLACK
6
CONTINUOUS
10
0.221632
20
-2.13001
11
0.223507
21
-2.12627
0
LINE
8
BLACK
6
CONTINUOUS
10
0.223507
20
-2.12627
11
0.227257
21
-2.12439
0
LINE
8
BLACK
6
CONTINUOUS
10
0.227257
20
-2.12439
11
0.247879
21
-2.12439
0
LINE
8
BLACK
6
CONTINUOUS
10
0.227257
20
-2.12439
11
0.223507
21
-2.12252
0
LINE
8
BLACK
6
CONTINUOUS
10
0.223507
20
-2.12252
11
0.221632
21
-2.11877
0
LINE
8
BLACK
6
CONTINUOUS
10
0.221632
20
-2.11877
11
0.221632
21
-2.11314
0
LINE
8
BLACK
6
CONTINUOUS
10
0.221632
20
-2.11314
11
0.223507
21
-2.10939
0
LINE
8
BLACK
6
CONTINUOUS
10
0.223507
20
-2.10939
11
0.227257
21
-2.10752
0
LINE
8
BLACK
6
CONTINUOUS
10
0.227257
20
-2.10752
11
0.247879
21
-2.10752
0
LINE
8
BLACK
6
CONTINUOUS
10
0.28125
20
-2.34375
11
0.28125
21
-2.15625
0
LINE
8
BLACK
6
CONTINUOUS
10
0.5625
20
-2.34375
11
0.258163
21
-2.34375
0
LINE
8
BLACK
6
CONTINUOUS
10
0.5625
20
-2.15625
11
0.258163
21
-2.15625
0
LINE
8
BLACK
6
CONTINUOUS
10
0.28125
20
-2.15625
11
0.304337
21
-2.2006
0
LINE
8
BLACK
6
CONTINUOUS
10
0.28125
20
-2.15625
11
0.258163
21
-2.2006
0
LINE
8
BLACK
6
CONTINUOUS
10
0.28125
20
-2.34375
11
0.304337
21
-2.2994
0
LINE
8
BLACK
6
CONTINUOUS
10
0.28125
20
-2.34375
11
0.258163
21
-2.2994
0
LINE
8
BLACK
6
CONTINUOUS
10
3.98439
20
-6.26587
11
3.9619
21
-6.26587
0
LINE
8
BLACK
6
CONTINUOUS
10
3.97315
20
-6.26587
11
3.97315
21
-6.2265
0
LINE
8
BLACK
6
CONTINUOUS
10
3.97315
20
-6.2265
11
3.9694
21
-6.23212
0
LINE
8
BLACK
6
CONTINUOUS
10
3.9694
20
-6.23212
11
3.96565
21
-6.23587
0
LINE
8
BLACK
6
CONTINUOUS
10
3.96565
20
-6.23587
11
3.9619
21
-6.23774
0
LINE
8
BLACK
6
CONTINUOUS
10
4.00314
20
-6.26587
11
4.01064
21
-6.26587
0
LINE
8
BLACK
6
CONTINUOUS
10
4.01064
20
-6.26587
11
4.01439
21
-6.26399
0
LINE
8
BLACK
6
CONTINUOUS
10
4.01439
20
-6.26399
11
4.01627
21
-6.26212
0
LINE
8
BLACK
6
CONTINUOUS
10
4.01627
20
-6.26212
11
4.02002
21
-6.25649
0
LINE
8
BLACK
6
CONTINUOUS
10
4.02002
20
-6.25649
11
4.02189
21
-6.24899
0
LINE
8
BLACK
6
CONTINUOUS
10
4.02189
20
-6.24899
11
4.02189
21
-6.234
0
LINE
8
BLACK
6
CONTINUOUS
10
4.02189
20
-6.234
11
4.02002
21
-6.23025
0
LINE
8
BLACK
6
CONTINUOUS
10
4.02002
20
-6.23025
11
4.01814
21
-6.22837
0
LINE
8
BLACK
6
CONTINUOUS
10
4.01814
20
-6.22837
11
4.01439
21
-6.2265
0
LINE
8
BLACK
6
CONTINUOUS
10
4.01439
20
-6.2265
11
4.00689
21
-6.2265
0
LINE
8
BLACK
6
CONTINUOUS
10
4.00689
20
-6.2265
11
4.00314
21
-6.22837
0
LINE
8
BLACK
6
CONTINUOUS
10
4.00314
20
-6.22837
11
4.00127
21
-6.23025
0
LINE
8
BLACK
6
CONTINUOUS
10
4.00127
20
-6.23025
11
3.99939
21
-6.234
0
LINE
8
BLACK
6
CONTINUOUS
10
3.99939
20
-6.234
11
3.99939
21
-6.24337
0
LINE
8
BLACK
6
CONTINUOUS
10
3.99939
20
-6.24337
11
4.00127
21
-6.24712
0
LINE
8
BLACK
6
CONTINUOUS
10
4.00127
20
-6.24712
11
4.00314
21
-6.24899
0
LINE
8
BLACK
6
CONTINUOUS
10
4.00314
20
-6.24899
11
4.00689
21
-6.25087
0
LINE
8
BLACK
6
CONTINUOUS
10
4.00689
20
-6.25087
11
4.01439
21
-6.25087
0
LINE
8
BLACK
6
CONTINUOUS
10
4.01439
20
-6.25087
11
4.01814
21
-6.24899
0
LINE
8
BLACK
6
CONTINUOUS
10
4.01814
20
-6.24899
11
4.02002
21
-6.24712
0
LINE
8
BLACK
6
CONTINUOUS
10
4.02002
20
-6.24712
11
4.02189
21
-6.24337
0
LINE
8
BLACK
6
CONTINUOUS
10
4.04626
20
-6.2265
11
4.05001
21
-6.2265
0
LINE
8
BLACK
6
CONTINUOUS
10
4.05001
20
-6.2265
11
4.05376
21
-6.22837
0
LINE
8
BLACK
6
CONTINUOUS
10
4.05376
20
-6.22837
11
4.05564
21
-6.23025
0
LINE
8
BLACK
6
CONTINUOUS
10
4.05564
20
-6.23025
11
4.05751
21
-6.234
0
LINE
8
BLACK
6
CONTINUOUS
10
4.05751
20
-6.234
11
4.05939
21
-6.24149
0
LINE
8
BLACK
6
CONTINUOUS
10
4.05939
20
-6.24149
11
4.05939
21
-6.25087
0
LINE
8
BLACK
6
CONTINUOUS
10
4.05939
20
-6.25087
11
4.05751
21
-6.25837
0
LINE
8
BLACK
6
CONTINUOUS
10
4.05751
20
-6.25837
11
4.05564
21
-6.26212
0
LINE
8
BLACK
6
CONTINUOUS
10
4.05564
20
-6.26212
11
4.05376
21
-6.26399
0
LINE
8
BLACK
6
CONTINUOUS
10
4.05376
20
-6.26399
11
4.05001
21
-6.26587
0
LINE
8
BLACK
6
CONTINUOUS
10
4.05001
20
-6.26587
11
4.04626
21
-6.26587
0
LINE
8
BLACK
6
CONTINUOUS
10
4.04626
20
-6.26587
11
4.04251
21
-6.26399
0
LINE
8
BLACK
6
CONTINUOUS
10
4.04251
20
-6.26399
11
4.04064
21
-6.26212
0
LINE
8
BLACK
6
CONTINUOUS
10
4.04064
20
-6.26212
11
4.03876
21
-6.25837
0
LINE
8
BLACK
6
CONTINUOUS
10
4.03876
20
-6.25837
11
4.03689
21
-6.25087
0
LINE
8
BLACK
6
CONTINUOUS
10
4.03689
20
-6.25087
11
4.03689
21
-6.24149
0
LINE
8
BLACK
6
CONTINUOUS
10
4.03689
20
-6.24149
11
4.03876
21
-6.234
0
LINE
8
BLACK
6
CONTINUOUS
10
4.03876
20
-6.234
11
4.04064
21
-6.23025
0
LINE
8
BLACK
6
CONTINUOUS
10
4.04064
20
-6.23025
11
4.04251
21
-6.22837
0
LINE
8
BLACK
6
CONTINUOUS
10
4.04251
20
-6.22837
11
4.04626
21
-6.2265
0
LINE
8
BLACK
6
CONTINUOUS
10
4.07626
20
-6.26212
11
4.07813
21
-6.26399
0
LINE
8
BLACK
6
CONTINUOUS
10
4.07813
20
-6.26399
11
4.07626
21
-6.26587
0
LINE
8
BLACK
6
CONTINUOUS
10
4.07626
20
-6.26587
11
4.07438
21
-6.26399
0
LINE
8
BLACK
6
CONTINUOUS
10
4.07438
20
-6.26399
11
4.07626
21
-6.26212
0
LINE
8
BLACK
6
CONTINUOUS
10
4.07626
20
-6.26212
11
4.07626
21
-6.26587
0
LINE
8
BLACK
6
CONTINUOUS
10
4.11375
20
-6.2265
11
4.09501
21
-6.2265
0
LINE
8
BLACK
6
CONTINUOUS
10
4.09501
20
-6.2265
11
4.09313
21
-6.24524
0
LINE
8
BLACK
6
CONTINUOUS
10
4.09313
20
-6.24524
11
4.09501
21
-6.24337
0
LINE
8
BLACK
6
CONTINUOUS
10
4.09501
20
-6.24337
11
4.09876
21
-6.24149
0
LINE
8
BLACK
6
CONTINUOUS
10
4.09876
20
-6.24149
11
4.10813
21
-6.24149
0
LINE
8
BLACK
6
CONTINUOUS
10
4.10813
20
-6.24149
11
4.11188
21
-6.24337
0
LINE
8
BLACK
6
CONTINUOUS
10
4.11188
20
-6.24337
11
4.11375
21
-6.24524
0
LINE
8
BLACK
6
CONTINUOUS
10
4.11375
20
-6.24524
11
4.11563
21
-6.24899
0
LINE
8
BLACK
6
CONTINUOUS
10
4.11563
20
-6.24899
11
4.11563
21
-6.25837
0
LINE
8
BLACK
6
CONTINUOUS
10
4.11563
20
-6.25837
11
4.11375
21
-6.26212
0
LINE
8
BLACK
6
CONTINUOUS
10
4.11375
20
-6.26212
11
4.11188
21
-6.26399
0
LINE
8
BLACK
6
CONTINUOUS
10
4.11188
20
-6.26399
11
4.10813
21
-6.26587
0
LINE
8
BLACK
6
CONTINUOUS
10
4.10813
20
-6.26587
11
4.09876
21
-6.26587
0
LINE
8
BLACK
6
CONTINUOUS
10
4.09876
20
-6.26587
11
4.09501
21
-6.26399
0
LINE
8
BLACK
6
CONTINUOUS
10
4.09501
20
-6.26399
11
4.09313
21
-6.26212
0
LINE
8
BLACK
6
CONTINUOUS
10
4.14
20
-6.2265
11
4.14375
21
-6.2265
0
LINE
8
BLACK
6
CONTINUOUS
10
4.14375
20
-6.2265
11
4.1475
21
-6.22837
0
LINE
8
BLACK
6
CONTINUOUS
10
4.1475
20
-6.22837
11
4.14937
21
-6.23025
0
LINE
8
BLACK
6
CONTINUOUS
10
4.14937
20
-6.23025
11
4.15125
21
-6.234
0
LINE
8
BLACK
6
CONTINUOUS
10
4.15125
20
-6.234
11
4.15312
21
-6.24149
0
LINE
8
BLACK
6
CONTINUOUS
10
4.15312
20
-6.24149
11
4.15312
21
-6.25087
0
LINE
8
BLACK
6
CONTINUOUS
10
4.15312
20
-6.25087
11
4.15125
21
-6.25837
0
LINE
8
BLACK
6
CONTINUOUS
10
4.15125
20
-6.25837
11
4.14937
21
-6.26212
0
LINE
8
BLACK
6
CONTINUOUS
10
4.14937
20
-6.26212
11
4.1475
21
-6.26399
0
LINE
8
BLACK
6
CONTINUOUS
10
4.1475
20
-6.26399
11
4.14375
21
-6.26587
0
LINE
8
BLACK
6
CONTINUOUS
10
4.14375
20
-6.26587
11
4.14
21
-6.26587
0
LINE
8
BLACK
6
CONTINUOUS
10
4.14
20
-6.26587
11
4.13625
21
-6.26399
0
LINE
8
BLACK
6
CONTINUOUS
10
4.13625
20
-6.26399
11
4.13438
21
-6.26212
0
LINE
8
BLACK
6
CONTINUOUS
10
4.13438
20
-6.26212
11
4.1325
21
-6.25837
0
LINE
8
BLACK
6
CONTINUOUS
10
4.1325
20
-6.25837
11
4.13063
21
-6.25087
0
LINE
8
BLACK
6
CONTINUOUS
10
4.13063
20
-6.25087
11
4.13063
21
-6.24149
0
LINE
8
BLACK
6
CONTINUOUS
10
4.13063
20
-6.24149
11
4.1325
21
-6.234
0
LINE
8
BLACK
6
CONTINUOUS
10
4.1325
20
-6.234
11
4.13438
21
-6.23025
0
LINE
8
BLACK
6
CONTINUOUS
10
4.13438
20
-6.23025
11
4.13625
21
-6.22837
0
LINE
8
BLACK
6
CONTINUOUS
10
4.13625
20
-6.22837
11
4.14
21
-6.2265
0
LINE
8
BLACK
6
CONTINUOUS
10
4.1775
20
-6.2265
11
4.18125
21
-6.2265
0
LINE
8
BLACK
6
CONTINUOUS
10
4.18125
20
-6.2265
11
4.18499
21
-6.22837
0
LINE
8
BLACK
6
CONTINUOUS
10
4.18499
20
-6.22837
11
4.18687
21
-6.23025
0
LINE
8
BLACK
6
CONTINUOUS
10
4.18687
20
-6.23025
11
4.18874
21
-6.234
0
LINE
8
BLACK
6
CONTINUOUS
10
4.18874
20
-6.234
11
4.19062
21
-6.24149
0
LINE
8
BLACK
6
CONTINUOUS
10
4.19062
20
-6.24149
11
4.19062
21
-6.25087
0
LINE
8
BLACK
6
CONTINUOUS
10
4.19062
20
-6.25087
11
4.18874
21
-6.25837
0
LINE
8
BLACK
6
CONTINUOUS
10
4.18874
20
-6.25837
11
4.18687
21
-6.26212
0
LINE
8
BLACK
6
CONTINUOUS
10
4.18687
20
-6.26212
11
4.18499
21
-6.26399
0
LINE
8
BLACK
6
CONTINUOUS
10
4.18499
20
-6.26399
11
4.18125
21
-6.26587
0
LINE
8
BLACK
6
CONTINUOUS
10
4.18125
20
-6.26587
11
4.1775
21
-6.26587
0
LINE
8
BLACK
6
CONTINUOUS
10
4.1775
20
-6.26587
11
4.17375
21
-6.26399
0
LINE
8
BLACK
6
CONTINUOUS
10
4.17375
20
-6.26399
11
4.17187
21
-6.26212
0
LINE
8
BLACK
6
CONTINUOUS
10
4.17187
20
-6.26212
11
4.17
21
-6.25837
0
LINE
8
BLACK
6
CONTINUOUS
10
4.17
20
-6.25837
11
4.16812
21
-6.25087
0
LINE
8
BLACK
6
CONTINUOUS
10
4.16812
20
-6.25087
11
4.16812
21
-6.24149
0
LINE
8
BLACK
6
CONTINUOUS
10
4.16812
20
-6.24149
11
4.17
21
-6.234
0
LINE
8
BLACK
6
CONTINUOUS
10
4.17
20
-6.234
11
4.17187
21
-6.23025
0
LINE
8
BLACK
6
CONTINUOUS
10
4.17187
20
-6.23025
11
4.17375
21
-6.22837
0
LINE
8
BLACK
6
CONTINUOUS
10
4.17375
20
-6.22837
11
4.1775
21
-6.2265
0
LINE
8
BLACK
6
CONTINUOUS
10
4.23749
20
-6.26587
11
4.23749
21
-6.23962
0
LINE
8
BLACK
6
CONTINUOUS
10
4.23749
20
-6.24337
11
4.23936
21
-6.24149
0
LINE
8
BLACK
6
CONTINUOUS
10
4.23936
20
-6.24149
11
4.24311
21
-6.23962
0
LINE
8
BLACK
6
CONTINUOUS
10
4.24311
20
-6.23962
11
4.24874
21
-6.23962
0
LINE
8
BLACK
6
CONTINUOUS
10
4.24874
20
-6.23962
11
4.25249
21
-6.24149
0
LINE
8
BLACK
6
CONTINUOUS
10
4.25249
20
-6.24149
11
4.25436
21
-6.24524
0
LINE
8
BLACK
6
CONTINUOUS
10
4.25436
20
-6.24524
11
4.25436
21
-6.26587
0
LINE
8
BLACK
6
CONTINUOUS
10
4.25436
20
-6.24524
11
4.25624
21
-6.24149
0
LINE
8
BLACK
6
CONTINUOUS
10
4.25624
20
-6.24149
11
4.25999
21
-6.23962
0
LINE
8
BLACK
6
CONTINUOUS
10
4.25999
20
-6.23962
11
4.26561
21
-6.23962
0
LINE
8
BLACK
6
CONTINUOUS
10
4.26561
20
-6.23962
11
4.26936
21
-6.24149
0
LINE
8
BLACK
6
CONTINUOUS
10
4.26936
20
-6.24149
11
4.27123
21
-6.24524
0
LINE
8
BLACK
6
CONTINUOUS
10
4.27123
20
-6.24524
11
4.27123
21
-6.26587
0
LINE
8
BLACK
6
CONTINUOUS
10
4.28998
20
-6.26587
11
4.28998
21
-6.23962
0
LINE
8
BLACK
6
CONTINUOUS
10
4.28998
20
-6.24337
11
4.29186
21
-6.24149
0
LINE
8
BLACK
6
CONTINUOUS
10
4.29186
20
-6.24149
11
4.29561
21
-6.23962
0
LINE
8
BLACK
6
CONTINUOUS
10
4.29561
20
-6.23962
11
4.30123
21
-6.23962
0
LINE
8
BLACK
6
CONTINUOUS
10
4.30123
20
-6.23962
11
4.30498
21
-6.24149
0
LINE
8
BLACK
6
CONTINUOUS
10
4.30498
20
-6.24149
11
4.30685
21
-6.24524
0
LINE
8
BLACK
6
CONTINUOUS
10
4.30685
20
-6.24524
11
4.30685
21
-6.26587
0
LINE
8
BLACK
6
CONTINUOUS
10
4.30685
20
-6.24524
11
4.30873
21
-6.24149
0
LINE
8
BLACK
6
CONTINUOUS
10
4.30873
20
-6.24149
11
4.31248
21
-6.23962
0
LINE
8
BLACK
6
CONTINUOUS
10
4.31248
20
-6.23962
11
4.3181
21
-6.23962
0
LINE
8
BLACK
6
CONTINUOUS
10
4.3181
20
-6.23962
11
4.32185
21
-6.24149
0
LINE
8
BLACK
6
CONTINUOUS
10
4.32185
20
-6.24149
11
4.32373
21
-6.24524
0
LINE
8
BLACK
6
CONTINUOUS
10
4.32373
20
-6.24524
11
4.32373
21
-6.26587
0
LINE
8
BLACK
6
CONTINUOUS
10
0.39375
20
-6.19687
11
7.89375
21
-6.19687
0
LINE
8
BLACK
6
CONTINUOUS
10
0.39375
20
-5.76562
11
0.39375
21
-6.21996
0
LINE
8
BLACK
6
CONTINUOUS
10
7.89375
20
-5.76562
11
7.89375
21
-6.21996
0
LINE
8
BLACK
6
CONTINUOUS
10
7.89375
20
-6.19687
11
7.8494
21
-6.21996
0
LINE
8
BLACK
6
CONTINUOUS
10
7.89375
20
-6.19687
11
7.8494
21
-6.17379
0
LINE
8
BLACK
6
CONTINUOUS
10
0.39375
20
-6.19687
11
0.438101
21
-6.21996
0
LINE
8
BLACK
6
CONTINUOUS
10
0.39375
20
-6.19687
11
0.438101
21
-6.17379
0
LINE
8
BLACK
6
CONTINUOUS
10
5.82284
20
-6.324
11
5.82471
21
-6.32212
0
LINE
8
BLACK
6
CONTINUOUS
10
5.82471
20
-6.32212
11
5.82846
21
-6.32025
0
LINE
8
BLACK
6
CONTINUOUS
10
5.82846
20
-6.32025
11
5.83783
21
-6.32025
0
LINE
8
BLACK
6
CONTINUOUS
10
5.83783
20
-6.32025
11
5.84158
21
-6.32212
0
LINE
8
BLACK
6
CONTINUOUS
10
5.84158
20
-6.32212
11
5.84346
21
-6.324
0
LINE
8
BLACK
6
CONTINUOUS
10
5.84346
20
-6.324
11
5.84533
21
-6.32775
0
LINE
8
BLACK
6
CONTINUOUS
10
5.84533
20
-6.32775
11
5.84533
21
-6.33149
0
LINE
8
BLACK
6
CONTINUOUS
10
5.84533
20
-6.33149
11
5.84346
21
-6.33712
0
LINE
8
BLACK
6
CONTINUOUS
10
5.84346
20
-6.33712
11
5.82096
21
-6.35962
0
LINE
8
BLACK
6
CONTINUOUS
10
5.82096
20
-6.35962
11
5.84533
21
-6.35962
0
LINE
8
BLACK
6
CONTINUOUS
10
5.86783
20
-6.33712
11
5.86408
21
-6.33524
0
LINE
8
BLACK
6
CONTINUOUS
10
5.86408
20
-6.33524
11
5.86221
21
-6.33337
0
LINE
8
BLACK
6
CONTINUOUS
10
5.86221
20
-6.33337
11
5.86033
21
-6.32962
0
LINE
8
BLACK
6
CONTINUOUS
10
5.86033
20
-6.32962
11
5.86033
21
-6.32775
0
LINE
8
BLACK
6
CONTINUOUS
10
5.86033
20
-6.32775
11
5.86221
21
-6.324
0
LINE
8
BLACK
6
CONTINUOUS
10
5.86221
20
-6.324
11
5.86408
21
-6.32212
0
LINE
8
BLACK
6
CONTINUOUS
10
5.86408
20
-6.32212
11
5.86783
21
-6.32025
0
LINE
8
BLACK
6
CONTINUOUS
10
5.86783
20
-6.32025
11
5.87533
21
-6.32025
0
LINE
8
BLACK
6
CONTINUOUS
10
5.87533
20
-6.32025
11
5.87908
21
-6.32212
0
LINE
8
BLACK
6
CONTINUOUS
10
5.87908
20
-6.32212
11
5.88095
21
-6.324
0
LINE
8
BLACK
6
CONTINUOUS
10
5.88095
20
-6.324
11
5.88283
21
-6.32775
0
LINE
8
BLACK
6
CONTINUOUS
10
5.88283
20
-6.32775
11
5.88283
21
-6.32962
0
LINE
8
BLACK
6
CONTINUOUS
10
5.88283
20
-6.32962
11
5.88095
21
-6.33337
0
LINE
8
BLACK
6
CONTINUOUS
10
5.88095
20
-6.33337
11
5.87908
21
-6.33524
0
LINE
8
BLACK
6
CONTINUOUS
10
5.87908
20
-6.33524
11
5.87533
21
-6.33712
0
LINE
8
BLACK
6
CONTINUOUS
10
5.87533
20
-6.33712
11
5.86783
21
-6.33712
0
LINE
8
BLACK
6
CONTINUOUS
10
5.86783
20
-6.33712
11
5.86408
21
-6.33899
0
LINE
8
BLACK
6
CONTINUOUS
10
5.86408
20
-6.33899
11
5.86221
21
-6.34087
0
LINE
8
BLACK
6
CONTINUOUS
10
5.86221
20
-6.34087
11
5.86033
21
-6.34462
0
LINE
8
BLACK
6
CONTINUOUS
10
5.86033
20
-6.34462
11
5.86033
21
-6.35212
0
LINE
8
BLACK
6
CONTINUOUS
10
5.86033
20
-6.35212
11
5.86221
21
-6.35587
0
LINE
8
BLACK
6
CONTINUOUS
10
5.86221
20
-6.35587
11
5.86408
21
-6.35774
0
LINE
8
BLACK
6
CONTINUOUS
10
5.86408
20
-6.35774
11
5.86783
21
-6.35962
0
LINE
8
BLACK
6
CONTINUOUS
10
5.86783
20
-6.35962
11
5.87533
21
-6.35962
0
LINE
8
BLACK
6
CONTINUOUS
10
5.87533
20
-6.35962
11
5.87908
21
-6.35774
0
LINE
8
BLACK
6
CONTINUOUS
10
5.87908
20
-6.35774
11
5.88095
21
-6.35587
0
LINE
8
BLACK
6
CONTINUOUS
10
5.88095
20
-6.35587
11
5.88283
21
-6.35212
0
LINE
8
BLACK
6
CONTINUOUS
10
5.88283
20
-6.35212
11
5.88283
21
-6.34462
0
LINE
8
BLACK
6
CONTINUOUS
10
5.88283
20
-6.34462
11
5.88095
21
-6.34087
0
LINE
8
BLACK
6
CONTINUOUS
10
5.88095
20
-6.34087
11
5.87908
21
-6.33899
0
LINE
8
BLACK
6
CONTINUOUS
10
5.87908
20
-6.33899
11
5.87533
21
-6.33712
0
LINE
8
BLACK
6
CONTINUOUS
10
5.91845
20
-6.32025
11
5.8997
21
-6.32025
0
LINE
8
BLACK
6
CONTINUOUS
10
5.8997
20
-6.32025
11
5.89783
21
-6.33899
0
LINE
8
BLACK
6
CONTINUOUS
10
5.89783
20
-6.33899
11
5.8997
21
-6.33712
0
LINE
8
BLACK
6
CONTINUOUS
10
5.8997
20
-6.33712
11
5.90345
21
-6.33524
0
LINE
8
BLACK
6
CONTINUOUS
10
5.90345
20
-6.33524
11
5.91282
21
-6.33524
0
LINE
8
BLACK
6
CONTINUOUS
10
5.91282
20
-6.33524
11
5.91657
21
-6.33712
0
LINE
8
BLACK
6
CONTINUOUS
10
5.91657
20
-6.33712
11
5.91845
21
-6.33899
0
LINE
8
BLACK
6
CONTINUOUS
10
5.91845
20
-6.33899
11
5.92032
21
-6.34274
0
LINE
8
BLACK
6
CONTINUOUS
10
5.92032
20
-6.34274
11
5.92032
21
-6.35212
0
LINE
8
BLACK
6
CONTINUOUS
10
5.92032
20
-6.35212
11
5.91845
21
-6.35587
0
LINE
8
BLACK
6
CONTINUOUS
10
5.91845
20
-6.35587
11
5.91657
21
-6.35774
0
LINE
8
BLACK
6
CONTINUOUS
10
5.91657
20
-6.35774
11
5.91282
21
-6.35962
0
LINE
8
BLACK
6
CONTINUOUS
10
5.91282
20
-6.35962
11
5.90345
21
-6.35962
0
LINE
8
BLACK
6
CONTINUOUS
10
5.90345
20
-6.35962
11
5.8997
21
-6.35774
0
LINE
8
BLACK
6
CONTINUOUS
10
5.8997
20
-6.35774
11
5.89783
21
-6.35587
0
LINE
8
BLACK
6
CONTINUOUS
10
5.9372
20
-6.35587
11
5.93907
21
-6.35774
0
LINE
8
BLACK
6
CONTINUOUS
10
5.93907
20
-6.35774
11
5.9372
21
-6.35962
0
LINE
8
BLACK
6
CONTINUOUS
10
5.9372
20
-6.35962
11
5.93532
21
-6.35774
0
LINE
8
BLACK
6
CONTINUOUS
10
5.93532
20
-6.35774
11
5.9372
21
-6.35587
0
LINE
8
BLACK
6
CONTINUOUS
10
5.9372
20
-6.35587
11
5.9372
21
-6.35962
0
LINE
8
BLACK
6
CONTINUOUS
10
5.96344
20
-6.32025
11
5.96719
21
-6.32025
0
LINE
8
BLACK
6
CONTINUOUS
10
5.96719
20
-6.32025
11
5.97094
21
-6.32212
0
LINE
8
BLACK
6
CONTINUOUS
10
5.97094
20
-6.32212
11
5.97282
21
-6.324
0
LINE
8
BLACK
6
CONTINUOUS
10
5.97282
20
-6.324
11
5.97469
21
-6.32775
0
LINE
8
BLACK
6
CONTINUOUS
10
5.97469
20
-6.32775
11
5.97657
21
-6.33524
0
LINE
8
BLACK
6
CONTINUOUS
10
5.97657
20
-6.33524
11
5.97657
21
-6.34462
0
LINE
8
BLACK
6
CONTINUOUS
10
5.97657
20
-6.34462
11
5.97469
21
-6.35212
0
LINE
8
BLACK
6
CONTINUOUS
10
5.97469
20
-6.35212
11
5.97282
21
-6.35587
0
LINE
8
BLACK
6
CONTINUOUS
10
5.97282
20
-6.35587
11
5.97094
21
-6.35774
0
LINE
8
BLACK
6
CONTINUOUS
10
5.97094
20
-6.35774
11
5.96719
21
-6.35962
0
LINE
8
BLACK
6
CONTINUOUS
10
5.96719
20
-6.35962
11
5.96344
21
-6.35962
0
LINE
8
BLACK
6
CONTINUOUS
10
5.96344
20
-6.35962
11
5.95969
21
-6.35774
0
LINE
8
BLACK
6
CONTINUOUS
10
5.95969
20
-6.35774
11
5.95782
21
-6.35587
0
LINE
8
BLACK
6
CONTINUOUS
10
5.95782
20
-6.35587
11
5.95594
21
-6.35212
0
LINE
8
BLACK
6
CONTINUOUS
10
5.95594
20
-6.35212
11
5.95407
21
-6.34462
0
LINE
8
BLACK
6
CONTINUOUS
10
5.95407
20
-6.34462
11
5.95407
21
-6.33524
0
LINE
8
BLACK
6
CONTINUOUS
10
5.95407
20
-6.33524
11
5.95594
21
-6.32775
0
LINE
8
BLACK
6
CONTINUOUS
10
5.95594
20
-6.32775
11
5.95782
21
-6.324
0
LINE
8
BLACK
6
CONTINUOUS
10
5.95782
20
-6.324
11
5.95969
21
-6.32212
0
LINE
8
BLACK
6
CONTINUOUS
10
5.95969
20
-6.32212
11
5.96344
21
-6.32025
0
LINE
8
BLACK
6
CONTINUOUS
10
5.98969
20
-6.32025
11
6.01406
21
-6.32025
0
LINE
8
BLACK
6
CONTINUOUS
10
6.01406
20
-6.32025
11
6.00094
21
-6.33524
0
LINE
8
BLACK
6
CONTINUOUS
10
6.00094
20
-6.33524
11
6.00656
21
-6.33524
0
LINE
8
BLACK
6
CONTINUOUS
10
6.00656
20
-6.33524
11
6.01031
21
-6.33712
0
LINE
8
BLACK
6
CONTINUOUS
10
6.01031
20
-6.33712
11
6.01219
21
-6.33899
0
LINE
8
BLACK
6
CONTINUOUS
10
6.01219
20
-6.33899
11
6.01406
21
-6.34274
0
LINE
8
BLACK
6
CONTINUOUS
10
6.01406
20
-6.34274
11
6.01406
21
-6.35212
0
LINE
8
BLACK
6
CONTINUOUS
10
6.01406
20
-6.35212
11
6.01219
21
-6.35587
0
LINE
8
BLACK
6
CONTINUOUS
10
6.01219
20
-6.35587
11
6.01031
21
-6.35774
0
LINE
8
BLACK
6
CONTINUOUS
10
6.01031
20
-6.35774
11
6.00656
21
-6.35962
0
LINE
8
BLACK
6
CONTINUOUS
10
6.00656
20
-6.35962
11
5.99531
21
-6.35962
0
LINE
8
BLACK
6
CONTINUOUS
10
5.99531
20
-6.35962
11
5.99156
21
-6.35774
0
LINE
8
BLACK
6
CONTINUOUS
10
5.99156
20
-6.35774
11
5.98969
21
-6.35587
0
LINE
8
BLACK
6
CONTINUOUS
10
6.04781
20
-6.32025
11
6.04031
21
-6.32025
0
LINE
8
BLACK
6
CONTINUOUS
10
6.04031
20
-6.32025
11
6.03656
21
-6.32212
0
LINE
8
BLACK
6
CONTINUOUS
10
6.03656
20
-6.32212
11
6.03468
21
-6.324
0
LINE
8
BLACK
6
CONTINUOUS
10
6.03468
20
-6.324
11
6.03093
21
-6.32962
0
LINE
8
BLACK
6
CONTINUOUS
10
6.03093
20
-6.32962
11
6.02906
21
-6.33712
0
LINE
8
BLACK
6
CONTINUOUS
10
6.02906
20
-6.33712
11
6.02906
21
-6.35212
0
LINE
8
BLACK
6
CONTINUOUS
10
6.02906
20
-6.35212
11
6.03093
21
-6.35587
0
LINE
8
BLACK
6
CONTINUOUS
10
6.03093
20
-6.35587
11
6.03281
21
-6.35774
0
LINE
8
BLACK
6
CONTINUOUS
10
6.03281
20
-6.35774
11
6.03656
21
-6.35962
0
LINE
8
BLACK
6
CONTINUOUS
10
6.03656
20
-6.35962
11
6.04406
21
-6.35962
0
LINE
8
BLACK
6
CONTINUOUS
10
6.04406
20
-6.35962
11
6.04781
21
-6.35774
0
LINE
8
BLACK
6
CONTINUOUS
10
6.04781
20
-6.35774
11
6.04968
21
-6.35587
0
LINE
8
BLACK
6
CONTINUOUS
10
6.04968
20
-6.35587
11
6.05156
21
-6.35212
0
LINE
8
BLACK
6
CONTINUOUS
10
6.05156
20
-6.35212
11
6.05156
21
-6.34274
0
LINE
8
BLACK
6
CONTINUOUS
10
6.05156
20
-6.34274
11
6.04968
21
-6.33899
0
LINE
8
BLACK
6
CONTINUOUS
10
6.04968
20
-6.33899
11
6.04781
21
-6.33712
0
LINE
8
BLACK
6
CONTINUOUS
10
6.04781
20
-6.33712
11
6.04406
21
-6.33524
0
LINE
8
BLACK
6
CONTINUOUS
10
6.04406
20
-6.33524
11
6.03656
21
-6.33524
0
LINE
8
BLACK
6
CONTINUOUS
10
6.03656
20
-6.33524
11
6.03281
21
-6.33712
0
LINE
8
BLACK
6
CONTINUOUS
10
6.03281
20
-6.33712
11
6.03093
21
-6.33899
0
LINE
8
BLACK
6
CONTINUOUS
10
6.03093
20
-6.33899
11
6.02906
21
-6.34274
0
LINE
8
BLACK
6
CONTINUOUS
10
6.09843
20
-6.35962
11
6.09843
21
-6.33337
0
LINE
8
BLACK
6
CONTINUOUS
10
6.09843
20
-6.33712
11
6.1003
21
-6.33524
0
LINE
8
BLACK
6
CONTINUOUS
10
6.1003
20
-6.33524
11
6.10405
21
-6.33337
0
LINE
8
BLACK
6
CONTINUOUS
10
6.10405
20
-6.33337
11
6.10967
21
-6.33337
0
LINE
8
BLACK
6
CONTINUOUS
10
6.10967
20
-6.33337
11
6.11342
21
-6.33524
0
LINE
8
BLACK
6
CONTINUOUS
10
6.11342
20
-6.33524
11
6.1153
21
-6.33899
0
LINE
8
BLACK
6
CONTINUOUS
10
6.1153
20
-6.33899
11
6.1153
21
-6.35962
0
LINE
8
BLACK
6
CONTINUOUS
10
6.1153
20
-6.33899
11
6.11717
21
-6.33524
0
LINE
8
BLACK
6
CONTINUOUS
10
6.11717
20
-6.33524
11
6.12092
21
-6.33337
0
LINE
8
BLACK
6
CONTINUOUS
10
6.12092
20
-6.33337
11
6.12655
21
-6.33337
0
LINE
8
BLACK
6
CONTINUOUS
10
6.12655
20
-6.33337
11
6.1303
21
-6.33524
0
LINE
8
BLACK
6
CONTINUOUS
10
6.1303
20
-6.33524
11
6.13217
21
-6.33899
0
LINE
8
BLACK
6
CONTINUOUS
10
6.13217
20
-6.33899
11
6.13217
21
-6.35962
0
LINE
8
BLACK
6
CONTINUOUS
10
6.15092
20
-6.35962
11
6.15092
21
-6.33337
0
LINE
8
BLACK
6
CONTINUOUS
10
6.15092
20
-6.33712
11
6.15279
21
-6.33524
0
LINE
8
BLACK
6
CONTINUOUS
10
6.15279
20
-6.33524
11
6.15654
21
-6.33337
0
LINE
8
BLACK
6
CONTINUOUS
10
6.15654
20
-6.33337
11
6.16217
21
-6.33337
0
LINE
8
BLACK
6
CONTINUOUS
10
6.16217
20
-6.33337
11
6.16592
21
-6.33524
0
LINE
8
BLACK
6
CONTINUOUS
10
6.16592
20
-6.33524
11
6.16779
21
-6.33899
0
LINE
8
BLACK
6
CONTINUOUS
10
6.16779
20
-6.33899
11
6.16779
21
-6.35962
0
LINE
8
BLACK
6
CONTINUOUS
10
6.16779
20
-6.33899
11
6.16967
21
-6.33524
0
LINE
8
BLACK
6
CONTINUOUS
10
6.16967
20
-6.33524
11
6.17342
21
-6.33337
0
LINE
8
BLACK
6
CONTINUOUS
10
6.17342
20
-6.33337
11
6.17904
21
-6.33337
0
LINE
8
BLACK
6
CONTINUOUS
10
6.17904
20
-6.33337
11
6.18279
21
-6.33524
0
LINE
8
BLACK
6
CONTINUOUS
10
6.18279
20
-6.33524
11
6.18466
21
-6.33899
0
LINE
8
BLACK
6
CONTINUOUS
10
6.18466
20
-6.33899
11
6.18466
21
-6.35962
0
LINE
8
BLACK
6
CONTINUOUS
10
11.6156
20
-6.29062
11
0.39375
21
-6.29062
0
LINE
8
BLACK
6
CONTINUOUS
10
11.6156
20
-5.76562
11
11.6156
21
-6.31371
0
LINE
8
BLACK
6
CONTINUOUS
10
0.39375
20
-5.76562
11
0.39375
21
-6.31371
0
LINE
8
BLACK
6
CONTINUOUS
10
0.39375
20
-6.29062
11
0.438101
21
-6.26754
0
LINE
8
BLACK
6
CONTINUOUS
10
0.39375
20
-6.29062
11
0.438101
21
-6.31371
0
LINE
8
BLACK
6
CONTINUOUS
10
11.6156
20
-6.29062
11
11.5713
21
-6.26754
0
LINE
8
BLACK
6
CONTINUOUS
10
11.6156
20
-6.29062
11
11.5713
21
-6.31371
0
LINE
8
BLACK
6
CONTINUOUS
10
1.10669
20
-2.15669
11
1.10669
21
-2.55469
0
LINE
8
BLACK
6
CONTINUOUS
10
6.90565
20
-6.01931
11
6.90565
21
-6.04556
0
LINE
8
BLACK
6
CONTINUOUS
10
6.89627
20
-6.00431
11
6.8869
21
-6.03244
0
LINE
8
BLACK
6
CONTINUOUS
10
6.8869
20
-6.03244
11
6.91127
21
-6.03244
0
LINE
8
BLACK
6
CONTINUOUS
10
6.92627
20
-6.04181
11
6.92814
21
-6.04368
0
LINE
8
BLACK
6
CONTINUOUS
10
6.92814
20
-6.04368
11
6.92627
21
-6.04556
0
LINE
8
BLACK
6
CONTINUOUS
10
6.92627
20
-6.04556
11
6.92439
21
-6.04368
0
LINE
8
BLACK
6
CONTINUOUS
10
6.92439
20
-6.04368
11
6.92627
21
-6.04181
0
LINE
8
BLACK
6
CONTINUOUS
10
6.92627
20
-6.04181
11
6.92627
21
-6.04556
0
LINE
8
BLACK
6
CONTINUOUS
10
6.94127
20
-6.00619
11
6.96751
21
-6.00619
0
LINE
8
BLACK
6
CONTINUOUS
10
6.96751
20
-6.00619
11
6.95064
21
-6.04556
0
LINE
8
BLACK
6
CONTINUOUS
10
6.99938
20
-6.00619
11
6.99189
21
-6.00619
0
LINE
8
BLACK
6
CONTINUOUS
10
6.99189
20
-6.00619
11
6.98814
21
-6.00806
0
LINE
8
BLACK
6
CONTINUOUS
10
6.98814
20
-6.00806
11
6.98626
21
-6.00994
0
LINE
8
BLACK
6
CONTINUOUS
10
6.98626
20
-6.00994
11
6.98251
21
-6.01556
0
LINE
8
BLACK
6
CONTINUOUS
10
6.98251
20
-6.01556
11
6.98064
21
-6.02306
0
LINE
8
BLACK
6
CONTINUOUS
10
6.98064
20
-6.02306
11
6.98064
21
-6.03806
0
LINE
8
BLACK
6
CONTINUOUS
10
6.98064
20
-6.03806
11
6.98251
21
-6.04181
0
LINE
8
BLACK
6
CONTINUOUS
10
6.98251
20
-6.04181
11
6.98439
21
-6.04368
0
LINE
8
BLACK
6
CONTINUOUS
10
6.98439
20
-6.04368
11
6.98814
21
-6.04556
0
LINE
8
BLACK
6
CONTINUOUS
10
6.98814
20
-6.04556
11
6.99564
21
-6.04556
0
LINE
8
BLACK
6
CONTINUOUS
10
6.99564
20
-6.04556
11
6.99938
21
-6.04368
0
LINE
8
BLACK
6
CONTINUOUS
10
6.99938
20
-6.04368
11
7.00126
21
-6.04181
0
LINE
8
BLACK
6
CONTINUOUS
10
7.00126
20
-6.04181
11
7.00313
21
-6.03806
0
LINE
8
BLACK
6
CONTINUOUS
10
7.00313
20
-6.03806
11
7.00313
21
-6.02869
0
LINE
8
BLACK
6
CONTINUOUS
10
7.00313
20
-6.02869
11
7.00126
21
-6.02494
0
LINE
8
BLACK
6
CONTINUOUS
10
7.00126
20
-6.02494
11
6.99938
21
-6.02306
0
LINE
8
BLACK
6
CONTINUOUS
10
6.99938
20
-6.02306
11
6.99564
21
-6.02119
0
LINE
8
BLACK
6
CONTINUOUS
10
6.99564
20
-6.02119
11
6.98814
21
-6.02119
0
LINE
8
BLACK
6
CONTINUOUS
10
6.98814
20
-6.02119
11
6.98439
21
-6.02306
0
LINE
8
BLACK
6
CONTINUOUS
10
6.98439
20
-6.02306
11
6.98251
21
-6.02494
0
LINE
8
BLACK
6
CONTINUOUS
10
6.98251
20
-6.02494
11
6.98064
21
-6.02869
0
LINE
8
BLACK
6
CONTINUOUS
10
7.01626
20
-6.00619
11
7.04063
21
-6.00619
0
LINE
8
BLACK
6
CONTINUOUS
10
7.04063
20
-6.00619
11
7.02751
21
-6.02119
0
LINE
8
BLACK
6
CONTINUOUS
10
7.02751
20
-6.02119
11
7.03313
21
-6.02119
0
LINE
8
BLACK
6
CONTINUOUS
10
7.03313
20
-6.02119
11
7.03688
21
-6.02306
0
LINE
8
BLACK
6
CONTINUOUS
10
7.03688
20
-6.02306
11
7.03875
21
-6.02494
0
LINE
8
BLACK
6
CONTINUOUS
10
7.03875
20
-6.02494
11
7.04063
21
-6.02869
0
LINE
8
BLACK
6
CONTINUOUS
10
7.04063
20
-6.02869
11
7.04063
21
-6.03806
0
LINE
8
BLACK
6
CONTINUOUS
10
7.04063
20
-6.03806
11
7.03875
21
-6.04181
0
LINE
8
BLACK
6
CONTINUOUS
10
7.03875
20
-6.04181
11
7.03688
21
-6.04368
0
LINE
8
BLACK
6
CONTINUOUS
10
7.03688
20
-6.04368
11
7.03313
21
-6.04556
0
LINE
8
BLACK
6
CONTINUOUS
10
7.03313
20
-6.04556
11
7.02188
21
-6.04556
0
LINE
8
BLACK
6
CONTINUOUS
10
7.02188
20
-6.04556
11
7.01813
21
-6.04368
0
LINE
8
BLACK
6
CONTINUOUS
10
7.01813
20
-6.04368
11
7.01626
21
-6.04181
0
LINE
8
BLACK
6
CONTINUOUS
10
7.0875
20
-6.04556
11
7.0875
21
-6.01931
0
LINE
8
BLACK
6
CONTINUOUS
10
7.0875
20
-6.02306
11
7.08937
21
-6.02119
0
LINE
8
BLACK
6
CONTINUOUS
10
7.08937
20
-6.02119
11
7.09312
21
-6.01931
0
LINE
8
BLACK
6
CONTINUOUS
10
7.09312
20
-6.01931
11
7.09875
21
-6.01931
0
LINE
8
BLACK
6
CONTINUOUS
10
7.09875
20
-6.01931
11
7.1025
21
-6.02119
0
LINE
8
BLACK
6
CONTINUOUS
10
7.1025
20
-6.02119
11
7.10437
21
-6.02494
0
LINE
8
BLACK
6
CONTINUOUS
10
7.10437
20
-6.02494
11
7.10437
21
-6.04556
0
LINE
8
BLACK
6
CONTINUOUS
10
7.10437
20
-6.02494
11
7.10625
21
-6.02119
0
LINE
8
BLACK
6
CONTINUOUS
10
7.10625
20
-6.02119
11
7.11
21
-6.01931
0
LINE
8
BLACK
6
CONTINUOUS
10
7.11
20
-6.01931
11
7.11562
21
-6.01931
0
LINE
8
BLACK
6
CONTINUOUS
10
7.11562
20
-6.01931
11
7.11937
21
-6.02119
0
LINE
8
BLACK
6
CONTINUOUS
10
7.11937
20
-6.02119
11
7.12124
21
-6.02494
0
LINE
8
BLACK
6
CONTINUOUS
10
7.12124
20
-6.02494
11
7.12124
21
-6.04556
0
LINE
8
BLACK
6
CONTINUOUS
10
7.13999
20
-6.04556
11
7.13999
21
-6.01931
0
LINE
8
BLACK
6
CONTINUOUS
10
7.13999
20
-6.02306
11
7.14187
21
-6.02119
0
LINE
8
BLACK
6
CONTINUOUS
10
7.14187
20
-6.02119
11
7.14562
21
-6.01931
0
LINE
8
BLACK
6
CONTINUOUS
10
7.14562
20
-6.01931
11
7.15124
21
-6.01931
0
LINE
8
BLACK
6
CONTINUOUS
10
7.15124
20
-6.01931
11
7.15499
21
-6.02119
0
LINE
8
BLACK
6
CONTINUOUS
10
7.15499
20
-6.02119
11
7.15687
21
-6.02494
0
LINE
8
BLACK
6
CONTINUOUS
10
7.15687
20
-6.02494
11
7.15687
21
-6.04556
0
LINE
8
BLACK
6
CONTINUOUS
10
7.15687
20
-6.02494
11
7.15874
21
-6.02119
0
LINE
8
BLACK
6
CONTINUOUS
10
7.15874
20
-6.02119
11
7.16249
21
-6.01931
0
LINE
8
BLACK
6
CONTINUOUS
10
7.16249
20
-6.01931
11
7.16811
21
-6.01931
0
LINE
8
BLACK
6
CONTINUOUS
10
7.16811
20
-6.01931
11
7.17186
21
-6.02119
0
LINE
8
BLACK
6
CONTINUOUS
10
7.17186
20
-6.02119
11
7.17374
21
-6.02494
0
LINE
8
BLACK
6
CONTINUOUS
10
7.17374
20
-6.02494
11
7.17374
21
-6.04556
0
LINE
8
BLACK
6
CONTINUOUS
10
6.93751
20
-5.97657
11
7.12501
21
-5.97657
0
LINE
8
BLACK
6
CONTINUOUS
10
6.93751
20
-5.69532
11
6.93751
21
-5.99965
0
LINE
8
BLACK
6
CONTINUOUS
10
7.12501
20
-5.69532
11
7.12501
21
-5.99965
0
LINE
8
BLACK
6
CONTINUOUS
10
7.12501
20
-5.97657
11
7.08066
21
-5.99965
0
LINE
8
BLACK
6
CONTINUOUS
10
7.12501
20
-5.97657
11
7.08066
21
-5.95348
0
LINE
8
BLACK
6
CONTINUOUS
10
6.93751
20
-5.97657
11
6.98186
21
-5.99965
0
LINE
8
BLACK
6
CONTINUOUS
10
6.93751
20
-5.97657
11
6.98186
21
-5.95348
0
LINE
8
BLACK
6
CONTINUOUS
10
6.00001
20
-5.88282
11
6.00001
21
-2.01563
0
LINE
8
BLACK
6
CONTINUOUS
10
5.2744
20
-6.00994
11
5.27627
21
-6.00806
0
LINE
8
BLACK
6
CONTINUOUS
10
5.27627
20
-6.00806
11
5.28002
21
-6.00619
0
LINE
8
BLACK
6
CONTINUOUS
10
5.28002
20
-6.00619
11
5.2894
21
-6.00619
0
LINE
8
BLACK
6
CONTINUOUS
10
5.2894
20
-6.00619
11
5.29315
21
-6.00806
0
LINE
8
BLACK
6
CONTINUOUS
10
5.29315
20
-6.00806
11
5.29502
21
-6.00994
0
LINE
8
BLACK
6
CONTINUOUS
10
5.29502
20
-6.00994
11
5.2969
21
-6.01369
0
LINE
8
BLACK
6
CONTINUOUS
10
5.2969
20
-6.01369
11
5.2969
21
-6.01744
0
LINE
8
BLACK
6
CONTINUOUS
10
5.2969
20
-6.01744
11
5.29502
21
-6.02306
0
LINE
8
BLACK
6
CONTINUOUS
10
5.29502
20
-6.02306
11
5.27253
21
-6.04556
0
LINE
8
BLACK
6
CONTINUOUS
10
5.27253
20
-6.04556
11
5.2969
21
-6.04556
0
LINE
8
BLACK
6
CONTINUOUS
10
5.31939
20
-6.02306
11
5.31564
21
-6.02119
0
LINE
8
BLACK
6
CONTINUOUS
10
5.31564
20
-6.02119
11
5.31377
21
-6.01931
0
LINE
8
BLACK
6
CONTINUOUS
10
5.31377
20
-6.01931
11
5.3119
21
-6.01556
0
LINE
8
BLACK
6
CONTINUOUS
10
5.3119
20
-6.01556
11
5.3119
21
-6.01369
0
LINE
8
BLACK
6
CONTINUOUS
10
5.3119
20
-6.01369
11
5.31377
21
-6.00994
0
LINE
8
BLACK
6
CONTINUOUS
10
5.31377
20
-6.00994
11
5.31564
21
-6.00806
0
LINE
8
BLACK
6
CONTINUOUS
10
5.31564
20
-6.00806
11
5.31939
21
-6.00619
0
LINE
8
BLACK
6
CONTINUOUS
10
5.31939
20
-6.00619
11
5.32689
21
-6.00619
0
LINE
8
BLACK
6
CONTINUOUS
10
5.32689
20
-6.00619
11
5.33064
21
-6.00806
0
LINE
8
BLACK
6
CONTINUOUS
10
5.33064
20
-6.00806
11
5.33252
21
-6.00994
0
LINE
8
BLACK
6
CONTINUOUS
10
5.33252
20
-6.00994
11
5.33439
21
-6.01369
0
LINE
8
BLACK
6
CONTINUOUS
10
5.33439
20
-6.01369
11
5.33439
21
-6.01556
0
LINE
8
BLACK
6
CONTINUOUS
10
5.33439
20
-6.01556
11
5.33252
21
-6.01931
0
LINE
8
BLACK
6
CONTINUOUS
10
5.33252
20
-6.01931
11
5.33064
21
-6.02119
0
LINE
8
BLACK
6
CONTINUOUS
10
5.33064
20
-6.02119
11
5.32689
21
-6.02306
0
LINE
8
BLACK
6
CONTINUOUS
10
5.32689
20
-6.02306
11
5.31939
21
-6.02306
0
LINE
8
BLACK
6
CONTINUOUS
10
5.31939
20
-6.02306
11
5.31564
21
-6.02494
0
LINE
8
BLACK
6
CONTINUOUS
10
5.31564
20
-6.02494
11
5.31377
21
-6.02681
0
LINE
8
BLACK
6
CONTINUOUS
10
5.31377
20
-6.02681
11
5.3119
21
-6.03056
0
LINE
8
BLACK
6
CONTINUOUS
10
5.3119
20
-6.03056
11
5.3119
21
-6.03806
0
LINE
8
BLACK
6
CONTINUOUS
10
5.3119
20
-6.03806
11
5.31377
21
-6.04181
0
LINE
8
BLACK
6
CONTINUOUS
10
5.31377
20
-6.04181
11
5.31564
21
-6.04368
0
LINE
8
BLACK
6
CONTINUOUS
10
5.31564
20
-6.04368
11
5.31939
21
-6.04556
0
LINE
8
BLACK
6
CONTINUOUS
10
5.31939
20
-6.04556
11
5.32689
21
-6.04556
0
LINE
8
BLACK
6
CONTINUOUS
10
5.32689
20
-6.04556
11
5.33064
21
-6.04368
0
LINE
8
BLACK
6
CONTINUOUS
10
5.33064
20
-6.04368
11
5.33252
21
-6.04181
0
LINE
8
BLACK
6
CONTINUOUS
10
5.33252
20
-6.04181
11
5.33439
21
-6.03806
0
LINE
8
BLACK
6
CONTINUOUS
10
5.33439
20
-6.03806
11
5.33439
21
-6.03056
0
LINE
8
BLACK
6
CONTINUOUS
10
5.33439
20
-6.03056
11
5.33252
21
-6.02681
0
LINE
8
BLACK
6
CONTINUOUS
10
5.33252
20
-6.02681
11
5.33064
21
-6.02494
0
LINE
8
BLACK
6
CONTINUOUS
10
5.33064
20
-6.02494
11
5.32689
21
-6.02306
0
LINE
8
BLACK
6
CONTINUOUS
10
5.35127
20
-6.04181
11
5.35314
21
-6.04368
0
LINE
8
BLACK
6
CONTINUOUS
10
5.35314
20
-6.04368
11
5.35127
21
-6.04556
0
LINE
8
BLACK
6
CONTINUOUS
10
5.35127
20
-6.04556
11
5.34939
21
-6.04368
0
LINE
8
BLACK
6
CONTINUOUS
10
5.34939
20
-6.04368
11
5.35127
21
-6.04181
0
LINE
8
BLACK
6
CONTINUOUS
10
5.35127
20
-6.04181
11
5.35127
21
-6.04556
0
LINE
8
BLACK
6
CONTINUOUS
10
5.38876
20
-6.00619
11
5.37001
21
-6.00619
0
LINE
8
BLACK
6
CONTINUOUS
10
5.37001
20
-6.00619
11
5.36814
21
-6.02494
0
LINE
8
BLACK
6
CONTINUOUS
10
5.36814
20
-6.02494
11
5.37001
21
-6.02306
0
LINE
8
BLACK
6
CONTINUOUS
10
5.37001
20
-6.02306
11
5.37376
21
-6.02119
0
LINE
8
BLACK
6
CONTINUOUS
10
5.37376
20
-6.02119
11
5.38314
21
-6.02119
0
LINE
8
BLACK
6
CONTINUOUS
10
5.38314
20
-6.02119
11
5.38689
21
-6.02306
0
LINE
8
BLACK
6
CONTINUOUS
10
5.38689
20
-6.02306
11
5.38876
21
-6.02494
0
LINE
8
BLACK
6
CONTINUOUS
10
5.38876
20
-6.02494
11
5.39064
21
-6.02869
0
LINE
8
BLACK
6
CONTINUOUS
10
5.39064
20
-6.02869
11
5.39064
21
-6.03806
0
LINE
8
BLACK
6
CONTINUOUS
10
5.39064
20
-6.03806
11
5.38876
21
-6.04181
0
LINE
8
BLACK
6
CONTINUOUS
10
5.38876
20
-6.04181
11
5.38689
21
-6.04368
0
LINE
8
BLACK
6
CONTINUOUS
10
5.38689
20
-6.04368
11
5.38314
21
-6.04556
0
LINE
8
BLACK
6
CONTINUOUS
10
5.38314
20
-6.04556
11
5.37376
21
-6.04556
0
LINE
8
BLACK
6
CONTINUOUS
10
5.37376
20
-6.04556
11
5.37001
21
-6.04368
0
LINE
8
BLACK
6
CONTINUOUS
10
5.37001
20
-6.04368
11
5.36814
21
-6.04181
0
LINE
8
BLACK
6
CONTINUOUS
10
5.40376
20
-6.00619
11
5.43001
21
-6.00619
0
LINE
8
BLACK
6
CONTINUOUS
10
5.43001
20
-6.00619
11
5.41313
21
-6.04556
0
LINE
8
BLACK
6
CONTINUOUS
10
5.46375
20
-6.00619
11
5.445
21
-6.00619
0
LINE
8
BLACK
6
CONTINUOUS
10
5.445
20
-6.00619
11
5.44313
21
-6.02494
0
LINE
8
BLACK
6
CONTINUOUS
10
5.44313
20
-6.02494
11
5.445
21
-6.02306
0
LINE
8
BLACK
6
CONTINUOUS
10
5.445
20
-6.02306
11
5.44875
21
-6.02119
0
LINE
8
BLACK
6
CONTINUOUS
10
5.44875
20
-6.02119
11
5.45813
21
-6.02119
0
LINE
8
BLACK
6
CONTINUOUS
10
5.45813
20
-6.02119
11
5.46188
21
-6.02306
0
LINE
8
BLACK
6
CONTINUOUS
10
5.46188
20
-6.02306
11
5.46375
21
-6.02494
0
LINE
8
BLACK
6
CONTINUOUS
10
5.46375
20
-6.02494
11
5.46563
21
-6.02869
0
LINE
8
BLACK
6
CONTINUOUS
10
5.46563
20
-6.02869
11
5.46563
21
-6.03806
0
LINE
8
BLACK
6
CONTINUOUS
10
5.46563
20
-6.03806
11
5.46375
21
-6.04181
0
LINE
8
BLACK
6
CONTINUOUS
10
5.46375
20
-6.04181
11
5.46188
21
-6.04368
0
LINE
8
BLACK
6
CONTINUOUS
10
5.46188
20
-6.04368
11
5.45813
21
-6.04556
0
LINE
8
BLACK
6
CONTINUOUS
10
5.45813
20
-6.04556
11
5.44875
21
-6.04556
0
LINE
8
BLACK
6
CONTINUOUS
10
5.44875
20
-6.04556
11
5.445
21
-6.04368
0
LINE
8
BLACK
6
CONTINUOUS
10
5.445
20
-6.04368
11
5.44313
21
-6.04181
0
LINE
8
BLACK
6
CONTINUOUS
10
5.5125
20
-6.04556
11
5.5125
21
-6.01931
0
LINE
8
BLACK
6
CONTINUOUS
10
5.5125
20
-6.02306
11
5.51437
21
-6.02119
0
LINE
8
BLACK
6
CONTINUOUS
10
5.51437
20
-6.02119
11
5.51812
21
-6.01931
0
LINE
8
BLACK
6
CONTINUOUS
10
5.51812
20
-6.01931
11
5.52374
21
-6.01931
0
LINE
8
BLACK
6
CONTINUOUS
10
5.52374
20
-6.01931
11
5.52749
21
-6.02119
0
LINE
8
BLACK
6
CONTINUOUS
10
5.52749
20
-6.02119
11
5.52937
21
-6.02494
0
LINE
8
BLACK
6
CONTINUOUS
10
5.52937
20
-6.02494
11
5.52937
21
-6.04556
0
LINE
8
BLACK
6
CONTINUOUS
10
5.52937
20
-6.02494
11
5.53124
21
-6.02119
0
LINE
8
BLACK
6
CONTINUOUS
10
5.53124
20
-6.02119
11
5.53499
21
-6.01931
0
LINE
8
BLACK
6
CONTINUOUS
10
5.53499
20
-6.01931
11
5.54062
21
-6.01931
0
LINE
8
BLACK
6
CONTINUOUS
10
5.54062
20
-6.01931
11
5.54437
21
-6.02119
0
LINE
8
BLACK
6
CONTINUOUS
10
5.54437
20
-6.02119
11
5.54624
21
-6.02494
0
LINE
8
BLACK
6
CONTINUOUS
10
5.54624
20
-6.02494
11
5.54624
21
-6.04556
0
LINE
8
BLACK
6
CONTINUOUS
10
5.56499
20
-6.04556
11
5.56499
21
-6.01931
0
LINE
8
BLACK
6
CONTINUOUS
10
5.56499
20
-6.02306
11
5.56686
21
-6.02119
0
LINE
8
BLACK
6
CONTINUOUS
10
5.56686
20
-6.02119
11
5.57061
21
-6.01931
0
LINE
8
BLACK
6
CONTINUOUS
10
5.57061
20
-6.01931
11
5.57624
21
-6.01931
0
LINE
8
BLACK
6
CONTINUOUS
10
5.57624
20
-6.01931
11
5.57999
21
-6.02119
0
LINE
8
BLACK
6
CONTINUOUS
10
5.57999
20
-6.02119
11
5.58186
21
-6.02494
0
LINE
8
BLACK
6
CONTINUOUS
10
5.58186
20
-6.02494
11
5.58186
21
-6.04556
0
LINE
8
BLACK
6
CONTINUOUS
10
5.58186
20
-6.02494
11
5.58374
21
-6.02119
0
LINE
8
BLACK
6
CONTINUOUS
10
5.58374
20
-6.02119
11
5.58749
21
-6.01931
0
LINE
8
BLACK
6
CONTINUOUS
10
5.58749
20
-6.01931
11
5.59311
21
-6.01931
0
LINE
8
BLACK
6
CONTINUOUS
10
5.59311
20
-6.01931
11
5.59686
21
-6.02119
0
LINE
8
BLACK
6
CONTINUOUS
10
5.59686
20
-6.02119
11
5.59873
21
-6.02494
0
LINE
8
BLACK
6
CONTINUOUS
10
5.59873
20
-6.02494
11
5.59873
21
-6.04556
0
LINE
8
BLACK
6
CONTINUOUS
10
4.875
20
-5.97657
11
6.00001
21
-5.97657
0
LINE
8
BLACK
6
CONTINUOUS
10
4.875
20
-5.88282
11
4.875
21
-5.99965
0
LINE
8
BLACK
6
CONTINUOUS
10
6.00001
20
-5.88282
11
6.00001
21
-5.99965
0
LINE
8
BLACK
6
CONTINUOUS
10
6.00001
20
-5.97657
11
5.95565
21
-5.99965
0
LINE
8
BLACK
6
CONTINUOUS
10
6.00001
20
-5.97657
11
5.95565
21
-5.95348
0
LINE
8
BLACK
6
CONTINUOUS
10
4.875
20
-5.97657
11
4.91935
21
-5.99965
0
LINE
8
BLACK
6
CONTINUOUS
10
4.875
20
-5.97657
11
4.91935
21
-5.95348
0
LINE
8
BLACK
6
CONTINUOUS
10
5.85752
20
-6.12338
11
5.83878
21
-6.12338
0
LINE
8
BLACK
6
CONTINUOUS
10
5.83878
20
-6.12338
11
5.8369
21
-6.14212
0
LINE
8
BLACK
6
CONTINUOUS
10
5.8369
20
-6.14212
11
5.83878
21
-6.14025
0
LINE
8
BLACK
6
CONTINUOUS
10
5.83878
20
-6.14025
11
5.84252
21
-6.13837
0
LINE
8
BLACK
6
CONTINUOUS
10
5.84252
20
-6.13837
11
5.8519
21
-6.13837
0
LINE
8
BLACK
6
CONTINUOUS
10
5.8519
20
-6.13837
11
5.85565
21
-6.14025
0
LINE
8
BLACK
6
CONTINUOUS
10
5.85565
20
-6.14025
11
5.85752
21
-6.14212
0
LINE
8
BLACK
6
CONTINUOUS
10
5.85752
20
-6.14212
11
5.8594
21
-6.14587
0
LINE
8
BLACK
6
CONTINUOUS
10
5.8594
20
-6.14587
11
5.8594
21
-6.15525
0
LINE
8
BLACK
6
CONTINUOUS
10
5.8594
20
-6.15525
11
5.85752
21
-6.159
0
LINE
8
BLACK
6
CONTINUOUS
10
5.85752
20
-6.159
11
5.85565
21
-6.16087
0
LINE
8
BLACK
6
CONTINUOUS
10
5.85565
20
-6.16087
11
5.8519
21
-6.16275
0
LINE
8
BLACK
6
CONTINUOUS
10
5.8519
20
-6.16275
11
5.84252
21
-6.16275
0
LINE
8
BLACK
6
CONTINUOUS
10
5.84252
20
-6.16275
11
5.83878
21
-6.16087
0
LINE
8
BLACK
6
CONTINUOUS
10
5.83878
20
-6.16087
11
5.8369
21
-6.159
0
LINE
8
BLACK
6
CONTINUOUS
10
5.87252
20
-6.12338
11
5.89877
21
-6.12338
0
LINE
8
BLACK
6
CONTINUOUS
10
5.89877
20
-6.12338
11
5.88189
21
-6.16275
0
LINE
8
BLACK
6
CONTINUOUS
10
5.91377
20
-6.159
11
5.91564
21
-6.16087
0
LINE
8
BLACK
6
CONTINUOUS
10
5.91564
20
-6.16087
11
5.91377
21
-6.16275
0
LINE
8
BLACK
6
CONTINUOUS
10
5.91377
20
-6.16275
11
5.91189
21
-6.16087
0
LINE
8
BLACK
6
CONTINUOUS
10
5.91189
20
-6.16087
11
5.91377
21
-6.159
0
LINE
8
BLACK
6
CONTINUOUS
10
5.91377
20
-6.159
11
5.91377
21
-6.16275
0
LINE
8
BLACK
6
CONTINUOUS
10
5.95314
20
-6.16275
11
5.93064
21
-6.16275
0
LINE
8
BLACK
6
CONTINUOUS
10
5.94189
20
-6.16275
11
5.94189
21
-6.12338
0
LINE
8
BLACK
6
CONTINUOUS
10
5.94189
20
-6.12338
11
5.93814
21
-6.129
0
LINE
8
BLACK
6
CONTINUOUS
10
5.93814
20
-6.129
11
5.93439
21
-6.13275
0
LINE
8
BLACK
6
CONTINUOUS
10
5.93439
20
-6.13275
11
5.93064
21
-6.13462
0
LINE
8
BLACK
6
CONTINUOUS
10
5.98876
20
-6.12338
11
5.97001
21
-6.12338
0
LINE
8
BLACK
6
CONTINUOUS
10
5.97001
20
-6.12338
11
5.96813
21
-6.14212
0
LINE
8
BLACK
6
CONTINUOUS
10
5.96813
20
-6.14212
11
5.97001
21
-6.14025
0
LINE
8
BLACK
6
CONTINUOUS
10
5.97001
20
-6.14025
11
5.97376
21
-6.13837
0
LINE
8
BLACK
6
CONTINUOUS
10
5.97376
20
-6.13837
11
5.98313
21
-6.13837
0
LINE
8
BLACK
6
CONTINUOUS
10
5.98313
20
-6.13837
11
5.98688
21
-6.14025
0
LINE
8
BLACK
6
CONTINUOUS
10
5.98688
20
-6.14025
11
5.98876
21
-6.14212
0
LINE
8
BLACK
6
CONTINUOUS
10
5.98876
20
-6.14212
11
5.99063
21
-6.14587
0
LINE
8
BLACK
6
CONTINUOUS
10
5.99063
20
-6.14587
11
5.99063
21
-6.15525
0
LINE
8
BLACK
6
CONTINUOUS
10
5.99063
20
-6.15525
11
5.98876
21
-6.159
0
LINE
8
BLACK
6
CONTINUOUS
10
5.98876
20
-6.159
11
5.98688
21
-6.16087
0
LINE
8
BLACK
6
CONTINUOUS
10
5.98688
20
-6.16087
11
5.98313
21
-6.16275
0
LINE
8
BLACK
6
CONTINUOUS
10
5.98313
20
-6.16275
11
5.97376
21
-6.16275
0
LINE
8
BLACK
6
CONTINUOUS
10
5.97376
20
-6.16275
11
5.97001
21
-6.16087
0
LINE
8
BLACK
6
CONTINUOUS
10
5.97001
20
-6.16087
11
5.96813
21
-6.159
0
LINE
8
BLACK
6
CONTINUOUS
10
6.015
20
-6.12338
11
6.01875
21
-6.12338
0
LINE
8
BLACK
6
CONTINUOUS
10
6.01875
20
-6.12338
11
6.0225
21
-6.12525
0
LINE
8
BLACK
6
CONTINUOUS
10
6.0225
20
-6.12525
11
6.02438
21
-6.12713
0
LINE
8
BLACK
6
CONTINUOUS
10
6.02438
20
-6.12713
11
6.02625
21
-6.13088
0
LINE
8
BLACK
6
CONTINUOUS
10
6.02625
20
-6.13088
11
6.02813
21
-6.13837
0
LINE
8
BLACK
6
CONTINUOUS
10
6.02813
20
-6.13837
11
6.02813
21
-6.14775
0
LINE
8
BLACK
6
CONTINUOUS
10
6.02813
20
-6.14775
11
6.02625
21
-6.15525
0
LINE
8
BLACK
6
CONTINUOUS
10
6.02625
20
-6.15525
11
6.02438
21
-6.159
0
LINE
8
BLACK
6
CONTINUOUS
10
6.02438
20
-6.159
11
6.0225
21
-6.16087
0
LINE
8
BLACK
6
CONTINUOUS
10
6.0225
20
-6.16087
11
6.01875
21
-6.16275
0
LINE
8
BLACK
6
CONTINUOUS
10
6.01875
20
-6.16275
11
6.015
21
-6.16275
0
LINE
8
BLACK
6
CONTINUOUS
10
6.015
20
-6.16275
11
6.01125
21
-6.16087
0
LINE
8
BLACK
6
CONTINUOUS
10
6.01125
20
-6.16087
11
6.00938
21
-6.159
0
LINE
8
BLACK
6
CONTINUOUS
10
6.00938
20
-6.159
11
6.0075
21
-6.15525
0
LINE
8
BLACK
6
CONTINUOUS
10
6.0075
20
-6.15525
11
6.00563
21
-6.14775
0
LINE
8
BLACK
6
CONTINUOUS
10
6.00563
20
-6.14775
11
6.00563
21
-6.13837
0
LINE
8
BLACK
6
CONTINUOUS
10
6.00563
20
-6.13837
11
6.0075
21
-6.13088
0
LINE
8
BLACK
6
CONTINUOUS
10
6.0075
20
-6.13088
11
6.00938
21
-6.12713
0
LINE
8
BLACK
6
CONTINUOUS
10
6.00938
20
-6.12713
11
6.01125
21
-6.12525
0
LINE
8
BLACK
6
CONTINUOUS
10
6.01125
20
-6.12525
11
6.015
21
-6.12338
0
LINE
8
BLACK
6
CONTINUOUS
10
6.075
20
-6.16275
11
6.075
21
-6.1365
0
LINE
8
BLACK
6
CONTINUOUS
10
6.075
20
-6.14025
11
6.07687
21
-6.13837
0
LINE
8
BLACK
6
CONTINUOUS
10
6.07687
20
-6.13837
11
6.08062
21
-6.1365
0
LINE
8
BLACK
6
CONTINUOUS
10
6.08062
20
-6.1365
11
6.08624
21
-6.1365
0
LINE
8
BLACK
6
CONTINUOUS
10
6.08624
20
-6.1365
11
6.08999
21
-6.13837
0
LINE
8
BLACK
6
CONTINUOUS
10
6.08999
20
-6.13837
11
6.09187
21
-6.14212
0
LINE
8
BLACK
6
CONTINUOUS
10
6.09187
20
-6.14212
11
6.09187
21
-6.16275
0
LINE
8
BLACK
6
CONTINUOUS
10
6.09187
20
-6.14212
11
6.09374
21
-6.13837
0
LINE
8
BLACK
6
CONTINUOUS
10
6.09374
20
-6.13837
11
6.09749
21
-6.1365
0
LINE
8
BLACK
6
CONTINUOUS
10
6.09749
20
-6.1365
11
6.10312
21
-6.1365
0
LINE
8
BLACK
6
CONTINUOUS
10
6.10312
20
-6.1365
11
6.10687
21
-6.13837
0
LINE
8
BLACK
6
CONTINUOUS
10
6.10687
20
-6.13837
11
6.10874
21
-6.14212
0
LINE
8
BLACK
6
CONTINUOUS
10
6.10874
20
-6.14212
11
6.10874
21
-6.16275
0
LINE
8
BLACK
6
CONTINUOUS
10
6.12749
20
-6.16275
11
6.12749
21
-6.1365
0
LINE
8
BLACK
6
CONTINUOUS
10
6.12749
20
-6.14025
11
6.12936
21
-6.13837
0
LINE
8
BLACK
6
CONTINUOUS
10
6.12936
20
-6.13837
11
6.13311
21
-6.1365
0
LINE
8
BLACK
6
CONTINUOUS
10
6.13311
20
-6.1365
11
6.13874
21
-6.1365
0
LINE
8
BLACK
6
CONTINUOUS
10
6.13874
20
-6.1365
11
6.14249
21
-6.13837
0
LINE
8
BLACK
6
CONTINUOUS
10
6.14249
20
-6.13837
11
6.14436
21
-6.14212
0
LINE
8
BLACK
6
CONTINUOUS
10
6.14436
20
-6.14212
11
6.14436
21
-6.16275
0
LINE
8
BLACK
6
CONTINUOUS
10
6.14436
20
-6.14212
11
6.14624
21
-6.13837
0
LINE
8
BLACK
6
CONTINUOUS
10
6.14624
20
-6.13837
11
6.14999
21
-6.1365
0
LINE
8
BLACK
6
CONTINUOUS
10
6.14999
20
-6.1365
11
6.15561
21
-6.1365
0
LINE
8
BLACK
6
CONTINUOUS
10
6.15561
20
-6.1365
11
6.15936
21
-6.13837
0
LINE
8
BLACK
6
CONTINUOUS
10
6.15936
20
-6.13837
11
6.16123
21
-6.14212
0
LINE
8
BLACK
6
CONTINUOUS
10
6.16123
20
-6.14212
11
6.16123
21
-6.16275
0
LINE
8
BLACK
6
CONTINUOUS
10
4.875
20
-6.09376
11
7.12501
21
-6.09376
0
LINE
8
BLACK
6
CONTINUOUS
10
4.875
20
-5.88282
11
4.875
21
-6.11684
0
LINE
8
BLACK
6
CONTINUOUS
10
7.12501
20
-5.88282
11
7.12501
21
-6.11684
0
LINE
8
BLACK
6
CONTINUOUS
10
7.12501
20
-6.09376
11
7.08066
21
-6.11684
0
LINE
8
BLACK
6
CONTINUOUS
10
7.12501
20
-6.09376
11
7.08066
21
-6.07067
0
LINE
8
BLACK
6
CONTINUOUS
10
4.875
20
-6.09376
11
4.91935
21
-6.11684
0
LINE
8
BLACK
6
CONTINUOUS
10
4.875
20
-6.09376
11
4.91935
21
-6.07067
0
LINE
8
BLACK
6
CONTINUOUS
10
-0.303367
20
-3.86625
11
-0.303367
21
-3.87375
0
LINE
8
BLACK
6
CONTINUOUS
10
-0.303367
20
-3.87375
11
-0.301492
21
-3.8775
0
LINE
8
BLACK
6
CONTINUOUS
10
-0.301492
20
-3.8775
11
-0.299617
21
-3.87938
0
LINE
8
BLACK
6
CONTINUOUS
10
-0.299617
20
-3.87938
11
-0.293993
21
-3.88312
0
LINE
8
BLACK
6
CONTINUOUS
10
-0.293993
20
-3.88312
11
-0.286494
21
-3.885
0
LINE
8
BLACK
6
CONTINUOUS
10
-0.286494
20
-3.885
11
-0.271496
21
-3.885
0
LINE
8
BLACK
6
CONTINUOUS
10
-0.271496
20
-3.885
11
-0.267746
21
-3.88312
0
LINE
8
BLACK
6
CONTINUOUS
10
-0.267746
20
-3.88312
11
-0.265871
21
-3.88125
0
LINE
8
BLACK
6
CONTINUOUS
10
-0.265871
20
-3.88125
11
-0.263996
21
-3.8775
0
LINE
8
BLACK
6
CONTINUOUS
10
-0.263996
20
-3.8775
11
-0.263996
21
-3.87
0
LINE
8
BLACK
6
CONTINUOUS
10
-0.263996
20
-3.87
11
-0.265871
21
-3.86625
0
LINE
8
BLACK
6
CONTINUOUS
10
-0.265871
20
-3.86625
11
-0.267746
21
-3.86438
0
LINE
8
BLACK
6
CONTINUOUS
10
-0.267746
20
-3.86438
11
-0.271496
21
-3.8625
0
LINE
8
BLACK
6
CONTINUOUS
10
-0.271496
20
-3.8625
11
-0.280869
21
-3.8625
0
LINE
8
BLACK
6
CONTINUOUS
10
-0.280869
20
-3.8625
11
-0.284619
21
-3.86438
0
LINE
8
BLACK
6
CONTINUOUS
10
-0.284619
20
-3.86438
11
-0.286494
21
-3.86625
0
LINE
8
BLACK
6
CONTINUOUS
10
-0.286494
20
-3.86625
11
-0.288368
21
-3.87
0
LINE
8
BLACK
6
CONTINUOUS
10
-0.288368
20
-3.87
11
-0.288368
21
-3.8775
0
LINE
8
BLACK
6
CONTINUOUS
10
-0.288368
20
-3.8775
11
-0.286494
21
-3.88125
0
LINE
8
BLACK
6
CONTINUOUS
10
-0.286494
20
-3.88125
11
-0.284619
21
-3.88312
0
LINE
8
BLACK
6
CONTINUOUS
10
-0.284619
20
-3.88312
11
-0.280869
21
-3.885
0
LINE
8
BLACK
6
CONTINUOUS
10
-0.27712
20
-3.91875
11
-0.303367
21
-3.91875
0
LINE
8
BLACK
6
CONTINUOUS
10
-0.262122
20
-3.90937
11
-0.290243
21
-3.9
0
LINE
8
BLACK
6
CONTINUOUS
10
-0.290243
20
-3.9
11
-0.290243
21
-3.92437
0
LINE
8
BLACK
6
CONTINUOUS
10
-0.299617
20
-3.93937
11
-0.301492
21
-3.94124
0
LINE
8
BLACK
6
CONTINUOUS
10
-0.301492
20
-3.94124
11
-0.303367
21
-3.93937
0
LINE
8
BLACK
6
CONTINUOUS
10
-0.303367
20
-3.93937
11
-0.301492
21
-3.93749
0
LINE
8
BLACK
6
CONTINUOUS
10
-0.301492
20
-3.93749
11
-0.299617
21
-3.93937
0
LINE
8
BLACK
6
CONTINUOUS
10
-0.299617
20
-3.93937
11
-0.303367
21
-3.93937
0
LINE
8
BLACK
6
CONTINUOUS
10
-0.303367
20
-3.95999
11
-0.303367
21
-3.96749
0
LINE
8
BLACK
6
CONTINUOUS
10
-0.303367
20
-3.96749
11
-0.301492
21
-3.97124
0
LINE
8
BLACK
6
CONTINUOUS
10
-0.301492
20
-3.97124
11
-0.299617
21
-3.97311
0
LINE
8
BLACK
6
CONTINUOUS
10
-0.299617
20
-3.97311
11
-0.293993
21
-3.97686
0
LINE
8
BLACK
6
CONTINUOUS
10
-0.293993
20
-3.97686
11
-0.286494
21
-3.97874
0
LINE
8
BLACK
6
CONTINUOUS
10
-0.286494
20
-3.97874
11
-0.271496
21
-3.97874
0
LINE
8
BLACK
6
CONTINUOUS
10
-0.271496
20
-3.97874
11
-0.267746
21
-3.97686
0
LINE
8
BLACK
6
CONTINUOUS
10
-0.267746
20
-3.97686
11
-0.265871
21
-3.97499
0
LINE
8
BLACK
6
CONTINUOUS
10
-0.265871
20
-3.97499
11
-0.263996
21
-3.97124
0
LINE
8
BLACK
6
CONTINUOUS
10
-0.263996
20
-3.97124
11
-0.263996
21
-3.96374
0
LINE
8
BLACK
6
CONTINUOUS
10
-0.263996
20
-3.96374
11
-0.265871
21
-3.95999
0
LINE
8
BLACK
6
CONTINUOUS
10
-0.265871
20
-3.95999
11
-0.267746
21
-3.95812
0
LINE
8
BLACK
6
CONTINUOUS
10
-0.267746
20
-3.95812
11
-0.271496
21
-3.95624
0
LINE
8
BLACK
6
CONTINUOUS
10
-0.271496
20
-3.95624
11
-0.280869
21
-3.95624
0
LINE
8
BLACK
6
CONTINUOUS
10
-0.280869
20
-3.95624
11
-0.284619
21
-3.95812
0
LINE
8
BLACK
6
CONTINUOUS
10
-0.284619
20
-3.95812
11
-0.286494
21
-3.95999
0
LINE
8
BLACK
6
CONTINUOUS
10
-0.286494
20
-3.95999
11
-0.288368
21
-3.96374
0
LINE
8
BLACK
6
CONTINUOUS
10
-0.288368
20
-3.96374
11
-0.288368
21
-3.97124
0
LINE
8
BLACK
6
CONTINUOUS
10
-0.288368
20
-3.97124
11
-0.286494
21
-3.97499
0
LINE
8
BLACK
6
CONTINUOUS
10
-0.286494
20
-3.97499
11
-0.284619
21
-3.97686
0
LINE
8
BLACK
6
CONTINUOUS
10
-0.284619
20
-3.97686
11
-0.280869
21
-3.97874
0
LINE
8
BLACK
6
CONTINUOUS
10
-0.267746
20
-3.99374
11
-0.265871
21
-3.99561
0
LINE
8
BLACK
6
CONTINUOUS
10
-0.265871
20
-3.99561
11
-0.263996
21
-3.99936
0
LINE
8
BLACK
6
CONTINUOUS
10
-0.263996
20
-3.99936
11
-0.263996
21
-4.00873
0
LINE
8
BLACK
6
CONTINUOUS
10
-0.263996
20
-4.00873
11
-0.265871
21
-4.01248
0
LINE
8
BLACK
6
CONTINUOUS
10
-0.265871
20
-4.01248
11
-0.267746
21
-4.01436
0
LINE
8
BLACK
6
CONTINUOUS
10
-0.267746
20
-4.01436
11
-0.271496
21
-4.01623
0
LINE
8
BLACK
6
CONTINUOUS
10
-0.271496
20
-4.01623
11
-0.275245
21
-4.01623
0
LINE
8
BLACK
6
CONTINUOUS
10
-0.275245
20
-4.01623
11
-0.280869
21
-4.01436
0
LINE
8
BLACK
6
CONTINUOUS
10
-0.280869
20
-4.01436
11
-0.303367
21
-3.99186
0
LINE
8
BLACK
6
CONTINUOUS
10
-0.303367
20
-3.99186
11
-0.303367
21
-4.01623
0
LINE
8
BLACK
6
CONTINUOUS
10
-0.263996
20
-4.02936
11
-0.263996
21
-4.0556
0
LINE
8
BLACK
6
CONTINUOUS
10
-0.263996
20
-4.0556
11
-0.303367
21
-4.03873
0
LINE
8
BLACK
6
CONTINUOUS
10
-0.303367
20
-4.1006
11
-0.27712
21
-4.1006
0
LINE
8
BLACK
6
CONTINUOUS
10
-0.280869
20
-4.1006
11
-0.278995
21
-4.10247
0
LINE
8
BLACK
6
CONTINUOUS
10
-0.278995
20
-4.10247
11
-0.27712
21
-4.10622
0
LINE
8
BLACK
6
CONTINUOUS
10
-0.27712
20
-4.10622
11
-0.27712
21
-4.11185
0
LINE
8
BLACK
6
CONTINUOUS
10
-0.27712
20
-4.11185
11
-0.278995
21
-4.1156
0
LINE
8
BLACK
6
CONTINUOUS
10
-0.278995
20
-4.1156
11
-0.282744
21
-4.11747
0
LINE
8
BLACK
6
CONTINUOUS
10
-0.282744
20
-4.11747
11
-0.303367
21
-4.11747
0
LINE
8
BLACK
6
CONTINUOUS
10
-0.282744
20
-4.11747
11
-0.278995
21
-4.11935
0
LINE
8
BLACK
6
CONTINUOUS
10
-0.278995
20
-4.11935
11
-0.27712
21
-4.12309
0
LINE
8
BLACK
6
CONTINUOUS
10
-0.27712
20
-4.12309
11
-0.27712
21
-4.12872
0
LINE
8
BLACK
6
CONTINUOUS
10
-0.27712
20
-4.12872
11
-0.278995
21
-4.13247
0
LINE
8
BLACK
6
CONTINUOUS
10
-0.278995
20
-4.13247
11
-0.282744
21
-4.13434
0
LINE
8
BLACK
6
CONTINUOUS
10
-0.282744
20
-4.13434
11
-0.303367
21
-4.13434
0
LINE
8
BLACK
6
CONTINUOUS
10
-0.303367
20
-4.15309
11
-0.27712
21
-4.15309
0
LINE
8
BLACK
6
CONTINUOUS
10
-0.280869
20
-4.15309
11
-0.278995
21
-4.15497
0
LINE
8
BLACK
6
CONTINUOUS
10
-0.278995
20
-4.15497
11
-0.27712
21
-4.15872
0
LINE
8
BLACK
6
CONTINUOUS
10
-0.27712
20
-4.15872
11
-0.27712
21
-4.16434
0
LINE
8
BLACK
6
CONTINUOUS
10
-0.27712
20
-4.16434
11
-0.278995
21
-4.16809
0
LINE
8
BLACK
6
CONTINUOUS
10
-0.278995
20
-4.16809
11
-0.282744
21
-4.16996
0
LINE
8
BLACK
6
CONTINUOUS
10
-0.282744
20
-4.16996
11
-0.303367
21
-4.16996
0
LINE
8
BLACK
6
CONTINUOUS
10
-0.282744
20
-4.16996
11
-0.278995
21
-4.17184
0
LINE
8
BLACK
6
CONTINUOUS
10
-0.278995
20
-4.17184
11
-0.27712
21
-4.17559
0
LINE
8
BLACK
6
CONTINUOUS
10
-0.27712
20
-4.17559
11
-0.27712
21
-4.18121
0
LINE
8
BLACK
6
CONTINUOUS
10
-0.27712
20
-4.18121
11
-0.278995
21
-4.18496
0
LINE
8
BLACK
6
CONTINUOUS
10
-0.278995
20
-4.18496
11
-0.282744
21
-4.18684
0
LINE
8
BLACK
6
CONTINUOUS
10
-0.282744
20
-4.18684
11
-0.303367
21
-4.18684
0
LINE
8
BLACK
6
CONTINUOUS
10
-0.234375
20
-2.15696
11
-0.234375
21
-5.89426
0
LINE
8
BLACK
6
CONTINUOUS
10
0.38801
20
-2.15696
11
-0.257463
21
-2.15696
0
LINE
8
BLACK
6
CONTINUOUS
10
0.38801
20
-5.89426
11
-0.257463
21
-5.89426
0
LINE
8
BLACK
6
CONTINUOUS
10
-0.234375
20
-5.89426
11
-0.257463
21
-5.84991
0
LINE
8
BLACK
6
CONTINUOUS
10
-0.234375
20
-5.89426
11
-0.211288
21
-5.84991
0
LINE
8
BLACK
6
CONTINUOUS
10
-0.234375
20
-2.15696
11
-0.257463
21
-2.20131
0
LINE
8
BLACK
6
CONTINUOUS
10
-0.234375
20
-2.15696
11
-0.211288
21
-2.20131
0
LINE
8
BLACK
6
CONTINUOUS
10
0.96676
20
-1.35752
11
0.991132
21
-1.35752
0
LINE
8
BLACK
6
CONTINUOUS
10
0.991132
20
-1.35752
11
0.978009
21
-1.37252
0
LINE
8
BLACK
6
CONTINUOUS
10
0.978009
20
-1.37252
11
0.983633
21
-1.37252
0
LINE
8
BLACK
6
CONTINUOUS
10
0.983633
20
-1.37252
11
0.987382
21
-1.3744
0
LINE
8
BLACK
6
CONTINUOUS
10
0.987382
20
-1.3744
11
0.989257
21
-1.37627
0
LINE
8
BLACK
6
CONTINUOUS
10
0.989257
20
-1.37627
11
0.991132
21
-1.38002
0
LINE
8
BLACK
6
CONTINUOUS
10
0.991132
20
-1.38002
11
0.991132
21
-1.38939
0
LINE
8
BLACK
6
CONTINUOUS
10
0.991132
20
-1.38939
11
0.989257
21
-1.39314
0
LINE
8
BLACK
6
CONTINUOUS
10
0.989257
20
-1.39314
11
0.987382
21
-1.39502
0
LINE
8
BLACK
6
CONTINUOUS
10
0.987382
20
-1.39502
11
0.983633
21
-1.39689
0
LINE
8
BLACK
6
CONTINUOUS
10
0.983633
20
-1.39689
11
0.972384
21
-1.39689
0
LINE
8
BLACK
6
CONTINUOUS
10
0.972384
20
-1.39689
11
0.968635
21
-1.39502
0
LINE
8
BLACK
6
CONTINUOUS
10
0.968635
20
-1.39502
11
0.96676
21
-1.39314
0
LINE
8
BLACK
6
CONTINUOUS
10
1.00426
20
-1.35752
11
1.0305
21
-1.35752
0
LINE
8
BLACK
6
CONTINUOUS
10
1.0305
20
-1.35752
11
1.01363
21
-1.39689
0
LINE
8
BLACK
6
CONTINUOUS
10
1.0455
20
-1.39314
11
1.04737
21
-1.39502
0
LINE
8
BLACK
6
CONTINUOUS
10
1.04737
20
-1.39502
11
1.0455
21
-1.39689
0
LINE
8
BLACK
6
CONTINUOUS
10
1.0455
20
-1.39689
11
1.04363
21
-1.39502
0
LINE
8
BLACK
6
CONTINUOUS
10
1.04363
20
-1.39502
11
1.0455
21
-1.39314
0
LINE
8
BLACK
6
CONTINUOUS
10
1.0455
20
-1.39314
11
1.0455
21
-1.39689
0
LINE
8
BLACK
6
CONTINUOUS
10
1.0605
20
-1.35752
11
1.08674
21
-1.35752
0
LINE
8
BLACK
6
CONTINUOUS
10
1.08674
20
-1.35752
11
1.06987
21
-1.39689
0
LINE
8
BLACK
6
CONTINUOUS
10
1.09987
20
-1.36127
11
1.10174
21
-1.3594
0
LINE
8
BLACK
6
CONTINUOUS
10
1.10174
20
-1.3594
11
1.10549
21
-1.35752
0
LINE
8
BLACK
6
CONTINUOUS
10
1.10549
20
-1.35752
11
1.11487
21
-1.35752
0
LINE
8
BLACK
6
CONTINUOUS
10
1.11487
20
-1.35752
11
1.11862
21
-1.3594
0
LINE
8
BLACK
6
CONTINUOUS
10
1.11862
20
-1.3594
11
1.12049
21
-1.36127
0
LINE
8
BLACK
6
CONTINUOUS
10
1.12049
20
-1.36127
11
1.12237
21
-1.36502
0
LINE
8
BLACK
6
CONTINUOUS
10
1.12237
20
-1.36502
11
1.12237
21
-1.36877
0
LINE
8
BLACK
6
CONTINUOUS
10
1.12237
20
-1.36877
11
1.12049
21
-1.3744
0
LINE
8
BLACK
6
CONTINUOUS
10
1.12049
20
-1.3744
11
1.09799
21
-1.39689
0
LINE
8
BLACK
6
CONTINUOUS
10
1.09799
20
-1.39689
11
1.12237
21
-1.39689
0
LINE
8
BLACK
6
CONTINUOUS
10
1.15799
20
-1.35752
11
1.13924
21
-1.35752
0
LINE
8
BLACK
6
CONTINUOUS
10
1.13924
20
-1.35752
11
1.13736
21
-1.37627
0
LINE
8
BLACK
6
CONTINUOUS
10
1.13736
20
-1.37627
11
1.13924
21
-1.3744
0
LINE
8
BLACK
6
CONTINUOUS
10
1.13924
20
-1.3744
11
1.14299
21
-1.37252
0
LINE
8
BLACK
6
CONTINUOUS
10
1.14299
20
-1.37252
11
1.15236
21
-1.37252
0
LINE
8
BLACK
6
CONTINUOUS
10
1.15236
20
-1.37252
11
1.15611
21
-1.3744
0
LINE
8
BLACK
6
CONTINUOUS
10
1.15611
20
-1.3744
11
1.15799
21
-1.37627
0
LINE
8
BLACK
6
CONTINUOUS
10
1.15799
20
-1.37627
11
1.15986
21
-1.38002
0
LINE
8
BLACK
6
CONTINUOUS
10
1.15986
20
-1.38002
11
1.15986
21
-1.38939
0
LINE
8
BLACK
6
CONTINUOUS
10
1.15986
20
-1.38939
11
1.15799
21
-1.39314
0
LINE
8
BLACK
6
CONTINUOUS
10
1.15799
20
-1.39314
11
1.15611
21
-1.39502
0
LINE
8
BLACK
6
CONTINUOUS
10
1.15611
20
-1.39502
11
1.15236
21
-1.39689
0
LINE
8
BLACK
6
CONTINUOUS
10
1.15236
20
-1.39689
11
1.14299
21
-1.39689
0
LINE
8
BLACK
6
CONTINUOUS
10
1.14299
20
-1.39689
11
1.13924
21
-1.39502
0
LINE
8
BLACK
6
CONTINUOUS
10
1.13924
20
-1.39502
11
1.13736
21
-1.39314
0
LINE
8
BLACK
6
CONTINUOUS
10
1.20673
20
-1.39689
11
1.20673
21
-1.37065
0
LINE
8
BLACK
6
CONTINUOUS
10
1.20673
20
-1.3744
11
1.2086
21
-1.37252
0
LINE
8
BLACK
6
CONTINUOUS
10
1.2086
20
-1.37252
11
1.21235
21
-1.37065
0
LINE
8
BLACK
6
CONTINUOUS
10
1.21235
20
-1.37065
11
1.21798
21
-1.37065
0
LINE
8
BLACK
6
CONTINUOUS
10
1.21798
20
-1.37065
11
1.22173
21
-1.37252
0
LINE
8
BLACK
6
CONTINUOUS
10
1.22173
20
-1.37252
11
1.2236
21
-1.37627
0
LINE
8
BLACK
6
CONTINUOUS
10
1.2236
20
-1.37627
11
1.2236
21
-1.39689
0
LINE
8
BLACK
6
CONTINUOUS
10
1.2236
20
-1.37627
11
1.22548
21
-1.37252
0
LINE
8
BLACK
6
CONTINUOUS
10
1.22548
20
-1.37252
11
1.22923
21
-1.37065
0
LINE
8
BLACK
6
CONTINUOUS
10
1.22923
20
-1.37065
11
1.23485
21
-1.37065
0
LINE
8
BLACK
6
CONTINUOUS
10
1.23485
20
-1.37065
11
1.2386
21
-1.37252
0
LINE
8
BLACK
6
CONTINUOUS
10
1.2386
20
-1.37252
11
1.24048
21
-1.37627
0
LINE
8
BLACK
6
CONTINUOUS
10
1.24048
20
-1.37627
11
1.24048
21
-1.39689
0
LINE
8
BLACK
6
CONTINUOUS
10
1.25922
20
-1.39689
11
1.25922
21
-1.37065
0
LINE
8
BLACK
6
CONTINUOUS
10
1.25922
20
-1.3744
11
1.2611
21
-1.37252
0
LINE
8
BLACK
6
CONTINUOUS
10
1.2611
20
-1.37252
11
1.26485
21
-1.37065
0
LINE
8
BLACK
6
CONTINUOUS
10
1.26485
20
-1.37065
11
1.27047
21
-1.37065
0
LINE
8
BLACK
6
CONTINUOUS
10
1.27047
20
-1.37065
11
1.27422
21
-1.37252
0
LINE
8
BLACK
6
CONTINUOUS
10
1.27422
20
-1.37252
11
1.2761
21
-1.37627
0
LINE
8
BLACK
6
CONTINUOUS
10
1.2761
20
-1.37627
11
1.2761
21
-1.39689
0
LINE
8
BLACK
6
CONTINUOUS
10
1.2761
20
-1.37627
11
1.27797
21
-1.37252
0
LINE
8
BLACK
6
CONTINUOUS
10
1.27797
20
-1.37252
11
1.28172
21
-1.37065
0
LINE
8
BLACK
6
CONTINUOUS
10
1.28172
20
-1.37065
11
1.28734
21
-1.37065
0
LINE
8
BLACK
6
CONTINUOUS
10
1.28734
20
-1.37065
11
1.29109
21
-1.37252
0
LINE
8
BLACK
6
CONTINUOUS
10
1.29109
20
-1.37252
11
1.29297
21
-1.37627
0
LINE
8
BLACK
6
CONTINUOUS
10
1.29297
20
-1.37627
11
1.29297
21
-1.39689
0
LINE
8
BLACK
6
CONTINUOUS
10
0.389163
20
-1.43088
11
1.8744
21
-1.42965
0
LINE
8
BLACK
6
CONTINUOUS
10
0.389764
20
-2.15748
11
0.389144
21
-1.40779
0
LINE
8
BLACK
6
CONTINUOUS
10
1.875
20
-2.15625
11
1.87438
21
-1.40656
0
LINE
8
BLACK
6
CONTINUOUS
10
1.8744
20
-1.42965
11
1.83007
21
-1.45277
0
LINE
8
BLACK
6
CONTINUOUS
10
1.8744
20
-1.42965
11
1.83003
21
-1.4066
0
LINE
8
BLACK
6
CONTINUOUS
10
0.389163
20
-1.43088
11
0.433532
21
-1.45393
0
LINE
8
BLACK
6
CONTINUOUS
10
0.389163
20
-1.43088
11
0.433494
21
-1.40775
0
LINE
8
BLACK
6
CONTINUOUS
10
1.09623
20
-1.68363
11
1.12248
21
-1.68352
0
LINE
8
BLACK
6
CONTINUOUS
10
1.12248
20
-1.68352
11
1.10577
21
-1.72296
0
LINE
8
BLACK
6
CONTINUOUS
10
1.13763
20
-1.71907
11
1.13951
21
-1.72094
0
LINE
8
BLACK
6
CONTINUOUS
10
1.13951
20
-1.72094
11
1.13764
21
-1.72282
0
LINE
8
BLACK
6
CONTINUOUS
10
1.13764
20
-1.72282
11
1.13576
21
-1.72096
0
LINE
8
BLACK
6
CONTINUOUS
10
1.13576
20
-1.72096
11
1.13763
21
-1.71907
0
LINE
8
BLACK
6
CONTINUOUS
10
1.13763
20
-1.71907
11
1.13764
21
-1.72282
0
LINE
8
BLACK
6
CONTINUOUS
10
1.16372
20
-1.68334
11
1.16747
21
-1.68332
0
LINE
8
BLACK
6
CONTINUOUS
10
1.16747
20
-1.68332
11
1.17123
21
-1.68518
0
LINE
8
BLACK
6
CONTINUOUS
10
1.17123
20
-1.68518
11
1.17311
21
-1.68705
0
LINE
8
BLACK
6
CONTINUOUS
10
1.17311
20
-1.68705
11
1.175
21
-1.69079
0
LINE
8
BLACK
6
CONTINUOUS
10
1.175
20
-1.69079
11
1.17691
21
-1.69828
0
LINE
8
BLACK
6
CONTINUOUS
10
1.17691
20
-1.69828
11
1.17695
21
-1.70766
0
LINE
8
BLACK
6
CONTINUOUS
10
1.17695
20
-1.70766
11
1.17511
21
-1.71516
0
LINE
8
BLACK
6
CONTINUOUS
10
1.17511
20
-1.71516
11
1.17325
21
-1.71892
0
LINE
8
BLACK
6
CONTINUOUS
10
1.17325
20
-1.71892
11
1.17138
21
-1.7208
0
LINE
8
BLACK
6
CONTINUOUS
10
1.17138
20
-1.7208
11
1.16764
21
-1.72269
0
LINE
8
BLACK
6
CONTINUOUS
10
1.16764
20
-1.72269
11
1.16389
21
-1.72271
0
LINE
8
BLACK
6
CONTINUOUS
10
1.16389
20
-1.72271
11
1.16013
21
-1.72085
0
LINE
8
BLACK
6
CONTINUOUS
10
1.16013
20
-1.72085
11
1.15825
21
-1.71898
0
LINE
8
BLACK
6
CONTINUOUS
10
1.15825
20
-1.71898
11
1.15636
21
-1.71524
0
LINE
8
BLACK
6
CONTINUOUS
10
1.15636
20
-1.71524
11
1.15445
21
-1.70775
0
LINE
8
BLACK
6
CONTINUOUS
10
1.15445
20
-1.70775
11
1.15441
21
-1.69838
0
LINE
8
BLACK
6
CONTINUOUS
10
1.15441
20
-1.69838
11
1.15625
21
-1.69087
0
LINE
8
BLACK
6
CONTINUOUS
10
1.15625
20
-1.69087
11
1.15811
21
-1.68711
0
LINE
8
BLACK
6
CONTINUOUS
10
1.15811
20
-1.68711
11
1.15998
21
-1.68523
0
LINE
8
BLACK
6
CONTINUOUS
10
1.15998
20
-1.68523
11
1.16372
21
-1.68334
0
LINE
8
BLACK
6
CONTINUOUS
10
1.20122
20
-1.68318
11
1.20497
21
-1.68316
0
LINE
8
BLACK
6
CONTINUOUS
10
1.20497
20
-1.68316
11
1.20872
21
-1.68502
0
LINE
8
BLACK
6
CONTINUOUS
10
1.20872
20
-1.68502
11
1.21061
21
-1.68689
0
LINE
8
BLACK
6
CONTINUOUS
10
1.21061
20
-1.68689
11
1.2125
21
-1.69063
0
LINE
8
BLACK
6
CONTINUOUS
10
1.2125
20
-1.69063
11
1.2144
21
-1.69812
0
LINE
8
BLACK
6
CONTINUOUS
10
1.2144
20
-1.69812
11
1.21444
21
-1.7075
0
LINE
8
BLACK
6
CONTINUOUS
10
1.21444
20
-1.7075
11
1.2126
21
-1.715
0
LINE
8
BLACK
6
CONTINUOUS
10
1.2126
20
-1.715
11
1.21074
21
-1.71876
0
LINE
8
BLACK
6
CONTINUOUS
10
1.21074
20
-1.71876
11
1.20888
21
-1.72064
0
LINE
8
BLACK
6
CONTINUOUS
10
1.20888
20
-1.72064
11
1.20513
21
-1.72253
0
LINE
8
BLACK
6
CONTINUOUS
10
1.20513
20
-1.72253
11
1.20138
21
-1.72255
0
LINE
8
BLACK
6
CONTINUOUS
10
1.20138
20
-1.72255
11
1.19763
21
-1.72069
0
LINE
8
BLACK
6
CONTINUOUS
10
1.19763
20
-1.72069
11
1.19574
21
-1.71882
0
LINE
8
BLACK
6
CONTINUOUS
10
1.19574
20
-1.71882
11
1.19385
21
-1.71508
0
LINE
8
BLACK
6
CONTINUOUS
10
1.19385
20
-1.71508
11
1.19195
21
-1.70759
0
LINE
8
BLACK
6
CONTINUOUS
10
1.19195
20
-1.70759
11
1.19191
21
-1.69822
0
LINE
8
BLACK
6
CONTINUOUS
10
1.19191
20
-1.69822
11
1.19375
21
-1.69071
0
LINE
8
BLACK
6
CONTINUOUS
10
1.19375
20
-1.69071
11
1.19561
21
-1.68695
0
LINE
8
BLACK
6
CONTINUOUS
10
1.19561
20
-1.68695
11
1.19747
21
-1.68507
0
LINE
8
BLACK
6
CONTINUOUS
10
1.19747
20
-1.68507
11
1.20122
21
-1.68318
0
LINE
8
BLACK
6
CONTINUOUS
10
1.23871
20
-1.68302
11
1.24246
21
-1.683
0
LINE
8
BLACK
6
CONTINUOUS
10
1.24246
20
-1.683
11
1.24622
21
-1.68486
0
LINE
8
BLACK
6
CONTINUOUS
10
1.24622
20
-1.68486
11
1.2481
21
-1.68673
0
LINE
8
BLACK
6
CONTINUOUS
10
1.2481
20
-1.68673
11
1.24999
21
-1.69047
0
LINE
8
BLACK
6
CONTINUOUS
10
1.24999
20
-1.69047
11
1.2519
21
-1.69796
0
LINE
8
BLACK
6
CONTINUOUS
10
1.2519
20
-1.69796
11
1.25194
21
-1.70733
0
LINE
8
BLACK
6
CONTINUOUS
10
1.25194
20
-1.70733
11
1.2501
21
-1.71484
0
LINE
8
BLACK
6
CONTINUOUS
10
1.2501
20
-1.71484
11
1.24824
21
-1.7186
0
LINE
8
BLACK
6
CONTINUOUS
10
1.24824
20
-1.7186
11
1.24637
21
-1.72048
0
LINE
8
BLACK
6
CONTINUOUS
10
1.24637
20
-1.72048
11
1.24263
21
-1.72237
0
LINE
8
BLACK
6
CONTINUOUS
10
1.24263
20
-1.72237
11
1.23888
21
-1.72239
0
LINE
8
BLACK
6
CONTINUOUS
10
1.23888
20
-1.72239
11
1.23512
21
-1.72053
0
LINE
8
BLACK
6
CONTINUOUS
10
1.23512
20
-1.72053
11
1.23324
21
-1.71866
0
LINE
8
BLACK
6
CONTINUOUS
10
1.23324
20
-1.71866
11
1.23135
21
-1.71492
0
LINE
8
BLACK
6
CONTINUOUS
10
1.23135
20
-1.71492
11
1.22944
21
-1.70743
0
LINE
8
BLACK
6
CONTINUOUS
10
1.22944
20
-1.70743
11
1.2294
21
-1.69806
0
LINE
8
BLACK
6
CONTINUOUS
10
1.2294
20
-1.69806
11
1.23124
21
-1.69055
0
LINE
8
BLACK
6
CONTINUOUS
10
1.23124
20
-1.69055
11
1.2331
21
-1.68679
0
LINE
8
BLACK
6
CONTINUOUS
10
1.2331
20
-1.68679
11
1.23497
21
-1.68491
0
LINE
8
BLACK
6
CONTINUOUS
10
1.23497
20
-1.68491
11
1.23871
21
-1.68302
0
LINE
8
BLACK
6
CONTINUOUS
10
1.29887
20
-1.72213
11
1.29876
21
-1.69588
0
LINE
8
BLACK
6
CONTINUOUS
10
1.29878
20
-1.69963
11
1.30064
21
-1.69775
0
LINE
8
BLACK
6
CONTINUOUS
10
1.30064
20
-1.69775
11
1.30438
21
-1.69586
0
LINE
8
BLACK
6
CONTINUOUS
10
1.30438
20
-1.69586
11
1.31001
21
-1.69584
0
LINE
8
BLACK
6
CONTINUOUS
10
1.31001
20
-1.69584
11
1.31377
21
-1.6977
0
LINE
8
BLACK
6
CONTINUOUS
10
1.31377
20
-1.6977
11
1.31566
21
-1.70144
0
LINE
8
BLACK
6
CONTINUOUS
10
1.31566
20
-1.70144
11
1.31574
21
-1.72206
0
LINE
8
BLACK
6
CONTINUOUS
10
1.31566
20
-1.70144
11
1.31751
21
-1.69768
0
LINE
8
BLACK
6
CONTINUOUS
10
1.31751
20
-1.69768
11
1.32126
21
-1.69579
0
LINE
8
BLACK
6
CONTINUOUS
10
1.32126
20
-1.69579
11
1.32688
21
-1.69576
0
LINE
8
BLACK
6
CONTINUOUS
10
1.32688
20
-1.69576
11
1.33064
21
-1.69762
0
LINE
8
BLACK
6
CONTINUOUS
10
1.33064
20
-1.69762
11
1.33253
21
-1.70136
0
LINE
8
BLACK
6
CONTINUOUS
10
1.33253
20
-1.70136
11
1.33262
21
-1.72199
0
LINE
8
BLACK
6
CONTINUOUS
10
1.35136
20
-1.72191
11
1.35125
21
-1.69566
0
LINE
8
BLACK
6
CONTINUOUS
10
1.35127
20
-1.69941
11
1.35314
21
-1.69753
0
LINE
8
BLACK
6
CONTINUOUS
10
1.35314
20
-1.69753
11
1.35688
21
-1.69564
0
LINE
8
BLACK
6
CONTINUOUS
10
1.35688
20
-1.69564
11
1.3625
21
-1.69561
0
LINE
8
BLACK
6
CONTINUOUS
10
1.3625
20
-1.69561
11
1.36626
21
-1.69747
0
LINE
8
BLACK
6
CONTINUOUS
10
1.36626
20
-1.69747
11
1.36815
21
-1.70121
0
LINE
8
BLACK
6
CONTINUOUS
10
1.36815
20
-1.70121
11
1.36824
21
-1.72183
0
LINE
8
BLACK
6
CONTINUOUS
10
1.36815
20
-1.70121
11
1.37001
21
-1.69745
0
LINE
8
BLACK
6
CONTINUOUS
10
1.37001
20
-1.69745
11
1.37375
21
-1.69556
0
LINE
8
BLACK
6
CONTINUOUS
10
1.37375
20
-1.69556
11
1.37937
21
-1.69554
0
LINE
8
BLACK
6
CONTINUOUS
10
1.37937
20
-1.69554
11
1.38313
21
-1.6974
0
LINE
8
BLACK
6
CONTINUOUS
10
1.38313
20
-1.6974
11
1.38502
21
-1.70114
0
LINE
8
BLACK
6
CONTINUOUS
10
1.38502
20
-1.70114
11
1.38511
21
-1.72176
0
LINE
8
BLACK
6
CONTINUOUS
10
1.38057
20
-1.75515
11
1.10498
21
-1.75633
0
LINE
8
BLACK
6
CONTINUOUS
10
1.38228
20
-2.15551
11
1.38047
21
-1.73207
0
LINE
8
BLACK
6
CONTINUOUS
10
1.10669
20
-2.15669
11
1.10488
21
-1.73325
0
LINE
8
BLACK
6
CONTINUOUS
10
1.10498
20
-1.75633
11
1.14923
21
-1.73306
0
LINE
8
BLACK
6
CONTINUOUS
10
1.10498
20
-1.75633
11
1.14943
21
-1.77923
0
LINE
8
BLACK
6
CONTINUOUS
10
1.38057
20
-1.75515
11
1.33612
21
-1.73226
0
LINE
8
BLACK
6
CONTINUOUS
10
1.38057
20
-1.75515
11
1.33632
21
-1.77843
0
LINE
8
BLACK
6
CONTINUOUS
10
-0.0812323
20
-3.12953
11
-0.0812977
21
-3.11078
0
LINE
8
BLACK
6
CONTINUOUS
10
-0.0812977
20
-3.11078
11
-0.100052
21
-3.10897
0
LINE
8
BLACK
6
CONTINUOUS
10
-0.100052
20
-3.10897
11
-0.0981705
21
-3.11084
0
LINE
8
BLACK
6
CONTINUOUS
10
-0.0981705
20
-3.11084
11
-0.0962826
21
-3.11458
0
LINE
8
BLACK
6
CONTINUOUS
10
-0.0962826
20
-3.11458
11
-0.0962499
21
-3.12395
0
LINE
8
BLACK
6
CONTINUOUS
10
-0.0962499
20
-3.12395
11
-0.0981116
21
-3.12771
0
LINE
8
BLACK
6
CONTINUOUS
10
-0.0981116
20
-3.12771
11
-0.0999798
21
-3.12959
0
LINE
8
BLACK
6
CONTINUOUS
10
-0.0999798
20
-3.12959
11
-0.103723
21
-3.13148
0
LINE
8
BLACK
6
CONTINUOUS
10
-0.103723
20
-3.13148
11
-0.113097
21
-3.13151
0
LINE
8
BLACK
6
CONTINUOUS
10
-0.113097
20
-3.13151
11
-0.116853
21
-3.12965
0
LINE
8
BLACK
6
CONTINUOUS
10
-0.116853
20
-3.12965
11
-0.118734
21
-3.12778
0
LINE
8
BLACK
6
CONTINUOUS
10
-0.118734
20
-3.12778
11
-0.120622
21
-3.12404
0
LINE
8
BLACK
6
CONTINUOUS
10
-0.120622
20
-3.12404
11
-0.120654
21
-3.11467
0
LINE
8
BLACK
6
CONTINUOUS
10
-0.120654
20
-3.11467
11
-0.118793
21
-3.11091
0
LINE
8
BLACK
6
CONTINUOUS
10
-0.118793
20
-3.11091
11
-0.116925
21
-3.10903
0
LINE
8
BLACK
6
CONTINUOUS
10
-0.0811079
20
-3.16515
11
-0.0811341
21
-3.15765
0
LINE
8
BLACK
6
CONTINUOUS
10
-0.0811341
20
-3.15765
11
-0.083022
21
-3.1539
0
LINE
8
BLACK
6
CONTINUOUS
10
-0.083022
20
-3.1539
11
-0.0849032
21
-3.15204
0
LINE
8
BLACK
6
CONTINUOUS
10
-0.0849032
20
-3.15204
11
-0.0905406
21
-3.14831
0
LINE
8
BLACK
6
CONTINUOUS
10
-0.0905406
20
-3.14831
11
-0.0980461
21
-3.14646
0
LINE
8
BLACK
6
CONTINUOUS
10
-0.0980461
20
-3.14646
11
-0.113044
21
-3.14651
0
LINE
8
BLACK
6
CONTINUOUS
10
-0.113044
20
-3.14651
11
-0.116787
21
-3.1484
0
LINE
8
BLACK
6
CONTINUOUS
10
-0.116787
20
-3.1484
11
-0.118655
21
-3.15028
0
LINE
8
BLACK
6
CONTINUOUS
10
-0.118655
20
-3.15028
11
-0.120517
21
-3.15404
0
LINE
8
BLACK
6
CONTINUOUS
10
-0.120517
20
-3.15404
11
-0.120491
21
-3.16153
0
LINE
8
BLACK
6
CONTINUOUS
10
-0.120491
20
-3.16153
11
-0.118603
21
-3.16528
0
LINE
8
BLACK
6
CONTINUOUS
10
-0.118603
20
-3.16528
11
-0.116722
21
-3.16715
0
LINE
8
BLACK
6
CONTINUOUS
10
-0.116722
20
-3.16715
11
-0.112966
21
-3.16901
0
LINE
8
BLACK
6
CONTINUOUS
10
-0.112966
20
-3.16901
11
-0.103592
21
-3.16897
0
LINE
8
BLACK
6
CONTINUOUS
10
-0.103592
20
-3.16897
11
-0.0998489
21
-3.16709
0
LINE
8
BLACK
6
CONTINUOUS
10
-0.0998489
20
-3.16709
11
-0.0979807
21
-3.16521
0
LINE
8
BLACK
6
CONTINUOUS
10
-0.0979807
20
-3.16521
11
-0.0961191
21
-3.16145
0
LINE
8
BLACK
6
CONTINUOUS
10
-0.0961191
20
-3.16145
11
-0.0961452
21
-3.15395
0
LINE
8
BLACK
6
CONTINUOUS
10
-0.0961452
20
-3.15395
11
-0.0980331
21
-3.15021
0
LINE
8
BLACK
6
CONTINUOUS
10
-0.0980331
20
-3.15021
11
-0.0999144
21
-3.14834
0
LINE
8
BLACK
6
CONTINUOUS
10
-0.0999144
20
-3.14834
11
-0.10367
21
-3.14648
0
LINE
8
BLACK
6
CONTINUOUS
10
-0.116656
20
-3.18589
11
-0.118524
21
-3.18777
0
LINE
8
BLACK
6
CONTINUOUS
10
-0.118524
20
-3.18777
11
-0.120406
21
-3.18591
0
LINE
8
BLACK
6
CONTINUOUS
10
-0.120406
20
-3.18591
11
-0.118538
21
-3.18403
0
LINE
8
BLACK
6
CONTINUOUS
10
-0.118538
20
-3.18403
11
-0.116656
21
-3.18589
0
LINE
8
BLACK
6
CONTINUOUS
10
-0.116656
20
-3.18589
11
-0.120406
21
-3.18591
0
LINE
8
BLACK
6
CONTINUOUS
10
-0.0809051
20
-3.22326
11
-0.0809705
21
-3.20452
0
LINE
8
BLACK
6
CONTINUOUS
10
-0.0809705
20
-3.20452
11
-0.0997246
21
-3.20271
0
LINE
8
BLACK
6
CONTINUOUS
10
-0.0997246
20
-3.20271
11
-0.0978433
21
-3.20458
0
LINE
8
BLACK
6
CONTINUOUS
10
-0.0978433
20
-3.20458
11
-0.0959554
21
-3.20832
0
LINE
8
BLACK
6
CONTINUOUS
10
-0.0959554
20
-3.20832
11
-0.0959227
21
-3.21769
0
LINE
8
BLACK
6
CONTINUOUS
10
-0.0959227
20
-3.21769
11
-0.0977844
21
-3.22145
0
LINE
8
BLACK
6
CONTINUOUS
10
-0.0977844
20
-3.22145
11
-0.0996526
21
-3.22333
0
LINE
8
BLACK
6
CONTINUOUS
10
-0.0996526
20
-3.22333
11
-0.103396
21
-3.22522
0
LINE
8
BLACK
6
CONTINUOUS
10
-0.103396
20
-3.22522
11
-0.112769
21
-3.22525
0
LINE
8
BLACK
6
CONTINUOUS
10
-0.112769
20
-3.22525
11
-0.116525
21
-3.22339
0
LINE
8
BLACK
6
CONTINUOUS
10
-0.116525
20
-3.22339
11
-0.118407
21
-3.22152
0
LINE
8
BLACK
6
CONTINUOUS
10
-0.118407
20
-3.22152
11
-0.120295
21
-3.21778
0
LINE
8
BLACK
6
CONTINUOUS
10
-0.120295
20
-3.21778
11
-0.120327
21
-3.2084
0
LINE
8
BLACK
6
CONTINUOUS
10
-0.120327
20
-3.2084
11
-0.118466
21
-3.20465
0
LINE
8
BLACK
6
CONTINUOUS
10
-0.118466
20
-3.20465
11
-0.116597
21
-3.20277
0
LINE
8
BLACK
6
CONTINUOUS
10
-0.0845957
20
-3.24015
11
-0.0827144
21
-3.24202
0
LINE
8
BLACK
6
CONTINUOUS
10
-0.0827144
20
-3.24202
11
-0.0808265
21
-3.24576
0
LINE
8
BLACK
6
CONTINUOUS
10
-0.0808265
20
-3.24576
11
-0.0807938
21
-3.25514
0
LINE
8
BLACK
6
CONTINUOUS
10
-0.0807938
20
-3.25514
11
-0.0826555
21
-3.25889
0
LINE
8
BLACK
6
CONTINUOUS
10
-0.0826555
20
-3.25889
11
-0.0845237
21
-3.26077
0
LINE
8
BLACK
6
CONTINUOUS
10
-0.0845237
20
-3.26077
11
-0.0882667
21
-3.26266
0
LINE
8
BLACK
6
CONTINUOUS
10
-0.0882667
20
-3.26266
11
-0.0920161
21
-3.26267
0
LINE
8
BLACK
6
CONTINUOUS
10
-0.0920161
20
-3.26267
11
-0.097647
21
-3.26082
0
LINE
8
BLACK
6
CONTINUOUS
10
-0.097647
20
-3.26082
11
-0.120223
21
-3.2384
0
LINE
8
BLACK
6
CONTINUOUS
10
-0.120223
20
-3.2384
11
-0.120137
21
-3.26277
0
LINE
8
BLACK
6
CONTINUOUS
10
-0.0937731
20
-3.29643
11
-0.12002
21
-3.29652
0
LINE
8
BLACK
6
CONTINUOUS
10
-0.0788078
20
-3.287
11
-0.106962
21
-3.27772
0
LINE
8
BLACK
6
CONTINUOUS
10
-0.106962
20
-3.27772
11
-0.106877
21
-3.3021
0
LINE
8
BLACK
6
CONTINUOUS
10
-0.119843
20
-3.34714
11
-0.0935964
21
-3.34704
0
LINE
8
BLACK
6
CONTINUOUS
10
-0.0973459
20
-3.34706
11
-0.0954646
21
-3.34893
0
LINE
8
BLACK
6
CONTINUOUS
10
-0.0954646
20
-3.34893
11
-0.0935768
21
-3.35267
0
LINE
8
BLACK
6
CONTINUOUS
10
-0.0935768
20
-3.35267
11
-0.0935572
21
-3.35829
0
LINE
8
BLACK
6
CONTINUOUS
10
-0.0935572
20
-3.35829
11
-0.0954188
21
-3.36205
0
LINE
8
BLACK
6
CONTINUOUS
10
-0.0954188
20
-3.36205
11
-0.0991618
21
-3.36394
0
LINE
8
BLACK
6
CONTINUOUS
10
-0.0991618
20
-3.36394
11
-0.119784
21
-3.36401
0
LINE
8
BLACK
6
CONTINUOUS
10
-0.0991618
20
-3.36394
11
-0.0954057
21
-3.3658
0
LINE
8
BLACK
6
CONTINUOUS
10
-0.0954057
20
-3.3658
11
-0.0935179
21
-3.36954
0
LINE
8
BLACK
6
CONTINUOUS
10
-0.0935179
20
-3.36954
11
-0.0934983
21
-3.37517
0
LINE
8
BLACK
6
CONTINUOUS
10
-0.0934983
20
-3.37517
11
-0.0953599
21
-3.37892
0
LINE
8
BLACK
6
CONTINUOUS
10
-0.0953599
20
-3.37892
11
-0.0991029
21
-3.38081
0
LINE
8
BLACK
6
CONTINUOUS
10
-0.0991029
20
-3.38081
11
-0.119725
21
-3.38088
0
LINE
8
BLACK
6
CONTINUOUS
10
-0.11966
20
-3.39963
11
-0.0934132
21
-3.39954
0
LINE
8
BLACK
6
CONTINUOUS
10
-0.0971627
20
-3.39955
11
-0.0952814
21
-3.40142
0
LINE
8
BLACK
6
CONTINUOUS
10
-0.0952814
20
-3.40142
11
-0.0933935
21
-3.40516
0
LINE
8
BLACK
6
CONTINUOUS
10
-0.0933935
20
-3.40516
11
-0.0933739
21
-3.41079
0
LINE
8
BLACK
6
CONTINUOUS
10
-0.0933739
20
-3.41079
11
-0.0952356
21
-3.41454
0
LINE
8
BLACK
6
CONTINUOUS
10
-0.0952356
20
-3.41454
11
-0.0989785
21
-3.41643
0
LINE
8
BLACK
6
CONTINUOUS
10
-0.0989785
20
-3.41643
11
-0.119601
21
-3.4165
0
LINE
8
BLACK
6
CONTINUOUS
10
-0.0989785
20
-3.41643
11
-0.0952225
21
-3.41829
0
LINE
8
BLACK
6
CONTINUOUS
10
-0.0952225
20
-3.41829
11
-0.0933346
21
-3.42203
0
LINE
8
BLACK
6
CONTINUOUS
10
-0.0933346
20
-3.42203
11
-0.093315
21
-3.42766
0
LINE
8
BLACK
6
CONTINUOUS
10
-0.093315
20
-3.42766
11
-0.0951767
21
-3.43141
0
LINE
8
BLACK
6
CONTINUOUS
10
-0.0951767
20
-3.43141
11
-0.0989196
21
-3.4333
0
LINE
8
BLACK
6
CONTINUOUS
10
-0.0989196
20
-3.4333
11
-0.119542
21
-3.43337
0
LINE
8
BLACK
6
CONTINUOUS
10
-0.0554509
20
-2.15922
11
-0.0467769
21
-4.38455
0
LINE
8
BLACK
6
CONTINUOUS
10
0.389764
20
-2.15748
11
-0.0785382
21
-2.15931
0
LINE
8
BLACK
6
CONTINUOUS
10
0.398438
20
-4.38282
11
-0.0698641
21
-4.38464
0
LINE
8
BLACK
6
CONTINUOUS
10
-0.0467769
20
-4.38455
11
-0.070037
21
-4.34029
0
LINE
8
BLACK
6
CONTINUOUS
10
-0.0467769
20
-4.38455
11
-0.0238625
21
-4.34011
0
LINE
8
BLACK
6
CONTINUOUS
10
-0.0554509
20
-2.15922
11
-0.0783653
21
-2.20366
0
LINE
8
BLACK
6
CONTINUOUS
10
-0.0554509
20
-2.15922
11
-0.0321908
21
-2.20348
0
LINE
8
BLACK
6
CONTINUOUS
10
0.722722
20
-1.90345
11
0.724597
21
-1.90157
0
LINE
8
BLACK
6
CONTINUOUS
10
0.724597
20
-1.90157
11
0.728346
21
-1.8997
0
LINE
8
BLACK
6
CONTINUOUS
10
0.728346
20
-1.8997
11
0.73772
21
-1.8997
0
LINE
8
BLACK
6
CONTINUOUS
10
0.73772
20
-1.8997
11
0.74147
21
-1.90157
0
LINE
8
BLACK
6
CONTINUOUS
10
0.74147
20
-1.90157
11
0.743345
21
-1.90345
0
LINE
8
BLACK
6
CONTINUOUS
10
0.743345
20
-1.90345
11
0.745219
21
-1.9072
0
LINE
8
BLACK
6
CONTINUOUS
10
0.745219
20
-1.9072
11
0.745219
21
-1.91095
0
LINE
8
BLACK
6
CONTINUOUS
10
0.745219
20
-1.91095
11
0.743345
21
-1.91657
0
LINE
8
BLACK
6
CONTINUOUS
10
0.743345
20
-1.91657
11
0.720847
21
-1.93907
0
LINE
8
BLACK
6
CONTINUOUS
10
0.720847
20
-1.93907
11
0.745219
21
-1.93907
0
LINE
8
BLACK
6
CONTINUOUS
10
0.78084
20
-1.8997
11
0.762092
21
-1.8997
0
LINE
8
BLACK
6
CONTINUOUS
10
0.762092
20
-1.8997
11
0.760217
21
-1.91845
0
LINE
8
BLACK
6
CONTINUOUS
10
0.760217
20
-1.91845
11
0.762092
21
-1.91657
0
LINE
8
BLACK
6
CONTINUOUS
10
0.762092
20
-1.91657
11
0.765842
21
-1.9147
0
LINE
8
BLACK
6
CONTINUOUS
10
0.765842
20
-1.9147
11
0.775216
21
-1.9147
0
LINE
8
BLACK
6
CONTINUOUS
10
0.775216
20
-1.9147
11
0.778965
21
-1.91657
0
LINE
8
BLACK
6
CONTINUOUS
10
0.778965
20
-1.91657
11
0.78084
21
-1.91845
0
LINE
8
BLACK
6
CONTINUOUS
10
0.78084
20
-1.91845
11
0.782715
21
-1.9222
0
LINE
8
BLACK
6
CONTINUOUS
10
0.782715
20
-1.9222
11
0.782715
21
-1.93157
0
LINE
8
BLACK
6
CONTINUOUS
10
0.782715
20
-1.93157
11
0.78084
21
-1.93532
0
LINE
8
BLACK
6
CONTINUOUS
10
0.78084
20
-1.93532
11
0.778965
21
-1.9372
0
LINE
8
BLACK
6
CONTINUOUS
10
0.778965
20
-1.9372
11
0.775216
21
-1.93907
0
LINE
8
BLACK
6
CONTINUOUS
10
0.775216
20
-1.93907
11
0.765842
21
-1.93907
0
LINE
8
BLACK
6
CONTINUOUS
10
0.765842
20
-1.93907
11
0.762092
21
-1.9372
0
LINE
8
BLACK
6
CONTINUOUS
10
0.762092
20
-1.9372
11
0.760217
21
-1.93532
0
LINE
8
BLACK
6
CONTINUOUS
10
0.799588
20
-1.93532
11
0.801462
21
-1.9372
0
LINE
8
BLACK
6
CONTINUOUS
10
0.801462
20
-1.9372
11
0.799588
21
-1.93907
0
LINE
8
BLACK
6
CONTINUOUS
10
0.799588
20
-1.93907
11
0.797713
21
-1.9372
0
LINE
8
BLACK
6
CONTINUOUS
10
0.797713
20
-1.9372
11
0.799588
21
-1.93532
0
LINE
8
BLACK
6
CONTINUOUS
10
0.799588
20
-1.93532
11
0.799588
21
-1.93907
0
LINE
8
BLACK
6
CONTINUOUS
10
0.81646
20
-1.90345
11
0.818335
21
-1.90157
0
LINE
8
BLACK
6
CONTINUOUS
10
0.818335
20
-1.90157
11
0.822085
21
-1.8997
0
LINE
8
BLACK
6
CONTINUOUS
10
0.822085
20
-1.8997
11
0.831459
21
-1.8997
0
LINE
8
BLACK
6
CONTINUOUS
10
0.831459
20
-1.8997
11
0.835208
21
-1.90157
0
LINE
8
BLACK
6
CONTINUOUS
10
0.835208
20
-1.90157
11
0.837083
21
-1.90345
0
LINE
8
BLACK
6
CONTINUOUS
10
0.837083
20
-1.90345
11
0.838958
21
-1.9072
0
LINE
8
BLACK
6
CONTINUOUS
10
0.838958
20
-1.9072
11
0.838958
21
-1.91095
0
LINE
8
BLACK
6
CONTINUOUS
10
0.838958
20
-1.91095
11
0.837083
21
-1.91657
0
LINE
8
BLACK
6
CONTINUOUS
10
0.837083
20
-1.91657
11
0.814586
21
-1.93907
0
LINE
8
BLACK
6
CONTINUOUS
10
0.814586
20
-1.93907
11
0.838958
21
-1.93907
0
LINE
8
BLACK
6
CONTINUOUS
10
0.86333
20
-1.8997
11
0.867079
21
-1.8997
0
LINE
8
BLACK
6
CONTINUOUS
10
0.867079
20
-1.8997
11
0.870829
21
-1.90157
0
LINE
8
BLACK
6
CONTINUOUS
10
0.870829
20
-1.90157
11
0.872703
21
-1.90345
0
LINE
8
BLACK
6
CONTINUOUS
10
0.872703
20
-1.90345
11
0.874578
21
-1.9072
0
LINE
8
BLACK
6
CONTINUOUS
10
0.874578
20
-1.9072
11
0.876453
21
-1.9147
0
LINE
8
BLACK
6
CONTINUOUS
10
0.876453
20
-1.9147
11
0.876453
21
-1.92407
0
LINE
8
BLACK
6
CONTINUOUS
10
0.876453
20
-1.92407
11
0.874578
21
-1.93157
0
LINE
8
BLACK
6
CONTINUOUS
10
0.874578
20
-1.93157
11
0.872703
21
-1.93532
0
LINE
8
BLACK
6
CONTINUOUS
10
0.872703
20
-1.93532
11
0.870829
21
-1.9372
0
LINE
8
BLACK
6
CONTINUOUS
10
0.870829
20
-1.9372
11
0.867079
21
-1.93907
0
LINE
8
BLACK
6
CONTINUOUS
10
0.867079
20
-1.93907
11
0.86333
21
-1.93907
0
LINE
8
BLACK
6
CONTINUOUS
10
0.86333
20
-1.93907
11
0.85958
21
-1.9372
0
LINE
8
BLACK
6
CONTINUOUS
10
0.85958
20
-1.9372
11
0.857705
21
-1.93532
0
LINE
8
BLACK
6
CONTINUOUS
10
0.857705
20
-1.93532
11
0.855831
21
-1.93157
0
LINE
8
BLACK
6
CONTINUOUS
10
0.855831
20
-1.93157
11
0.853956
21
-1.92407
0
LINE
8
BLACK
6
CONTINUOUS
10
0.853956
20
-1.92407
11
0.853956
21
-1.9147
0
LINE
8
BLACK
6
CONTINUOUS
10
0.853956
20
-1.9147
11
0.855831
21
-1.9072
0
LINE
8
BLACK
6
CONTINUOUS
10
0.855831
20
-1.9072
11
0.857705
21
-1.90345
0
LINE
8
BLACK
6
CONTINUOUS
10
0.857705
20
-1.90345
11
0.85958
21
-1.90157
0
LINE
8
BLACK
6
CONTINUOUS
10
0.85958
20
-1.90157
11
0.86333
21
-1.8997
0
LINE
8
BLACK
6
CONTINUOUS
10
0.900825
20
-1.8997
11
0.904574
21
-1.8997
0
LINE
8
BLACK
6
CONTINUOUS
10
0.904574
20
-1.8997
11
0.908324
21
-1.90157
0
LINE
8
BLACK
6
CONTINUOUS
10
0.908324
20
-1.90157
11
0.910199
21
-1.90345
0
LINE
8
BLACK
6
CONTINUOUS
10
0.910199
20
-1.90345
11
0.912073
21
-1.9072
0
LINE
8
BLACK
6
CONTINUOUS
10
0.912073
20
-1.9072
11
0.913948
21
-1.9147
0
LINE
8
BLACK
6
CONTINUOUS
10
0.913948
20
-1.9147
11
0.913948
21
-1.92407
0
LINE
8
BLACK
6
CONTINUOUS
10
0.913948
20
-1.92407
11
0.912073
21
-1.93157
0
LINE
8
BLACK
6
CONTINUOUS
10
0.912073
20
-1.93157
11
0.910199
21
-1.93532
0
LINE
8
BLACK
6
CONTINUOUS
10
0.910199
20
-1.93532
11
0.908324
21
-1.9372
0
LINE
8
BLACK
6
CONTINUOUS
10
0.908324
20
-1.9372
11
0.904574
21
-1.93907
0
LINE
8
BLACK
6
CONTINUOUS
10
0.904574
20
-1.93907
11
0.900825
21
-1.93907
0
LINE
8
BLACK
6
CONTINUOUS
10
0.900825
20
-1.93907
11
0.897075
21
-1.9372
0
LINE
8
BLACK
6
CONTINUOUS
10
0.897075
20
-1.9372
11
0.895201
21
-1.93532
0
LINE
8
BLACK
6
CONTINUOUS
10
0.895201
20
-1.93532
11
0.893326
21
-1.93157
0
LINE
8
BLACK
6
CONTINUOUS
10
0.893326
20
-1.93157
11
0.891451
21
-1.92407
0
LINE
8
BLACK
6
CONTINUOUS
10
0.891451
20
-1.92407
11
0.891451
21
-1.9147
0
LINE
8
BLACK
6
CONTINUOUS
10
0.891451
20
-1.9147
11
0.893326
21
-1.9072
0
LINE
8
BLACK
6
CONTINUOUS
10
0.893326
20
-1.9072
11
0.895201
21
-1.90345
0
LINE
8
BLACK
6
CONTINUOUS
10
0.895201
20
-1.90345
11
0.897075
21
-1.90157
0
LINE
8
BLACK
6
CONTINUOUS
10
0.897075
20
-1.90157
11
0.900825
21
-1.8997
0
LINE
8
BLACK
6
CONTINUOUS
10
0.960817
20
-1.93907
11
0.960817
21
-1.91282
0
LINE
8
BLACK
6
CONTINUOUS
10
0.960817
20
-1.91657
11
0.962692
21
-1.9147
0
LINE
8
BLACK
6
CONTINUOUS
10
0.962692
20
-1.9147
11
0.966442
21
-1.91282
0
LINE
8
BLACK
6
CONTINUOUS
10
0.966442
20
-1.91282
11
0.972066
21
-1.91282
0
LINE
8
BLACK
6
CONTINUOUS
10
0.972066
20
-1.91282
11
0.975816
21
-1.9147
0
LINE
8
BLACK
6
CONTINUOUS
10
0.975816
20
-1.9147
11
0.97769
21
-1.91845
0
LINE
8
BLACK
6
CONTINUOUS
10
0.97769
20
-1.91845
11
0.97769
21
-1.93907
0
LINE
8
BLACK
6
CONTINUOUS
10
0.97769
20
-1.91845
11
0.979565
21
-1.9147
0
LINE
8
BLACK
6
CONTINUOUS
10
0.979565
20
-1.9147
11
0.983315
21
-1.91282
0
LINE
8
BLACK
6
CONTINUOUS
10
0.983315
20
-1.91282
11
0.988939
21
-1.91282
0
LINE
8
BLACK
6
CONTINUOUS
10
0.988939
20
-1.91282
11
0.992688
21
-1.9147
0
LINE
8
BLACK
6
CONTINUOUS
10
0.992688
20
-1.9147
11
0.994563
21
-1.91845
0
LINE
8
BLACK
6
CONTINUOUS
10
0.994563
20
-1.91845
11
0.994563
21
-1.93907
0
LINE
8
BLACK
6
CONTINUOUS
10
1.01331
20
-1.93907
11
1.01331
21
-1.91282
0
LINE
8
BLACK
6
CONTINUOUS
10
1.01331
20
-1.91657
11
1.01519
21
-1.9147
0
LINE
8
BLACK
6
CONTINUOUS
10
1.01519
20
-1.9147
11
1.01894
21
-1.91282
0
LINE
8
BLACK
6
CONTINUOUS
10
1.01894
20
-1.91282
11
1.02456
21
-1.91282
0
LINE
8
BLACK
6
CONTINUOUS
10
1.02456
20
-1.91282
11
1.02831
21
-1.9147
0
LINE
8
BLACK
6
CONTINUOUS
10
1.02831
20
-1.9147
11
1.03018
21
-1.91845
0
LINE
8
BLACK
6
CONTINUOUS
10
1.03018
20
-1.91845
11
1.03018
21
-1.93907
0
LINE
8
BLACK
6
CONTINUOUS
10
1.03018
20
-1.91845
11
1.03206
21
-1.9147
0
LINE
8
BLACK
6
CONTINUOUS
10
1.03206
20
-1.9147
11
1.03581
21
-1.91282
0
LINE
8
BLACK
6
CONTINUOUS
10
1.03581
20
-1.91282
11
1.04143
21
-1.91282
0
LINE
8
BLACK
6
CONTINUOUS
10
1.04143
20
-1.91282
11
1.04518
21
-1.9147
0
LINE
8
BLACK
6
CONTINUOUS
10
1.04518
20
-1.9147
11
1.04706
21
-1.91845
0
LINE
8
BLACK
6
CONTINUOUS
10
1.04706
20
-1.91845
11
1.04706
21
-1.93907
0
LINE
8
BLACK
6
CONTINUOUS
10
0.389764
20
-1.97244
11
1.38189
21
-1.97244
0
LINE
8
BLACK
6
CONTINUOUS
10
0.389764
20
-2.15748
11
0.389764
21
-1.94935
0
LINE
8
BLACK
6
CONTINUOUS
10
1.38189
20
-2.15748
11
1.38189
21
-1.94935
0
LINE
8
BLACK
6
CONTINUOUS
10
1.38189
20
-1.97244
11
1.33754
21
-1.99553
0
LINE
8
BLACK
6
CONTINUOUS
10
1.38189
20
-1.97244
11
1.33754
21
-1.94935
0
LINE
8
BLACK
6
CONTINUOUS
10
0.389764
20
-1.97244
11
0.434114
21
-1.99553
0
LINE
8
BLACK
6
CONTINUOUS
10
0.389764
20
-1.97244
11
0.434114
21
-1.94935
0
LINE
8
BLACK
6
CONTINUOUS
10
7.30625
20
-5.80625
11
6.75625
21
-5.80625
0
LINE
8
BLACK
6
CONTINUOUS
10
6.75625
20
-5.80625
11
6.75625
21
-5.72325
0
LINE
8
BLACK
6
CONTINUOUS
10
6.75625
20
-5.72325
11
6.69225
21
-5.72325
0
LINE
8
BLACK
6
CONTINUOUS
10
6.69225
20
-5.72325
11
6.69225
21
-5.75525
0
LINE
8
BLACK
6
CONTINUOUS
10
6.69225
20
-5.75525
11
6.43025
21
-5.75525
0
LINE
8
BLACK
6
CONTINUOUS
10
6.43025
20
-5.75525
11
6.43025
21
-5.62125
0
LINE
8
BLACK
6
CONTINUOUS
10
6.43025
20
-5.62125
11
6.39625
21
-5.62125
0
LINE
8
BLACK
6
CONTINUOUS
10
6.39625
20
-5.62125
11
6.39625
21
-5.51125
0
LINE
8
BLACK
6
CONTINUOUS
10
6.39625
20
-5.51125
11
6.43025
21
-5.51125
0
LINE
8
BLACK
6
CONTINUOUS
10
6.43025
20
-5.51125
11
6.43025
21
-5.27125
0
LINE
8
BLACK
6
CONTINUOUS
10
6.43025
20
-5.27125
11
6.47125
21
-5.27125
0
LINE
8
BLACK
6
CONTINUOUS
10
6.47125
20
-5.27125
11
6.47125
21
-5.22525
0
LINE
8
BLACK
6
CONTINUOUS
10
6.47125
20
-5.22525
11
6.65125
21
-5.22525
0
LINE
8
BLACK
6
CONTINUOUS
10
6.65125
20
-5.22525
11
6.65125
21
-5.27125
0
LINE
8
BLACK
6
CONTINUOUS
10
6.65125
20
-5.27125
11
6.69225
21
-5.27125
0
LINE
8
BLACK
6
CONTINUOUS
10
6.69225
20
-5.27125
11
6.69225
21
-5.30225
0
LINE
8
BLACK
6
CONTINUOUS
10
6.69225
20
-5.30225
11
6.75625
21
-5.30225
0
LINE
8
BLACK
6
CONTINUOUS
10
6.75625
20
-5.30225
11
6.75625
21
-5.25625
0
LINE
8
BLACK
6
CONTINUOUS
10
6.75625
20
-5.25625
11
7.30625
21
-5.25625
0
LINE
8
BLACK
6
CONTINUOUS
10
7.30625
20
-5.25625
11
7.30625
21
-5.30225
0
LINE
8
BLACK
6
CONTINUOUS
10
7.30625
20
-5.30225
11
7.37025
21
-5.30225
0
LINE
8
BLACK
6
CONTINUOUS
10
7.37025
20
-5.30225
11
7.37025
21
-5.27125
0
LINE
8
BLACK
6
CONTINUOUS
10
7.37025
20
-5.27125
11
7.41125
21
-5.27125
0
LINE
8
BLACK
6
CONTINUOUS
10
7.41125
20
-5.27125
11
7.41125
21
-5.22525
0
LINE
8
BLACK
6
CONTINUOUS
10
7.41125
20
-5.22525
11
7.59125
21
-5.22525
0
LINE
8
BLACK
6
CONTINUOUS
10
7.59125
20
-5.22525
11
7.59125
21
-5.27125
0
LINE
8
BLACK
6
CONTINUOUS
10
7.59125
20
-5.27125
11
7.63225
21
-5.27125
0
LINE
8
BLACK
6
CONTINUOUS
10
7.63225
20
-5.27125
11
7.63225
21
-5.51125
0
LINE
8
BLACK
6
CONTINUOUS
10
7.63225
20
-5.51125
11
7.66625
21
-5.51125
0
LINE
8
BLACK
6
CONTINUOUS
10
7.66625
20
-5.51125
11
7.66625
21
-5.62125
0
LINE
8
BLACK
6
CONTINUOUS
10
7.66625
20
-5.62125
11
7.63225
21
-5.62125
0
LINE
8
BLACK
6
CONTINUOUS
10
7.63225
20
-5.62125
11
7.63225
21
-5.75525
0
LINE
8
BLACK
6
CONTINUOUS
10
7.63225
20
-5.75525
11
7.37025
21
-5.75525
0
LINE
8
BLACK
6
CONTINUOUS
10
7.37025
20
-5.75525
11
7.37025
21
-5.72325
0
LINE
8
BLACK
6
CONTINUOUS
10
7.37025
20
-5.72325
11
7.30625
21
-5.72325
0
LINE
8
BLACK
6
CONTINUOUS
10
7.30625
20
-5.72325
11
7.30625
21
-5.80625
0
LINE
8
BLACK
6
CONTINUOUS
10
6.55625
20
-5.80625
11
6.00625
21
-5.80625
0
LINE
8
BLACK
6
CONTINUOUS
10
6.00625
20
-5.80625
11
6.00625
21
-5.72325
0
LINE
8
BLACK
6
CONTINUOUS
10
6.00625
20
-5.72325
11
5.94225
21
-5.72325
0
LINE
8
BLACK
6
CONTINUOUS
10
5.94225
20
-5.72325
11
5.94225
21
-5.75525
0
LINE
8
BLACK
6
CONTINUOUS
10
5.94225
20
-5.75525
11
5.68025
21
-5.75525
0
LINE
8
BLACK
6
CONTINUOUS
10
5.68025
20
-5.75525
11
5.68025
21
-5.62125
0
LINE
8
BLACK
6
CONTINUOUS
10
5.68025
20
-5.62125
11
5.64625
21
-5.62125
0
LINE
8
BLACK
6
CONTINUOUS
10
5.64625
20
-5.62125
11
5.64625
21
-5.51125
0
LINE
8
BLACK
6
CONTINUOUS
10
5.64625
20
-5.51125
11
5.68025
21
-5.51125
0
LINE
8
BLACK
6
CONTINUOUS
10
5.68025
20
-5.51125
11
5.68025
21
-5.27125
0
LINE
8
BLACK
6
CONTINUOUS
10
5.68025
20
-5.27125
11
5.72125
21
-5.27125
0
LINE
8
BLACK
6
CONTINUOUS
10
5.72125
20
-5.27125
11
5.72125
21
-5.22525
0
LINE
8
BLACK
6
CONTINUOUS
10
5.72125
20
-5.22525
11
5.90125
21
-5.22525
0
LINE
8
BLACK
6
CONTINUOUS
10
5.90125
20
-5.22525
11
5.90125
21
-5.27125
0
LINE
8
BLACK
6
CONTINUOUS
10
5.90125
20
-5.27125
11
5.94225
21
-5.27125
0
LINE
8
BLACK
6
CONTINUOUS
10
5.94225
20
-5.27125
11
5.94225
21
-5.30225
0
LINE
8
BLACK
6
CONTINUOUS
10
5.94225
20
-5.30225
11
6.00625
21
-5.30225
0
LINE
8
BLACK
6
CONTINUOUS
10
6.00625
20
-5.30225
11
6.00625
21
-5.25625
0
LINE
8
BLACK
6
CONTINUOUS
10
6.00625
20
-5.25625
11
6.55625
21
-5.25625
0
LINE
8
BLACK
6
CONTINUOUS
10
6.55625
20
-5.25625
11
6.55625
21
-5.30225
0
LINE
8
BLACK
6
CONTINUOUS
10
6.55625
20
-5.30225
11
6.62025
21
-5.30225
0
LINE
8
BLACK
6
CONTINUOUS
10
6.62025
20
-5.30225
11
6.62025
21
-5.27125
0
LINE
8
BLACK
6
CONTINUOUS
10
6.62025
20
-5.27125
11
6.66125
21
-5.27125
0
LINE
8
BLACK
6
CONTINUOUS
10
6.66125
20
-5.27125
11
6.66125
21
-5.22525
0
LINE
8
BLACK
6
CONTINUOUS
10
6.66125
20
-5.22525
11
6.84125
21
-5.22525
0
LINE
8
BLACK
6
CONTINUOUS
10
6.84125
20
-5.22525
11
6.84125
21
-5.27125
0
LINE
8
BLACK
6
CONTINUOUS
10
6.84125
20
-5.27125
11
6.88225
21
-5.27125
0
LINE
8
BLACK
6
CONTINUOUS
10
6.88225
20
-5.27125
11
6.88225
21
-5.51125
0
LINE
8
BLACK
6
CONTINUOUS
10
6.88225
20
-5.51125
11
6.91625
21
-5.51125
0
LINE
8
BLACK
6
CONTINUOUS
10
6.91625
20
-5.51125
11
6.91625
21
-5.62125
0
LINE
8
BLACK
6
CONTINUOUS
10
6.91625
20
-5.62125
11
6.88225
21
-5.62125
0
LINE
8
BLACK
6
CONTINUOUS
10
6.88225
20
-5.62125
11
6.88225
21
-5.75525
0
LINE
8
BLACK
6
CONTINUOUS
10
6.88225
20
-5.75525
11
6.62025
21
-5.75525
0
LINE
8
BLACK
6
CONTINUOUS
10
6.62025
20
-5.75525
11
6.62025
21
-5.72325
0
LINE
8
BLACK
6
CONTINUOUS
10
6.62025
20
-5.72325
11
6.55625
21
-5.72325
0
LINE
8
BLACK
6
CONTINUOUS
10
6.55625
20
-5.72325
11
6.55625
21
-5.80625
0
LINE
8
BLACK
6
CONTINUOUS
10
4.68125
20
-5.72325
11
4.68125
21
-5.80625
0
LINE
8
BLACK
6
CONTINUOUS
10
4.74525
20
-5.72325
11
4.68125
21
-5.72325
0
LINE
8
BLACK
6
CONTINUOUS
10
4.74525
20
-5.75525
11
4.74525
21
-5.72325
0
LINE
8
BLACK
6
CONTINUOUS
10
5.00725
20
-5.75525
11
4.74525
21
-5.75525
0
LINE
8
BLACK
6
CONTINUOUS
10
5.00725
20
-5.62125
11
5.00725
21
-5.75525
0
LINE
8
BLACK
6
CONTINUOUS
10
5.04125
20
-5.62125
11
5.00725
21
-5.62125
0
LINE
8
BLACK
6
CONTINUOUS
10
5.04125
20
-5.51125
11
5.04125
21
-5.62125
0
LINE
8
BLACK
6
CONTINUOUS
10
5.00725
20
-5.51125
11
5.04125
21
-5.51125
0
LINE
8
BLACK
6
CONTINUOUS
10
5.00725
20
-5.27125
11
5.00725
21
-5.51125
0
LINE
8
BLACK
6
CONTINUOUS
10
4.96625
20
-5.27125
11
5.00725
21
-5.27125
0
LINE
8
BLACK
6
CONTINUOUS
10
4.96625
20
-5.22525
11
4.96625
21
-5.27125
0
LINE
8
BLACK
6
CONTINUOUS
10
4.78625
20
-5.22525
11
4.96625
21
-5.22525
0
LINE
8
BLACK
6
CONTINUOUS
10
4.78625
20
-5.27125
11
4.78625
21
-5.22525
0
LINE
8
BLACK
6
CONTINUOUS
10
4.74525
20
-5.27125
11
4.78625
21
-5.27125
0
LINE
8
BLACK
6
CONTINUOUS
10
4.74525
20
-5.30225
11
4.74525
21
-5.27125
0
LINE
8
BLACK
6
CONTINUOUS
10
4.68125
20
-5.30225
11
4.74525
21
-5.30225
0
LINE
8
BLACK
6
CONTINUOUS
10
4.68125
20
-5.25625
11
4.68125
21
-5.30225
0
LINE
8
BLACK
6
CONTINUOUS
10
4.13125
20
-5.25625
11
4.68125
21
-5.25625
0
LINE
8
BLACK
6
CONTINUOUS
10
4.13125
20
-5.30225
11
4.13125
21
-5.25625
0
LINE
8
BLACK
6
CONTINUOUS
10
4.06725
20
-5.30225
11
4.13125
21
-5.30225
0
LINE
8
BLACK
6
CONTINUOUS
10
4.06725
20
-5.27125
11
4.06725
21
-5.30225
0
LINE
8
BLACK
6
CONTINUOUS
10
4.02625
20
-5.27125
11
4.06725
21
-5.27125
0
LINE
8
BLACK
6
CONTINUOUS
10
4.02625
20
-5.22525
11
4.02625
21
-5.27125
0
LINE
8
BLACK
6
CONTINUOUS
10
3.84625
20
-5.22525
11
4.02625
21
-5.22525
0
LINE
8
BLACK
6
CONTINUOUS
10
3.84625
20
-5.27125
11
3.84625
21
-5.22525
0
LINE
8
BLACK
6
CONTINUOUS
10
3.80525
20
-5.27125
11
3.84625
21
-5.27125
0
LINE
8
BLACK
6
CONTINUOUS
10
3.80525
20
-5.51125
11
3.80525
21
-5.27125
0
LINE
8
BLACK
6
CONTINUOUS
10
3.77125
20
-5.51125
11
3.80525
21
-5.51125
0
LINE
8
BLACK
6
CONTINUOUS
10
3.77125
20
-5.62125
11
3.77125
21
-5.51125
0
LINE
8
BLACK
6
CONTINUOUS
10
3.80525
20
-5.62125
11
3.77125
21
-5.62125
0
LINE
8
BLACK
6
CONTINUOUS
10
3.80525
20
-5.75525
11
3.80525
21
-5.62125
0
LINE
8
BLACK
6
CONTINUOUS
10
4.06725
20
-5.75525
11
3.80525
21
-5.75525
0
LINE
8
BLACK
6
CONTINUOUS
10
4.06725
20
-5.72325
11
4.06725
21
-5.75525
0
LINE
8
BLACK
6
CONTINUOUS
10
4.13125
20
-5.72325
11
4.06725
21
-5.72325
0
LINE
8
BLACK
6
CONTINUOUS
10
4.13125
20
-5.80625
11
4.13125
21
-5.72325
0
LINE
8
BLACK
6
CONTINUOUS
10
4.68125
20
-5.80625
11
4.13125
21
-5.80625
0
LINE
8
BLACK
6
CONTINUOUS
10
10.3187
20
-4.50625
11
10.8688
21
-4.50625
0
LINE
8
BLACK
6
CONTINUOUS
10
10.8688
20
-4.50625
11
10.8688
21
-4.58925
0
LINE
8
BLACK
6
CONTINUOUS
10
10.8688
20
-4.58925
11
10.9328
21
-4.58925
0
LINE
8
BLACK
6
CONTINUOUS
10
10.9328
20
-4.58925
11
10.9328
21
-4.55725
0
LINE
8
BLACK
6
CONTINUOUS
10
10.9328
20
-4.55725
11
11.1947
21
-4.55725
0
LINE
8
BLACK
6
CONTINUOUS
10
11.1947
20
-4.55725
11
11.1947
21
-4.69125
0
LINE
8
BLACK
6
CONTINUOUS
10
11.1947
20
-4.69125
11
11.2287
21
-4.69125
0
LINE
8
BLACK
6
CONTINUOUS
10
11.2287
20
-4.69125
11
11.2287
21
-4.80125
0
LINE
8
BLACK
6
CONTINUOUS
10
11.2287
20
-4.80125
11
11.1947
21
-4.80125
0
LINE
8
BLACK
6
CONTINUOUS
10
11.1947
20
-4.80125
11
11.1947
21
-5.04125
0
LINE
8
BLACK
6
CONTINUOUS
10
11.1947
20
-5.04125
11
11.1538
21
-5.04125
0
LINE
8
BLACK
6
CONTINUOUS
10
11.1538
20
-5.04125
11
11.1538
21
-5.08725
0
LINE
8
BLACK
6
CONTINUOUS
10
11.1538
20
-5.08725
11
10.9737
21
-5.08725
0
LINE
8
BLACK
6
CONTINUOUS
10
10.9737
20
-5.08725
11
10.9737
21
-5.04125
0
LINE
8
BLACK
6
CONTINUOUS
10
10.9737
20
-5.04125
11
10.9328
21
-5.04125
0
LINE
8
BLACK
6
CONTINUOUS
10
10.9328
20
-5.04125
11
10.9328
21
-5.01025
0
LINE
8
BLACK
6
CONTINUOUS
10
10.9328
20
-5.01025
11
10.8688
21
-5.01025
0
LINE
8
BLACK
6
CONTINUOUS
10
10.8688
20
-5.01025
11
10.8688
21
-5.05625
0
LINE
8
BLACK
6
CONTINUOUS
10
10.8688
20
-5.05625
11
10.3187
21
-5.05625
0
LINE
8
BLACK
6
CONTINUOUS
10
10.3187
20
-5.05625
11
10.3187
21
-5.01025
0
LINE
8
BLACK
6
CONTINUOUS
10
10.3187
20
-5.01025
11
10.2547
21
-5.01025
0
LINE
8
BLACK
6
CONTINUOUS
10
10.2547
20
-5.01025
11
10.2547
21
-5.04125
0
LINE
8
BLACK
6
CONTINUOUS
10
10.2547
20
-5.04125
11
10.2137
21
-5.04125
0
LINE
8
BLACK
6
CONTINUOUS
10
10.2137
20
-5.04125
11
10.2137
21
-5.08725
0
LINE
8
BLACK
6
CONTINUOUS
10
10.2137
20
-5.08725
11
10.0337
21
-5.08725
0
LINE
8
BLACK
6
CONTINUOUS
10
10.0337
20
-5.08725
11
10.0337
21
-5.04125
0
LINE
8
BLACK
6
CONTINUOUS
10
10.0337
20
-5.04125
11
9.99275
21
-5.04125
0
LINE
8
BLACK
6
CONTINUOUS
10
9.99275
20
-5.04125
11
9.99275
21
-4.80125
0
LINE
8
BLACK
6
CONTINUOUS
10
9.99275
20
-4.80125
11
9.95875
21
-4.80125
0
LINE
8
BLACK
6
CONTINUOUS
10
9.95875
20
-4.80125
11
9.95875
21
-4.69125
0
LINE
8
BLACK
6
CONTINUOUS
10
9.95875
20
-4.69125
11
9.99275
21
-4.69125
0
LINE
8
BLACK
6
CONTINUOUS
10
9.99275
20
-4.69125
11
9.99275
21
-4.55725
0
LINE
8
BLACK
6
CONTINUOUS
10
9.99275
20
-4.55725
11
10.2547
21
-4.55725
0
LINE
8
BLACK
6
CONTINUOUS
10
10.2547
20
-4.55725
11
10.2547
21
-4.58925
0
LINE
8
BLACK
6
CONTINUOUS
10
10.2547
20
-4.58925
11
10.3187
21
-4.58925
0
LINE
8
BLACK
6
CONTINUOUS
10
10.3187
20
-4.58925
11
10.3187
21
-4.50625
0
LINE
8
BLACK
6
CONTINUOUS
10
6.275
20
-5.62125
11
6.275
21
-5.80625
0
LINE
8
BLACK
6
CONTINUOUS
10
8.119
20
-5.62125
11
6.275
21
-5.62125
0
LINE
8
BLACK
6
CONTINUOUS
10
8.119
20
-5.75525
11
8.119
21
-5.62125
0
LINE
8
BLACK
6
CONTINUOUS
10
8.381
20
-5.75525
11
8.119
21
-5.75525
0
LINE
8
BLACK
6
CONTINUOUS
10
8.381
20
-5.62125
11
8.381
21
-5.75525
0
LINE
8
BLACK
6
CONTINUOUS
10
8.415
20
-5.62125
11
8.381
21
-5.62125
0
LINE
8
BLACK
6
CONTINUOUS
10
8.415
20
-5.51125
11
8.415
21
-5.62125
0
LINE
8
BLACK
6
CONTINUOUS
10
8.381
20
-5.51125
11
8.415
21
-5.51125
0
LINE
8
BLACK
6
CONTINUOUS
10
8.381
20
-5.27125
11
8.381
21
-5.51125
0
LINE
8
BLACK
6
CONTINUOUS
10
8.34
20
-5.27125
11
8.381
21
-5.27125
0
LINE
8
BLACK
6
CONTINUOUS
10
8.34
20
-5.22525
11
8.34
21
-5.27125
0
LINE
8
BLACK
6
CONTINUOUS
10
8.16
20
-5.22525
11
8.34
21
-5.22525
0
LINE
8
BLACK
6
CONTINUOUS
10
8.16
20
-5.27125
11
8.16
21
-5.22525
0
LINE
8
BLACK
6
CONTINUOUS
10
8.119
20
-5.27125
11
8.16
21
-5.27125
0
LINE
8
BLACK
6
CONTINUOUS
10
8.119
20
-5.44125
11
8.119
21
-5.27125
0
LINE
8
BLACK
6
CONTINUOUS
10
6.275
20
-5.44125
11
8.119
21
-5.44125
0
LINE
8
BLACK
6
CONTINUOUS
10
6.275
20
-5.25625
11
6.275
21
-5.44125
0
LINE
8
BLACK
6
CONTINUOUS
10
5.725
20
-5.25625
11
6.275
21
-5.25625
0
LINE
8
BLACK
6
CONTINUOUS
10
5.725
20
-5.44125
11
5.725
21
-5.25625
0
LINE
8
BLACK
6
CONTINUOUS
10
3.881
20
-5.44125
11
5.725
21
-5.44125
0
LINE
8
BLACK
6
CONTINUOUS
10
3.881
20
-5.27125
11
3.881
21
-5.44125
0
LINE
8
BLACK
6
CONTINUOUS
10
3.84
20
-5.27125
11
3.881
21
-5.27125
0
LINE
8
BLACK
6
CONTINUOUS
10
3.84
20
-5.22525
11
3.84
21
-5.27125
0
LINE
8
BLACK
6
CONTINUOUS
10
3.66
20
-5.22525
11
3.84
21
-5.22525
0
LINE
8
BLACK
6
CONTINUOUS
10
3.66
20
-5.27125
11
3.66
21
-5.22525
0
LINE
8
BLACK
6
CONTINUOUS
10
3.619
20
-5.27125
11
3.66
21
-5.27125
0
LINE
8
BLACK
6
CONTINUOUS
10
3.619
20
-5.51125
11
3.619
21
-5.27125
0
LINE
8
BLACK
6
CONTINUOUS
10
3.585
20
-5.51125
11
3.619
21
-5.51125
0
LINE
8
BLACK
6
CONTINUOUS
10
3.585
20
-5.62125
11
3.585
21
-5.51125
0
LINE
8
BLACK
6
CONTINUOUS
10
3.619
20
-5.62125
11
3.585
21
-5.62125
0
LINE
8
BLACK
6
CONTINUOUS
10
3.619
20
-5.75525
11
3.619
21
-5.62125
0
LINE
8
BLACK
6
CONTINUOUS
10
3.881
20
-5.75525
11
3.619
21
-5.75525
0
LINE
8
BLACK
6
CONTINUOUS
10
3.881
20
-5.62125
11
3.881
21
-5.75525
0
LINE
8
BLACK
6
CONTINUOUS
10
5.725
20
-5.62125
11
3.881
21
-5.62125
0
LINE
8
BLACK
6
CONTINUOUS
10
5.725
20
-5.80625
11
5.725
21
-5.62125
0
LINE
8
BLACK
6
CONTINUOUS
10
6.275
20
-5.80625
11
5.725
21
-5.80625
0
LINE
8
BLACK
6
CONTINUOUS
10
8.119
20
-5.44125
11
8.119
21
-5.27125
0
LINE
8
BLACK
6
CONTINUOUS
10
8.119
20
-5.27125
11
8.16
21
-5.27125
0
LINE
8
BLACK
6
CONTINUOUS
10
8.16
20
-5.27125
11
8.16
21
-5.22525
0
LINE
8
BLACK
6
CONTINUOUS
10
8.16
20
-5.22525
11
8.34
21
-5.22525
0
LINE
8
BLACK
6
CONTINUOUS
10
8.34
20
-5.22525
11
8.34
21
-5.27125
0
LINE
8
BLACK
6
CONTINUOUS
10
8.34
20
-5.27125
11
8.381
21
-5.27125
0
LINE
8
BLACK
6
CONTINUOUS
10
8.381
20
-5.27125
11
8.381
21
-5.51125
0
LINE
8
BLACK
6
CONTINUOUS
10
8.381
20
-5.62125
11
8.381
21
-5.75525
0
LINE
8
BLACK
6
CONTINUOUS
10
8.381
20
-5.75525
11
8.119
21
-5.75525
0
LINE
8
BLACK
6
CONTINUOUS
10
8.119
20
-5.75525
11
8.119
21
-5.62125
0
LINE
8
BLACK
6
CONTINUOUS
10
7.975
20
-5.80625
11
7.975
21
-5.25625
0
LINE
8
BLACK
6
CONTINUOUS
10
8.525
20
-5.80625
11
7.975
21
-5.80625
0
LINE
8
BLACK
6
CONTINUOUS
10
8.525
20
-5.25625
11
8.525
21
-5.80625
0
LINE
8
BLACK
6
CONTINUOUS
10
7.975
20
-5.25625
11
8.525
21
-5.25625
0
LINE
8
BLACK
6
CONTINUOUS
10
7.225
20
-5.80625
11
7.225
21
-5.25625
0
LINE
8
BLACK
6
CONTINUOUS
10
7.775
20
-5.80625
11
7.225
21
-5.80625
0
LINE
8
BLACK
6
CONTINUOUS
10
7.775
20
-5.25625
11
7.775
21
-5.80625
0
LINE
8
BLACK
6
CONTINUOUS
10
7.225
20
-5.25625
11
7.775
21
-5.25625
0
LINE
8
BLACK
6
CONTINUOUS
10
5.5375
20
-5.80625
11
5.5375
21
-5.25625
0
LINE
8
BLACK
6
CONTINUOUS
10
6.0875
20
-5.80625
11
5.5375
21
-5.80625
0
LINE
8
BLACK
6
CONTINUOUS
10
6.0875
20
-5.25625
11
6.0875
21
-5.80625
0
LINE
8
BLACK
6
CONTINUOUS
10
5.5375
20
-5.25625
11
6.0875
21
-5.25625
0
LINE
8
BLACK
6
CONTINUOUS
10
10.5062
20
-3.83925
11
10.5062
21
-3.75625
0
LINE
8
BLACK
6
CONTINUOUS
10
10.4422
20
-3.83925
11
10.5062
21
-3.83925
0
LINE
8
BLACK
6
CONTINUOUS
10
10.4422
20
-3.80725
11
10.4422
21
-3.83925
0
LINE
8
BLACK
6
CONTINUOUS
10
10.1802
20
-3.80725
11
10.4422
21
-3.80725
0
LINE
8
BLACK
6
CONTINUOUS
10
10.1802
20
-3.94125
11
10.1802
21
-3.80725
0
LINE
8
BLACK
6
CONTINUOUS
10
10.1463
20
-3.94125
11
10.1802
21
-3.94125
0
LINE
8
BLACK
6
CONTINUOUS
10
10.1463
20
-4.05125
11
10.1463
21
-3.94125
0
LINE
8
BLACK
6
CONTINUOUS
10
10.1802
20
-4.05125
11
10.1463
21
-4.05125
0
LINE
8
BLACK
6
CONTINUOUS
10
10.1802
20
-4.29125
11
10.1802
21
-4.05125
0
LINE
8
BLACK
6
CONTINUOUS
10
10.2212
20
-4.29125
11
10.1802
21
-4.29125
0
LINE
8
BLACK
6
CONTINUOUS
10
10.2212
20
-4.33725
11
10.2212
21
-4.29125
0
LINE
8
BLACK
6
CONTINUOUS
10
10.4012
20
-4.33725
11
10.2212
21
-4.33725
0
LINE
8
BLACK
6
CONTINUOUS
10
10.4012
20
-4.29125
11
10.4012
21
-4.33725
0
LINE
8
BLACK
6
CONTINUOUS
10
10.4422
20
-4.29125
11
10.4012
21
-4.29125
0
LINE
8
BLACK
6
CONTINUOUS
10
10.4422
20
-4.26025
11
10.4422
21
-4.29125
0
LINE
8
BLACK
6
CONTINUOUS
10
10.5062
20
-4.26025
11
10.4422
21
-4.26025
0
LINE
8
BLACK
6
CONTINUOUS
10
10.5062
20
-4.30625
11
10.5062
21
-4.26025
0
LINE
8
BLACK
6
CONTINUOUS
10
11.0563
20
-4.30625
11
10.5062
21
-4.30625
0
LINE
8
BLACK
6
CONTINUOUS
10
11.0563
20
-4.26025
11
11.0563
21
-4.30625
0
LINE
8
BLACK
6
CONTINUOUS
10
11.1203
20
-4.26025
11
11.0563
21
-4.26025
0
LINE
8
BLACK
6
CONTINUOUS
10
11.1203
20
-4.29125
11
11.1203
21
-4.26025
0
LINE
8
BLACK
6
CONTINUOUS
10
11.1612
20
-4.29125
11
11.1203
21
-4.29125
0
LINE
8
BLACK
6
CONTINUOUS
10
11.1612
20
-4.33725
11
11.1612
21
-4.29125
0
LINE
8
BLACK
6
CONTINUOUS
10
11.3413
20
-4.33725
11
11.1612
21
-4.33725
0
LINE
8
BLACK
6
CONTINUOUS
10
11.3413
20
-4.29125
11
11.3413
21
-4.33725
0
LINE
8
BLACK
6
CONTINUOUS
10
11.3822
20
-4.29125
11
11.3413
21
-4.29125
0
LINE
8
BLACK
6
CONTINUOUS
10
11.3822
20
-4.05125
11
11.3822
21
-4.29125
0
LINE
8
BLACK
6
CONTINUOUS
10
11.4162
20
-4.05125
11
11.3822
21
-4.05125
0
LINE
8
BLACK
6
CONTINUOUS
10
11.4162
20
-3.94125
11
11.4162
21
-4.05125
0
LINE
8
BLACK
6
CONTINUOUS
10
11.3822
20
-3.94125
11
11.4162
21
-3.94125
0
LINE
8
BLACK
6
CONTINUOUS
10
11.3822
20
-3.80725
11
11.3822
21
-3.94125
0
LINE
8
BLACK
6
CONTINUOUS
10
11.1203
20
-3.80725
11
11.3822
21
-3.80725
0
LINE
8
BLACK
6
CONTINUOUS
10
11.1203
20
-3.83925
11
11.1203
21
-3.80725
0
LINE
8
BLACK
6
CONTINUOUS
10
11.0563
20
-3.83925
11
11.1203
21
-3.83925
0
LINE
8
BLACK
6
CONTINUOUS
10
11.0563
20
-3.75625
11
11.0563
21
-3.83925
0
LINE
8
BLACK
6
CONTINUOUS
10
10.5062
20
-3.75625
11
11.0563
21
-3.75625
0
LINE
8
BLACK
6
CONTINUOUS
10
0.94375
20
-4.58925
11
0.94375
21
-4.50625
0
LINE
8
BLACK
6
CONTINUOUS
10
0.87975
20
-4.58925
11
0.94375
21
-4.58925
0
LINE
8
BLACK
6
CONTINUOUS
10
0.87975
20
-4.55725
11
0.87975
21
-4.58925
0
LINE
8
BLACK
6
CONTINUOUS
10
0.61775
20
-4.55725
11
0.87975
21
-4.55725
0
LINE
8
BLACK
6
CONTINUOUS
10
0.61775
20
-4.69125
11
0.61775
21
-4.55725
0
LINE
8
BLACK
6
CONTINUOUS
10
0.58375
20
-4.69125
11
0.61775
21
-4.69125
0
LINE
8
BLACK
6
CONTINUOUS
10
0.58375
20
-4.80125
11
0.58375
21
-4.69125
0
LINE
8
BLACK
6
CONTINUOUS
10
0.61775
20
-4.80125
11
0.58375
21
-4.80125
0
LINE
8
BLACK
6
CONTINUOUS
10
0.61775
20
-5.04125
11
0.61775
21
-4.80125
0
LINE
8
BLACK
6
CONTINUOUS
10
0.65875
20
-5.04125
11
0.61775
21
-5.04125
0
LINE
8
BLACK
6
CONTINUOUS
10
0.65875
20
-5.08725
11
0.65875
21
-5.04125
0
LINE
8
BLACK
6
CONTINUOUS
10
0.83875
20
-5.08725
11
0.65875
21
-5.08725
0
LINE
8
BLACK
6
CONTINUOUS
10
0.83875
20
-5.04125
11
0.83875
21
-5.08725
0
LINE
8
BLACK
6
CONTINUOUS
10
0.87975
20
-5.04125
11
0.83875
21
-5.04125
0
LINE
8
BLACK
6
CONTINUOUS
10
0.87975
20
-5.01025
11
0.87975
21
-5.04125
0
LINE
8
BLACK
6
CONTINUOUS
10
0.94375
20
-5.01025
11
0.87975
21
-5.01025
0
LINE
8
BLACK
6
CONTINUOUS
10
0.94375
20
-5.05625
11
0.94375
21
-5.01025
0
LINE
8
BLACK
6
CONTINUOUS
10
1.49375
20
-5.05625
11
0.94375
21
-5.05625
0
LINE
8
BLACK
6
CONTINUOUS
10
1.49375
20
-5.01025
11
1.49375
21
-5.05625
0
LINE
8
BLACK
6
CONTINUOUS
10
1.55775
20
-5.01025
11
1.49375
21
-5.01025
0
LINE
8
BLACK
6
CONTINUOUS
10
1.55775
20
-5.04125
11
1.55775
21
-5.01025
0
LINE
8
BLACK
6
CONTINUOUS
10
1.59875
20
-5.04125
11
1.55775
21
-5.04125
0
LINE
8
BLACK
6
CONTINUOUS
10
1.59875
20
-5.08725
11
1.59875
21
-5.04125
0
LINE
8
BLACK
6
CONTINUOUS
10
1.77875
20
-5.08725
11
1.59875
21
-5.08725
0
LINE
8
BLACK
6
CONTINUOUS
10
1.77875
20
-5.04125
11
1.77875
21
-5.08725
0
LINE
8
BLACK
6
CONTINUOUS
10
1.81975
20
-5.04125
11
1.77875
21
-5.04125
0
LINE
8
BLACK
6
CONTINUOUS
10
1.81975
20
-4.80125
11
1.81975
21
-5.04125
0
LINE
8
BLACK
6
CONTINUOUS
10
1.85375
20
-4.80125
11
1.81975
21
-4.80125
0
LINE
8
BLACK
6
CONTINUOUS
10
1.85375
20
-4.69125
11
1.85375
21
-4.80125
0
LINE
8
BLACK
6
CONTINUOUS
10
1.81975
20
-4.69125
11
1.85375
21
-4.69125
0
LINE
8
BLACK
6
CONTINUOUS
10
1.81975
20
-4.55725
11
1.81975
21
-4.69125
0
LINE
8
BLACK
6
CONTINUOUS
10
1.55775
20
-4.55725
11
1.81975
21
-4.55725
0
LINE
8
BLACK
6
CONTINUOUS
10
1.55775
20
-4.58925
11
1.55775
21
-4.55725
0
LINE
8
BLACK
6
CONTINUOUS
10
1.49375
20
-4.58925
11
1.55775
21
-4.58925
0
LINE
8
BLACK
6
CONTINUOUS
10
1.49375
20
-4.50625
11
1.49375
21
-4.58925
0
LINE
8
BLACK
6
CONTINUOUS
10
0.94375
20
-4.50625
11
1.49375
21
-4.50625
0
LINE
8
BLACK
6
CONTINUOUS
10
9.94375
20
-5.05625
11
9.94375
21
-4.50625
0
LINE
8
BLACK
6
CONTINUOUS
10
10.4938
20
-5.05625
11
9.94375
21
-5.05625
0
LINE
8
BLACK
6
CONTINUOUS
10
10.4938
20
-4.50625
11
10.4938
21
-5.05625
0
LINE
8
BLACK
6
CONTINUOUS
10
9.94375
20
-4.50625
11
10.4938
21
-4.50625
0
LINE
8
BLACK
6
CONTINUOUS
10
9.19375
20
-5.05625
11
9.19375
21
-4.50625
0
LINE
8
BLACK
6
CONTINUOUS
10
9.74375
20
-5.05625
11
9.19375
21
-5.05625
0
LINE
8
BLACK
6
CONTINUOUS
10
9.74375
20
-4.50625
11
9.74375
21
-5.05625
0
LINE
8
BLACK
6
CONTINUOUS
10
9.19375
20
-4.50625
11
9.74375
21
-4.50625
0
LINE
8
BLACK
6
CONTINUOUS
10
0.75625
20
-4.30625
11
0.75625
21
-3.75625
0
LINE
8
BLACK
6
CONTINUOUS
10
1.30625
20
-4.30625
11
0.75625
21
-4.30625
0
LINE
8
BLACK
6
CONTINUOUS
10
1.30625
20
-3.75625
11
1.30625
21
-4.30625
0
LINE
8
BLACK
6
CONTINUOUS
10
0.75625
20
-3.75625
11
1.30625
21
-3.75625
0
LINE
8
BLACK
6
CONTINUOUS
10
2.5375
20
-5.80625
11
2.5375
21
-5.25625
0
LINE
8
BLACK
6
CONTINUOUS
10
3.0875
20
-5.80625
11
2.5375
21
-5.80625
0
LINE
8
BLACK
6
CONTINUOUS
10
3.0875
20
-5.25625
11
3.0875
21
-5.80625
0
LINE
8
BLACK
6
CONTINUOUS
10
2.5375
20
-5.25625
11
3.0875
21
-5.25625
0
LINE
8
BLACK
6
CONTINUOUS
10
0.6625
20
-5.80625
11
0.6625
21
-5.25625
0
LINE
8
BLACK
6
CONTINUOUS
10
1.2125
20
-5.80625
11
0.6625
21
-5.80625
0
LINE
8
BLACK
6
CONTINUOUS
10
1.2125
20
-5.25625
11
1.2125
21
-5.80625
0
LINE
8
BLACK
6
CONTINUOUS
10
0.6625
20
-5.25625
11
1.2125
21
-5.25625
0
LINE
8
BLACK
6
CONTINUOUS
10
10.7875
20
-5.80625
11
10.7875
21
-5.25625
0
LINE
8
BLACK
6
CONTINUOUS
10
11.3375
20
-5.80625
11
10.7875
21
-5.80625
0
LINE
8
BLACK
6
CONTINUOUS
10
11.3375
20
-5.25625
11
11.3375
21
-5.80625
0
LINE
8
BLACK
6
CONTINUOUS
10
10.7875
20
-5.25625
11
11.3375
21
-5.25625
0
LINE
8
BLACK
6
CONTINUOUS
10
10.7875
20
-3.55625
11
10.7875
21
-3.00625
0
LINE
8
BLACK
6
CONTINUOUS
10
11.3375
20
-3.55625
11
10.7875
21
-3.55625
0
LINE
8
BLACK
6
CONTINUOUS
10
11.3375
20
-3.00625
11
11.3375
21
-3.55625
0
LINE
8
BLACK
6
CONTINUOUS
10
10.7875
20
-3.00625
11
11.3375
21
-3.00625
0
LINE
8
BLACK
6
CONTINUOUS
10
8.9125
20
-5.80625
11
8.9125
21
-5.25625
0
LINE
8
BLACK
6
CONTINUOUS
10
9.4625
20
-5.80625
11
8.9125
21
-5.80625
0
LINE
8
BLACK
6
CONTINUOUS
10
9.4625
20
-5.25625
11
9.4625
21
-5.80625
0
LINE
8
BLACK
6
CONTINUOUS
10
8.9125
20
-5.25625
11
9.4625
21
-5.25625
0
LINE
8
BLACK
6
CONTINUOUS
10
0.6625
20
-3.55625
11
0.6625
21
-3.00625
0
LINE
8
BLACK
6
CONTINUOUS
10
1.2125
20
-3.55625
11
0.6625
21
-3.55625
0
LINE
8
BLACK
6
CONTINUOUS
10
1.2125
20
-3.00625
11
1.2125
21
-3.55625
0
LINE
8
BLACK
6
CONTINUOUS
10
0.6625
20
-3.00625
11
1.2125
21
-3.00625
0
LINE
8
BLACK
6
CONTINUOUS
10
2.35
20
-3.00625
11
2.9
21
-3.00625
0
LINE
8
BLACK
6
CONTINUOUS
10
2.9
20
-3.00625
11
2.9
21
-3.55625
0
LINE
8
BLACK
6
CONTINUOUS
10
2.9
20
-3.55625
11
2.35
21
-3.55625
0
LINE
8
BLACK
6
CONTINUOUS
10
2.35
20
-3.55625
11
2.35
21
-3.00625
0
LINE
8
BLACK
6
CONTINUOUS
10
10.975
20
-5.25625
11
11.525
21
-5.25625
0
LINE
8
BLACK
6
CONTINUOUS
10
11.525
20
-5.25625
11
11.525
21
-5.80625
0
LINE
8
BLACK
6
CONTINUOUS
10
11.525
20
-5.80625
11
10.975
21
-5.80625
0
LINE
8
BLACK
6
CONTINUOUS
10
10.975
20
-5.80625
11
10.975
21
-5.25625
0
LINE
8
BLACK
6
CONTINUOUS
10
10.225
20
-5.25625
11
10.775
21
-5.25625
0
LINE
8
BLACK
6
CONTINUOUS
10
10.775
20
-5.25625
11
10.775
21
-5.80625
0
LINE
8
BLACK
6
CONTINUOUS
10
10.775
20
-5.80625
11
10.225
21
-5.80625
0
LINE
8
BLACK
6
CONTINUOUS
10
10.225
20
-5.80625
11
10.225
21
-5.25625
0
LINE
8
BLACK
6
CONTINUOUS
10
10.975
20
-4.50625
11
11.525
21
-4.50625
0
LINE
8
BLACK
6
CONTINUOUS
10
11.525
20
-4.50625
11
11.525
21
-5.05625
0
LINE
8
BLACK
6
CONTINUOUS
10
11.525
20
-5.05625
11
10.975
21
-5.05625
0
LINE
8
BLACK
6
CONTINUOUS
10
10.975
20
-5.05625
11
10.975
21
-4.50625
0
LINE
8
BLACK
6
CONTINUOUS
10
9.6625
20
-4.50625
11
10.2125
21
-4.50625
0
LINE
8
BLACK
6
CONTINUOUS
10
10.2125
20
-4.50625
11
10.2125
21
-5.05625
0
LINE
8
BLACK
6
CONTINUOUS
10
10.2125
20
-5.05625
11
9.6625
21
-5.05625
0
LINE
8
BLACK
6
CONTINUOUS
10
9.6625
20
-5.05625
11
9.6625
21
-4.50625
0
LINE
8
BLACK
6
CONTINUOUS
10
9.85
20
-3.00625
11
10.4
21
-3.00625
0
LINE
8
BLACK
6
CONTINUOUS
10
10.4
20
-3.00625
11
10.4
21
-3.55625
0
LINE
8
BLACK
6
CONTINUOUS
10
10.4
20
-3.55625
11
9.85
21
-3.55625
0
LINE
8
BLACK
6
CONTINUOUS
10
9.85
20
-3.55625
11
9.85
21
-3.00625
0
LINE
8
BLACK
6
CONTINUOUS
10
9.475
20
-5.25625
11
10.025
21
-5.25625
0
LINE
8
BLACK
6
CONTINUOUS
10
10.025
20
-5.25625
11
10.025
21
-5.80625
0
LINE
8
BLACK
6
CONTINUOUS
10
10.025
20
-5.80625
11
9.475
21
-5.80625
0
LINE
8
BLACK
6
CONTINUOUS
10
9.475
20
-5.80625
11
9.475
21
-5.25625
0
LINE
8
BLACK
6
CONTINUOUS
10
8.725
20
-5.25625
11
9.275
21
-5.25625
0
LINE
8
BLACK
6
CONTINUOUS
10
9.275
20
-5.25625
11
9.275
21
-5.80625
0
LINE
8
BLACK
6
CONTINUOUS
10
9.275
20
-5.80625
11
8.725
21
-5.80625
0
LINE
8
BLACK
6
CONTINUOUS
10
8.725
20
-5.80625
11
8.725
21
-5.25625
0
LINE
8
BLACK
6
CONTINUOUS
10
8.9125
20
-4.50625
11
9.4625
21
-4.50625
0
LINE
8
BLACK
6
CONTINUOUS
10
9.4625
20
-4.50625
11
9.4625
21
-5.05625
0
LINE
8
BLACK
6
CONTINUOUS
10
9.4625
20
-5.05625
11
8.9125
21
-5.05625
0
LINE
8
BLACK
6
CONTINUOUS
10
8.9125
20
-5.05625
11
8.9125
21
-4.50625
0
LINE
8
BLACK
6
CONTINUOUS
10
9.2875
20
-3.75625
11
9.8375
21
-3.75625
0
LINE
8
BLACK
6
CONTINUOUS
10
9.8375
20
-3.75625
11
9.8375
21
-4.30625
0
LINE
8
BLACK
6
CONTINUOUS
10
9.8375
20
-4.30625
11
9.2875
21
-4.30625
0
LINE
8
BLACK
6
CONTINUOUS
10
9.2875
20
-4.30625
11
9.2875
21
-3.75625
0
LINE
8
BLACK
6
CONTINUOUS
10
8.5375
20
-3.75625
11
9.0875
21
-3.75625
0
LINE
8
BLACK
6
CONTINUOUS
10
9.0875
20
-3.75625
11
9.0875
21
-4.30625
0
LINE
8
BLACK
6
CONTINUOUS
10
9.0875
20
-4.30625
11
8.5375
21
-4.30625
0
LINE
8
BLACK
6
CONTINUOUS
10
8.5375
20
-4.30625
11
8.5375
21
-3.75625
0
LINE
8
BLACK
6
CONTINUOUS
10
9.1
20
-3.00625
11
9.65
21
-3.00625
0
LINE
8
BLACK
6
CONTINUOUS
10
9.65
20
-3.00625
11
9.65
21
-3.55625
0
LINE
8
BLACK
6
CONTINUOUS
10
9.65
20
-3.55625
11
9.1
21
-3.55625
0
LINE
8
BLACK
6
CONTINUOUS
10
9.1
20
-3.55625
11
9.1
21
-3.00625
0
LINE
8
BLACK
6
CONTINUOUS
10
8.35
20
-3.00625
11
8.9
21
-3.00625
0
LINE
8
BLACK
6
CONTINUOUS
10
8.9
20
-3.00625
11
8.9
21
-3.55625
0
LINE
8
BLACK
6
CONTINUOUS
10
8.9
20
-3.55625
11
8.35
21
-3.55625
0
LINE
8
BLACK
6
CONTINUOUS
10
8.35
20
-3.55625
11
8.35
21
-3.00625
0
LINE
8
BLACK
6
CONTINUOUS
10
8.1625
20
-4.50625
11
8.7125
21
-4.50625
0
LINE
8
BLACK
6
CONTINUOUS
10
8.7125
20
-4.50625
11
8.7125
21
-5.05625
0
LINE
8
BLACK
6
CONTINUOUS
10
8.7125
20
-5.05625
11
8.1625
21
-5.05625
0
LINE
8
BLACK
6
CONTINUOUS
10
8.1625
20
-5.05625
11
8.1625
21
-4.50625
0
LINE
8
BLACK
6
CONTINUOUS
10
7.4125
20
-4.50625
11
7.9625
21
-4.50625
0
LINE
8
BLACK
6
CONTINUOUS
10
7.9625
20
-4.50625
11
7.9625
21
-5.05625
0
LINE
8
BLACK
6
CONTINUOUS
10
7.9625
20
-5.05625
11
7.4125
21
-5.05625
0
LINE
8
BLACK
6
CONTINUOUS
10
7.4125
20
-5.05625
11
7.4125
21
-4.50625
0
LINE
8
BLACK
6
CONTINUOUS
10
7.7875
20
-3.75625
11
8.3375
21
-3.75625
0
LINE
8
BLACK
6
CONTINUOUS
10
8.3375
20
-3.75625
11
8.3375
21
-4.30625
0
LINE
8
BLACK
6
CONTINUOUS
10
8.3375
20
-4.30625
11
7.7875
21
-4.30625
0
LINE
8
BLACK
6
CONTINUOUS
10
7.7875
20
-4.30625
11
7.7875
21
-3.75625
0
LINE
8
BLACK
6
CONTINUOUS
10
7.0375
20
-3.75625
11
7.5875
21
-3.75625
0
LINE
8
BLACK
6
CONTINUOUS
10
7.5875
20
-3.75625
11
7.5875
21
-4.30625
0
LINE
8
BLACK
6
CONTINUOUS
10
7.5875
20
-4.30625
11
7.0375
21
-4.30625
0
LINE
8
BLACK
6
CONTINUOUS
10
7.0375
20
-4.30625
11
7.0375
21
-3.75625
0
LINE
8
BLACK
6
CONTINUOUS
10
7.6
20
-3.00625
11
8.15
21
-3.00625
0
LINE
8
BLACK
6
CONTINUOUS
10
8.15
20
-3.00625
11
8.15
21
-3.55625
0
LINE
8
BLACK
6
CONTINUOUS
10
8.15
20
-3.55625
11
7.6
21
-3.55625
0
LINE
8
BLACK
6
CONTINUOUS
10
7.6
20
-3.55625
11
7.6
21
-3.00625
0
LINE
8
BLACK
6
CONTINUOUS
10
6.6625
20
-4.50625
11
7.2125
21
-4.50625
0
LINE
8
BLACK
6
CONTINUOUS
10
7.2125
20
-4.50625
11
7.2125
21
-5.05625
0
LINE
8
BLACK
6
CONTINUOUS
10
7.2125
20
-5.05625
11
6.6625
21
-5.05625
0
LINE
8
BLACK
6
CONTINUOUS
10
6.6625
20
-5.05625
11
6.6625
21
-4.50625
0
LINE
8
BLACK
6
CONTINUOUS
10
5.9125
20
-4.50625
11
6.4625
21
-4.50625
0
LINE
8
BLACK
6
CONTINUOUS
10
6.4625
20
-4.50625
11
6.4625
21
-5.05625
0
LINE
8
BLACK
6
CONTINUOUS
10
6.4625
20
-5.05625
11
5.9125
21
-5.05625
0
LINE
8
BLACK
6
CONTINUOUS
10
5.9125
20
-5.05625
11
5.9125
21
-4.50625
0
LINE
8
BLACK
6
CONTINUOUS
10
6.2875
20
-3.75625
11
6.8375
21
-3.75625
0
LINE
8
BLACK
6
CONTINUOUS
10
6.8375
20
-3.75625
11
6.8375
21
-4.30625
0
LINE
8
BLACK
6
CONTINUOUS
10
6.8375
20
-4.30625
11
6.2875
21
-4.30625
0
LINE
8
BLACK
6
CONTINUOUS
10
6.2875
20
-4.30625
11
6.2875
21
-3.75625
0
LINE
8
BLACK
6
CONTINUOUS
10
6.85
20
-3.00625
11
7.4
21
-3.00625
0
LINE
8
BLACK
6
CONTINUOUS
10
7.4
20
-3.00625
11
7.4
21
-3.55625
0
LINE
8
BLACK
6
CONTINUOUS
10
7.4
20
-3.55625
11
6.85
21
-3.55625
0
LINE
8
BLACK
6
CONTINUOUS
10
6.85
20
-3.55625
11
6.85
21
-3.00625
0
LINE
8
BLACK
6
CONTINUOUS
10
6.1
20
-3.00625
11
6.65
21
-3.00625
0
LINE
8
BLACK
6
CONTINUOUS
10
6.65
20
-3.00625
11
6.65
21
-3.55625
0
LINE
8
BLACK
6
CONTINUOUS
10
6.65
20
-3.55625
11
6.1
21
-3.55625
0
LINE
8
BLACK
6
CONTINUOUS
10
6.1
20
-3.55625
11
6.1
21
-3.00625
0
LINE
8
BLACK
6
CONTINUOUS
10
5.1625
20
-4.50625
11
5.7125
21
-4.50625
0
LINE
8
BLACK
6
CONTINUOUS
10
5.7125
20
-4.50625
11
5.7125
21
-5.05625
0
LINE
8
BLACK
6
CONTINUOUS
10
5.7125
20
-5.05625
11
5.1625
21
-5.05625
0
LINE
8
BLACK
6
CONTINUOUS
10
5.1625
20
-5.05625
11
5.1625
21
-4.50625
0
LINE
8
BLACK
6
CONTINUOUS
10
4.4125
20
-4.50625
11
4.9625
21
-4.50625
0
LINE
8
BLACK
6
CONTINUOUS
10
4.9625
20
-4.50625
11
4.9625
21
-5.05625
0
LINE
8
BLACK
6
CONTINUOUS
10
4.9625
20
-5.05625
11
4.4125
21
-5.05625
0
LINE
8
BLACK
6
CONTINUOUS
10
4.4125
20
-5.05625
11
4.4125
21
-4.50625
0
LINE
8
BLACK
6
CONTINUOUS
10
5.5375
20
-3.75625
11
6.0875
21
-3.75625
0
LINE
8
BLACK
6
CONTINUOUS
10
6.0875
20
-3.75625
11
6.0875
21
-4.30625
0
LINE
8
BLACK
6
CONTINUOUS
10
6.0875
20
-4.30625
11
5.5375
21
-4.30625
0
LINE
8
BLACK
6
CONTINUOUS
10
5.5375
20
-4.30625
11
5.5375
21
-3.75625
0
LINE
8
BLACK
6
CONTINUOUS
10
4.7875
20
-3.75625
11
5.3375
21
-3.75625
0
LINE
8
BLACK
6
CONTINUOUS
10
5.3375
20
-3.75625
11
5.3375
21
-4.30625
0
LINE
8
BLACK
6
CONTINUOUS
10
5.3375
20
-4.30625
11
4.7875
21
-4.30625
0
LINE
8
BLACK
6
CONTINUOUS
10
4.7875
20
-4.30625
11
4.7875
21
-3.75625
0
LINE
8
BLACK
6
CONTINUOUS
10
5.35
20
-3.00625
11
5.9
21
-3.00625
0
LINE
8
BLACK
6
CONTINUOUS
10
5.9
20
-3.00625
11
5.9
21
-3.55625
0
LINE
8
BLACK
6
CONTINUOUS
10
5.9
20
-3.55625
11
5.35
21
-3.55625
0
LINE
8
BLACK
6
CONTINUOUS
10
5.35
20
-3.55625
11
5.35
21
-3.00625
0
LINE
8
BLACK
6
CONTINUOUS
10
4.6
20
-3.00625
11
5.15
21
-3.00625
0
LINE
8
BLACK
6
CONTINUOUS
10
5.15
20
-3.00625
11
5.15
21
-3.55625
0
LINE
8
BLACK
6
CONTINUOUS
10
5.15
20
-3.55625
11
4.6
21
-3.55625
0
LINE
8
BLACK
6
CONTINUOUS
10
4.6
20
-3.55625
11
4.6
21
-3.00625
0
LINE
8
BLACK
6
CONTINUOUS
10
3.6625
20
-4.50625
11
4.2125
21
-4.50625
0
LINE
8
BLACK
6
CONTINUOUS
10
4.2125
20
-4.50625
11
4.2125
21
-5.05625
0
LINE
8
BLACK
6
CONTINUOUS
10
4.2125
20
-5.05625
11
3.6625
21
-5.05625
0
LINE
8
BLACK
6
CONTINUOUS
10
3.6625
20
-5.05625
11
3.6625
21
-4.50625
0
LINE
8
BLACK
6
CONTINUOUS
10
4.0375
20
-3.75625
11
4.5875
21
-3.75625
0
LINE
8
BLACK
6
CONTINUOUS
10
4.5875
20
-3.75625
11
4.5875
21
-4.30625
0
LINE
8
BLACK
6
CONTINUOUS
10
4.5875
20
-4.30625
11
4.0375
21
-4.30625
0
LINE
8
BLACK
6
CONTINUOUS
10
4.0375
20
-4.30625
11
4.0375
21
-3.75625
0
LINE
8
BLACK
6
CONTINUOUS
10
3.2875
20
-3.75625
11
3.8375
21
-3.75625
0
LINE
8
BLACK
6
CONTINUOUS
10
3.8375
20
-3.75625
11
3.8375
21
-4.30625
0
LINE
8
BLACK
6
CONTINUOUS
10
3.8375
20
-4.30625
11
3.2875
21
-4.30625
0
LINE
8
BLACK
6
CONTINUOUS
10
3.2875
20
-4.30625
11
3.2875
21
-3.75625
0
LINE
8
BLACK
6
CONTINUOUS
10
3.85
20
-3.00625
11
4.4
21
-3.00625
0
LINE
8
BLACK
6
CONTINUOUS
10
4.4
20
-3.00625
11
4.4
21
-3.55625
0
LINE
8
BLACK
6
CONTINUOUS
10
4.4
20
-3.55625
11
3.85
21
-3.55625
0
LINE
8
BLACK
6
CONTINUOUS
10
3.85
20
-3.55625
11
3.85
21
-3.00625
0
LINE
8
BLACK
6
CONTINUOUS
10
3.1
20
-3.00625
11
3.65
21
-3.00625
0
LINE
8
BLACK
6
CONTINUOUS
10
3.65
20
-3.00625
11
3.65
21
-3.55625
0
LINE
8
BLACK
6
CONTINUOUS
10
3.65
20
-3.55625
11
3.1
21
-3.55625
0
LINE
8
BLACK
6
CONTINUOUS
10
3.1
20
-3.55625
11
3.1
21
-3.00625
0
LINE
8
BLACK
6
CONTINUOUS
10
2.9125
20
-4.50625
11
3.4625
21
-4.50625
0
LINE
8
BLACK
6
CONTINUOUS
10
3.4625
20
-4.50625
11
3.4625
21
-5.05625
0
LINE
8
BLACK
6
CONTINUOUS
10
3.4625
20
-5.05625
11
2.9125
21
-5.05625
0
LINE
8
BLACK
6
CONTINUOUS
10
2.9125
20
-5.05625
11
2.9125
21
-4.50625
0
LINE
8
BLACK
6
CONTINUOUS
10
2.1625
20
-4.50625
11
2.7125
21
-4.50625
0
LINE
8
BLACK
6
CONTINUOUS
10
2.7125
20
-4.50625
11
2.7125
21
-5.05625
0
LINE
8
BLACK
6
CONTINUOUS
10
2.7125
20
-5.05625
11
2.1625
21
-5.05625
0
LINE
8
BLACK
6
CONTINUOUS
10
2.1625
20
-5.05625
11
2.1625
21
-4.50625
0
LINE
8
BLACK
6
CONTINUOUS
10
2.5375
20
-3.75625
11
3.0875
21
-3.75625
0
LINE
8
BLACK
6
CONTINUOUS
10
3.0875
20
-3.75625
11
3.0875
21
-4.30625
0
LINE
8
BLACK
6
CONTINUOUS
10
3.0875
20
-4.30625
11
2.5375
21
-4.30625
0
LINE
8
BLACK
6
CONTINUOUS
10
2.5375
20
-4.30625
11
2.5375
21
-3.75625
0
LINE
8
BLACK
6
CONTINUOUS
10
1.7875
20
-3.75625
11
2.3375
21
-3.75625
0
LINE
8
BLACK
6
CONTINUOUS
10
2.3375
20
-3.75625
11
2.3375
21
-4.30625
0
LINE
8
BLACK
6
CONTINUOUS
10
2.3375
20
-4.30625
11
1.7875
21
-4.30625
0
LINE
8
BLACK
6
CONTINUOUS
10
1.7875
20
-4.30625
11
1.7875
21
-3.75625
0
LINE
8
BLACK
6
CONTINUOUS
10
1.6
20
-5.25625
11
2.15
21
-5.25625
0
LINE
8
BLACK
6
CONTINUOUS
10
2.15
20
-5.25625
11
2.15
21
-5.80625
0
LINE
8
BLACK
6
CONTINUOUS
10
2.15
20
-5.80625
11
1.6
21
-5.80625
0
LINE
8
BLACK
6
CONTINUOUS
10
1.6
20
-5.80625
11
1.6
21
-5.25625
0
LINE
8
BLACK
6
CONTINUOUS
10
1.6
20
-3.00625
11
2.15
21
-3.00625
0
LINE
8
BLACK
6
CONTINUOUS
10
2.15
20
-3.00625
11
2.15
21
-3.55625
0
LINE
8
BLACK
6
CONTINUOUS
10
2.15
20
-3.55625
11
1.6
21
-3.55625
0
LINE
8
BLACK
6
CONTINUOUS
10
1.6
20
-3.55625
11
1.6
21
-3.00625
0
LINE
8
BLACK
6
CONTINUOUS
10
9.85
20
-5.25625
11
10.4
21
-5.25625
0
LINE
8
BLACK
6
CONTINUOUS
10
10.4
20
-5.25625
11
10.4
21
-5.80625
0
LINE
8
BLACK
6
CONTINUOUS
10
10.4
20
-5.80625
11
9.85
21
-5.80625
0
LINE
8
BLACK
6
CONTINUOUS
10
9.85
20
-5.80625
11
9.85
21
-5.25625
  0
ENDSEC
  0
EOF
