M48
; DRILL file {KiCad (5.1.9-0-10_14)} date Wednesday, July 28, 2021 at 08:51:07 PM
; FORMAT={-:-/ absolute / metric / decimal}
; #@! TF.CreationDate,2021-07-28T20:51:07+02:00
; #@! TF.GenerationSoftware,Kicad,Pcbnew,(5.1.9-0-10_14)
; #@! TF.FileFunction,Plated,1,2,PTH
FMAT,2
METRIC
T1C0.350
T2C0.400
T3C0.600
T4C0.700
T5C0.710
T6C0.800
T7C0.900
T8C1.000
T9C1.100
T10C1.499
%
G90
G05
T2
X25.137Y-58.945
X25.137Y-60.295
X25.987Y-58.945
X25.987Y-60.295
X26.837Y-58.945
X26.837Y-60.295
X27.687Y-58.945
X27.687Y-60.295
X28.537Y-58.945
X28.537Y-60.295
X29.387Y-58.945
X29.387Y-60.295
X30.237Y-58.945
X30.237Y-60.295
X31.087Y-58.945
X31.087Y-60.295
X35.481Y-62.151
X95.726Y-91.678
X96.203Y-56.436
X99.298Y-65.246
X103.108Y-63.341
X103.108Y-64.294
X107.871Y-62.865
X107.871Y-65.484
X117.396Y-70.961
X120.015Y-73.581
X120.729Y-70.009
X120.968Y-62.865
X156.686Y-71.914
X156.924Y-58.341
X156.924Y-60.96
X156.924Y-65.484
X160.972Y-73.104
X164.968Y-61.912
X166.688Y-62.389
X166.926Y-76.676
X179.546Y-67.389
X181.451Y-71.914
X181.927Y-59.055
X187.404Y-67.389
X188.119Y-75.009
X192.405Y-65.008
X193.357Y-67.151
X193.357Y-75.724
X195.739Y-65.484
X202.882Y-74.057
X204.549Y-65.961
X218.123Y-91.202
X232.41Y-98.584
X268.129Y-57.15
T3
X161.0Y-58.746
X161.0Y-60.246
T4
X24.389Y-67.866
X24.389Y-70.009
X26.509Y-63.089
X27.309Y-61.339
X28.109Y-63.089
X28.909Y-61.339
X29.709Y-63.089
X32.009Y-67.866
X32.009Y-70.009
X168.593Y-64.5
X168.593Y-67.0
X168.593Y-69.532
X168.593Y-72.0
X176.213Y-64.5
X176.213Y-67.0
X176.213Y-69.532
X176.213Y-72.0
X272.0Y-59.531
X272.0Y-67.151
X274.5Y-59.531
X274.5Y-67.151
T5
X102.46Y-70.961
X107.54Y-70.961
T6
X38.1Y-59.531
X38.1Y-67.151
X40.481Y-61.912
X40.481Y-69.532
X42.862Y-59.531
X42.862Y-67.151
X45.244Y-61.912
X45.244Y-69.532
X47.625Y-59.531
X47.625Y-67.151
X50.006Y-61.912
X50.006Y-69.532
X52.387Y-59.531
X52.387Y-67.151
X54.769Y-61.912
X54.769Y-69.532
X57.15Y-59.531
X57.15Y-67.151
X59.531Y-61.912
X59.531Y-69.532
X61.912Y-59.531
X61.912Y-67.151
X64.294Y-61.912
X64.294Y-69.532
X66.675Y-59.531
X66.675Y-67.151
X69.056Y-61.912
X69.056Y-69.532
X71.438Y-59.531
X71.438Y-67.151
X73.819Y-61.912
X73.819Y-69.532
X76.2Y-59.531
X76.2Y-67.151
X78.581Y-61.912
X78.581Y-69.532
X80.962Y-59.531
X80.962Y-67.151
X83.344Y-61.912
X83.344Y-69.532
X85.725Y-59.531
X85.725Y-67.151
X88.106Y-61.912
X88.106Y-69.532
X90.487Y-59.531
X90.487Y-67.151
X92.869Y-61.912
X92.869Y-69.532
X95.25Y-59.531
X95.25Y-67.151
X114.48Y-58.5
X114.48Y-66.12
X117.02Y-58.5
X117.02Y-66.12
X119.56Y-58.5
X119.56Y-66.12
X122.1Y-58.5
X122.1Y-66.12
X122.75Y-69.25
X122.75Y-71.75
X124.64Y-58.5
X124.64Y-66.12
X127.18Y-58.5
X127.18Y-66.12
X127.517Y-70.485
X129.72Y-58.5
X129.72Y-66.12
X132.26Y-58.5
X132.26Y-66.12
X132.398Y-70.485
X134.8Y-58.5
X134.8Y-66.12
X137.25Y-69.25
X137.25Y-71.75
X137.34Y-58.5
X137.34Y-66.12
X139.88Y-58.5
X139.88Y-66.12
X142.42Y-58.5
X142.42Y-66.12
X144.96Y-58.5
X144.96Y-66.12
X147.5Y-58.5
X147.5Y-66.12
X159.5Y-66.0
X159.5Y-71.0
X162.5Y-66.0
X162.5Y-71.0
X168.593Y-58.579
X168.593Y-60.96
X176.213Y-58.579
X176.213Y-60.96
X209.55Y-59.531
X209.55Y-67.151
X211.931Y-61.912
X211.931Y-69.532
X214.312Y-59.531
X214.312Y-67.151
X216.694Y-61.912
X216.694Y-69.532
X219.075Y-59.531
X219.075Y-67.151
X219.075Y-135.731
X219.075Y-143.351
X221.456Y-61.912
X221.456Y-69.532
X223.837Y-59.531
X223.837Y-67.151
X226.219Y-61.912
X226.219Y-69.532
X228.6Y-59.531
X228.6Y-67.151
X230.981Y-61.912
X230.981Y-69.532
X233.362Y-59.531
X233.362Y-67.151
X235.744Y-61.912
X235.744Y-69.532
X238.125Y-59.531
X238.125Y-67.151
X240.506Y-61.912
X240.506Y-69.532
X242.887Y-59.531
X242.887Y-67.151
X245.269Y-61.912
X245.269Y-69.532
X247.65Y-59.531
X247.65Y-67.151
X250.031Y-61.912
X250.031Y-69.532
X252.412Y-59.531
X252.412Y-67.151
X254.794Y-61.912
X254.794Y-69.532
X257.175Y-59.531
X257.175Y-67.151
X259.556Y-61.912
X259.556Y-69.532
X261.938Y-59.531
X261.938Y-67.151
X264.319Y-61.912
X264.319Y-69.532
X266.7Y-59.531
X266.7Y-67.151
T7
X280.988Y-59.96
X280.988Y-62.5
X280.988Y-66.675
X280.988Y-69.215
T8
X191.452Y-68.659
X191.452Y-71.199
X193.992Y-68.659
X193.992Y-71.199
X196.532Y-68.659
X196.532Y-71.199
T9
X185.5Y-58.5
X185.5Y-63.0
X192.0Y-58.5
X192.0Y-63.0
X196.0Y-58.5
X196.0Y-63.0
X202.5Y-58.5
X202.5Y-63.0
T10
X20.002Y-80.804
X20.002Y-137.954
X22.384Y-99.854
X26.352Y-78.264
X26.352Y-135.414
X27.146Y-118.904
X28.734Y-97.314
X33.496Y-116.364
X43.815Y-80.804
X43.815Y-137.954
X48.578Y-99.854
X50.165Y-78.264
X50.165Y-135.414
X54.927Y-97.314
X58.102Y-118.904
X62.865Y-80.804
X64.453Y-116.364
X67.627Y-99.854
X67.627Y-137.954
X69.215Y-78.264
X73.977Y-97.314
X73.977Y-135.414
X77.153Y-118.904
X81.915Y-80.804
X83.502Y-116.364
X86.677Y-99.854
X88.265Y-78.264
X93.027Y-97.314
X96.203Y-118.904
X100.965Y-80.804
X102.552Y-116.364
X105.727Y-99.854
X107.315Y-78.264
X108.109Y-137.954
X112.078Y-97.314
X114.459Y-135.414
X115.252Y-118.904
X120.015Y-80.804
X121.602Y-116.364
X124.777Y-99.854
X126.365Y-78.264
X131.127Y-97.314
X134.302Y-118.904
X139.065Y-80.804
X140.653Y-116.364
X143.827Y-99.854
X143.827Y-137.954
X145.415Y-78.264
X148.59Y-137.954
X150.177Y-97.314
X150.177Y-135.414
X153.352Y-118.904
X154.94Y-135.414
X155.734Y-137.954
X158.115Y-80.804
X159.702Y-116.364
X162.084Y-135.414
X162.877Y-99.854
X164.465Y-78.264
X169.227Y-97.314
X172.403Y-118.904
X174.784Y-137.954
X177.165Y-80.804
X178.752Y-116.364
X181.134Y-135.414
X181.927Y-99.854
X183.515Y-78.264
X186.69Y-137.954
X188.278Y-97.314
X191.452Y-118.904
X193.04Y-135.414
X196.215Y-80.804
X197.802Y-116.364
X200.977Y-99.854
X202.565Y-78.264
X205.74Y-137.954
X207.327Y-97.314
X210.502Y-118.904
X212.09Y-135.414
X215.265Y-80.804
X216.852Y-116.364
X220.028Y-99.854
X221.615Y-78.264
X224.79Y-137.954
X226.377Y-97.314
X229.552Y-118.904
X229.552Y-137.954
X231.14Y-135.414
X234.315Y-80.804
X235.903Y-116.364
X235.903Y-135.414
X236.696Y-118.904
X239.077Y-99.854
X240.665Y-78.264
X243.046Y-116.364
X243.84Y-137.954
X245.427Y-97.314
X248.602Y-118.904
X250.19Y-135.414
X253.365Y-80.804
X253.365Y-137.954
X254.952Y-116.364
X255.746Y-118.904
X259.715Y-78.264
X259.715Y-135.414
X262.096Y-116.364
X262.89Y-137.954
X265.271Y-118.904
X269.24Y-135.414
X270.034Y-99.854
X271.621Y-116.364
X276.384Y-97.314
X277.178Y-80.804
X277.178Y-137.954
X281.94Y-118.904
X281.94Y-137.954
X283.527Y-78.264
X283.527Y-135.414
X288.29Y-116.364
X288.29Y-135.414
T1
G00X24.209Y-57.214
M15
G01X24.209Y-56.064
M16
G05
G00X32.009Y-57.214
M15
G01X32.009Y-56.064
M16
G05
T3
G00X23.787Y-55.535
M15
G01X23.787Y-56.335
M16
G05
G00X23.787Y-58.565
M15
G01X23.787Y-60.065
M16
G05
G00X32.437Y-55.535
M15
G01X32.437Y-56.335
M16
G05
G00X32.437Y-58.565
M15
G01X32.437Y-60.065
M16
G05
T0
M30
