  0
SECTION
  2
HEADER
  9
$ANGBASE
  50
0.0
  9
$ANGDIR
  70
1
  9
$MEASUREMENT
  70
1
  0
ENDSEC
  0
SECTION
  2
TABLES
  0
TABLE
  2
LTYPE
  70
4
  0
LTYPE
  5
40F
  2
CONTINUOUS
  70
0
  3
Solid line
  72
65
  73
0
  40
0.0
  0
LTYPE
  5
410
  2
DASHDOT
 70
0
  3
Dash Dot ____ _ ____ _
 72
65
 73
4
 40
2.0
 49
1.25
 49
-0.25
 49
0.25
 49
-0.25
  0
LTYPE
  5
411
  2
DASHED
 70
0
  3
Dashed __ __ __ __ __
 72
65
 73
2
 40
0.75
 49
0.5
 49
-0.25
  0
LTYPE
  5
43B
  2
DOTTED
 70
0
  3
Dotted .  .  .  .
 72
65
 73
2
 40
0.2
 49
0.0
 49
-0.2
  0
ENDTAB
  0
TABLE
  2
STYLE
  70
4
  0
STYLE
  2
KICAD
  70
0
  40
0
  41
1
  42
1
  50
0
  71
0
  3
isocp.shx
  0
STYLE
  2
KICADB
  70
0
  40
0
  41
1
  42
1
  50
0
  71
0
  3
isocp.shx
  0
STYLE
  2
KICADI
  70
0
  40
0
  41
1
  42
1
  50
15
  71
0
  3
isocp.shx
  0
STYLE
  2
KICADBI
  70
0
  40
0
  41
1
  42
1
  50
15
  71
0
  3
isocp.shx
  0
ENDTAB
  0
TABLE
  2
LAYER
  70
1
  0
LAYER
  2
BLACK
  70
0
  62
7
  6
CONTINUOUS
  0
ENDTAB
  0
ENDSEC
  0
SECTION
  2
ENTITIES
0
LINE
8
BLACK
6
CONTINUOUS
10
299.694
20
-60.3405
11
300.361
21
-60.3405
0
LINE
8
BLACK
6
CONTINUOUS
10
299.314
20
-60.5786
11
300.028
21
-60.8167
0
LINE
8
BLACK
6
CONTINUOUS
10
300.028
20
-60.8167
11
300.028
21
-60.1976
0
LINE
8
BLACK
6
CONTINUOUS
10
300.266
20
-59.8167
11
300.314
21
-59.769
0
LINE
8
BLACK
6
CONTINUOUS
10
300.314
20
-59.769
11
300.361
21
-59.8167
0
LINE
8
BLACK
6
CONTINUOUS
10
300.361
20
-59.8167
11
300.314
21
-59.8643
0
LINE
8
BLACK
6
CONTINUOUS
10
300.314
20
-59.8643
11
300.266
21
-59.8167
0
LINE
8
BLACK
6
CONTINUOUS
10
300.266
20
-59.8167
11
300.361
21
-59.8167
0
LINE
8
BLACK
6
CONTINUOUS
10
299.361
20
-59.4357
11
299.361
21
-58.769
0
LINE
8
BLACK
6
CONTINUOUS
10
299.361
20
-58.769
11
300.361
21
-59.1976
0
LINE
8
BLACK
6
CONTINUOUS
10
299.361
20
-57.9595
11
299.361
21
-58.15
0
LINE
8
BLACK
6
CONTINUOUS
10
299.361
20
-58.15
11
299.409
21
-58.2452
0
LINE
8
BLACK
6
CONTINUOUS
10
299.409
20
-58.2452
11
299.456
21
-58.2929
0
LINE
8
BLACK
6
CONTINUOUS
10
299.456
20
-58.2929
11
299.599
21
-58.3881
0
LINE
8
BLACK
6
CONTINUOUS
10
299.599
20
-58.3881
11
299.79
21
-58.4357
0
LINE
8
BLACK
6
CONTINUOUS
10
299.79
20
-58.4357
11
300.171
21
-58.4357
0
LINE
8
BLACK
6
CONTINUOUS
10
300.171
20
-58.4357
11
300.266
21
-58.3881
0
LINE
8
BLACK
6
CONTINUOUS
10
300.266
20
-58.3881
11
300.314
21
-58.3405
0
LINE
8
BLACK
6
CONTINUOUS
10
300.314
20
-58.3405
11
300.361
21
-58.2452
0
LINE
8
BLACK
6
CONTINUOUS
10
300.361
20
-58.2452
11
300.361
21
-58.0548
0
LINE
8
BLACK
6
CONTINUOUS
10
300.361
20
-58.0548
11
300.314
21
-57.9595
0
LINE
8
BLACK
6
CONTINUOUS
10
300.314
20
-57.9595
11
300.266
21
-57.9119
0
LINE
8
BLACK
6
CONTINUOUS
10
300.266
20
-57.9119
11
300.171
21
-57.8643
0
LINE
8
BLACK
6
CONTINUOUS
10
300.171
20
-57.8643
11
299.933
21
-57.8643
0
LINE
8
BLACK
6
CONTINUOUS
10
299.933
20
-57.8643
11
299.837
21
-57.9119
0
LINE
8
BLACK
6
CONTINUOUS
10
299.837
20
-57.9119
11
299.79
21
-57.9595
0
LINE
8
BLACK
6
CONTINUOUS
10
299.79
20
-57.9595
11
299.742
21
-58.0548
0
LINE
8
BLACK
6
CONTINUOUS
10
299.742
20
-58.0548
11
299.742
21
-58.2452
0
LINE
8
BLACK
6
CONTINUOUS
10
299.742
20
-58.2452
11
299.79
21
-58.3405
0
LINE
8
BLACK
6
CONTINUOUS
10
299.79
20
-58.3405
11
299.837
21
-58.3881
0
LINE
8
BLACK
6
CONTINUOUS
10
299.837
20
-58.3881
11
299.933
21
-58.4357
0
LINE
8
BLACK
6
CONTINUOUS
10
299.361
20
-57.531
11
299.361
21
-56.9119
0
LINE
8
BLACK
6
CONTINUOUS
10
299.361
20
-56.9119
11
299.742
21
-57.2452
0
LINE
8
BLACK
6
CONTINUOUS
10
299.742
20
-57.2452
11
299.742
21
-57.1024
0
LINE
8
BLACK
6
CONTINUOUS
10
299.742
20
-57.1024
11
299.79
21
-57.0071
0
LINE
8
BLACK
6
CONTINUOUS
10
299.79
20
-57.0071
11
299.837
21
-56.9595
0
LINE
8
BLACK
6
CONTINUOUS
10
299.837
20
-56.9595
11
299.933
21
-56.9119
0
LINE
8
BLACK
6
CONTINUOUS
10
299.933
20
-56.9119
11
300.171
21
-56.9119
0
LINE
8
BLACK
6
CONTINUOUS
10
300.171
20
-56.9119
11
300.266
21
-56.9595
0
LINE
8
BLACK
6
CONTINUOUS
10
300.266
20
-56.9595
11
300.314
21
-57.0071
0
LINE
8
BLACK
6
CONTINUOUS
10
300.314
20
-57.0071
11
300.361
21
-57.1024
0
LINE
8
BLACK
6
CONTINUOUS
10
300.361
20
-57.1024
11
300.361
21
-57.3881
0
LINE
8
BLACK
6
CONTINUOUS
10
300.361
20
-57.3881
11
300.314
21
-57.4833
0
LINE
8
BLACK
6
CONTINUOUS
10
300.314
20
-57.4833
11
300.266
21
-57.531
0
LINE
8
BLACK
6
CONTINUOUS
10
300.361
20
-55.7214
11
299.694
21
-55.7214
0
LINE
8
BLACK
6
CONTINUOUS
10
299.79
20
-55.7214
11
299.742
21
-55.6738
0
LINE
8
BLACK
6
CONTINUOUS
10
299.742
20
-55.6738
11
299.694
21
-55.5786
0
LINE
8
BLACK
6
CONTINUOUS
10
299.694
20
-55.5786
11
299.694
21
-55.4357
0
LINE
8
BLACK
6
CONTINUOUS
10
299.694
20
-55.4357
11
299.742
21
-55.3405
0
LINE
8
BLACK
6
CONTINUOUS
10
299.742
20
-55.3405
11
299.837
21
-55.2929
0
LINE
8
BLACK
6
CONTINUOUS
10
299.837
20
-55.2929
11
300.361
21
-55.2929
0
LINE
8
BLACK
6
CONTINUOUS
10
299.837
20
-55.2929
11
299.742
21
-55.2452
0
LINE
8
BLACK
6
CONTINUOUS
10
299.742
20
-55.2452
11
299.694
21
-55.15
0
LINE
8
BLACK
6
CONTINUOUS
10
299.694
20
-55.15
11
299.694
21
-55.0071
0
LINE
8
BLACK
6
CONTINUOUS
10
299.694
20
-55.0071
11
299.742
21
-54.9119
0
LINE
8
BLACK
6
CONTINUOUS
10
299.742
20
-54.9119
11
299.837
21
-54.8643
0
LINE
8
BLACK
6
CONTINUOUS
10
299.837
20
-54.8643
11
300.361
21
-54.8643
0
LINE
8
BLACK
6
CONTINUOUS
10
300.361
20
-54.3881
11
299.694
21
-54.3881
0
LINE
8
BLACK
6
CONTINUOUS
10
299.79
20
-54.3881
11
299.742
21
-54.3405
0
LINE
8
BLACK
6
CONTINUOUS
10
299.742
20
-54.3405
11
299.694
21
-54.2452
0
LINE
8
BLACK
6
CONTINUOUS
10
299.694
20
-54.2452
11
299.694
21
-54.1024
0
LINE
8
BLACK
6
CONTINUOUS
10
299.694
20
-54.1024
11
299.742
21
-54.0071
0
LINE
8
BLACK
6
CONTINUOUS
10
299.742
20
-54.0071
11
299.837
21
-53.9595
0
LINE
8
BLACK
6
CONTINUOUS
10
299.837
20
-53.9595
11
300.361
21
-53.9595
0
LINE
8
BLACK
6
CONTINUOUS
10
299.837
20
-53.9595
11
299.742
21
-53.9119
0
LINE
8
BLACK
6
CONTINUOUS
10
299.742
20
-53.9119
11
299.694
21
-53.8167
0
LINE
8
BLACK
6
CONTINUOUS
10
299.694
20
-53.8167
11
299.694
21
-53.6738
0
LINE
8
BLACK
6
CONTINUOUS
10
299.694
20
-53.6738
11
299.742
21
-53.5786
0
LINE
8
BLACK
6
CONTINUOUS
10
299.742
20
-53.5786
11
299.837
21
-53.531
0
LINE
8
BLACK
6
CONTINUOUS
10
299.837
20
-53.531
11
300.361
21
-53.531
0
LINE
8
BLACK
6
CONTINUOUS
10
298.609
20
-59.5312
11
298.609
21
-54.7687
0
LINE
8
BLACK
6
CONTINUOUS
10
290.751
20
-59.5312
11
299.195
21
-59.5312
0
LINE
8
BLACK
6
CONTINUOUS
10
290.751
20
-54.7687
11
299.195
21
-54.7687
0
LINE
8
BLACK
6
CONTINUOUS
10
298.609
20
-54.7687
11
299.195
21
-55.8953
0
LINE
8
BLACK
6
CONTINUOUS
10
298.609
20
-54.7687
11
298.022
21
-55.8953
0
LINE
8
BLACK
6
CONTINUOUS
10
298.609
20
-59.5312
11
299.195
21
-58.4047
0
LINE
8
BLACK
6
CONTINUOUS
10
298.609
20
-59.5312
11
298.022
21
-58.4047
0
LINE
8
BLACK
6
CONTINUOUS
10
289.465
20
-51.1113
11
289.465
21
-51.778
0
LINE
8
BLACK
6
CONTINUOUS
10
289.227
20
-50.7304
11
288.989
21
-51.4447
0
LINE
8
BLACK
6
CONTINUOUS
10
288.989
20
-51.4447
11
289.608
21
-51.4447
0
LINE
8
BLACK
6
CONTINUOUS
10
289.989
20
-51.6828
11
290.037
21
-51.7304
0
LINE
8
BLACK
6
CONTINUOUS
10
290.037
20
-51.7304
11
289.989
21
-51.778
0
LINE
8
BLACK
6
CONTINUOUS
10
289.989
20
-51.778
11
289.941
21
-51.7304
0
LINE
8
BLACK
6
CONTINUOUS
10
289.941
20
-51.7304
11
289.989
21
-51.6828
0
LINE
8
BLACK
6
CONTINUOUS
10
289.989
20
-51.6828
11
289.989
21
-51.778
0
LINE
8
BLACK
6
CONTINUOUS
10
290.37
20
-50.778
11
291.037
21
-50.778
0
LINE
8
BLACK
6
CONTINUOUS
10
291.037
20
-50.778
11
290.608
21
-51.778
0
LINE
8
BLACK
6
CONTINUOUS
10
291.846
20
-50.778
11
291.656
21
-50.778
0
LINE
8
BLACK
6
CONTINUOUS
10
291.656
20
-50.778
11
291.56
21
-50.8256
0
LINE
8
BLACK
6
CONTINUOUS
10
291.56
20
-50.8256
11
291.513
21
-50.8732
0
LINE
8
BLACK
6
CONTINUOUS
10
291.513
20
-50.8732
11
291.418
21
-51.0161
0
LINE
8
BLACK
6
CONTINUOUS
10
291.418
20
-51.0161
11
291.37
21
-51.2066
0
LINE
8
BLACK
6
CONTINUOUS
10
291.37
20
-51.2066
11
291.37
21
-51.5875
0
LINE
8
BLACK
6
CONTINUOUS
10
291.37
20
-51.5875
11
291.418
21
-51.6828
0
LINE
8
BLACK
6
CONTINUOUS
10
291.418
20
-51.6828
11
291.465
21
-51.7304
0
LINE
8
BLACK
6
CONTINUOUS
10
291.465
20
-51.7304
11
291.56
21
-51.778
0
LINE
8
BLACK
6
CONTINUOUS
10
291.56
20
-51.778
11
291.751
21
-51.778
0
LINE
8
BLACK
6
CONTINUOUS
10
291.751
20
-51.778
11
291.846
21
-51.7304
0
LINE
8
BLACK
6
CONTINUOUS
10
291.846
20
-51.7304
11
291.894
21
-51.6828
0
LINE
8
BLACK
6
CONTINUOUS
10
291.894
20
-51.6828
11
291.941
21
-51.5875
0
LINE
8
BLACK
6
CONTINUOUS
10
291.941
20
-51.5875
11
291.941
21
-51.3494
0
LINE
8
BLACK
6
CONTINUOUS
10
291.941
20
-51.3494
11
291.894
21
-51.2542
0
LINE
8
BLACK
6
CONTINUOUS
10
291.894
20
-51.2542
11
291.846
21
-51.2066
0
LINE
8
BLACK
6
CONTINUOUS
10
291.846
20
-51.2066
11
291.751
21
-51.159
0
LINE
8
BLACK
6
CONTINUOUS
10
291.751
20
-51.159
11
291.56
21
-51.159
0
LINE
8
BLACK
6
CONTINUOUS
10
291.56
20
-51.159
11
291.465
21
-51.2066
0
LINE
8
BLACK
6
CONTINUOUS
10
291.465
20
-51.2066
11
291.418
21
-51.2542
0
LINE
8
BLACK
6
CONTINUOUS
10
291.418
20
-51.2542
11
291.37
21
-51.3494
0
LINE
8
BLACK
6
CONTINUOUS
10
292.275
20
-50.778
11
292.894
21
-50.778
0
LINE
8
BLACK
6
CONTINUOUS
10
292.894
20
-50.778
11
292.56
21
-51.159
0
LINE
8
BLACK
6
CONTINUOUS
10
292.56
20
-51.159
11
292.703
21
-51.159
0
LINE
8
BLACK
6
CONTINUOUS
10
292.703
20
-51.159
11
292.798
21
-51.2066
0
LINE
8
BLACK
6
CONTINUOUS
10
292.798
20
-51.2066
11
292.846
21
-51.2542
0
LINE
8
BLACK
6
CONTINUOUS
10
292.846
20
-51.2542
11
292.894
21
-51.3494
0
LINE
8
BLACK
6
CONTINUOUS
10
292.894
20
-51.3494
11
292.894
21
-51.5875
0
LINE
8
BLACK
6
CONTINUOUS
10
292.894
20
-51.5875
11
292.846
21
-51.6828
0
LINE
8
BLACK
6
CONTINUOUS
10
292.846
20
-51.6828
11
292.798
21
-51.7304
0
LINE
8
BLACK
6
CONTINUOUS
10
292.798
20
-51.7304
11
292.703
21
-51.778
0
LINE
8
BLACK
6
CONTINUOUS
10
292.703
20
-51.778
11
292.418
21
-51.778
0
LINE
8
BLACK
6
CONTINUOUS
10
292.418
20
-51.778
11
292.322
21
-51.7304
0
LINE
8
BLACK
6
CONTINUOUS
10
292.322
20
-51.7304
11
292.275
21
-51.6828
0
LINE
8
BLACK
6
CONTINUOUS
10
294.084
20
-51.778
11
294.084
21
-51.1113
0
LINE
8
BLACK
6
CONTINUOUS
10
294.084
20
-51.2066
11
294.132
21
-51.159
0
LINE
8
BLACK
6
CONTINUOUS
10
294.132
20
-51.159
11
294.227
21
-51.1113
0
LINE
8
BLACK
6
CONTINUOUS
10
294.227
20
-51.1113
11
294.37
21
-51.1113
0
LINE
8
BLACK
6
CONTINUOUS
10
294.37
20
-51.1113
11
294.465
21
-51.159
0
LINE
8
BLACK
6
CONTINUOUS
10
294.465
20
-51.159
11
294.513
21
-51.2542
0
LINE
8
BLACK
6
CONTINUOUS
10
294.513
20
-51.2542
11
294.513
21
-51.778
0
LINE
8
BLACK
6
CONTINUOUS
10
294.513
20
-51.2542
11
294.56
21
-51.159
0
LINE
8
BLACK
6
CONTINUOUS
10
294.56
20
-51.159
11
294.656
21
-51.1113
0
LINE
8
BLACK
6
CONTINUOUS
10
294.656
20
-51.1113
11
294.798
21
-51.1113
0
LINE
8
BLACK
6
CONTINUOUS
10
294.798
20
-51.1113
11
294.894
21
-51.159
0
LINE
8
BLACK
6
CONTINUOUS
10
294.894
20
-51.159
11
294.941
21
-51.2542
0
LINE
8
BLACK
6
CONTINUOUS
10
294.941
20
-51.2542
11
294.941
21
-51.778
0
LINE
8
BLACK
6
CONTINUOUS
10
295.418
20
-51.778
11
295.418
21
-51.1113
0
LINE
8
BLACK
6
CONTINUOUS
10
295.418
20
-51.2066
11
295.465
21
-51.159
0
LINE
8
BLACK
6
CONTINUOUS
10
295.465
20
-51.159
11
295.56
21
-51.1113
0
LINE
8
BLACK
6
CONTINUOUS
10
295.56
20
-51.1113
11
295.703
21
-51.1113
0
LINE
8
BLACK
6
CONTINUOUS
10
295.703
20
-51.1113
11
295.798
21
-51.159
0
LINE
8
BLACK
6
CONTINUOUS
10
295.798
20
-51.159
11
295.846
21
-51.2542
0
LINE
8
BLACK
6
CONTINUOUS
10
295.846
20
-51.2542
11
295.846
21
-51.778
0
LINE
8
BLACK
6
CONTINUOUS
10
295.846
20
-51.2542
11
295.894
21
-51.159
0
LINE
8
BLACK
6
CONTINUOUS
10
295.894
20
-51.159
11
295.989
21
-51.1113
0
LINE
8
BLACK
6
CONTINUOUS
10
295.989
20
-51.1113
11
296.132
21
-51.1113
0
LINE
8
BLACK
6
CONTINUOUS
10
296.132
20
-51.1113
11
296.227
21
-51.159
0
LINE
8
BLACK
6
CONTINUOUS
10
296.227
20
-51.159
11
296.275
21
-51.2542
0
LINE
8
BLACK
6
CONTINUOUS
10
296.275
20
-51.2542
11
296.275
21
-51.778
0
LINE
8
BLACK
6
CONTINUOUS
10
295.037
20
-52.6256
11
290.274
21
-52.6256
0
LINE
8
BLACK
6
CONTINUOUS
10
295.037
20
-59.5312
11
295.037
21
-52.0392
0
LINE
8
BLACK
6
CONTINUOUS
10
290.274
20
-59.5312
11
290.274
21
-52.0392
0
LINE
8
BLACK
6
CONTINUOUS
10
290.274
20
-52.6256
11
291.401
21
-52.0392
0
LINE
8
BLACK
6
CONTINUOUS
10
290.274
20
-52.6256
11
291.401
21
-53.212
0
LINE
8
BLACK
6
CONTINUOUS
10
295.037
20
-52.6256
11
293.91
21
-52.0392
0
LINE
8
BLACK
6
CONTINUOUS
10
295.037
20
-52.6256
11
293.91
21
-53.212
0
LINE
8
BLACK
6
CONTINUOUS
10
8.9539
20
-51.1113
11
8.9539
21
-51.778
0
LINE
8
BLACK
6
CONTINUOUS
10
8.7158
20
-50.7304
11
8.47771
21
-51.4447
0
LINE
8
BLACK
6
CONTINUOUS
10
8.47771
20
-51.4447
11
9.09675
21
-51.4447
0
LINE
8
BLACK
6
CONTINUOUS
10
9.47771
20
-51.6828
11
9.52533
21
-51.7304
0
LINE
8
BLACK
6
CONTINUOUS
10
9.52533
20
-51.7304
11
9.47771
21
-51.778
0
LINE
8
BLACK
6
CONTINUOUS
10
9.47771
20
-51.778
11
9.43009
21
-51.7304
0
LINE
8
BLACK
6
CONTINUOUS
10
9.43009
20
-51.7304
11
9.47771
21
-51.6828
0
LINE
8
BLACK
6
CONTINUOUS
10
9.47771
20
-51.6828
11
9.47771
21
-51.778
0
LINE
8
BLACK
6
CONTINUOUS
10
9.85866
20
-50.778
11
10.5253
21
-50.778
0
LINE
8
BLACK
6
CONTINUOUS
10
10.5253
20
-50.778
11
10.0968
21
-51.778
0
LINE
8
BLACK
6
CONTINUOUS
10
11.3349
20
-50.778
11
11.1444
21
-50.778
0
LINE
8
BLACK
6
CONTINUOUS
10
11.1444
20
-50.778
11
11.0491
21
-50.8256
0
LINE
8
BLACK
6
CONTINUOUS
10
11.0491
20
-50.8256
11
11.0015
21
-50.8732
0
LINE
8
BLACK
6
CONTINUOUS
10
11.0015
20
-50.8732
11
10.9063
21
-51.0161
0
LINE
8
BLACK
6
CONTINUOUS
10
10.9063
20
-51.0161
11
10.8587
21
-51.2066
0
LINE
8
BLACK
6
CONTINUOUS
10
10.8587
20
-51.2066
11
10.8587
21
-51.5875
0
LINE
8
BLACK
6
CONTINUOUS
10
10.8587
20
-51.5875
11
10.9063
21
-51.6828
0
LINE
8
BLACK
6
CONTINUOUS
10
10.9063
20
-51.6828
11
10.9539
21
-51.7304
0
LINE
8
BLACK
6
CONTINUOUS
10
10.9539
20
-51.7304
11
11.0491
21
-51.778
0
LINE
8
BLACK
6
CONTINUOUS
10
11.0491
20
-51.778
11
11.2396
21
-51.778
0
LINE
8
BLACK
6
CONTINUOUS
10
11.2396
20
-51.778
11
11.3349
21
-51.7304
0
LINE
8
BLACK
6
CONTINUOUS
10
11.3349
20
-51.7304
11
11.3825
21
-51.6828
0
LINE
8
BLACK
6
CONTINUOUS
10
11.3825
20
-51.6828
11
11.4301
21
-51.5875
0
LINE
8
BLACK
6
CONTINUOUS
10
11.4301
20
-51.5875
11
11.4301
21
-51.3494
0
LINE
8
BLACK
6
CONTINUOUS
10
11.4301
20
-51.3494
11
11.3825
21
-51.2542
0
LINE
8
BLACK
6
CONTINUOUS
10
11.3825
20
-51.2542
11
11.3349
21
-51.2066
0
LINE
8
BLACK
6
CONTINUOUS
10
11.3349
20
-51.2066
11
11.2396
21
-51.159
0
LINE
8
BLACK
6
CONTINUOUS
10
11.2396
20
-51.159
11
11.0491
21
-51.159
0
LINE
8
BLACK
6
CONTINUOUS
10
11.0491
20
-51.159
11
10.9539
21
-51.2066
0
LINE
8
BLACK
6
CONTINUOUS
10
10.9539
20
-51.2066
11
10.9063
21
-51.2542
0
LINE
8
BLACK
6
CONTINUOUS
10
10.9063
20
-51.2542
11
10.8587
21
-51.3494
0
LINE
8
BLACK
6
CONTINUOUS
10
11.7634
20
-50.778
11
12.3825
21
-50.778
0
LINE
8
BLACK
6
CONTINUOUS
10
12.3825
20
-50.778
11
12.0491
21
-51.159
0
LINE
8
BLACK
6
CONTINUOUS
10
12.0491
20
-51.159
11
12.192
21
-51.159
0
LINE
8
BLACK
6
CONTINUOUS
10
12.192
20
-51.159
11
12.2872
21
-51.2066
0
LINE
8
BLACK
6
CONTINUOUS
10
12.2872
20
-51.2066
11
12.3349
21
-51.2542
0
LINE
8
BLACK
6
CONTINUOUS
10
12.3349
20
-51.2542
11
12.3825
21
-51.3494
0
LINE
8
BLACK
6
CONTINUOUS
10
12.3825
20
-51.3494
11
12.3825
21
-51.5875
0
LINE
8
BLACK
6
CONTINUOUS
10
12.3825
20
-51.5875
11
12.3349
21
-51.6828
0
LINE
8
BLACK
6
CONTINUOUS
10
12.3349
20
-51.6828
11
12.2872
21
-51.7304
0
LINE
8
BLACK
6
CONTINUOUS
10
12.2872
20
-51.7304
11
12.192
21
-51.778
0
LINE
8
BLACK
6
CONTINUOUS
10
12.192
20
-51.778
11
11.9063
21
-51.778
0
LINE
8
BLACK
6
CONTINUOUS
10
11.9063
20
-51.778
11
11.811
21
-51.7304
0
LINE
8
BLACK
6
CONTINUOUS
10
11.811
20
-51.7304
11
11.7634
21
-51.6828
0
LINE
8
BLACK
6
CONTINUOUS
10
13.5729
20
-51.778
11
13.5729
21
-51.1113
0
LINE
8
BLACK
6
CONTINUOUS
10
13.5729
20
-51.2066
11
13.6206
21
-51.159
0
LINE
8
BLACK
6
CONTINUOUS
10
13.6206
20
-51.159
11
13.7158
21
-51.1113
0
LINE
8
BLACK
6
CONTINUOUS
10
13.7158
20
-51.1113
11
13.8587
21
-51.1113
0
LINE
8
BLACK
6
CONTINUOUS
10
13.8587
20
-51.1113
11
13.9539
21
-51.159
0
LINE
8
BLACK
6
CONTINUOUS
10
13.9539
20
-51.159
11
14.0015
21
-51.2542
0
LINE
8
BLACK
6
CONTINUOUS
10
14.0015
20
-51.2542
11
14.0015
21
-51.778
0
LINE
8
BLACK
6
CONTINUOUS
10
14.0015
20
-51.2542
11
14.0491
21
-51.159
0
LINE
8
BLACK
6
CONTINUOUS
10
14.0491
20
-51.159
11
14.1444
21
-51.1113
0
LINE
8
BLACK
6
CONTINUOUS
10
14.1444
20
-51.1113
11
14.2872
21
-51.1113
0
LINE
8
BLACK
6
CONTINUOUS
10
14.2872
20
-51.1113
11
14.3825
21
-51.159
0
LINE
8
BLACK
6
CONTINUOUS
10
14.3825
20
-51.159
11
14.4301
21
-51.2542
0
LINE
8
BLACK
6
CONTINUOUS
10
14.4301
20
-51.2542
11
14.4301
21
-51.778
0
LINE
8
BLACK
6
CONTINUOUS
10
14.9063
20
-51.778
11
14.9063
21
-51.1113
0
LINE
8
BLACK
6
CONTINUOUS
10
14.9063
20
-51.2066
11
14.9539
21
-51.159
0
LINE
8
BLACK
6
CONTINUOUS
10
14.9539
20
-51.159
11
15.0491
21
-51.1113
0
LINE
8
BLACK
6
CONTINUOUS
10
15.0491
20
-51.1113
11
15.192
21
-51.1113
0
LINE
8
BLACK
6
CONTINUOUS
10
15.192
20
-51.1113
11
15.2872
21
-51.159
0
LINE
8
BLACK
6
CONTINUOUS
10
15.2872
20
-51.159
11
15.3349
21
-51.2542
0
LINE
8
BLACK
6
CONTINUOUS
10
15.3349
20
-51.2542
11
15.3349
21
-51.778
0
LINE
8
BLACK
6
CONTINUOUS
10
15.3349
20
-51.2542
11
15.3825
21
-51.159
0
LINE
8
BLACK
6
CONTINUOUS
10
15.3825
20
-51.159
11
15.4777
21
-51.1113
0
LINE
8
BLACK
6
CONTINUOUS
10
15.4777
20
-51.1113
11
15.6206
21
-51.1113
0
LINE
8
BLACK
6
CONTINUOUS
10
15.6206
20
-51.1113
11
15.7158
21
-51.159
0
LINE
8
BLACK
6
CONTINUOUS
10
15.7158
20
-51.159
11
15.7634
21
-51.2542
0
LINE
8
BLACK
6
CONTINUOUS
10
15.7634
20
-51.2542
11
15.7634
21
-51.778
0
LINE
8
BLACK
6
CONTINUOUS
10
14.5256
20
-52.6256
11
9.76312
21
-52.6256
0
LINE
8
BLACK
6
CONTINUOUS
10
14.5256
20
-59.5312
11
14.5256
21
-52.0392
0
LINE
8
BLACK
6
CONTINUOUS
10
9.76312
20
-59.5312
11
9.76312
21
-52.0392
0
LINE
8
BLACK
6
CONTINUOUS
10
9.76312
20
-52.6256
11
10.8896
21
-52.0392
0
LINE
8
BLACK
6
CONTINUOUS
10
9.76312
20
-52.6256
11
10.8896
21
-53.212
0
LINE
8
BLACK
6
CONTINUOUS
10
14.5256
20
-52.6256
11
13.3991
21
-52.0392
0
LINE
8
BLACK
6
CONTINUOUS
10
14.5256
20
-52.6256
11
13.3991
21
-53.212
0
LINE
8
BLACK
6
CONTINUOUS
10
5.62946
20
-60.3405
11
6.29613
21
-60.3405
0
LINE
8
BLACK
6
CONTINUOUS
10
5.24851
20
-60.5786
11
5.9628
21
-60.8167
0
LINE
8
BLACK
6
CONTINUOUS
10
5.9628
20
-60.8167
11
5.9628
21
-60.1976
0
LINE
8
BLACK
6
CONTINUOUS
10
6.20089
20
-59.8167
11
6.24851
21
-59.769
0
LINE
8
BLACK
6
CONTINUOUS
10
6.24851
20
-59.769
11
6.29613
21
-59.8167
0
LINE
8
BLACK
6
CONTINUOUS
10
6.29613
20
-59.8167
11
6.24851
21
-59.8643
0
LINE
8
BLACK
6
CONTINUOUS
10
6.24851
20
-59.8643
11
6.20089
21
-59.8167
0
LINE
8
BLACK
6
CONTINUOUS
10
6.20089
20
-59.8167
11
6.29613
21
-59.8167
0
LINE
8
BLACK
6
CONTINUOUS
10
5.29613
20
-59.4357
11
5.29613
21
-58.769
0
LINE
8
BLACK
6
CONTINUOUS
10
5.29613
20
-58.769
11
6.29613
21
-59.1976
0
LINE
8
BLACK
6
CONTINUOUS
10
5.29613
20
-57.9595
11
5.29613
21
-58.15
0
LINE
8
BLACK
6
CONTINUOUS
10
5.29613
20
-58.15
11
5.34375
21
-58.2452
0
LINE
8
BLACK
6
CONTINUOUS
10
5.34375
20
-58.2452
11
5.39137
21
-58.2929
0
LINE
8
BLACK
6
CONTINUOUS
10
5.39137
20
-58.2929
11
5.53423
21
-58.3881
0
LINE
8
BLACK
6
CONTINUOUS
10
5.53423
20
-58.3881
11
5.7247
21
-58.4357
0
LINE
8
BLACK
6
CONTINUOUS
10
5.7247
20
-58.4357
11
6.10565
21
-58.4357
0
LINE
8
BLACK
6
CONTINUOUS
10
6.10565
20
-58.4357
11
6.20089
21
-58.3881
0
LINE
8
BLACK
6
CONTINUOUS
10
6.20089
20
-58.3881
11
6.24851
21
-58.3405
0
LINE
8
BLACK
6
CONTINUOUS
10
6.24851
20
-58.3405
11
6.29613
21
-58.2452
0
LINE
8
BLACK
6
CONTINUOUS
10
6.29613
20
-58.2452
11
6.29613
21
-58.0548
0
LINE
8
BLACK
6
CONTINUOUS
10
6.29613
20
-58.0548
11
6.24851
21
-57.9595
0
LINE
8
BLACK
6
CONTINUOUS
10
6.24851
20
-57.9595
11
6.20089
21
-57.9119
0
LINE
8
BLACK
6
CONTINUOUS
10
6.20089
20
-57.9119
11
6.10565
21
-57.8643
0
LINE
8
BLACK
6
CONTINUOUS
10
6.10565
20
-57.8643
11
5.86756
21
-57.8643
0
LINE
8
BLACK
6
CONTINUOUS
10
5.86756
20
-57.8643
11
5.77232
21
-57.9119
0
LINE
8
BLACK
6
CONTINUOUS
10
5.77232
20
-57.9119
11
5.7247
21
-57.9595
0
LINE
8
BLACK
6
CONTINUOUS
10
5.7247
20
-57.9595
11
5.67708
21
-58.0548
0
LINE
8
BLACK
6
CONTINUOUS
10
5.67708
20
-58.0548
11
5.67708
21
-58.2452
0
LINE
8
BLACK
6
CONTINUOUS
10
5.67708
20
-58.2452
11
5.7247
21
-58.3405
0
LINE
8
BLACK
6
CONTINUOUS
10
5.7247
20
-58.3405
11
5.77232
21
-58.3881
0
LINE
8
BLACK
6
CONTINUOUS
10
5.77232
20
-58.3881
11
5.86756
21
-58.4357
0
LINE
8
BLACK
6
CONTINUOUS
10
5.29613
20
-57.531
11
5.29613
21
-56.9119
0
LINE
8
BLACK
6
CONTINUOUS
10
5.29613
20
-56.9119
11
5.67708
21
-57.2452
0
LINE
8
BLACK
6
CONTINUOUS
10
5.67708
20
-57.2452
11
5.67708
21
-57.1024
0
LINE
8
BLACK
6
CONTINUOUS
10
5.67708
20
-57.1024
11
5.7247
21
-57.0071
0
LINE
8
BLACK
6
CONTINUOUS
10
5.7247
20
-57.0071
11
5.77232
21
-56.9595
0
LINE
8
BLACK
6
CONTINUOUS
10
5.77232
20
-56.9595
11
5.86756
21
-56.9119
0
LINE
8
BLACK
6
CONTINUOUS
10
5.86756
20
-56.9119
11
6.10565
21
-56.9119
0
LINE
8
BLACK
6
CONTINUOUS
10
6.10565
20
-56.9119
11
6.20089
21
-56.9595
0
LINE
8
BLACK
6
CONTINUOUS
10
6.20089
20
-56.9595
11
6.24851
21
-57.0071
0
LINE
8
BLACK
6
CONTINUOUS
10
6.24851
20
-57.0071
11
6.29613
21
-57.1024
0
LINE
8
BLACK
6
CONTINUOUS
10
6.29613
20
-57.1024
11
6.29613
21
-57.3881
0
LINE
8
BLACK
6
CONTINUOUS
10
6.29613
20
-57.3881
11
6.24851
21
-57.4833
0
LINE
8
BLACK
6
CONTINUOUS
10
6.24851
20
-57.4833
11
6.20089
21
-57.531
0
LINE
8
BLACK
6
CONTINUOUS
10
6.29613
20
-55.7214
11
5.62946
21
-55.7214
0
LINE
8
BLACK
6
CONTINUOUS
10
5.7247
20
-55.7214
11
5.67708
21
-55.6738
0
LINE
8
BLACK
6
CONTINUOUS
10
5.67708
20
-55.6738
11
5.62946
21
-55.5786
0
LINE
8
BLACK
6
CONTINUOUS
10
5.62946
20
-55.5786
11
5.62946
21
-55.4357
0
LINE
8
BLACK
6
CONTINUOUS
10
5.62946
20
-55.4357
11
5.67708
21
-55.3405
0
LINE
8
BLACK
6
CONTINUOUS
10
5.67708
20
-55.3405
11
5.77232
21
-55.2929
0
LINE
8
BLACK
6
CONTINUOUS
10
5.77232
20
-55.2929
11
6.29613
21
-55.2929
0
LINE
8
BLACK
6
CONTINUOUS
10
5.77232
20
-55.2929
11
5.67708
21
-55.2452
0
LINE
8
BLACK
6
CONTINUOUS
10
5.67708
20
-55.2452
11
5.62946
21
-55.15
0
LINE
8
BLACK
6
CONTINUOUS
10
5.62946
20
-55.15
11
5.62946
21
-55.0071
0
LINE
8
BLACK
6
CONTINUOUS
10
5.62946
20
-55.0071
11
5.67708
21
-54.9119
0
LINE
8
BLACK
6
CONTINUOUS
10
5.67708
20
-54.9119
11
5.77232
21
-54.8643
0
LINE
8
BLACK
6
CONTINUOUS
10
5.77232
20
-54.8643
11
6.29613
21
-54.8643
0
LINE
8
BLACK
6
CONTINUOUS
10
6.29613
20
-54.3881
11
5.62946
21
-54.3881
0
LINE
8
BLACK
6
CONTINUOUS
10
5.7247
20
-54.3881
11
5.67708
21
-54.3405
0
LINE
8
BLACK
6
CONTINUOUS
10
5.67708
20
-54.3405
11
5.62946
21
-54.2452
0
LINE
8
BLACK
6
CONTINUOUS
10
5.62946
20
-54.2452
11
5.62946
21
-54.1024
0
LINE
8
BLACK
6
CONTINUOUS
10
5.62946
20
-54.1024
11
5.67708
21
-54.0071
0
LINE
8
BLACK
6
CONTINUOUS
10
5.67708
20
-54.0071
11
5.77232
21
-53.9595
0
LINE
8
BLACK
6
CONTINUOUS
10
5.77232
20
-53.9595
11
6.29613
21
-53.9595
0
LINE
8
BLACK
6
CONTINUOUS
10
5.77232
20
-53.9595
11
5.67708
21
-53.9119
0
LINE
8
BLACK
6
CONTINUOUS
10
5.67708
20
-53.9119
11
5.62946
21
-53.8167
0
LINE
8
BLACK
6
CONTINUOUS
10
5.62946
20
-53.8167
11
5.62946
21
-53.6738
0
LINE
8
BLACK
6
CONTINUOUS
10
5.62946
20
-53.6738
11
5.67708
21
-53.5786
0
LINE
8
BLACK
6
CONTINUOUS
10
5.67708
20
-53.5786
11
5.77232
21
-53.531
0
LINE
8
BLACK
6
CONTINUOUS
10
5.77232
20
-53.531
11
6.29613
21
-53.531
0
LINE
8
BLACK
6
CONTINUOUS
10
7.14375
20
-59.5312
11
7.14375
21
-54.7687
0
LINE
8
BLACK
6
CONTINUOUS
10
14.2875
20
-59.5312
11
6.55733
21
-59.5312
0
LINE
8
BLACK
6
CONTINUOUS
10
14.2875
20
-54.7687
11
6.55733
21
-54.7687
0
LINE
8
BLACK
6
CONTINUOUS
10
7.14375
20
-54.7687
11
7.73017
21
-55.8953
0
LINE
8
BLACK
6
CONTINUOUS
10
7.14375
20
-54.7687
11
6.55733
21
-55.8953
0
LINE
8
BLACK
6
CONTINUOUS
10
7.14375
20
-59.5312
11
7.73017
21
-58.4047
0
LINE
8
BLACK
6
CONTINUOUS
10
7.14375
20
-59.5312
11
6.55733
21
-58.4047
0
LINE
8
BLACK
6
CONTINUOUS
10
101.204
20
-159.153
11
100.632
21
-159.153
0
LINE
8
BLACK
6
CONTINUOUS
10
100.918
20
-159.153
11
100.918
21
-158.153
0
LINE
8
BLACK
6
CONTINUOUS
10
100.918
20
-158.153
11
100.823
21
-158.296
0
LINE
8
BLACK
6
CONTINUOUS
10
100.823
20
-158.296
11
100.727
21
-158.391
0
LINE
8
BLACK
6
CONTINUOUS
10
100.727
20
-158.391
11
100.632
21
-158.439
0
LINE
8
BLACK
6
CONTINUOUS
10
101.68
20
-159.153
11
101.87
21
-159.153
0
LINE
8
BLACK
6
CONTINUOUS
10
101.87
20
-159.153
11
101.966
21
-159.105
0
LINE
8
BLACK
6
CONTINUOUS
10
101.966
20
-159.105
11
102.013
21
-159.058
0
LINE
8
BLACK
6
CONTINUOUS
10
102.013
20
-159.058
11
102.108
21
-158.915
0
LINE
8
BLACK
6
CONTINUOUS
10
102.108
20
-158.915
11
102.156
21
-158.724
0
LINE
8
BLACK
6
CONTINUOUS
10
102.156
20
-158.724
11
102.156
21
-158.343
0
LINE
8
BLACK
6
CONTINUOUS
10
102.156
20
-158.343
11
102.108
21
-158.248
0
LINE
8
BLACK
6
CONTINUOUS
10
102.108
20
-158.248
11
102.061
21
-158.201
0
LINE
8
BLACK
6
CONTINUOUS
10
102.061
20
-158.201
11
101.966
21
-158.153
0
LINE
8
BLACK
6
CONTINUOUS
10
101.966
20
-158.153
11
101.775
21
-158.153
0
LINE
8
BLACK
6
CONTINUOUS
10
101.775
20
-158.153
11
101.68
21
-158.201
0
LINE
8
BLACK
6
CONTINUOUS
10
101.68
20
-158.201
11
101.632
21
-158.248
0
LINE
8
BLACK
6
CONTINUOUS
10
101.632
20
-158.248
11
101.585
21
-158.343
0
LINE
8
BLACK
6
CONTINUOUS
10
101.585
20
-158.343
11
101.585
21
-158.582
0
LINE
8
BLACK
6
CONTINUOUS
10
101.585
20
-158.582
11
101.632
21
-158.677
0
LINE
8
BLACK
6
CONTINUOUS
10
101.632
20
-158.677
11
101.68
21
-158.724
0
LINE
8
BLACK
6
CONTINUOUS
10
101.68
20
-158.724
11
101.775
21
-158.772
0
LINE
8
BLACK
6
CONTINUOUS
10
101.775
20
-158.772
11
101.966
21
-158.772
0
LINE
8
BLACK
6
CONTINUOUS
10
101.966
20
-158.772
11
102.061
21
-158.724
0
LINE
8
BLACK
6
CONTINUOUS
10
102.061
20
-158.724
11
102.108
21
-158.677
0
LINE
8
BLACK
6
CONTINUOUS
10
102.108
20
-158.677
11
102.156
21
-158.582
0
LINE
8
BLACK
6
CONTINUOUS
10
102.775
20
-158.153
11
102.87
21
-158.153
0
LINE
8
BLACK
6
CONTINUOUS
10
102.87
20
-158.153
11
102.966
21
-158.201
0
LINE
8
BLACK
6
CONTINUOUS
10
102.966
20
-158.201
11
103.013
21
-158.248
0
LINE
8
BLACK
6
CONTINUOUS
10
103.013
20
-158.248
11
103.061
21
-158.343
0
LINE
8
BLACK
6
CONTINUOUS
10
103.061
20
-158.343
11
103.108
21
-158.534
0
LINE
8
BLACK
6
CONTINUOUS
10
103.108
20
-158.534
11
103.108
21
-158.772
0
LINE
8
BLACK
6
CONTINUOUS
10
103.108
20
-158.772
11
103.061
21
-158.963
0
LINE
8
BLACK
6
CONTINUOUS
10
103.061
20
-158.963
11
103.013
21
-159.058
0
LINE
8
BLACK
6
CONTINUOUS
10
103.013
20
-159.058
11
102.966
21
-159.105
0
LINE
8
BLACK
6
CONTINUOUS
10
102.966
20
-159.105
11
102.87
21
-159.153
0
LINE
8
BLACK
6
CONTINUOUS
10
102.87
20
-159.153
11
102.775
21
-159.153
0
LINE
8
BLACK
6
CONTINUOUS
10
102.775
20
-159.153
11
102.68
21
-159.105
0
LINE
8
BLACK
6
CONTINUOUS
10
102.68
20
-159.105
11
102.632
21
-159.058
0
LINE
8
BLACK
6
CONTINUOUS
10
102.632
20
-159.058
11
102.585
21
-158.963
0
LINE
8
BLACK
6
CONTINUOUS
10
102.585
20
-158.963
11
102.537
21
-158.772
0
LINE
8
BLACK
6
CONTINUOUS
10
102.537
20
-158.772
11
102.537
21
-158.534
0
LINE
8
BLACK
6
CONTINUOUS
10
102.537
20
-158.534
11
102.585
21
-158.343
0
LINE
8
BLACK
6
CONTINUOUS
10
102.585
20
-158.343
11
102.632
21
-158.248
0
LINE
8
BLACK
6
CONTINUOUS
10
102.632
20
-158.248
11
102.68
21
-158.201
0
LINE
8
BLACK
6
CONTINUOUS
10
102.68
20
-158.201
11
102.775
21
-158.153
0
LINE
8
BLACK
6
CONTINUOUS
10
103.537
20
-159.058
11
103.585
21
-159.105
0
LINE
8
BLACK
6
CONTINUOUS
10
103.585
20
-159.105
11
103.537
21
-159.153
0
LINE
8
BLACK
6
CONTINUOUS
10
103.537
20
-159.153
11
103.489
21
-159.105
0
LINE
8
BLACK
6
CONTINUOUS
10
103.489
20
-159.105
11
103.537
21
-159.058
0
LINE
8
BLACK
6
CONTINUOUS
10
103.537
20
-159.058
11
103.537
21
-159.153
0
LINE
8
BLACK
6
CONTINUOUS
10
104.489
20
-158.153
11
104.013
21
-158.153
0
LINE
8
BLACK
6
CONTINUOUS
10
104.013
20
-158.153
11
103.966
21
-158.629
0
LINE
8
BLACK
6
CONTINUOUS
10
103.966
20
-158.629
11
104.013
21
-158.582
0
LINE
8
BLACK
6
CONTINUOUS
10
104.013
20
-158.582
11
104.108
21
-158.534
0
LINE
8
BLACK
6
CONTINUOUS
10
104.108
20
-158.534
11
104.346
21
-158.534
0
LINE
8
BLACK
6
CONTINUOUS
10
104.346
20
-158.534
11
104.442
21
-158.582
0
LINE
8
BLACK
6
CONTINUOUS
10
104.442
20
-158.582
11
104.489
21
-158.629
0
LINE
8
BLACK
6
CONTINUOUS
10
104.489
20
-158.629
11
104.537
21
-158.724
0
LINE
8
BLACK
6
CONTINUOUS
10
104.537
20
-158.724
11
104.537
21
-158.963
0
LINE
8
BLACK
6
CONTINUOUS
10
104.537
20
-158.963
11
104.489
21
-159.058
0
LINE
8
BLACK
6
CONTINUOUS
10
104.489
20
-159.058
11
104.442
21
-159.105
0
LINE
8
BLACK
6
CONTINUOUS
10
104.442
20
-159.105
11
104.346
21
-159.153
0
LINE
8
BLACK
6
CONTINUOUS
10
104.346
20
-159.153
11
104.108
21
-159.153
0
LINE
8
BLACK
6
CONTINUOUS
10
104.108
20
-159.153
11
104.013
21
-159.105
0
LINE
8
BLACK
6
CONTINUOUS
10
104.013
20
-159.105
11
103.966
21
-159.058
0
LINE
8
BLACK
6
CONTINUOUS
10
105.156
20
-158.153
11
105.251
21
-158.153
0
LINE
8
BLACK
6
CONTINUOUS
10
105.251
20
-158.153
11
105.346
21
-158.201
0
LINE
8
BLACK
6
CONTINUOUS
10
105.346
20
-158.201
11
105.394
21
-158.248
0
LINE
8
BLACK
6
CONTINUOUS
10
105.394
20
-158.248
11
105.442
21
-158.343
0
LINE
8
BLACK
6
CONTINUOUS
10
105.442
20
-158.343
11
105.489
21
-158.534
0
LINE
8
BLACK
6
CONTINUOUS
10
105.489
20
-158.534
11
105.489
21
-158.772
0
LINE
8
BLACK
6
CONTINUOUS
10
105.489
20
-158.772
11
105.442
21
-158.963
0
LINE
8
BLACK
6
CONTINUOUS
10
105.442
20
-158.963
11
105.394
21
-159.058
0
LINE
8
BLACK
6
CONTINUOUS
10
105.394
20
-159.058
11
105.346
21
-159.105
0
LINE
8
BLACK
6
CONTINUOUS
10
105.346
20
-159.105
11
105.251
21
-159.153
0
LINE
8
BLACK
6
CONTINUOUS
10
105.251
20
-159.153
11
105.156
21
-159.153
0
LINE
8
BLACK
6
CONTINUOUS
10
105.156
20
-159.153
11
105.061
21
-159.105
0
LINE
8
BLACK
6
CONTINUOUS
10
105.061
20
-159.105
11
105.013
21
-159.058
0
LINE
8
BLACK
6
CONTINUOUS
10
105.013
20
-159.058
11
104.966
21
-158.963
0
LINE
8
BLACK
6
CONTINUOUS
10
104.966
20
-158.963
11
104.918
21
-158.772
0
LINE
8
BLACK
6
CONTINUOUS
10
104.918
20
-158.772
11
104.918
21
-158.534
0
LINE
8
BLACK
6
CONTINUOUS
10
104.918
20
-158.534
11
104.966
21
-158.343
0
LINE
8
BLACK
6
CONTINUOUS
10
104.966
20
-158.343
11
105.013
21
-158.248
0
LINE
8
BLACK
6
CONTINUOUS
10
105.013
20
-158.248
11
105.061
21
-158.201
0
LINE
8
BLACK
6
CONTINUOUS
10
105.061
20
-158.201
11
105.156
21
-158.153
0
LINE
8
BLACK
6
CONTINUOUS
10
106.108
20
-158.153
11
106.204
21
-158.153
0
LINE
8
BLACK
6
CONTINUOUS
10
106.204
20
-158.153
11
106.299
21
-158.201
0
LINE
8
BLACK
6
CONTINUOUS
10
106.299
20
-158.201
11
106.346
21
-158.248
0
LINE
8
BLACK
6
CONTINUOUS
10
106.346
20
-158.248
11
106.394
21
-158.343
0
LINE
8
BLACK
6
CONTINUOUS
10
106.394
20
-158.343
11
106.442
21
-158.534
0
LINE
8
BLACK
6
CONTINUOUS
10
106.442
20
-158.534
11
106.442
21
-158.772
0
LINE
8
BLACK
6
CONTINUOUS
10
106.442
20
-158.772
11
106.394
21
-158.963
0
LINE
8
BLACK
6
CONTINUOUS
10
106.394
20
-158.963
11
106.346
21
-159.058
0
LINE
8
BLACK
6
CONTINUOUS
10
106.346
20
-159.058
11
106.299
21
-159.105
0
LINE
8
BLACK
6
CONTINUOUS
10
106.299
20
-159.105
11
106.204
21
-159.153
0
LINE
8
BLACK
6
CONTINUOUS
10
106.204
20
-159.153
11
106.108
21
-159.153
0
LINE
8
BLACK
6
CONTINUOUS
10
106.108
20
-159.153
11
106.013
21
-159.105
0
LINE
8
BLACK
6
CONTINUOUS
10
106.013
20
-159.105
11
105.966
21
-159.058
0
LINE
8
BLACK
6
CONTINUOUS
10
105.966
20
-159.058
11
105.918
21
-158.963
0
LINE
8
BLACK
6
CONTINUOUS
10
105.918
20
-158.963
11
105.87
21
-158.772
0
LINE
8
BLACK
6
CONTINUOUS
10
105.87
20
-158.772
11
105.87
21
-158.534
0
LINE
8
BLACK
6
CONTINUOUS
10
105.87
20
-158.534
11
105.918
21
-158.343
0
LINE
8
BLACK
6
CONTINUOUS
10
105.918
20
-158.343
11
105.966
21
-158.248
0
LINE
8
BLACK
6
CONTINUOUS
10
105.966
20
-158.248
11
106.013
21
-158.201
0
LINE
8
BLACK
6
CONTINUOUS
10
106.013
20
-158.201
11
106.108
21
-158.153
0
LINE
8
BLACK
6
CONTINUOUS
10
107.632
20
-159.153
11
107.632
21
-158.486
0
LINE
8
BLACK
6
CONTINUOUS
10
107.632
20
-158.582
11
107.68
21
-158.534
0
LINE
8
BLACK
6
CONTINUOUS
10
107.68
20
-158.534
11
107.775
21
-158.486
0
LINE
8
BLACK
6
CONTINUOUS
10
107.775
20
-158.486
11
107.918
21
-158.486
0
LINE
8
BLACK
6
CONTINUOUS
10
107.918
20
-158.486
11
108.013
21
-158.534
0
LINE
8
BLACK
6
CONTINUOUS
10
108.013
20
-158.534
11
108.061
21
-158.629
0
LINE
8
BLACK
6
CONTINUOUS
10
108.061
20
-158.629
11
108.061
21
-159.153
0
LINE
8
BLACK
6
CONTINUOUS
10
108.061
20
-158.629
11
108.108
21
-158.534
0
LINE
8
BLACK
6
CONTINUOUS
10
108.108
20
-158.534
11
108.204
21
-158.486
0
LINE
8
BLACK
6
CONTINUOUS
10
108.204
20
-158.486
11
108.346
21
-158.486
0
LINE
8
BLACK
6
CONTINUOUS
10
108.346
20
-158.486
11
108.442
21
-158.534
0
LINE
8
BLACK
6
CONTINUOUS
10
108.442
20
-158.534
11
108.489
21
-158.629
0
LINE
8
BLACK
6
CONTINUOUS
10
108.489
20
-158.629
11
108.489
21
-159.153
0
LINE
8
BLACK
6
CONTINUOUS
10
108.966
20
-159.153
11
108.966
21
-158.486
0
LINE
8
BLACK
6
CONTINUOUS
10
108.966
20
-158.582
11
109.013
21
-158.534
0
LINE
8
BLACK
6
CONTINUOUS
10
109.013
20
-158.534
11
109.108
21
-158.486
0
LINE
8
BLACK
6
CONTINUOUS
10
109.108
20
-158.486
11
109.251
21
-158.486
0
LINE
8
BLACK
6
CONTINUOUS
10
109.251
20
-158.486
11
109.346
21
-158.534
0
LINE
8
BLACK
6
CONTINUOUS
10
109.346
20
-158.534
11
109.394
21
-158.629
0
LINE
8
BLACK
6
CONTINUOUS
10
109.394
20
-158.629
11
109.394
21
-159.153
0
LINE
8
BLACK
6
CONTINUOUS
10
109.394
20
-158.629
11
109.442
21
-158.534
0
LINE
8
BLACK
6
CONTINUOUS
10
109.442
20
-158.534
11
109.537
21
-158.486
0
LINE
8
BLACK
6
CONTINUOUS
10
109.537
20
-158.486
11
109.68
21
-158.486
0
LINE
8
BLACK
6
CONTINUOUS
10
109.68
20
-158.486
11
109.775
21
-158.534
0
LINE
8
BLACK
6
CONTINUOUS
10
109.775
20
-158.534
11
109.823
21
-158.629
0
LINE
8
BLACK
6
CONTINUOUS
10
109.823
20
-158.629
11
109.823
21
-159.153
0
LINE
8
BLACK
6
CONTINUOUS
10
10.0012
20
-157.401
11
200.501
21
-157.401
0
LINE
8
BLACK
6
CONTINUOUS
10
10.0012
20
-146.447
11
10.0012
21
-157.987
0
LINE
8
BLACK
6
CONTINUOUS
10
200.501
20
-146.447
11
200.501
21
-157.987
0
LINE
8
BLACK
6
CONTINUOUS
10
200.501
20
-157.401
11
199.375
21
-157.987
0
LINE
8
BLACK
6
CONTINUOUS
10
200.501
20
-157.401
11
199.375
21
-156.814
0
LINE
8
BLACK
6
CONTINUOUS
10
10.0012
20
-157.401
11
11.1278
21
-157.987
0
LINE
8
BLACK
6
CONTINUOUS
10
10.0012
20
-157.401
11
11.1278
21
-156.814
0
LINE
8
BLACK
6
CONTINUOUS
10
147.9
20
-160.629
11
147.948
21
-160.582
0
LINE
8
BLACK
6
CONTINUOUS
10
147.948
20
-160.582
11
148.043
21
-160.534
0
LINE
8
BLACK
6
CONTINUOUS
10
148.043
20
-160.534
11
148.281
21
-160.534
0
LINE
8
BLACK
6
CONTINUOUS
10
148.281
20
-160.534
11
148.376
21
-160.582
0
LINE
8
BLACK
6
CONTINUOUS
10
148.376
20
-160.582
11
148.424
21
-160.629
0
LINE
8
BLACK
6
CONTINUOUS
10
148.424
20
-160.629
11
148.471
21
-160.725
0
LINE
8
BLACK
6
CONTINUOUS
10
148.471
20
-160.725
11
148.471
21
-160.82
0
LINE
8
BLACK
6
CONTINUOUS
10
148.471
20
-160.82
11
148.424
21
-160.963
0
LINE
8
BLACK
6
CONTINUOUS
10
148.424
20
-160.963
11
147.852
21
-161.534
0
LINE
8
BLACK
6
CONTINUOUS
10
147.852
20
-161.534
11
148.471
21
-161.534
0
LINE
8
BLACK
6
CONTINUOUS
10
149.043
20
-160.963
11
148.948
21
-160.915
0
LINE
8
BLACK
6
CONTINUOUS
10
148.948
20
-160.915
11
148.9
21
-160.868
0
LINE
8
BLACK
6
CONTINUOUS
10
148.9
20
-160.868
11
148.852
21
-160.772
0
LINE
8
BLACK
6
CONTINUOUS
10
148.852
20
-160.772
11
148.852
21
-160.725
0
LINE
8
BLACK
6
CONTINUOUS
10
148.852
20
-160.725
11
148.9
21
-160.629
0
LINE
8
BLACK
6
CONTINUOUS
10
148.9
20
-160.629
11
148.948
21
-160.582
0
LINE
8
BLACK
6
CONTINUOUS
10
148.948
20
-160.582
11
149.043
21
-160.534
0
LINE
8
BLACK
6
CONTINUOUS
10
149.043
20
-160.534
11
149.233
21
-160.534
0
LINE
8
BLACK
6
CONTINUOUS
10
149.233
20
-160.534
11
149.329
21
-160.582
0
LINE
8
BLACK
6
CONTINUOUS
10
149.329
20
-160.582
11
149.376
21
-160.629
0
LINE
8
BLACK
6
CONTINUOUS
10
149.376
20
-160.629
11
149.424
21
-160.725
0
LINE
8
BLACK
6
CONTINUOUS
10
149.424
20
-160.725
11
149.424
21
-160.772
0
LINE
8
BLACK
6
CONTINUOUS
10
149.424
20
-160.772
11
149.376
21
-160.868
0
LINE
8
BLACK
6
CONTINUOUS
10
149.376
20
-160.868
11
149.329
21
-160.915
0
LINE
8
BLACK
6
CONTINUOUS
10
149.329
20
-160.915
11
149.233
21
-160.963
0
LINE
8
BLACK
6
CONTINUOUS
10
149.233
20
-160.963
11
149.043
21
-160.963
0
LINE
8
BLACK
6
CONTINUOUS
10
149.043
20
-160.963
11
148.948
21
-161.01
0
LINE
8
BLACK
6
CONTINUOUS
10
148.948
20
-161.01
11
148.9
21
-161.058
0
LINE
8
BLACK
6
CONTINUOUS
10
148.9
20
-161.058
11
148.852
21
-161.153
0
LINE
8
BLACK
6
CONTINUOUS
10
148.852
20
-161.153
11
148.852
21
-161.344
0
LINE
8
BLACK
6
CONTINUOUS
10
148.852
20
-161.344
11
148.9
21
-161.439
0
LINE
8
BLACK
6
CONTINUOUS
10
148.9
20
-161.439
11
148.948
21
-161.487
0
LINE
8
BLACK
6
CONTINUOUS
10
148.948
20
-161.487
11
149.043
21
-161.534
0
LINE
8
BLACK
6
CONTINUOUS
10
149.043
20
-161.534
11
149.233
21
-161.534
0
LINE
8
BLACK
6
CONTINUOUS
10
149.233
20
-161.534
11
149.329
21
-161.487
0
LINE
8
BLACK
6
CONTINUOUS
10
149.329
20
-161.487
11
149.376
21
-161.439
0
LINE
8
BLACK
6
CONTINUOUS
10
149.376
20
-161.439
11
149.424
21
-161.344
0
LINE
8
BLACK
6
CONTINUOUS
10
149.424
20
-161.344
11
149.424
21
-161.153
0
LINE
8
BLACK
6
CONTINUOUS
10
149.424
20
-161.153
11
149.376
21
-161.058
0
LINE
8
BLACK
6
CONTINUOUS
10
149.376
20
-161.058
11
149.329
21
-161.01
0
LINE
8
BLACK
6
CONTINUOUS
10
149.329
20
-161.01
11
149.233
21
-160.963
0
LINE
8
BLACK
6
CONTINUOUS
10
150.329
20
-160.534
11
149.852
21
-160.534
0
LINE
8
BLACK
6
CONTINUOUS
10
149.852
20
-160.534
11
149.805
21
-161.01
0
LINE
8
BLACK
6
CONTINUOUS
10
149.805
20
-161.01
11
149.852
21
-160.963
0
LINE
8
BLACK
6
CONTINUOUS
10
149.852
20
-160.963
11
149.948
21
-160.915
0
LINE
8
BLACK
6
CONTINUOUS
10
149.948
20
-160.915
11
150.186
21
-160.915
0
LINE
8
BLACK
6
CONTINUOUS
10
150.186
20
-160.915
11
150.281
21
-160.963
0
LINE
8
BLACK
6
CONTINUOUS
10
150.281
20
-160.963
11
150.329
21
-161.01
0
LINE
8
BLACK
6
CONTINUOUS
10
150.329
20
-161.01
11
150.376
21
-161.106
0
LINE
8
BLACK
6
CONTINUOUS
10
150.376
20
-161.106
11
150.376
21
-161.344
0
LINE
8
BLACK
6
CONTINUOUS
10
150.376
20
-161.344
11
150.329
21
-161.439
0
LINE
8
BLACK
6
CONTINUOUS
10
150.329
20
-161.439
11
150.281
21
-161.487
0
LINE
8
BLACK
6
CONTINUOUS
10
150.281
20
-161.487
11
150.186
21
-161.534
0
LINE
8
BLACK
6
CONTINUOUS
10
150.186
20
-161.534
11
149.948
21
-161.534
0
LINE
8
BLACK
6
CONTINUOUS
10
149.948
20
-161.534
11
149.852
21
-161.487
0
LINE
8
BLACK
6
CONTINUOUS
10
149.852
20
-161.487
11
149.805
21
-161.439
0
LINE
8
BLACK
6
CONTINUOUS
10
150.805
20
-161.439
11
150.852
21
-161.487
0
LINE
8
BLACK
6
CONTINUOUS
10
150.852
20
-161.487
11
150.805
21
-161.534
0
LINE
8
BLACK
6
CONTINUOUS
10
150.805
20
-161.534
11
150.757
21
-161.487
0
LINE
8
BLACK
6
CONTINUOUS
10
150.757
20
-161.487
11
150.805
21
-161.439
0
LINE
8
BLACK
6
CONTINUOUS
10
150.805
20
-161.439
11
150.805
21
-161.534
0
LINE
8
BLACK
6
CONTINUOUS
10
151.471
20
-160.534
11
151.567
21
-160.534
0
LINE
8
BLACK
6
CONTINUOUS
10
151.567
20
-160.534
11
151.662
21
-160.582
0
LINE
8
BLACK
6
CONTINUOUS
10
151.662
20
-160.582
11
151.71
21
-160.629
0
LINE
8
BLACK
6
CONTINUOUS
10
151.71
20
-160.629
11
151.757
21
-160.725
0
LINE
8
BLACK
6
CONTINUOUS
10
151.757
20
-160.725
11
151.805
21
-160.915
0
LINE
8
BLACK
6
CONTINUOUS
10
151.805
20
-160.915
11
151.805
21
-161.153
0
LINE
8
BLACK
6
CONTINUOUS
10
151.805
20
-161.153
11
151.757
21
-161.344
0
LINE
8
BLACK
6
CONTINUOUS
10
151.757
20
-161.344
11
151.71
21
-161.439
0
LINE
8
BLACK
6
CONTINUOUS
10
151.71
20
-161.439
11
151.662
21
-161.487
0
LINE
8
BLACK
6
CONTINUOUS
10
151.662
20
-161.487
11
151.567
21
-161.534
0
LINE
8
BLACK
6
CONTINUOUS
10
151.567
20
-161.534
11
151.471
21
-161.534
0
LINE
8
BLACK
6
CONTINUOUS
10
151.471
20
-161.534
11
151.376
21
-161.487
0
LINE
8
BLACK
6
CONTINUOUS
10
151.376
20
-161.487
11
151.329
21
-161.439
0
LINE
8
BLACK
6
CONTINUOUS
10
151.329
20
-161.439
11
151.281
21
-161.344
0
LINE
8
BLACK
6
CONTINUOUS
10
151.281
20
-161.344
11
151.233
21
-161.153
0
LINE
8
BLACK
6
CONTINUOUS
10
151.233
20
-161.153
11
151.233
21
-160.915
0
LINE
8
BLACK
6
CONTINUOUS
10
151.233
20
-160.915
11
151.281
21
-160.725
0
LINE
8
BLACK
6
CONTINUOUS
10
151.281
20
-160.725
11
151.329
21
-160.629
0
LINE
8
BLACK
6
CONTINUOUS
10
151.329
20
-160.629
11
151.376
21
-160.582
0
LINE
8
BLACK
6
CONTINUOUS
10
151.376
20
-160.582
11
151.471
21
-160.534
0
LINE
8
BLACK
6
CONTINUOUS
10
152.138
20
-160.534
11
152.757
21
-160.534
0
LINE
8
BLACK
6
CONTINUOUS
10
152.757
20
-160.534
11
152.424
21
-160.915
0
LINE
8
BLACK
6
CONTINUOUS
10
152.424
20
-160.915
11
152.567
21
-160.915
0
LINE
8
BLACK
6
CONTINUOUS
10
152.567
20
-160.915
11
152.662
21
-160.963
0
LINE
8
BLACK
6
CONTINUOUS
10
152.662
20
-160.963
11
152.71
21
-161.01
0
LINE
8
BLACK
6
CONTINUOUS
10
152.71
20
-161.01
11
152.757
21
-161.106
0
LINE
8
BLACK
6
CONTINUOUS
10
152.757
20
-161.106
11
152.757
21
-161.344
0
LINE
8
BLACK
6
CONTINUOUS
10
152.757
20
-161.344
11
152.71
21
-161.439
0
LINE
8
BLACK
6
CONTINUOUS
10
152.71
20
-161.439
11
152.662
21
-161.487
0
LINE
8
BLACK
6
CONTINUOUS
10
152.662
20
-161.487
11
152.567
21
-161.534
0
LINE
8
BLACK
6
CONTINUOUS
10
152.567
20
-161.534
11
152.281
21
-161.534
0
LINE
8
BLACK
6
CONTINUOUS
10
152.281
20
-161.534
11
152.186
21
-161.487
0
LINE
8
BLACK
6
CONTINUOUS
10
152.186
20
-161.487
11
152.138
21
-161.439
0
LINE
8
BLACK
6
CONTINUOUS
10
153.614
20
-160.534
11
153.424
21
-160.534
0
LINE
8
BLACK
6
CONTINUOUS
10
153.424
20
-160.534
11
153.329
21
-160.582
0
LINE
8
BLACK
6
CONTINUOUS
10
153.329
20
-160.582
11
153.281
21
-160.629
0
LINE
8
BLACK
6
CONTINUOUS
10
153.281
20
-160.629
11
153.186
21
-160.772
0
LINE
8
BLACK
6
CONTINUOUS
10
153.186
20
-160.772
11
153.138
21
-160.963
0
LINE
8
BLACK
6
CONTINUOUS
10
153.138
20
-160.963
11
153.138
21
-161.344
0
LINE
8
BLACK
6
CONTINUOUS
10
153.138
20
-161.344
11
153.186
21
-161.439
0
LINE
8
BLACK
6
CONTINUOUS
10
153.186
20
-161.439
11
153.233
21
-161.487
0
LINE
8
BLACK
6
CONTINUOUS
10
153.233
20
-161.487
11
153.329
21
-161.534
0
LINE
8
BLACK
6
CONTINUOUS
10
153.329
20
-161.534
11
153.519
21
-161.534
0
LINE
8
BLACK
6
CONTINUOUS
10
153.519
20
-161.534
11
153.614
21
-161.487
0
LINE
8
BLACK
6
CONTINUOUS
10
153.614
20
-161.487
11
153.662
21
-161.439
0
LINE
8
BLACK
6
CONTINUOUS
10
153.662
20
-161.439
11
153.71
21
-161.344
0
LINE
8
BLACK
6
CONTINUOUS
10
153.71
20
-161.344
11
153.71
21
-161.106
0
LINE
8
BLACK
6
CONTINUOUS
10
153.71
20
-161.106
11
153.662
21
-161.01
0
LINE
8
BLACK
6
CONTINUOUS
10
153.662
20
-161.01
11
153.614
21
-160.963
0
LINE
8
BLACK
6
CONTINUOUS
10
153.614
20
-160.963
11
153.519
21
-160.915
0
LINE
8
BLACK
6
CONTINUOUS
10
153.519
20
-160.915
11
153.329
21
-160.915
0
LINE
8
BLACK
6
CONTINUOUS
10
153.329
20
-160.915
11
153.233
21
-160.963
0
LINE
8
BLACK
6
CONTINUOUS
10
153.233
20
-160.963
11
153.186
21
-161.01
0
LINE
8
BLACK
6
CONTINUOUS
10
153.186
20
-161.01
11
153.138
21
-161.106
0
LINE
8
BLACK
6
CONTINUOUS
10
154.9
20
-161.534
11
154.9
21
-160.868
0
LINE
8
BLACK
6
CONTINUOUS
10
154.9
20
-160.963
11
154.948
21
-160.915
0
LINE
8
BLACK
6
CONTINUOUS
10
154.948
20
-160.915
11
155.043
21
-160.868
0
LINE
8
BLACK
6
CONTINUOUS
10
155.043
20
-160.868
11
155.186
21
-160.868
0
LINE
8
BLACK
6
CONTINUOUS
10
155.186
20
-160.868
11
155.281
21
-160.915
0
LINE
8
BLACK
6
CONTINUOUS
10
155.281
20
-160.915
11
155.329
21
-161.01
0
LINE
8
BLACK
6
CONTINUOUS
10
155.329
20
-161.01
11
155.329
21
-161.534
0
LINE
8
BLACK
6
CONTINUOUS
10
155.329
20
-161.01
11
155.376
21
-160.915
0
LINE
8
BLACK
6
CONTINUOUS
10
155.376
20
-160.915
11
155.471
21
-160.868
0
LINE
8
BLACK
6
CONTINUOUS
10
155.471
20
-160.868
11
155.614
21
-160.868
0
LINE
8
BLACK
6
CONTINUOUS
10
155.614
20
-160.868
11
155.71
21
-160.915
0
LINE
8
BLACK
6
CONTINUOUS
10
155.71
20
-160.915
11
155.757
21
-161.01
0
LINE
8
BLACK
6
CONTINUOUS
10
155.757
20
-161.01
11
155.757
21
-161.534
0
LINE
8
BLACK
6
CONTINUOUS
10
156.233
20
-161.534
11
156.233
21
-160.868
0
LINE
8
BLACK
6
CONTINUOUS
10
156.233
20
-160.963
11
156.281
21
-160.915
0
LINE
8
BLACK
6
CONTINUOUS
10
156.281
20
-160.915
11
156.376
21
-160.868
0
LINE
8
BLACK
6
CONTINUOUS
10
156.376
20
-160.868
11
156.519
21
-160.868
0
LINE
8
BLACK
6
CONTINUOUS
10
156.519
20
-160.868
11
156.614
21
-160.915
0
LINE
8
BLACK
6
CONTINUOUS
10
156.614
20
-160.915
11
156.662
21
-161.01
0
LINE
8
BLACK
6
CONTINUOUS
10
156.662
20
-161.01
11
156.662
21
-161.534
0
LINE
8
BLACK
6
CONTINUOUS
10
156.662
20
-161.01
11
156.71
21
-160.915
0
LINE
8
BLACK
6
CONTINUOUS
10
156.71
20
-160.915
11
156.805
21
-160.868
0
LINE
8
BLACK
6
CONTINUOUS
10
156.805
20
-160.868
11
156.948
21
-160.868
0
LINE
8
BLACK
6
CONTINUOUS
10
156.948
20
-160.868
11
157.043
21
-160.915
0
LINE
8
BLACK
6
CONTINUOUS
10
157.043
20
-160.915
11
157.09
21
-161.01
0
LINE
8
BLACK
6
CONTINUOUS
10
157.09
20
-161.01
11
157.09
21
-161.534
0
LINE
8
BLACK
6
CONTINUOUS
10
295.037
20
-159.782
11
10.0012
21
-159.782
0
LINE
8
BLACK
6
CONTINUOUS
10
295.037
20
-146.447
11
295.037
21
-160.368
0
LINE
8
BLACK
6
CONTINUOUS
10
10.0012
20
-146.447
11
10.0012
21
-160.368
0
LINE
8
BLACK
6
CONTINUOUS
10
10.0012
20
-159.782
11
11.1278
21
-159.195
0
LINE
8
BLACK
6
CONTINUOUS
10
10.0012
20
-159.782
11
11.1278
21
-160.368
0
LINE
8
BLACK
6
CONTINUOUS
10
295.037
20
-159.782
11
293.91
21
-159.195
0
LINE
8
BLACK
6
CONTINUOUS
10
295.037
20
-159.782
11
293.91
21
-160.368
0
LINE
8
BLACK
6
CONTINUOUS
10
28.11
20
-54.78
11
28.11
21
-64.8891
0
LINE
8
BLACK
6
CONTINUOUS
10
175.403
20
-152.891
11
175.403
21
-153.557
0
LINE
8
BLACK
6
CONTINUOUS
10
175.165
20
-152.51
11
174.927
21
-153.224
0
LINE
8
BLACK
6
CONTINUOUS
10
174.927
20
-153.224
11
175.546
21
-153.224
0
LINE
8
BLACK
6
CONTINUOUS
10
175.927
20
-153.462
11
175.975
21
-153.51
0
LINE
8
BLACK
6
CONTINUOUS
10
175.975
20
-153.51
11
175.927
21
-153.557
0
LINE
8
BLACK
6
CONTINUOUS
10
175.927
20
-153.557
11
175.88
21
-153.51
0
LINE
8
BLACK
6
CONTINUOUS
10
175.88
20
-153.51
11
175.927
21
-153.462
0
LINE
8
BLACK
6
CONTINUOUS
10
175.927
20
-153.462
11
175.927
21
-153.557
0
LINE
8
BLACK
6
CONTINUOUS
10
176.308
20
-152.557
11
176.975
21
-152.557
0
LINE
8
BLACK
6
CONTINUOUS
10
176.975
20
-152.557
11
176.546
21
-153.557
0
LINE
8
BLACK
6
CONTINUOUS
10
177.784
20
-152.557
11
177.594
21
-152.557
0
LINE
8
BLACK
6
CONTINUOUS
10
177.594
20
-152.557
11
177.499
21
-152.605
0
LINE
8
BLACK
6
CONTINUOUS
10
177.499
20
-152.605
11
177.451
21
-152.652
0
LINE
8
BLACK
6
CONTINUOUS
10
177.451
20
-152.652
11
177.356
21
-152.795
0
LINE
8
BLACK
6
CONTINUOUS
10
177.356
20
-152.795
11
177.308
21
-152.986
0
LINE
8
BLACK
6
CONTINUOUS
10
177.308
20
-152.986
11
177.308
21
-153.367
0
LINE
8
BLACK
6
CONTINUOUS
10
177.308
20
-153.367
11
177.356
21
-153.462
0
LINE
8
BLACK
6
CONTINUOUS
10
177.356
20
-153.462
11
177.403
21
-153.51
0
LINE
8
BLACK
6
CONTINUOUS
10
177.403
20
-153.51
11
177.499
21
-153.557
0
LINE
8
BLACK
6
CONTINUOUS
10
177.499
20
-153.557
11
177.689
21
-153.557
0
LINE
8
BLACK
6
CONTINUOUS
10
177.689
20
-153.557
11
177.784
21
-153.51
0
LINE
8
BLACK
6
CONTINUOUS
10
177.784
20
-153.51
11
177.832
21
-153.462
0
LINE
8
BLACK
6
CONTINUOUS
10
177.832
20
-153.462
11
177.88
21
-153.367
0
LINE
8
BLACK
6
CONTINUOUS
10
177.88
20
-153.367
11
177.88
21
-153.129
0
LINE
8
BLACK
6
CONTINUOUS
10
177.88
20
-153.129
11
177.832
21
-153.033
0
LINE
8
BLACK
6
CONTINUOUS
10
177.832
20
-153.033
11
177.784
21
-152.986
0
LINE
8
BLACK
6
CONTINUOUS
10
177.784
20
-152.986
11
177.689
21
-152.938
0
LINE
8
BLACK
6
CONTINUOUS
10
177.689
20
-152.938
11
177.499
21
-152.938
0
LINE
8
BLACK
6
CONTINUOUS
10
177.499
20
-152.938
11
177.403
21
-152.986
0
LINE
8
BLACK
6
CONTINUOUS
10
177.403
20
-152.986
11
177.356
21
-153.033
0
LINE
8
BLACK
6
CONTINUOUS
10
177.356
20
-153.033
11
177.308
21
-153.129
0
LINE
8
BLACK
6
CONTINUOUS
10
178.213
20
-152.557
11
178.832
21
-152.557
0
LINE
8
BLACK
6
CONTINUOUS
10
178.832
20
-152.557
11
178.499
21
-152.938
0
LINE
8
BLACK
6
CONTINUOUS
10
178.499
20
-152.938
11
178.642
21
-152.938
0
LINE
8
BLACK
6
CONTINUOUS
10
178.642
20
-152.938
11
178.737
21
-152.986
0
LINE
8
BLACK
6
CONTINUOUS
10
178.737
20
-152.986
11
178.784
21
-153.033
0
LINE
8
BLACK
6
CONTINUOUS
10
178.784
20
-153.033
11
178.832
21
-153.129
0
LINE
8
BLACK
6
CONTINUOUS
10
178.832
20
-153.129
11
178.832
21
-153.367
0
LINE
8
BLACK
6
CONTINUOUS
10
178.832
20
-153.367
11
178.784
21
-153.462
0
LINE
8
BLACK
6
CONTINUOUS
10
178.784
20
-153.462
11
178.737
21
-153.51
0
LINE
8
BLACK
6
CONTINUOUS
10
178.737
20
-153.51
11
178.642
21
-153.557
0
LINE
8
BLACK
6
CONTINUOUS
10
178.642
20
-153.557
11
178.356
21
-153.557
0
LINE
8
BLACK
6
CONTINUOUS
10
178.356
20
-153.557
11
178.261
21
-153.51
0
LINE
8
BLACK
6
CONTINUOUS
10
178.261
20
-153.51
11
178.213
21
-153.462
0
LINE
8
BLACK
6
CONTINUOUS
10
180.022
20
-153.557
11
180.022
21
-152.891
0
LINE
8
BLACK
6
CONTINUOUS
10
180.022
20
-152.986
11
180.07
21
-152.938
0
LINE
8
BLACK
6
CONTINUOUS
10
180.07
20
-152.938
11
180.165
21
-152.891
0
LINE
8
BLACK
6
CONTINUOUS
10
180.165
20
-152.891
11
180.308
21
-152.891
0
LINE
8
BLACK
6
CONTINUOUS
10
180.308
20
-152.891
11
180.403
21
-152.938
0
LINE
8
BLACK
6
CONTINUOUS
10
180.403
20
-152.938
11
180.451
21
-153.033
0
LINE
8
BLACK
6
CONTINUOUS
10
180.451
20
-153.033
11
180.451
21
-153.557
0
LINE
8
BLACK
6
CONTINUOUS
10
180.451
20
-153.033
11
180.499
21
-152.938
0
LINE
8
BLACK
6
CONTINUOUS
10
180.499
20
-152.938
11
180.594
21
-152.891
0
LINE
8
BLACK
6
CONTINUOUS
10
180.594
20
-152.891
11
180.737
21
-152.891
0
LINE
8
BLACK
6
CONTINUOUS
10
180.737
20
-152.891
11
180.832
21
-152.938
0
LINE
8
BLACK
6
CONTINUOUS
10
180.832
20
-152.938
11
180.88
21
-153.033
0
LINE
8
BLACK
6
CONTINUOUS
10
180.88
20
-153.033
11
180.88
21
-153.557
0
LINE
8
BLACK
6
CONTINUOUS
10
181.356
20
-153.557
11
181.356
21
-152.891
0
LINE
8
BLACK
6
CONTINUOUS
10
181.356
20
-152.986
11
181.403
21
-152.938
0
LINE
8
BLACK
6
CONTINUOUS
10
181.403
20
-152.938
11
181.499
21
-152.891
0
LINE
8
BLACK
6
CONTINUOUS
10
181.499
20
-152.891
11
181.642
21
-152.891
0
LINE
8
BLACK
6
CONTINUOUS
10
181.642
20
-152.891
11
181.737
21
-152.938
0
LINE
8
BLACK
6
CONTINUOUS
10
181.737
20
-152.938
11
181.784
21
-153.033
0
LINE
8
BLACK
6
CONTINUOUS
10
181.784
20
-153.033
11
181.784
21
-153.557
0
LINE
8
BLACK
6
CONTINUOUS
10
181.784
20
-153.033
11
181.832
21
-152.938
0
LINE
8
BLACK
6
CONTINUOUS
10
181.832
20
-152.938
11
181.927
21
-152.891
0
LINE
8
BLACK
6
CONTINUOUS
10
181.927
20
-152.891
11
182.07
21
-152.891
0
LINE
8
BLACK
6
CONTINUOUS
10
182.07
20
-152.891
11
182.165
21
-152.938
0
LINE
8
BLACK
6
CONTINUOUS
10
182.165
20
-152.938
11
182.213
21
-153.033
0
LINE
8
BLACK
6
CONTINUOUS
10
182.213
20
-153.033
11
182.213
21
-153.557
0
LINE
8
BLACK
6
CONTINUOUS
10
176.213
20
-151.805
11
180.975
21
-151.805
0
LINE
8
BLACK
6
CONTINUOUS
10
176.213
20
-144.661
11
176.213
21
-152.391
0
LINE
8
BLACK
6
CONTINUOUS
10
180.975
20
-144.661
11
180.975
21
-152.391
0
LINE
8
BLACK
6
CONTINUOUS
10
180.975
20
-151.805
11
179.849
21
-152.391
0
LINE
8
BLACK
6
CONTINUOUS
10
180.975
20
-151.805
11
179.849
21
-151.218
0
LINE
8
BLACK
6
CONTINUOUS
10
176.213
20
-151.805
11
177.339
21
-152.391
0
LINE
8
BLACK
6
CONTINUOUS
10
176.213
20
-151.805
11
177.339
21
-151.218
0
LINE
8
BLACK
6
CONTINUOUS
10
152.4
20
-149.424
11
152.4
21
-51.1969
0
LINE
8
BLACK
6
CONTINUOUS
10
133.97
20
-152.652
11
134.017
21
-152.605
0
LINE
8
BLACK
6
CONTINUOUS
10
134.017
20
-152.605
11
134.113
21
-152.557
0
LINE
8
BLACK
6
CONTINUOUS
10
134.113
20
-152.557
11
134.351
21
-152.557
0
LINE
8
BLACK
6
CONTINUOUS
10
134.351
20
-152.557
11
134.446
21
-152.605
0
LINE
8
BLACK
6
CONTINUOUS
10
134.446
20
-152.605
11
134.494
21
-152.652
0
LINE
8
BLACK
6
CONTINUOUS
10
134.494
20
-152.652
11
134.541
21
-152.748
0
LINE
8
BLACK
6
CONTINUOUS
10
134.541
20
-152.748
11
134.541
21
-152.843
0
LINE
8
BLACK
6
CONTINUOUS
10
134.541
20
-152.843
11
134.494
21
-152.986
0
LINE
8
BLACK
6
CONTINUOUS
10
134.494
20
-152.986
11
133.922
21
-153.557
0
LINE
8
BLACK
6
CONTINUOUS
10
133.922
20
-153.557
11
134.541
21
-153.557
0
LINE
8
BLACK
6
CONTINUOUS
10
135.113
20
-152.986
11
135.017
21
-152.938
0
LINE
8
BLACK
6
CONTINUOUS
10
135.017
20
-152.938
11
134.97
21
-152.891
0
LINE
8
BLACK
6
CONTINUOUS
10
134.97
20
-152.891
11
134.922
21
-152.795
0
LINE
8
BLACK
6
CONTINUOUS
10
134.922
20
-152.795
11
134.922
21
-152.748
0
LINE
8
BLACK
6
CONTINUOUS
10
134.922
20
-152.748
11
134.97
21
-152.652
0
LINE
8
BLACK
6
CONTINUOUS
10
134.97
20
-152.652
11
135.017
21
-152.605
0
LINE
8
BLACK
6
CONTINUOUS
10
135.017
20
-152.605
11
135.113
21
-152.557
0
LINE
8
BLACK
6
CONTINUOUS
10
135.113
20
-152.557
11
135.303
21
-152.557
0
LINE
8
BLACK
6
CONTINUOUS
10
135.303
20
-152.557
11
135.398
21
-152.605
0
LINE
8
BLACK
6
CONTINUOUS
10
135.398
20
-152.605
11
135.446
21
-152.652
0
LINE
8
BLACK
6
CONTINUOUS
10
135.446
20
-152.652
11
135.494
21
-152.748
0
LINE
8
BLACK
6
CONTINUOUS
10
135.494
20
-152.748
11
135.494
21
-152.795
0
LINE
8
BLACK
6
CONTINUOUS
10
135.494
20
-152.795
11
135.446
21
-152.891
0
LINE
8
BLACK
6
CONTINUOUS
10
135.446
20
-152.891
11
135.398
21
-152.938
0
LINE
8
BLACK
6
CONTINUOUS
10
135.398
20
-152.938
11
135.303
21
-152.986
0
LINE
8
BLACK
6
CONTINUOUS
10
135.303
20
-152.986
11
135.113
21
-152.986
0
LINE
8
BLACK
6
CONTINUOUS
10
135.113
20
-152.986
11
135.017
21
-153.033
0
LINE
8
BLACK
6
CONTINUOUS
10
135.017
20
-153.033
11
134.97
21
-153.081
0
LINE
8
BLACK
6
CONTINUOUS
10
134.97
20
-153.081
11
134.922
21
-153.176
0
LINE
8
BLACK
6
CONTINUOUS
10
134.922
20
-153.176
11
134.922
21
-153.367
0
LINE
8
BLACK
6
CONTINUOUS
10
134.922
20
-153.367
11
134.97
21
-153.462
0
LINE
8
BLACK
6
CONTINUOUS
10
134.97
20
-153.462
11
135.017
21
-153.51
0
LINE
8
BLACK
6
CONTINUOUS
10
135.017
20
-153.51
11
135.113
21
-153.557
0
LINE
8
BLACK
6
CONTINUOUS
10
135.113
20
-153.557
11
135.303
21
-153.557
0
LINE
8
BLACK
6
CONTINUOUS
10
135.303
20
-153.557
11
135.398
21
-153.51
0
LINE
8
BLACK
6
CONTINUOUS
10
135.398
20
-153.51
11
135.446
21
-153.462
0
LINE
8
BLACK
6
CONTINUOUS
10
135.446
20
-153.462
11
135.494
21
-153.367
0
LINE
8
BLACK
6
CONTINUOUS
10
135.494
20
-153.367
11
135.494
21
-153.176
0
LINE
8
BLACK
6
CONTINUOUS
10
135.494
20
-153.176
11
135.446
21
-153.081
0
LINE
8
BLACK
6
CONTINUOUS
10
135.446
20
-153.081
11
135.398
21
-153.033
0
LINE
8
BLACK
6
CONTINUOUS
10
135.398
20
-153.033
11
135.303
21
-152.986
0
LINE
8
BLACK
6
CONTINUOUS
10
135.922
20
-153.462
11
135.97
21
-153.51
0
LINE
8
BLACK
6
CONTINUOUS
10
135.97
20
-153.51
11
135.922
21
-153.557
0
LINE
8
BLACK
6
CONTINUOUS
10
135.922
20
-153.557
11
135.875
21
-153.51
0
LINE
8
BLACK
6
CONTINUOUS
10
135.875
20
-153.51
11
135.922
21
-153.462
0
LINE
8
BLACK
6
CONTINUOUS
10
135.922
20
-153.462
11
135.922
21
-153.557
0
LINE
8
BLACK
6
CONTINUOUS
10
136.875
20
-152.557
11
136.398
21
-152.557
0
LINE
8
BLACK
6
CONTINUOUS
10
136.398
20
-152.557
11
136.351
21
-153.033
0
LINE
8
BLACK
6
CONTINUOUS
10
136.351
20
-153.033
11
136.398
21
-152.986
0
LINE
8
BLACK
6
CONTINUOUS
10
136.398
20
-152.986
11
136.494
21
-152.938
0
LINE
8
BLACK
6
CONTINUOUS
10
136.494
20
-152.938
11
136.732
21
-152.938
0
LINE
8
BLACK
6
CONTINUOUS
10
136.732
20
-152.938
11
136.827
21
-152.986
0
LINE
8
BLACK
6
CONTINUOUS
10
136.827
20
-152.986
11
136.875
21
-153.033
0
LINE
8
BLACK
6
CONTINUOUS
10
136.875
20
-153.033
11
136.922
21
-153.129
0
LINE
8
BLACK
6
CONTINUOUS
10
136.922
20
-153.129
11
136.922
21
-153.367
0
LINE
8
BLACK
6
CONTINUOUS
10
136.922
20
-153.367
11
136.875
21
-153.462
0
LINE
8
BLACK
6
CONTINUOUS
10
136.875
20
-153.462
11
136.827
21
-153.51
0
LINE
8
BLACK
6
CONTINUOUS
10
136.827
20
-153.51
11
136.732
21
-153.557
0
LINE
8
BLACK
6
CONTINUOUS
10
136.732
20
-153.557
11
136.494
21
-153.557
0
LINE
8
BLACK
6
CONTINUOUS
10
136.494
20
-153.557
11
136.398
21
-153.51
0
LINE
8
BLACK
6
CONTINUOUS
10
136.398
20
-153.51
11
136.351
21
-153.462
0
LINE
8
BLACK
6
CONTINUOUS
10
137.255
20
-152.557
11
137.922
21
-152.557
0
LINE
8
BLACK
6
CONTINUOUS
10
137.922
20
-152.557
11
137.494
21
-153.557
0
LINE
8
BLACK
6
CONTINUOUS
10
138.779
20
-152.557
11
138.303
21
-152.557
0
LINE
8
BLACK
6
CONTINUOUS
10
138.303
20
-152.557
11
138.255
21
-153.033
0
LINE
8
BLACK
6
CONTINUOUS
10
138.255
20
-153.033
11
138.303
21
-152.986
0
LINE
8
BLACK
6
CONTINUOUS
10
138.303
20
-152.986
11
138.398
21
-152.938
0
LINE
8
BLACK
6
CONTINUOUS
10
138.398
20
-152.938
11
138.636
21
-152.938
0
LINE
8
BLACK
6
CONTINUOUS
10
138.636
20
-152.938
11
138.732
21
-152.986
0
LINE
8
BLACK
6
CONTINUOUS
10
138.732
20
-152.986
11
138.779
21
-153.033
0
LINE
8
BLACK
6
CONTINUOUS
10
138.779
20
-153.033
11
138.827
21
-153.129
0
LINE
8
BLACK
6
CONTINUOUS
10
138.827
20
-153.129
11
138.827
21
-153.367
0
LINE
8
BLACK
6
CONTINUOUS
10
138.827
20
-153.367
11
138.779
21
-153.462
0
LINE
8
BLACK
6
CONTINUOUS
10
138.779
20
-153.462
11
138.732
21
-153.51
0
LINE
8
BLACK
6
CONTINUOUS
10
138.732
20
-153.51
11
138.636
21
-153.557
0
LINE
8
BLACK
6
CONTINUOUS
10
138.636
20
-153.557
11
138.398
21
-153.557
0
LINE
8
BLACK
6
CONTINUOUS
10
138.398
20
-153.557
11
138.303
21
-153.51
0
LINE
8
BLACK
6
CONTINUOUS
10
138.303
20
-153.51
11
138.255
21
-153.462
0
LINE
8
BLACK
6
CONTINUOUS
10
140.017
20
-153.557
11
140.017
21
-152.891
0
LINE
8
BLACK
6
CONTINUOUS
10
140.017
20
-152.986
11
140.065
21
-152.938
0
LINE
8
BLACK
6
CONTINUOUS
10
140.065
20
-152.938
11
140.16
21
-152.891
0
LINE
8
BLACK
6
CONTINUOUS
10
140.16
20
-152.891
11
140.303
21
-152.891
0
LINE
8
BLACK
6
CONTINUOUS
10
140.303
20
-152.891
11
140.398
21
-152.938
0
LINE
8
BLACK
6
CONTINUOUS
10
140.398
20
-152.938
11
140.446
21
-153.033
0
LINE
8
BLACK
6
CONTINUOUS
10
140.446
20
-153.033
11
140.446
21
-153.557
0
LINE
8
BLACK
6
CONTINUOUS
10
140.446
20
-153.033
11
140.494
21
-152.938
0
LINE
8
BLACK
6
CONTINUOUS
10
140.494
20
-152.938
11
140.589
21
-152.891
0
LINE
8
BLACK
6
CONTINUOUS
10
140.589
20
-152.891
11
140.732
21
-152.891
0
LINE
8
BLACK
6
CONTINUOUS
10
140.732
20
-152.891
11
140.827
21
-152.938
0
LINE
8
BLACK
6
CONTINUOUS
10
140.827
20
-152.938
11
140.875
21
-153.033
0
LINE
8
BLACK
6
CONTINUOUS
10
140.875
20
-153.033
11
140.875
21
-153.557
0
LINE
8
BLACK
6
CONTINUOUS
10
141.351
20
-153.557
11
141.351
21
-152.891
0
LINE
8
BLACK
6
CONTINUOUS
10
141.351
20
-152.986
11
141.398
21
-152.938
0
LINE
8
BLACK
6
CONTINUOUS
10
141.398
20
-152.938
11
141.494
21
-152.891
0
LINE
8
BLACK
6
CONTINUOUS
10
141.494
20
-152.891
11
141.636
21
-152.891
0
LINE
8
BLACK
6
CONTINUOUS
10
141.636
20
-152.891
11
141.732
21
-152.938
0
LINE
8
BLACK
6
CONTINUOUS
10
141.732
20
-152.938
11
141.779
21
-153.033
0
LINE
8
BLACK
6
CONTINUOUS
10
141.779
20
-153.033
11
141.779
21
-153.557
0
LINE
8
BLACK
6
CONTINUOUS
10
141.779
20
-153.033
11
141.827
21
-152.938
0
LINE
8
BLACK
6
CONTINUOUS
10
141.827
20
-152.938
11
141.922
21
-152.891
0
LINE
8
BLACK
6
CONTINUOUS
10
141.922
20
-152.891
11
142.065
21
-152.891
0
LINE
8
BLACK
6
CONTINUOUS
10
142.065
20
-152.891
11
142.16
21
-152.938
0
LINE
8
BLACK
6
CONTINUOUS
10
142.16
20
-152.938
11
142.208
21
-153.033
0
LINE
8
BLACK
6
CONTINUOUS
10
142.208
20
-153.033
11
142.208
21
-153.557
0
LINE
8
BLACK
6
CONTINUOUS
10
123.825
20
-151.805
11
152.4
21
-151.805
0
LINE
8
BLACK
6
CONTINUOUS
10
123.825
20
-149.424
11
123.825
21
-152.391
0
LINE
8
BLACK
6
CONTINUOUS
10
152.4
20
-149.424
11
152.4
21
-152.391
0
LINE
8
BLACK
6
CONTINUOUS
10
152.4
20
-151.805
11
151.274
21
-152.391
0
LINE
8
BLACK
6
CONTINUOUS
10
152.4
20
-151.805
11
151.274
21
-151.218
0
LINE
8
BLACK
6
CONTINUOUS
10
123.825
20
-151.805
11
124.952
21
-152.391
0
LINE
8
BLACK
6
CONTINUOUS
10
123.825
20
-151.805
11
124.952
21
-151.218
0
LINE
8
BLACK
6
CONTINUOUS
10
148.781
20
-155.534
11
148.305
21
-155.534
0
LINE
8
BLACK
6
CONTINUOUS
10
148.305
20
-155.534
11
148.257
21
-156.01
0
LINE
8
BLACK
6
CONTINUOUS
10
148.257
20
-156.01
11
148.305
21
-155.962
0
LINE
8
BLACK
6
CONTINUOUS
10
148.305
20
-155.962
11
148.4
21
-155.915
0
LINE
8
BLACK
6
CONTINUOUS
10
148.4
20
-155.915
11
148.638
21
-155.915
0
LINE
8
BLACK
6
CONTINUOUS
10
148.638
20
-155.915
11
148.733
21
-155.962
0
LINE
8
BLACK
6
CONTINUOUS
10
148.733
20
-155.962
11
148.781
21
-156.01
0
LINE
8
BLACK
6
CONTINUOUS
10
148.781
20
-156.01
11
148.829
21
-156.105
0
LINE
8
BLACK
6
CONTINUOUS
10
148.829
20
-156.105
11
148.829
21
-156.343
0
LINE
8
BLACK
6
CONTINUOUS
10
148.829
20
-156.343
11
148.781
21
-156.439
0
LINE
8
BLACK
6
CONTINUOUS
10
148.781
20
-156.439
11
148.733
21
-156.486
0
LINE
8
BLACK
6
CONTINUOUS
10
148.733
20
-156.486
11
148.638
21
-156.534
0
LINE
8
BLACK
6
CONTINUOUS
10
148.638
20
-156.534
11
148.4
21
-156.534
0
LINE
8
BLACK
6
CONTINUOUS
10
148.4
20
-156.534
11
148.305
21
-156.486
0
LINE
8
BLACK
6
CONTINUOUS
10
148.305
20
-156.486
11
148.257
21
-156.439
0
LINE
8
BLACK
6
CONTINUOUS
10
149.162
20
-155.534
11
149.829
21
-155.534
0
LINE
8
BLACK
6
CONTINUOUS
10
149.829
20
-155.534
11
149.4
21
-156.534
0
LINE
8
BLACK
6
CONTINUOUS
10
150.21
20
-156.439
11
150.257
21
-156.486
0
LINE
8
BLACK
6
CONTINUOUS
10
150.257
20
-156.486
11
150.21
21
-156.534
0
LINE
8
BLACK
6
CONTINUOUS
10
150.21
20
-156.534
11
150.162
21
-156.486
0
LINE
8
BLACK
6
CONTINUOUS
10
150.162
20
-156.486
11
150.21
21
-156.439
0
LINE
8
BLACK
6
CONTINUOUS
10
150.21
20
-156.439
11
150.21
21
-156.534
0
LINE
8
BLACK
6
CONTINUOUS
10
151.21
20
-156.534
11
150.638
21
-156.534
0
LINE
8
BLACK
6
CONTINUOUS
10
150.924
20
-156.534
11
150.924
21
-155.534
0
LINE
8
BLACK
6
CONTINUOUS
10
150.924
20
-155.534
11
150.829
21
-155.677
0
LINE
8
BLACK
6
CONTINUOUS
10
150.829
20
-155.677
11
150.733
21
-155.772
0
LINE
8
BLACK
6
CONTINUOUS
10
150.733
20
-155.772
11
150.638
21
-155.819
0
LINE
8
BLACK
6
CONTINUOUS
10
152.114
20
-155.534
11
151.638
21
-155.534
0
LINE
8
BLACK
6
CONTINUOUS
10
151.638
20
-155.534
11
151.591
21
-156.01
0
LINE
8
BLACK
6
CONTINUOUS
10
151.591
20
-156.01
11
151.638
21
-155.962
0
LINE
8
BLACK
6
CONTINUOUS
10
151.638
20
-155.962
11
151.733
21
-155.915
0
LINE
8
BLACK
6
CONTINUOUS
10
151.733
20
-155.915
11
151.972
21
-155.915
0
LINE
8
BLACK
6
CONTINUOUS
10
151.972
20
-155.915
11
152.067
21
-155.962
0
LINE
8
BLACK
6
CONTINUOUS
10
152.067
20
-155.962
11
152.114
21
-156.01
0
LINE
8
BLACK
6
CONTINUOUS
10
152.114
20
-156.01
11
152.162
21
-156.105
0
LINE
8
BLACK
6
CONTINUOUS
10
152.162
20
-156.105
11
152.162
21
-156.343
0
LINE
8
BLACK
6
CONTINUOUS
10
152.162
20
-156.343
11
152.114
21
-156.439
0
LINE
8
BLACK
6
CONTINUOUS
10
152.114
20
-156.439
11
152.067
21
-156.486
0
LINE
8
BLACK
6
CONTINUOUS
10
152.067
20
-156.486
11
151.972
21
-156.534
0
LINE
8
BLACK
6
CONTINUOUS
10
151.972
20
-156.534
11
151.733
21
-156.534
0
LINE
8
BLACK
6
CONTINUOUS
10
151.733
20
-156.534
11
151.638
21
-156.486
0
LINE
8
BLACK
6
CONTINUOUS
10
151.638
20
-156.486
11
151.591
21
-156.439
0
LINE
8
BLACK
6
CONTINUOUS
10
152.781
20
-155.534
11
152.876
21
-155.534
0
LINE
8
BLACK
6
CONTINUOUS
10
152.876
20
-155.534
11
152.972
21
-155.581
0
LINE
8
BLACK
6
CONTINUOUS
10
152.972
20
-155.581
11
153.019
21
-155.629
0
LINE
8
BLACK
6
CONTINUOUS
10
153.019
20
-155.629
11
153.067
21
-155.724
0
LINE
8
BLACK
6
CONTINUOUS
10
153.067
20
-155.724
11
153.114
21
-155.915
0
LINE
8
BLACK
6
CONTINUOUS
10
153.114
20
-155.915
11
153.114
21
-156.153
0
LINE
8
BLACK
6
CONTINUOUS
10
153.114
20
-156.153
11
153.067
21
-156.343
0
LINE
8
BLACK
6
CONTINUOUS
10
153.067
20
-156.343
11
153.019
21
-156.439
0
LINE
8
BLACK
6
CONTINUOUS
10
153.019
20
-156.439
11
152.972
21
-156.486
0
LINE
8
BLACK
6
CONTINUOUS
10
152.972
20
-156.486
11
152.876
21
-156.534
0
LINE
8
BLACK
6
CONTINUOUS
10
152.876
20
-156.534
11
152.781
21
-156.534
0
LINE
8
BLACK
6
CONTINUOUS
10
152.781
20
-156.534
11
152.686
21
-156.486
0
LINE
8
BLACK
6
CONTINUOUS
10
152.686
20
-156.486
11
152.638
21
-156.439
0
LINE
8
BLACK
6
CONTINUOUS
10
152.638
20
-156.439
11
152.591
21
-156.343
0
LINE
8
BLACK
6
CONTINUOUS
10
152.591
20
-156.343
11
152.543
21
-156.153
0
LINE
8
BLACK
6
CONTINUOUS
10
152.543
20
-156.153
11
152.543
21
-155.915
0
LINE
8
BLACK
6
CONTINUOUS
10
152.543
20
-155.915
11
152.591
21
-155.724
0
LINE
8
BLACK
6
CONTINUOUS
10
152.591
20
-155.724
11
152.638
21
-155.629
0
LINE
8
BLACK
6
CONTINUOUS
10
152.638
20
-155.629
11
152.686
21
-155.581
0
LINE
8
BLACK
6
CONTINUOUS
10
152.686
20
-155.581
11
152.781
21
-155.534
0
LINE
8
BLACK
6
CONTINUOUS
10
154.305
20
-156.534
11
154.305
21
-155.867
0
LINE
8
BLACK
6
CONTINUOUS
10
154.305
20
-155.962
11
154.353
21
-155.915
0
LINE
8
BLACK
6
CONTINUOUS
10
154.353
20
-155.915
11
154.448
21
-155.867
0
LINE
8
BLACK
6
CONTINUOUS
10
154.448
20
-155.867
11
154.591
21
-155.867
0
LINE
8
BLACK
6
CONTINUOUS
10
154.591
20
-155.867
11
154.686
21
-155.915
0
LINE
8
BLACK
6
CONTINUOUS
10
154.686
20
-155.915
11
154.733
21
-156.01
0
LINE
8
BLACK
6
CONTINUOUS
10
154.733
20
-156.01
11
154.733
21
-156.534
0
LINE
8
BLACK
6
CONTINUOUS
10
154.733
20
-156.01
11
154.781
21
-155.915
0
LINE
8
BLACK
6
CONTINUOUS
10
154.781
20
-155.915
11
154.876
21
-155.867
0
LINE
8
BLACK
6
CONTINUOUS
10
154.876
20
-155.867
11
155.019
21
-155.867
0
LINE
8
BLACK
6
CONTINUOUS
10
155.019
20
-155.867
11
155.114
21
-155.915
0
LINE
8
BLACK
6
CONTINUOUS
10
155.114
20
-155.915
11
155.162
21
-156.01
0
LINE
8
BLACK
6
CONTINUOUS
10
155.162
20
-156.01
11
155.162
21
-156.534
0
LINE
8
BLACK
6
CONTINUOUS
10
155.638
20
-156.534
11
155.638
21
-155.867
0
LINE
8
BLACK
6
CONTINUOUS
10
155.638
20
-155.962
11
155.686
21
-155.915
0
LINE
8
BLACK
6
CONTINUOUS
10
155.686
20
-155.915
11
155.781
21
-155.867
0
LINE
8
BLACK
6
CONTINUOUS
10
155.781
20
-155.867
11
155.924
21
-155.867
0
LINE
8
BLACK
6
CONTINUOUS
10
155.924
20
-155.867
11
156.019
21
-155.915
0
LINE
8
BLACK
6
CONTINUOUS
10
156.019
20
-155.915
11
156.067
21
-156.01
0
LINE
8
BLACK
6
CONTINUOUS
10
156.067
20
-156.01
11
156.067
21
-156.534
0
LINE
8
BLACK
6
CONTINUOUS
10
156.067
20
-156.01
11
156.114
21
-155.915
0
LINE
8
BLACK
6
CONTINUOUS
10
156.114
20
-155.915
11
156.21
21
-155.867
0
LINE
8
BLACK
6
CONTINUOUS
10
156.21
20
-155.867
11
156.353
21
-155.867
0
LINE
8
BLACK
6
CONTINUOUS
10
156.353
20
-155.867
11
156.448
21
-155.915
0
LINE
8
BLACK
6
CONTINUOUS
10
156.448
20
-155.915
11
156.495
21
-156.01
0
LINE
8
BLACK
6
CONTINUOUS
10
156.495
20
-156.01
11
156.495
21
-156.534
0
LINE
8
BLACK
6
CONTINUOUS
10
123.825
20
-154.781
11
180.975
21
-154.781
0
LINE
8
BLACK
6
CONTINUOUS
10
123.825
20
-149.424
11
123.825
21
-155.368
0
LINE
8
BLACK
6
CONTINUOUS
10
180.975
20
-149.424
11
180.975
21
-155.368
0
LINE
8
BLACK
6
CONTINUOUS
10
180.975
20
-154.781
11
179.849
21
-155.368
0
LINE
8
BLACK
6
CONTINUOUS
10
180.975
20
-154.781
11
179.849
21
-154.195
0
LINE
8
BLACK
6
CONTINUOUS
10
123.825
20
-154.781
11
124.952
21
-155.368
0
LINE
8
BLACK
6
CONTINUOUS
10
123.825
20
-154.781
11
124.952
21
-154.195
0
LINE
8
BLACK
6
CONTINUOUS
10
-7.70551
20
-98.2028
11
-7.70551
21
-98.3933
0
LINE
8
BLACK
6
CONTINUOUS
10
-7.70551
20
-98.3933
11
-7.65789
21
-98.4885
0
LINE
8
BLACK
6
CONTINUOUS
10
-7.65789
20
-98.4885
11
-7.61027
21
-98.5361
0
LINE
8
BLACK
6
CONTINUOUS
10
-7.61027
20
-98.5361
11
-7.46741
21
-98.6314
0
LINE
8
BLACK
6
CONTINUOUS
10
-7.46741
20
-98.6314
11
-7.27694
21
-98.679
0
LINE
8
BLACK
6
CONTINUOUS
10
-7.27694
20
-98.679
11
-6.89599
21
-98.679
0
LINE
8
BLACK
6
CONTINUOUS
10
-6.89599
20
-98.679
11
-6.80075
21
-98.6314
0
LINE
8
BLACK
6
CONTINUOUS
10
-6.80075
20
-98.6314
11
-6.75313
21
-98.5838
0
LINE
8
BLACK
6
CONTINUOUS
10
-6.75313
20
-98.5838
11
-6.70551
21
-98.4885
0
LINE
8
BLACK
6
CONTINUOUS
10
-6.70551
20
-98.4885
11
-6.70551
21
-98.298
0
LINE
8
BLACK
6
CONTINUOUS
10
-6.70551
20
-98.298
11
-6.75313
21
-98.2028
0
LINE
8
BLACK
6
CONTINUOUS
10
-6.75313
20
-98.2028
11
-6.80075
21
-98.1552
0
LINE
8
BLACK
6
CONTINUOUS
10
-6.80075
20
-98.1552
11
-6.89599
21
-98.1076
0
LINE
8
BLACK
6
CONTINUOUS
10
-6.89599
20
-98.1076
11
-7.13408
21
-98.1076
0
LINE
8
BLACK
6
CONTINUOUS
10
-7.13408
20
-98.1076
11
-7.22932
21
-98.1552
0
LINE
8
BLACK
6
CONTINUOUS
10
-7.22932
20
-98.1552
11
-7.27694
21
-98.2028
0
LINE
8
BLACK
6
CONTINUOUS
10
-7.27694
20
-98.2028
11
-7.32456
21
-98.298
0
LINE
8
BLACK
6
CONTINUOUS
10
-7.32456
20
-98.298
11
-7.32456
21
-98.4885
0
LINE
8
BLACK
6
CONTINUOUS
10
-7.32456
20
-98.4885
11
-7.27694
21
-98.5838
0
LINE
8
BLACK
6
CONTINUOUS
10
-7.27694
20
-98.5838
11
-7.22932
21
-98.6314
0
LINE
8
BLACK
6
CONTINUOUS
10
-7.22932
20
-98.6314
11
-7.13408
21
-98.679
0
LINE
8
BLACK
6
CONTINUOUS
10
-7.03884
20
-99.5361
11
-7.70551
21
-99.5361
0
LINE
8
BLACK
6
CONTINUOUS
10
-6.65789
20
-99.298
11
-7.37218
21
-99.0599
0
LINE
8
BLACK
6
CONTINUOUS
10
-7.37218
20
-99.0599
11
-7.37218
21
-99.679
0
LINE
8
BLACK
6
CONTINUOUS
10
-7.61027
20
-100.06
11
-7.65789
21
-100.108
0
LINE
8
BLACK
6
CONTINUOUS
10
-7.65789
20
-100.108
11
-7.70551
21
-100.06
0
LINE
8
BLACK
6
CONTINUOUS
10
-7.70551
20
-100.06
11
-7.65789
21
-100.012
0
LINE
8
BLACK
6
CONTINUOUS
10
-7.65789
20
-100.012
11
-7.61027
21
-100.06
0
LINE
8
BLACK
6
CONTINUOUS
10
-7.61027
20
-100.06
11
-7.70551
21
-100.06
0
LINE
8
BLACK
6
CONTINUOUS
10
-7.70551
20
-100.584
11
-7.70551
21
-100.774
0
LINE
8
BLACK
6
CONTINUOUS
10
-7.70551
20
-100.774
11
-7.65789
21
-100.869
0
LINE
8
BLACK
6
CONTINUOUS
10
-7.65789
20
-100.869
11
-7.61027
21
-100.917
0
LINE
8
BLACK
6
CONTINUOUS
10
-7.61027
20
-100.917
11
-7.46741
21
-101.012
0
LINE
8
BLACK
6
CONTINUOUS
10
-7.46741
20
-101.012
11
-7.27694
21
-101.06
0
LINE
8
BLACK
6
CONTINUOUS
10
-7.27694
20
-101.06
11
-6.89599
21
-101.06
0
LINE
8
BLACK
6
CONTINUOUS
10
-6.89599
20
-101.06
11
-6.80075
21
-101.012
0
LINE
8
BLACK
6
CONTINUOUS
10
-6.80075
20
-101.012
11
-6.75313
21
-100.965
0
LINE
8
BLACK
6
CONTINUOUS
10
-6.75313
20
-100.965
11
-6.70551
21
-100.869
0
LINE
8
BLACK
6
CONTINUOUS
10
-6.70551
20
-100.869
11
-6.70551
21
-100.679
0
LINE
8
BLACK
6
CONTINUOUS
10
-6.70551
20
-100.679
11
-6.75313
21
-100.584
0
LINE
8
BLACK
6
CONTINUOUS
10
-6.75313
20
-100.584
11
-6.80075
21
-100.536
0
LINE
8
BLACK
6
CONTINUOUS
10
-6.80075
20
-100.536
11
-6.89599
21
-100.489
0
LINE
8
BLACK
6
CONTINUOUS
10
-6.89599
20
-100.489
11
-7.13408
21
-100.489
0
LINE
8
BLACK
6
CONTINUOUS
10
-7.13408
20
-100.489
11
-7.22932
21
-100.536
0
LINE
8
BLACK
6
CONTINUOUS
10
-7.22932
20
-100.536
11
-7.27694
21
-100.584
0
LINE
8
BLACK
6
CONTINUOUS
10
-7.27694
20
-100.584
11
-7.32456
21
-100.679
0
LINE
8
BLACK
6
CONTINUOUS
10
-7.32456
20
-100.679
11
-7.32456
21
-100.869
0
LINE
8
BLACK
6
CONTINUOUS
10
-7.32456
20
-100.869
11
-7.27694
21
-100.965
0
LINE
8
BLACK
6
CONTINUOUS
10
-7.27694
20
-100.965
11
-7.22932
21
-101.012
0
LINE
8
BLACK
6
CONTINUOUS
10
-7.22932
20
-101.012
11
-7.13408
21
-101.06
0
LINE
8
BLACK
6
CONTINUOUS
10
-6.80075
20
-101.441
11
-6.75313
21
-101.489
0
LINE
8
BLACK
6
CONTINUOUS
10
-6.75313
20
-101.489
11
-6.70551
21
-101.584
0
LINE
8
BLACK
6
CONTINUOUS
10
-6.70551
20
-101.584
11
-6.70551
21
-101.822
0
LINE
8
BLACK
6
CONTINUOUS
10
-6.70551
20
-101.822
11
-6.75313
21
-101.917
0
LINE
8
BLACK
6
CONTINUOUS
10
-6.75313
20
-101.917
11
-6.80075
21
-101.965
0
LINE
8
BLACK
6
CONTINUOUS
10
-6.80075
20
-101.965
11
-6.89599
21
-102.012
0
LINE
8
BLACK
6
CONTINUOUS
10
-6.89599
20
-102.012
11
-6.99123
21
-102.012
0
LINE
8
BLACK
6
CONTINUOUS
10
-6.99123
20
-102.012
11
-7.13408
21
-101.965
0
LINE
8
BLACK
6
CONTINUOUS
10
-7.13408
20
-101.965
11
-7.70551
21
-101.393
0
LINE
8
BLACK
6
CONTINUOUS
10
-7.70551
20
-101.393
11
-7.70551
21
-102.012
0
LINE
8
BLACK
6
CONTINUOUS
10
-6.70551
20
-102.346
11
-6.70551
21
-103.012
0
LINE
8
BLACK
6
CONTINUOUS
10
-6.70551
20
-103.012
11
-7.70551
21
-102.584
0
LINE
8
BLACK
6
CONTINUOUS
10
-7.70551
20
-104.155
11
-7.03884
21
-104.155
0
LINE
8
BLACK
6
CONTINUOUS
10
-7.13408
20
-104.155
11
-7.08646
21
-104.203
0
LINE
8
BLACK
6
CONTINUOUS
10
-7.08646
20
-104.203
11
-7.03884
21
-104.298
0
LINE
8
BLACK
6
CONTINUOUS
10
-7.03884
20
-104.298
11
-7.03884
21
-104.441
0
LINE
8
BLACK
6
CONTINUOUS
10
-7.03884
20
-104.441
11
-7.08646
21
-104.536
0
LINE
8
BLACK
6
CONTINUOUS
10
-7.08646
20
-104.536
11
-7.1817
21
-104.584
0
LINE
8
BLACK
6
CONTINUOUS
10
-7.1817
20
-104.584
11
-7.70551
21
-104.584
0
LINE
8
BLACK
6
CONTINUOUS
10
-7.1817
20
-104.584
11
-7.08646
21
-104.631
0
LINE
8
BLACK
6
CONTINUOUS
10
-7.08646
20
-104.631
11
-7.03884
21
-104.727
0
LINE
8
BLACK
6
CONTINUOUS
10
-7.03884
20
-104.727
11
-7.03884
21
-104.869
0
LINE
8
BLACK
6
CONTINUOUS
10
-7.03884
20
-104.869
11
-7.08646
21
-104.965
0
LINE
8
BLACK
6
CONTINUOUS
10
-7.08646
20
-104.965
11
-7.1817
21
-105.012
0
LINE
8
BLACK
6
CONTINUOUS
10
-7.1817
20
-105.012
11
-7.70551
21
-105.012
0
LINE
8
BLACK
6
CONTINUOUS
10
-7.70551
20
-105.489
11
-7.03884
21
-105.489
0
LINE
8
BLACK
6
CONTINUOUS
10
-7.13408
20
-105.489
11
-7.08646
21
-105.536
0
LINE
8
BLACK
6
CONTINUOUS
10
-7.08646
20
-105.536
11
-7.03884
21
-105.631
0
LINE
8
BLACK
6
CONTINUOUS
10
-7.03884
20
-105.631
11
-7.03884
21
-105.774
0
LINE
8
BLACK
6
CONTINUOUS
10
-7.03884
20
-105.774
11
-7.08646
21
-105.869
0
LINE
8
BLACK
6
CONTINUOUS
10
-7.08646
20
-105.869
11
-7.1817
21
-105.917
0
LINE
8
BLACK
6
CONTINUOUS
10
-7.1817
20
-105.917
11
-7.70551
21
-105.917
0
LINE
8
BLACK
6
CONTINUOUS
10
-7.1817
20
-105.917
11
-7.08646
21
-105.965
0
LINE
8
BLACK
6
CONTINUOUS
10
-7.08646
20
-105.965
11
-7.03884
21
-106.06
0
LINE
8
BLACK
6
CONTINUOUS
10
-7.03884
20
-106.06
11
-7.03884
21
-106.203
0
LINE
8
BLACK
6
CONTINUOUS
10
-7.03884
20
-106.203
11
-7.08646
21
-106.298
0
LINE
8
BLACK
6
CONTINUOUS
10
-7.08646
20
-106.298
11
-7.1817
21
-106.346
0
LINE
8
BLACK
6
CONTINUOUS
10
-7.1817
20
-106.346
11
-7.70551
21
-106.346
0
LINE
8
BLACK
6
CONTINUOUS
10
-5.95313
20
-54.7867
11
-5.95313
21
-149.714
0
LINE
8
BLACK
6
CONTINUOUS
10
9.85546
20
-54.7867
11
-6.53955
21
-54.7867
0
LINE
8
BLACK
6
CONTINUOUS
10
9.85546
20
-149.714
11
-6.53955
21
-149.714
0
LINE
8
BLACK
6
CONTINUOUS
10
-5.95313
20
-149.714
11
-6.53955
21
-148.588
0
LINE
8
BLACK
6
CONTINUOUS
10
-5.95313
20
-149.714
11
-5.36671
21
-148.588
0
LINE
8
BLACK
6
CONTINUOUS
10
-5.95313
20
-54.7867
11
-6.53955
21
-55.9132
0
LINE
8
BLACK
6
CONTINUOUS
10
-5.95313
20
-54.7867
11
-5.36671
21
-55.9132
0
LINE
8
BLACK
6
CONTINUOUS
10
24.5557
20
-34.4811
11
25.1748
21
-34.4811
0
LINE
8
BLACK
6
CONTINUOUS
10
25.1748
20
-34.4811
11
24.8414
21
-34.8621
0
LINE
8
BLACK
6
CONTINUOUS
10
24.8414
20
-34.8621
11
24.9843
21
-34.8621
0
LINE
8
BLACK
6
CONTINUOUS
10
24.9843
20
-34.8621
11
25.0795
21
-34.9097
0
LINE
8
BLACK
6
CONTINUOUS
10
25.0795
20
-34.9097
11
25.1271
21
-34.9573
0
LINE
8
BLACK
6
CONTINUOUS
10
25.1271
20
-34.9573
11
25.1748
21
-35.0525
0
LINE
8
BLACK
6
CONTINUOUS
10
25.1748
20
-35.0525
11
25.1748
21
-35.2906
0
LINE
8
BLACK
6
CONTINUOUS
10
25.1748
20
-35.2906
11
25.1271
21
-35.3859
0
LINE
8
BLACK
6
CONTINUOUS
10
25.1271
20
-35.3859
11
25.0795
21
-35.4335
0
LINE
8
BLACK
6
CONTINUOUS
10
25.0795
20
-35.4335
11
24.9843
21
-35.4811
0
LINE
8
BLACK
6
CONTINUOUS
10
24.9843
20
-35.4811
11
24.6986
21
-35.4811
0
LINE
8
BLACK
6
CONTINUOUS
10
24.6986
20
-35.4811
11
24.6033
21
-35.4335
0
LINE
8
BLACK
6
CONTINUOUS
10
24.6033
20
-35.4335
11
24.5557
21
-35.3859
0
LINE
8
BLACK
6
CONTINUOUS
10
25.5081
20
-34.4811
11
26.1748
21
-34.4811
0
LINE
8
BLACK
6
CONTINUOUS
10
26.1748
20
-34.4811
11
25.7462
21
-35.4811
0
LINE
8
BLACK
6
CONTINUOUS
10
26.5557
20
-35.3859
11
26.6033
21
-35.4335
0
LINE
8
BLACK
6
CONTINUOUS
10
26.6033
20
-35.4335
11
26.5557
21
-35.4811
0
LINE
8
BLACK
6
CONTINUOUS
10
26.5557
20
-35.4811
11
26.5081
21
-35.4335
0
LINE
8
BLACK
6
CONTINUOUS
10
26.5081
20
-35.4335
11
26.5557
21
-35.3859
0
LINE
8
BLACK
6
CONTINUOUS
10
26.5557
20
-35.3859
11
26.5557
21
-35.4811
0
LINE
8
BLACK
6
CONTINUOUS
10
26.9367
20
-34.4811
11
27.6033
21
-34.4811
0
LINE
8
BLACK
6
CONTINUOUS
10
27.6033
20
-34.4811
11
27.1748
21
-35.4811
0
LINE
8
BLACK
6
CONTINUOUS
10
27.9367
20
-34.5763
11
27.9843
21
-34.5287
0
LINE
8
BLACK
6
CONTINUOUS
10
27.9843
20
-34.5287
11
28.0795
21
-34.4811
0
LINE
8
BLACK
6
CONTINUOUS
10
28.0795
20
-34.4811
11
28.3176
21
-34.4811
0
LINE
8
BLACK
6
CONTINUOUS
10
28.3176
20
-34.4811
11
28.4128
21
-34.5287
0
LINE
8
BLACK
6
CONTINUOUS
10
28.4128
20
-34.5287
11
28.4605
21
-34.5763
0
LINE
8
BLACK
6
CONTINUOUS
10
28.4605
20
-34.5763
11
28.5081
21
-34.6716
0
LINE
8
BLACK
6
CONTINUOUS
10
28.5081
20
-34.6716
11
28.5081
21
-34.7668
0
LINE
8
BLACK
6
CONTINUOUS
10
28.5081
20
-34.7668
11
28.4605
21
-34.9097
0
LINE
8
BLACK
6
CONTINUOUS
10
28.4605
20
-34.9097
11
27.889
21
-35.4811
0
LINE
8
BLACK
6
CONTINUOUS
10
27.889
20
-35.4811
11
28.5081
21
-35.4811
0
LINE
8
BLACK
6
CONTINUOUS
10
29.4128
20
-34.4811
11
28.9367
21
-34.4811
0
LINE
8
BLACK
6
CONTINUOUS
10
28.9367
20
-34.4811
11
28.889
21
-34.9573
0
LINE
8
BLACK
6
CONTINUOUS
10
28.889
20
-34.9573
11
28.9367
21
-34.9097
0
LINE
8
BLACK
6
CONTINUOUS
10
28.9367
20
-34.9097
11
29.0319
21
-34.8621
0
LINE
8
BLACK
6
CONTINUOUS
10
29.0319
20
-34.8621
11
29.27
21
-34.8621
0
LINE
8
BLACK
6
CONTINUOUS
10
29.27
20
-34.8621
11
29.3652
21
-34.9097
0
LINE
8
BLACK
6
CONTINUOUS
10
29.3652
20
-34.9097
11
29.4128
21
-34.9573
0
LINE
8
BLACK
6
CONTINUOUS
10
29.4128
20
-34.9573
11
29.4605
21
-35.0525
0
LINE
8
BLACK
6
CONTINUOUS
10
29.4605
20
-35.0525
11
29.4605
21
-35.2906
0
LINE
8
BLACK
6
CONTINUOUS
10
29.4605
20
-35.2906
11
29.4128
21
-35.3859
0
LINE
8
BLACK
6
CONTINUOUS
10
29.4128
20
-35.3859
11
29.3652
21
-35.4335
0
LINE
8
BLACK
6
CONTINUOUS
10
29.3652
20
-35.4335
11
29.27
21
-35.4811
0
LINE
8
BLACK
6
CONTINUOUS
10
29.27
20
-35.4811
11
29.0319
21
-35.4811
0
LINE
8
BLACK
6
CONTINUOUS
10
29.0319
20
-35.4811
11
28.9367
21
-35.4335
0
LINE
8
BLACK
6
CONTINUOUS
10
28.9367
20
-35.4335
11
28.889
21
-35.3859
0
LINE
8
BLACK
6
CONTINUOUS
10
30.6509
20
-35.4811
11
30.6509
21
-34.8144
0
LINE
8
BLACK
6
CONTINUOUS
10
30.6509
20
-34.9097
11
30.6986
21
-34.8621
0
LINE
8
BLACK
6
CONTINUOUS
10
30.6986
20
-34.8621
11
30.7938
21
-34.8144
0
LINE
8
BLACK
6
CONTINUOUS
10
30.7938
20
-34.8144
11
30.9367
21
-34.8144
0
LINE
8
BLACK
6
CONTINUOUS
10
30.9367
20
-34.8144
11
31.0319
21
-34.8621
0
LINE
8
BLACK
6
CONTINUOUS
10
31.0319
20
-34.8621
11
31.0795
21
-34.9573
0
LINE
8
BLACK
6
CONTINUOUS
10
31.0795
20
-34.9573
11
31.0795
21
-35.4811
0
LINE
8
BLACK
6
CONTINUOUS
10
31.0795
20
-34.9573
11
31.1271
21
-34.8621
0
LINE
8
BLACK
6
CONTINUOUS
10
31.1271
20
-34.8621
11
31.2224
21
-34.8144
0
LINE
8
BLACK
6
CONTINUOUS
10
31.2224
20
-34.8144
11
31.3652
21
-34.8144
0
LINE
8
BLACK
6
CONTINUOUS
10
31.3652
20
-34.8144
11
31.4605
21
-34.8621
0
LINE
8
BLACK
6
CONTINUOUS
10
31.4605
20
-34.8621
11
31.5081
21
-34.9573
0
LINE
8
BLACK
6
CONTINUOUS
10
31.5081
20
-34.9573
11
31.5081
21
-35.4811
0
LINE
8
BLACK
6
CONTINUOUS
10
31.9843
20
-35.4811
11
31.9843
21
-34.8144
0
LINE
8
BLACK
6
CONTINUOUS
10
31.9843
20
-34.9097
11
32.0319
21
-34.8621
0
LINE
8
BLACK
6
CONTINUOUS
10
32.0319
20
-34.8621
11
32.1271
21
-34.8144
0
LINE
8
BLACK
6
CONTINUOUS
10
32.1271
20
-34.8144
11
32.27
21
-34.8144
0
LINE
8
BLACK
6
CONTINUOUS
10
32.27
20
-34.8144
11
32.3652
21
-34.8621
0
LINE
8
BLACK
6
CONTINUOUS
10
32.3652
20
-34.8621
11
32.4128
21
-34.9573
0
LINE
8
BLACK
6
CONTINUOUS
10
32.4128
20
-34.9573
11
32.4128
21
-35.4811
0
LINE
8
BLACK
6
CONTINUOUS
10
32.4128
20
-34.9573
11
32.4605
21
-34.8621
0
LINE
8
BLACK
6
CONTINUOUS
10
32.4605
20
-34.8621
11
32.5557
21
-34.8144
0
LINE
8
BLACK
6
CONTINUOUS
10
32.5557
20
-34.8144
11
32.6986
21
-34.8144
0
LINE
8
BLACK
6
CONTINUOUS
10
32.6986
20
-34.8144
11
32.7938
21
-34.8621
0
LINE
8
BLACK
6
CONTINUOUS
10
32.7938
20
-34.8621
11
32.8414
21
-34.9573
0
LINE
8
BLACK
6
CONTINUOUS
10
32.8414
20
-34.9573
11
32.8414
21
-35.4811
0
LINE
8
BLACK
6
CONTINUOUS
10
9.88473
20
-36.3443
11
47.6098
21
-36.3131
0
LINE
8
BLACK
6
CONTINUOUS
10
9.9
20
-54.8
11
9.88425
21
-35.7579
0
LINE
8
BLACK
6
CONTINUOUS
10
47.625
20
-54.7688
11
47.6093
21
-35.7267
0
LINE
8
BLACK
6
CONTINUOUS
10
47.6098
20
-36.3131
11
46.4838
21
-36.9005
0
LINE
8
BLACK
6
CONTINUOUS
10
47.6098
20
-36.3131
11
46.4828
21
-35.7276
0
LINE
8
BLACK
6
CONTINUOUS
10
9.88473
20
-36.3443
11
11.0117
21
-36.9298
0
LINE
8
BLACK
6
CONTINUOUS
10
9.88473
20
-36.3443
11
11.0108
21
-35.757
0
LINE
8
BLACK
6
CONTINUOUS
10
27.8442
20
-42.7642
11
28.5109
21
-42.7613
0
LINE
8
BLACK
6
CONTINUOUS
10
28.5109
20
-42.7613
11
28.0866
21
-43.7632
0
LINE
8
BLACK
6
CONTINUOUS
10
28.8957
20
-43.6645
11
28.9436
21
-43.7119
0
LINE
8
BLACK
6
CONTINUOUS
10
28.9436
20
-43.7119
11
28.8961
21
-43.7597
0
LINE
8
BLACK
6
CONTINUOUS
10
28.8961
20
-43.7597
11
28.8483
21
-43.7123
0
LINE
8
BLACK
6
CONTINUOUS
10
28.8483
20
-43.7123
11
28.8957
21
-43.6645
0
LINE
8
BLACK
6
CONTINUOUS
10
28.8957
20
-43.6645
11
28.8961
21
-43.7597
0
LINE
8
BLACK
6
CONTINUOUS
10
29.5585
20
-42.7568
11
29.6538
21
-42.7564
0
LINE
8
BLACK
6
CONTINUOUS
10
29.6538
20
-42.7564
11
29.7492
21
-42.8036
0
LINE
8
BLACK
6
CONTINUOUS
10
29.7492
20
-42.8036
11
29.797
21
-42.8511
0
LINE
8
BLACK
6
CONTINUOUS
10
29.797
20
-42.8511
11
29.845
21
-42.9461
0
LINE
8
BLACK
6
CONTINUOUS
10
29.845
20
-42.9461
11
29.8935
21
-43.1364
0
LINE
8
BLACK
6
CONTINUOUS
10
29.8935
20
-43.1364
11
29.8945
21
-43.3745
0
LINE
8
BLACK
6
CONTINUOUS
10
29.8945
20
-43.3745
11
29.8477
21
-43.5651
0
LINE
8
BLACK
6
CONTINUOUS
10
29.8477
20
-43.5651
11
29.8005
21
-43.6606
0
LINE
8
BLACK
6
CONTINUOUS
10
29.8005
20
-43.6606
11
29.7531
21
-43.7084
0
LINE
8
BLACK
6
CONTINUOUS
10
29.7531
20
-43.7084
11
29.658
21
-43.7564
0
LINE
8
BLACK
6
CONTINUOUS
10
29.658
20
-43.7564
11
29.5628
21
-43.7568
0
LINE
8
BLACK
6
CONTINUOUS
10
29.5628
20
-43.7568
11
29.4674
21
-43.7096
0
LINE
8
BLACK
6
CONTINUOUS
10
29.4674
20
-43.7096
11
29.4195
21
-43.6622
0
LINE
8
BLACK
6
CONTINUOUS
10
29.4195
20
-43.6622
11
29.3715
21
-43.5672
0
LINE
8
BLACK
6
CONTINUOUS
10
29.3715
20
-43.5672
11
29.3231
21
-43.3769
0
LINE
8
BLACK
6
CONTINUOUS
10
29.3231
20
-43.3769
11
29.3221
21
-43.1388
0
LINE
8
BLACK
6
CONTINUOUS
10
29.3221
20
-43.1388
11
29.3689
21
-42.9481
0
LINE
8
BLACK
6
CONTINUOUS
10
29.3689
20
-42.9481
11
29.4161
21
-42.8527
0
LINE
8
BLACK
6
CONTINUOUS
10
29.4161
20
-42.8527
11
29.4635
21
-42.8049
0
LINE
8
BLACK
6
CONTINUOUS
10
29.4635
20
-42.8049
11
29.5585
21
-42.7568
0
LINE
8
BLACK
6
CONTINUOUS
10
30.5109
20
-42.7528
11
30.6061
21
-42.7524
0
LINE
8
BLACK
6
CONTINUOUS
10
30.6061
20
-42.7524
11
30.7016
21
-42.7996
0
LINE
8
BLACK
6
CONTINUOUS
10
30.7016
20
-42.7996
11
30.7494
21
-42.847
0
LINE
8
BLACK
6
CONTINUOUS
10
30.7494
20
-42.847
11
30.7974
21
-42.942
0
LINE
8
BLACK
6
CONTINUOUS
10
30.7974
20
-42.942
11
30.8459
21
-43.1323
0
LINE
8
BLACK
6
CONTINUOUS
10
30.8459
20
-43.1323
11
30.8469
21
-43.3704
0
LINE
8
BLACK
6
CONTINUOUS
10
30.8469
20
-43.3704
11
30.8001
21
-43.5611
0
LINE
8
BLACK
6
CONTINUOUS
10
30.8001
20
-43.5611
11
30.7529
21
-43.6565
0
LINE
8
BLACK
6
CONTINUOUS
10
30.7529
20
-43.6565
11
30.7054
21
-43.7043
0
LINE
8
BLACK
6
CONTINUOUS
10
30.7054
20
-43.7043
11
30.6104
21
-43.7523
0
LINE
8
BLACK
6
CONTINUOUS
10
30.6104
20
-43.7523
11
30.5152
21
-43.7528
0
LINE
8
BLACK
6
CONTINUOUS
10
30.5152
20
-43.7528
11
30.4197
21
-43.7055
0
LINE
8
BLACK
6
CONTINUOUS
10
30.4197
20
-43.7055
11
30.3719
21
-43.6581
0
LINE
8
BLACK
6
CONTINUOUS
10
30.3719
20
-43.6581
11
30.3239
21
-43.5631
0
LINE
8
BLACK
6
CONTINUOUS
10
30.3239
20
-43.5631
11
30.2754
21
-43.3728
0
LINE
8
BLACK
6
CONTINUOUS
10
30.2754
20
-43.3728
11
30.2744
21
-43.1347
0
LINE
8
BLACK
6
CONTINUOUS
10
30.2744
20
-43.1347
11
30.3212
21
-42.9441
0
LINE
8
BLACK
6
CONTINUOUS
10
30.3212
20
-42.9441
11
30.3684
21
-42.8486
0
LINE
8
BLACK
6
CONTINUOUS
10
30.3684
20
-42.8486
11
30.4159
21
-42.8008
0
LINE
8
BLACK
6
CONTINUOUS
10
30.4159
20
-42.8008
11
30.5109
21
-42.7528
0
LINE
8
BLACK
6
CONTINUOUS
10
31.4633
20
-42.7487
11
31.5585
21
-42.7483
0
LINE
8
BLACK
6
CONTINUOUS
10
31.5585
20
-42.7483
11
31.6539
21
-42.7955
0
LINE
8
BLACK
6
CONTINUOUS
10
31.6539
20
-42.7955
11
31.7018
21
-42.8429
0
LINE
8
BLACK
6
CONTINUOUS
10
31.7018
20
-42.8429
11
31.7498
21
-42.9379
0
LINE
8
BLACK
6
CONTINUOUS
10
31.7498
20
-42.9379
11
31.7982
21
-43.1282
0
LINE
8
BLACK
6
CONTINUOUS
10
31.7982
20
-43.1282
11
31.7992
21
-43.3663
0
LINE
8
BLACK
6
CONTINUOUS
10
31.7992
20
-43.3663
11
31.7524
21
-43.557
0
LINE
8
BLACK
6
CONTINUOUS
10
31.7524
20
-43.557
11
31.7052
21
-43.6524
0
LINE
8
BLACK
6
CONTINUOUS
10
31.7052
20
-43.6524
11
31.6578
21
-43.7002
0
LINE
8
BLACK
6
CONTINUOUS
10
31.6578
20
-43.7002
11
31.5628
21
-43.7483
0
LINE
8
BLACK
6
CONTINUOUS
10
31.5628
20
-43.7483
11
31.4675
21
-43.7487
0
LINE
8
BLACK
6
CONTINUOUS
10
31.4675
20
-43.7487
11
31.3721
21
-43.7015
0
LINE
8
BLACK
6
CONTINUOUS
10
31.3721
20
-43.7015
11
31.3243
21
-43.654
0
LINE
8
BLACK
6
CONTINUOUS
10
31.3243
20
-43.654
11
31.2763
21
-43.559
0
LINE
8
BLACK
6
CONTINUOUS
10
31.2763
20
-43.559
11
31.2278
21
-43.3687
0
LINE
8
BLACK
6
CONTINUOUS
10
31.2278
20
-43.3687
11
31.2268
21
-43.1306
0
LINE
8
BLACK
6
CONTINUOUS
10
31.2268
20
-43.1306
11
31.2736
21
-42.94
0
LINE
8
BLACK
6
CONTINUOUS
10
31.2736
20
-42.94
11
31.3208
21
-42.8445
0
LINE
8
BLACK
6
CONTINUOUS
10
31.3208
20
-42.8445
11
31.3682
21
-42.7967
0
LINE
8
BLACK
6
CONTINUOUS
10
31.3682
20
-42.7967
11
31.4633
21
-42.7487
0
LINE
8
BLACK
6
CONTINUOUS
10
32.9913
20
-43.7421
11
32.9885
21
-43.0755
0
LINE
8
BLACK
6
CONTINUOUS
10
32.9889
20
-43.1707
11
33.0363
21
-43.1229
0
LINE
8
BLACK
6
CONTINUOUS
10
33.0363
20
-43.1229
11
33.1313
21
-43.0749
0
LINE
8
BLACK
6
CONTINUOUS
10
33.1313
20
-43.0749
11
33.2742
21
-43.0743
0
LINE
8
BLACK
6
CONTINUOUS
10
33.2742
20
-43.0743
11
33.3696
21
-43.1215
0
LINE
8
BLACK
6
CONTINUOUS
10
33.3696
20
-43.1215
11
33.4177
21
-43.2165
0
LINE
8
BLACK
6
CONTINUOUS
10
33.4177
20
-43.2165
11
33.4199
21
-43.7403
0
LINE
8
BLACK
6
CONTINUOUS
10
33.4177
20
-43.2165
11
33.4649
21
-43.1211
0
LINE
8
BLACK
6
CONTINUOUS
10
33.4649
20
-43.1211
11
33.5599
21
-43.073
0
LINE
8
BLACK
6
CONTINUOUS
10
33.5599
20
-43.073
11
33.7028
21
-43.0724
0
LINE
8
BLACK
6
CONTINUOUS
10
33.7028
20
-43.0724
11
33.7982
21
-43.1196
0
LINE
8
BLACK
6
CONTINUOUS
10
33.7982
20
-43.1196
11
33.8462
21
-43.2147
0
LINE
8
BLACK
6
CONTINUOUS
10
33.8462
20
-43.2147
11
33.8485
21
-43.7385
0
LINE
8
BLACK
6
CONTINUOUS
10
34.3247
20
-43.7364
11
34.3218
21
-43.0698
0
LINE
8
BLACK
6
CONTINUOUS
10
34.3222
20
-43.165
11
34.3696
21
-43.1172
0
LINE
8
BLACK
6
CONTINUOUS
10
34.3696
20
-43.1172
11
34.4647
21
-43.0692
0
LINE
8
BLACK
6
CONTINUOUS
10
34.4647
20
-43.0692
11
34.6075
21
-43.0685
0
LINE
8
BLACK
6
CONTINUOUS
10
34.6075
20
-43.0685
11
34.703
21
-43.1157
0
LINE
8
BLACK
6
CONTINUOUS
10
34.703
20
-43.1157
11
34.751
21
-43.2108
0
LINE
8
BLACK
6
CONTINUOUS
10
34.751
20
-43.2108
11
34.7532
21
-43.7346
0
LINE
8
BLACK
6
CONTINUOUS
10
34.751
20
-43.2108
11
34.7982
21
-43.1153
0
LINE
8
BLACK
6
CONTINUOUS
10
34.7982
20
-43.1153
11
34.8932
21
-43.0673
0
LINE
8
BLACK
6
CONTINUOUS
10
34.8932
20
-43.0673
11
35.0361
21
-43.0667
0
LINE
8
BLACK
6
CONTINUOUS
10
35.0361
20
-43.0667
11
35.1315
21
-43.1139
0
LINE
8
BLACK
6
CONTINUOUS
10
35.1315
20
-43.1139
11
35.1796
21
-43.2089
0
LINE
8
BLACK
6
CONTINUOUS
10
35.1796
20
-43.2089
11
35.1818
21
-43.7328
0
LINE
8
BLACK
6
CONTINUOUS
10
35.0664
20
-44.5809
11
28.0664
21
-44.6109
0
LINE
8
BLACK
6
CONTINUOUS
10
35.11
20
-54.75
11
35.0639
21
-43.9945
0
LINE
8
BLACK
6
CONTINUOUS
10
28.11
20
-54.78
11
28.0639
21
-44.0245
0
LINE
8
BLACK
6
CONTINUOUS
10
28.0664
20
-44.6109
11
29.1904
21
-44.0196
0
LINE
8
BLACK
6
CONTINUOUS
10
28.0664
20
-44.6109
11
29.1954
21
-45.1925
0
LINE
8
BLACK
6
CONTINUOUS
10
35.0664
20
-44.5809
11
33.9374
21
-43.9993
0
LINE
8
BLACK
6
CONTINUOUS
10
35.0664
20
-44.5809
11
33.9424
21
-45.1721
0
LINE
8
BLACK
6
CONTINUOUS
10
-2.0633
20
-79.49
11
-2.06496
21
-79.0138
0
LINE
8
BLACK
6
CONTINUOUS
10
-2.06496
20
-79.0138
11
-2.54132
21
-78.9678
0
LINE
8
BLACK
6
CONTINUOUS
10
-2.54132
20
-78.9678
11
-2.49353
21
-79.0153
0
LINE
8
BLACK
6
CONTINUOUS
10
-2.49353
20
-79.0153
11
-2.44558
21
-79.1104
0
LINE
8
BLACK
6
CONTINUOUS
10
-2.44558
20
-79.1104
11
-2.44475
21
-79.3484
0
LINE
8
BLACK
6
CONTINUOUS
10
-2.44475
20
-79.3484
11
-2.49204
21
-79.4439
0
LINE
8
BLACK
6
CONTINUOUS
10
-2.49204
20
-79.4439
11
-2.53949
21
-79.4916
0
LINE
8
BLACK
6
CONTINUOUS
10
-2.53949
20
-79.4916
11
-2.63456
21
-79.5396
0
LINE
8
BLACK
6
CONTINUOUS
10
-2.63456
20
-79.5396
11
-2.87265
21
-79.5404
0
LINE
8
BLACK
6
CONTINUOUS
10
-2.87265
20
-79.5404
11
-2.96806
21
-79.4931
0
LINE
8
BLACK
6
CONTINUOUS
10
-2.96806
20
-79.4931
11
-3.01584
21
-79.4457
0
LINE
8
BLACK
6
CONTINUOUS
10
-3.01584
20
-79.4457
11
-3.06379
21
-79.3506
0
LINE
8
BLACK
6
CONTINUOUS
10
-3.06379
20
-79.3506
11
-3.06462
21
-79.1125
0
LINE
8
BLACK
6
CONTINUOUS
10
-3.06462
20
-79.1125
11
-3.01734
21
-79.0171
0
LINE
8
BLACK
6
CONTINUOUS
10
-3.01734
20
-79.0171
11
-2.96988
21
-78.9693
0
LINE
8
BLACK
6
CONTINUOUS
10
-2.06014
20
-80.3947
11
-2.06081
21
-80.2043
0
LINE
8
BLACK
6
CONTINUOUS
10
-2.06081
20
-80.2043
11
-2.10876
21
-80.1092
0
LINE
8
BLACK
6
CONTINUOUS
10
-2.10876
20
-80.1092
11
-2.15654
21
-80.0617
0
LINE
8
BLACK
6
CONTINUOUS
10
-2.15654
20
-80.0617
11
-2.29973
21
-79.967
0
LINE
8
BLACK
6
CONTINUOUS
10
-2.29973
20
-79.967
11
-2.49037
21
-79.92
0
LINE
8
BLACK
6
CONTINUOUS
10
-2.49037
20
-79.92
11
-2.87132
21
-79.9214
0
LINE
8
BLACK
6
CONTINUOUS
10
-2.87132
20
-79.9214
11
-2.96639
21
-79.9693
0
LINE
8
BLACK
6
CONTINUOUS
10
-2.96639
20
-79.9693
11
-3.01385
21
-80.0171
0
LINE
8
BLACK
6
CONTINUOUS
10
-3.01385
20
-80.0171
11
-3.06113
21
-80.1125
0
LINE
8
BLACK
6
CONTINUOUS
10
-3.06113
20
-80.1125
11
-3.06047
21
-80.303
0
LINE
8
BLACK
6
CONTINUOUS
10
-3.06047
20
-80.303
11
-3.01252
21
-80.3981
0
LINE
8
BLACK
6
CONTINUOUS
10
-3.01252
20
-80.3981
11
-2.96473
21
-80.4455
0
LINE
8
BLACK
6
CONTINUOUS
10
-2.96473
20
-80.4455
11
-2.86933
21
-80.4928
0
LINE
8
BLACK
6
CONTINUOUS
10
-2.86933
20
-80.4928
11
-2.63123
21
-80.492
0
LINE
8
BLACK
6
CONTINUOUS
10
-2.63123
20
-80.492
11
-2.53616
21
-80.444
0
LINE
8
BLACK
6
CONTINUOUS
10
-2.53616
20
-80.444
11
-2.48871
21
-80.3962
0
LINE
8
BLACK
6
CONTINUOUS
10
-2.48871
20
-80.3962
11
-2.44142
21
-80.3008
0
LINE
8
BLACK
6
CONTINUOUS
10
-2.44142
20
-80.3008
11
-2.44209
21
-80.1103
0
LINE
8
BLACK
6
CONTINUOUS
10
-2.44209
20
-80.1103
11
-2.49004
21
-80.0153
0
LINE
8
BLACK
6
CONTINUOUS
10
-2.49004
20
-80.0153
11
-2.53782
21
-79.9678
0
LINE
8
BLACK
6
CONTINUOUS
10
-2.53782
20
-79.9678
11
-2.63323
21
-79.9205
0
LINE
8
BLACK
6
CONTINUOUS
10
-2.96307
20
-80.9217
11
-3.01052
21
-80.9695
0
LINE
8
BLACK
6
CONTINUOUS
10
-3.01052
20
-80.9695
11
-3.05831
21
-80.922
0
LINE
8
BLACK
6
CONTINUOUS
10
-3.05831
20
-80.922
11
-3.01085
21
-80.8742
0
LINE
8
BLACK
6
CONTINUOUS
10
-3.01085
20
-80.8742
11
-2.96307
21
-80.9217
0
LINE
8
BLACK
6
CONTINUOUS
10
-2.96307
20
-80.9217
11
-3.05831
21
-80.922
0
LINE
8
BLACK
6
CONTINUOUS
10
-2.05499
20
-81.8709
11
-2.05665
21
-81.3947
0
LINE
8
BLACK
6
CONTINUOUS
10
-2.05665
20
-81.3947
11
-2.533
21
-81.3488
0
LINE
8
BLACK
6
CONTINUOUS
10
-2.533
20
-81.3488
11
-2.48522
21
-81.3962
0
LINE
8
BLACK
6
CONTINUOUS
10
-2.48522
20
-81.3962
11
-2.43727
21
-81.4913
0
LINE
8
BLACK
6
CONTINUOUS
10
-2.43727
20
-81.4913
11
-2.43644
21
-81.7294
0
LINE
8
BLACK
6
CONTINUOUS
10
-2.43644
20
-81.7294
11
-2.48372
21
-81.8248
0
LINE
8
BLACK
6
CONTINUOUS
10
-2.48372
20
-81.8248
11
-2.53118
21
-81.8726
0
LINE
8
BLACK
6
CONTINUOUS
10
-2.53118
20
-81.8726
11
-2.62625
21
-81.9205
0
LINE
8
BLACK
6
CONTINUOUS
10
-2.62625
20
-81.9205
11
-2.86434
21
-81.9214
0
LINE
8
BLACK
6
CONTINUOUS
10
-2.86434
20
-81.9214
11
-2.95974
21
-81.8741
0
LINE
8
BLACK
6
CONTINUOUS
10
-2.95974
20
-81.8741
11
-3.00753
21
-81.8266
0
LINE
8
BLACK
6
CONTINUOUS
10
-3.00753
20
-81.8266
11
-3.05548
21
-81.7315
0
LINE
8
BLACK
6
CONTINUOUS
10
-3.05548
20
-81.7315
11
-3.05631
21
-81.4935
0
LINE
8
BLACK
6
CONTINUOUS
10
-3.05631
20
-81.4935
11
-3.00903
21
-81.398
0
LINE
8
BLACK
6
CONTINUOUS
10
-3.00903
20
-81.398
11
-2.96157
21
-81.3503
0
LINE
8
BLACK
6
CONTINUOUS
10
-2.14873
20
-82.2998
11
-2.10094
21
-82.3473
0
LINE
8
BLACK
6
CONTINUOUS
10
-2.10094
20
-82.3473
11
-2.05299
21
-82.4423
0
LINE
8
BLACK
6
CONTINUOUS
10
-2.05299
20
-82.4423
11
-2.05216
21
-82.6804
0
LINE
8
BLACK
6
CONTINUOUS
10
-2.05216
20
-82.6804
11
-2.09945
21
-82.7758
0
LINE
8
BLACK
6
CONTINUOUS
10
-2.09945
20
-82.7758
11
-2.1469
21
-82.8236
0
LINE
8
BLACK
6
CONTINUOUS
10
-2.1469
20
-82.8236
11
-2.24197
21
-82.8716
0
LINE
8
BLACK
6
CONTINUOUS
10
-2.24197
20
-82.8716
11
-2.33721
21
-82.8719
0
LINE
8
BLACK
6
CONTINUOUS
10
-2.33721
20
-82.8719
11
-2.48023
21
-82.8248
0
LINE
8
BLACK
6
CONTINUOUS
10
-2.48023
20
-82.8248
11
-3.05365
21
-82.2554
0
LINE
8
BLACK
6
CONTINUOUS
10
-3.05365
20
-82.2554
11
-3.05149
21
-82.8744
0
LINE
8
BLACK
6
CONTINUOUS
10
-2.38184
20
-83.7292
11
-3.0485
21
-83.7315
0
LINE
8
BLACK
6
CONTINUOUS
10
-2.00172
20
-83.4898
11
-2.71683
21
-83.2542
0
LINE
8
BLACK
6
CONTINUOUS
10
-2.71683
20
-83.2542
11
-2.71467
21
-83.8732
0
LINE
8
BLACK
6
CONTINUOUS
10
-3.04401
20
-85.0172
11
-2.37735
21
-85.0149
0
LINE
8
BLACK
6
CONTINUOUS
10
-2.47259
20
-85.0152
11
-2.4248
21
-85.0627
0
LINE
8
BLACK
6
CONTINUOUS
10
-2.4248
20
-85.0627
11
-2.37685
21
-85.1578
0
LINE
8
BLACK
6
CONTINUOUS
10
-2.37685
20
-85.1578
11
-2.37635
21
-85.3006
0
LINE
8
BLACK
6
CONTINUOUS
10
-2.37635
20
-85.3006
11
-2.42364
21
-85.396
0
LINE
8
BLACK
6
CONTINUOUS
10
-2.42364
20
-85.396
11
-2.51871
21
-85.444
0
LINE
8
BLACK
6
CONTINUOUS
10
-2.51871
20
-85.444
11
-3.04252
21
-85.4458
0
LINE
8
BLACK
6
CONTINUOUS
10
-2.51871
20
-85.444
11
-2.42331
21
-85.4913
0
LINE
8
BLACK
6
CONTINUOUS
10
-2.42331
20
-85.4913
11
-2.37535
21
-85.5863
0
LINE
8
BLACK
6
CONTINUOUS
10
-2.37535
20
-85.5863
11
-2.37486
21
-85.7292
0
LINE
8
BLACK
6
CONTINUOUS
10
-2.37486
20
-85.7292
11
-2.42214
21
-85.8246
0
LINE
8
BLACK
6
CONTINUOUS
10
-2.42214
20
-85.8246
11
-2.51721
21
-85.8725
0
LINE
8
BLACK
6
CONTINUOUS
10
-2.51721
20
-85.8725
11
-3.04102
21
-85.8744
0
LINE
8
BLACK
6
CONTINUOUS
10
-3.03936
20
-86.3506
11
-2.37269
21
-86.3482
0
LINE
8
BLACK
6
CONTINUOUS
10
-2.46793
20
-86.3486
11
-2.42015
21
-86.396
0
LINE
8
BLACK
6
CONTINUOUS
10
-2.42015
20
-86.396
11
-2.3722
21
-86.4911
0
LINE
8
BLACK
6
CONTINUOUS
10
-2.3722
20
-86.4911
11
-2.3717
21
-86.634
0
LINE
8
BLACK
6
CONTINUOUS
10
-2.3717
20
-86.634
11
-2.41898
21
-86.7294
0
LINE
8
BLACK
6
CONTINUOUS
10
-2.41898
20
-86.7294
11
-2.51405
21
-86.7773
0
LINE
8
BLACK
6
CONTINUOUS
10
-2.51405
20
-86.7773
11
-3.03786
21
-86.7791
0
LINE
8
BLACK
6
CONTINUOUS
10
-2.51405
20
-86.7773
11
-2.41865
21
-86.8246
0
LINE
8
BLACK
6
CONTINUOUS
10
-2.41865
20
-86.8246
11
-2.3707
21
-86.9197
0
LINE
8
BLACK
6
CONTINUOUS
10
-2.3707
20
-86.9197
11
-2.3702
21
-87.0625
0
LINE
8
BLACK
6
CONTINUOUS
10
-2.3702
20
-87.0625
11
-2.41749
21
-87.1579
0
LINE
8
BLACK
6
CONTINUOUS
10
-2.41749
20
-87.1579
11
-2.51256
21
-87.2059
0
LINE
8
BLACK
6
CONTINUOUS
10
-2.51256
20
-87.2059
11
-3.03637
21
-87.2077
0
LINE
8
BLACK
6
CONTINUOUS
10
-1.40845
20
-54.8441
11
-1.18813
21
-111.368
0
LINE
8
BLACK
6
CONTINUOUS
10
9.9
20
-54.8
11
-1.99487
21
-54.8464
0
LINE
8
BLACK
6
CONTINUOUS
10
10.1203
20
-111.324
11
-1.77455
21
-111.37
0
LINE
8
BLACK
6
CONTINUOUS
10
-1.18813
20
-111.368
11
-1.77894
21
-110.243
0
LINE
8
BLACK
6
CONTINUOUS
10
-1.18813
20
-111.368
11
-0.606108
21
-110.239
0
LINE
8
BLACK
6
CONTINUOUS
10
-1.40845
20
-54.8441
11
-1.99048
21
-55.9729
0
LINE
8
BLACK
6
CONTINUOUS
10
-1.40845
20
-54.8441
11
-0.817647
21
-55.9683
0
LINE
8
BLACK
6
CONTINUOUS
10
18.3571
20
-48.3476
11
18.4048
21
-48.3
0
LINE
8
BLACK
6
CONTINUOUS
10
18.4048
20
-48.3
11
18.5
21
-48.2524
0
LINE
8
BLACK
6
CONTINUOUS
10
18.5
20
-48.2524
11
18.7381
21
-48.2524
0
LINE
8
BLACK
6
CONTINUOUS
10
18.7381
20
-48.2524
11
18.8333
21
-48.3
0
LINE
8
BLACK
6
CONTINUOUS
10
18.8333
20
-48.3
11
18.881
21
-48.3476
0
LINE
8
BLACK
6
CONTINUOUS
10
18.881
20
-48.3476
11
18.9286
21
-48.4429
0
LINE
8
BLACK
6
CONTINUOUS
10
18.9286
20
-48.4429
11
18.9286
21
-48.5381
0
LINE
8
BLACK
6
CONTINUOUS
10
18.9286
20
-48.5381
11
18.881
21
-48.681
0
LINE
8
BLACK
6
CONTINUOUS
10
18.881
20
-48.681
11
18.3095
21
-49.2524
0
LINE
8
BLACK
6
CONTINUOUS
10
18.3095
20
-49.2524
11
18.9286
21
-49.2524
0
LINE
8
BLACK
6
CONTINUOUS
10
19.8333
20
-48.2524
11
19.3571
21
-48.2524
0
LINE
8
BLACK
6
CONTINUOUS
10
19.3571
20
-48.2524
11
19.3095
21
-48.7286
0
LINE
8
BLACK
6
CONTINUOUS
10
19.3095
20
-48.7286
11
19.3571
21
-48.681
0
LINE
8
BLACK
6
CONTINUOUS
10
19.3571
20
-48.681
11
19.4524
21
-48.6333
0
LINE
8
BLACK
6
CONTINUOUS
10
19.4524
20
-48.6333
11
19.6905
21
-48.6333
0
LINE
8
BLACK
6
CONTINUOUS
10
19.6905
20
-48.6333
11
19.7857
21
-48.681
0
LINE
8
BLACK
6
CONTINUOUS
10
19.7857
20
-48.681
11
19.8333
21
-48.7286
0
LINE
8
BLACK
6
CONTINUOUS
10
19.8333
20
-48.7286
11
19.881
21
-48.8238
0
LINE
8
BLACK
6
CONTINUOUS
10
19.881
20
-48.8238
11
19.881
21
-49.0619
0
LINE
8
BLACK
6
CONTINUOUS
10
19.881
20
-49.0619
11
19.8333
21
-49.1571
0
LINE
8
BLACK
6
CONTINUOUS
10
19.8333
20
-49.1571
11
19.7857
21
-49.2048
0
LINE
8
BLACK
6
CONTINUOUS
10
19.7857
20
-49.2048
11
19.6905
21
-49.2524
0
LINE
8
BLACK
6
CONTINUOUS
10
19.6905
20
-49.2524
11
19.4524
21
-49.2524
0
LINE
8
BLACK
6
CONTINUOUS
10
19.4524
20
-49.2524
11
19.3571
21
-49.2048
0
LINE
8
BLACK
6
CONTINUOUS
10
19.3571
20
-49.2048
11
19.3095
21
-49.1571
0
LINE
8
BLACK
6
CONTINUOUS
10
20.3095
20
-49.1571
11
20.3571
21
-49.2048
0
LINE
8
BLACK
6
CONTINUOUS
10
20.3571
20
-49.2048
11
20.3095
21
-49.2524
0
LINE
8
BLACK
6
CONTINUOUS
10
20.3095
20
-49.2524
11
20.2619
21
-49.2048
0
LINE
8
BLACK
6
CONTINUOUS
10
20.2619
20
-49.2048
11
20.3095
21
-49.1571
0
LINE
8
BLACK
6
CONTINUOUS
10
20.3095
20
-49.1571
11
20.3095
21
-49.2524
0
LINE
8
BLACK
6
CONTINUOUS
10
20.7381
20
-48.3476
11
20.7857
21
-48.3
0
LINE
8
BLACK
6
CONTINUOUS
10
20.7857
20
-48.3
11
20.881
21
-48.2524
0
LINE
8
BLACK
6
CONTINUOUS
10
20.881
20
-48.2524
11
21.119
21
-48.2524
0
LINE
8
BLACK
6
CONTINUOUS
10
21.119
20
-48.2524
11
21.2143
21
-48.3
0
LINE
8
BLACK
6
CONTINUOUS
10
21.2143
20
-48.3
11
21.2619
21
-48.3476
0
LINE
8
BLACK
6
CONTINUOUS
10
21.2619
20
-48.3476
11
21.3095
21
-48.4429
0
LINE
8
BLACK
6
CONTINUOUS
10
21.3095
20
-48.4429
11
21.3095
21
-48.5381
0
LINE
8
BLACK
6
CONTINUOUS
10
21.3095
20
-48.5381
11
21.2619
21
-48.681
0
LINE
8
BLACK
6
CONTINUOUS
10
21.2619
20
-48.681
11
20.6905
21
-49.2524
0
LINE
8
BLACK
6
CONTINUOUS
10
20.6905
20
-49.2524
11
21.3095
21
-49.2524
0
LINE
8
BLACK
6
CONTINUOUS
10
21.9286
20
-48.2524
11
22.0238
21
-48.2524
0
LINE
8
BLACK
6
CONTINUOUS
10
22.0238
20
-48.2524
11
22.119
21
-48.3
0
LINE
8
BLACK
6
CONTINUOUS
10
22.119
20
-48.3
11
22.1667
21
-48.3476
0
LINE
8
BLACK
6
CONTINUOUS
10
22.1667
20
-48.3476
11
22.2143
21
-48.4429
0
LINE
8
BLACK
6
CONTINUOUS
10
22.2143
20
-48.4429
11
22.2619
21
-48.6333
0
LINE
8
BLACK
6
CONTINUOUS
10
22.2619
20
-48.6333
11
22.2619
21
-48.8714
0
LINE
8
BLACK
6
CONTINUOUS
10
22.2619
20
-48.8714
11
22.2143
21
-49.0619
0
LINE
8
BLACK
6
CONTINUOUS
10
22.2143
20
-49.0619
11
22.1667
21
-49.1571
0
LINE
8
BLACK
6
CONTINUOUS
10
22.1667
20
-49.1571
11
22.119
21
-49.2048
0
LINE
8
BLACK
6
CONTINUOUS
10
22.119
20
-49.2048
11
22.0238
21
-49.2524
0
LINE
8
BLACK
6
CONTINUOUS
10
22.0238
20
-49.2524
11
21.9286
21
-49.2524
0
LINE
8
BLACK
6
CONTINUOUS
10
21.9286
20
-49.2524
11
21.8333
21
-49.2048
0
LINE
8
BLACK
6
CONTINUOUS
10
21.8333
20
-49.2048
11
21.7857
21
-49.1571
0
LINE
8
BLACK
6
CONTINUOUS
10
21.7857
20
-49.1571
11
21.7381
21
-49.0619
0
LINE
8
BLACK
6
CONTINUOUS
10
21.7381
20
-49.0619
11
21.6905
21
-48.8714
0
LINE
8
BLACK
6
CONTINUOUS
10
21.6905
20
-48.8714
11
21.6905
21
-48.6333
0
LINE
8
BLACK
6
CONTINUOUS
10
21.6905
20
-48.6333
11
21.7381
21
-48.4429
0
LINE
8
BLACK
6
CONTINUOUS
10
21.7381
20
-48.4429
11
21.7857
21
-48.3476
0
LINE
8
BLACK
6
CONTINUOUS
10
21.7857
20
-48.3476
11
21.8333
21
-48.3
0
LINE
8
BLACK
6
CONTINUOUS
10
21.8333
20
-48.3
11
21.9286
21
-48.2524
0
LINE
8
BLACK
6
CONTINUOUS
10
22.881
20
-48.2524
11
22.9762
21
-48.2524
0
LINE
8
BLACK
6
CONTINUOUS
10
22.9762
20
-48.2524
11
23.0714
21
-48.3
0
LINE
8
BLACK
6
CONTINUOUS
10
23.0714
20
-48.3
11
23.119
21
-48.3476
0
LINE
8
BLACK
6
CONTINUOUS
10
23.119
20
-48.3476
11
23.1667
21
-48.4429
0
LINE
8
BLACK
6
CONTINUOUS
10
23.1667
20
-48.4429
11
23.2143
21
-48.6333
0
LINE
8
BLACK
6
CONTINUOUS
10
23.2143
20
-48.6333
11
23.2143
21
-48.8714
0
LINE
8
BLACK
6
CONTINUOUS
10
23.2143
20
-48.8714
11
23.1667
21
-49.0619
0
LINE
8
BLACK
6
CONTINUOUS
10
23.1667
20
-49.0619
11
23.119
21
-49.1571
0
LINE
8
BLACK
6
CONTINUOUS
10
23.119
20
-49.1571
11
23.0714
21
-49.2048
0
LINE
8
BLACK
6
CONTINUOUS
10
23.0714
20
-49.2048
11
22.9762
21
-49.2524
0
LINE
8
BLACK
6
CONTINUOUS
10
22.9762
20
-49.2524
11
22.881
21
-49.2524
0
LINE
8
BLACK
6
CONTINUOUS
10
22.881
20
-49.2524
11
22.7857
21
-49.2048
0
LINE
8
BLACK
6
CONTINUOUS
10
22.7857
20
-49.2048
11
22.7381
21
-49.1571
0
LINE
8
BLACK
6
CONTINUOUS
10
22.7381
20
-49.1571
11
22.6905
21
-49.0619
0
LINE
8
BLACK
6
CONTINUOUS
10
22.6905
20
-49.0619
11
22.6429
21
-48.8714
0
LINE
8
BLACK
6
CONTINUOUS
10
22.6429
20
-48.8714
11
22.6429
21
-48.6333
0
LINE
8
BLACK
6
CONTINUOUS
10
22.6429
20
-48.6333
11
22.6905
21
-48.4429
0
LINE
8
BLACK
6
CONTINUOUS
10
22.6905
20
-48.4429
11
22.7381
21
-48.3476
0
LINE
8
BLACK
6
CONTINUOUS
10
22.7381
20
-48.3476
11
22.7857
21
-48.3
0
LINE
8
BLACK
6
CONTINUOUS
10
22.7857
20
-48.3
11
22.881
21
-48.2524
0
LINE
8
BLACK
6
CONTINUOUS
10
24.4048
20
-49.2524
11
24.4048
21
-48.5857
0
LINE
8
BLACK
6
CONTINUOUS
10
24.4048
20
-48.681
11
24.4524
21
-48.6333
0
LINE
8
BLACK
6
CONTINUOUS
10
24.4524
20
-48.6333
11
24.5476
21
-48.5857
0
LINE
8
BLACK
6
CONTINUOUS
10
24.5476
20
-48.5857
11
24.6905
21
-48.5857
0
LINE
8
BLACK
6
CONTINUOUS
10
24.6905
20
-48.5857
11
24.7857
21
-48.6333
0
LINE
8
BLACK
6
CONTINUOUS
10
24.7857
20
-48.6333
11
24.8333
21
-48.7286
0
LINE
8
BLACK
6
CONTINUOUS
10
24.8333
20
-48.7286
11
24.8333
21
-49.2524
0
LINE
8
BLACK
6
CONTINUOUS
10
24.8333
20
-48.7286
11
24.881
21
-48.6333
0
LINE
8
BLACK
6
CONTINUOUS
10
24.881
20
-48.6333
11
24.9762
21
-48.5857
0
LINE
8
BLACK
6
CONTINUOUS
10
24.9762
20
-48.5857
11
25.119
21
-48.5857
0
LINE
8
BLACK
6
CONTINUOUS
10
25.119
20
-48.5857
11
25.2143
21
-48.6333
0
LINE
8
BLACK
6
CONTINUOUS
10
25.2143
20
-48.6333
11
25.2619
21
-48.7286
0
LINE
8
BLACK
6
CONTINUOUS
10
25.2619
20
-48.7286
11
25.2619
21
-49.2524
0
LINE
8
BLACK
6
CONTINUOUS
10
25.7381
20
-49.2524
11
25.7381
21
-48.5857
0
LINE
8
BLACK
6
CONTINUOUS
10
25.7381
20
-48.681
11
25.7857
21
-48.6333
0
LINE
8
BLACK
6
CONTINUOUS
10
25.7857
20
-48.6333
11
25.881
21
-48.5857
0
LINE
8
BLACK
6
CONTINUOUS
10
25.881
20
-48.5857
11
26.0238
21
-48.5857
0
LINE
8
BLACK
6
CONTINUOUS
10
26.0238
20
-48.5857
11
26.119
21
-48.6333
0
LINE
8
BLACK
6
CONTINUOUS
10
26.119
20
-48.6333
11
26.1667
21
-48.7286
0
LINE
8
BLACK
6
CONTINUOUS
10
26.1667
20
-48.7286
11
26.1667
21
-49.2524
0
LINE
8
BLACK
6
CONTINUOUS
10
26.1667
20
-48.7286
11
26.2143
21
-48.6333
0
LINE
8
BLACK
6
CONTINUOUS
10
26.2143
20
-48.6333
11
26.3095
21
-48.5857
0
LINE
8
BLACK
6
CONTINUOUS
10
26.3095
20
-48.5857
11
26.4524
21
-48.5857
0
LINE
8
BLACK
6
CONTINUOUS
10
26.4524
20
-48.5857
11
26.5476
21
-48.6333
0
LINE
8
BLACK
6
CONTINUOUS
10
26.5476
20
-48.6333
11
26.5952
21
-48.7286
0
LINE
8
BLACK
6
CONTINUOUS
10
26.5952
20
-48.7286
11
26.5952
21
-49.2524
0
LINE
8
BLACK
6
CONTINUOUS
10
9.9
20
-50.1
11
35.1
21
-50.1
0
LINE
8
BLACK
6
CONTINUOUS
10
9.9
20
-54.8
11
9.9
21
-49.5136
0
LINE
8
BLACK
6
CONTINUOUS
10
35.1
20
-54.8
11
35.1
21
-49.5136
0
LINE
8
BLACK
6
CONTINUOUS
10
35.1
20
-50.1
11
33.9735
21
-50.6864
0
LINE
8
BLACK
6
CONTINUOUS
10
35.1
20
-50.1
11
33.9735
21
-49.5136
0
LINE
8
BLACK
6
CONTINUOUS
10
9.9
20
-50.1
11
11.0265
21
-50.6864
0
LINE
8
BLACK
6
CONTINUOUS
10
9.9
20
-50.1
11
11.0265
21
-49.5136
0
LINE
8
BLACK
6
CONTINUOUS
10
159.385
20
-142.78
11
159.385
21
-147.479
0
LINE
8
BLACK
6
CONTINUOUS
10
206.223
20
-142.78
11
159.385
21
-142.78
0
LINE
8
BLACK
6
CONTINUOUS
10
206.223
20
-146.183
11
206.223
21
-142.78
0
LINE
8
BLACK
6
CONTINUOUS
10
212.877
20
-146.183
11
206.223
21
-146.183
0
LINE
8
BLACK
6
CONTINUOUS
10
212.877
20
-142.78
11
212.877
21
-146.183
0
LINE
8
BLACK
6
CONTINUOUS
10
213.741
20
-142.78
11
212.877
21
-142.78
0
LINE
8
BLACK
6
CONTINUOUS
10
213.741
20
-139.986
11
213.741
21
-142.78
0
LINE
8
BLACK
6
CONTINUOUS
10
212.877
20
-139.986
11
213.741
21
-139.986
0
LINE
8
BLACK
6
CONTINUOUS
10
212.877
20
-133.89
11
212.877
21
-139.986
0
LINE
8
BLACK
6
CONTINUOUS
10
211.836
20
-133.89
11
212.877
21
-133.89
0
LINE
8
BLACK
6
CONTINUOUS
10
211.836
20
-132.721
11
211.836
21
-133.89
0
LINE
8
BLACK
6
CONTINUOUS
10
207.264
20
-132.721
11
211.836
21
-132.721
0
LINE
8
BLACK
6
CONTINUOUS
10
207.264
20
-133.89
11
207.264
21
-132.721
0
LINE
8
BLACK
6
CONTINUOUS
10
206.223
20
-133.89
11
207.264
21
-133.89
0
LINE
8
BLACK
6
CONTINUOUS
10
206.223
20
-138.208
11
206.223
21
-133.89
0
LINE
8
BLACK
6
CONTINUOUS
10
159.385
20
-138.208
11
206.223
21
-138.208
0
LINE
8
BLACK
6
CONTINUOUS
10
159.385
20
-133.509
11
159.385
21
-138.208
0
LINE
8
BLACK
6
CONTINUOUS
10
145.415
20
-133.509
11
159.385
21
-133.509
0
LINE
8
BLACK
6
CONTINUOUS
10
145.415
20
-138.208
11
145.415
21
-133.509
0
LINE
8
BLACK
6
CONTINUOUS
10
98.5774
20
-138.208
11
145.415
21
-138.208
0
LINE
8
BLACK
6
CONTINUOUS
10
98.5774
20
-133.89
11
98.5774
21
-138.208
0
LINE
8
BLACK
6
CONTINUOUS
10
97.536
20
-133.89
11
98.5774
21
-133.89
0
LINE
8
BLACK
6
CONTINUOUS
10
97.536
20
-132.721
11
97.536
21
-133.89
0
LINE
8
BLACK
6
CONTINUOUS
10
92.964
20
-132.721
11
97.536
21
-132.721
0
LINE
8
BLACK
6
CONTINUOUS
10
92.964
20
-133.89
11
92.964
21
-132.721
0
LINE
8
BLACK
6
CONTINUOUS
10
91.9226
20
-133.89
11
92.964
21
-133.89
0
LINE
8
BLACK
6
CONTINUOUS
10
91.9226
20
-139.986
11
91.9226
21
-133.89
0
LINE
8
BLACK
6
CONTINUOUS
10
91.059
20
-139.986
11
91.9226
21
-139.986
0
LINE
8
BLACK
6
CONTINUOUS
10
91.059
20
-142.78
11
91.059
21
-139.986
0
LINE
8
BLACK
6
CONTINUOUS
10
91.9226
20
-142.78
11
91.059
21
-142.78
0
LINE
8
BLACK
6
CONTINUOUS
10
91.9226
20
-146.183
11
91.9226
21
-142.78
0
LINE
8
BLACK
6
CONTINUOUS
10
98.5774
20
-146.183
11
91.9226
21
-146.183
0
LINE
8
BLACK
6
CONTINUOUS
10
98.5774
20
-142.78
11
98.5774
21
-146.183
0
LINE
8
BLACK
6
CONTINUOUS
10
145.415
20
-142.78
11
98.5774
21
-142.78
0
LINE
8
BLACK
6
CONTINUOUS
10
145.415
20
-147.479
11
145.415
21
-142.78
0
LINE
8
BLACK
6
CONTINUOUS
10
159.385
20
-147.479
11
145.415
21
-147.479
0
LINE
8
BLACK
6
CONTINUOUS
10
206.223
20
-138.208
11
206.223
21
-133.89
0
LINE
8
BLACK
6
CONTINUOUS
10
206.223
20
-133.89
11
207.264
21
-133.89
0
LINE
8
BLACK
6
CONTINUOUS
10
207.264
20
-133.89
11
207.264
21
-132.721
0
LINE
8
BLACK
6
CONTINUOUS
10
207.264
20
-132.721
11
211.836
21
-132.721
0
LINE
8
BLACK
6
CONTINUOUS
10
211.836
20
-132.721
11
211.836
21
-133.89
0
LINE
8
BLACK
6
CONTINUOUS
10
211.836
20
-133.89
11
212.877
21
-133.89
0
LINE
8
BLACK
6
CONTINUOUS
10
212.877
20
-133.89
11
212.877
21
-139.986
0
LINE
8
BLACK
6
CONTINUOUS
10
212.877
20
-142.78
11
212.877
21
-146.183
0
LINE
8
BLACK
6
CONTINUOUS
10
212.877
20
-146.183
11
206.223
21
-146.183
0
LINE
8
BLACK
6
CONTINUOUS
10
206.223
20
-146.183
11
206.223
21
-142.78
0
LINE
8
BLACK
6
CONTINUOUS
10
111.76
20
-145.371
11
111.76
21
-147.479
0
LINE
8
BLACK
6
CONTINUOUS
10
113.386
20
-145.371
11
111.76
21
-145.371
0
LINE
8
BLACK
6
CONTINUOUS
10
113.386
20
-146.183
11
113.386
21
-145.371
0
LINE
8
BLACK
6
CONTINUOUS
10
120.04
20
-146.183
11
113.386
21
-146.183
0
LINE
8
BLACK
6
CONTINUOUS
10
120.04
20
-142.78
11
120.04
21
-146.183
0
LINE
8
BLACK
6
CONTINUOUS
10
120.904
20
-142.78
11
120.04
21
-142.78
0
LINE
8
BLACK
6
CONTINUOUS
10
120.904
20
-139.986
11
120.904
21
-142.78
0
LINE
8
BLACK
6
CONTINUOUS
10
120.04
20
-139.986
11
120.904
21
-139.986
0
LINE
8
BLACK
6
CONTINUOUS
10
120.04
20
-133.89
11
120.04
21
-139.986
0
LINE
8
BLACK
6
CONTINUOUS
10
118.999
20
-133.89
11
120.04
21
-133.89
0
LINE
8
BLACK
6
CONTINUOUS
10
118.999
20
-132.721
11
118.999
21
-133.89
0
LINE
8
BLACK
6
CONTINUOUS
10
114.427
20
-132.721
11
118.999
21
-132.721
0
LINE
8
BLACK
6
CONTINUOUS
10
114.427
20
-133.89
11
114.427
21
-132.721
0
LINE
8
BLACK
6
CONTINUOUS
10
113.386
20
-133.89
11
114.427
21
-133.89
0
LINE
8
BLACK
6
CONTINUOUS
10
113.386
20
-134.677
11
113.386
21
-133.89
0
LINE
8
BLACK
6
CONTINUOUS
10
111.76
20
-134.677
11
113.386
21
-134.677
0
LINE
8
BLACK
6
CONTINUOUS
10
111.76
20
-133.509
11
111.76
21
-134.677
0
LINE
8
BLACK
6
CONTINUOUS
10
97.79
20
-133.509
11
111.76
21
-133.509
0
LINE
8
BLACK
6
CONTINUOUS
10
97.79
20
-134.677
11
97.79
21
-133.509
0
LINE
8
BLACK
6
CONTINUOUS
10
96.1644
20
-134.677
11
97.79
21
-134.677
0
LINE
8
BLACK
6
CONTINUOUS
10
96.1644
20
-133.89
11
96.1644
21
-134.677
0
LINE
8
BLACK
6
CONTINUOUS
10
95.123
20
-133.89
11
96.1644
21
-133.89
0
LINE
8
BLACK
6
CONTINUOUS
10
95.123
20
-132.721
11
95.123
21
-133.89
0
LINE
8
BLACK
6
CONTINUOUS
10
90.551
20
-132.721
11
95.123
21
-132.721
0
LINE
8
BLACK
6
CONTINUOUS
10
90.551
20
-133.89
11
90.551
21
-132.721
0
LINE
8
BLACK
6
CONTINUOUS
10
89.5096
20
-133.89
11
90.551
21
-133.89
0
LINE
8
BLACK
6
CONTINUOUS
10
89.5096
20
-139.986
11
89.5096
21
-133.89
0
LINE
8
BLACK
6
CONTINUOUS
10
88.646
20
-139.986
11
89.5096
21
-139.986
0
LINE
8
BLACK
6
CONTINUOUS
10
88.646
20
-142.78
11
88.646
21
-139.986
0
LINE
8
BLACK
6
CONTINUOUS
10
89.5096
20
-142.78
11
88.646
21
-142.78
0
LINE
8
BLACK
6
CONTINUOUS
10
89.5096
20
-146.183
11
89.5096
21
-142.78
0
LINE
8
BLACK
6
CONTINUOUS
10
96.1644
20
-146.183
11
89.5096
21
-146.183
0
LINE
8
BLACK
6
CONTINUOUS
10
96.1644
20
-145.371
11
96.1644
21
-146.183
0
LINE
8
BLACK
6
CONTINUOUS
10
97.79
20
-145.371
11
96.1644
21
-145.371
0
LINE
8
BLACK
6
CONTINUOUS
10
97.79
20
-147.479
11
97.79
21
-145.371
0
LINE
8
BLACK
6
CONTINUOUS
10
111.76
20
-147.479
11
97.79
21
-147.479
0
LINE
8
BLACK
6
CONTINUOUS
10
207.01
20
-145.371
11
207.01
21
-147.479
0
LINE
8
BLACK
6
CONTINUOUS
10
208.636
20
-145.371
11
207.01
21
-145.371
0
LINE
8
BLACK
6
CONTINUOUS
10
208.636
20
-146.183
11
208.636
21
-145.371
0
LINE
8
BLACK
6
CONTINUOUS
10
215.29
20
-146.183
11
208.636
21
-146.183
0
LINE
8
BLACK
6
CONTINUOUS
10
215.29
20
-142.78
11
215.29
21
-146.183
0
LINE
8
BLACK
6
CONTINUOUS
10
216.154
20
-142.78
11
215.29
21
-142.78
0
LINE
8
BLACK
6
CONTINUOUS
10
216.154
20
-139.986
11
216.154
21
-142.78
0
LINE
8
BLACK
6
CONTINUOUS
10
215.29
20
-139.986
11
216.154
21
-139.986
0
LINE
8
BLACK
6
CONTINUOUS
10
215.29
20
-133.89
11
215.29
21
-139.986
0
LINE
8
BLACK
6
CONTINUOUS
10
214.249
20
-133.89
11
215.29
21
-133.89
0
LINE
8
BLACK
6
CONTINUOUS
10
214.249
20
-132.721
11
214.249
21
-133.89
0
LINE
8
BLACK
6
CONTINUOUS
10
209.677
20
-132.721
11
214.249
21
-132.721
0
LINE
8
BLACK
6
CONTINUOUS
10
209.677
20
-133.89
11
209.677
21
-132.721
0
LINE
8
BLACK
6
CONTINUOUS
10
208.636
20
-133.89
11
209.677
21
-133.89
0
LINE
8
BLACK
6
CONTINUOUS
10
208.636
20
-134.677
11
208.636
21
-133.89
0
LINE
8
BLACK
6
CONTINUOUS
10
207.01
20
-134.677
11
208.636
21
-134.677
0
LINE
8
BLACK
6
CONTINUOUS
10
207.01
20
-133.509
11
207.01
21
-134.677
0
LINE
8
BLACK
6
CONTINUOUS
10
193.04
20
-133.509
11
207.01
21
-133.509
0
LINE
8
BLACK
6
CONTINUOUS
10
193.04
20
-134.677
11
193.04
21
-133.509
0
LINE
8
BLACK
6
CONTINUOUS
10
191.414
20
-134.677
11
193.04
21
-134.677
0
LINE
8
BLACK
6
CONTINUOUS
10
191.414
20
-133.89
11
191.414
21
-134.677
0
LINE
8
BLACK
6
CONTINUOUS
10
190.373
20
-133.89
11
191.414
21
-133.89
0
LINE
8
BLACK
6
CONTINUOUS
10
190.373
20
-132.721
11
190.373
21
-133.89
0
LINE
8
BLACK
6
CONTINUOUS
10
185.801
20
-132.721
11
190.373
21
-132.721
0
LINE
8
BLACK
6
CONTINUOUS
10
185.801
20
-133.89
11
185.801
21
-132.721
0
LINE
8
BLACK
6
CONTINUOUS
10
184.76
20
-133.89
11
185.801
21
-133.89
0
LINE
8
BLACK
6
CONTINUOUS
10
184.76
20
-139.986
11
184.76
21
-133.89
0
LINE
8
BLACK
6
CONTINUOUS
10
183.896
20
-139.986
11
184.76
21
-139.986
0
LINE
8
BLACK
6
CONTINUOUS
10
183.896
20
-142.78
11
183.896
21
-139.986
0
LINE
8
BLACK
6
CONTINUOUS
10
184.76
20
-142.78
11
183.896
21
-142.78
0
LINE
8
BLACK
6
CONTINUOUS
10
184.76
20
-146.183
11
184.76
21
-142.78
0
LINE
8
BLACK
6
CONTINUOUS
10
191.414
20
-146.183
11
184.76
21
-146.183
0
LINE
8
BLACK
6
CONTINUOUS
10
191.414
20
-145.371
11
191.414
21
-146.183
0
LINE
8
BLACK
6
CONTINUOUS
10
193.04
20
-145.371
11
191.414
21
-145.371
0
LINE
8
BLACK
6
CONTINUOUS
10
193.04
20
-147.479
11
193.04
21
-145.371
0
LINE
8
BLACK
6
CONTINUOUS
10
207.01
20
-147.479
11
193.04
21
-147.479
0
LINE
8
BLACK
6
CONTINUOUS
10
50.165
20
-109.379
11
50.165
21
-95.4087
0
LINE
8
BLACK
6
CONTINUOUS
10
64.135
20
-109.379
11
50.165
21
-109.379
0
LINE
8
BLACK
6
CONTINUOUS
10
64.135
20
-95.4087
11
64.135
21
-109.379
0
LINE
8
BLACK
6
CONTINUOUS
10
50.165
20
-95.4087
11
64.135
21
-95.4087
0
LINE
8
BLACK
6
CONTINUOUS
10
221.615
20
-114.459
11
235.585
21
-114.459
0
LINE
8
BLACK
6
CONTINUOUS
10
235.585
20
-114.459
11
235.585
21
-128.429
0
LINE
8
BLACK
6
CONTINUOUS
10
235.585
20
-128.429
11
221.615
21
-128.429
0
LINE
8
BLACK
6
CONTINUOUS
10
221.615
20
-128.429
11
221.615
21
-114.459
0
LINE
8
BLACK
6
CONTINUOUS
10
221.615
20
-95.4087
11
235.585
21
-95.4087
0
LINE
8
BLACK
6
CONTINUOUS
10
235.585
20
-95.4087
11
235.585
21
-109.379
0
LINE
8
BLACK
6
CONTINUOUS
10
235.585
20
-109.379
11
221.615
21
-109.379
0
LINE
8
BLACK
6
CONTINUOUS
10
221.615
20
-109.379
11
221.615
21
-95.4087
0
LINE
8
BLACK
6
CONTINUOUS
10
50.165
20
-90.3287
11
50.165
21
-76.3588
0
LINE
8
BLACK
6
CONTINUOUS
10
64.135
20
-90.3287
11
50.165
21
-90.3287
0
LINE
8
BLACK
6
CONTINUOUS
10
64.135
20
-76.3588
11
64.135
21
-90.3287
0
LINE
8
BLACK
6
CONTINUOUS
10
50.165
20
-76.3588
11
64.135
21
-76.3588
0
LINE
8
BLACK
6
CONTINUOUS
10
278.765
20
-90.3287
11
278.765
21
-76.3588
0
LINE
8
BLACK
6
CONTINUOUS
10
292.735
20
-90.3287
11
278.765
21
-90.3287
0
LINE
8
BLACK
6
CONTINUOUS
10
292.735
20
-76.3588
11
292.735
21
-90.3287
0
LINE
8
BLACK
6
CONTINUOUS
10
278.765
20
-76.3588
11
292.735
21
-76.3588
0
LINE
8
BLACK
6
CONTINUOUS
10
259.715
20
-128.429
11
259.715
21
-114.459
0
LINE
8
BLACK
6
CONTINUOUS
10
273.685
20
-128.429
11
259.715
21
-128.429
0
LINE
8
BLACK
6
CONTINUOUS
10
273.685
20
-114.459
11
273.685
21
-128.429
0
LINE
8
BLACK
6
CONTINUOUS
10
259.715
20
-114.459
11
273.685
21
-114.459
0
LINE
8
BLACK
6
CONTINUOUS
10
259.715
20
-109.379
11
259.715
21
-95.4087
0
LINE
8
BLACK
6
CONTINUOUS
10
273.685
20
-109.379
11
259.715
21
-109.379
0
LINE
8
BLACK
6
CONTINUOUS
10
273.685
20
-95.4087
11
273.685
21
-109.379
0
LINE
8
BLACK
6
CONTINUOUS
10
259.715
20
-95.4087
11
273.685
21
-95.4087
0
LINE
8
BLACK
6
CONTINUOUS
10
259.715
20
-90.3287
11
259.715
21
-76.3588
0
LINE
8
BLACK
6
CONTINUOUS
10
273.685
20
-90.3287
11
259.715
21
-90.3287
0
LINE
8
BLACK
6
CONTINUOUS
10
273.685
20
-76.3588
11
273.685
21
-90.3287
0
LINE
8
BLACK
6
CONTINUOUS
10
259.715
20
-76.3588
11
273.685
21
-76.3588
0
LINE
8
BLACK
6
CONTINUOUS
10
240.665
20
-147.479
11
240.665
21
-133.509
0
LINE
8
BLACK
6
CONTINUOUS
10
254.635
20
-147.479
11
240.665
21
-147.479
0
LINE
8
BLACK
6
CONTINUOUS
10
254.635
20
-133.509
11
254.635
21
-147.479
0
LINE
8
BLACK
6
CONTINUOUS
10
240.665
20
-133.509
11
254.635
21
-133.509
0
LINE
8
BLACK
6
CONTINUOUS
10
240.665
20
-128.429
11
240.665
21
-114.459
0
LINE
8
BLACK
6
CONTINUOUS
10
254.635
20
-128.429
11
240.665
21
-128.429
0
LINE
8
BLACK
6
CONTINUOUS
10
254.635
20
-114.459
11
254.635
21
-128.429
0
LINE
8
BLACK
6
CONTINUOUS
10
240.665
20
-114.459
11
254.635
21
-114.459
0
LINE
8
BLACK
6
CONTINUOUS
10
240.665
20
-109.379
11
240.665
21
-95.4087
0
LINE
8
BLACK
6
CONTINUOUS
10
254.635
20
-109.379
11
240.665
21
-109.379
0
LINE
8
BLACK
6
CONTINUOUS
10
254.635
20
-95.4087
11
254.635
21
-109.379
0
LINE
8
BLACK
6
CONTINUOUS
10
240.665
20
-95.4087
11
254.635
21
-95.4087
0
LINE
8
BLACK
6
CONTINUOUS
10
240.665
20
-90.3287
11
240.665
21
-76.3588
0
LINE
8
BLACK
6
CONTINUOUS
10
254.635
20
-90.3287
11
240.665
21
-90.3287
0
LINE
8
BLACK
6
CONTINUOUS
10
254.635
20
-76.3588
11
254.635
21
-90.3287
0
LINE
8
BLACK
6
CONTINUOUS
10
240.665
20
-76.3588
11
254.635
21
-76.3588
0
LINE
8
BLACK
6
CONTINUOUS
10
221.615
20
-90.3287
11
221.615
21
-76.3588
0
LINE
8
BLACK
6
CONTINUOUS
10
235.585
20
-90.3287
11
221.615
21
-90.3287
0
LINE
8
BLACK
6
CONTINUOUS
10
235.585
20
-76.3588
11
235.585
21
-90.3287
0
LINE
8
BLACK
6
CONTINUOUS
10
221.615
20
-76.3588
11
235.585
21
-76.3588
0
LINE
8
BLACK
6
CONTINUOUS
10
202.565
20
-147.479
11
202.565
21
-133.509
0
LINE
8
BLACK
6
CONTINUOUS
10
216.535
20
-147.479
11
202.565
21
-147.479
0
LINE
8
BLACK
6
CONTINUOUS
10
216.535
20
-133.509
11
216.535
21
-147.479
0
LINE
8
BLACK
6
CONTINUOUS
10
202.565
20
-133.509
11
216.535
21
-133.509
0
LINE
8
BLACK
6
CONTINUOUS
10
202.565
20
-128.429
11
202.565
21
-114.459
0
LINE
8
BLACK
6
CONTINUOUS
10
216.535
20
-128.429
11
202.565
21
-128.429
0
LINE
8
BLACK
6
CONTINUOUS
10
216.535
20
-114.459
11
216.535
21
-128.429
0
LINE
8
BLACK
6
CONTINUOUS
10
202.565
20
-114.459
11
216.535
21
-114.459
0
LINE
8
BLACK
6
CONTINUOUS
10
202.565
20
-109.379
11
202.565
21
-95.4087
0
LINE
8
BLACK
6
CONTINUOUS
10
216.535
20
-109.379
11
202.565
21
-109.379
0
LINE
8
BLACK
6
CONTINUOUS
10
216.535
20
-95.4087
11
216.535
21
-109.379
0
LINE
8
BLACK
6
CONTINUOUS
10
202.565
20
-95.4087
11
216.535
21
-95.4087
0
LINE
8
BLACK
6
CONTINUOUS
10
202.565
20
-90.3287
11
202.565
21
-76.3588
0
LINE
8
BLACK
6
CONTINUOUS
10
216.535
20
-90.3287
11
202.565
21
-90.3287
0
LINE
8
BLACK
6
CONTINUOUS
10
216.535
20
-76.3588
11
216.535
21
-90.3287
0
LINE
8
BLACK
6
CONTINUOUS
10
202.565
20
-76.3588
11
216.535
21
-76.3588
0
LINE
8
BLACK
6
CONTINUOUS
10
183.515
20
-90.3287
11
183.515
21
-76.3588
0
LINE
8
BLACK
6
CONTINUOUS
10
197.485
20
-90.3287
11
183.515
21
-90.3287
0
LINE
8
BLACK
6
CONTINUOUS
10
197.485
20
-76.3588
11
197.485
21
-90.3287
0
LINE
8
BLACK
6
CONTINUOUS
10
183.515
20
-76.3588
11
197.485
21
-76.3588
0
LINE
8
BLACK
6
CONTINUOUS
10
164.465
20
-147.479
11
164.465
21
-133.509
0
LINE
8
BLACK
6
CONTINUOUS
10
178.435
20
-147.479
11
164.465
21
-147.479
0
LINE
8
BLACK
6
CONTINUOUS
10
178.435
20
-133.509
11
178.435
21
-147.479
0
LINE
8
BLACK
6
CONTINUOUS
10
164.465
20
-133.509
11
178.435
21
-133.509
0
LINE
8
BLACK
6
CONTINUOUS
10
164.465
20
-128.429
11
164.465
21
-114.459
0
LINE
8
BLACK
6
CONTINUOUS
10
178.435
20
-128.429
11
164.465
21
-128.429
0
LINE
8
BLACK
6
CONTINUOUS
10
178.435
20
-114.459
11
178.435
21
-128.429
0
LINE
8
BLACK
6
CONTINUOUS
10
164.465
20
-114.459
11
178.435
21
-114.459
0
LINE
8
BLACK
6
CONTINUOUS
10
164.465
20
-109.379
11
164.465
21
-95.4087
0
LINE
8
BLACK
6
CONTINUOUS
10
178.435
20
-109.379
11
164.465
21
-109.379
0
LINE
8
BLACK
6
CONTINUOUS
10
178.435
20
-95.4087
11
178.435
21
-109.379
0
LINE
8
BLACK
6
CONTINUOUS
10
164.465
20
-95.4087
11
178.435
21
-95.4087
0
LINE
8
BLACK
6
CONTINUOUS
10
164.465
20
-90.3287
11
164.465
21
-76.3588
0
LINE
8
BLACK
6
CONTINUOUS
10
178.435
20
-90.3287
11
164.465
21
-90.3287
0
LINE
8
BLACK
6
CONTINUOUS
10
178.435
20
-76.3588
11
178.435
21
-90.3287
0
LINE
8
BLACK
6
CONTINUOUS
10
164.465
20
-76.3588
11
178.435
21
-76.3588
0
LINE
8
BLACK
6
CONTINUOUS
10
145.415
20
-109.379
11
145.415
21
-95.4087
0
LINE
8
BLACK
6
CONTINUOUS
10
159.385
20
-109.379
11
145.415
21
-109.379
0
LINE
8
BLACK
6
CONTINUOUS
10
159.385
20
-95.4087
11
159.385
21
-109.379
0
LINE
8
BLACK
6
CONTINUOUS
10
145.415
20
-95.4087
11
159.385
21
-95.4087
0
LINE
8
BLACK
6
CONTINUOUS
10
145.415
20
-90.3287
11
145.415
21
-76.3588
0
LINE
8
BLACK
6
CONTINUOUS
10
159.385
20
-90.3287
11
145.415
21
-90.3287
0
LINE
8
BLACK
6
CONTINUOUS
10
159.385
20
-76.3588
11
159.385
21
-90.3287
0
LINE
8
BLACK
6
CONTINUOUS
10
145.415
20
-76.3588
11
159.385
21
-76.3588
0
LINE
8
BLACK
6
CONTINUOUS
10
126.365
20
-147.479
11
126.365
21
-133.509
0
LINE
8
BLACK
6
CONTINUOUS
10
140.335
20
-147.479
11
126.365
21
-147.479
0
LINE
8
BLACK
6
CONTINUOUS
10
140.335
20
-133.509
11
140.335
21
-147.479
0
LINE
8
BLACK
6
CONTINUOUS
10
126.365
20
-133.509
11
140.335
21
-133.509
0
LINE
8
BLACK
6
CONTINUOUS
10
126.365
20
-128.429
11
126.365
21
-114.459
0
LINE
8
BLACK
6
CONTINUOUS
10
140.335
20
-128.429
11
126.365
21
-128.429
0
LINE
8
BLACK
6
CONTINUOUS
10
140.335
20
-114.459
11
140.335
21
-128.429
0
LINE
8
BLACK
6
CONTINUOUS
10
126.365
20
-114.459
11
140.335
21
-114.459
0
LINE
8
BLACK
6
CONTINUOUS
10
126.365
20
-109.379
11
126.365
21
-95.4087
0
LINE
8
BLACK
6
CONTINUOUS
10
140.335
20
-109.379
11
126.365
21
-109.379
0
LINE
8
BLACK
6
CONTINUOUS
10
140.335
20
-95.4087
11
140.335
21
-109.379
0
LINE
8
BLACK
6
CONTINUOUS
10
126.365
20
-95.4087
11
140.335
21
-95.4087
0
LINE
8
BLACK
6
CONTINUOUS
10
126.365
20
-90.3287
11
126.365
21
-76.3588
0
LINE
8
BLACK
6
CONTINUOUS
10
140.335
20
-90.3287
11
126.365
21
-90.3287
0
LINE
8
BLACK
6
CONTINUOUS
10
140.335
20
-76.3588
11
140.335
21
-90.3287
0
LINE
8
BLACK
6
CONTINUOUS
10
126.365
20
-76.3588
11
140.335
21
-76.3588
0
LINE
8
BLACK
6
CONTINUOUS
10
107.315
20
-90.3287
11
107.315
21
-76.3588
0
LINE
8
BLACK
6
CONTINUOUS
10
121.285
20
-90.3287
11
107.315
21
-90.3287
0
LINE
8
BLACK
6
CONTINUOUS
10
121.285
20
-76.3588
11
121.285
21
-90.3287
0
LINE
8
BLACK
6
CONTINUOUS
10
107.315
20
-76.3588
11
121.285
21
-76.3588
0
LINE
8
BLACK
6
CONTINUOUS
10
88.265
20
-147.479
11
88.265
21
-133.509
0
LINE
8
BLACK
6
CONTINUOUS
10
102.235
20
-147.479
11
88.265
21
-147.479
0
LINE
8
BLACK
6
CONTINUOUS
10
102.235
20
-133.509
11
102.235
21
-147.479
0
LINE
8
BLACK
6
CONTINUOUS
10
88.265
20
-133.509
11
102.235
21
-133.509
0
LINE
8
BLACK
6
CONTINUOUS
10
88.265
20
-128.429
11
88.265
21
-114.459
0
LINE
8
BLACK
6
CONTINUOUS
10
102.235
20
-128.429
11
88.265
21
-128.429
0
LINE
8
BLACK
6
CONTINUOUS
10
102.235
20
-114.459
11
102.235
21
-128.429
0
LINE
8
BLACK
6
CONTINUOUS
10
88.265
20
-114.459
11
102.235
21
-114.459
0
LINE
8
BLACK
6
CONTINUOUS
10
88.265
20
-109.379
11
88.265
21
-95.4087
0
LINE
8
BLACK
6
CONTINUOUS
10
102.235
20
-109.379
11
88.265
21
-109.379
0
LINE
8
BLACK
6
CONTINUOUS
10
102.235
20
-95.4087
11
102.235
21
-109.379
0
LINE
8
BLACK
6
CONTINUOUS
10
88.265
20
-95.4087
11
102.235
21
-95.4087
0
LINE
8
BLACK
6
CONTINUOUS
10
88.265
20
-90.3287
11
88.265
21
-76.3588
0
LINE
8
BLACK
6
CONTINUOUS
10
102.235
20
-90.3287
11
88.265
21
-90.3287
0
LINE
8
BLACK
6
CONTINUOUS
10
102.235
20
-76.3588
11
102.235
21
-90.3287
0
LINE
8
BLACK
6
CONTINUOUS
10
88.265
20
-76.3588
11
102.235
21
-76.3588
0
LINE
8
BLACK
6
CONTINUOUS
10
69.215
20
-90.3287
11
69.215
21
-76.3588
0
LINE
8
BLACK
6
CONTINUOUS
10
83.185
20
-90.3287
11
69.215
21
-90.3287
0
LINE
8
BLACK
6
CONTINUOUS
10
83.185
20
-76.3588
11
83.185
21
-90.3287
0
LINE
8
BLACK
6
CONTINUOUS
10
69.215
20
-76.3588
11
83.185
21
-76.3588
0
LINE
8
BLACK
6
CONTINUOUS
10
50.165
20
-147.479
11
50.165
21
-133.509
0
LINE
8
BLACK
6
CONTINUOUS
10
64.135
20
-147.479
11
50.165
21
-147.479
0
LINE
8
BLACK
6
CONTINUOUS
10
64.135
20
-133.509
11
64.135
21
-147.479
0
LINE
8
BLACK
6
CONTINUOUS
10
50.165
20
-133.509
11
64.135
21
-133.509
0
LINE
8
BLACK
6
CONTINUOUS
10
50.165
20
-128.429
11
50.165
21
-114.459
0
LINE
8
BLACK
6
CONTINUOUS
10
64.135
20
-128.429
11
50.165
21
-128.429
0
LINE
8
BLACK
6
CONTINUOUS
10
64.135
20
-114.459
11
64.135
21
-128.429
0
LINE
8
BLACK
6
CONTINUOUS
10
50.165
20
-114.459
11
64.135
21
-114.459
0
LINE
8
BLACK
6
CONTINUOUS
10
31.115
20
-109.379
11
31.115
21
-95.4087
0
LINE
8
BLACK
6
CONTINUOUS
10
45.085
20
-109.379
11
31.115
21
-109.379
0
LINE
8
BLACK
6
CONTINUOUS
10
45.085
20
-95.4087
11
45.085
21
-109.379
0
LINE
8
BLACK
6
CONTINUOUS
10
31.115
20
-95.4087
11
45.085
21
-95.4087
0
LINE
8
BLACK
6
CONTINUOUS
10
12.065
20
-109.379
11
12.065
21
-95.4087
0
LINE
8
BLACK
6
CONTINUOUS
10
26.035
20
-109.379
11
12.065
21
-109.379
0
LINE
8
BLACK
6
CONTINUOUS
10
26.035
20
-95.4087
11
26.035
21
-109.379
0
LINE
8
BLACK
6
CONTINUOUS
10
12.065
20
-95.4087
11
26.035
21
-95.4087
0
LINE
8
BLACK
6
CONTINUOUS
10
12.065
20
-76.3588
11
26.035
21
-76.3588
0
LINE
8
BLACK
6
CONTINUOUS
10
26.035
20
-76.3588
11
26.035
21
-90.3287
0
LINE
8
BLACK
6
CONTINUOUS
10
26.035
20
-90.3287
11
12.065
21
-90.3287
0
LINE
8
BLACK
6
CONTINUOUS
10
12.065
20
-90.3287
11
12.065
21
-76.3588
0
LINE
8
BLACK
6
CONTINUOUS
10
12.065
20
-128.429
11
12.065
21
-114.459
0
LINE
8
BLACK
6
CONTINUOUS
10
26.035
20
-128.429
11
12.065
21
-128.429
0
LINE
8
BLACK
6
CONTINUOUS
10
26.035
20
-114.459
11
26.035
21
-128.429
0
LINE
8
BLACK
6
CONTINUOUS
10
12.065
20
-114.459
11
26.035
21
-114.459
0
LINE
8
BLACK
6
CONTINUOUS
10
12.065
20
-133.509
11
26.035
21
-133.509
0
LINE
8
BLACK
6
CONTINUOUS
10
26.035
20
-133.509
11
26.035
21
-147.479
0
LINE
8
BLACK
6
CONTINUOUS
10
26.035
20
-147.479
11
12.065
21
-147.479
0
LINE
8
BLACK
6
CONTINUOUS
10
12.065
20
-147.479
11
12.065
21
-133.509
0
LINE
8
BLACK
6
CONTINUOUS
10
45.085
20
-76.3588
11
45.085
21
-90.3287
0
LINE
8
BLACK
6
CONTINUOUS
10
31.115
20
-76.3588
11
45.085
21
-76.3588
0
LINE
8
BLACK
6
CONTINUOUS
10
31.115
20
-90.3287
11
31.115
21
-76.3588
0
LINE
8
BLACK
6
CONTINUOUS
10
45.085
20
-90.3287
11
31.115
21
-90.3287
0
LINE
8
BLACK
6
CONTINUOUS
10
31.115
20
-114.459
11
45.085
21
-114.459
0
LINE
8
BLACK
6
CONTINUOUS
10
45.085
20
-114.459
11
45.085
21
-128.429
0
LINE
8
BLACK
6
CONTINUOUS
10
45.085
20
-128.429
11
31.115
21
-128.429
0
LINE
8
BLACK
6
CONTINUOUS
10
31.115
20
-128.429
11
31.115
21
-114.459
0
LINE
8
BLACK
6
CONTINUOUS
10
31.115
20
-133.509
11
45.085
21
-133.509
0
LINE
8
BLACK
6
CONTINUOUS
10
45.085
20
-133.509
11
45.085
21
-147.479
0
LINE
8
BLACK
6
CONTINUOUS
10
45.085
20
-147.479
11
31.115
21
-147.479
0
LINE
8
BLACK
6
CONTINUOUS
10
31.115
20
-147.479
11
31.115
21
-133.509
0
LINE
8
BLACK
6
CONTINUOUS
10
69.215
20
-95.4087
11
83.185
21
-95.4087
0
LINE
8
BLACK
6
CONTINUOUS
10
83.185
20
-95.4087
11
83.185
21
-109.379
0
LINE
8
BLACK
6
CONTINUOUS
10
83.185
20
-109.379
11
69.215
21
-109.379
0
LINE
8
BLACK
6
CONTINUOUS
10
69.215
20
-109.379
11
69.215
21
-95.4087
0
LINE
8
BLACK
6
CONTINUOUS
10
69.215
20
-128.429
11
69.215
21
-114.459
0
LINE
8
BLACK
6
CONTINUOUS
10
83.185
20
-128.429
11
69.215
21
-128.429
0
LINE
8
BLACK
6
CONTINUOUS
10
83.185
20
-114.459
11
83.185
21
-128.429
0
LINE
8
BLACK
6
CONTINUOUS
10
69.215
20
-114.459
11
83.185
21
-114.459
0
LINE
8
BLACK
6
CONTINUOUS
10
69.215
20
-147.479
11
69.215
21
-133.509
0
LINE
8
BLACK
6
CONTINUOUS
10
83.185
20
-147.479
11
69.215
21
-147.479
0
LINE
8
BLACK
6
CONTINUOUS
10
83.185
20
-133.509
11
83.185
21
-147.479
0
LINE
8
BLACK
6
CONTINUOUS
10
69.215
20
-133.509
11
83.185
21
-133.509
0
LINE
8
BLACK
6
CONTINUOUS
10
107.315
20
-109.379
11
107.315
21
-95.4087
0
LINE
8
BLACK
6
CONTINUOUS
10
121.285
20
-109.379
11
107.315
21
-109.379
0
LINE
8
BLACK
6
CONTINUOUS
10
121.285
20
-95.4087
11
121.285
21
-109.379
0
LINE
8
BLACK
6
CONTINUOUS
10
107.315
20
-95.4087
11
121.285
21
-95.4087
0
LINE
8
BLACK
6
CONTINUOUS
10
107.315
20
-128.429
11
107.315
21
-114.459
0
LINE
8
BLACK
6
CONTINUOUS
10
121.285
20
-128.429
11
107.315
21
-128.429
0
LINE
8
BLACK
6
CONTINUOUS
10
121.285
20
-114.459
11
121.285
21
-128.429
0
LINE
8
BLACK
6
CONTINUOUS
10
107.315
20
-114.459
11
121.285
21
-114.459
0
LINE
8
BLACK
6
CONTINUOUS
10
107.315
20
-133.509
11
121.285
21
-133.509
0
LINE
8
BLACK
6
CONTINUOUS
10
121.285
20
-133.509
11
121.285
21
-147.479
0
LINE
8
BLACK
6
CONTINUOUS
10
121.285
20
-147.479
11
107.315
21
-147.479
0
LINE
8
BLACK
6
CONTINUOUS
10
107.315
20
-147.479
11
107.315
21
-133.509
0
LINE
8
BLACK
6
CONTINUOUS
10
145.415
20
-114.459
11
159.385
21
-114.459
0
LINE
8
BLACK
6
CONTINUOUS
10
159.385
20
-114.459
11
159.385
21
-128.429
0
LINE
8
BLACK
6
CONTINUOUS
10
159.385
20
-128.429
11
145.415
21
-128.429
0
LINE
8
BLACK
6
CONTINUOUS
10
145.415
20
-128.429
11
145.415
21
-114.459
0
LINE
8
BLACK
6
CONTINUOUS
10
145.415
20
-147.479
11
145.415
21
-133.509
0
LINE
8
BLACK
6
CONTINUOUS
10
159.385
20
-147.479
11
145.415
21
-147.479
0
LINE
8
BLACK
6
CONTINUOUS
10
159.385
20
-133.509
11
159.385
21
-147.479
0
LINE
8
BLACK
6
CONTINUOUS
10
145.415
20
-133.509
11
159.385
21
-133.509
0
LINE
8
BLACK
6
CONTINUOUS
10
183.515
20
-109.379
11
183.515
21
-95.4087
0
LINE
8
BLACK
6
CONTINUOUS
10
197.485
20
-109.379
11
183.515
21
-109.379
0
LINE
8
BLACK
6
CONTINUOUS
10
197.485
20
-95.4087
11
197.485
21
-109.379
0
LINE
8
BLACK
6
CONTINUOUS
10
183.515
20
-95.4087
11
197.485
21
-95.4087
0
LINE
8
BLACK
6
CONTINUOUS
10
183.515
20
-128.429
11
183.515
21
-114.459
0
LINE
8
BLACK
6
CONTINUOUS
10
197.485
20
-128.429
11
183.515
21
-128.429
0
LINE
8
BLACK
6
CONTINUOUS
10
197.485
20
-114.459
11
197.485
21
-128.429
0
LINE
8
BLACK
6
CONTINUOUS
10
183.515
20
-114.459
11
197.485
21
-114.459
0
LINE
8
BLACK
6
CONTINUOUS
10
183.515
20
-133.509
11
197.485
21
-133.509
0
LINE
8
BLACK
6
CONTINUOUS
10
197.485
20
-133.509
11
197.485
21
-147.479
0
LINE
8
BLACK
6
CONTINUOUS
10
197.485
20
-147.479
11
183.515
21
-147.479
0
LINE
8
BLACK
6
CONTINUOUS
10
183.515
20
-147.479
11
183.515
21
-133.509
0
LINE
8
BLACK
6
CONTINUOUS
10
221.615
20
-147.479
11
221.615
21
-133.509
0
LINE
8
BLACK
6
CONTINUOUS
10
235.585
20
-147.479
11
221.615
21
-147.479
0
LINE
8
BLACK
6
CONTINUOUS
10
235.585
20
-133.509
11
235.585
21
-147.479
0
LINE
8
BLACK
6
CONTINUOUS
10
221.615
20
-133.509
11
235.585
21
-133.509
0
LINE
8
BLACK
6
CONTINUOUS
10
259.715
20
-133.509
11
273.685
21
-133.509
0
LINE
8
BLACK
6
CONTINUOUS
10
273.685
20
-133.509
11
273.685
21
-147.479
0
LINE
8
BLACK
6
CONTINUOUS
10
273.685
20
-147.479
11
259.715
21
-147.479
0
LINE
8
BLACK
6
CONTINUOUS
10
259.715
20
-147.479
11
259.715
21
-133.509
0
LINE
8
BLACK
6
CONTINUOUS
10
278.765
20
-95.4087
11
292.735
21
-95.4087
0
LINE
8
BLACK
6
CONTINUOUS
10
292.735
20
-95.4087
11
292.735
21
-109.379
0
LINE
8
BLACK
6
CONTINUOUS
10
292.735
20
-109.379
11
278.765
21
-109.379
0
LINE
8
BLACK
6
CONTINUOUS
10
278.765
20
-109.379
11
278.765
21
-95.4087
0
LINE
8
BLACK
6
CONTINUOUS
10
278.765
20
-128.429
11
278.765
21
-114.459
0
LINE
8
BLACK
6
CONTINUOUS
10
292.735
20
-128.429
11
278.765
21
-128.429
0
LINE
8
BLACK
6
CONTINUOUS
10
292.735
20
-114.459
11
292.735
21
-128.429
0
LINE
8
BLACK
6
CONTINUOUS
10
278.765
20
-114.459
11
292.735
21
-114.459
0
LINE
8
BLACK
6
CONTINUOUS
10
278.765
20
-133.509
11
292.735
21
-133.509
0
LINE
8
BLACK
6
CONTINUOUS
10
292.735
20
-133.509
11
292.735
21
-147.479
0
LINE
8
BLACK
6
CONTINUOUS
10
292.735
20
-147.479
11
278.765
21
-147.479
0
LINE
8
BLACK
6
CONTINUOUS
10
278.765
20
-147.479
11
278.765
21
-133.509
  0
ENDSEC
  0
EOF
