M48
; DRILL file {KiCad (5.1.10-1-10_14)} date Wednesday, August 11, 2021 at 10:09:26 PM
; FORMAT={-:-/ absolute / metric / decimal}
; #@! TF.CreationDate,2021-08-11T22:09:26+02:00
; #@! TF.GenerationSoftware,Kicad,Pcbnew,(5.1.10-1-10_14)
; #@! TF.FileFunction,NonPlated,1,2,NPTH
FMAT,2
METRIC
T1C1.702
T2C1.800
T3C2.200
T4C3.048
T5C3.988
%
G90
G05
T1
X13.97Y-83.344
X13.97Y-102.394
X13.97Y-121.444
X13.97Y-140.494
X24.13Y-83.344
X24.13Y-102.394
X24.13Y-121.444
X24.13Y-140.494
X33.02Y-83.344
X33.02Y-102.394
X33.02Y-121.444
X33.02Y-140.494
X43.18Y-83.344
X43.18Y-102.394
X43.18Y-121.444
X43.18Y-140.494
X52.07Y-83.344
X52.07Y-102.394
X52.07Y-121.444
X52.07Y-140.494
X62.23Y-83.344
X62.23Y-102.394
X62.23Y-121.444
X62.23Y-140.494
X71.12Y-83.344
X71.12Y-102.394
X71.12Y-121.444
X71.12Y-140.494
X81.28Y-83.344
X81.28Y-102.394
X81.28Y-121.444
X81.28Y-140.494
X90.17Y-83.344
X90.17Y-102.394
X90.17Y-121.444
X90.17Y-140.494
X99.695Y-140.494
X100.33Y-83.344
X100.33Y-102.394
X100.33Y-121.444
X100.33Y-140.494
X109.22Y-83.344
X109.22Y-102.394
X109.22Y-121.444
X109.22Y-140.494
X109.855Y-140.494
X119.38Y-83.344
X119.38Y-102.394
X119.38Y-121.444
X119.38Y-140.494
X128.27Y-83.344
X128.27Y-102.394
X128.27Y-121.444
X128.27Y-140.494
X138.43Y-83.344
X138.43Y-102.394
X138.43Y-121.444
X138.43Y-140.494
X147.32Y-83.344
X147.32Y-102.394
X147.32Y-121.444
X147.32Y-140.494
X157.48Y-83.344
X157.48Y-102.394
X157.48Y-121.444
X157.48Y-140.494
X166.37Y-83.344
X166.37Y-102.394
X166.37Y-121.444
X166.37Y-140.494
X176.53Y-83.344
X176.53Y-102.394
X176.53Y-121.444
X176.53Y-140.494
X185.42Y-83.344
X185.42Y-102.394
X185.42Y-121.444
X185.42Y-140.494
X194.945Y-140.494
X195.58Y-83.344
X195.58Y-102.394
X195.58Y-121.444
X195.58Y-140.494
X204.47Y-83.344
X204.47Y-102.394
X204.47Y-121.444
X204.47Y-140.494
X205.105Y-140.494
X214.63Y-83.344
X214.63Y-102.394
X214.63Y-121.444
X214.63Y-140.494
X223.52Y-83.344
X223.52Y-102.394
X223.52Y-121.444
X223.52Y-140.494
X233.68Y-83.344
X233.68Y-102.394
X233.68Y-121.444
X233.68Y-140.494
X242.57Y-83.344
X242.57Y-102.394
X242.57Y-121.444
X242.57Y-140.494
X252.73Y-83.344
X252.73Y-102.394
X252.73Y-121.444
X252.73Y-140.494
X261.62Y-83.344
X261.62Y-102.394
X261.62Y-121.444
X261.62Y-140.494
X271.78Y-83.344
X271.78Y-102.394
X271.78Y-121.444
X271.78Y-140.494
X280.67Y-83.344
X280.67Y-102.394
X280.67Y-121.444
X280.67Y-140.494
X290.83Y-83.344
X290.83Y-102.394
X290.83Y-121.444
X290.83Y-140.494
T2
X147.32Y-140.494
X157.48Y-140.494
T3
X14.526Y-59.531
X152.4Y-69.056
X290.274Y-59.531
T4
X92.837Y-133.509
X95.25Y-147.479
X116.713Y-133.509
X188.087Y-133.509
X209.55Y-147.479
X211.963Y-133.509
T5
X19.05Y-83.344
X19.05Y-102.394
X19.05Y-121.444
X19.05Y-140.494
X38.1Y-83.344
X38.1Y-102.394
X38.1Y-121.444
X38.1Y-140.494
X57.15Y-83.344
X57.15Y-102.394
X57.15Y-121.444
X57.15Y-140.494
X76.2Y-83.344
X76.2Y-102.394
X76.2Y-121.444
X76.2Y-140.494
X92.837Y-148.749
X95.25Y-83.344
X95.25Y-102.394
X95.25Y-121.444
X95.25Y-132.239
X95.25Y-140.494
X104.775Y-140.494
X114.3Y-83.344
X114.3Y-102.394
X114.3Y-121.444
X114.3Y-140.494
X116.713Y-148.749
X133.35Y-83.344
X133.35Y-102.394
X133.35Y-121.444
X133.35Y-140.494
X152.4Y-83.344
X152.4Y-102.394
X152.4Y-121.444
X152.4Y-140.494
X152.4Y-140.494
X171.45Y-83.344
X171.45Y-102.394
X171.45Y-121.444
X171.45Y-140.494
X188.087Y-148.749
X190.5Y-83.344
X190.5Y-102.394
X190.5Y-121.444
X190.5Y-140.494
X200.025Y-140.494
X209.55Y-83.344
X209.55Y-102.394
X209.55Y-121.444
X209.55Y-132.239
X209.55Y-140.494
X211.963Y-148.749
X228.6Y-83.344
X228.6Y-102.394
X228.6Y-121.444
X228.6Y-140.494
X247.65Y-83.344
X247.65Y-102.394
X247.65Y-121.444
X247.65Y-140.494
X266.7Y-83.344
X266.7Y-102.394
X266.7Y-121.444
X266.7Y-140.494
X285.75Y-83.344
X285.75Y-102.394
X285.75Y-121.444
X285.75Y-140.494
T3
G00X7.892Y-111.442
M15
G01X14.492Y-111.442
M16
G05
G00X290.546Y-111.442
M15
G01X297.146Y-111.442
M16
G05
T0
M30
