M48
; DRILL file {KiCad (5.1.10-1-10_14)} date Friday, August 20, 2021 at 06:03:13 PM
; FORMAT={-:-/ absolute / metric / decimal}
; #@! TF.CreationDate,2021-08-20T18:03:13+02:00
; #@! TF.GenerationSoftware,Kicad,Pcbnew,(5.1.10-1-10_14)
; #@! TF.FileFunction,NonPlated,1,2,NPTH
FMAT,2
METRIC
T1C1.702
T2C1.800
T3C2.200
T4C3.048
T5C3.988
%
G90
G05
T1
X21.114Y-102.394
X25.876Y-121.444
X31.274Y-102.394
X36.036Y-121.444
X42.545Y-83.344
X42.545Y-140.494
X47.307Y-102.394
X52.705Y-83.344
X52.705Y-140.494
X56.832Y-121.444
X57.467Y-102.394
X61.595Y-83.344
X66.358Y-102.394
X66.992Y-121.444
X71.755Y-83.344
X75.882Y-121.444
X76.517Y-102.394
X80.645Y-83.344
X85.407Y-102.394
X86.042Y-121.444
X90.805Y-83.344
X94.932Y-121.444
X95.567Y-102.394
X99.695Y-83.344
X104.457Y-102.394
X105.093Y-121.444
X106.839Y-140.494
X109.855Y-83.344
X113.983Y-121.444
X114.617Y-102.394
X116.999Y-140.494
X118.745Y-83.344
X123.507Y-102.394
X124.142Y-121.444
X128.905Y-83.344
X133.032Y-121.444
X133.667Y-102.394
X137.795Y-83.344
X142.558Y-102.394
X142.558Y-140.494
X143.192Y-121.444
X147.955Y-83.344
X152.082Y-121.444
X152.718Y-102.394
X152.718Y-140.494
X154.464Y-140.494
X156.845Y-83.344
X161.607Y-102.394
X162.243Y-121.444
X164.624Y-140.494
X167.005Y-83.344
X171.132Y-121.444
X171.767Y-102.394
X173.514Y-140.494
X175.895Y-83.344
X180.657Y-102.394
X181.292Y-121.444
X183.674Y-140.494
X185.42Y-140.494
X186.055Y-83.344
X190.183Y-121.444
X190.817Y-102.394
X194.945Y-83.344
X195.58Y-140.494
X199.707Y-102.394
X200.343Y-121.444
X204.47Y-140.494
X205.105Y-83.344
X209.232Y-121.444
X209.867Y-102.394
X213.995Y-83.344
X214.63Y-140.494
X218.757Y-102.394
X219.392Y-121.444
X223.52Y-140.494
X224.155Y-83.344
X228.282Y-121.444
X228.917Y-102.394
X233.045Y-83.344
X233.68Y-140.494
X235.426Y-121.444
X237.807Y-102.394
X238.442Y-121.444
X242.57Y-140.494
X243.205Y-83.344
X245.586Y-121.444
X247.332Y-121.444
X247.968Y-102.394
X252.095Y-83.344
X252.095Y-140.494
X252.73Y-140.494
X254.476Y-121.444
X257.493Y-121.444
X261.62Y-140.494
X262.255Y-83.344
X262.255Y-140.494
X264.001Y-121.444
X264.636Y-121.444
X268.764Y-102.394
X271.78Y-140.494
X274.161Y-121.444
X278.924Y-102.394
X280.67Y-121.444
X280.67Y-140.494
X290.83Y-121.444
X290.83Y-140.494
T2
X18.732Y-83.344
X18.732Y-140.494
X28.892Y-83.344
X28.892Y-140.494
X66.358Y-140.494
X76.517Y-140.494
X147.32Y-140.494
X157.48Y-140.494
X228.282Y-140.494
X238.442Y-140.494
X275.907Y-83.344
X275.907Y-140.494
X286.067Y-83.344
X286.067Y-140.494
T3
X14.526Y-59.531
X152.4Y-69.056
X290.274Y-59.531
T4
X19.018Y-114.459
X42.894Y-114.459
X95.25Y-147.479
X99.981Y-147.479
X123.857Y-147.479
X147.606Y-147.479
X166.656Y-147.479
X171.482Y-147.479
X190.532Y-147.479
X209.55Y-147.479
X257.143Y-114.459
X261.906Y-95.409
X281.019Y-114.459
X285.782Y-95.409
T5
X19.018Y-129.699
X23.812Y-83.344
X23.812Y-140.494
X26.194Y-102.394
X30.956Y-121.444
X42.894Y-129.699
X47.625Y-83.344
X47.625Y-140.494
X52.387Y-102.394
X61.912Y-121.444
X66.675Y-83.344
X71.438Y-102.394
X71.438Y-140.494
X80.962Y-121.444
X85.725Y-83.344
X90.487Y-102.394
X95.25Y-132.239
X99.981Y-132.239
X100.012Y-121.444
X104.775Y-83.344
X109.537Y-102.394
X111.919Y-140.494
X119.062Y-121.444
X123.825Y-83.344
X123.857Y-132.239
X128.588Y-102.394
X138.112Y-121.444
X142.875Y-83.344
X147.606Y-132.239
X147.637Y-102.394
X147.637Y-140.494
X152.4Y-140.494
X157.162Y-121.444
X159.544Y-140.494
X161.925Y-83.344
X166.656Y-132.239
X166.688Y-102.394
X171.482Y-132.239
X176.213Y-121.444
X178.594Y-140.494
X180.975Y-83.344
X185.737Y-102.394
X190.5Y-140.494
X190.532Y-132.239
X195.262Y-121.444
X200.025Y-83.344
X204.787Y-102.394
X209.55Y-132.239
X209.55Y-140.494
X214.312Y-121.444
X219.075Y-83.344
X223.837Y-102.394
X228.6Y-140.494
X233.362Y-121.444
X233.362Y-140.494
X238.125Y-83.344
X240.506Y-121.444
X242.887Y-102.394
X247.65Y-140.494
X252.412Y-121.444
X257.143Y-129.699
X257.175Y-83.344
X257.175Y-140.494
X259.556Y-121.444
X261.906Y-110.649
X266.7Y-140.494
X269.081Y-121.444
X273.844Y-102.394
X280.988Y-83.344
X280.988Y-140.494
X281.019Y-129.699
X285.75Y-121.444
X285.75Y-140.494
X285.782Y-110.649
T3
G00X7.892Y-111.442
M15
G01X14.492Y-111.442
M16
G05
G00X33.904Y-83.106
M15
G01X36.104Y-83.106
M16
G05
G00X138.113Y-103.494
M15
G01X138.113Y-101.294
M16
G05
G00X199.28Y-140.31
M15
G01X201.48Y-140.31
M16
G05
G00X268.86Y-82.97
M15
G01X271.06Y-82.97
M16
G05
G00X290.546Y-111.442
M15
G01X297.146Y-111.442
M16
G05
T0
M30
