G04 #@! TF.GenerationSoftware,KiCad,Pcbnew,(5.1.10-1-10_14)*
G04 #@! TF.CreationDate,2021-08-31T22:09:07+02:00*
G04 #@! TF.ProjectId,rosaline-ortho,726f7361-6c69-46e6-952d-6f7274686f2e,1*
G04 #@! TF.SameCoordinates,Original*
G04 #@! TF.FileFunction,Legend,Bot*
G04 #@! TF.FilePolarity,Positive*
%FSLAX46Y46*%
G04 Gerber Fmt 4.6, Leading zero omitted, Abs format (unit mm)*
G04 Created by KiCad (PCBNEW (5.1.10-1-10_14)) date 2021-08-31 22:09:07*
%MOMM*%
%LPD*%
G01*
G04 APERTURE LIST*
%ADD10C,0.120000*%
%ADD11C,0.100000*%
%ADD12C,0.150000*%
G04 APERTURE END LIST*
D10*
G36*
X234143750Y-146585000D02*
G01*
X237143750Y-146585000D01*
X237143750Y-145985000D01*
X234143750Y-145985000D01*
X234143750Y-146585000D01*
G37*
X234143750Y-146585000D02*
X237143750Y-146585000D01*
X237143750Y-145985000D01*
X234143750Y-145985000D01*
X234143750Y-146585000D01*
D11*
G36*
X242243750Y-146585000D02*
G01*
X242843750Y-145985000D01*
X242543750Y-145985000D01*
X242243750Y-146585000D01*
G37*
X242243750Y-146585000D02*
X242843750Y-145985000D01*
X242543750Y-145985000D01*
X242243750Y-146585000D01*
G36*
X242243750Y-146585000D02*
G01*
X242843750Y-147185000D01*
X242843750Y-146885000D01*
X242243750Y-146585000D01*
G37*
X242243750Y-146585000D02*
X242843750Y-147185000D01*
X242843750Y-146885000D01*
X242243750Y-146585000D01*
G36*
X242243750Y-146585000D02*
G01*
X241643750Y-147185000D01*
X241943750Y-147185000D01*
X242243750Y-146585000D01*
G37*
X242243750Y-146585000D02*
X241643750Y-147185000D01*
X241943750Y-147185000D01*
X242243750Y-146585000D01*
G36*
X242243750Y-146585000D02*
G01*
X241643750Y-145985000D01*
X241643750Y-146285000D01*
X242243750Y-146585000D01*
G37*
X242243750Y-146585000D02*
X241643750Y-145985000D01*
X241643750Y-146285000D01*
X242243750Y-146585000D01*
D12*
X32008968Y-54889127D02*
X24208968Y-54889127D01*
X32008968Y-54889127D02*
X32008968Y-64289127D01*
X32008968Y-64289127D02*
X24208968Y-64289127D01*
X24208968Y-64289127D02*
X24208968Y-54889127D01*
D10*
X23516968Y-51565127D02*
X32706968Y-51565127D01*
X23636968Y-60975127D02*
X32586968Y-60975127D01*
X32706968Y-54295127D02*
X32706968Y-51565127D01*
X23516968Y-54295127D02*
X23516968Y-51565127D01*
X32706968Y-57895127D02*
X32706968Y-56995127D01*
X23516968Y-57895127D02*
X23516968Y-56995127D01*
X104299375Y-60707500D02*
X101799375Y-60707500D01*
X101799375Y-60707500D02*
X101799375Y-61757500D01*
X101799375Y-61757500D02*
X100809375Y-61757500D01*
X104299375Y-66927500D02*
X101799375Y-66927500D01*
X101799375Y-66927500D02*
X101799375Y-65877500D01*
X106269375Y-61877500D02*
X106269375Y-65757500D01*
D12*
X28445301Y-65081507D02*
X28445301Y-65795793D01*
X28492920Y-65938650D01*
X28588158Y-66033888D01*
X28731015Y-66081507D01*
X28826253Y-66081507D01*
X27445301Y-66081507D02*
X28016729Y-66081507D01*
X27731015Y-66081507D02*
X27731015Y-65081507D01*
X27826253Y-65224365D01*
X27921491Y-65319603D01*
X28016729Y-65367222D01*
X99056755Y-63484166D02*
X99771041Y-63484166D01*
X99913898Y-63436547D01*
X100009136Y-63341309D01*
X100056755Y-63198452D01*
X100056755Y-63103214D01*
X99056755Y-63865119D02*
X99056755Y-64484166D01*
X99437708Y-64150833D01*
X99437708Y-64293690D01*
X99485327Y-64388928D01*
X99532946Y-64436547D01*
X99628184Y-64484166D01*
X99866279Y-64484166D01*
X99961517Y-64436547D01*
X100009136Y-64388928D01*
X100056755Y-64293690D01*
X100056755Y-64007976D01*
X100009136Y-63912738D01*
X99961517Y-63865119D01*
X107016755Y-63103214D02*
X107731041Y-63103214D01*
X107873898Y-63055595D01*
X107969136Y-62960357D01*
X108016755Y-62817500D01*
X108016755Y-62722261D01*
X107969136Y-63531785D02*
X108016755Y-63674642D01*
X108016755Y-63912738D01*
X107969136Y-64007976D01*
X107921517Y-64055595D01*
X107826279Y-64103214D01*
X107731041Y-64103214D01*
X107635803Y-64055595D01*
X107588184Y-64007976D01*
X107540565Y-63912738D01*
X107492946Y-63722261D01*
X107445327Y-63627023D01*
X107397708Y-63579404D01*
X107302470Y-63531785D01*
X107207232Y-63531785D01*
X107111994Y-63579404D01*
X107064375Y-63627023D01*
X107016755Y-63722261D01*
X107016755Y-63960357D01*
X107064375Y-64103214D01*
X107016755Y-64388928D02*
X107016755Y-64960357D01*
X108016755Y-64674642D02*
X107016755Y-64674642D01*
M02*
