G04 #@! TF.GenerationSoftware,KiCad,Pcbnew,(5.1.10-1-10_14)*
G04 #@! TF.CreationDate,2021-08-31T22:08:52+02:00*
G04 #@! TF.ProjectId,rosaline,726f7361-6c69-46e6-952e-6b696361645f,1*
G04 #@! TF.SameCoordinates,Original*
G04 #@! TF.FileFunction,Paste,Bot*
G04 #@! TF.FilePolarity,Positive*
%FSLAX46Y46*%
G04 Gerber Fmt 4.6, Leading zero omitted, Abs format (unit mm)*
G04 Created by KiCad (PCBNEW (5.1.10-1-10_14)) date 2021-08-31 22:08:52*
%MOMM*%
%LPD*%
G01*
G04 APERTURE LIST*
G04 APERTURE END LIST*
G36*
G01*
X100959375Y-62017500D02*
X102209375Y-62017500D01*
G75*
G02*
X102359375Y-62167500I0J-150000D01*
G01*
X102359375Y-62467500D01*
G75*
G02*
X102209375Y-62617500I-150000J0D01*
G01*
X100959375Y-62617500D01*
G75*
G02*
X100809375Y-62467500I0J150000D01*
G01*
X100809375Y-62167500D01*
G75*
G02*
X100959375Y-62017500I150000J0D01*
G01*
G37*
G36*
G01*
X100959375Y-63017500D02*
X102209375Y-63017500D01*
G75*
G02*
X102359375Y-63167500I0J-150000D01*
G01*
X102359375Y-63467500D01*
G75*
G02*
X102209375Y-63617500I-150000J0D01*
G01*
X100959375Y-63617500D01*
G75*
G02*
X100809375Y-63467500I0J150000D01*
G01*
X100809375Y-63167500D01*
G75*
G02*
X100959375Y-63017500I150000J0D01*
G01*
G37*
G36*
G01*
X100959375Y-64017500D02*
X102209375Y-64017500D01*
G75*
G02*
X102359375Y-64167500I0J-150000D01*
G01*
X102359375Y-64467500D01*
G75*
G02*
X102209375Y-64617500I-150000J0D01*
G01*
X100959375Y-64617500D01*
G75*
G02*
X100809375Y-64467500I0J150000D01*
G01*
X100809375Y-64167500D01*
G75*
G02*
X100959375Y-64017500I150000J0D01*
G01*
G37*
G36*
G01*
X100959375Y-65017500D02*
X102209375Y-65017500D01*
G75*
G02*
X102359375Y-65167500I0J-150000D01*
G01*
X102359375Y-65467500D01*
G75*
G02*
X102209375Y-65617500I-150000J0D01*
G01*
X100959375Y-65617500D01*
G75*
G02*
X100809375Y-65467500I0J150000D01*
G01*
X100809375Y-65167500D01*
G75*
G02*
X100959375Y-65017500I150000J0D01*
G01*
G37*
G36*
G01*
X104809374Y-60417500D02*
X106109376Y-60417500D01*
G75*
G02*
X106359375Y-60667499I0J-249999D01*
G01*
X106359375Y-61367501D01*
G75*
G02*
X106109376Y-61617500I-249999J0D01*
G01*
X104809374Y-61617500D01*
G75*
G02*
X104559375Y-61367501I0J249999D01*
G01*
X104559375Y-60667499D01*
G75*
G02*
X104809374Y-60417500I249999J0D01*
G01*
G37*
G36*
G01*
X104809374Y-66017500D02*
X106109376Y-66017500D01*
G75*
G02*
X106359375Y-66267499I0J-249999D01*
G01*
X106359375Y-66967501D01*
G75*
G02*
X106109376Y-67217500I-249999J0D01*
G01*
X104809374Y-67217500D01*
G75*
G02*
X104559375Y-66967501I0J249999D01*
G01*
X104559375Y-66267499D01*
G75*
G02*
X104809374Y-66017500I249999J0D01*
G01*
G37*
M02*
