  0
SECTION
  2
HEADER
  9
$ANGBASE
  50
0.0
  9
$ANGDIR
  70
1
  9
$MEASUREMENT
  70
0
  0
ENDSEC
  0
SECTION
  2
TABLES
  0
TABLE
  2
LTYPE
  70
4
  0
LTYPE
  5
40F
  2
CONTINUOUS
  70
0
  3
Solid line
  72
65
  73
0
  40
0.0
  0
LTYPE
  5
410
  2
DASHDOT
 70
0
  3
Dash Dot ____ _ ____ _
 72
65
 73
4
 40
2.0
 49
1.25
 49
-0.25
 49
0.25
 49
-0.25
  0
LTYPE
  5
411
  2
DASHED
 70
0
  3
Dashed __ __ __ __ __
 72
65
 73
2
 40
0.75
 49
0.5
 49
-0.25
  0
LTYPE
  5
43B
  2
DOTTED
 70
0
  3
Dotted .  .  .  .
 72
65
 73
2
 40
0.2
 49
0.0
 49
-0.2
  0
ENDTAB
  0
TABLE
  2
STYLE
  70
4
  0
STYLE
  2
KICAD
  70
0
  40
0
  41
1
  42
1
  50
0
  71
0
  3
isocp.shx
  0
STYLE
  2
KICADB
  70
0
  40
0
  41
1
  42
1
  50
0
  71
0
  3
isocp.shx
  0
STYLE
  2
KICADI
  70
0
  40
0
  41
1
  42
1
  50
15
  71
0
  3
isocp.shx
  0
STYLE
  2
KICADBI
  70
0
  40
0
  41
1
  42
1
  50
15
  71
0
  3
isocp.shx
  0
ENDTAB
  0
TABLE
  2
LAYER
  70
1
  0
LAYER
  2
BLACK
  70
0
  62
7
  6
CONTINUOUS
  0
ENDTAB
  0
ENDSEC
  0
SECTION
  2
ENTITIES
0
LINE
8
BLACK
6
CONTINUOUS
10
11.3909
20
-3.20331
11
11.3909
21
-3.20331
0
LINE
8
BLACK
6
CONTINUOUS
10
11.3909
20
-3.20331
11
11.4091
21
-3.2051
0
LINE
8
BLACK
6
CONTINUOUS
10
11.4091
20
-3.2051
11
11.4091
21
-3.2051
0
LINE
8
BLACK
6
CONTINUOUS
10
11.4091
20
-3.2051
11
11.4091
21
-3.2051
0
LINE
8
BLACK
6
CONTINUOUS
10
11.4091
20
-3.2051
11
11.4092
21
-3.2051
0
LINE
8
BLACK
6
CONTINUOUS
10
11.4092
20
-3.2051
11
11.4094
21
-3.20516
0
LINE
8
BLACK
6
CONTINUOUS
10
11.4094
20
-3.20516
11
11.4097
21
-3.20521
0
LINE
8
BLACK
6
CONTINUOUS
10
11.4097
20
-3.20521
11
11.4272
21
-3.2105
0
LINE
8
BLACK
6
CONTINUOUS
10
11.4272
20
-3.2105
11
11.4272
21
-3.2105
0
LINE
8
BLACK
6
CONTINUOUS
10
11.4272
20
-3.2105
11
11.4272
21
-3.2105
0
LINE
8
BLACK
6
CONTINUOUS
10
11.4272
20
-3.2105
11
11.4272
21
-3.21051
0
LINE
8
BLACK
6
CONTINUOUS
10
11.4272
20
-3.21051
11
11.4275
21
-3.21061
0
LINE
8
BLACK
6
CONTINUOUS
10
11.4275
20
-3.21061
11
11.4277
21
-3.21072
0
LINE
8
BLACK
6
CONTINUOUS
10
11.4277
20
-3.21072
11
11.4439
21
-3.21931
0
LINE
8
BLACK
6
CONTINUOUS
10
11.4439
20
-3.21931
11
11.4439
21
-3.21931
0
LINE
8
BLACK
6
CONTINUOUS
10
11.4439
20
-3.21931
11
11.4439
21
-3.21931
0
LINE
8
BLACK
6
CONTINUOUS
10
11.4439
20
-3.21931
11
11.4439
21
-3.21933
0
LINE
8
BLACK
6
CONTINUOUS
10
11.4439
20
-3.21933
11
11.4441
21
-3.21948
0
LINE
8
BLACK
6
CONTINUOUS
10
11.4441
20
-3.21948
11
11.4444
21
-3.21963
0
LINE
8
BLACK
6
CONTINUOUS
10
11.4444
20
-3.21963
11
11.4586
21
-3.23119
0
LINE
8
BLACK
6
CONTINUOUS
10
11.4586
20
-3.23119
11
11.4586
21
-3.23122
0
LINE
8
BLACK
6
CONTINUOUS
10
11.4586
20
-3.23122
11
11.4588
21
-3.23141
0
LINE
8
BLACK
6
CONTINUOUS
10
11.4588
20
-3.23141
11
11.459
21
-3.2316
0
LINE
8
BLACK
6
CONTINUOUS
10
11.459
20
-3.2316
11
11.4706
21
-3.24569
0
LINE
8
BLACK
6
CONTINUOUS
10
11.4706
20
-3.24569
11
11.4706
21
-3.24573
0
LINE
8
BLACK
6
CONTINUOUS
10
11.4706
20
-3.24573
11
11.4708
21
-3.24595
0
LINE
8
BLACK
6
CONTINUOUS
10
11.4708
20
-3.24595
11
11.4709
21
-3.24617
0
LINE
8
BLACK
6
CONTINUOUS
10
11.4709
20
-3.24617
11
11.4796
21
-3.26227
0
LINE
8
BLACK
6
CONTINUOUS
10
11.4796
20
-3.26227
11
11.4797
21
-3.2623
0
LINE
8
BLACK
6
CONTINUOUS
10
11.4797
20
-3.2623
11
11.4798
21
-3.26255
0
LINE
8
BLACK
6
CONTINUOUS
10
11.4798
20
-3.26255
11
11.4799
21
-3.2628
0
LINE
8
BLACK
6
CONTINUOUS
10
11.4799
20
-3.2628
11
11.4853
21
-3.28028
0
LINE
8
BLACK
6
CONTINUOUS
10
11.4853
20
-3.28028
11
11.4853
21
-3.28032
0
LINE
8
BLACK
6
CONTINUOUS
10
11.4853
20
-3.28032
11
11.4853
21
-3.28058
0
LINE
8
BLACK
6
CONTINUOUS
10
11.4853
20
-3.28058
11
11.4854
21
-3.28084
0
LINE
8
BLACK
6
CONTINUOUS
10
11.4854
20
-3.28084
11
11.4873
21
-3.29904
0
LINE
8
BLACK
6
CONTINUOUS
10
11.4873
20
-3.29904
11
11.4873
21
-3.29908
0
LINE
8
BLACK
6
CONTINUOUS
10
11.4873
20
-3.29908
11
11.4873
21
-3.29921
0
LINE
8
BLACK
6
CONTINUOUS
10
11.4873
20
-3.29921
11
11.4873
21
-3.29934
0
LINE
8
BLACK
6
CONTINUOUS
10
11.4873
20
-3.29934
11
11.4873
21
-3.29985
0
LINE
8
BLACK
6
CONTINUOUS
10
11.4873
20
-3.29985
11
11.4873
21
-3.29986
0
LINE
8
BLACK
6
CONTINUOUS
10
11.4873
20
-3.29986
11
11.4873
21
-3.95611
0
LINE
8
BLACK
6
CONTINUOUS
10
11.4873
20
-3.95611
11
11.4873
21
-3.95625
0
LINE
8
BLACK
6
CONTINUOUS
10
11.4873
20
-3.95625
11
11.4873
21
-3.95683
0
LINE
8
BLACK
6
CONTINUOUS
10
11.4873
20
-3.95683
11
11.4871
21
-3.95739
0
LINE
8
BLACK
6
CONTINUOUS
10
11.4871
20
-3.95739
11
11.4868
21
-3.9579
0
LINE
8
BLACK
6
CONTINUOUS
10
11.4868
20
-3.9579
11
11.4865
21
-3.95835
0
LINE
8
BLACK
6
CONTINUOUS
10
11.4865
20
-3.95835
11
11.486
21
-3.95872
0
LINE
8
BLACK
6
CONTINUOUS
10
11.486
20
-3.95872
11
11.4855
21
-3.95899
0
LINE
8
BLACK
6
CONTINUOUS
10
11.4855
20
-3.95899
11
11.485
21
-3.95916
0
LINE
8
BLACK
6
CONTINUOUS
10
11.485
20
-3.95916
11
11.4845
21
-3.9592
0
LINE
8
BLACK
6
CONTINUOUS
10
11.4845
20
-3.9592
11
11.4844
21
-3.95922
0
LINE
8
BLACK
6
CONTINUOUS
10
11.4844
20
-3.95922
11
11.4842
21
-3.9592
0
LINE
8
BLACK
6
CONTINUOUS
10
11.4842
20
-3.9592
11
0.25327
21
-3.9592
0
LINE
8
BLACK
6
CONTINUOUS
10
0.25327
20
-3.9592
11
0.253125
21
-3.95922
0
LINE
8
BLACK
6
CONTINUOUS
10
0.253125
20
-3.95922
11
0.25298
21
-3.9592
0
LINE
8
BLACK
6
CONTINUOUS
10
0.25298
20
-3.9592
11
0.252546
21
-3.95916
0
LINE
8
BLACK
6
CONTINUOUS
10
0.252546
20
-3.95916
11
0.25199
21
-3.95899
0
LINE
8
BLACK
6
CONTINUOUS
10
0.25199
20
-3.95899
11
0.251477
21
-3.95872
0
LINE
8
BLACK
6
CONTINUOUS
10
0.251477
20
-3.95872
11
0.251027
21
-3.95835
0
LINE
8
BLACK
6
CONTINUOUS
10
0.251027
20
-3.95835
11
0.250658
21
-3.9579
0
LINE
8
BLACK
6
CONTINUOUS
10
0.250658
20
-3.9579
11
0.250384
21
-3.95739
0
LINE
8
BLACK
6
CONTINUOUS
10
0.250384
20
-3.95739
11
0.250215
21
-3.95683
0
LINE
8
BLACK
6
CONTINUOUS
10
0.250215
20
-3.95683
11
0.250158
21
-3.95625
0
LINE
8
BLACK
6
CONTINUOUS
10
0.250158
20
-3.95625
11
0.250172
21
-3.9561
0
LINE
8
BLACK
6
CONTINUOUS
10
0.250172
20
-3.9561
11
0.250172
21
-3.29986
0
LINE
8
BLACK
6
CONTINUOUS
10
0.250172
20
-3.29986
11
0.250186
21
-3.29971
0
LINE
8
BLACK
6
CONTINUOUS
10
0.250186
20
-3.29971
11
0.250186
21
-3.29971
0
LINE
8
BLACK
6
CONTINUOUS
10
0.250186
20
-3.29971
11
0.251972
21
-3.2815
0
LINE
8
BLACK
6
CONTINUOUS
10
0.251972
20
-3.2815
11
0.251972
21
-3.2815
0
LINE
8
BLACK
6
CONTINUOUS
10
0.251972
20
-3.2815
11
0.251972
21
-3.2815
0
LINE
8
BLACK
6
CONTINUOUS
10
0.251972
20
-3.2815
11
0.251976
21
-3.28146
0
LINE
8
BLACK
6
CONTINUOUS
10
0.251976
20
-3.28146
11
0.252032
21
-3.2812
0
LINE
8
BLACK
6
CONTINUOUS
10
0.252032
20
-3.2812
11
0.252084
21
-3.28094
0
LINE
8
BLACK
6
CONTINUOUS
10
0.252084
20
-3.28094
11
0.257372
21
-3.26342
0
LINE
8
BLACK
6
CONTINUOUS
10
0.257372
20
-3.26342
11
0.257372
21
-3.26342
0
LINE
8
BLACK
6
CONTINUOUS
10
0.257372
20
-3.26342
11
0.257372
21
-3.26342
0
LINE
8
BLACK
6
CONTINUOUS
10
0.257372
20
-3.26342
11
0.257384
21
-3.26338
0
LINE
8
BLACK
6
CONTINUOUS
10
0.257384
20
-3.26338
11
0.257489
21
-3.26314
0
LINE
8
BLACK
6
CONTINUOUS
10
0.257489
20
-3.26314
11
0.257592
21
-3.26289
0
LINE
8
BLACK
6
CONTINUOUS
10
0.257592
20
-3.26289
11
0.266181
21
-3.24673
0
LINE
8
BLACK
6
CONTINUOUS
10
0.266181
20
-3.24673
11
0.266181
21
-3.24673
0
LINE
8
BLACK
6
CONTINUOUS
10
0.266181
20
-3.24673
11
0.266182
21
-3.24673
0
LINE
8
BLACK
6
CONTINUOUS
10
0.266182
20
-3.24673
11
0.266201
21
-3.2467
0
LINE
8
BLACK
6
CONTINUOUS
10
0.266201
20
-3.2467
11
0.266352
21
-3.24648
0
LINE
8
BLACK
6
CONTINUOUS
10
0.266352
20
-3.24648
11
0.2665
21
-3.24625
0
LINE
8
BLACK
6
CONTINUOUS
10
0.2665
20
-3.24625
11
0.278065
21
-3.23207
0
LINE
8
BLACK
6
CONTINUOUS
10
0.278065
20
-3.23207
11
0.278091
21
-3.23204
0
LINE
8
BLACK
6
CONTINUOUS
10
0.278091
20
-3.23204
11
0.278283
21
-3.23185
0
LINE
8
BLACK
6
CONTINUOUS
10
0.278283
20
-3.23185
11
0.278471
21
-3.23167
0
LINE
8
BLACK
6
CONTINUOUS
10
0.278471
20
-3.23167
11
0.292569
21
-3.22
0
LINE
8
BLACK
6
CONTINUOUS
10
0.292569
20
-3.22
11
0.2926
21
-3.21998
0
LINE
8
BLACK
6
CONTINUOUS
10
0.2926
20
-3.21998
11
0.292823
21
-3.21983
0
LINE
8
BLACK
6
CONTINUOUS
10
0.292823
20
-3.21983
11
0.293046
21
-3.21968
0
LINE
8
BLACK
6
CONTINUOUS
10
0.293046
20
-3.21968
11
0.309141
21
-3.21098
0
LINE
8
BLACK
6
CONTINUOUS
10
0.309141
20
-3.21098
11
0.309177
21
-3.21096
0
LINE
8
BLACK
6
CONTINUOUS
10
0.309177
20
-3.21096
11
0.309424
21
-3.21086
0
LINE
8
BLACK
6
CONTINUOUS
10
0.309424
20
-3.21086
11
0.309672
21
-3.21075
0
LINE
8
BLACK
6
CONTINUOUS
10
0.309672
20
-3.21075
11
0.327151
21
-3.20534
0
LINE
8
BLACK
6
CONTINUOUS
10
0.327151
20
-3.20534
11
0.32719
21
-3.20533
0
LINE
8
BLACK
6
CONTINUOUS
10
0.32719
20
-3.20533
11
0.327454
21
-3.20528
0
LINE
8
BLACK
6
CONTINUOUS
10
0.327454
20
-3.20528
11
0.327715
21
-3.20523
0
LINE
8
BLACK
6
CONTINUOUS
10
0.327715
20
-3.20523
11
0.345912
21
-3.20332
0
LINE
8
BLACK
6
CONTINUOUS
10
0.345912
20
-3.20332
11
0.345953
21
-3.20331
0
LINE
8
BLACK
6
CONTINUOUS
10
0.345953
20
-3.20331
11
0.346082
21
-3.20331
0
LINE
8
BLACK
6
CONTINUOUS
10
0.346082
20
-3.20331
11
0.34621
21
-3.2033
0
LINE
8
BLACK
6
CONTINUOUS
10
0.34621
20
-3.2033
11
0.346725
21
-3.2033
0
LINE
8
BLACK
6
CONTINUOUS
10
0.346725
20
-3.2033
11
0.34673
21
-3.2033
0
LINE
8
BLACK
6
CONTINUOUS
10
0.34673
20
-3.2033
11
11.3908
21
-3.2033
0
LINE
8
BLACK
6
CONTINUOUS
10
11.3908
20
-3.2033
11
11.3909
21
-3.20331
0
LINE
8
BLACK
6
CONTINUOUS
10
0.346885
20
-3.2092
11
0.34638
21
-3.2092
0
LINE
8
BLACK
6
CONTINUOUS
10
0.34638
20
-3.2092
11
0.328621
21
-3.21107
0
LINE
8
BLACK
6
CONTINUOUS
10
0.328621
20
-3.21107
11
0.311695
21
-3.21631
0
LINE
8
BLACK
6
CONTINUOUS
10
0.311695
20
-3.21631
11
0.29611
21
-3.22474
0
LINE
8
BLACK
6
CONTINUOUS
10
0.29611
20
-3.22474
11
0.282458
21
-3.23603
0
LINE
8
BLACK
6
CONTINUOUS
10
0.282458
20
-3.23603
11
0.27126
21
-3.24976
0
LINE
8
BLACK
6
CONTINUOUS
10
0.27126
20
-3.24976
11
0.262942
21
-3.26541
0
LINE
8
BLACK
6
CONTINUOUS
10
0.262942
20
-3.26541
11
0.257821
21
-3.28237
0
LINE
8
BLACK
6
CONTINUOUS
10
0.257821
20
-3.28237
11
0.256078
21
-3.30014
0
LINE
8
BLACK
6
CONTINUOUS
10
0.256078
20
-3.30014
11
0.256078
21
-3.9533
0
LINE
8
BLACK
6
CONTINUOUS
10
0.256078
20
-3.9533
11
11.4814
21
-3.9533
0
LINE
8
BLACK
6
CONTINUOUS
10
11.4814
20
-3.9533
11
11.4814
21
-3.30001
0
LINE
8
BLACK
6
CONTINUOUS
10
11.4814
20
-3.30001
11
11.4814
21
-3.30001
0
LINE
8
BLACK
6
CONTINUOUS
10
11.4814
20
-3.30001
11
11.4814
21
-3.29951
0
LINE
8
BLACK
6
CONTINUOUS
10
11.4814
20
-3.29951
11
11.4796
21
-3.28175
0
LINE
8
BLACK
6
CONTINUOUS
10
11.4796
20
-3.28175
11
11.4743
21
-3.26482
0
LINE
8
BLACK
6
CONTINUOUS
10
11.4743
20
-3.26482
11
11.4659
21
-3.24923
0
LINE
8
BLACK
6
CONTINUOUS
10
11.4659
20
-3.24923
11
11.4546
21
-3.23558
0
LINE
8
BLACK
6
CONTINUOUS
10
11.4546
20
-3.23558
11
11.4409
21
-3.22438
0
LINE
8
BLACK
6
CONTINUOUS
10
11.4409
20
-3.22438
11
11.4252
21
-3.21607
0
LINE
8
BLACK
6
CONTINUOUS
10
11.4252
20
-3.21607
11
11.4083
21
-3.21095
0
LINE
8
BLACK
6
CONTINUOUS
10
11.4083
20
-3.21095
11
11.3905
21
-3.2092
0
LINE
8
BLACK
6
CONTINUOUS
10
11.3905
20
-3.2092
11
0.346885
21
-3.2092
0
LINE
8
BLACK
6
CONTINUOUS
10
5.82373
20
-3.75509
11
5.82726
21
-3.74657
0
LINE
8
BLACK
6
CONTINUOUS
10
5.82726
20
-3.74657
11
5.83238
21
-3.7389
0
LINE
8
BLACK
6
CONTINUOUS
10
5.83238
20
-3.7389
11
5.8389
21
-3.73238
0
LINE
8
BLACK
6
CONTINUOUS
10
5.8389
20
-3.73238
11
5.84657
21
-3.72726
0
LINE
8
BLACK
6
CONTINUOUS
10
5.84657
20
-3.72726
11
5.85509
21
-3.72373
0
LINE
8
BLACK
6
CONTINUOUS
10
5.85509
20
-3.72373
11
5.86414
21
-3.72193
0
LINE
8
BLACK
6
CONTINUOUS
10
5.86414
20
-3.72193
11
5.87336
21
-3.72193
0
LINE
8
BLACK
6
CONTINUOUS
10
5.87336
20
-3.72193
11
5.88241
21
-3.72373
0
LINE
8
BLACK
6
CONTINUOUS
10
5.88241
20
-3.72373
11
5.89093
21
-3.72726
0
LINE
8
BLACK
6
CONTINUOUS
10
5.89093
20
-3.72726
11
5.8986
21
-3.73238
0
LINE
8
BLACK
6
CONTINUOUS
10
5.8986
20
-3.73238
11
5.90512
21
-3.7389
0
LINE
8
BLACK
6
CONTINUOUS
10
5.90512
20
-3.7389
11
5.91024
21
-3.74657
0
LINE
8
BLACK
6
CONTINUOUS
10
5.91024
20
-3.74657
11
5.91377
21
-3.75509
0
LINE
8
BLACK
6
CONTINUOUS
10
5.91377
20
-3.75509
11
5.91557
21
-3.76414
0
LINE
8
BLACK
6
CONTINUOUS
10
5.91557
20
-3.76414
11
5.91557
21
-3.77336
0
LINE
8
BLACK
6
CONTINUOUS
10
5.91557
20
-3.77336
11
5.91377
21
-3.78241
0
LINE
8
BLACK
6
CONTINUOUS
10
5.91377
20
-3.78241
11
5.91024
21
-3.79093
0
LINE
8
BLACK
6
CONTINUOUS
10
5.91024
20
-3.79093
11
5.90512
21
-3.7986
0
LINE
8
BLACK
6
CONTINUOUS
10
5.90512
20
-3.7986
11
5.8986
21
-3.80512
0
LINE
8
BLACK
6
CONTINUOUS
10
5.8986
20
-3.80512
11
5.89093
21
-3.81024
0
LINE
8
BLACK
6
CONTINUOUS
10
5.89093
20
-3.81024
11
5.88241
21
-3.81377
0
LINE
8
BLACK
6
CONTINUOUS
10
5.88241
20
-3.81377
11
5.87336
21
-3.81557
0
LINE
8
BLACK
6
CONTINUOUS
10
5.87336
20
-3.81557
11
5.86414
21
-3.81557
0
LINE
8
BLACK
6
CONTINUOUS
10
5.86414
20
-3.81557
11
5.85509
21
-3.81377
0
LINE
8
BLACK
6
CONTINUOUS
10
5.85509
20
-3.81377
11
5.84657
21
-3.81024
0
LINE
8
BLACK
6
CONTINUOUS
10
5.84657
20
-3.81024
11
5.8389
21
-3.80512
0
LINE
8
BLACK
6
CONTINUOUS
10
5.8389
20
-3.80512
11
5.83238
21
-3.7986
0
LINE
8
BLACK
6
CONTINUOUS
10
5.83238
20
-3.7986
11
5.82726
21
-3.79093
0
LINE
8
BLACK
6
CONTINUOUS
10
5.82726
20
-3.79093
11
5.82373
21
-3.78241
0
LINE
8
BLACK
6
CONTINUOUS
10
5.82373
20
-3.78241
11
5.82193
21
-3.77336
0
LINE
8
BLACK
6
CONTINUOUS
10
5.82193
20
-3.77336
11
5.82193
21
-3.76414
0
LINE
8
BLACK
6
CONTINUOUS
10
5.82193
20
-3.76414
11
5.82373
21
-3.75509
0
LINE
8
BLACK
6
CONTINUOUS
10
5.83013
20
-3.78046
11
5.83316
21
-3.78777
0
LINE
8
BLACK
6
CONTINUOUS
10
5.83316
20
-3.78777
11
5.83756
21
-3.79435
0
LINE
8
BLACK
6
CONTINUOUS
10
5.83756
20
-3.79435
11
5.84315
21
-3.79994
0
LINE
8
BLACK
6
CONTINUOUS
10
5.84315
20
-3.79994
11
5.84973
21
-3.80434
0
LINE
8
BLACK
6
CONTINUOUS
10
5.84973
20
-3.80434
11
5.85704
21
-3.80737
0
LINE
8
BLACK
6
CONTINUOUS
10
5.85704
20
-3.80737
11
5.86479
21
-3.80891
0
LINE
8
BLACK
6
CONTINUOUS
10
5.86479
20
-3.80891
11
5.87271
21
-3.80891
0
LINE
8
BLACK
6
CONTINUOUS
10
5.87271
20
-3.80891
11
5.88046
21
-3.80737
0
LINE
8
BLACK
6
CONTINUOUS
10
5.88046
20
-3.80737
11
5.88777
21
-3.80434
0
LINE
8
BLACK
6
CONTINUOUS
10
5.88777
20
-3.80434
11
5.89435
21
-3.79994
0
LINE
8
BLACK
6
CONTINUOUS
10
5.89435
20
-3.79994
11
5.89994
21
-3.79435
0
LINE
8
BLACK
6
CONTINUOUS
10
5.89994
20
-3.79435
11
5.90434
21
-3.78777
0
LINE
8
BLACK
6
CONTINUOUS
10
5.90434
20
-3.78777
11
5.90737
21
-3.78046
0
LINE
8
BLACK
6
CONTINUOUS
10
5.90737
20
-3.78046
11
5.90891
21
-3.77271
0
LINE
8
BLACK
6
CONTINUOUS
10
5.90891
20
-3.77271
11
5.90891
21
-3.76479
0
LINE
8
BLACK
6
CONTINUOUS
10
5.90891
20
-3.76479
11
5.90737
21
-3.75704
0
LINE
8
BLACK
6
CONTINUOUS
10
5.90737
20
-3.75704
11
5.90434
21
-3.74973
0
LINE
8
BLACK
6
CONTINUOUS
10
5.90434
20
-3.74973
11
5.89994
21
-3.74315
0
LINE
8
BLACK
6
CONTINUOUS
10
5.89994
20
-3.74315
11
5.89435
21
-3.73756
0
LINE
8
BLACK
6
CONTINUOUS
10
5.89435
20
-3.73756
11
5.88777
21
-3.73316
0
LINE
8
BLACK
6
CONTINUOUS
10
5.88777
20
-3.73316
11
5.88046
21
-3.73013
0
LINE
8
BLACK
6
CONTINUOUS
10
5.88046
20
-3.73013
11
5.87271
21
-3.72859
0
LINE
8
BLACK
6
CONTINUOUS
10
5.87271
20
-3.72859
11
5.86479
21
-3.72859
0
LINE
8
BLACK
6
CONTINUOUS
10
5.86479
20
-3.72859
11
5.85704
21
-3.73013
0
LINE
8
BLACK
6
CONTINUOUS
10
5.85704
20
-3.73013
11
5.84973
21
-3.73316
0
LINE
8
BLACK
6
CONTINUOUS
10
5.84973
20
-3.73316
11
5.84315
21
-3.73756
0
LINE
8
BLACK
6
CONTINUOUS
10
5.84315
20
-3.73756
11
5.83756
21
-3.74315
0
LINE
8
BLACK
6
CONTINUOUS
10
5.83756
20
-3.74315
11
5.83316
21
-3.74973
0
LINE
8
BLACK
6
CONTINUOUS
10
5.83316
20
-3.74973
11
5.83013
21
-3.75704
0
LINE
8
BLACK
6
CONTINUOUS
10
5.83013
20
-3.75704
11
5.82859
21
-3.76479
0
LINE
8
BLACK
6
CONTINUOUS
10
5.82859
20
-3.76479
11
5.82859
21
-3.77271
0
LINE
8
BLACK
6
CONTINUOUS
10
5.82859
20
-3.77271
11
5.83013
21
-3.78046
0
LINE
8
BLACK
6
CONTINUOUS
10
0.395604
20
-3.38009
11
0.399133
21
-3.37157
0
LINE
8
BLACK
6
CONTINUOUS
10
0.399133
20
-3.37157
11
0.404257
21
-3.3639
0
LINE
8
BLACK
6
CONTINUOUS
10
0.404257
20
-3.3639
11
0.410779
21
-3.35738
0
LINE
8
BLACK
6
CONTINUOUS
10
0.410779
20
-3.35738
11
0.418447
21
-3.35226
0
LINE
8
BLACK
6
CONTINUOUS
10
0.418447
20
-3.35226
11
0.426968
21
-3.34873
0
LINE
8
BLACK
6
CONTINUOUS
10
0.426968
20
-3.34873
11
0.436014
21
-3.34693
0
LINE
8
BLACK
6
CONTINUOUS
10
0.436014
20
-3.34693
11
0.445236
21
-3.34693
0
LINE
8
BLACK
6
CONTINUOUS
10
0.445236
20
-3.34693
11
0.454282
21
-3.34873
0
LINE
8
BLACK
6
CONTINUOUS
10
0.454282
20
-3.34873
11
0.462803
21
-3.35226
0
LINE
8
BLACK
6
CONTINUOUS
10
0.462803
20
-3.35226
11
0.470471
21
-3.35738
0
LINE
8
BLACK
6
CONTINUOUS
10
0.470471
20
-3.35738
11
0.476993
21
-3.3639
0
LINE
8
BLACK
6
CONTINUOUS
10
0.476993
20
-3.3639
11
0.482117
21
-3.37157
0
LINE
8
BLACK
6
CONTINUOUS
10
0.482117
20
-3.37157
11
0.485646
21
-3.38009
0
LINE
8
BLACK
6
CONTINUOUS
10
0.485646
20
-3.38009
11
0.487446
21
-3.38914
0
LINE
8
BLACK
6
CONTINUOUS
10
0.487446
20
-3.38914
11
0.487446
21
-3.39836
0
LINE
8
BLACK
6
CONTINUOUS
10
0.487446
20
-3.39836
11
0.485646
21
-3.40741
0
LINE
8
BLACK
6
CONTINUOUS
10
0.485646
20
-3.40741
11
0.482117
21
-3.41593
0
LINE
8
BLACK
6
CONTINUOUS
10
0.482117
20
-3.41593
11
0.476993
21
-3.4236
0
LINE
8
BLACK
6
CONTINUOUS
10
0.476993
20
-3.4236
11
0.470471
21
-3.43012
0
LINE
8
BLACK
6
CONTINUOUS
10
0.470471
20
-3.43012
11
0.462803
21
-3.43524
0
LINE
8
BLACK
6
CONTINUOUS
10
0.462803
20
-3.43524
11
0.454282
21
-3.43877
0
LINE
8
BLACK
6
CONTINUOUS
10
0.454282
20
-3.43877
11
0.445236
21
-3.44057
0
LINE
8
BLACK
6
CONTINUOUS
10
0.445236
20
-3.44057
11
0.436014
21
-3.44057
0
LINE
8
BLACK
6
CONTINUOUS
10
0.436014
20
-3.44057
11
0.426968
21
-3.43877
0
LINE
8
BLACK
6
CONTINUOUS
10
0.426968
20
-3.43877
11
0.418447
21
-3.43524
0
LINE
8
BLACK
6
CONTINUOUS
10
0.418447
20
-3.43524
11
0.410779
21
-3.43012
0
LINE
8
BLACK
6
CONTINUOUS
10
0.410779
20
-3.43012
11
0.404257
21
-3.4236
0
LINE
8
BLACK
6
CONTINUOUS
10
0.404257
20
-3.4236
11
0.399133
21
-3.41593
0
LINE
8
BLACK
6
CONTINUOUS
10
0.399133
20
-3.41593
11
0.395604
21
-3.40741
0
LINE
8
BLACK
6
CONTINUOUS
10
0.395604
20
-3.40741
11
0.393804
21
-3.39836
0
LINE
8
BLACK
6
CONTINUOUS
10
0.393804
20
-3.39836
11
0.393804
21
-3.38914
0
LINE
8
BLACK
6
CONTINUOUS
10
0.393804
20
-3.38914
11
0.395604
21
-3.38009
0
LINE
8
BLACK
6
CONTINUOUS
10
0.402008
20
-3.40546
11
0.405036
21
-3.41277
0
LINE
8
BLACK
6
CONTINUOUS
10
0.405036
20
-3.41277
11
0.409431
21
-3.41935
0
LINE
8
BLACK
6
CONTINUOUS
10
0.409431
20
-3.41935
11
0.415024
21
-3.42494
0
LINE
8
BLACK
6
CONTINUOUS
10
0.415024
20
-3.42494
11
0.421602
21
-3.42934
0
LINE
8
BLACK
6
CONTINUOUS
10
0.421602
20
-3.42934
11
0.428911
21
-3.43237
0
LINE
8
BLACK
6
CONTINUOUS
10
0.428911
20
-3.43237
11
0.43667
21
-3.43391
0
LINE
8
BLACK
6
CONTINUOUS
10
0.43667
20
-3.43391
11
0.44458
21
-3.43391
0
LINE
8
BLACK
6
CONTINUOUS
10
0.44458
20
-3.43391
11
0.452339
21
-3.43237
0
LINE
8
BLACK
6
CONTINUOUS
10
0.452339
20
-3.43237
11
0.459648
21
-3.42934
0
LINE
8
BLACK
6
CONTINUOUS
10
0.459648
20
-3.42934
11
0.466226
21
-3.42494
0
LINE
8
BLACK
6
CONTINUOUS
10
0.466226
20
-3.42494
11
0.471819
21
-3.41935
0
LINE
8
BLACK
6
CONTINUOUS
10
0.471819
20
-3.41935
11
0.476214
21
-3.41277
0
LINE
8
BLACK
6
CONTINUOUS
10
0.476214
20
-3.41277
11
0.479242
21
-3.40546
0
LINE
8
BLACK
6
CONTINUOUS
10
0.479242
20
-3.40546
11
0.480785
21
-3.39771
0
LINE
8
BLACK
6
CONTINUOUS
10
0.480785
20
-3.39771
11
0.480785
21
-3.38979
0
LINE
8
BLACK
6
CONTINUOUS
10
0.480785
20
-3.38979
11
0.479242
21
-3.38204
0
LINE
8
BLACK
6
CONTINUOUS
10
0.479242
20
-3.38204
11
0.476214
21
-3.37473
0
LINE
8
BLACK
6
CONTINUOUS
10
0.476214
20
-3.37473
11
0.471819
21
-3.36815
0
LINE
8
BLACK
6
CONTINUOUS
10
0.471819
20
-3.36815
11
0.466226
21
-3.36256
0
LINE
8
BLACK
6
CONTINUOUS
10
0.466226
20
-3.36256
11
0.459648
21
-3.35816
0
LINE
8
BLACK
6
CONTINUOUS
10
0.459648
20
-3.35816
11
0.452339
21
-3.35513
0
LINE
8
BLACK
6
CONTINUOUS
10
0.452339
20
-3.35513
11
0.44458
21
-3.35359
0
LINE
8
BLACK
6
CONTINUOUS
10
0.44458
20
-3.35359
11
0.43667
21
-3.35359
0
LINE
8
BLACK
6
CONTINUOUS
10
0.43667
20
-3.35359
11
0.428911
21
-3.35513
0
LINE
8
BLACK
6
CONTINUOUS
10
0.428911
20
-3.35513
11
0.421602
21
-3.35816
0
LINE
8
BLACK
6
CONTINUOUS
10
0.421602
20
-3.35816
11
0.415024
21
-3.36256
0
LINE
8
BLACK
6
CONTINUOUS
10
0.415024
20
-3.36256
11
0.409431
21
-3.36815
0
LINE
8
BLACK
6
CONTINUOUS
10
0.409431
20
-3.36815
11
0.405036
21
-3.37473
0
LINE
8
BLACK
6
CONTINUOUS
10
0.405036
20
-3.37473
11
0.402008
21
-3.38204
0
LINE
8
BLACK
6
CONTINUOUS
10
0.402008
20
-3.38204
11
0.400465
21
-3.38979
0
LINE
8
BLACK
6
CONTINUOUS
10
0.400465
20
-3.38979
11
0.400465
21
-3.39771
0
LINE
8
BLACK
6
CONTINUOUS
10
0.400465
20
-3.39771
11
0.402008
21
-3.40546
0
LINE
8
BLACK
6
CONTINUOUS
10
11.2519
20
-3.38009
11
11.2554
21
-3.37157
0
LINE
8
BLACK
6
CONTINUOUS
10
11.2554
20
-3.37157
11
11.2605
21
-3.3639
0
LINE
8
BLACK
6
CONTINUOUS
10
11.2605
20
-3.3639
11
11.267
21
-3.35738
0
LINE
8
BLACK
6
CONTINUOUS
10
11.267
20
-3.35738
11
11.2747
21
-3.35226
0
LINE
8
BLACK
6
CONTINUOUS
10
11.2747
20
-3.35226
11
11.2832
21
-3.34873
0
LINE
8
BLACK
6
CONTINUOUS
10
11.2832
20
-3.34873
11
11.2923
21
-3.34693
0
LINE
8
BLACK
6
CONTINUOUS
10
11.2923
20
-3.34693
11
11.3015
21
-3.34693
0
LINE
8
BLACK
6
CONTINUOUS
10
11.3015
20
-3.34693
11
11.3105
21
-3.34873
0
LINE
8
BLACK
6
CONTINUOUS
10
11.3105
20
-3.34873
11
11.3191
21
-3.35226
0
LINE
8
BLACK
6
CONTINUOUS
10
11.3191
20
-3.35226
11
11.3267
21
-3.35738
0
LINE
8
BLACK
6
CONTINUOUS
10
11.3267
20
-3.35738
11
11.3332
21
-3.3639
0
LINE
8
BLACK
6
CONTINUOUS
10
11.3332
20
-3.3639
11
11.3384
21
-3.37157
0
LINE
8
BLACK
6
CONTINUOUS
10
11.3384
20
-3.37157
11
11.3419
21
-3.38009
0
LINE
8
BLACK
6
CONTINUOUS
10
11.3419
20
-3.38009
11
11.3437
21
-3.38914
0
LINE
8
BLACK
6
CONTINUOUS
10
11.3437
20
-3.38914
11
11.3437
21
-3.39836
0
LINE
8
BLACK
6
CONTINUOUS
10
11.3437
20
-3.39836
11
11.3419
21
-3.40741
0
LINE
8
BLACK
6
CONTINUOUS
10
11.3419
20
-3.40741
11
11.3384
21
-3.41593
0
LINE
8
BLACK
6
CONTINUOUS
10
11.3384
20
-3.41593
11
11.3332
21
-3.4236
0
LINE
8
BLACK
6
CONTINUOUS
10
11.3332
20
-3.4236
11
11.3267
21
-3.43012
0
LINE
8
BLACK
6
CONTINUOUS
10
11.3267
20
-3.43012
11
11.3191
21
-3.43524
0
LINE
8
BLACK
6
CONTINUOUS
10
11.3191
20
-3.43524
11
11.3105
21
-3.43877
0
LINE
8
BLACK
6
CONTINUOUS
10
11.3105
20
-3.43877
11
11.3015
21
-3.44057
0
LINE
8
BLACK
6
CONTINUOUS
10
11.3015
20
-3.44057
11
11.2923
21
-3.44057
0
LINE
8
BLACK
6
CONTINUOUS
10
11.2923
20
-3.44057
11
11.2832
21
-3.43877
0
LINE
8
BLACK
6
CONTINUOUS
10
11.2832
20
-3.43877
11
11.2747
21
-3.43524
0
LINE
8
BLACK
6
CONTINUOUS
10
11.2747
20
-3.43524
11
11.267
21
-3.43012
0
LINE
8
BLACK
6
CONTINUOUS
10
11.267
20
-3.43012
11
11.2605
21
-3.4236
0
LINE
8
BLACK
6
CONTINUOUS
10
11.2605
20
-3.4236
11
11.2554
21
-3.41593
0
LINE
8
BLACK
6
CONTINUOUS
10
11.2554
20
-3.41593
11
11.2519
21
-3.40741
0
LINE
8
BLACK
6
CONTINUOUS
10
11.2519
20
-3.40741
11
11.2501
21
-3.39836
0
LINE
8
BLACK
6
CONTINUOUS
10
11.2501
20
-3.39836
11
11.2501
21
-3.38914
0
LINE
8
BLACK
6
CONTINUOUS
10
11.2501
20
-3.38914
11
11.2519
21
-3.38009
0
LINE
8
BLACK
6
CONTINUOUS
10
11.2583
20
-3.40546
11
11.2613
21
-3.41277
0
LINE
8
BLACK
6
CONTINUOUS
10
11.2613
20
-3.41277
11
11.2657
21
-3.41935
0
LINE
8
BLACK
6
CONTINUOUS
10
11.2657
20
-3.41935
11
11.2713
21
-3.42494
0
LINE
8
BLACK
6
CONTINUOUS
10
11.2713
20
-3.42494
11
11.2779
21
-3.42934
0
LINE
8
BLACK
6
CONTINUOUS
10
11.2779
20
-3.42934
11
11.2852
21
-3.43237
0
LINE
8
BLACK
6
CONTINUOUS
10
11.2852
20
-3.43237
11
11.2929
21
-3.43391
0
LINE
8
BLACK
6
CONTINUOUS
10
11.2929
20
-3.43391
11
11.3008
21
-3.43391
0
LINE
8
BLACK
6
CONTINUOUS
10
11.3008
20
-3.43391
11
11.3086
21
-3.43237
0
LINE
8
BLACK
6
CONTINUOUS
10
11.3086
20
-3.43237
11
11.3159
21
-3.42934
0
LINE
8
BLACK
6
CONTINUOUS
10
11.3159
20
-3.42934
11
11.3225
21
-3.42494
0
LINE
8
BLACK
6
CONTINUOUS
10
11.3225
20
-3.42494
11
11.3281
21
-3.41935
0
LINE
8
BLACK
6
CONTINUOUS
10
11.3281
20
-3.41935
11
11.3325
21
-3.41277
0
LINE
8
BLACK
6
CONTINUOUS
10
11.3325
20
-3.41277
11
11.3355
21
-3.40546
0
LINE
8
BLACK
6
CONTINUOUS
10
11.3355
20
-3.40546
11
11.337
21
-3.39771
0
LINE
8
BLACK
6
CONTINUOUS
10
11.337
20
-3.39771
11
11.337
21
-3.38979
0
LINE
8
BLACK
6
CONTINUOUS
10
11.337
20
-3.38979
11
11.3355
21
-3.38204
0
LINE
8
BLACK
6
CONTINUOUS
10
11.3355
20
-3.38204
11
11.3325
21
-3.37473
0
LINE
8
BLACK
6
CONTINUOUS
10
11.3325
20
-3.37473
11
11.3281
21
-3.36815
0
LINE
8
BLACK
6
CONTINUOUS
10
11.3281
20
-3.36815
11
11.3225
21
-3.36256
0
LINE
8
BLACK
6
CONTINUOUS
10
11.3225
20
-3.36256
11
11.3159
21
-3.35816
0
LINE
8
BLACK
6
CONTINUOUS
10
11.3159
20
-3.35816
11
11.3086
21
-3.35513
0
LINE
8
BLACK
6
CONTINUOUS
10
11.3086
20
-3.35513
11
11.3008
21
-3.35359
0
LINE
8
BLACK
6
CONTINUOUS
10
11.3008
20
-3.35359
11
11.2929
21
-3.35359
0
LINE
8
BLACK
6
CONTINUOUS
10
11.2929
20
-3.35359
11
11.2852
21
-3.35513
0
LINE
8
BLACK
6
CONTINUOUS
10
11.2852
20
-3.35513
11
11.2779
21
-3.35816
0
LINE
8
BLACK
6
CONTINUOUS
10
11.2779
20
-3.35816
11
11.2713
21
-3.36256
0
LINE
8
BLACK
6
CONTINUOUS
10
11.2713
20
-3.36256
11
11.2657
21
-3.36815
0
LINE
8
BLACK
6
CONTINUOUS
10
11.2657
20
-3.36815
11
11.2613
21
-3.37473
0
LINE
8
BLACK
6
CONTINUOUS
10
11.2613
20
-3.37473
11
11.2583
21
-3.38204
0
LINE
8
BLACK
6
CONTINUOUS
10
11.2583
20
-3.38204
11
11.2567
21
-3.38979
0
LINE
8
BLACK
6
CONTINUOUS
10
11.2567
20
-3.38979
11
11.2567
21
-3.39771
0
LINE
8
BLACK
6
CONTINUOUS
10
11.2567
20
-3.39771
11
11.2583
21
-3.40546
  0
ENDSEC
  0
EOF
